G04 #@! TF.GenerationSoftware,KiCad,Pcbnew,8.0.0*
G04 #@! TF.CreationDate,2024-03-14T17:28:05+09:00*
G04 #@! TF.ProjectId,Pinky3,50696e6b-7933-42e6-9b69-6361645f7063,0.3*
G04 #@! TF.SameCoordinates,Original*
G04 #@! TF.FileFunction,Profile,NP*
%FSLAX46Y46*%
G04 Gerber Fmt 4.6, Leading zero omitted, Abs format (unit mm)*
G04 Created by KiCad (PCBNEW 8.0.0) date 2024-03-14 17:28:05*
%MOMM*%
%LPD*%
G01*
G04 APERTURE LIST*
G04 #@! TA.AperFunction,Profile*
%ADD10C,0.150000*%
G04 #@! TD*
G04 #@! TA.AperFunction,Profile*
%ADD11C,0.120000*%
G04 #@! TD*
G04 APERTURE END LIST*
D10*
X167455661Y-102929155D02*
G75*
G02*
X168065385Y-102371890I609739J-54945D01*
G01*
X174321644Y-101680466D02*
G75*
G02*
X173621644Y-102380444I-700044J66D01*
G01*
X167455660Y-102929155D02*
X167484466Y-112293937D01*
X40953528Y-115256357D02*
X41000000Y-60500000D01*
X134356305Y-119056208D02*
X135156305Y-119256208D01*
X174332005Y-66387365D02*
X174321644Y-101680466D01*
X176732008Y-113209406D02*
X176762376Y-116054653D01*
X135156305Y-119256208D02*
X152215954Y-124591175D01*
X116053528Y-115956357D02*
X117053528Y-115956357D01*
X116200000Y-54300000D02*
X173640321Y-65677205D01*
X169712365Y-131828456D02*
X176762376Y-116054653D01*
X167997968Y-102381794D02*
X173621644Y-102380466D01*
X176224544Y-112751602D02*
G75*
G02*
X176732031Y-113209406I47256J-457798D01*
G01*
X152215954Y-124591175D02*
X168712365Y-132028456D01*
X41653528Y-115956357D02*
G75*
G02*
X40953543Y-115256357I-28J699957D01*
G01*
X168026251Y-112749456D02*
X176242652Y-112749456D01*
X98100000Y-54300000D02*
X116200000Y-54300000D01*
X116053528Y-115956357D02*
X41653528Y-115956357D01*
X169712364Y-131828456D02*
G75*
G02*
X168712386Y-132028425I-599964J399956D01*
G01*
X167991930Y-112751741D02*
G75*
G02*
X167484429Y-112293937I-47230J457841D01*
G01*
X41800000Y-59700000D02*
X98100000Y-54300000D01*
X116856305Y-115956208D02*
X134356305Y-119056208D01*
X173632704Y-65687454D02*
G75*
G02*
X174332030Y-66387362I-100704J-799946D01*
G01*
X40994153Y-60531857D02*
G75*
G02*
X41800000Y-59700000I1005847J-168143D01*
G01*
D11*
X57600000Y-76650000D02*
X57600000Y-61450000D01*
X57600000Y-61450000D02*
X42400000Y-61450000D01*
X42400000Y-76650000D02*
X57600000Y-76650000D01*
X42400000Y-61450000D02*
X42400000Y-76650000D01*
X57600000Y-95700000D02*
X57600000Y-80500000D01*
X57600000Y-80500000D02*
X42400000Y-80500000D01*
X42400000Y-95700000D02*
X57600000Y-95700000D01*
X42400000Y-80500000D02*
X42400000Y-95700000D01*
X57600000Y-114750000D02*
X57600000Y-99550000D01*
X57600000Y-99550000D02*
X42400000Y-99550000D01*
X42400000Y-114750000D02*
X57600000Y-114750000D01*
X42400000Y-99550000D02*
X42400000Y-114750000D01*
X76650000Y-76650000D02*
X76650000Y-61450000D01*
X76650000Y-61450000D02*
X61450000Y-61450000D01*
X61450000Y-76650000D02*
X76650000Y-76650000D01*
X61450000Y-61450000D02*
X61450000Y-76650000D01*
X76650000Y-95700000D02*
X76650000Y-80500000D01*
X76650000Y-80500000D02*
X61450000Y-80500000D01*
X61450000Y-95700000D02*
X76650000Y-95700000D01*
X61450000Y-80500000D02*
X61450000Y-95700000D01*
X76650000Y-114750000D02*
X76650000Y-99550000D01*
X76650000Y-99550000D02*
X61450000Y-99550000D01*
X61450000Y-114750000D02*
X76650000Y-114750000D01*
X61450000Y-99550000D02*
X61450000Y-114750000D01*
X95700000Y-74745000D02*
X95700000Y-59545000D01*
X95700000Y-59545000D02*
X80500000Y-59545000D01*
X80500000Y-74745000D02*
X95700000Y-74745000D01*
X80500000Y-59545000D02*
X80500000Y-74745000D01*
X95700000Y-93795000D02*
X95700000Y-78595000D01*
X95700000Y-78595000D02*
X80500000Y-78595000D01*
X80500000Y-93795000D02*
X95700000Y-93795000D01*
X80500000Y-78595000D02*
X80500000Y-93795000D01*
X95700000Y-112845000D02*
X95700000Y-97645000D01*
X95700000Y-97645000D02*
X80500000Y-97645000D01*
X80500000Y-112845000D02*
X95700000Y-112845000D01*
X80500000Y-97645000D02*
X80500000Y-112845000D01*
X114750000Y-70935000D02*
X114750000Y-55735000D01*
X114750000Y-55735000D02*
X99550000Y-55735000D01*
X99550000Y-70935000D02*
X114750000Y-70935000D01*
X99550000Y-55735000D02*
X99550000Y-70935000D01*
X114750000Y-89985000D02*
X114750000Y-74785000D01*
X114750000Y-74785000D02*
X99550000Y-74785000D01*
X99550000Y-89985000D02*
X114750000Y-89985000D01*
X99550000Y-74785000D02*
X99550000Y-89985000D01*
X114750000Y-109035000D02*
X114750000Y-93835000D01*
X114750000Y-93835000D02*
X99550000Y-93835000D01*
X99550000Y-109035000D02*
X114750000Y-109035000D01*
X99550000Y-93835000D02*
X99550000Y-109035000D01*
X133800000Y-74745000D02*
X133800000Y-59545000D01*
X133800000Y-59545000D02*
X118600000Y-59545000D01*
X118600000Y-74745000D02*
X133800000Y-74745000D01*
X118600000Y-59545000D02*
X118600000Y-74745000D01*
X133800000Y-93795000D02*
X133800000Y-78595000D01*
X133800000Y-78595000D02*
X118600000Y-78595000D01*
X118600000Y-93795000D02*
X133800000Y-93795000D01*
X118600000Y-78595000D02*
X118600000Y-93795000D01*
X133800000Y-112845000D02*
X133800000Y-97645000D01*
X133800000Y-97645000D02*
X118600000Y-97645000D01*
X118600000Y-112845000D02*
X133800000Y-112845000D01*
X118600000Y-97645000D02*
X118600000Y-112845000D01*
X152850000Y-78555000D02*
X152850000Y-63355000D01*
X152850000Y-63355000D02*
X137650000Y-63355000D01*
X137650000Y-78555000D02*
X152850000Y-78555000D01*
X137650000Y-63355000D02*
X137650000Y-78555000D01*
X152850000Y-97605000D02*
X152850000Y-82405000D01*
X152850000Y-82405000D02*
X137650000Y-82405000D01*
X137650000Y-97605000D02*
X152850000Y-97605000D01*
X137650000Y-82405000D02*
X137650000Y-97605000D01*
X152850000Y-116655000D02*
X152850000Y-101455000D01*
X152850000Y-101455000D02*
X137650000Y-101455000D01*
X137650000Y-116655000D02*
X152850000Y-116655000D01*
X137650000Y-101455000D02*
X137650000Y-116655000D01*
X171900000Y-82365000D02*
X171900000Y-67165000D01*
X171900000Y-67165000D02*
X156700000Y-67165000D01*
X156700000Y-82365000D02*
X171900000Y-82365000D01*
X156700000Y-67165000D02*
X156700000Y-82365000D01*
X171900000Y-101415000D02*
X171900000Y-86215000D01*
X171900000Y-86215000D02*
X156700000Y-86215000D01*
X156700000Y-101415000D02*
X171900000Y-101415000D01*
X156700000Y-86215000D02*
X156700000Y-101415000D01*
X168146561Y-130187862D02*
X174328958Y-116301971D01*
X174328958Y-116301971D02*
X160443067Y-110119574D01*
X154260670Y-124005465D02*
X168146561Y-130187862D01*
X160443067Y-110119574D02*
X154260670Y-124005465D01*
X61450000Y-80500000D02*
X76650000Y-80500000D01*
X61450000Y-95700000D02*
X61450000Y-80500000D01*
X76650000Y-80500000D02*
X76650000Y-95700000D01*
X76650000Y-95700000D02*
X61450000Y-95700000D01*
X118600000Y-97645000D02*
X133800000Y-97645000D01*
X118600000Y-112845000D02*
X118600000Y-97645000D01*
X133800000Y-97645000D02*
X133800000Y-112845000D01*
X133800000Y-112845000D02*
X118600000Y-112845000D01*
X137650000Y-101455000D02*
X152850000Y-101455000D01*
X137650000Y-116655000D02*
X137650000Y-101455000D01*
X152850000Y-101455000D02*
X152850000Y-116655000D01*
X152850000Y-116655000D02*
X137650000Y-116655000D01*
X61450000Y-99550000D02*
X76650000Y-99550000D01*
X61450000Y-114750000D02*
X61450000Y-99550000D01*
X76650000Y-99550000D02*
X76650000Y-114750000D01*
X76650000Y-114750000D02*
X61450000Y-114750000D01*
X42400000Y-61450000D02*
X57600000Y-61450000D01*
X42400000Y-76650000D02*
X42400000Y-61450000D01*
X57600000Y-61450000D02*
X57600000Y-76650000D01*
X57600000Y-76650000D02*
X42400000Y-76650000D01*
X80500000Y-59545000D02*
X95700000Y-59545000D01*
X80500000Y-74745000D02*
X80500000Y-59545000D01*
X95700000Y-59545000D02*
X95700000Y-74745000D01*
X95700000Y-74745000D02*
X80500000Y-74745000D01*
X118600000Y-78595000D02*
X133800000Y-78595000D01*
X118600000Y-93795000D02*
X118600000Y-78595000D01*
X133800000Y-78595000D02*
X133800000Y-93795000D01*
X133800000Y-93795000D02*
X118600000Y-93795000D01*
X156700000Y-67165000D02*
X171900000Y-67165000D01*
X156700000Y-82365000D02*
X156700000Y-67165000D01*
X171900000Y-67165000D02*
X171900000Y-82365000D01*
X171900000Y-82365000D02*
X156700000Y-82365000D01*
X118600000Y-59545000D02*
X133800000Y-59545000D01*
X118600000Y-74745000D02*
X118600000Y-59545000D01*
X133800000Y-59545000D02*
X133800000Y-74745000D01*
X133800000Y-74745000D02*
X118600000Y-74745000D01*
X80500000Y-97645000D02*
X95700000Y-97645000D01*
X80500000Y-112845000D02*
X80500000Y-97645000D01*
X95700000Y-97645000D02*
X95700000Y-112845000D01*
X95700000Y-112845000D02*
X80500000Y-112845000D01*
X61450000Y-61450000D02*
X76650000Y-61450000D01*
X61450000Y-76650000D02*
X61450000Y-61450000D01*
X76650000Y-61450000D02*
X76650000Y-76650000D01*
X76650000Y-76650000D02*
X61450000Y-76650000D01*
X99550000Y-74785000D02*
X114750000Y-74785000D01*
X99550000Y-89985000D02*
X99550000Y-74785000D01*
X114750000Y-74785000D02*
X114750000Y-89985000D01*
X114750000Y-89985000D02*
X99550000Y-89985000D01*
X137650000Y-63355000D02*
X152850000Y-63355000D01*
X137650000Y-78555000D02*
X137650000Y-63355000D01*
X152850000Y-63355000D02*
X152850000Y-78555000D01*
X152850000Y-78555000D02*
X137650000Y-78555000D01*
X99550000Y-93835000D02*
X114750000Y-93835000D01*
X99550000Y-109035000D02*
X99550000Y-93835000D01*
X114750000Y-93835000D02*
X114750000Y-109035000D01*
X114750000Y-109035000D02*
X99550000Y-109035000D01*
X42400000Y-99550000D02*
X57600000Y-99550000D01*
X42400000Y-114750000D02*
X42400000Y-99550000D01*
X57600000Y-99550000D02*
X57600000Y-114750000D01*
X57600000Y-114750000D02*
X42400000Y-114750000D01*
X137650000Y-82405000D02*
X152850000Y-82405000D01*
X137650000Y-97605000D02*
X137650000Y-82405000D01*
X152850000Y-82405000D02*
X152850000Y-97605000D01*
X152850000Y-97605000D02*
X137650000Y-97605000D01*
X156700000Y-86215000D02*
X171900000Y-86215000D01*
X156700000Y-101415000D02*
X156700000Y-86215000D01*
X171900000Y-86215000D02*
X171900000Y-101415000D01*
X171900000Y-101415000D02*
X156700000Y-101415000D01*
X168146561Y-130187862D02*
X154260670Y-124005465D01*
X174328958Y-116301971D02*
X168146561Y-130187862D01*
X154260670Y-124005465D02*
X160443067Y-110119574D01*
X160443067Y-110119574D02*
X174328958Y-116301971D01*
X99550000Y-55735000D02*
X114750000Y-55735000D01*
X99550000Y-70935000D02*
X99550000Y-55735000D01*
X114750000Y-55735000D02*
X114750000Y-70935000D01*
X114750000Y-70935000D02*
X99550000Y-70935000D01*
X80500000Y-78595000D02*
X95700000Y-78595000D01*
X80500000Y-93795000D02*
X80500000Y-78595000D01*
X95700000Y-78595000D02*
X95700000Y-93795000D01*
X95700000Y-93795000D02*
X80500000Y-93795000D01*
X42400000Y-80500000D02*
X57600000Y-80500000D01*
X42400000Y-95700000D02*
X42400000Y-80500000D01*
X57600000Y-80500000D02*
X57600000Y-95700000D01*
X57600000Y-95700000D02*
X42400000Y-95700000D01*
M02*
