G04 #@! TF.GenerationSoftware,KiCad,Pcbnew,8.0.0*
G04 #@! TF.CreationDate,2024-03-14T17:28:04+09:00*
G04 #@! TF.ProjectId,Pinky3,50696e6b-7933-42e6-9b69-6361645f7063,0.3*
G04 #@! TF.SameCoordinates,Original*
G04 #@! TF.FileFunction,Soldermask,Top*
G04 #@! TF.FilePolarity,Negative*
%FSLAX46Y46*%
G04 Gerber Fmt 4.6, Leading zero omitted, Abs format (unit mm)*
G04 Created by KiCad (PCBNEW 8.0.0) date 2024-03-14 17:28:04*
%MOMM*%
%LPD*%
G01*
G04 APERTURE LIST*
G04 APERTURE END LIST*
G36*
X149055630Y-119004867D02*
G01*
X149107318Y-119004867D01*
X149164284Y-119014373D01*
X149225743Y-119019750D01*
X149274009Y-119032682D01*
X149319026Y-119040195D01*
X149379419Y-119060927D01*
X149444626Y-119078400D01*
X149484564Y-119097023D01*
X149522032Y-119109886D01*
X149583587Y-119143198D01*
X149650000Y-119174167D01*
X149681268Y-119196061D01*
X149710796Y-119212041D01*
X149770903Y-119258824D01*
X149835624Y-119304142D01*
X149858433Y-119326951D01*
X149880177Y-119343875D01*
X149936033Y-119404551D01*
X149995858Y-119464376D01*
X150010958Y-119485942D01*
X150025543Y-119501785D01*
X150074201Y-119576261D01*
X150125833Y-119650000D01*
X150134450Y-119668480D01*
X150142937Y-119681470D01*
X150181459Y-119769292D01*
X150221600Y-119855374D01*
X150225338Y-119869324D01*
X150229158Y-119878033D01*
X150254736Y-119979039D01*
X150280250Y-120074257D01*
X150280989Y-120082711D01*
X150281847Y-120086097D01*
X150291891Y-120207321D01*
X150300000Y-120300000D01*
X150291890Y-120392686D01*
X150281847Y-120513902D01*
X150280989Y-120517286D01*
X150280250Y-120525743D01*
X150254731Y-120620977D01*
X150229158Y-120721966D01*
X150225338Y-120730673D01*
X150221600Y-120744626D01*
X150181452Y-120830723D01*
X150142937Y-120918529D01*
X150134452Y-120931515D01*
X150125833Y-120950000D01*
X150074191Y-121023751D01*
X150025543Y-121098214D01*
X150010961Y-121114053D01*
X149995858Y-121135624D01*
X149936021Y-121195460D01*
X149880177Y-121256124D01*
X149858437Y-121273044D01*
X149835624Y-121295858D01*
X149770890Y-121341184D01*
X149710796Y-121387958D01*
X149681274Y-121403934D01*
X149650000Y-121425833D01*
X149583573Y-121456807D01*
X149522032Y-121490113D01*
X149484573Y-121502972D01*
X149444626Y-121521600D01*
X149379406Y-121539075D01*
X149319026Y-121559804D01*
X149274016Y-121567314D01*
X149225743Y-121580250D01*
X149164280Y-121585627D01*
X149107318Y-121595133D01*
X149055630Y-121595133D01*
X149000000Y-121600000D01*
X148944370Y-121595133D01*
X148892682Y-121595133D01*
X148835718Y-121585627D01*
X148774257Y-121580250D01*
X148725984Y-121567315D01*
X148680973Y-121559804D01*
X148620588Y-121539074D01*
X148555374Y-121521600D01*
X148515429Y-121502973D01*
X148477967Y-121490113D01*
X148416418Y-121456804D01*
X148350000Y-121425833D01*
X148318728Y-121403936D01*
X148289203Y-121387958D01*
X148229099Y-121341177D01*
X148164376Y-121295858D01*
X148141565Y-121273047D01*
X148119822Y-121256124D01*
X148063965Y-121195447D01*
X148004142Y-121135624D01*
X147989041Y-121114057D01*
X147974456Y-121098214D01*
X147925793Y-121023730D01*
X147874167Y-120950000D01*
X147865550Y-120931521D01*
X147857062Y-120918529D01*
X147818530Y-120830687D01*
X147778400Y-120744626D01*
X147774662Y-120730678D01*
X147770841Y-120721966D01*
X147745250Y-120620909D01*
X147719750Y-120525743D01*
X147719010Y-120517293D01*
X147718152Y-120513902D01*
X147708090Y-120392470D01*
X147700000Y-120300000D01*
X147708089Y-120207537D01*
X147718152Y-120086097D01*
X147719010Y-120082705D01*
X147719750Y-120074257D01*
X147745245Y-119979107D01*
X147770841Y-119878033D01*
X147774663Y-119869318D01*
X147778400Y-119855374D01*
X147818523Y-119769328D01*
X147857062Y-119681470D01*
X147865551Y-119668475D01*
X147874167Y-119650000D01*
X147925783Y-119576283D01*
X147974456Y-119501785D01*
X147989044Y-119485937D01*
X148004142Y-119464376D01*
X148063953Y-119404564D01*
X148119822Y-119343875D01*
X148141570Y-119326947D01*
X148164376Y-119304142D01*
X148229086Y-119258831D01*
X148289203Y-119212041D01*
X148318735Y-119196058D01*
X148350000Y-119174167D01*
X148416405Y-119143201D01*
X148477967Y-119109886D01*
X148515437Y-119097022D01*
X148555374Y-119078400D01*
X148620575Y-119060929D01*
X148680973Y-119040195D01*
X148725992Y-119032682D01*
X148774257Y-119019750D01*
X148835715Y-119014373D01*
X148892682Y-119004867D01*
X148944370Y-119004867D01*
X149000000Y-119000000D01*
X149055630Y-119004867D01*
G37*
G36*
X59555630Y-96304867D02*
G01*
X59607318Y-96304867D01*
X59664284Y-96314373D01*
X59725743Y-96319750D01*
X59774009Y-96332682D01*
X59819026Y-96340195D01*
X59879419Y-96360927D01*
X59944626Y-96378400D01*
X59984564Y-96397023D01*
X60022032Y-96409886D01*
X60083587Y-96443198D01*
X60150000Y-96474167D01*
X60181268Y-96496061D01*
X60210796Y-96512041D01*
X60270903Y-96558824D01*
X60335624Y-96604142D01*
X60358433Y-96626951D01*
X60380177Y-96643875D01*
X60436033Y-96704551D01*
X60495858Y-96764376D01*
X60510958Y-96785942D01*
X60525543Y-96801785D01*
X60574201Y-96876261D01*
X60625833Y-96950000D01*
X60634450Y-96968480D01*
X60642937Y-96981470D01*
X60681459Y-97069292D01*
X60721600Y-97155374D01*
X60725338Y-97169324D01*
X60729158Y-97178033D01*
X60754736Y-97279039D01*
X60780250Y-97374257D01*
X60780989Y-97382711D01*
X60781847Y-97386097D01*
X60791891Y-97507321D01*
X60800000Y-97600000D01*
X60791890Y-97692686D01*
X60781847Y-97813902D01*
X60780989Y-97817286D01*
X60780250Y-97825743D01*
X60754731Y-97920977D01*
X60729158Y-98021966D01*
X60725338Y-98030673D01*
X60721600Y-98044626D01*
X60681452Y-98130723D01*
X60642937Y-98218529D01*
X60634452Y-98231515D01*
X60625833Y-98250000D01*
X60574191Y-98323751D01*
X60525543Y-98398214D01*
X60510961Y-98414053D01*
X60495858Y-98435624D01*
X60436021Y-98495460D01*
X60380177Y-98556124D01*
X60358437Y-98573044D01*
X60335624Y-98595858D01*
X60270890Y-98641184D01*
X60210796Y-98687958D01*
X60181274Y-98703934D01*
X60150000Y-98725833D01*
X60083573Y-98756807D01*
X60022032Y-98790113D01*
X59984573Y-98802972D01*
X59944626Y-98821600D01*
X59879406Y-98839075D01*
X59819026Y-98859804D01*
X59774016Y-98867314D01*
X59725743Y-98880250D01*
X59664280Y-98885627D01*
X59607318Y-98895133D01*
X59555630Y-98895133D01*
X59500000Y-98900000D01*
X59444370Y-98895133D01*
X59392682Y-98895133D01*
X59335718Y-98885627D01*
X59274257Y-98880250D01*
X59225984Y-98867315D01*
X59180973Y-98859804D01*
X59120588Y-98839074D01*
X59055374Y-98821600D01*
X59015429Y-98802973D01*
X58977967Y-98790113D01*
X58916418Y-98756804D01*
X58850000Y-98725833D01*
X58818728Y-98703936D01*
X58789203Y-98687958D01*
X58729099Y-98641177D01*
X58664376Y-98595858D01*
X58641565Y-98573047D01*
X58619822Y-98556124D01*
X58563965Y-98495447D01*
X58504142Y-98435624D01*
X58489041Y-98414057D01*
X58474456Y-98398214D01*
X58425793Y-98323730D01*
X58374167Y-98250000D01*
X58365550Y-98231521D01*
X58357062Y-98218529D01*
X58318530Y-98130687D01*
X58278400Y-98044626D01*
X58274662Y-98030678D01*
X58270841Y-98021966D01*
X58245250Y-97920909D01*
X58219750Y-97825743D01*
X58219010Y-97817293D01*
X58218152Y-97813902D01*
X58208090Y-97692470D01*
X58200000Y-97600000D01*
X58208089Y-97507537D01*
X58218152Y-97386097D01*
X58219010Y-97382705D01*
X58219750Y-97374257D01*
X58245245Y-97279107D01*
X58270841Y-97178033D01*
X58274663Y-97169318D01*
X58278400Y-97155374D01*
X58318523Y-97069328D01*
X58357062Y-96981470D01*
X58365551Y-96968475D01*
X58374167Y-96950000D01*
X58425783Y-96876283D01*
X58474456Y-96801785D01*
X58489044Y-96785937D01*
X58504142Y-96764376D01*
X58563953Y-96704564D01*
X58619822Y-96643875D01*
X58641570Y-96626947D01*
X58664376Y-96604142D01*
X58729086Y-96558831D01*
X58789203Y-96512041D01*
X58818735Y-96496058D01*
X58850000Y-96474167D01*
X58916405Y-96443201D01*
X58977967Y-96409886D01*
X59015437Y-96397022D01*
X59055374Y-96378400D01*
X59120575Y-96360929D01*
X59180973Y-96340195D01*
X59225992Y-96332682D01*
X59274257Y-96319750D01*
X59335715Y-96314373D01*
X59392682Y-96304867D01*
X59444370Y-96304867D01*
X59500000Y-96300000D01*
X59555630Y-96304867D01*
G37*
G36*
X117133245Y-94028387D02*
G01*
X117184933Y-94028387D01*
X117241899Y-94037893D01*
X117303358Y-94043270D01*
X117351624Y-94056202D01*
X117396641Y-94063715D01*
X117457034Y-94084447D01*
X117522241Y-94101920D01*
X117562179Y-94120543D01*
X117599647Y-94133406D01*
X117661202Y-94166718D01*
X117727615Y-94197687D01*
X117758883Y-94219581D01*
X117788411Y-94235561D01*
X117848518Y-94282344D01*
X117913239Y-94327662D01*
X117936048Y-94350471D01*
X117957792Y-94367395D01*
X118013648Y-94428071D01*
X118073473Y-94487896D01*
X118088573Y-94509462D01*
X118103158Y-94525305D01*
X118151816Y-94599781D01*
X118203448Y-94673520D01*
X118212065Y-94692000D01*
X118220552Y-94704990D01*
X118259074Y-94792812D01*
X118299215Y-94878894D01*
X118302953Y-94892844D01*
X118306773Y-94901553D01*
X118332351Y-95002559D01*
X118357865Y-95097777D01*
X118358604Y-95106231D01*
X118359462Y-95109617D01*
X118369506Y-95230841D01*
X118377615Y-95323520D01*
X118369505Y-95416206D01*
X118359462Y-95537422D01*
X118358604Y-95540806D01*
X118357865Y-95549263D01*
X118332346Y-95644497D01*
X118306773Y-95745486D01*
X118302953Y-95754193D01*
X118299215Y-95768146D01*
X118259067Y-95854243D01*
X118220552Y-95942049D01*
X118212067Y-95955035D01*
X118203448Y-95973520D01*
X118151806Y-96047271D01*
X118103158Y-96121734D01*
X118088576Y-96137573D01*
X118073473Y-96159144D01*
X118013636Y-96218980D01*
X117957792Y-96279644D01*
X117936052Y-96296564D01*
X117913239Y-96319378D01*
X117848505Y-96364704D01*
X117788411Y-96411478D01*
X117758889Y-96427454D01*
X117727615Y-96449353D01*
X117661188Y-96480327D01*
X117599647Y-96513633D01*
X117562188Y-96526492D01*
X117522241Y-96545120D01*
X117457021Y-96562595D01*
X117396641Y-96583324D01*
X117351631Y-96590834D01*
X117303358Y-96603770D01*
X117241895Y-96609147D01*
X117184933Y-96618653D01*
X117133245Y-96618653D01*
X117077615Y-96623520D01*
X117021985Y-96618653D01*
X116970297Y-96618653D01*
X116913333Y-96609147D01*
X116851872Y-96603770D01*
X116803599Y-96590835D01*
X116758588Y-96583324D01*
X116698203Y-96562594D01*
X116632989Y-96545120D01*
X116593044Y-96526493D01*
X116555582Y-96513633D01*
X116494033Y-96480324D01*
X116427615Y-96449353D01*
X116396343Y-96427456D01*
X116366818Y-96411478D01*
X116306714Y-96364697D01*
X116241991Y-96319378D01*
X116219180Y-96296567D01*
X116197437Y-96279644D01*
X116141580Y-96218967D01*
X116081757Y-96159144D01*
X116066656Y-96137577D01*
X116052071Y-96121734D01*
X116003408Y-96047250D01*
X115951782Y-95973520D01*
X115943165Y-95955041D01*
X115934677Y-95942049D01*
X115896145Y-95854207D01*
X115856015Y-95768146D01*
X115852277Y-95754198D01*
X115848456Y-95745486D01*
X115822865Y-95644429D01*
X115797365Y-95549263D01*
X115796625Y-95540813D01*
X115795767Y-95537422D01*
X115785705Y-95415990D01*
X115777615Y-95323520D01*
X115785704Y-95231057D01*
X115795767Y-95109617D01*
X115796625Y-95106225D01*
X115797365Y-95097777D01*
X115822860Y-95002627D01*
X115848456Y-94901553D01*
X115852278Y-94892838D01*
X115856015Y-94878894D01*
X115896138Y-94792848D01*
X115934677Y-94704990D01*
X115943166Y-94691995D01*
X115951782Y-94673520D01*
X116003398Y-94599803D01*
X116052071Y-94525305D01*
X116066659Y-94509457D01*
X116081757Y-94487896D01*
X116141568Y-94428084D01*
X116197437Y-94367395D01*
X116219185Y-94350467D01*
X116241991Y-94327662D01*
X116306701Y-94282351D01*
X116366818Y-94235561D01*
X116396350Y-94219578D01*
X116427615Y-94197687D01*
X116494020Y-94166721D01*
X116555582Y-94133406D01*
X116593052Y-94120542D01*
X116632989Y-94101920D01*
X116698190Y-94084449D01*
X116758588Y-94063715D01*
X116803607Y-94056202D01*
X116851872Y-94043270D01*
X116913330Y-94037893D01*
X116970297Y-94028387D01*
X117021985Y-94028387D01*
X117077615Y-94023520D01*
X117133245Y-94028387D01*
G37*
G36*
X154995630Y-82524867D02*
G01*
X155047318Y-82524867D01*
X155104284Y-82534373D01*
X155165743Y-82539750D01*
X155214009Y-82552682D01*
X155259026Y-82560195D01*
X155319419Y-82580927D01*
X155384626Y-82598400D01*
X155424564Y-82617023D01*
X155462032Y-82629886D01*
X155523587Y-82663198D01*
X155590000Y-82694167D01*
X155621268Y-82716061D01*
X155650796Y-82732041D01*
X155710903Y-82778824D01*
X155775624Y-82824142D01*
X155798433Y-82846951D01*
X155820177Y-82863875D01*
X155876033Y-82924551D01*
X155935858Y-82984376D01*
X155950958Y-83005942D01*
X155965543Y-83021785D01*
X156014201Y-83096261D01*
X156065833Y-83170000D01*
X156074450Y-83188480D01*
X156082937Y-83201470D01*
X156121459Y-83289292D01*
X156161600Y-83375374D01*
X156165338Y-83389324D01*
X156169158Y-83398033D01*
X156194736Y-83499039D01*
X156220250Y-83594257D01*
X156220989Y-83602711D01*
X156221847Y-83606097D01*
X156231891Y-83727321D01*
X156240000Y-83820000D01*
X156231890Y-83912686D01*
X156221847Y-84033902D01*
X156220989Y-84037286D01*
X156220250Y-84045743D01*
X156194731Y-84140977D01*
X156169158Y-84241966D01*
X156165338Y-84250673D01*
X156161600Y-84264626D01*
X156121452Y-84350723D01*
X156082937Y-84438529D01*
X156074452Y-84451515D01*
X156065833Y-84470000D01*
X156014191Y-84543751D01*
X155965543Y-84618214D01*
X155950961Y-84634053D01*
X155935858Y-84655624D01*
X155876021Y-84715460D01*
X155820177Y-84776124D01*
X155798437Y-84793044D01*
X155775624Y-84815858D01*
X155710890Y-84861184D01*
X155650796Y-84907958D01*
X155621274Y-84923934D01*
X155590000Y-84945833D01*
X155523573Y-84976807D01*
X155462032Y-85010113D01*
X155424573Y-85022972D01*
X155384626Y-85041600D01*
X155319406Y-85059075D01*
X155259026Y-85079804D01*
X155214016Y-85087314D01*
X155165743Y-85100250D01*
X155104280Y-85105627D01*
X155047318Y-85115133D01*
X154995630Y-85115133D01*
X154940000Y-85120000D01*
X154884370Y-85115133D01*
X154832682Y-85115133D01*
X154775718Y-85105627D01*
X154714257Y-85100250D01*
X154665984Y-85087315D01*
X154620973Y-85079804D01*
X154560588Y-85059074D01*
X154495374Y-85041600D01*
X154455429Y-85022973D01*
X154417967Y-85010113D01*
X154356418Y-84976804D01*
X154290000Y-84945833D01*
X154258728Y-84923936D01*
X154229203Y-84907958D01*
X154169099Y-84861177D01*
X154104376Y-84815858D01*
X154081565Y-84793047D01*
X154059822Y-84776124D01*
X154003965Y-84715447D01*
X153944142Y-84655624D01*
X153929041Y-84634057D01*
X153914456Y-84618214D01*
X153865793Y-84543730D01*
X153814167Y-84470000D01*
X153805550Y-84451521D01*
X153797062Y-84438529D01*
X153758530Y-84350687D01*
X153718400Y-84264626D01*
X153714662Y-84250678D01*
X153710841Y-84241966D01*
X153685250Y-84140909D01*
X153659750Y-84045743D01*
X153659010Y-84037293D01*
X153658152Y-84033902D01*
X153648090Y-83912470D01*
X153640000Y-83820000D01*
X153648089Y-83727537D01*
X153658152Y-83606097D01*
X153659010Y-83602705D01*
X153659750Y-83594257D01*
X153685245Y-83499107D01*
X153710841Y-83398033D01*
X153714663Y-83389318D01*
X153718400Y-83375374D01*
X153758523Y-83289328D01*
X153797062Y-83201470D01*
X153805551Y-83188475D01*
X153814167Y-83170000D01*
X153865783Y-83096283D01*
X153914456Y-83021785D01*
X153929044Y-83005937D01*
X153944142Y-82984376D01*
X154003953Y-82924564D01*
X154059822Y-82863875D01*
X154081570Y-82846947D01*
X154104376Y-82824142D01*
X154169086Y-82778831D01*
X154229203Y-82732041D01*
X154258735Y-82716058D01*
X154290000Y-82694167D01*
X154356405Y-82663201D01*
X154417967Y-82629886D01*
X154455437Y-82617022D01*
X154495374Y-82598400D01*
X154560575Y-82580929D01*
X154620973Y-82560195D01*
X154665992Y-82552682D01*
X154714257Y-82539750D01*
X154775715Y-82534373D01*
X154832682Y-82524867D01*
X154884370Y-82524867D01*
X154940000Y-82520000D01*
X154995630Y-82524867D01*
G37*
G36*
X59555630Y-77254867D02*
G01*
X59607318Y-77254867D01*
X59664284Y-77264373D01*
X59725743Y-77269750D01*
X59774009Y-77282682D01*
X59819026Y-77290195D01*
X59879419Y-77310927D01*
X59944626Y-77328400D01*
X59984564Y-77347023D01*
X60022032Y-77359886D01*
X60083587Y-77393198D01*
X60150000Y-77424167D01*
X60181268Y-77446061D01*
X60210796Y-77462041D01*
X60270903Y-77508824D01*
X60335624Y-77554142D01*
X60358433Y-77576951D01*
X60380177Y-77593875D01*
X60436033Y-77654551D01*
X60495858Y-77714376D01*
X60510958Y-77735942D01*
X60525543Y-77751785D01*
X60574201Y-77826261D01*
X60625833Y-77900000D01*
X60634450Y-77918480D01*
X60642937Y-77931470D01*
X60681459Y-78019292D01*
X60721600Y-78105374D01*
X60725338Y-78119324D01*
X60729158Y-78128033D01*
X60754736Y-78229039D01*
X60780250Y-78324257D01*
X60780989Y-78332711D01*
X60781847Y-78336097D01*
X60791891Y-78457321D01*
X60800000Y-78550000D01*
X60791890Y-78642686D01*
X60781847Y-78763902D01*
X60780989Y-78767286D01*
X60780250Y-78775743D01*
X60754731Y-78870977D01*
X60729158Y-78971966D01*
X60725338Y-78980673D01*
X60721600Y-78994626D01*
X60681452Y-79080723D01*
X60642937Y-79168529D01*
X60634452Y-79181515D01*
X60625833Y-79200000D01*
X60574191Y-79273751D01*
X60525543Y-79348214D01*
X60510961Y-79364053D01*
X60495858Y-79385624D01*
X60436021Y-79445460D01*
X60380177Y-79506124D01*
X60358437Y-79523044D01*
X60335624Y-79545858D01*
X60270890Y-79591184D01*
X60210796Y-79637958D01*
X60181274Y-79653934D01*
X60150000Y-79675833D01*
X60083573Y-79706807D01*
X60022032Y-79740113D01*
X59984573Y-79752972D01*
X59944626Y-79771600D01*
X59879406Y-79789075D01*
X59819026Y-79809804D01*
X59774016Y-79817314D01*
X59725743Y-79830250D01*
X59664280Y-79835627D01*
X59607318Y-79845133D01*
X59555630Y-79845133D01*
X59500000Y-79850000D01*
X59444370Y-79845133D01*
X59392682Y-79845133D01*
X59335718Y-79835627D01*
X59274257Y-79830250D01*
X59225984Y-79817315D01*
X59180973Y-79809804D01*
X59120588Y-79789074D01*
X59055374Y-79771600D01*
X59015429Y-79752973D01*
X58977967Y-79740113D01*
X58916418Y-79706804D01*
X58850000Y-79675833D01*
X58818728Y-79653936D01*
X58789203Y-79637958D01*
X58729099Y-79591177D01*
X58664376Y-79545858D01*
X58641565Y-79523047D01*
X58619822Y-79506124D01*
X58563965Y-79445447D01*
X58504142Y-79385624D01*
X58489041Y-79364057D01*
X58474456Y-79348214D01*
X58425793Y-79273730D01*
X58374167Y-79200000D01*
X58365550Y-79181521D01*
X58357062Y-79168529D01*
X58318530Y-79080687D01*
X58278400Y-78994626D01*
X58274662Y-78980678D01*
X58270841Y-78971966D01*
X58245250Y-78870909D01*
X58219750Y-78775743D01*
X58219010Y-78767293D01*
X58218152Y-78763902D01*
X58208090Y-78642470D01*
X58200000Y-78550000D01*
X58208089Y-78457537D01*
X58218152Y-78336097D01*
X58219010Y-78332705D01*
X58219750Y-78324257D01*
X58245245Y-78229107D01*
X58270841Y-78128033D01*
X58274663Y-78119318D01*
X58278400Y-78105374D01*
X58318523Y-78019328D01*
X58357062Y-77931470D01*
X58365551Y-77918475D01*
X58374167Y-77900000D01*
X58425783Y-77826283D01*
X58474456Y-77751785D01*
X58489044Y-77735937D01*
X58504142Y-77714376D01*
X58563953Y-77654564D01*
X58619822Y-77593875D01*
X58641570Y-77576947D01*
X58664376Y-77554142D01*
X58729086Y-77508831D01*
X58789203Y-77462041D01*
X58818735Y-77446058D01*
X58850000Y-77424167D01*
X58916405Y-77393201D01*
X58977967Y-77359886D01*
X59015437Y-77347022D01*
X59055374Y-77328400D01*
X59120575Y-77310929D01*
X59180973Y-77290195D01*
X59225992Y-77282682D01*
X59274257Y-77269750D01*
X59335715Y-77264373D01*
X59392682Y-77254867D01*
X59444370Y-77254867D01*
X59500000Y-77250000D01*
X59555630Y-77254867D01*
G37*
M02*
