%TF.GenerationSoftware,KiCad,Pcbnew,8.0.0*%
%TF.CreationDate,2024-03-14T17:28:00+09:00*%
%TF.ProjectId,Pinky3,50696e6b-7933-42e6-9b69-6361645f7063,0.3*%
%TF.SameCoordinates,Original*%
%TF.FileFunction,Drillmap*%
%TF.FilePolarity,Positive*%
%FSLAX45Y45*%
G04 Gerber Fmt 4.5, Leading zero omitted, Abs format (unit mm)*
G04 Created by KiCad (PCBNEW 8.0.0) date 2024-03-14 17:28:00*
%MOMM*%
%LPD*%
G01*
G04 APERTURE LIST*
%ADD10C,0.150000*%
%ADD11C,0.120000*%
%ADD12C,0.200000*%
%ADD13C,0.220000*%
G04 APERTURE END LIST*
D10*
X16745566Y-10292916D02*
G75*
G02*
X16806539Y-10237189I60974J-5495D01*
G01*
X17432164Y-10168047D02*
G75*
G02*
X17362164Y-10238044I-70004J7D01*
G01*
X16745566Y-10292916D02*
X16748447Y-11229394D01*
X4095353Y-11525636D02*
X4100000Y-6050000D01*
X13435630Y-11905621D02*
X13515630Y-11925621D01*
X17433201Y-6638736D02*
X17432164Y-10168047D01*
X17673201Y-11320941D02*
X17676238Y-11605465D01*
X13515630Y-11925621D02*
X15221595Y-12459117D01*
X11605353Y-11595636D02*
X11705353Y-11595636D01*
X11620000Y-5430000D02*
X17364032Y-6567720D01*
X16971237Y-13182846D02*
X17676238Y-11605465D01*
X16799797Y-10238179D02*
X17362164Y-10238047D01*
X17622454Y-11275160D02*
G75*
G02*
X17673203Y-11320941I4726J-45780D01*
G01*
X15221595Y-12459117D02*
X16871237Y-13202846D01*
X4165353Y-11595636D02*
G75*
G02*
X4095354Y-11525636I-3J69996D01*
G01*
X16802625Y-11274946D02*
X17624265Y-11274946D01*
X9810000Y-5430000D02*
X11620000Y-5430000D01*
X11605353Y-11595636D02*
X4165353Y-11595636D01*
X16971236Y-13182846D02*
G75*
G02*
X16871239Y-13202842I-59996J39996D01*
G01*
X16799193Y-11275174D02*
G75*
G02*
X16748443Y-11229394I-4723J45784D01*
G01*
X4180000Y-5970000D02*
X9810000Y-5430000D01*
X11685630Y-11595621D02*
X13435630Y-11905621D01*
X17363270Y-6568745D02*
G75*
G02*
X17433203Y-6638736I-10070J-79995D01*
G01*
X4099415Y-6053186D02*
G75*
G02*
X4180000Y-5970000I100585J-16814D01*
G01*
D11*
X5760000Y-7665000D02*
X5760000Y-6145000D01*
X5760000Y-6145000D02*
X4240000Y-6145000D01*
X4240000Y-7665000D02*
X5760000Y-7665000D01*
X4240000Y-6145000D02*
X4240000Y-7665000D01*
X5760000Y-9570000D02*
X5760000Y-8050000D01*
X5760000Y-8050000D02*
X4240000Y-8050000D01*
X4240000Y-9570000D02*
X5760000Y-9570000D01*
X4240000Y-8050000D02*
X4240000Y-9570000D01*
X5760000Y-11475000D02*
X5760000Y-9955000D01*
X5760000Y-9955000D02*
X4240000Y-9955000D01*
X4240000Y-11475000D02*
X5760000Y-11475000D01*
X4240000Y-9955000D02*
X4240000Y-11475000D01*
X7665000Y-7665000D02*
X7665000Y-6145000D01*
X7665000Y-6145000D02*
X6145000Y-6145000D01*
X6145000Y-7665000D02*
X7665000Y-7665000D01*
X6145000Y-6145000D02*
X6145000Y-7665000D01*
X7665000Y-9570000D02*
X7665000Y-8050000D01*
X7665000Y-8050000D02*
X6145000Y-8050000D01*
X6145000Y-9570000D02*
X7665000Y-9570000D01*
X6145000Y-8050000D02*
X6145000Y-9570000D01*
X7665000Y-11475000D02*
X7665000Y-9955000D01*
X7665000Y-9955000D02*
X6145000Y-9955000D01*
X6145000Y-11475000D02*
X7665000Y-11475000D01*
X6145000Y-9955000D02*
X6145000Y-11475000D01*
X9570000Y-7474500D02*
X9570000Y-5954500D01*
X9570000Y-5954500D02*
X8050000Y-5954500D01*
X8050000Y-7474500D02*
X9570000Y-7474500D01*
X8050000Y-5954500D02*
X8050000Y-7474500D01*
X9570000Y-9379500D02*
X9570000Y-7859500D01*
X9570000Y-7859500D02*
X8050000Y-7859500D01*
X8050000Y-9379500D02*
X9570000Y-9379500D01*
X8050000Y-7859500D02*
X8050000Y-9379500D01*
X9570000Y-11284500D02*
X9570000Y-9764500D01*
X9570000Y-9764500D02*
X8050000Y-9764500D01*
X8050000Y-11284500D02*
X9570000Y-11284500D01*
X8050000Y-9764500D02*
X8050000Y-11284500D01*
X11475000Y-7093500D02*
X11475000Y-5573500D01*
X11475000Y-5573500D02*
X9955000Y-5573500D01*
X9955000Y-7093500D02*
X11475000Y-7093500D01*
X9955000Y-5573500D02*
X9955000Y-7093500D01*
X11475000Y-8998500D02*
X11475000Y-7478500D01*
X11475000Y-7478500D02*
X9955000Y-7478500D01*
X9955000Y-8998500D02*
X11475000Y-8998500D01*
X9955000Y-7478500D02*
X9955000Y-8998500D01*
X11475000Y-10903500D02*
X11475000Y-9383500D01*
X11475000Y-9383500D02*
X9955000Y-9383500D01*
X9955000Y-10903500D02*
X11475000Y-10903500D01*
X9955000Y-9383500D02*
X9955000Y-10903500D01*
X13380000Y-7474500D02*
X13380000Y-5954500D01*
X13380000Y-5954500D02*
X11860000Y-5954500D01*
X11860000Y-7474500D02*
X13380000Y-7474500D01*
X11860000Y-5954500D02*
X11860000Y-7474500D01*
X13380000Y-9379500D02*
X13380000Y-7859500D01*
X13380000Y-7859500D02*
X11860000Y-7859500D01*
X11860000Y-9379500D02*
X13380000Y-9379500D01*
X11860000Y-7859500D02*
X11860000Y-9379500D01*
X13380000Y-11284500D02*
X13380000Y-9764500D01*
X13380000Y-9764500D02*
X11860000Y-9764500D01*
X11860000Y-11284500D02*
X13380000Y-11284500D01*
X11860000Y-9764500D02*
X11860000Y-11284500D01*
X15285000Y-7855500D02*
X15285000Y-6335500D01*
X15285000Y-6335500D02*
X13765000Y-6335500D01*
X13765000Y-7855500D02*
X15285000Y-7855500D01*
X13765000Y-6335500D02*
X13765000Y-7855500D01*
X15285000Y-9760500D02*
X15285000Y-8240500D01*
X15285000Y-8240500D02*
X13765000Y-8240500D01*
X13765000Y-9760500D02*
X15285000Y-9760500D01*
X13765000Y-8240500D02*
X13765000Y-9760500D01*
X15285000Y-11665500D02*
X15285000Y-10145500D01*
X15285000Y-10145500D02*
X13765000Y-10145500D01*
X13765000Y-11665500D02*
X15285000Y-11665500D01*
X13765000Y-10145500D02*
X13765000Y-11665500D01*
X17190000Y-8236500D02*
X17190000Y-6716500D01*
X17190000Y-6716500D02*
X15670000Y-6716500D01*
X15670000Y-8236500D02*
X17190000Y-8236500D01*
X15670000Y-6716500D02*
X15670000Y-8236500D01*
X17190000Y-10141500D02*
X17190000Y-8621500D01*
X17190000Y-8621500D02*
X15670000Y-8621500D01*
X15670000Y-10141500D02*
X17190000Y-10141500D01*
X15670000Y-8621500D02*
X15670000Y-10141500D01*
X16814656Y-13018786D02*
X17432896Y-11630197D01*
X17432896Y-11630197D02*
X16044307Y-11011957D01*
X15426067Y-12400546D02*
X16814656Y-13018786D01*
X16044307Y-11011957D02*
X15426067Y-12400546D01*
X6145000Y-8050000D02*
X7665000Y-8050000D01*
X6145000Y-9570000D02*
X6145000Y-8050000D01*
X7665000Y-8050000D02*
X7665000Y-9570000D01*
X7665000Y-9570000D02*
X6145000Y-9570000D01*
X11860000Y-9764500D02*
X13380000Y-9764500D01*
X11860000Y-11284500D02*
X11860000Y-9764500D01*
X13380000Y-9764500D02*
X13380000Y-11284500D01*
X13380000Y-11284500D02*
X11860000Y-11284500D01*
X13765000Y-10145500D02*
X15285000Y-10145500D01*
X13765000Y-11665500D02*
X13765000Y-10145500D01*
X15285000Y-10145500D02*
X15285000Y-11665500D01*
X15285000Y-11665500D02*
X13765000Y-11665500D01*
X6145000Y-9955000D02*
X7665000Y-9955000D01*
X6145000Y-11475000D02*
X6145000Y-9955000D01*
X7665000Y-9955000D02*
X7665000Y-11475000D01*
X7665000Y-11475000D02*
X6145000Y-11475000D01*
X4240000Y-6145000D02*
X5760000Y-6145000D01*
X4240000Y-7665000D02*
X4240000Y-6145000D01*
X5760000Y-6145000D02*
X5760000Y-7665000D01*
X5760000Y-7665000D02*
X4240000Y-7665000D01*
X8050000Y-5954500D02*
X9570000Y-5954500D01*
X8050000Y-7474500D02*
X8050000Y-5954500D01*
X9570000Y-5954500D02*
X9570000Y-7474500D01*
X9570000Y-7474500D02*
X8050000Y-7474500D01*
X11860000Y-7859500D02*
X13380000Y-7859500D01*
X11860000Y-9379500D02*
X11860000Y-7859500D01*
X13380000Y-7859500D02*
X13380000Y-9379500D01*
X13380000Y-9379500D02*
X11860000Y-9379500D01*
X15670000Y-6716500D02*
X17190000Y-6716500D01*
X15670000Y-8236500D02*
X15670000Y-6716500D01*
X17190000Y-6716500D02*
X17190000Y-8236500D01*
X17190000Y-8236500D02*
X15670000Y-8236500D01*
X11860000Y-5954500D02*
X13380000Y-5954500D01*
X11860000Y-7474500D02*
X11860000Y-5954500D01*
X13380000Y-5954500D02*
X13380000Y-7474500D01*
X13380000Y-7474500D02*
X11860000Y-7474500D01*
X8050000Y-9764500D02*
X9570000Y-9764500D01*
X8050000Y-11284500D02*
X8050000Y-9764500D01*
X9570000Y-9764500D02*
X9570000Y-11284500D01*
X9570000Y-11284500D02*
X8050000Y-11284500D01*
X6145000Y-6145000D02*
X7665000Y-6145000D01*
X6145000Y-7665000D02*
X6145000Y-6145000D01*
X7665000Y-6145000D02*
X7665000Y-7665000D01*
X7665000Y-7665000D02*
X6145000Y-7665000D01*
X9955000Y-7478500D02*
X11475000Y-7478500D01*
X9955000Y-8998500D02*
X9955000Y-7478500D01*
X11475000Y-7478500D02*
X11475000Y-8998500D01*
X11475000Y-8998500D02*
X9955000Y-8998500D01*
X13765000Y-6335500D02*
X15285000Y-6335500D01*
X13765000Y-7855500D02*
X13765000Y-6335500D01*
X15285000Y-6335500D02*
X15285000Y-7855500D01*
X15285000Y-7855500D02*
X13765000Y-7855500D01*
X9955000Y-9383500D02*
X11475000Y-9383500D01*
X9955000Y-10903500D02*
X9955000Y-9383500D01*
X11475000Y-9383500D02*
X11475000Y-10903500D01*
X11475000Y-10903500D02*
X9955000Y-10903500D01*
X4240000Y-9955000D02*
X5760000Y-9955000D01*
X4240000Y-11475000D02*
X4240000Y-9955000D01*
X5760000Y-9955000D02*
X5760000Y-11475000D01*
X5760000Y-11475000D02*
X4240000Y-11475000D01*
X13765000Y-8240500D02*
X15285000Y-8240500D01*
X13765000Y-9760500D02*
X13765000Y-8240500D01*
X15285000Y-8240500D02*
X15285000Y-9760500D01*
X15285000Y-9760500D02*
X13765000Y-9760500D01*
X15670000Y-8621500D02*
X17190000Y-8621500D01*
X15670000Y-10141500D02*
X15670000Y-8621500D01*
X17190000Y-8621500D02*
X17190000Y-10141500D01*
X17190000Y-10141500D02*
X15670000Y-10141500D01*
X16814656Y-13018786D02*
X15426067Y-12400546D01*
X17432896Y-11630197D02*
X16814656Y-13018786D01*
X15426067Y-12400546D02*
X16044307Y-11011957D01*
X16044307Y-11011957D02*
X17432896Y-11630197D01*
X9955000Y-5573500D02*
X11475000Y-5573500D01*
X9955000Y-7093500D02*
X9955000Y-5573500D01*
X11475000Y-5573500D02*
X11475000Y-7093500D01*
X11475000Y-7093500D02*
X9955000Y-7093500D01*
X8050000Y-7859500D02*
X9570000Y-7859500D01*
X8050000Y-9379500D02*
X8050000Y-7859500D01*
X9570000Y-7859500D02*
X9570000Y-9379500D01*
X9570000Y-9379500D02*
X8050000Y-9379500D01*
X4240000Y-8050000D02*
X5760000Y-8050000D01*
X4240000Y-9570000D02*
X4240000Y-8050000D01*
X5760000Y-8050000D02*
X5760000Y-9570000D01*
X5760000Y-9570000D02*
X4240000Y-9570000D01*
D12*
D13*
X5840000Y-7745000D02*
X6060000Y-7965000D01*
X6060000Y-7745000D02*
X5840000Y-7965000D01*
X5840000Y-9650000D02*
X6060000Y-9870000D01*
X6060000Y-9650000D02*
X5840000Y-9870000D01*
X11597761Y-9422352D02*
X11817761Y-9642352D01*
X11817761Y-9422352D02*
X11597761Y-9642352D01*
X14790000Y-11920000D02*
X15010000Y-12140000D01*
X15010000Y-11920000D02*
X14790000Y-12140000D01*
X15384000Y-8272000D02*
X15604000Y-8492000D01*
X15604000Y-8272000D02*
X15384000Y-8492000D01*
D12*
X4348630Y-13533939D02*
X4348630Y-13333939D01*
X4348630Y-13333939D02*
X4396249Y-13333939D01*
X4396249Y-13333939D02*
X4424820Y-13343463D01*
X4424820Y-13343463D02*
X4443868Y-13362511D01*
X4443868Y-13362511D02*
X4453392Y-13381558D01*
X4453392Y-13381558D02*
X4462915Y-13419654D01*
X4462915Y-13419654D02*
X4462915Y-13448225D01*
X4462915Y-13448225D02*
X4453392Y-13486320D01*
X4453392Y-13486320D02*
X4443868Y-13505368D01*
X4443868Y-13505368D02*
X4424820Y-13524416D01*
X4424820Y-13524416D02*
X4396249Y-13533939D01*
X4396249Y-13533939D02*
X4348630Y-13533939D01*
X4548630Y-13533939D02*
X4548630Y-13400606D01*
X4548630Y-13438701D02*
X4558153Y-13419654D01*
X4558153Y-13419654D02*
X4567677Y-13410130D01*
X4567677Y-13410130D02*
X4586725Y-13400606D01*
X4586725Y-13400606D02*
X4605773Y-13400606D01*
X4672439Y-13533939D02*
X4672439Y-13400606D01*
X4672439Y-13333939D02*
X4662915Y-13343463D01*
X4662915Y-13343463D02*
X4672439Y-13352987D01*
X4672439Y-13352987D02*
X4681963Y-13343463D01*
X4681963Y-13343463D02*
X4672439Y-13333939D01*
X4672439Y-13333939D02*
X4672439Y-13352987D01*
X4796249Y-13533939D02*
X4777201Y-13524416D01*
X4777201Y-13524416D02*
X4767677Y-13505368D01*
X4767677Y-13505368D02*
X4767677Y-13333939D01*
X4901011Y-13533939D02*
X4881963Y-13524416D01*
X4881963Y-13524416D02*
X4872439Y-13505368D01*
X4872439Y-13505368D02*
X4872439Y-13333939D01*
X5129582Y-13533939D02*
X5129582Y-13333939D01*
X5129582Y-13333939D02*
X5196249Y-13476797D01*
X5196249Y-13476797D02*
X5262915Y-13333939D01*
X5262915Y-13333939D02*
X5262915Y-13533939D01*
X5443868Y-13533939D02*
X5443868Y-13429178D01*
X5443868Y-13429178D02*
X5434344Y-13410130D01*
X5434344Y-13410130D02*
X5415296Y-13400606D01*
X5415296Y-13400606D02*
X5377201Y-13400606D01*
X5377201Y-13400606D02*
X5358153Y-13410130D01*
X5443868Y-13524416D02*
X5424820Y-13533939D01*
X5424820Y-13533939D02*
X5377201Y-13533939D01*
X5377201Y-13533939D02*
X5358153Y-13524416D01*
X5358153Y-13524416D02*
X5348630Y-13505368D01*
X5348630Y-13505368D02*
X5348630Y-13486320D01*
X5348630Y-13486320D02*
X5358153Y-13467273D01*
X5358153Y-13467273D02*
X5377201Y-13457749D01*
X5377201Y-13457749D02*
X5424820Y-13457749D01*
X5424820Y-13457749D02*
X5443868Y-13448225D01*
X5539106Y-13400606D02*
X5539106Y-13600606D01*
X5539106Y-13410130D02*
X5558153Y-13400606D01*
X5558153Y-13400606D02*
X5596249Y-13400606D01*
X5596249Y-13400606D02*
X5615296Y-13410130D01*
X5615296Y-13410130D02*
X5624820Y-13419654D01*
X5624820Y-13419654D02*
X5634344Y-13438701D01*
X5634344Y-13438701D02*
X5634344Y-13495844D01*
X5634344Y-13495844D02*
X5624820Y-13514892D01*
X5624820Y-13514892D02*
X5615296Y-13524416D01*
X5615296Y-13524416D02*
X5596249Y-13533939D01*
X5596249Y-13533939D02*
X5558153Y-13533939D01*
X5558153Y-13533939D02*
X5539106Y-13524416D01*
X5720058Y-13514892D02*
X5729582Y-13524416D01*
X5729582Y-13524416D02*
X5720058Y-13533939D01*
X5720058Y-13533939D02*
X5710534Y-13524416D01*
X5710534Y-13524416D02*
X5720058Y-13514892D01*
X5720058Y-13514892D02*
X5720058Y-13533939D01*
X5720058Y-13410130D02*
X5729582Y-13419654D01*
X5729582Y-13419654D02*
X5720058Y-13429178D01*
X5720058Y-13429178D02*
X5710534Y-13419654D01*
X5710534Y-13419654D02*
X5720058Y-13410130D01*
X5720058Y-13410130D02*
X5720058Y-13429178D01*
X3887853Y-13762456D02*
X4087853Y-13962456D01*
X4087853Y-13762456D02*
X3887853Y-13962456D01*
X4339106Y-13772987D02*
X4348630Y-13763463D01*
X4348630Y-13763463D02*
X4367677Y-13753939D01*
X4367677Y-13753939D02*
X4415296Y-13753939D01*
X4415296Y-13753939D02*
X4434344Y-13763463D01*
X4434344Y-13763463D02*
X4443868Y-13772987D01*
X4443868Y-13772987D02*
X4453392Y-13792035D01*
X4453392Y-13792035D02*
X4453392Y-13811082D01*
X4453392Y-13811082D02*
X4443868Y-13839654D01*
X4443868Y-13839654D02*
X4329582Y-13953939D01*
X4329582Y-13953939D02*
X4453392Y-13953939D01*
X4539106Y-13934892D02*
X4548630Y-13944416D01*
X4548630Y-13944416D02*
X4539106Y-13953939D01*
X4539106Y-13953939D02*
X4529582Y-13944416D01*
X4529582Y-13944416D02*
X4539106Y-13934892D01*
X4539106Y-13934892D02*
X4539106Y-13953939D01*
X4624820Y-13772987D02*
X4634344Y-13763463D01*
X4634344Y-13763463D02*
X4653392Y-13753939D01*
X4653392Y-13753939D02*
X4701011Y-13753939D01*
X4701011Y-13753939D02*
X4720058Y-13763463D01*
X4720058Y-13763463D02*
X4729582Y-13772987D01*
X4729582Y-13772987D02*
X4739106Y-13792035D01*
X4739106Y-13792035D02*
X4739106Y-13811082D01*
X4739106Y-13811082D02*
X4729582Y-13839654D01*
X4729582Y-13839654D02*
X4615296Y-13953939D01*
X4615296Y-13953939D02*
X4739106Y-13953939D01*
X4862915Y-13753939D02*
X4881963Y-13753939D01*
X4881963Y-13753939D02*
X4901011Y-13763463D01*
X4901011Y-13763463D02*
X4910534Y-13772987D01*
X4910534Y-13772987D02*
X4920058Y-13792035D01*
X4920058Y-13792035D02*
X4929582Y-13830130D01*
X4929582Y-13830130D02*
X4929582Y-13877749D01*
X4929582Y-13877749D02*
X4920058Y-13915844D01*
X4920058Y-13915844D02*
X4910534Y-13934892D01*
X4910534Y-13934892D02*
X4901011Y-13944416D01*
X4901011Y-13944416D02*
X4881963Y-13953939D01*
X4881963Y-13953939D02*
X4862915Y-13953939D01*
X4862915Y-13953939D02*
X4843868Y-13944416D01*
X4843868Y-13944416D02*
X4834344Y-13934892D01*
X4834344Y-13934892D02*
X4824820Y-13915844D01*
X4824820Y-13915844D02*
X4815296Y-13877749D01*
X4815296Y-13877749D02*
X4815296Y-13830130D01*
X4815296Y-13830130D02*
X4824820Y-13792035D01*
X4824820Y-13792035D02*
X4834344Y-13772987D01*
X4834344Y-13772987D02*
X4843868Y-13763463D01*
X4843868Y-13763463D02*
X4862915Y-13753939D01*
X5053392Y-13753939D02*
X5072439Y-13753939D01*
X5072439Y-13753939D02*
X5091487Y-13763463D01*
X5091487Y-13763463D02*
X5101011Y-13772987D01*
X5101011Y-13772987D02*
X5110534Y-13792035D01*
X5110534Y-13792035D02*
X5120058Y-13830130D01*
X5120058Y-13830130D02*
X5120058Y-13877749D01*
X5120058Y-13877749D02*
X5110534Y-13915844D01*
X5110534Y-13915844D02*
X5101011Y-13934892D01*
X5101011Y-13934892D02*
X5091487Y-13944416D01*
X5091487Y-13944416D02*
X5072439Y-13953939D01*
X5072439Y-13953939D02*
X5053392Y-13953939D01*
X5053392Y-13953939D02*
X5034344Y-13944416D01*
X5034344Y-13944416D02*
X5024820Y-13934892D01*
X5024820Y-13934892D02*
X5015296Y-13915844D01*
X5015296Y-13915844D02*
X5005773Y-13877749D01*
X5005773Y-13877749D02*
X5005773Y-13830130D01*
X5005773Y-13830130D02*
X5015296Y-13792035D01*
X5015296Y-13792035D02*
X5024820Y-13772987D01*
X5024820Y-13772987D02*
X5034344Y-13763463D01*
X5034344Y-13763463D02*
X5053392Y-13753939D01*
X5205773Y-13953939D02*
X5205773Y-13820606D01*
X5205773Y-13839654D02*
X5215296Y-13830130D01*
X5215296Y-13830130D02*
X5234344Y-13820606D01*
X5234344Y-13820606D02*
X5262915Y-13820606D01*
X5262915Y-13820606D02*
X5281963Y-13830130D01*
X5281963Y-13830130D02*
X5291487Y-13849178D01*
X5291487Y-13849178D02*
X5291487Y-13953939D01*
X5291487Y-13849178D02*
X5301011Y-13830130D01*
X5301011Y-13830130D02*
X5320058Y-13820606D01*
X5320058Y-13820606D02*
X5348630Y-13820606D01*
X5348630Y-13820606D02*
X5367677Y-13830130D01*
X5367677Y-13830130D02*
X5377201Y-13849178D01*
X5377201Y-13849178D02*
X5377201Y-13953939D01*
X5472439Y-13953939D02*
X5472439Y-13820606D01*
X5472439Y-13839654D02*
X5481963Y-13830130D01*
X5481963Y-13830130D02*
X5501011Y-13820606D01*
X5501011Y-13820606D02*
X5529582Y-13820606D01*
X5529582Y-13820606D02*
X5548630Y-13830130D01*
X5548630Y-13830130D02*
X5558154Y-13849178D01*
X5558154Y-13849178D02*
X5558154Y-13953939D01*
X5558154Y-13849178D02*
X5567677Y-13830130D01*
X5567677Y-13830130D02*
X5586725Y-13820606D01*
X5586725Y-13820606D02*
X5615296Y-13820606D01*
X5615296Y-13820606D02*
X5634344Y-13830130D01*
X5634344Y-13830130D02*
X5643868Y-13849178D01*
X5643868Y-13849178D02*
X5643868Y-13953939D01*
X6034344Y-13744416D02*
X5862915Y-14001558D01*
X6291487Y-13753939D02*
X6310535Y-13753939D01*
X6310535Y-13753939D02*
X6329582Y-13763463D01*
X6329582Y-13763463D02*
X6339106Y-13772987D01*
X6339106Y-13772987D02*
X6348630Y-13792035D01*
X6348630Y-13792035D02*
X6358154Y-13830130D01*
X6358154Y-13830130D02*
X6358154Y-13877749D01*
X6358154Y-13877749D02*
X6348630Y-13915844D01*
X6348630Y-13915844D02*
X6339106Y-13934892D01*
X6339106Y-13934892D02*
X6329582Y-13944416D01*
X6329582Y-13944416D02*
X6310535Y-13953939D01*
X6310535Y-13953939D02*
X6291487Y-13953939D01*
X6291487Y-13953939D02*
X6272439Y-13944416D01*
X6272439Y-13944416D02*
X6262915Y-13934892D01*
X6262915Y-13934892D02*
X6253392Y-13915844D01*
X6253392Y-13915844D02*
X6243868Y-13877749D01*
X6243868Y-13877749D02*
X6243868Y-13830130D01*
X6243868Y-13830130D02*
X6253392Y-13792035D01*
X6253392Y-13792035D02*
X6262915Y-13772987D01*
X6262915Y-13772987D02*
X6272439Y-13763463D01*
X6272439Y-13763463D02*
X6291487Y-13753939D01*
X6443868Y-13934892D02*
X6453392Y-13944416D01*
X6453392Y-13944416D02*
X6443868Y-13953939D01*
X6443868Y-13953939D02*
X6434344Y-13944416D01*
X6434344Y-13944416D02*
X6443868Y-13934892D01*
X6443868Y-13934892D02*
X6443868Y-13953939D01*
X6577201Y-13753939D02*
X6596249Y-13753939D01*
X6596249Y-13753939D02*
X6615296Y-13763463D01*
X6615296Y-13763463D02*
X6624820Y-13772987D01*
X6624820Y-13772987D02*
X6634344Y-13792035D01*
X6634344Y-13792035D02*
X6643868Y-13830130D01*
X6643868Y-13830130D02*
X6643868Y-13877749D01*
X6643868Y-13877749D02*
X6634344Y-13915844D01*
X6634344Y-13915844D02*
X6624820Y-13934892D01*
X6624820Y-13934892D02*
X6615296Y-13944416D01*
X6615296Y-13944416D02*
X6596249Y-13953939D01*
X6596249Y-13953939D02*
X6577201Y-13953939D01*
X6577201Y-13953939D02*
X6558154Y-13944416D01*
X6558154Y-13944416D02*
X6548630Y-13934892D01*
X6548630Y-13934892D02*
X6539106Y-13915844D01*
X6539106Y-13915844D02*
X6529582Y-13877749D01*
X6529582Y-13877749D02*
X6529582Y-13830130D01*
X6529582Y-13830130D02*
X6539106Y-13792035D01*
X6539106Y-13792035D02*
X6548630Y-13772987D01*
X6548630Y-13772987D02*
X6558154Y-13763463D01*
X6558154Y-13763463D02*
X6577201Y-13753939D01*
X6758154Y-13839654D02*
X6739106Y-13830130D01*
X6739106Y-13830130D02*
X6729582Y-13820606D01*
X6729582Y-13820606D02*
X6720058Y-13801558D01*
X6720058Y-13801558D02*
X6720058Y-13792035D01*
X6720058Y-13792035D02*
X6729582Y-13772987D01*
X6729582Y-13772987D02*
X6739106Y-13763463D01*
X6739106Y-13763463D02*
X6758154Y-13753939D01*
X6758154Y-13753939D02*
X6796249Y-13753939D01*
X6796249Y-13753939D02*
X6815296Y-13763463D01*
X6815296Y-13763463D02*
X6824820Y-13772987D01*
X6824820Y-13772987D02*
X6834344Y-13792035D01*
X6834344Y-13792035D02*
X6834344Y-13801558D01*
X6834344Y-13801558D02*
X6824820Y-13820606D01*
X6824820Y-13820606D02*
X6815296Y-13830130D01*
X6815296Y-13830130D02*
X6796249Y-13839654D01*
X6796249Y-13839654D02*
X6758154Y-13839654D01*
X6758154Y-13839654D02*
X6739106Y-13849178D01*
X6739106Y-13849178D02*
X6729582Y-13858701D01*
X6729582Y-13858701D02*
X6720058Y-13877749D01*
X6720058Y-13877749D02*
X6720058Y-13915844D01*
X6720058Y-13915844D02*
X6729582Y-13934892D01*
X6729582Y-13934892D02*
X6739106Y-13944416D01*
X6739106Y-13944416D02*
X6758154Y-13953939D01*
X6758154Y-13953939D02*
X6796249Y-13953939D01*
X6796249Y-13953939D02*
X6815296Y-13944416D01*
X6815296Y-13944416D02*
X6824820Y-13934892D01*
X6824820Y-13934892D02*
X6834344Y-13915844D01*
X6834344Y-13915844D02*
X6834344Y-13877749D01*
X6834344Y-13877749D02*
X6824820Y-13858701D01*
X6824820Y-13858701D02*
X6815296Y-13849178D01*
X6815296Y-13849178D02*
X6796249Y-13839654D01*
X7005773Y-13753939D02*
X6967677Y-13753939D01*
X6967677Y-13753939D02*
X6948630Y-13763463D01*
X6948630Y-13763463D02*
X6939106Y-13772987D01*
X6939106Y-13772987D02*
X6920058Y-13801558D01*
X6920058Y-13801558D02*
X6910535Y-13839654D01*
X6910535Y-13839654D02*
X6910535Y-13915844D01*
X6910535Y-13915844D02*
X6920058Y-13934892D01*
X6920058Y-13934892D02*
X6929582Y-13944416D01*
X6929582Y-13944416D02*
X6948630Y-13953939D01*
X6948630Y-13953939D02*
X6986725Y-13953939D01*
X6986725Y-13953939D02*
X7005773Y-13944416D01*
X7005773Y-13944416D02*
X7015296Y-13934892D01*
X7015296Y-13934892D02*
X7024820Y-13915844D01*
X7024820Y-13915844D02*
X7024820Y-13868225D01*
X7024820Y-13868225D02*
X7015296Y-13849178D01*
X7015296Y-13849178D02*
X7005773Y-13839654D01*
X7005773Y-13839654D02*
X6986725Y-13830130D01*
X6986725Y-13830130D02*
X6948630Y-13830130D01*
X6948630Y-13830130D02*
X6929582Y-13839654D01*
X6929582Y-13839654D02*
X6920058Y-13849178D01*
X6920058Y-13849178D02*
X6910535Y-13868225D01*
X7196249Y-13753939D02*
X7158154Y-13753939D01*
X7158154Y-13753939D02*
X7139106Y-13763463D01*
X7139106Y-13763463D02*
X7129582Y-13772987D01*
X7129582Y-13772987D02*
X7110535Y-13801558D01*
X7110535Y-13801558D02*
X7101011Y-13839654D01*
X7101011Y-13839654D02*
X7101011Y-13915844D01*
X7101011Y-13915844D02*
X7110535Y-13934892D01*
X7110535Y-13934892D02*
X7120058Y-13944416D01*
X7120058Y-13944416D02*
X7139106Y-13953939D01*
X7139106Y-13953939D02*
X7177201Y-13953939D01*
X7177201Y-13953939D02*
X7196249Y-13944416D01*
X7196249Y-13944416D02*
X7205773Y-13934892D01*
X7205773Y-13934892D02*
X7215296Y-13915844D01*
X7215296Y-13915844D02*
X7215296Y-13868225D01*
X7215296Y-13868225D02*
X7205773Y-13849178D01*
X7205773Y-13849178D02*
X7196249Y-13839654D01*
X7196249Y-13839654D02*
X7177201Y-13830130D01*
X7177201Y-13830130D02*
X7139106Y-13830130D01*
X7139106Y-13830130D02*
X7120058Y-13839654D01*
X7120058Y-13839654D02*
X7110535Y-13849178D01*
X7110535Y-13849178D02*
X7101011Y-13868225D01*
X7291487Y-13753939D02*
X7291487Y-13792035D01*
X7367677Y-13753939D02*
X7367677Y-13792035D01*
X7662916Y-14030130D02*
X7653392Y-14020606D01*
X7653392Y-14020606D02*
X7634344Y-13992035D01*
X7634344Y-13992035D02*
X7624820Y-13972987D01*
X7624820Y-13972987D02*
X7615297Y-13944416D01*
X7615297Y-13944416D02*
X7605773Y-13896797D01*
X7605773Y-13896797D02*
X7605773Y-13858701D01*
X7605773Y-13858701D02*
X7615297Y-13811082D01*
X7615297Y-13811082D02*
X7624820Y-13782511D01*
X7624820Y-13782511D02*
X7634344Y-13763463D01*
X7634344Y-13763463D02*
X7653392Y-13734892D01*
X7653392Y-13734892D02*
X7662916Y-13725368D01*
X7834344Y-13753939D02*
X7739106Y-13753939D01*
X7739106Y-13753939D02*
X7729582Y-13849178D01*
X7729582Y-13849178D02*
X7739106Y-13839654D01*
X7739106Y-13839654D02*
X7758154Y-13830130D01*
X7758154Y-13830130D02*
X7805773Y-13830130D01*
X7805773Y-13830130D02*
X7824820Y-13839654D01*
X7824820Y-13839654D02*
X7834344Y-13849178D01*
X7834344Y-13849178D02*
X7843868Y-13868225D01*
X7843868Y-13868225D02*
X7843868Y-13915844D01*
X7843868Y-13915844D02*
X7834344Y-13934892D01*
X7834344Y-13934892D02*
X7824820Y-13944416D01*
X7824820Y-13944416D02*
X7805773Y-13953939D01*
X7805773Y-13953939D02*
X7758154Y-13953939D01*
X7758154Y-13953939D02*
X7739106Y-13944416D01*
X7739106Y-13944416D02*
X7729582Y-13934892D01*
X8081963Y-13953939D02*
X8081963Y-13753939D01*
X8167678Y-13953939D02*
X8167678Y-13849178D01*
X8167678Y-13849178D02*
X8158154Y-13830130D01*
X8158154Y-13830130D02*
X8139106Y-13820606D01*
X8139106Y-13820606D02*
X8110535Y-13820606D01*
X8110535Y-13820606D02*
X8091487Y-13830130D01*
X8091487Y-13830130D02*
X8081963Y-13839654D01*
X8291487Y-13953939D02*
X8272439Y-13944416D01*
X8272439Y-13944416D02*
X8262916Y-13934892D01*
X8262916Y-13934892D02*
X8253392Y-13915844D01*
X8253392Y-13915844D02*
X8253392Y-13858701D01*
X8253392Y-13858701D02*
X8262916Y-13839654D01*
X8262916Y-13839654D02*
X8272439Y-13830130D01*
X8272439Y-13830130D02*
X8291487Y-13820606D01*
X8291487Y-13820606D02*
X8320059Y-13820606D01*
X8320059Y-13820606D02*
X8339106Y-13830130D01*
X8339106Y-13830130D02*
X8348630Y-13839654D01*
X8348630Y-13839654D02*
X8358154Y-13858701D01*
X8358154Y-13858701D02*
X8358154Y-13915844D01*
X8358154Y-13915844D02*
X8348630Y-13934892D01*
X8348630Y-13934892D02*
X8339106Y-13944416D01*
X8339106Y-13944416D02*
X8320059Y-13953939D01*
X8320059Y-13953939D02*
X8291487Y-13953939D01*
X8472440Y-13953939D02*
X8453392Y-13944416D01*
X8453392Y-13944416D02*
X8443868Y-13925368D01*
X8443868Y-13925368D02*
X8443868Y-13753939D01*
X8624821Y-13944416D02*
X8605773Y-13953939D01*
X8605773Y-13953939D02*
X8567678Y-13953939D01*
X8567678Y-13953939D02*
X8548630Y-13944416D01*
X8548630Y-13944416D02*
X8539106Y-13925368D01*
X8539106Y-13925368D02*
X8539106Y-13849178D01*
X8539106Y-13849178D02*
X8548630Y-13830130D01*
X8548630Y-13830130D02*
X8567678Y-13820606D01*
X8567678Y-13820606D02*
X8605773Y-13820606D01*
X8605773Y-13820606D02*
X8624821Y-13830130D01*
X8624821Y-13830130D02*
X8634344Y-13849178D01*
X8634344Y-13849178D02*
X8634344Y-13868225D01*
X8634344Y-13868225D02*
X8539106Y-13887273D01*
X8710535Y-13944416D02*
X8729582Y-13953939D01*
X8729582Y-13953939D02*
X8767678Y-13953939D01*
X8767678Y-13953939D02*
X8786725Y-13944416D01*
X8786725Y-13944416D02*
X8796249Y-13925368D01*
X8796249Y-13925368D02*
X8796249Y-13915844D01*
X8796249Y-13915844D02*
X8786725Y-13896797D01*
X8786725Y-13896797D02*
X8767678Y-13887273D01*
X8767678Y-13887273D02*
X8739106Y-13887273D01*
X8739106Y-13887273D02*
X8720059Y-13877749D01*
X8720059Y-13877749D02*
X8710535Y-13858701D01*
X8710535Y-13858701D02*
X8710535Y-13849178D01*
X8710535Y-13849178D02*
X8720059Y-13830130D01*
X8720059Y-13830130D02*
X8739106Y-13820606D01*
X8739106Y-13820606D02*
X8767678Y-13820606D01*
X8767678Y-13820606D02*
X8786725Y-13830130D01*
X8862916Y-14030130D02*
X8872440Y-14020606D01*
X8872440Y-14020606D02*
X8891487Y-13992035D01*
X8891487Y-13992035D02*
X8901011Y-13972987D01*
X8901011Y-13972987D02*
X8910535Y-13944416D01*
X8910535Y-13944416D02*
X8920059Y-13896797D01*
X8920059Y-13896797D02*
X8920059Y-13858701D01*
X8920059Y-13858701D02*
X8910535Y-13811082D01*
X8910535Y-13811082D02*
X8901011Y-13782511D01*
X8901011Y-13782511D02*
X8891487Y-13763463D01*
X8891487Y-13763463D02*
X8872440Y-13734892D01*
X8872440Y-13734892D02*
X8862916Y-13725368D01*
X9224821Y-14030130D02*
X9215297Y-14020606D01*
X9215297Y-14020606D02*
X9196249Y-13992035D01*
X9196249Y-13992035D02*
X9186725Y-13972987D01*
X9186725Y-13972987D02*
X9177202Y-13944416D01*
X9177202Y-13944416D02*
X9167678Y-13896797D01*
X9167678Y-13896797D02*
X9167678Y-13858701D01*
X9167678Y-13858701D02*
X9177202Y-13811082D01*
X9177202Y-13811082D02*
X9186725Y-13782511D01*
X9186725Y-13782511D02*
X9196249Y-13763463D01*
X9196249Y-13763463D02*
X9215297Y-13734892D01*
X9215297Y-13734892D02*
X9224821Y-13725368D01*
X9301011Y-13820606D02*
X9301011Y-13953939D01*
X9301011Y-13839654D02*
X9310535Y-13830130D01*
X9310535Y-13830130D02*
X9329582Y-13820606D01*
X9329582Y-13820606D02*
X9358154Y-13820606D01*
X9358154Y-13820606D02*
X9377202Y-13830130D01*
X9377202Y-13830130D02*
X9386725Y-13849178D01*
X9386725Y-13849178D02*
X9386725Y-13953939D01*
X9510535Y-13953939D02*
X9491487Y-13944416D01*
X9491487Y-13944416D02*
X9481963Y-13934892D01*
X9481963Y-13934892D02*
X9472440Y-13915844D01*
X9472440Y-13915844D02*
X9472440Y-13858701D01*
X9472440Y-13858701D02*
X9481963Y-13839654D01*
X9481963Y-13839654D02*
X9491487Y-13830130D01*
X9491487Y-13830130D02*
X9510535Y-13820606D01*
X9510535Y-13820606D02*
X9539106Y-13820606D01*
X9539106Y-13820606D02*
X9558154Y-13830130D01*
X9558154Y-13830130D02*
X9567678Y-13839654D01*
X9567678Y-13839654D02*
X9577202Y-13858701D01*
X9577202Y-13858701D02*
X9577202Y-13915844D01*
X9577202Y-13915844D02*
X9567678Y-13934892D01*
X9567678Y-13934892D02*
X9558154Y-13944416D01*
X9558154Y-13944416D02*
X9539106Y-13953939D01*
X9539106Y-13953939D02*
X9510535Y-13953939D01*
X9634344Y-13820606D02*
X9710535Y-13820606D01*
X9662916Y-13753939D02*
X9662916Y-13925368D01*
X9662916Y-13925368D02*
X9672440Y-13944416D01*
X9672440Y-13944416D02*
X9691487Y-13953939D01*
X9691487Y-13953939D02*
X9710535Y-13953939D01*
X9929583Y-13820606D02*
X9929583Y-14020606D01*
X9929583Y-13830130D02*
X9948630Y-13820606D01*
X9948630Y-13820606D02*
X9986725Y-13820606D01*
X9986725Y-13820606D02*
X10005773Y-13830130D01*
X10005773Y-13830130D02*
X10015297Y-13839654D01*
X10015297Y-13839654D02*
X10024821Y-13858701D01*
X10024821Y-13858701D02*
X10024821Y-13915844D01*
X10024821Y-13915844D02*
X10015297Y-13934892D01*
X10015297Y-13934892D02*
X10005773Y-13944416D01*
X10005773Y-13944416D02*
X9986725Y-13953939D01*
X9986725Y-13953939D02*
X9948630Y-13953939D01*
X9948630Y-13953939D02*
X9929583Y-13944416D01*
X10139106Y-13953939D02*
X10120059Y-13944416D01*
X10120059Y-13944416D02*
X10110535Y-13925368D01*
X10110535Y-13925368D02*
X10110535Y-13753939D01*
X10301011Y-13953939D02*
X10301011Y-13849178D01*
X10301011Y-13849178D02*
X10291487Y-13830130D01*
X10291487Y-13830130D02*
X10272440Y-13820606D01*
X10272440Y-13820606D02*
X10234344Y-13820606D01*
X10234344Y-13820606D02*
X10215297Y-13830130D01*
X10301011Y-13944416D02*
X10281964Y-13953939D01*
X10281964Y-13953939D02*
X10234344Y-13953939D01*
X10234344Y-13953939D02*
X10215297Y-13944416D01*
X10215297Y-13944416D02*
X10205773Y-13925368D01*
X10205773Y-13925368D02*
X10205773Y-13906320D01*
X10205773Y-13906320D02*
X10215297Y-13887273D01*
X10215297Y-13887273D02*
X10234344Y-13877749D01*
X10234344Y-13877749D02*
X10281964Y-13877749D01*
X10281964Y-13877749D02*
X10301011Y-13868225D01*
X10367678Y-13820606D02*
X10443868Y-13820606D01*
X10396249Y-13753939D02*
X10396249Y-13925368D01*
X10396249Y-13925368D02*
X10405773Y-13944416D01*
X10405773Y-13944416D02*
X10424821Y-13953939D01*
X10424821Y-13953939D02*
X10443868Y-13953939D01*
X10586725Y-13944416D02*
X10567678Y-13953939D01*
X10567678Y-13953939D02*
X10529583Y-13953939D01*
X10529583Y-13953939D02*
X10510535Y-13944416D01*
X10510535Y-13944416D02*
X10501011Y-13925368D01*
X10501011Y-13925368D02*
X10501011Y-13849178D01*
X10501011Y-13849178D02*
X10510535Y-13830130D01*
X10510535Y-13830130D02*
X10529583Y-13820606D01*
X10529583Y-13820606D02*
X10567678Y-13820606D01*
X10567678Y-13820606D02*
X10586725Y-13830130D01*
X10586725Y-13830130D02*
X10596249Y-13849178D01*
X10596249Y-13849178D02*
X10596249Y-13868225D01*
X10596249Y-13868225D02*
X10501011Y-13887273D01*
X10767678Y-13953939D02*
X10767678Y-13753939D01*
X10767678Y-13944416D02*
X10748630Y-13953939D01*
X10748630Y-13953939D02*
X10710535Y-13953939D01*
X10710535Y-13953939D02*
X10691487Y-13944416D01*
X10691487Y-13944416D02*
X10681964Y-13934892D01*
X10681964Y-13934892D02*
X10672440Y-13915844D01*
X10672440Y-13915844D02*
X10672440Y-13858701D01*
X10672440Y-13858701D02*
X10681964Y-13839654D01*
X10681964Y-13839654D02*
X10691487Y-13830130D01*
X10691487Y-13830130D02*
X10710535Y-13820606D01*
X10710535Y-13820606D02*
X10748630Y-13820606D01*
X10748630Y-13820606D02*
X10767678Y-13830130D01*
X10843868Y-14030130D02*
X10853392Y-14020606D01*
X10853392Y-14020606D02*
X10872440Y-13992035D01*
X10872440Y-13992035D02*
X10881964Y-13972987D01*
X10881964Y-13972987D02*
X10891487Y-13944416D01*
X10891487Y-13944416D02*
X10901011Y-13896797D01*
X10901011Y-13896797D02*
X10901011Y-13858701D01*
X10901011Y-13858701D02*
X10891487Y-13811082D01*
X10891487Y-13811082D02*
X10881964Y-13782511D01*
X10881964Y-13782511D02*
X10872440Y-13763463D01*
X10872440Y-13763463D02*
X10853392Y-13734892D01*
X10853392Y-13734892D02*
X10843868Y-13725368D01*
M02*
