G04 #@! TF.GenerationSoftware,KiCad,Pcbnew,8.0.0*
G04 #@! TF.CreationDate,2024-03-14T17:27:31+09:00*
G04 #@! TF.ProjectId,Pinky3,50696e6b-7933-42e6-9b69-6361645f7063,0.3*
G04 #@! TF.SameCoordinates,Original*
G04 #@! TF.FileFunction,Copper,L1,Top*
G04 #@! TF.FilePolarity,Positive*
%FSLAX46Y46*%
G04 Gerber Fmt 4.6, Leading zero omitted, Abs format (unit mm)*
G04 Created by KiCad (PCBNEW 8.0.0) date 2024-03-14 17:27:31*
%MOMM*%
%LPD*%
G01*
G04 APERTURE LIST*
G04 APERTURE END LIST*
G04 #@! TA.AperFunction,Conductor*
G36*
X116204717Y-54377900D02*
G01*
X173545529Y-65735396D01*
X173579835Y-65753019D01*
X173580875Y-65750808D01*
X173598932Y-65759295D01*
X173598933Y-65759295D01*
X173598935Y-65759297D01*
X173617379Y-65761619D01*
X173629060Y-65763654D01*
X173740608Y-65788551D01*
X173746044Y-65789765D01*
X173768627Y-65797098D01*
X173831236Y-65824185D01*
X173873133Y-65842312D01*
X173893935Y-65853749D01*
X173988108Y-65917772D01*
X174006400Y-65932914D01*
X174086883Y-66013464D01*
X174102009Y-66031769D01*
X174165946Y-66125984D01*
X174177369Y-66146800D01*
X174222498Y-66251344D01*
X174229813Y-66273937D01*
X174253491Y-66380443D01*
X174256494Y-66407851D01*
X174238472Y-102052762D01*
X174238452Y-102052902D01*
X174238452Y-102095583D01*
X174238437Y-102122574D01*
X174238487Y-102123083D01*
X174238487Y-102171886D01*
X174238487Y-102171890D01*
X174238488Y-102171892D01*
X174268290Y-102321710D01*
X174326746Y-102462837D01*
X174411610Y-102589849D01*
X174479913Y-102658155D01*
X174519621Y-102697865D01*
X174519623Y-102697867D01*
X174646628Y-102782734D01*
X174646628Y-102782735D01*
X174681909Y-102797350D01*
X174787752Y-102841198D01*
X174937570Y-102871008D01*
X175013755Y-102871012D01*
X175855358Y-102875274D01*
X175856757Y-102875500D01*
X175875469Y-102875500D01*
X175893821Y-102875500D01*
X175906171Y-102876106D01*
X176028990Y-102888204D01*
X176053213Y-102893022D01*
X176165380Y-102927047D01*
X176188198Y-102936499D01*
X176291565Y-102991749D01*
X176312103Y-103005472D01*
X176402706Y-103079828D01*
X176420171Y-103097293D01*
X176494527Y-103187896D01*
X176508250Y-103208434D01*
X176563499Y-103311798D01*
X176572952Y-103334619D01*
X176606977Y-103446786D01*
X176611795Y-103471010D01*
X176623893Y-103593835D01*
X176624500Y-103606186D01*
X176624500Y-116057349D01*
X176613694Y-116108401D01*
X168832871Y-133665125D01*
X168830377Y-133670419D01*
X168799597Y-133731982D01*
X168797291Y-133740404D01*
X168760768Y-133873773D01*
X168750347Y-134020415D01*
X168763385Y-134123839D01*
X168768735Y-134166280D01*
X168768736Y-134166281D01*
X168815221Y-134305739D01*
X168888025Y-134433456D01*
X168888027Y-134433458D01*
X168888028Y-134433460D01*
X168984351Y-134544521D01*
X169100490Y-134634656D01*
X169161222Y-134665022D01*
X169167386Y-134668321D01*
X175876990Y-138502379D01*
X177408510Y-139377534D01*
X177557161Y-139462477D01*
X177567571Y-139469123D01*
X177653887Y-139530397D01*
X177669229Y-139541288D01*
X177687871Y-139557490D01*
X177769214Y-139643567D01*
X177784338Y-139663097D01*
X177847322Y-139763385D01*
X177858345Y-139785489D01*
X177900554Y-139896139D01*
X177907051Y-139919959D01*
X177926864Y-140036729D01*
X177928589Y-140061363D01*
X177925241Y-140179748D01*
X177922126Y-140204250D01*
X177895749Y-140319702D01*
X177887913Y-140343128D01*
X177836975Y-140456893D01*
X177831378Y-140467911D01*
X177812722Y-140500561D01*
X177812576Y-140500947D01*
X169642222Y-154848886D01*
X169629084Y-154867726D01*
X169553171Y-154957817D01*
X169532688Y-154977223D01*
X169439935Y-155047179D01*
X169415648Y-155061540D01*
X169309651Y-155109104D01*
X169282777Y-155117700D01*
X169168858Y-155140483D01*
X169140747Y-155142884D01*
X169024611Y-155139748D01*
X168996667Y-155135833D01*
X168884142Y-155106932D01*
X168857775Y-155096899D01*
X168748161Y-155040416D01*
X168736004Y-155033262D01*
X168715970Y-155019908D01*
X168702219Y-155014116D01*
X153160985Y-146048019D01*
X153152677Y-146042785D01*
X153143545Y-146036521D01*
X153143544Y-146036520D01*
X153140714Y-146035307D01*
X153127392Y-146028638D01*
X153124723Y-146027098D01*
X153114219Y-146023536D01*
X153105055Y-146020024D01*
X152452492Y-145740354D01*
X152442002Y-145734954D01*
X152431088Y-145730973D01*
X152424640Y-145728418D01*
X152413960Y-145723841D01*
X152402611Y-145720587D01*
X135503796Y-139557490D01*
X135449727Y-139537770D01*
X135439076Y-139533324D01*
X135432882Y-139530398D01*
X135432881Y-139530397D01*
X135432879Y-139530396D01*
X135432878Y-139530396D01*
X135428566Y-139529318D01*
X135415955Y-139525454D01*
X135411757Y-139523923D01*
X135404959Y-139522872D01*
X135393655Y-139520590D01*
X134642065Y-139332692D01*
X134628511Y-139328375D01*
X134620082Y-139326882D01*
X134611505Y-139325052D01*
X134603209Y-139322978D01*
X134589059Y-139321385D01*
X117134816Y-136229491D01*
X117123478Y-136226182D01*
X117112888Y-136224076D01*
X117100553Y-136222992D01*
X117089751Y-136223219D01*
X117078015Y-136224500D01*
X41707079Y-136224500D01*
X41692971Y-136223708D01*
X41575140Y-136210431D01*
X41547633Y-136204152D01*
X41514001Y-136192384D01*
X41442439Y-136167343D01*
X41417020Y-136155102D01*
X41369835Y-136125454D01*
X41322648Y-136095805D01*
X41300591Y-136078214D01*
X41221785Y-135999408D01*
X41204195Y-135977352D01*
X41144896Y-135882978D01*
X41132656Y-135857560D01*
X41121686Y-135826210D01*
X41095845Y-135752359D01*
X41089569Y-135724863D01*
X41076292Y-135607027D01*
X41075500Y-135592920D01*
X41075500Y-120427845D01*
X147049500Y-120427845D01*
X147082872Y-120681332D01*
X147082873Y-120681338D01*
X147082874Y-120681340D01*
X147149050Y-120928313D01*
X147246896Y-121164535D01*
X147246897Y-121164536D01*
X147246902Y-121164546D01*
X147374736Y-121385961D01*
X147374741Y-121385967D01*
X147530385Y-121588807D01*
X147530404Y-121588828D01*
X147711171Y-121769595D01*
X147711181Y-121769604D01*
X147711187Y-121769610D01*
X147914035Y-121925261D01*
X148135465Y-122053104D01*
X148371687Y-122150950D01*
X148618660Y-122217126D01*
X148618666Y-122217126D01*
X148618667Y-122217127D01*
X148647751Y-122220956D01*
X148872157Y-122250500D01*
X148872164Y-122250500D01*
X149127836Y-122250500D01*
X149127843Y-122250500D01*
X149381340Y-122217126D01*
X149628313Y-122150950D01*
X149864535Y-122053104D01*
X150085965Y-121925261D01*
X150288813Y-121769610D01*
X150469610Y-121588813D01*
X150625261Y-121385965D01*
X150753104Y-121164535D01*
X150850950Y-120928313D01*
X150917126Y-120681340D01*
X150950500Y-120427843D01*
X150950500Y-120172157D01*
X150917126Y-119918660D01*
X150850950Y-119671687D01*
X150753104Y-119435465D01*
X150625261Y-119214035D01*
X150469610Y-119011187D01*
X150469604Y-119011181D01*
X150469595Y-119011171D01*
X150288828Y-118830404D01*
X150288807Y-118830385D01*
X150195548Y-118758825D01*
X150085965Y-118674739D01*
X150085963Y-118674738D01*
X150085961Y-118674736D01*
X149864546Y-118546902D01*
X149864541Y-118546899D01*
X149864535Y-118546896D01*
X149628313Y-118449050D01*
X149381340Y-118382874D01*
X149381338Y-118382873D01*
X149381332Y-118382872D01*
X149127845Y-118349500D01*
X149127843Y-118349500D01*
X148872157Y-118349500D01*
X148872154Y-118349500D01*
X148618667Y-118382872D01*
X148371687Y-118449050D01*
X148135463Y-118546897D01*
X148135453Y-118546902D01*
X147914038Y-118674736D01*
X147914032Y-118674741D01*
X147711192Y-118830385D01*
X147711171Y-118830404D01*
X147530404Y-119011171D01*
X147530385Y-119011192D01*
X147374741Y-119214032D01*
X147374736Y-119214038D01*
X147246902Y-119435453D01*
X147246897Y-119435463D01*
X147149050Y-119671687D01*
X147082872Y-119918667D01*
X147049500Y-120172154D01*
X147049500Y-120427845D01*
X41075500Y-120427845D01*
X41075500Y-97727845D01*
X57549500Y-97727845D01*
X57582872Y-97981332D01*
X57582873Y-97981338D01*
X57582874Y-97981340D01*
X57649050Y-98228313D01*
X57746896Y-98464535D01*
X57746897Y-98464536D01*
X57746902Y-98464546D01*
X57874736Y-98685961D01*
X57874741Y-98685967D01*
X58030385Y-98888807D01*
X58030404Y-98888828D01*
X58211171Y-99069595D01*
X58211181Y-99069604D01*
X58211187Y-99069610D01*
X58414035Y-99225261D01*
X58635465Y-99353104D01*
X58871687Y-99450950D01*
X59118660Y-99517126D01*
X59118666Y-99517126D01*
X59118667Y-99517127D01*
X59147751Y-99520956D01*
X59372157Y-99550500D01*
X59372164Y-99550500D01*
X59627836Y-99550500D01*
X59627843Y-99550500D01*
X59881340Y-99517126D01*
X60128313Y-99450950D01*
X60364535Y-99353104D01*
X60585965Y-99225261D01*
X60788813Y-99069610D01*
X60969610Y-98888813D01*
X61125261Y-98685965D01*
X61253104Y-98464535D01*
X61350950Y-98228313D01*
X61417126Y-97981340D01*
X61450500Y-97727843D01*
X61450500Y-97472157D01*
X61417126Y-97218660D01*
X61350950Y-96971687D01*
X61253104Y-96735465D01*
X61125261Y-96514035D01*
X60969610Y-96311187D01*
X60969604Y-96311181D01*
X60969595Y-96311171D01*
X60788828Y-96130404D01*
X60788807Y-96130385D01*
X60695548Y-96058825D01*
X60585965Y-95974739D01*
X60585963Y-95974738D01*
X60585961Y-95974736D01*
X60364546Y-95846902D01*
X60364541Y-95846899D01*
X60364535Y-95846896D01*
X60128313Y-95749050D01*
X59881340Y-95682874D01*
X59881338Y-95682873D01*
X59881332Y-95682872D01*
X59627845Y-95649500D01*
X59627843Y-95649500D01*
X59372157Y-95649500D01*
X59372154Y-95649500D01*
X59118667Y-95682872D01*
X58871687Y-95749050D01*
X58635463Y-95846897D01*
X58635453Y-95846902D01*
X58414038Y-95974736D01*
X58414032Y-95974741D01*
X58211192Y-96130385D01*
X58211171Y-96130404D01*
X58030404Y-96311171D01*
X58030385Y-96311192D01*
X57874741Y-96514032D01*
X57874736Y-96514038D01*
X57746902Y-96735453D01*
X57746897Y-96735463D01*
X57746896Y-96735465D01*
X57723009Y-96793134D01*
X57649050Y-96971687D01*
X57582872Y-97218667D01*
X57549500Y-97472154D01*
X57549500Y-97727845D01*
X41075500Y-97727845D01*
X41075500Y-95451365D01*
X115127115Y-95451365D01*
X115160487Y-95704852D01*
X115160488Y-95704858D01*
X115160489Y-95704860D01*
X115226665Y-95951833D01*
X115324511Y-96188055D01*
X115324512Y-96188056D01*
X115324517Y-96188066D01*
X115452351Y-96409481D01*
X115452356Y-96409487D01*
X115608000Y-96612327D01*
X115608019Y-96612348D01*
X115788786Y-96793115D01*
X115788796Y-96793124D01*
X115788802Y-96793130D01*
X115991650Y-96948781D01*
X116213080Y-97076624D01*
X116449302Y-97174470D01*
X116696275Y-97240646D01*
X116696281Y-97240646D01*
X116696282Y-97240647D01*
X116725366Y-97244476D01*
X116949772Y-97274020D01*
X116949779Y-97274020D01*
X117205451Y-97274020D01*
X117205458Y-97274020D01*
X117458955Y-97240646D01*
X117705928Y-97174470D01*
X117942150Y-97076624D01*
X118163580Y-96948781D01*
X118366428Y-96793130D01*
X118547225Y-96612333D01*
X118702876Y-96409485D01*
X118830719Y-96188055D01*
X118928565Y-95951833D01*
X118994741Y-95704860D01*
X119028115Y-95451363D01*
X119028115Y-95195677D01*
X118994741Y-94942180D01*
X118928565Y-94695207D01*
X118830719Y-94458985D01*
X118702876Y-94237555D01*
X118547225Y-94034707D01*
X118547219Y-94034701D01*
X118547210Y-94034691D01*
X118366443Y-93853924D01*
X118366422Y-93853905D01*
X118273163Y-93782345D01*
X118163580Y-93698259D01*
X118163578Y-93698258D01*
X118163576Y-93698256D01*
X117942161Y-93570422D01*
X117942156Y-93570419D01*
X117942150Y-93570416D01*
X117705928Y-93472570D01*
X117458955Y-93406394D01*
X117458953Y-93406393D01*
X117458947Y-93406392D01*
X117205460Y-93373020D01*
X117205458Y-93373020D01*
X116949772Y-93373020D01*
X116949769Y-93373020D01*
X116696282Y-93406392D01*
X116449302Y-93472570D01*
X116213078Y-93570417D01*
X116213068Y-93570422D01*
X115991653Y-93698256D01*
X115991647Y-93698261D01*
X115788807Y-93853905D01*
X115788786Y-93853924D01*
X115608019Y-94034691D01*
X115608000Y-94034712D01*
X115452356Y-94237552D01*
X115452351Y-94237558D01*
X115324517Y-94458973D01*
X115324512Y-94458983D01*
X115226665Y-94695207D01*
X115160487Y-94942187D01*
X115127115Y-95195674D01*
X115127115Y-95451365D01*
X41075500Y-95451365D01*
X41075500Y-83947845D01*
X152989500Y-83947845D01*
X153022872Y-84201332D01*
X153022873Y-84201338D01*
X153022874Y-84201340D01*
X153089050Y-84448313D01*
X153186896Y-84684535D01*
X153186897Y-84684536D01*
X153186902Y-84684546D01*
X153314736Y-84905961D01*
X153314741Y-84905967D01*
X153470385Y-85108807D01*
X153470404Y-85108828D01*
X153651171Y-85289595D01*
X153651181Y-85289604D01*
X153651187Y-85289610D01*
X153854035Y-85445261D01*
X154075465Y-85573104D01*
X154311687Y-85670950D01*
X154558660Y-85737126D01*
X154558666Y-85737126D01*
X154558667Y-85737127D01*
X154587751Y-85740956D01*
X154812157Y-85770500D01*
X154812164Y-85770500D01*
X155067836Y-85770500D01*
X155067843Y-85770500D01*
X155321340Y-85737126D01*
X155568313Y-85670950D01*
X155804535Y-85573104D01*
X156025965Y-85445261D01*
X156228813Y-85289610D01*
X156409610Y-85108813D01*
X156565261Y-84905965D01*
X156693104Y-84684535D01*
X156790950Y-84448313D01*
X156857126Y-84201340D01*
X156890500Y-83947843D01*
X156890500Y-83692157D01*
X156857126Y-83438660D01*
X156790950Y-83191687D01*
X156693104Y-82955465D01*
X156565261Y-82734035D01*
X156409610Y-82531187D01*
X156409604Y-82531181D01*
X156409595Y-82531171D01*
X156228828Y-82350404D01*
X156228807Y-82350385D01*
X156135548Y-82278825D01*
X156025965Y-82194739D01*
X156025963Y-82194738D01*
X156025961Y-82194736D01*
X155804546Y-82066902D01*
X155804541Y-82066899D01*
X155804535Y-82066896D01*
X155568313Y-81969050D01*
X155321340Y-81902874D01*
X155321338Y-81902873D01*
X155321332Y-81902872D01*
X155067845Y-81869500D01*
X155067843Y-81869500D01*
X154812157Y-81869500D01*
X154812154Y-81869500D01*
X154558667Y-81902872D01*
X154311687Y-81969050D01*
X154075463Y-82066897D01*
X154075453Y-82066902D01*
X153854038Y-82194736D01*
X153854032Y-82194741D01*
X153651192Y-82350385D01*
X153651171Y-82350404D01*
X153470404Y-82531171D01*
X153470385Y-82531192D01*
X153314741Y-82734032D01*
X153314736Y-82734038D01*
X153186902Y-82955453D01*
X153186897Y-82955463D01*
X153089050Y-83191687D01*
X153022872Y-83438667D01*
X152989500Y-83692154D01*
X152989500Y-83947845D01*
X41075500Y-83947845D01*
X41075500Y-78677845D01*
X57549500Y-78677845D01*
X57582872Y-78931332D01*
X57582873Y-78931338D01*
X57582874Y-78931340D01*
X57649050Y-79178313D01*
X57746896Y-79414535D01*
X57746897Y-79414536D01*
X57746902Y-79414546D01*
X57874736Y-79635961D01*
X57874741Y-79635967D01*
X58030385Y-79838807D01*
X58030404Y-79838828D01*
X58211171Y-80019595D01*
X58211181Y-80019604D01*
X58211187Y-80019610D01*
X58414035Y-80175261D01*
X58635465Y-80303104D01*
X58871687Y-80400950D01*
X59118660Y-80467126D01*
X59118666Y-80467126D01*
X59118667Y-80467127D01*
X59147751Y-80470956D01*
X59372157Y-80500500D01*
X59372164Y-80500500D01*
X59627836Y-80500500D01*
X59627843Y-80500500D01*
X59881340Y-80467126D01*
X60128313Y-80400950D01*
X60364535Y-80303104D01*
X60585965Y-80175261D01*
X60788813Y-80019610D01*
X60969610Y-79838813D01*
X61125261Y-79635965D01*
X61253104Y-79414535D01*
X61350950Y-79178313D01*
X61417126Y-78931340D01*
X61450500Y-78677843D01*
X61450500Y-78422157D01*
X61417126Y-78168660D01*
X61350950Y-77921687D01*
X61253104Y-77685465D01*
X61125261Y-77464035D01*
X60969610Y-77261187D01*
X60969604Y-77261181D01*
X60969595Y-77261171D01*
X60788828Y-77080404D01*
X60788807Y-77080385D01*
X60695548Y-77008825D01*
X60585965Y-76924739D01*
X60585963Y-76924738D01*
X60585961Y-76924736D01*
X60364546Y-76796902D01*
X60364541Y-76796899D01*
X60364535Y-76796896D01*
X60128313Y-76699050D01*
X59881340Y-76632874D01*
X59881338Y-76632873D01*
X59881332Y-76632872D01*
X59627845Y-76599500D01*
X59627843Y-76599500D01*
X59372157Y-76599500D01*
X59372154Y-76599500D01*
X59118667Y-76632872D01*
X58871687Y-76699050D01*
X58635463Y-76796897D01*
X58635453Y-76796902D01*
X58414038Y-76924736D01*
X58414032Y-76924741D01*
X58211192Y-77080385D01*
X58211171Y-77080404D01*
X58030404Y-77261171D01*
X58030385Y-77261192D01*
X57874741Y-77464032D01*
X57874736Y-77464038D01*
X57746902Y-77685453D01*
X57746897Y-77685463D01*
X57649050Y-77921687D01*
X57582872Y-78168667D01*
X57549500Y-78422154D01*
X57549500Y-78677845D01*
X41075500Y-78677845D01*
X41075500Y-60533525D01*
X41079477Y-60502120D01*
X41083888Y-60484982D01*
X41106463Y-60397265D01*
X41113662Y-60376792D01*
X41171706Y-60248352D01*
X41182314Y-60229419D01*
X41261546Y-60112851D01*
X41275240Y-60096028D01*
X41373314Y-59994790D01*
X41389701Y-59980562D01*
X41503690Y-59897670D01*
X41522284Y-59886463D01*
X41648804Y-59824375D01*
X41669041Y-59816528D01*
X41801400Y-59777941D01*
X41824621Y-59773484D01*
X95318962Y-54642588D01*
X98097605Y-54376076D01*
X98109635Y-54375500D01*
X116180237Y-54375500D01*
X116204717Y-54377900D01*
G37*
G04 #@! TD.AperFunction*
G04 #@! TA.AperFunction,Conductor*
G36*
X116312144Y-53002409D02*
G01*
X175158526Y-64679863D01*
X175221450Y-64712742D01*
X175256610Y-64774421D01*
X175260000Y-64803453D01*
X175260000Y-102000000D01*
X177374000Y-102000000D01*
X177442121Y-102020002D01*
X177488614Y-102073658D01*
X177500000Y-102126000D01*
X177500000Y-116373157D01*
X177489060Y-116424511D01*
X169654864Y-133977077D01*
X169600000Y-134100000D01*
X179089151Y-139437647D01*
X179138717Y-139488478D01*
X179152934Y-139558036D01*
X179136615Y-139610261D01*
X169662512Y-156091254D01*
X169611222Y-156140344D01*
X169541533Y-156153911D01*
X169490974Y-156137979D01*
X152900000Y-146700000D01*
X152899999Y-146699999D01*
X152899998Y-146699999D01*
X136000004Y-140300001D01*
X136000001Y-140300000D01*
X136000000Y-140300000D01*
X117100000Y-137100000D01*
X117099998Y-137100000D01*
X39626000Y-137100000D01*
X39557879Y-137079998D01*
X39511386Y-137026342D01*
X39500000Y-136974000D01*
X39500000Y-60543605D01*
X40915641Y-60543605D01*
X40918595Y-60563340D01*
X40917994Y-60563429D01*
X40924500Y-60591043D01*
X40924500Y-135676382D01*
X40939615Y-135752367D01*
X40954302Y-135826205D01*
X41012761Y-135967337D01*
X41069468Y-136052205D01*
X41097629Y-136094351D01*
X41097634Y-136094357D01*
X41205642Y-136202365D01*
X41205648Y-136202370D01*
X41332663Y-136287239D01*
X41473795Y-136345698D01*
X41623620Y-136375500D01*
X41684982Y-136375500D01*
X116084982Y-136375500D01*
X117082293Y-136375500D01*
X117104271Y-136377432D01*
X134579933Y-139473119D01*
X134588472Y-139474940D01*
X135371456Y-139670687D01*
X135384051Y-139674547D01*
X152003259Y-145735671D01*
X152368902Y-145869023D01*
X152375365Y-145871584D01*
X152774835Y-146042785D01*
X153059284Y-146164691D01*
X153072613Y-146171363D01*
X153988917Y-146700000D01*
X168656618Y-155162136D01*
X168663544Y-155166436D01*
X168723406Y-155206343D01*
X168850249Y-155258727D01*
X168868439Y-155266239D01*
X169022374Y-155296691D01*
X169179292Y-155296527D01*
X169333164Y-155265753D01*
X169478074Y-155205551D01*
X169608456Y-155118236D01*
X169719298Y-155007161D01*
X169749239Y-154962249D01*
X169757929Y-154950843D01*
X169758173Y-154950413D01*
X169758177Y-154950411D01*
X169762110Y-154943502D01*
X169766733Y-154936009D01*
X169776427Y-154921468D01*
X169776426Y-154921466D01*
X169779629Y-154916664D01*
X169785785Y-154901927D01*
X177965732Y-140537143D01*
X177965825Y-140536980D01*
X177996155Y-140483901D01*
X178008637Y-140462058D01*
X178063734Y-140297344D01*
X178085637Y-140125046D01*
X178073506Y-139951785D01*
X178027806Y-139784221D01*
X177950295Y-139628791D01*
X177843950Y-139491470D01*
X177840507Y-139488478D01*
X177818248Y-139469132D01*
X177712858Y-139377534D01*
X177650498Y-139341899D01*
X169273399Y-134554985D01*
X169262943Y-134547060D01*
X169240095Y-134535635D01*
X169227837Y-134528621D01*
X169189677Y-134503846D01*
X169133858Y-134467606D01*
X169112065Y-134449690D01*
X169096306Y-134433456D01*
X169038984Y-134374406D01*
X169021729Y-134352097D01*
X168967230Y-134262434D01*
X168955369Y-134236838D01*
X168922192Y-134137305D01*
X168916323Y-134109709D01*
X168915375Y-134100000D01*
X168906125Y-134005282D01*
X168906543Y-133977085D01*
X168919838Y-133873003D01*
X168926524Y-133845597D01*
X168965095Y-133740404D01*
X168970697Y-133727428D01*
X168982814Y-133703195D01*
X168985969Y-133692354D01*
X176758479Y-116154384D01*
X176761363Y-116149146D01*
X176764004Y-116142768D01*
X176764006Y-116142767D01*
X176768838Y-116131098D01*
X176769996Y-116128397D01*
X176775110Y-116116861D01*
X176775110Y-116116857D01*
X176775165Y-116116734D01*
X176775500Y-116115154D01*
X176775500Y-116102459D01*
X176775538Y-116099373D01*
X176776013Y-116079964D01*
X176775500Y-116073998D01*
X176775500Y-103513772D01*
X176775499Y-103513768D01*
X176764537Y-103458657D01*
X176741855Y-103344626D01*
X176675858Y-103185295D01*
X176580045Y-103041901D01*
X176458099Y-102919955D01*
X176314705Y-102824142D01*
X176155374Y-102758145D01*
X175986231Y-102724500D01*
X175986229Y-102724500D01*
X175900437Y-102724500D01*
X175899799Y-102724498D01*
X175058491Y-102720237D01*
X175057121Y-102720016D01*
X175021031Y-102720013D01*
X175006929Y-102719220D01*
X174889103Y-102705937D01*
X174861598Y-102699657D01*
X174829075Y-102688275D01*
X174756409Y-102662844D01*
X174730991Y-102650602D01*
X174636627Y-102591305D01*
X174614570Y-102573714D01*
X174575155Y-102534297D01*
X174535764Y-102494903D01*
X174518175Y-102472846D01*
X174511886Y-102462837D01*
X174458880Y-102378475D01*
X174446645Y-102353070D01*
X174409833Y-102247866D01*
X174403557Y-102220374D01*
X174390246Y-102102247D01*
X174389455Y-102088104D01*
X174407484Y-66427170D01*
X174409748Y-66403462D01*
X174409962Y-66402343D01*
X174409965Y-66402339D01*
X174408484Y-66390498D01*
X174407511Y-66374805D01*
X174407513Y-66372385D01*
X174407511Y-66372382D01*
X174407512Y-66372379D01*
X174405098Y-66360206D01*
X174405958Y-66360035D01*
X174403608Y-66351123D01*
X174396659Y-66295165D01*
X174345237Y-66136351D01*
X174282433Y-66021899D01*
X174264934Y-65990009D01*
X174264932Y-65990006D01*
X174158598Y-65861329D01*
X174158596Y-65861327D01*
X174135624Y-65842311D01*
X174030004Y-65754882D01*
X173964153Y-65718675D01*
X173883726Y-65674455D01*
X173801044Y-65647607D01*
X173724955Y-65622901D01*
X173724953Y-65622900D01*
X173724954Y-65622900D01*
X173717569Y-65621977D01*
X173682035Y-65608751D01*
X173681188Y-65610801D01*
X173669720Y-65606061D01*
X116234214Y-54229809D01*
X116219866Y-54225463D01*
X116210401Y-54223581D01*
X116204650Y-54223017D01*
X116194988Y-54223024D01*
X116180072Y-54224500D01*
X98124865Y-54224500D01*
X98112195Y-54223861D01*
X98107741Y-54223410D01*
X98102392Y-54223924D01*
X98090362Y-54224500D01*
X98084979Y-54224500D01*
X98080572Y-54225376D01*
X98068036Y-54227218D01*
X41832518Y-59621034D01*
X41810991Y-59620806D01*
X41795244Y-59623955D01*
X41782585Y-59625823D01*
X41777843Y-59626278D01*
X41772282Y-59627949D01*
X41760622Y-59630853D01*
X41692284Y-59644450D01*
X41692274Y-59644453D01*
X41515632Y-59712953D01*
X41515628Y-59712955D01*
X41353361Y-59810769D01*
X41210302Y-59934982D01*
X41210293Y-59934993D01*
X41090678Y-60081930D01*
X40998073Y-60247213D01*
X40998071Y-60247216D01*
X40998071Y-60247218D01*
X40952504Y-60376787D01*
X40935212Y-60425955D01*
X40935210Y-60425962D01*
X40928371Y-60467120D01*
X40926751Y-60472788D01*
X40926917Y-60472821D01*
X40923802Y-60488489D01*
X40922796Y-60500688D01*
X40919706Y-60519287D01*
X40919686Y-60519409D01*
X40915641Y-60543605D01*
X39500000Y-60543605D01*
X39500000Y-59313351D01*
X39520002Y-59245230D01*
X39573658Y-59198737D01*
X39612718Y-59188053D01*
X97993376Y-53000701D01*
X98006655Y-53000000D01*
X116287620Y-53000000D01*
X116312144Y-53002409D01*
G37*
G04 #@! TD.AperFunction*
M02*
