%TF.GenerationSoftware,KiCad,Pcbnew,8.0.0*%
%TF.CreationDate,2024-03-14T17:27:22+09:00*%
%TF.ProjectId,Pinky3,50696e6b-7933-42e6-9b69-6361645f7063,0.3*%
%TF.SameCoordinates,Original*%
%TF.FileFunction,Drillmap*%
%TF.FilePolarity,Positive*%
%FSLAX45Y45*%
G04 Gerber Fmt 4.5, Leading zero omitted, Abs format (unit mm)*
G04 Created by KiCad (PCBNEW 8.0.0) date 2024-03-14 17:27:22*
%MOMM*%
%LPD*%
G01*
G04 APERTURE LIST*
%ADD10C,0.150000*%
%ADD11C,0.200000*%
%ADD12C,0.220000*%
G04 APERTURE END LIST*
D10*
X17590000Y-10280000D02*
G75*
G02*
X17670000Y-10360000I0J-80000D01*
G01*
X17501395Y-10279551D02*
G75*
G02*
X17431399Y-10209551I5J70001D01*
G01*
X17670000Y-10360000D02*
X17670000Y-11610000D01*
X4100000Y-13560000D02*
X4100000Y-6050000D01*
X13460000Y-13940000D02*
X13540000Y-13960000D01*
X17433201Y-6638736D02*
X17431395Y-10209551D01*
X13540000Y-13960000D02*
X15240000Y-14580000D01*
X11610000Y-13630000D02*
X11710000Y-13630000D01*
X11620000Y-5430000D02*
X17364032Y-6567720D01*
X16890000Y-13370000D02*
X17670000Y-11610000D01*
X17501395Y-10279551D02*
X17590000Y-10280000D01*
X17790000Y-14050000D02*
X16970000Y-15490000D01*
X16920000Y-13460000D02*
G75*
G02*
X16890000Y-13370000I30000J60000D01*
G01*
X15310000Y-14610000D02*
X16870000Y-15510000D01*
X16920000Y-13460000D02*
X17760000Y-13940000D01*
X4170000Y-13630000D02*
G75*
G02*
X4100000Y-13560000I0J70000D01*
G01*
X9810000Y-5430000D02*
X11620000Y-5430000D01*
X11610000Y-13630000D02*
X4170000Y-13630000D01*
X16970000Y-15490000D02*
G75*
G02*
X16870000Y-15510000I-60000J40000D01*
G01*
X4180000Y-5970000D02*
X9810000Y-5430000D01*
X15240000Y-14580000D02*
X15310000Y-14610000D01*
X11710000Y-13630000D02*
X13460000Y-13940000D01*
X17363270Y-6568745D02*
G75*
G02*
X17433203Y-6638736I-10070J-79995D01*
G01*
X17760000Y-13940000D02*
G75*
G02*
X17790000Y-14050000I-40000J-70000D01*
G01*
X4099415Y-6053186D02*
G75*
G02*
X4180000Y-5970000I100585J-16814D01*
G01*
D11*
D12*
X5840000Y-7745000D02*
X6060000Y-7965000D01*
X6060000Y-7745000D02*
X5840000Y-7965000D01*
X5840000Y-9650000D02*
X6060000Y-9870000D01*
X6060000Y-9650000D02*
X5840000Y-9870000D01*
X11597761Y-9422352D02*
X11817761Y-9642352D01*
X11817761Y-9422352D02*
X11597761Y-9642352D01*
X14790000Y-11920000D02*
X15010000Y-12140000D01*
X15010000Y-11920000D02*
X14790000Y-12140000D01*
X15384000Y-8272000D02*
X15604000Y-8492000D01*
X15604000Y-8272000D02*
X15384000Y-8492000D01*
D11*
X4352692Y-15841095D02*
X4352692Y-15641095D01*
X4352692Y-15641095D02*
X4400311Y-15641095D01*
X4400311Y-15641095D02*
X4428883Y-15650619D01*
X4428883Y-15650619D02*
X4447930Y-15669666D01*
X4447930Y-15669666D02*
X4457454Y-15688714D01*
X4457454Y-15688714D02*
X4466978Y-15726809D01*
X4466978Y-15726809D02*
X4466978Y-15755380D01*
X4466978Y-15755380D02*
X4457454Y-15793476D01*
X4457454Y-15793476D02*
X4447930Y-15812523D01*
X4447930Y-15812523D02*
X4428883Y-15831571D01*
X4428883Y-15831571D02*
X4400311Y-15841095D01*
X4400311Y-15841095D02*
X4352692Y-15841095D01*
X4552692Y-15841095D02*
X4552692Y-15707761D01*
X4552692Y-15745857D02*
X4562216Y-15726809D01*
X4562216Y-15726809D02*
X4571740Y-15717285D01*
X4571740Y-15717285D02*
X4590787Y-15707761D01*
X4590787Y-15707761D02*
X4609835Y-15707761D01*
X4676502Y-15841095D02*
X4676502Y-15707761D01*
X4676502Y-15641095D02*
X4666978Y-15650619D01*
X4666978Y-15650619D02*
X4676502Y-15660142D01*
X4676502Y-15660142D02*
X4686025Y-15650619D01*
X4686025Y-15650619D02*
X4676502Y-15641095D01*
X4676502Y-15641095D02*
X4676502Y-15660142D01*
X4800311Y-15841095D02*
X4781264Y-15831571D01*
X4781264Y-15831571D02*
X4771740Y-15812523D01*
X4771740Y-15812523D02*
X4771740Y-15641095D01*
X4905073Y-15841095D02*
X4886025Y-15831571D01*
X4886025Y-15831571D02*
X4876502Y-15812523D01*
X4876502Y-15812523D02*
X4876502Y-15641095D01*
X5133645Y-15841095D02*
X5133645Y-15641095D01*
X5133645Y-15641095D02*
X5200311Y-15783952D01*
X5200311Y-15783952D02*
X5266978Y-15641095D01*
X5266978Y-15641095D02*
X5266978Y-15841095D01*
X5447930Y-15841095D02*
X5447930Y-15736333D01*
X5447930Y-15736333D02*
X5438406Y-15717285D01*
X5438406Y-15717285D02*
X5419359Y-15707761D01*
X5419359Y-15707761D02*
X5381264Y-15707761D01*
X5381264Y-15707761D02*
X5362216Y-15717285D01*
X5447930Y-15831571D02*
X5428883Y-15841095D01*
X5428883Y-15841095D02*
X5381264Y-15841095D01*
X5381264Y-15841095D02*
X5362216Y-15831571D01*
X5362216Y-15831571D02*
X5352692Y-15812523D01*
X5352692Y-15812523D02*
X5352692Y-15793476D01*
X5352692Y-15793476D02*
X5362216Y-15774428D01*
X5362216Y-15774428D02*
X5381264Y-15764904D01*
X5381264Y-15764904D02*
X5428883Y-15764904D01*
X5428883Y-15764904D02*
X5447930Y-15755380D01*
X5543168Y-15707761D02*
X5543168Y-15907761D01*
X5543168Y-15717285D02*
X5562216Y-15707761D01*
X5562216Y-15707761D02*
X5600311Y-15707761D01*
X5600311Y-15707761D02*
X5619359Y-15717285D01*
X5619359Y-15717285D02*
X5628883Y-15726809D01*
X5628883Y-15726809D02*
X5638406Y-15745857D01*
X5638406Y-15745857D02*
X5638406Y-15802999D01*
X5638406Y-15802999D02*
X5628883Y-15822047D01*
X5628883Y-15822047D02*
X5619359Y-15831571D01*
X5619359Y-15831571D02*
X5600311Y-15841095D01*
X5600311Y-15841095D02*
X5562216Y-15841095D01*
X5562216Y-15841095D02*
X5543168Y-15831571D01*
X5724121Y-15822047D02*
X5733644Y-15831571D01*
X5733644Y-15831571D02*
X5724121Y-15841095D01*
X5724121Y-15841095D02*
X5714597Y-15831571D01*
X5714597Y-15831571D02*
X5724121Y-15822047D01*
X5724121Y-15822047D02*
X5724121Y-15841095D01*
X5724121Y-15717285D02*
X5733644Y-15726809D01*
X5733644Y-15726809D02*
X5724121Y-15736333D01*
X5724121Y-15736333D02*
X5714597Y-15726809D01*
X5714597Y-15726809D02*
X5724121Y-15717285D01*
X5724121Y-15717285D02*
X5724121Y-15736333D01*
X3891915Y-16069611D02*
X4091915Y-16269611D01*
X4091915Y-16069611D02*
X3891915Y-16269611D01*
X4343168Y-16080142D02*
X4352692Y-16070619D01*
X4352692Y-16070619D02*
X4371740Y-16061095D01*
X4371740Y-16061095D02*
X4419359Y-16061095D01*
X4419359Y-16061095D02*
X4438406Y-16070619D01*
X4438406Y-16070619D02*
X4447930Y-16080142D01*
X4447930Y-16080142D02*
X4457454Y-16099190D01*
X4457454Y-16099190D02*
X4457454Y-16118238D01*
X4457454Y-16118238D02*
X4447930Y-16146809D01*
X4447930Y-16146809D02*
X4333645Y-16261095D01*
X4333645Y-16261095D02*
X4457454Y-16261095D01*
X4543168Y-16242047D02*
X4552692Y-16251571D01*
X4552692Y-16251571D02*
X4543168Y-16261095D01*
X4543168Y-16261095D02*
X4533645Y-16251571D01*
X4533645Y-16251571D02*
X4543168Y-16242047D01*
X4543168Y-16242047D02*
X4543168Y-16261095D01*
X4628883Y-16080142D02*
X4638406Y-16070619D01*
X4638406Y-16070619D02*
X4657454Y-16061095D01*
X4657454Y-16061095D02*
X4705073Y-16061095D01*
X4705073Y-16061095D02*
X4724121Y-16070619D01*
X4724121Y-16070619D02*
X4733645Y-16080142D01*
X4733645Y-16080142D02*
X4743168Y-16099190D01*
X4743168Y-16099190D02*
X4743168Y-16118238D01*
X4743168Y-16118238D02*
X4733645Y-16146809D01*
X4733645Y-16146809D02*
X4619359Y-16261095D01*
X4619359Y-16261095D02*
X4743168Y-16261095D01*
X4866978Y-16061095D02*
X4886026Y-16061095D01*
X4886026Y-16061095D02*
X4905073Y-16070619D01*
X4905073Y-16070619D02*
X4914597Y-16080142D01*
X4914597Y-16080142D02*
X4924121Y-16099190D01*
X4924121Y-16099190D02*
X4933645Y-16137285D01*
X4933645Y-16137285D02*
X4933645Y-16184904D01*
X4933645Y-16184904D02*
X4924121Y-16222999D01*
X4924121Y-16222999D02*
X4914597Y-16242047D01*
X4914597Y-16242047D02*
X4905073Y-16251571D01*
X4905073Y-16251571D02*
X4886026Y-16261095D01*
X4886026Y-16261095D02*
X4866978Y-16261095D01*
X4866978Y-16261095D02*
X4847930Y-16251571D01*
X4847930Y-16251571D02*
X4838406Y-16242047D01*
X4838406Y-16242047D02*
X4828883Y-16222999D01*
X4828883Y-16222999D02*
X4819359Y-16184904D01*
X4819359Y-16184904D02*
X4819359Y-16137285D01*
X4819359Y-16137285D02*
X4828883Y-16099190D01*
X4828883Y-16099190D02*
X4838406Y-16080142D01*
X4838406Y-16080142D02*
X4847930Y-16070619D01*
X4847930Y-16070619D02*
X4866978Y-16061095D01*
X5057454Y-16061095D02*
X5076502Y-16061095D01*
X5076502Y-16061095D02*
X5095549Y-16070619D01*
X5095549Y-16070619D02*
X5105073Y-16080142D01*
X5105073Y-16080142D02*
X5114597Y-16099190D01*
X5114597Y-16099190D02*
X5124121Y-16137285D01*
X5124121Y-16137285D02*
X5124121Y-16184904D01*
X5124121Y-16184904D02*
X5114597Y-16222999D01*
X5114597Y-16222999D02*
X5105073Y-16242047D01*
X5105073Y-16242047D02*
X5095549Y-16251571D01*
X5095549Y-16251571D02*
X5076502Y-16261095D01*
X5076502Y-16261095D02*
X5057454Y-16261095D01*
X5057454Y-16261095D02*
X5038406Y-16251571D01*
X5038406Y-16251571D02*
X5028883Y-16242047D01*
X5028883Y-16242047D02*
X5019359Y-16222999D01*
X5019359Y-16222999D02*
X5009835Y-16184904D01*
X5009835Y-16184904D02*
X5009835Y-16137285D01*
X5009835Y-16137285D02*
X5019359Y-16099190D01*
X5019359Y-16099190D02*
X5028883Y-16080142D01*
X5028883Y-16080142D02*
X5038406Y-16070619D01*
X5038406Y-16070619D02*
X5057454Y-16061095D01*
X5209835Y-16261095D02*
X5209835Y-16127761D01*
X5209835Y-16146809D02*
X5219359Y-16137285D01*
X5219359Y-16137285D02*
X5238406Y-16127761D01*
X5238406Y-16127761D02*
X5266978Y-16127761D01*
X5266978Y-16127761D02*
X5286026Y-16137285D01*
X5286026Y-16137285D02*
X5295549Y-16156333D01*
X5295549Y-16156333D02*
X5295549Y-16261095D01*
X5295549Y-16156333D02*
X5305073Y-16137285D01*
X5305073Y-16137285D02*
X5324121Y-16127761D01*
X5324121Y-16127761D02*
X5352692Y-16127761D01*
X5352692Y-16127761D02*
X5371740Y-16137285D01*
X5371740Y-16137285D02*
X5381264Y-16156333D01*
X5381264Y-16156333D02*
X5381264Y-16261095D01*
X5476502Y-16261095D02*
X5476502Y-16127761D01*
X5476502Y-16146809D02*
X5486026Y-16137285D01*
X5486026Y-16137285D02*
X5505073Y-16127761D01*
X5505073Y-16127761D02*
X5533645Y-16127761D01*
X5533645Y-16127761D02*
X5552692Y-16137285D01*
X5552692Y-16137285D02*
X5562216Y-16156333D01*
X5562216Y-16156333D02*
X5562216Y-16261095D01*
X5562216Y-16156333D02*
X5571740Y-16137285D01*
X5571740Y-16137285D02*
X5590787Y-16127761D01*
X5590787Y-16127761D02*
X5619359Y-16127761D01*
X5619359Y-16127761D02*
X5638406Y-16137285D01*
X5638406Y-16137285D02*
X5647930Y-16156333D01*
X5647930Y-16156333D02*
X5647930Y-16261095D01*
X6038406Y-16051571D02*
X5866978Y-16308714D01*
X6295549Y-16061095D02*
X6314597Y-16061095D01*
X6314597Y-16061095D02*
X6333645Y-16070619D01*
X6333645Y-16070619D02*
X6343168Y-16080142D01*
X6343168Y-16080142D02*
X6352692Y-16099190D01*
X6352692Y-16099190D02*
X6362216Y-16137285D01*
X6362216Y-16137285D02*
X6362216Y-16184904D01*
X6362216Y-16184904D02*
X6352692Y-16222999D01*
X6352692Y-16222999D02*
X6343168Y-16242047D01*
X6343168Y-16242047D02*
X6333645Y-16251571D01*
X6333645Y-16251571D02*
X6314597Y-16261095D01*
X6314597Y-16261095D02*
X6295549Y-16261095D01*
X6295549Y-16261095D02*
X6276502Y-16251571D01*
X6276502Y-16251571D02*
X6266978Y-16242047D01*
X6266978Y-16242047D02*
X6257454Y-16222999D01*
X6257454Y-16222999D02*
X6247930Y-16184904D01*
X6247930Y-16184904D02*
X6247930Y-16137285D01*
X6247930Y-16137285D02*
X6257454Y-16099190D01*
X6257454Y-16099190D02*
X6266978Y-16080142D01*
X6266978Y-16080142D02*
X6276502Y-16070619D01*
X6276502Y-16070619D02*
X6295549Y-16061095D01*
X6447930Y-16242047D02*
X6457454Y-16251571D01*
X6457454Y-16251571D02*
X6447930Y-16261095D01*
X6447930Y-16261095D02*
X6438407Y-16251571D01*
X6438407Y-16251571D02*
X6447930Y-16242047D01*
X6447930Y-16242047D02*
X6447930Y-16261095D01*
X6581264Y-16061095D02*
X6600311Y-16061095D01*
X6600311Y-16061095D02*
X6619359Y-16070619D01*
X6619359Y-16070619D02*
X6628883Y-16080142D01*
X6628883Y-16080142D02*
X6638407Y-16099190D01*
X6638407Y-16099190D02*
X6647930Y-16137285D01*
X6647930Y-16137285D02*
X6647930Y-16184904D01*
X6647930Y-16184904D02*
X6638407Y-16222999D01*
X6638407Y-16222999D02*
X6628883Y-16242047D01*
X6628883Y-16242047D02*
X6619359Y-16251571D01*
X6619359Y-16251571D02*
X6600311Y-16261095D01*
X6600311Y-16261095D02*
X6581264Y-16261095D01*
X6581264Y-16261095D02*
X6562216Y-16251571D01*
X6562216Y-16251571D02*
X6552692Y-16242047D01*
X6552692Y-16242047D02*
X6543168Y-16222999D01*
X6543168Y-16222999D02*
X6533645Y-16184904D01*
X6533645Y-16184904D02*
X6533645Y-16137285D01*
X6533645Y-16137285D02*
X6543168Y-16099190D01*
X6543168Y-16099190D02*
X6552692Y-16080142D01*
X6552692Y-16080142D02*
X6562216Y-16070619D01*
X6562216Y-16070619D02*
X6581264Y-16061095D01*
X6762216Y-16146809D02*
X6743168Y-16137285D01*
X6743168Y-16137285D02*
X6733645Y-16127761D01*
X6733645Y-16127761D02*
X6724121Y-16108714D01*
X6724121Y-16108714D02*
X6724121Y-16099190D01*
X6724121Y-16099190D02*
X6733645Y-16080142D01*
X6733645Y-16080142D02*
X6743168Y-16070619D01*
X6743168Y-16070619D02*
X6762216Y-16061095D01*
X6762216Y-16061095D02*
X6800311Y-16061095D01*
X6800311Y-16061095D02*
X6819359Y-16070619D01*
X6819359Y-16070619D02*
X6828883Y-16080142D01*
X6828883Y-16080142D02*
X6838407Y-16099190D01*
X6838407Y-16099190D02*
X6838407Y-16108714D01*
X6838407Y-16108714D02*
X6828883Y-16127761D01*
X6828883Y-16127761D02*
X6819359Y-16137285D01*
X6819359Y-16137285D02*
X6800311Y-16146809D01*
X6800311Y-16146809D02*
X6762216Y-16146809D01*
X6762216Y-16146809D02*
X6743168Y-16156333D01*
X6743168Y-16156333D02*
X6733645Y-16165857D01*
X6733645Y-16165857D02*
X6724121Y-16184904D01*
X6724121Y-16184904D02*
X6724121Y-16222999D01*
X6724121Y-16222999D02*
X6733645Y-16242047D01*
X6733645Y-16242047D02*
X6743168Y-16251571D01*
X6743168Y-16251571D02*
X6762216Y-16261095D01*
X6762216Y-16261095D02*
X6800311Y-16261095D01*
X6800311Y-16261095D02*
X6819359Y-16251571D01*
X6819359Y-16251571D02*
X6828883Y-16242047D01*
X6828883Y-16242047D02*
X6838407Y-16222999D01*
X6838407Y-16222999D02*
X6838407Y-16184904D01*
X6838407Y-16184904D02*
X6828883Y-16165857D01*
X6828883Y-16165857D02*
X6819359Y-16156333D01*
X6819359Y-16156333D02*
X6800311Y-16146809D01*
X7009835Y-16061095D02*
X6971740Y-16061095D01*
X6971740Y-16061095D02*
X6952692Y-16070619D01*
X6952692Y-16070619D02*
X6943168Y-16080142D01*
X6943168Y-16080142D02*
X6924121Y-16108714D01*
X6924121Y-16108714D02*
X6914597Y-16146809D01*
X6914597Y-16146809D02*
X6914597Y-16222999D01*
X6914597Y-16222999D02*
X6924121Y-16242047D01*
X6924121Y-16242047D02*
X6933645Y-16251571D01*
X6933645Y-16251571D02*
X6952692Y-16261095D01*
X6952692Y-16261095D02*
X6990788Y-16261095D01*
X6990788Y-16261095D02*
X7009835Y-16251571D01*
X7009835Y-16251571D02*
X7019359Y-16242047D01*
X7019359Y-16242047D02*
X7028883Y-16222999D01*
X7028883Y-16222999D02*
X7028883Y-16175380D01*
X7028883Y-16175380D02*
X7019359Y-16156333D01*
X7019359Y-16156333D02*
X7009835Y-16146809D01*
X7009835Y-16146809D02*
X6990788Y-16137285D01*
X6990788Y-16137285D02*
X6952692Y-16137285D01*
X6952692Y-16137285D02*
X6933645Y-16146809D01*
X6933645Y-16146809D02*
X6924121Y-16156333D01*
X6924121Y-16156333D02*
X6914597Y-16175380D01*
X7200311Y-16061095D02*
X7162216Y-16061095D01*
X7162216Y-16061095D02*
X7143168Y-16070619D01*
X7143168Y-16070619D02*
X7133645Y-16080142D01*
X7133645Y-16080142D02*
X7114597Y-16108714D01*
X7114597Y-16108714D02*
X7105073Y-16146809D01*
X7105073Y-16146809D02*
X7105073Y-16222999D01*
X7105073Y-16222999D02*
X7114597Y-16242047D01*
X7114597Y-16242047D02*
X7124121Y-16251571D01*
X7124121Y-16251571D02*
X7143168Y-16261095D01*
X7143168Y-16261095D02*
X7181264Y-16261095D01*
X7181264Y-16261095D02*
X7200311Y-16251571D01*
X7200311Y-16251571D02*
X7209835Y-16242047D01*
X7209835Y-16242047D02*
X7219359Y-16222999D01*
X7219359Y-16222999D02*
X7219359Y-16175380D01*
X7219359Y-16175380D02*
X7209835Y-16156333D01*
X7209835Y-16156333D02*
X7200311Y-16146809D01*
X7200311Y-16146809D02*
X7181264Y-16137285D01*
X7181264Y-16137285D02*
X7143168Y-16137285D01*
X7143168Y-16137285D02*
X7124121Y-16146809D01*
X7124121Y-16146809D02*
X7114597Y-16156333D01*
X7114597Y-16156333D02*
X7105073Y-16175380D01*
X7295549Y-16061095D02*
X7295549Y-16099190D01*
X7371740Y-16061095D02*
X7371740Y-16099190D01*
X7666978Y-16337285D02*
X7657454Y-16327761D01*
X7657454Y-16327761D02*
X7638407Y-16299190D01*
X7638407Y-16299190D02*
X7628883Y-16280142D01*
X7628883Y-16280142D02*
X7619359Y-16251571D01*
X7619359Y-16251571D02*
X7609835Y-16203952D01*
X7609835Y-16203952D02*
X7609835Y-16165857D01*
X7609835Y-16165857D02*
X7619359Y-16118238D01*
X7619359Y-16118238D02*
X7628883Y-16089666D01*
X7628883Y-16089666D02*
X7638407Y-16070619D01*
X7638407Y-16070619D02*
X7657454Y-16042047D01*
X7657454Y-16042047D02*
X7666978Y-16032523D01*
X7838407Y-16061095D02*
X7743169Y-16061095D01*
X7743169Y-16061095D02*
X7733645Y-16156333D01*
X7733645Y-16156333D02*
X7743169Y-16146809D01*
X7743169Y-16146809D02*
X7762216Y-16137285D01*
X7762216Y-16137285D02*
X7809835Y-16137285D01*
X7809835Y-16137285D02*
X7828883Y-16146809D01*
X7828883Y-16146809D02*
X7838407Y-16156333D01*
X7838407Y-16156333D02*
X7847930Y-16175380D01*
X7847930Y-16175380D02*
X7847930Y-16222999D01*
X7847930Y-16222999D02*
X7838407Y-16242047D01*
X7838407Y-16242047D02*
X7828883Y-16251571D01*
X7828883Y-16251571D02*
X7809835Y-16261095D01*
X7809835Y-16261095D02*
X7762216Y-16261095D01*
X7762216Y-16261095D02*
X7743169Y-16251571D01*
X7743169Y-16251571D02*
X7733645Y-16242047D01*
X8086026Y-16261095D02*
X8086026Y-16061095D01*
X8171740Y-16261095D02*
X8171740Y-16156333D01*
X8171740Y-16156333D02*
X8162216Y-16137285D01*
X8162216Y-16137285D02*
X8143169Y-16127761D01*
X8143169Y-16127761D02*
X8114597Y-16127761D01*
X8114597Y-16127761D02*
X8095550Y-16137285D01*
X8095550Y-16137285D02*
X8086026Y-16146809D01*
X8295550Y-16261095D02*
X8276502Y-16251571D01*
X8276502Y-16251571D02*
X8266978Y-16242047D01*
X8266978Y-16242047D02*
X8257454Y-16222999D01*
X8257454Y-16222999D02*
X8257454Y-16165857D01*
X8257454Y-16165857D02*
X8266978Y-16146809D01*
X8266978Y-16146809D02*
X8276502Y-16137285D01*
X8276502Y-16137285D02*
X8295550Y-16127761D01*
X8295550Y-16127761D02*
X8324121Y-16127761D01*
X8324121Y-16127761D02*
X8343169Y-16137285D01*
X8343169Y-16137285D02*
X8352692Y-16146809D01*
X8352692Y-16146809D02*
X8362216Y-16165857D01*
X8362216Y-16165857D02*
X8362216Y-16222999D01*
X8362216Y-16222999D02*
X8352692Y-16242047D01*
X8352692Y-16242047D02*
X8343169Y-16251571D01*
X8343169Y-16251571D02*
X8324121Y-16261095D01*
X8324121Y-16261095D02*
X8295550Y-16261095D01*
X8476502Y-16261095D02*
X8457454Y-16251571D01*
X8457454Y-16251571D02*
X8447931Y-16232523D01*
X8447931Y-16232523D02*
X8447931Y-16061095D01*
X8628883Y-16251571D02*
X8609835Y-16261095D01*
X8609835Y-16261095D02*
X8571740Y-16261095D01*
X8571740Y-16261095D02*
X8552693Y-16251571D01*
X8552693Y-16251571D02*
X8543169Y-16232523D01*
X8543169Y-16232523D02*
X8543169Y-16156333D01*
X8543169Y-16156333D02*
X8552693Y-16137285D01*
X8552693Y-16137285D02*
X8571740Y-16127761D01*
X8571740Y-16127761D02*
X8609835Y-16127761D01*
X8609835Y-16127761D02*
X8628883Y-16137285D01*
X8628883Y-16137285D02*
X8638407Y-16156333D01*
X8638407Y-16156333D02*
X8638407Y-16175380D01*
X8638407Y-16175380D02*
X8543169Y-16194428D01*
X8714597Y-16251571D02*
X8733645Y-16261095D01*
X8733645Y-16261095D02*
X8771740Y-16261095D01*
X8771740Y-16261095D02*
X8790788Y-16251571D01*
X8790788Y-16251571D02*
X8800312Y-16232523D01*
X8800312Y-16232523D02*
X8800312Y-16222999D01*
X8800312Y-16222999D02*
X8790788Y-16203952D01*
X8790788Y-16203952D02*
X8771740Y-16194428D01*
X8771740Y-16194428D02*
X8743169Y-16194428D01*
X8743169Y-16194428D02*
X8724121Y-16184904D01*
X8724121Y-16184904D02*
X8714597Y-16165857D01*
X8714597Y-16165857D02*
X8714597Y-16156333D01*
X8714597Y-16156333D02*
X8724121Y-16137285D01*
X8724121Y-16137285D02*
X8743169Y-16127761D01*
X8743169Y-16127761D02*
X8771740Y-16127761D01*
X8771740Y-16127761D02*
X8790788Y-16137285D01*
X8866978Y-16337285D02*
X8876502Y-16327761D01*
X8876502Y-16327761D02*
X8895550Y-16299190D01*
X8895550Y-16299190D02*
X8905074Y-16280142D01*
X8905074Y-16280142D02*
X8914597Y-16251571D01*
X8914597Y-16251571D02*
X8924121Y-16203952D01*
X8924121Y-16203952D02*
X8924121Y-16165857D01*
X8924121Y-16165857D02*
X8914597Y-16118238D01*
X8914597Y-16118238D02*
X8905074Y-16089666D01*
X8905074Y-16089666D02*
X8895550Y-16070619D01*
X8895550Y-16070619D02*
X8876502Y-16042047D01*
X8876502Y-16042047D02*
X8866978Y-16032523D01*
X9228883Y-16337285D02*
X9219359Y-16327761D01*
X9219359Y-16327761D02*
X9200312Y-16299190D01*
X9200312Y-16299190D02*
X9190788Y-16280142D01*
X9190788Y-16280142D02*
X9181264Y-16251571D01*
X9181264Y-16251571D02*
X9171740Y-16203952D01*
X9171740Y-16203952D02*
X9171740Y-16165857D01*
X9171740Y-16165857D02*
X9181264Y-16118238D01*
X9181264Y-16118238D02*
X9190788Y-16089666D01*
X9190788Y-16089666D02*
X9200312Y-16070619D01*
X9200312Y-16070619D02*
X9219359Y-16042047D01*
X9219359Y-16042047D02*
X9228883Y-16032523D01*
X9305074Y-16127761D02*
X9305074Y-16261095D01*
X9305074Y-16146809D02*
X9314597Y-16137285D01*
X9314597Y-16137285D02*
X9333645Y-16127761D01*
X9333645Y-16127761D02*
X9362216Y-16127761D01*
X9362216Y-16127761D02*
X9381264Y-16137285D01*
X9381264Y-16137285D02*
X9390788Y-16156333D01*
X9390788Y-16156333D02*
X9390788Y-16261095D01*
X9514597Y-16261095D02*
X9495550Y-16251571D01*
X9495550Y-16251571D02*
X9486026Y-16242047D01*
X9486026Y-16242047D02*
X9476502Y-16222999D01*
X9476502Y-16222999D02*
X9476502Y-16165857D01*
X9476502Y-16165857D02*
X9486026Y-16146809D01*
X9486026Y-16146809D02*
X9495550Y-16137285D01*
X9495550Y-16137285D02*
X9514597Y-16127761D01*
X9514597Y-16127761D02*
X9543169Y-16127761D01*
X9543169Y-16127761D02*
X9562216Y-16137285D01*
X9562216Y-16137285D02*
X9571740Y-16146809D01*
X9571740Y-16146809D02*
X9581264Y-16165857D01*
X9581264Y-16165857D02*
X9581264Y-16222999D01*
X9581264Y-16222999D02*
X9571740Y-16242047D01*
X9571740Y-16242047D02*
X9562216Y-16251571D01*
X9562216Y-16251571D02*
X9543169Y-16261095D01*
X9543169Y-16261095D02*
X9514597Y-16261095D01*
X9638407Y-16127761D02*
X9714597Y-16127761D01*
X9666978Y-16061095D02*
X9666978Y-16232523D01*
X9666978Y-16232523D02*
X9676502Y-16251571D01*
X9676502Y-16251571D02*
X9695550Y-16261095D01*
X9695550Y-16261095D02*
X9714597Y-16261095D01*
X9933645Y-16127761D02*
X9933645Y-16327761D01*
X9933645Y-16137285D02*
X9952693Y-16127761D01*
X9952693Y-16127761D02*
X9990788Y-16127761D01*
X9990788Y-16127761D02*
X10009836Y-16137285D01*
X10009836Y-16137285D02*
X10019359Y-16146809D01*
X10019359Y-16146809D02*
X10028883Y-16165857D01*
X10028883Y-16165857D02*
X10028883Y-16222999D01*
X10028883Y-16222999D02*
X10019359Y-16242047D01*
X10019359Y-16242047D02*
X10009836Y-16251571D01*
X10009836Y-16251571D02*
X9990788Y-16261095D01*
X9990788Y-16261095D02*
X9952693Y-16261095D01*
X9952693Y-16261095D02*
X9933645Y-16251571D01*
X10143169Y-16261095D02*
X10124121Y-16251571D01*
X10124121Y-16251571D02*
X10114597Y-16232523D01*
X10114597Y-16232523D02*
X10114597Y-16061095D01*
X10305074Y-16261095D02*
X10305074Y-16156333D01*
X10305074Y-16156333D02*
X10295550Y-16137285D01*
X10295550Y-16137285D02*
X10276502Y-16127761D01*
X10276502Y-16127761D02*
X10238407Y-16127761D01*
X10238407Y-16127761D02*
X10219359Y-16137285D01*
X10305074Y-16251571D02*
X10286026Y-16261095D01*
X10286026Y-16261095D02*
X10238407Y-16261095D01*
X10238407Y-16261095D02*
X10219359Y-16251571D01*
X10219359Y-16251571D02*
X10209836Y-16232523D01*
X10209836Y-16232523D02*
X10209836Y-16213476D01*
X10209836Y-16213476D02*
X10219359Y-16194428D01*
X10219359Y-16194428D02*
X10238407Y-16184904D01*
X10238407Y-16184904D02*
X10286026Y-16184904D01*
X10286026Y-16184904D02*
X10305074Y-16175380D01*
X10371740Y-16127761D02*
X10447931Y-16127761D01*
X10400312Y-16061095D02*
X10400312Y-16232523D01*
X10400312Y-16232523D02*
X10409836Y-16251571D01*
X10409836Y-16251571D02*
X10428883Y-16261095D01*
X10428883Y-16261095D02*
X10447931Y-16261095D01*
X10590788Y-16251571D02*
X10571740Y-16261095D01*
X10571740Y-16261095D02*
X10533645Y-16261095D01*
X10533645Y-16261095D02*
X10514597Y-16251571D01*
X10514597Y-16251571D02*
X10505074Y-16232523D01*
X10505074Y-16232523D02*
X10505074Y-16156333D01*
X10505074Y-16156333D02*
X10514597Y-16137285D01*
X10514597Y-16137285D02*
X10533645Y-16127761D01*
X10533645Y-16127761D02*
X10571740Y-16127761D01*
X10571740Y-16127761D02*
X10590788Y-16137285D01*
X10590788Y-16137285D02*
X10600312Y-16156333D01*
X10600312Y-16156333D02*
X10600312Y-16175380D01*
X10600312Y-16175380D02*
X10505074Y-16194428D01*
X10771740Y-16261095D02*
X10771740Y-16061095D01*
X10771740Y-16251571D02*
X10752693Y-16261095D01*
X10752693Y-16261095D02*
X10714597Y-16261095D01*
X10714597Y-16261095D02*
X10695550Y-16251571D01*
X10695550Y-16251571D02*
X10686026Y-16242047D01*
X10686026Y-16242047D02*
X10676502Y-16222999D01*
X10676502Y-16222999D02*
X10676502Y-16165857D01*
X10676502Y-16165857D02*
X10686026Y-16146809D01*
X10686026Y-16146809D02*
X10695550Y-16137285D01*
X10695550Y-16137285D02*
X10714597Y-16127761D01*
X10714597Y-16127761D02*
X10752693Y-16127761D01*
X10752693Y-16127761D02*
X10771740Y-16137285D01*
X10847931Y-16337285D02*
X10857455Y-16327761D01*
X10857455Y-16327761D02*
X10876502Y-16299190D01*
X10876502Y-16299190D02*
X10886026Y-16280142D01*
X10886026Y-16280142D02*
X10895550Y-16251571D01*
X10895550Y-16251571D02*
X10905074Y-16203952D01*
X10905074Y-16203952D02*
X10905074Y-16165857D01*
X10905074Y-16165857D02*
X10895550Y-16118238D01*
X10895550Y-16118238D02*
X10886026Y-16089666D01*
X10886026Y-16089666D02*
X10876502Y-16070619D01*
X10876502Y-16070619D02*
X10857455Y-16042047D01*
X10857455Y-16042047D02*
X10847931Y-16032523D01*
M02*
