G04 #@! TF.GenerationSoftware,KiCad,Pcbnew,8.0.1*
G04 #@! TF.CreationDate,2024-03-22T14:56:50+09:00*
G04 #@! TF.ProjectId,Pinky3,50696e6b-7933-42e6-9b69-6361645f7063,0.3*
G04 #@! TF.SameCoordinates,Original*
G04 #@! TF.FileFunction,Legend,Top*
G04 #@! TF.FilePolarity,Positive*
%FSLAX46Y46*%
G04 Gerber Fmt 4.6, Leading zero omitted, Abs format (unit mm)*
G04 Created by KiCad (PCBNEW 8.0.1) date 2024-03-22 14:56:50*
%MOMM*%
%LPD*%
G01*
G04 APERTURE LIST*
G04 Aperture macros list*
%AMRotRect*
0 Rectangle, with rotation*
0 The origin of the aperture is its center*
0 $1 length*
0 $2 width*
0 $3 Rotation angle, in degrees counterclockwise*
0 Add horizontal line*
21,1,$1,$2,0,0,$3*%
G04 Aperture macros list end*
%ADD10C,0.300000*%
%ADD11C,0.150000*%
%ADD12C,0.125000*%
%ADD13C,0.152400*%
%ADD14C,0.120000*%
%ADD15C,0.010000*%
%ADD16C,1.397000*%
%ADD17R,1.397000X1.397000*%
%ADD18RotRect,1.397000X1.397000X350.000000*%
%ADD19RotRect,1.397000X1.397000X330.000000*%
%ADD20C,2.000000*%
%ADD21C,1.524000*%
%ADD22RotRect,1.397000X1.397000X340.000000*%
%ADD23C,2.200000*%
G04 APERTURE END LIST*
D10*
X64231204Y-125670870D02*
X64588347Y-126670870D01*
X64588347Y-126670870D02*
X64945490Y-125670870D01*
X66088347Y-126599442D02*
X65945490Y-126670870D01*
X65945490Y-126670870D02*
X65659776Y-126670870D01*
X65659776Y-126670870D02*
X65516918Y-126599442D01*
X65516918Y-126599442D02*
X65445490Y-126456584D01*
X65445490Y-126456584D02*
X65445490Y-125885156D01*
X65445490Y-125885156D02*
X65516918Y-125742299D01*
X65516918Y-125742299D02*
X65659776Y-125670870D01*
X65659776Y-125670870D02*
X65945490Y-125670870D01*
X65945490Y-125670870D02*
X66088347Y-125742299D01*
X66088347Y-125742299D02*
X66159776Y-125885156D01*
X66159776Y-125885156D02*
X66159776Y-126028013D01*
X66159776Y-126028013D02*
X65445490Y-126170870D01*
X66802632Y-126670870D02*
X66802632Y-125670870D01*
X66802632Y-125956584D02*
X66874061Y-125813727D01*
X66874061Y-125813727D02*
X66945490Y-125742299D01*
X66945490Y-125742299D02*
X67088347Y-125670870D01*
X67088347Y-125670870D02*
X67231204Y-125670870D01*
X67731203Y-126528013D02*
X67802632Y-126599442D01*
X67802632Y-126599442D02*
X67731203Y-126670870D01*
X67731203Y-126670870D02*
X67659775Y-126599442D01*
X67659775Y-126599442D02*
X67731203Y-126528013D01*
X67731203Y-126528013D02*
X67731203Y-126670870D01*
X70374061Y-126670870D02*
X69516918Y-126670870D01*
X69945489Y-126670870D02*
X69945489Y-125170870D01*
X69945489Y-125170870D02*
X69802632Y-125385156D01*
X69802632Y-125385156D02*
X69659775Y-125528013D01*
X69659775Y-125528013D02*
X69516918Y-125599442D01*
X71016917Y-126528013D02*
X71088346Y-126599442D01*
X71088346Y-126599442D02*
X71016917Y-126670870D01*
X71016917Y-126670870D02*
X70945489Y-126599442D01*
X70945489Y-126599442D02*
X71016917Y-126528013D01*
X71016917Y-126528013D02*
X71016917Y-126670870D01*
X72016918Y-125170870D02*
X72159775Y-125170870D01*
X72159775Y-125170870D02*
X72302632Y-125242299D01*
X72302632Y-125242299D02*
X72374061Y-125313727D01*
X72374061Y-125313727D02*
X72445489Y-125456584D01*
X72445489Y-125456584D02*
X72516918Y-125742299D01*
X72516918Y-125742299D02*
X72516918Y-126099442D01*
X72516918Y-126099442D02*
X72445489Y-126385156D01*
X72445489Y-126385156D02*
X72374061Y-126528013D01*
X72374061Y-126528013D02*
X72302632Y-126599442D01*
X72302632Y-126599442D02*
X72159775Y-126670870D01*
X72159775Y-126670870D02*
X72016918Y-126670870D01*
X72016918Y-126670870D02*
X71874061Y-126599442D01*
X71874061Y-126599442D02*
X71802632Y-126528013D01*
X71802632Y-126528013D02*
X71731203Y-126385156D01*
X71731203Y-126385156D02*
X71659775Y-126099442D01*
X71659775Y-126099442D02*
X71659775Y-125742299D01*
X71659775Y-125742299D02*
X71731203Y-125456584D01*
X71731203Y-125456584D02*
X71802632Y-125313727D01*
X71802632Y-125313727D02*
X71874061Y-125242299D01*
X71874061Y-125242299D02*
X72016918Y-125170870D01*
X46231202Y-129085786D02*
X46231202Y-127585786D01*
X46231202Y-129014358D02*
X46088344Y-129085786D01*
X46088344Y-129085786D02*
X45802630Y-129085786D01*
X45802630Y-129085786D02*
X45659773Y-129014358D01*
X45659773Y-129014358D02*
X45588344Y-128942929D01*
X45588344Y-128942929D02*
X45516916Y-128800072D01*
X45516916Y-128800072D02*
X45516916Y-128371500D01*
X45516916Y-128371500D02*
X45588344Y-128228643D01*
X45588344Y-128228643D02*
X45659773Y-128157215D01*
X45659773Y-128157215D02*
X45802630Y-128085786D01*
X45802630Y-128085786D02*
X46088344Y-128085786D01*
X46088344Y-128085786D02*
X46231202Y-128157215D01*
X47516916Y-129014358D02*
X47374059Y-129085786D01*
X47374059Y-129085786D02*
X47088345Y-129085786D01*
X47088345Y-129085786D02*
X46945487Y-129014358D01*
X46945487Y-129014358D02*
X46874059Y-128871500D01*
X46874059Y-128871500D02*
X46874059Y-128300072D01*
X46874059Y-128300072D02*
X46945487Y-128157215D01*
X46945487Y-128157215D02*
X47088345Y-128085786D01*
X47088345Y-128085786D02*
X47374059Y-128085786D01*
X47374059Y-128085786D02*
X47516916Y-128157215D01*
X47516916Y-128157215D02*
X47588345Y-128300072D01*
X47588345Y-128300072D02*
X47588345Y-128442929D01*
X47588345Y-128442929D02*
X46874059Y-128585786D01*
X48159773Y-129014358D02*
X48302630Y-129085786D01*
X48302630Y-129085786D02*
X48588344Y-129085786D01*
X48588344Y-129085786D02*
X48731201Y-129014358D01*
X48731201Y-129014358D02*
X48802630Y-128871500D01*
X48802630Y-128871500D02*
X48802630Y-128800072D01*
X48802630Y-128800072D02*
X48731201Y-128657215D01*
X48731201Y-128657215D02*
X48588344Y-128585786D01*
X48588344Y-128585786D02*
X48374059Y-128585786D01*
X48374059Y-128585786D02*
X48231201Y-128514358D01*
X48231201Y-128514358D02*
X48159773Y-128371500D01*
X48159773Y-128371500D02*
X48159773Y-128300072D01*
X48159773Y-128300072D02*
X48231201Y-128157215D01*
X48231201Y-128157215D02*
X48374059Y-128085786D01*
X48374059Y-128085786D02*
X48588344Y-128085786D01*
X48588344Y-128085786D02*
X48731201Y-128157215D01*
X49445487Y-129085786D02*
X49445487Y-128085786D01*
X49445487Y-127585786D02*
X49374059Y-127657215D01*
X49374059Y-127657215D02*
X49445487Y-127728643D01*
X49445487Y-127728643D02*
X49516916Y-127657215D01*
X49516916Y-127657215D02*
X49445487Y-127585786D01*
X49445487Y-127585786D02*
X49445487Y-127728643D01*
X50802631Y-128085786D02*
X50802631Y-129300072D01*
X50802631Y-129300072D02*
X50731202Y-129442929D01*
X50731202Y-129442929D02*
X50659773Y-129514358D01*
X50659773Y-129514358D02*
X50516916Y-129585786D01*
X50516916Y-129585786D02*
X50302631Y-129585786D01*
X50302631Y-129585786D02*
X50159773Y-129514358D01*
X50802631Y-129014358D02*
X50659773Y-129085786D01*
X50659773Y-129085786D02*
X50374059Y-129085786D01*
X50374059Y-129085786D02*
X50231202Y-129014358D01*
X50231202Y-129014358D02*
X50159773Y-128942929D01*
X50159773Y-128942929D02*
X50088345Y-128800072D01*
X50088345Y-128800072D02*
X50088345Y-128371500D01*
X50088345Y-128371500D02*
X50159773Y-128228643D01*
X50159773Y-128228643D02*
X50231202Y-128157215D01*
X50231202Y-128157215D02*
X50374059Y-128085786D01*
X50374059Y-128085786D02*
X50659773Y-128085786D01*
X50659773Y-128085786D02*
X50802631Y-128157215D01*
X51516916Y-128085786D02*
X51516916Y-129085786D01*
X51516916Y-128228643D02*
X51588345Y-128157215D01*
X51588345Y-128157215D02*
X51731202Y-128085786D01*
X51731202Y-128085786D02*
X51945488Y-128085786D01*
X51945488Y-128085786D02*
X52088345Y-128157215D01*
X52088345Y-128157215D02*
X52159774Y-128300072D01*
X52159774Y-128300072D02*
X52159774Y-129085786D01*
X53445488Y-129014358D02*
X53302631Y-129085786D01*
X53302631Y-129085786D02*
X53016917Y-129085786D01*
X53016917Y-129085786D02*
X52874059Y-129014358D01*
X52874059Y-129014358D02*
X52802631Y-128871500D01*
X52802631Y-128871500D02*
X52802631Y-128300072D01*
X52802631Y-128300072D02*
X52874059Y-128157215D01*
X52874059Y-128157215D02*
X53016917Y-128085786D01*
X53016917Y-128085786D02*
X53302631Y-128085786D01*
X53302631Y-128085786D02*
X53445488Y-128157215D01*
X53445488Y-128157215D02*
X53516917Y-128300072D01*
X53516917Y-128300072D02*
X53516917Y-128442929D01*
X53516917Y-128442929D02*
X52802631Y-128585786D01*
X54802631Y-129085786D02*
X54802631Y-127585786D01*
X54802631Y-129014358D02*
X54659773Y-129085786D01*
X54659773Y-129085786D02*
X54374059Y-129085786D01*
X54374059Y-129085786D02*
X54231202Y-129014358D01*
X54231202Y-129014358D02*
X54159773Y-128942929D01*
X54159773Y-128942929D02*
X54088345Y-128800072D01*
X54088345Y-128800072D02*
X54088345Y-128371500D01*
X54088345Y-128371500D02*
X54159773Y-128228643D01*
X54159773Y-128228643D02*
X54231202Y-128157215D01*
X54231202Y-128157215D02*
X54374059Y-128085786D01*
X54374059Y-128085786D02*
X54659773Y-128085786D01*
X54659773Y-128085786D02*
X54802631Y-128157215D01*
X56659773Y-129085786D02*
X56659773Y-127585786D01*
X56659773Y-128157215D02*
X56802631Y-128085786D01*
X56802631Y-128085786D02*
X57088345Y-128085786D01*
X57088345Y-128085786D02*
X57231202Y-128157215D01*
X57231202Y-128157215D02*
X57302631Y-128228643D01*
X57302631Y-128228643D02*
X57374059Y-128371500D01*
X57374059Y-128371500D02*
X57374059Y-128800072D01*
X57374059Y-128800072D02*
X57302631Y-128942929D01*
X57302631Y-128942929D02*
X57231202Y-129014358D01*
X57231202Y-129014358D02*
X57088345Y-129085786D01*
X57088345Y-129085786D02*
X56802631Y-129085786D01*
X56802631Y-129085786D02*
X56659773Y-129014358D01*
X57874059Y-128085786D02*
X58231202Y-129085786D01*
X58588345Y-128085786D02*
X58231202Y-129085786D01*
X58231202Y-129085786D02*
X58088345Y-129442929D01*
X58088345Y-129442929D02*
X58016916Y-129514358D01*
X58016916Y-129514358D02*
X57874059Y-129585786D01*
X61231202Y-128371500D02*
X61159773Y-128300072D01*
X61159773Y-128300072D02*
X61016916Y-128228643D01*
X61016916Y-128228643D02*
X60874059Y-128228643D01*
X60874059Y-128228643D02*
X60731202Y-128300072D01*
X60731202Y-128300072D02*
X60659773Y-128371500D01*
X60659773Y-128371500D02*
X60588345Y-128514358D01*
X60588345Y-128514358D02*
X60588345Y-128657215D01*
X60588345Y-128657215D02*
X60659773Y-128800072D01*
X60659773Y-128800072D02*
X60731202Y-128871500D01*
X60731202Y-128871500D02*
X60874059Y-128942929D01*
X60874059Y-128942929D02*
X61016916Y-128942929D01*
X61016916Y-128942929D02*
X61159773Y-128871500D01*
X61159773Y-128871500D02*
X61231202Y-128800072D01*
X61231202Y-128228643D02*
X61231202Y-128800072D01*
X61231202Y-128800072D02*
X61302630Y-128871500D01*
X61302630Y-128871500D02*
X61374059Y-128871500D01*
X61374059Y-128871500D02*
X61516916Y-128800072D01*
X61516916Y-128800072D02*
X61588345Y-128657215D01*
X61588345Y-128657215D02*
X61588345Y-128300072D01*
X61588345Y-128300072D02*
X61445488Y-128085786D01*
X61445488Y-128085786D02*
X61231202Y-127942929D01*
X61231202Y-127942929D02*
X60945488Y-127871500D01*
X60945488Y-127871500D02*
X60659773Y-127942929D01*
X60659773Y-127942929D02*
X60445488Y-128085786D01*
X60445488Y-128085786D02*
X60302630Y-128300072D01*
X60302630Y-128300072D02*
X60231202Y-128585786D01*
X60231202Y-128585786D02*
X60302630Y-128871500D01*
X60302630Y-128871500D02*
X60445488Y-129085786D01*
X60445488Y-129085786D02*
X60659773Y-129228643D01*
X60659773Y-129228643D02*
X60945488Y-129300072D01*
X60945488Y-129300072D02*
X61231202Y-129228643D01*
X61231202Y-129228643D02*
X61445488Y-129085786D01*
X62016916Y-128085786D02*
X62588344Y-128085786D01*
X62231201Y-127585786D02*
X62231201Y-128871500D01*
X62231201Y-128871500D02*
X62302630Y-129014358D01*
X62302630Y-129014358D02*
X62445487Y-129085786D01*
X62445487Y-129085786D02*
X62588344Y-129085786D01*
X63731202Y-129085786D02*
X63731202Y-128300072D01*
X63731202Y-128300072D02*
X63659773Y-128157215D01*
X63659773Y-128157215D02*
X63516916Y-128085786D01*
X63516916Y-128085786D02*
X63231202Y-128085786D01*
X63231202Y-128085786D02*
X63088344Y-128157215D01*
X63731202Y-129014358D02*
X63588344Y-129085786D01*
X63588344Y-129085786D02*
X63231202Y-129085786D01*
X63231202Y-129085786D02*
X63088344Y-129014358D01*
X63088344Y-129014358D02*
X63016916Y-128871500D01*
X63016916Y-128871500D02*
X63016916Y-128728643D01*
X63016916Y-128728643D02*
X63088344Y-128585786D01*
X63088344Y-128585786D02*
X63231202Y-128514358D01*
X63231202Y-128514358D02*
X63588344Y-128514358D01*
X63588344Y-128514358D02*
X63731202Y-128442929D01*
X64445487Y-129085786D02*
X64445487Y-128085786D01*
X64445487Y-128228643D02*
X64516916Y-128157215D01*
X64516916Y-128157215D02*
X64659773Y-128085786D01*
X64659773Y-128085786D02*
X64874059Y-128085786D01*
X64874059Y-128085786D02*
X65016916Y-128157215D01*
X65016916Y-128157215D02*
X65088345Y-128300072D01*
X65088345Y-128300072D02*
X65088345Y-129085786D01*
X65088345Y-128300072D02*
X65159773Y-128157215D01*
X65159773Y-128157215D02*
X65302630Y-128085786D01*
X65302630Y-128085786D02*
X65516916Y-128085786D01*
X65516916Y-128085786D02*
X65659773Y-128157215D01*
X65659773Y-128157215D02*
X65731202Y-128300072D01*
X65731202Y-128300072D02*
X65731202Y-129085786D01*
X67088345Y-129085786D02*
X67088345Y-128300072D01*
X67088345Y-128300072D02*
X67016916Y-128157215D01*
X67016916Y-128157215D02*
X66874059Y-128085786D01*
X66874059Y-128085786D02*
X66588345Y-128085786D01*
X66588345Y-128085786D02*
X66445487Y-128157215D01*
X67088345Y-129014358D02*
X66945487Y-129085786D01*
X66945487Y-129085786D02*
X66588345Y-129085786D01*
X66588345Y-129085786D02*
X66445487Y-129014358D01*
X66445487Y-129014358D02*
X66374059Y-128871500D01*
X66374059Y-128871500D02*
X66374059Y-128728643D01*
X66374059Y-128728643D02*
X66445487Y-128585786D01*
X66445487Y-128585786D02*
X66588345Y-128514358D01*
X66588345Y-128514358D02*
X66945487Y-128514358D01*
X66945487Y-128514358D02*
X67088345Y-128442929D01*
X67802630Y-128085786D02*
X67802630Y-129085786D01*
X67802630Y-128228643D02*
X67874059Y-128157215D01*
X67874059Y-128157215D02*
X68016916Y-128085786D01*
X68016916Y-128085786D02*
X68231202Y-128085786D01*
X68231202Y-128085786D02*
X68374059Y-128157215D01*
X68374059Y-128157215D02*
X68445488Y-128300072D01*
X68445488Y-128300072D02*
X68445488Y-129085786D01*
X69159773Y-129085786D02*
X69159773Y-128085786D01*
X69159773Y-127585786D02*
X69088345Y-127657215D01*
X69088345Y-127657215D02*
X69159773Y-127728643D01*
X69159773Y-127728643D02*
X69231202Y-127657215D01*
X69231202Y-127657215D02*
X69159773Y-127585786D01*
X69159773Y-127585786D02*
X69159773Y-127728643D01*
X69802631Y-129014358D02*
X69945488Y-129085786D01*
X69945488Y-129085786D02*
X70231202Y-129085786D01*
X70231202Y-129085786D02*
X70374059Y-129014358D01*
X70374059Y-129014358D02*
X70445488Y-128871500D01*
X70445488Y-128871500D02*
X70445488Y-128800072D01*
X70445488Y-128800072D02*
X70374059Y-128657215D01*
X70374059Y-128657215D02*
X70231202Y-128585786D01*
X70231202Y-128585786D02*
X70016917Y-128585786D01*
X70016917Y-128585786D02*
X69874059Y-128514358D01*
X69874059Y-128514358D02*
X69802631Y-128371500D01*
X69802631Y-128371500D02*
X69802631Y-128300072D01*
X69802631Y-128300072D02*
X69874059Y-128157215D01*
X69874059Y-128157215D02*
X70016917Y-128085786D01*
X70016917Y-128085786D02*
X70231202Y-128085786D01*
X70231202Y-128085786D02*
X70374059Y-128157215D01*
X71088345Y-129085786D02*
X71088345Y-127585786D01*
X71731203Y-129085786D02*
X71731203Y-128300072D01*
X71731203Y-128300072D02*
X71659774Y-128157215D01*
X71659774Y-128157215D02*
X71516917Y-128085786D01*
X71516917Y-128085786D02*
X71302631Y-128085786D01*
X71302631Y-128085786D02*
X71159774Y-128157215D01*
X71159774Y-128157215D02*
X71088345Y-128228643D01*
X72445488Y-129085786D02*
X72445488Y-128085786D01*
X72445488Y-127585786D02*
X72374060Y-127657215D01*
X72374060Y-127657215D02*
X72445488Y-127728643D01*
X72445488Y-127728643D02*
X72516917Y-127657215D01*
X72516917Y-127657215D02*
X72445488Y-127585786D01*
X72445488Y-127585786D02*
X72445488Y-127728643D01*
D11*
X87627546Y-124273172D02*
X87356613Y-123886125D01*
X87163089Y-124273172D02*
X87163089Y-123460372D01*
X87163089Y-123460372D02*
X87472727Y-123460372D01*
X87472727Y-123460372D02*
X87550137Y-123499077D01*
X87550137Y-123499077D02*
X87588842Y-123537782D01*
X87588842Y-123537782D02*
X87627546Y-123615191D01*
X87627546Y-123615191D02*
X87627546Y-123731306D01*
X87627546Y-123731306D02*
X87588842Y-123808715D01*
X87588842Y-123808715D02*
X87550137Y-123847420D01*
X87550137Y-123847420D02*
X87472727Y-123886125D01*
X87472727Y-123886125D02*
X87163089Y-123886125D01*
X88401642Y-124273172D02*
X87937185Y-124273172D01*
X88169413Y-124273172D02*
X88169413Y-123460372D01*
X88169413Y-123460372D02*
X88092004Y-123576487D01*
X88092004Y-123576487D02*
X88014594Y-123653896D01*
X88014594Y-123653896D02*
X87937185Y-123692601D01*
X87627546Y-127473172D02*
X87356613Y-127086125D01*
X87163089Y-127473172D02*
X87163089Y-126660372D01*
X87163089Y-126660372D02*
X87472727Y-126660372D01*
X87472727Y-126660372D02*
X87550137Y-126699077D01*
X87550137Y-126699077D02*
X87588842Y-126737782D01*
X87588842Y-126737782D02*
X87627546Y-126815191D01*
X87627546Y-126815191D02*
X87627546Y-126931306D01*
X87627546Y-126931306D02*
X87588842Y-127008715D01*
X87588842Y-127008715D02*
X87550137Y-127047420D01*
X87550137Y-127047420D02*
X87472727Y-127086125D01*
X87472727Y-127086125D02*
X87163089Y-127086125D01*
X87937185Y-126737782D02*
X87975889Y-126699077D01*
X87975889Y-126699077D02*
X88053299Y-126660372D01*
X88053299Y-126660372D02*
X88246823Y-126660372D01*
X88246823Y-126660372D02*
X88324232Y-126699077D01*
X88324232Y-126699077D02*
X88362937Y-126737782D01*
X88362937Y-126737782D02*
X88401642Y-126815191D01*
X88401642Y-126815191D02*
X88401642Y-126892601D01*
X88401642Y-126892601D02*
X88362937Y-127008715D01*
X88362937Y-127008715D02*
X87898480Y-127473172D01*
X87898480Y-127473172D02*
X88401642Y-127473172D01*
X94413089Y-124193172D02*
X94413089Y-123380372D01*
X94413089Y-123380372D02*
X94722727Y-123380372D01*
X94722727Y-123380372D02*
X94800137Y-123419077D01*
X94800137Y-123419077D02*
X94838842Y-123457782D01*
X94838842Y-123457782D02*
X94877546Y-123535191D01*
X94877546Y-123535191D02*
X94877546Y-123651306D01*
X94877546Y-123651306D02*
X94838842Y-123728715D01*
X94838842Y-123728715D02*
X94800137Y-123767420D01*
X94800137Y-123767420D02*
X94722727Y-123806125D01*
X94722727Y-123806125D02*
X94413089Y-123806125D01*
X95651642Y-124193172D02*
X95187185Y-124193172D01*
X95419413Y-124193172D02*
X95419413Y-123380372D01*
X95419413Y-123380372D02*
X95342004Y-123496487D01*
X95342004Y-123496487D02*
X95264594Y-123573896D01*
X95264594Y-123573896D02*
X95187185Y-123612601D01*
X94413089Y-127393172D02*
X94413089Y-126580372D01*
X94413089Y-126580372D02*
X94722727Y-126580372D01*
X94722727Y-126580372D02*
X94800137Y-126619077D01*
X94800137Y-126619077D02*
X94838842Y-126657782D01*
X94838842Y-126657782D02*
X94877546Y-126735191D01*
X94877546Y-126735191D02*
X94877546Y-126851306D01*
X94877546Y-126851306D02*
X94838842Y-126928715D01*
X94838842Y-126928715D02*
X94800137Y-126967420D01*
X94800137Y-126967420D02*
X94722727Y-127006125D01*
X94722727Y-127006125D02*
X94413089Y-127006125D01*
X95187185Y-126657782D02*
X95225889Y-126619077D01*
X95225889Y-126619077D02*
X95303299Y-126580372D01*
X95303299Y-126580372D02*
X95496823Y-126580372D01*
X95496823Y-126580372D02*
X95574232Y-126619077D01*
X95574232Y-126619077D02*
X95612937Y-126657782D01*
X95612937Y-126657782D02*
X95651642Y-126735191D01*
X95651642Y-126735191D02*
X95651642Y-126812601D01*
X95651642Y-126812601D02*
X95612937Y-126928715D01*
X95612937Y-126928715D02*
X95148480Y-127393172D01*
X95148480Y-127393172D02*
X95651642Y-127393172D01*
X88530005Y-131084405D02*
X88196672Y-130608214D01*
X87958577Y-131084405D02*
X87958577Y-130084405D01*
X87958577Y-130084405D02*
X88339529Y-130084405D01*
X88339529Y-130084405D02*
X88434767Y-130132024D01*
X88434767Y-130132024D02*
X88482386Y-130179643D01*
X88482386Y-130179643D02*
X88530005Y-130274881D01*
X88530005Y-130274881D02*
X88530005Y-130417738D01*
X88530005Y-130417738D02*
X88482386Y-130512976D01*
X88482386Y-130512976D02*
X88434767Y-130560595D01*
X88434767Y-130560595D02*
X88339529Y-130608214D01*
X88339529Y-130608214D02*
X87958577Y-130608214D01*
X88958577Y-130560595D02*
X89291910Y-130560595D01*
X89434767Y-131084405D02*
X88958577Y-131084405D01*
X88958577Y-131084405D02*
X88958577Y-130084405D01*
X88958577Y-130084405D02*
X89434767Y-130084405D01*
X89815720Y-131036786D02*
X89958577Y-131084405D01*
X89958577Y-131084405D02*
X90196672Y-131084405D01*
X90196672Y-131084405D02*
X90291910Y-131036786D01*
X90291910Y-131036786D02*
X90339529Y-130989166D01*
X90339529Y-130989166D02*
X90387148Y-130893928D01*
X90387148Y-130893928D02*
X90387148Y-130798690D01*
X90387148Y-130798690D02*
X90339529Y-130703452D01*
X90339529Y-130703452D02*
X90291910Y-130655833D01*
X90291910Y-130655833D02*
X90196672Y-130608214D01*
X90196672Y-130608214D02*
X90006196Y-130560595D01*
X90006196Y-130560595D02*
X89910958Y-130512976D01*
X89910958Y-130512976D02*
X89863339Y-130465357D01*
X89863339Y-130465357D02*
X89815720Y-130370119D01*
X89815720Y-130370119D02*
X89815720Y-130274881D01*
X89815720Y-130274881D02*
X89863339Y-130179643D01*
X89863339Y-130179643D02*
X89910958Y-130132024D01*
X89910958Y-130132024D02*
X90006196Y-130084405D01*
X90006196Y-130084405D02*
X90244291Y-130084405D01*
X90244291Y-130084405D02*
X90387148Y-130132024D01*
X90815720Y-130560595D02*
X91149053Y-130560595D01*
X91291910Y-131084405D02*
X90815720Y-131084405D01*
X90815720Y-131084405D02*
X90815720Y-130084405D01*
X90815720Y-130084405D02*
X91291910Y-130084405D01*
X91577625Y-130084405D02*
X92149053Y-130084405D01*
X91863339Y-131084405D02*
X91863339Y-130084405D01*
D12*
X55259035Y-131547619D02*
X55294750Y-131571428D01*
X55294750Y-131571428D02*
X55330464Y-131642857D01*
X55330464Y-131642857D02*
X55330464Y-131690476D01*
X55330464Y-131690476D02*
X55294750Y-131761904D01*
X55294750Y-131761904D02*
X55223321Y-131809523D01*
X55223321Y-131809523D02*
X55151892Y-131833333D01*
X55151892Y-131833333D02*
X55009035Y-131857142D01*
X55009035Y-131857142D02*
X54901892Y-131857142D01*
X54901892Y-131857142D02*
X54759035Y-131833333D01*
X54759035Y-131833333D02*
X54687607Y-131809523D01*
X54687607Y-131809523D02*
X54616178Y-131761904D01*
X54616178Y-131761904D02*
X54580464Y-131690476D01*
X54580464Y-131690476D02*
X54580464Y-131642857D01*
X54580464Y-131642857D02*
X54616178Y-131571428D01*
X54616178Y-131571428D02*
X54651892Y-131547619D01*
X54580464Y-131238095D02*
X54580464Y-131142857D01*
X54580464Y-131142857D02*
X54616178Y-131095238D01*
X54616178Y-131095238D02*
X54687607Y-131047619D01*
X54687607Y-131047619D02*
X54830464Y-131023809D01*
X54830464Y-131023809D02*
X55080464Y-131023809D01*
X55080464Y-131023809D02*
X55223321Y-131047619D01*
X55223321Y-131047619D02*
X55294750Y-131095238D01*
X55294750Y-131095238D02*
X55330464Y-131142857D01*
X55330464Y-131142857D02*
X55330464Y-131238095D01*
X55330464Y-131238095D02*
X55294750Y-131285714D01*
X55294750Y-131285714D02*
X55223321Y-131333333D01*
X55223321Y-131333333D02*
X55080464Y-131357142D01*
X55080464Y-131357142D02*
X54830464Y-131357142D01*
X54830464Y-131357142D02*
X54687607Y-131333333D01*
X54687607Y-131333333D02*
X54616178Y-131285714D01*
X54616178Y-131285714D02*
X54580464Y-131238095D01*
X55330464Y-130571428D02*
X55330464Y-130809523D01*
X55330464Y-130809523D02*
X54580464Y-130809523D01*
X54580464Y-130309523D02*
X54580464Y-130261904D01*
X54580464Y-130261904D02*
X54616178Y-130214285D01*
X54616178Y-130214285D02*
X54651892Y-130190475D01*
X54651892Y-130190475D02*
X54723321Y-130166666D01*
X54723321Y-130166666D02*
X54866178Y-130142856D01*
X54866178Y-130142856D02*
X55044750Y-130142856D01*
X55044750Y-130142856D02*
X55187607Y-130166666D01*
X55187607Y-130166666D02*
X55259035Y-130190475D01*
X55259035Y-130190475D02*
X55294750Y-130214285D01*
X55294750Y-130214285D02*
X55330464Y-130261904D01*
X55330464Y-130261904D02*
X55330464Y-130309523D01*
X55330464Y-130309523D02*
X55294750Y-130357142D01*
X55294750Y-130357142D02*
X55259035Y-130380951D01*
X55259035Y-130380951D02*
X55187607Y-130404761D01*
X55187607Y-130404761D02*
X55044750Y-130428570D01*
X55044750Y-130428570D02*
X54866178Y-130428570D01*
X54866178Y-130428570D02*
X54723321Y-130404761D01*
X54723321Y-130404761D02*
X54651892Y-130380951D01*
X54651892Y-130380951D02*
X54616178Y-130357142D01*
X54616178Y-130357142D02*
X54580464Y-130309523D01*
X47680464Y-121199999D02*
X46930464Y-121199999D01*
X46930464Y-121199999D02*
X46930464Y-121080951D01*
X46930464Y-121080951D02*
X46966178Y-121009523D01*
X46966178Y-121009523D02*
X47037607Y-120961904D01*
X47037607Y-120961904D02*
X47109035Y-120938094D01*
X47109035Y-120938094D02*
X47251892Y-120914285D01*
X47251892Y-120914285D02*
X47359035Y-120914285D01*
X47359035Y-120914285D02*
X47501892Y-120938094D01*
X47501892Y-120938094D02*
X47573321Y-120961904D01*
X47573321Y-120961904D02*
X47644750Y-121009523D01*
X47644750Y-121009523D02*
X47680464Y-121080951D01*
X47680464Y-121080951D02*
X47680464Y-121199999D01*
X47466178Y-120723808D02*
X47466178Y-120485713D01*
X47680464Y-120771427D02*
X46930464Y-120604761D01*
X46930464Y-120604761D02*
X47680464Y-120438094D01*
X46930464Y-120342856D02*
X46930464Y-120057142D01*
X47680464Y-120199999D02*
X46930464Y-120199999D01*
X47466178Y-119914285D02*
X47466178Y-119676190D01*
X47680464Y-119961904D02*
X46930464Y-119795238D01*
X46930464Y-119795238D02*
X47680464Y-119628571D01*
X60321035Y-131547619D02*
X60356750Y-131571428D01*
X60356750Y-131571428D02*
X60392464Y-131642857D01*
X60392464Y-131642857D02*
X60392464Y-131690476D01*
X60392464Y-131690476D02*
X60356750Y-131761904D01*
X60356750Y-131761904D02*
X60285321Y-131809523D01*
X60285321Y-131809523D02*
X60213892Y-131833333D01*
X60213892Y-131833333D02*
X60071035Y-131857142D01*
X60071035Y-131857142D02*
X59963892Y-131857142D01*
X59963892Y-131857142D02*
X59821035Y-131833333D01*
X59821035Y-131833333D02*
X59749607Y-131809523D01*
X59749607Y-131809523D02*
X59678178Y-131761904D01*
X59678178Y-131761904D02*
X59642464Y-131690476D01*
X59642464Y-131690476D02*
X59642464Y-131642857D01*
X59642464Y-131642857D02*
X59678178Y-131571428D01*
X59678178Y-131571428D02*
X59713892Y-131547619D01*
X59642464Y-131238095D02*
X59642464Y-131142857D01*
X59642464Y-131142857D02*
X59678178Y-131095238D01*
X59678178Y-131095238D02*
X59749607Y-131047619D01*
X59749607Y-131047619D02*
X59892464Y-131023809D01*
X59892464Y-131023809D02*
X60142464Y-131023809D01*
X60142464Y-131023809D02*
X60285321Y-131047619D01*
X60285321Y-131047619D02*
X60356750Y-131095238D01*
X60356750Y-131095238D02*
X60392464Y-131142857D01*
X60392464Y-131142857D02*
X60392464Y-131238095D01*
X60392464Y-131238095D02*
X60356750Y-131285714D01*
X60356750Y-131285714D02*
X60285321Y-131333333D01*
X60285321Y-131333333D02*
X60142464Y-131357142D01*
X60142464Y-131357142D02*
X59892464Y-131357142D01*
X59892464Y-131357142D02*
X59749607Y-131333333D01*
X59749607Y-131333333D02*
X59678178Y-131285714D01*
X59678178Y-131285714D02*
X59642464Y-131238095D01*
X60392464Y-130571428D02*
X60392464Y-130809523D01*
X60392464Y-130809523D02*
X59642464Y-130809523D01*
X59713892Y-130428570D02*
X59678178Y-130404761D01*
X59678178Y-130404761D02*
X59642464Y-130357142D01*
X59642464Y-130357142D02*
X59642464Y-130238094D01*
X59642464Y-130238094D02*
X59678178Y-130190475D01*
X59678178Y-130190475D02*
X59713892Y-130166666D01*
X59713892Y-130166666D02*
X59785321Y-130142856D01*
X59785321Y-130142856D02*
X59856750Y-130142856D01*
X59856750Y-130142856D02*
X59963892Y-130166666D01*
X59963892Y-130166666D02*
X60392464Y-130452380D01*
X60392464Y-130452380D02*
X60392464Y-130142856D01*
X65409035Y-131547619D02*
X65444750Y-131571428D01*
X65444750Y-131571428D02*
X65480464Y-131642857D01*
X65480464Y-131642857D02*
X65480464Y-131690476D01*
X65480464Y-131690476D02*
X65444750Y-131761904D01*
X65444750Y-131761904D02*
X65373321Y-131809523D01*
X65373321Y-131809523D02*
X65301892Y-131833333D01*
X65301892Y-131833333D02*
X65159035Y-131857142D01*
X65159035Y-131857142D02*
X65051892Y-131857142D01*
X65051892Y-131857142D02*
X64909035Y-131833333D01*
X64909035Y-131833333D02*
X64837607Y-131809523D01*
X64837607Y-131809523D02*
X64766178Y-131761904D01*
X64766178Y-131761904D02*
X64730464Y-131690476D01*
X64730464Y-131690476D02*
X64730464Y-131642857D01*
X64730464Y-131642857D02*
X64766178Y-131571428D01*
X64766178Y-131571428D02*
X64801892Y-131547619D01*
X64730464Y-131238095D02*
X64730464Y-131142857D01*
X64730464Y-131142857D02*
X64766178Y-131095238D01*
X64766178Y-131095238D02*
X64837607Y-131047619D01*
X64837607Y-131047619D02*
X64980464Y-131023809D01*
X64980464Y-131023809D02*
X65230464Y-131023809D01*
X65230464Y-131023809D02*
X65373321Y-131047619D01*
X65373321Y-131047619D02*
X65444750Y-131095238D01*
X65444750Y-131095238D02*
X65480464Y-131142857D01*
X65480464Y-131142857D02*
X65480464Y-131238095D01*
X65480464Y-131238095D02*
X65444750Y-131285714D01*
X65444750Y-131285714D02*
X65373321Y-131333333D01*
X65373321Y-131333333D02*
X65230464Y-131357142D01*
X65230464Y-131357142D02*
X64980464Y-131357142D01*
X64980464Y-131357142D02*
X64837607Y-131333333D01*
X64837607Y-131333333D02*
X64766178Y-131285714D01*
X64766178Y-131285714D02*
X64730464Y-131238095D01*
X65480464Y-130571428D02*
X65480464Y-130809523D01*
X65480464Y-130809523D02*
X64730464Y-130809523D01*
X64980464Y-130190475D02*
X65480464Y-130190475D01*
X64694750Y-130309523D02*
X65230464Y-130428570D01*
X65230464Y-130428570D02*
X65230464Y-130119047D01*
X49581678Y-120656452D02*
X49545964Y-120704071D01*
X49545964Y-120704071D02*
X49545964Y-120775500D01*
X49545964Y-120775500D02*
X49581678Y-120846928D01*
X49581678Y-120846928D02*
X49653107Y-120894547D01*
X49653107Y-120894547D02*
X49724535Y-120918357D01*
X49724535Y-120918357D02*
X49867392Y-120942166D01*
X49867392Y-120942166D02*
X49974535Y-120942166D01*
X49974535Y-120942166D02*
X50117392Y-120918357D01*
X50117392Y-120918357D02*
X50188821Y-120894547D01*
X50188821Y-120894547D02*
X50260250Y-120846928D01*
X50260250Y-120846928D02*
X50295964Y-120775500D01*
X50295964Y-120775500D02*
X50295964Y-120727881D01*
X50295964Y-120727881D02*
X50260250Y-120656452D01*
X50260250Y-120656452D02*
X50224535Y-120632643D01*
X50224535Y-120632643D02*
X49974535Y-120632643D01*
X49974535Y-120632643D02*
X49974535Y-120727881D01*
X50295964Y-120418357D02*
X49545964Y-120418357D01*
X49545964Y-120418357D02*
X50295964Y-120132643D01*
X50295964Y-120132643D02*
X49545964Y-120132643D01*
X50295964Y-119894547D02*
X49545964Y-119894547D01*
X49545964Y-119894547D02*
X49545964Y-119775499D01*
X49545964Y-119775499D02*
X49581678Y-119704071D01*
X49581678Y-119704071D02*
X49653107Y-119656452D01*
X49653107Y-119656452D02*
X49724535Y-119632642D01*
X49724535Y-119632642D02*
X49867392Y-119608833D01*
X49867392Y-119608833D02*
X49974535Y-119608833D01*
X49974535Y-119608833D02*
X50117392Y-119632642D01*
X50117392Y-119632642D02*
X50188821Y-119656452D01*
X50188821Y-119656452D02*
X50260250Y-119704071D01*
X50260250Y-119704071D02*
X50295964Y-119775499D01*
X50295964Y-119775499D02*
X50295964Y-119894547D01*
X46978178Y-131580952D02*
X46942464Y-131628571D01*
X46942464Y-131628571D02*
X46942464Y-131700000D01*
X46942464Y-131700000D02*
X46978178Y-131771428D01*
X46978178Y-131771428D02*
X47049607Y-131819047D01*
X47049607Y-131819047D02*
X47121035Y-131842857D01*
X47121035Y-131842857D02*
X47263892Y-131866666D01*
X47263892Y-131866666D02*
X47371035Y-131866666D01*
X47371035Y-131866666D02*
X47513892Y-131842857D01*
X47513892Y-131842857D02*
X47585321Y-131819047D01*
X47585321Y-131819047D02*
X47656750Y-131771428D01*
X47656750Y-131771428D02*
X47692464Y-131700000D01*
X47692464Y-131700000D02*
X47692464Y-131652381D01*
X47692464Y-131652381D02*
X47656750Y-131580952D01*
X47656750Y-131580952D02*
X47621035Y-131557143D01*
X47621035Y-131557143D02*
X47371035Y-131557143D01*
X47371035Y-131557143D02*
X47371035Y-131652381D01*
X47692464Y-131342857D02*
X46942464Y-131342857D01*
X46942464Y-131342857D02*
X47692464Y-131057143D01*
X47692464Y-131057143D02*
X46942464Y-131057143D01*
X47692464Y-130819047D02*
X46942464Y-130819047D01*
X46942464Y-130819047D02*
X46942464Y-130699999D01*
X46942464Y-130699999D02*
X46978178Y-130628571D01*
X46978178Y-130628571D02*
X47049607Y-130580952D01*
X47049607Y-130580952D02*
X47121035Y-130557142D01*
X47121035Y-130557142D02*
X47263892Y-130533333D01*
X47263892Y-130533333D02*
X47371035Y-130533333D01*
X47371035Y-130533333D02*
X47513892Y-130557142D01*
X47513892Y-130557142D02*
X47585321Y-130580952D01*
X47585321Y-130580952D02*
X47656750Y-130628571D01*
X47656750Y-130628571D02*
X47692464Y-130699999D01*
X47692464Y-130699999D02*
X47692464Y-130819047D01*
X62909035Y-131547619D02*
X62944750Y-131571428D01*
X62944750Y-131571428D02*
X62980464Y-131642857D01*
X62980464Y-131642857D02*
X62980464Y-131690476D01*
X62980464Y-131690476D02*
X62944750Y-131761904D01*
X62944750Y-131761904D02*
X62873321Y-131809523D01*
X62873321Y-131809523D02*
X62801892Y-131833333D01*
X62801892Y-131833333D02*
X62659035Y-131857142D01*
X62659035Y-131857142D02*
X62551892Y-131857142D01*
X62551892Y-131857142D02*
X62409035Y-131833333D01*
X62409035Y-131833333D02*
X62337607Y-131809523D01*
X62337607Y-131809523D02*
X62266178Y-131761904D01*
X62266178Y-131761904D02*
X62230464Y-131690476D01*
X62230464Y-131690476D02*
X62230464Y-131642857D01*
X62230464Y-131642857D02*
X62266178Y-131571428D01*
X62266178Y-131571428D02*
X62301892Y-131547619D01*
X62230464Y-131238095D02*
X62230464Y-131142857D01*
X62230464Y-131142857D02*
X62266178Y-131095238D01*
X62266178Y-131095238D02*
X62337607Y-131047619D01*
X62337607Y-131047619D02*
X62480464Y-131023809D01*
X62480464Y-131023809D02*
X62730464Y-131023809D01*
X62730464Y-131023809D02*
X62873321Y-131047619D01*
X62873321Y-131047619D02*
X62944750Y-131095238D01*
X62944750Y-131095238D02*
X62980464Y-131142857D01*
X62980464Y-131142857D02*
X62980464Y-131238095D01*
X62980464Y-131238095D02*
X62944750Y-131285714D01*
X62944750Y-131285714D02*
X62873321Y-131333333D01*
X62873321Y-131333333D02*
X62730464Y-131357142D01*
X62730464Y-131357142D02*
X62480464Y-131357142D01*
X62480464Y-131357142D02*
X62337607Y-131333333D01*
X62337607Y-131333333D02*
X62266178Y-131285714D01*
X62266178Y-131285714D02*
X62230464Y-131238095D01*
X62980464Y-130571428D02*
X62980464Y-130809523D01*
X62980464Y-130809523D02*
X62230464Y-130809523D01*
X62230464Y-130452380D02*
X62230464Y-130142856D01*
X62230464Y-130142856D02*
X62516178Y-130309523D01*
X62516178Y-130309523D02*
X62516178Y-130238094D01*
X62516178Y-130238094D02*
X62551892Y-130190475D01*
X62551892Y-130190475D02*
X62587607Y-130166666D01*
X62587607Y-130166666D02*
X62659035Y-130142856D01*
X62659035Y-130142856D02*
X62837607Y-130142856D01*
X62837607Y-130142856D02*
X62909035Y-130166666D01*
X62909035Y-130166666D02*
X62944750Y-130190475D01*
X62944750Y-130190475D02*
X62980464Y-130238094D01*
X62980464Y-130238094D02*
X62980464Y-130380951D01*
X62980464Y-130380951D02*
X62944750Y-130428570D01*
X62944750Y-130428570D02*
X62909035Y-130452380D01*
X70544035Y-131547619D02*
X70579750Y-131571428D01*
X70579750Y-131571428D02*
X70615464Y-131642857D01*
X70615464Y-131642857D02*
X70615464Y-131690476D01*
X70615464Y-131690476D02*
X70579750Y-131761904D01*
X70579750Y-131761904D02*
X70508321Y-131809523D01*
X70508321Y-131809523D02*
X70436892Y-131833333D01*
X70436892Y-131833333D02*
X70294035Y-131857142D01*
X70294035Y-131857142D02*
X70186892Y-131857142D01*
X70186892Y-131857142D02*
X70044035Y-131833333D01*
X70044035Y-131833333D02*
X69972607Y-131809523D01*
X69972607Y-131809523D02*
X69901178Y-131761904D01*
X69901178Y-131761904D02*
X69865464Y-131690476D01*
X69865464Y-131690476D02*
X69865464Y-131642857D01*
X69865464Y-131642857D02*
X69901178Y-131571428D01*
X69901178Y-131571428D02*
X69936892Y-131547619D01*
X69865464Y-131238095D02*
X69865464Y-131142857D01*
X69865464Y-131142857D02*
X69901178Y-131095238D01*
X69901178Y-131095238D02*
X69972607Y-131047619D01*
X69972607Y-131047619D02*
X70115464Y-131023809D01*
X70115464Y-131023809D02*
X70365464Y-131023809D01*
X70365464Y-131023809D02*
X70508321Y-131047619D01*
X70508321Y-131047619D02*
X70579750Y-131095238D01*
X70579750Y-131095238D02*
X70615464Y-131142857D01*
X70615464Y-131142857D02*
X70615464Y-131238095D01*
X70615464Y-131238095D02*
X70579750Y-131285714D01*
X70579750Y-131285714D02*
X70508321Y-131333333D01*
X70508321Y-131333333D02*
X70365464Y-131357142D01*
X70365464Y-131357142D02*
X70115464Y-131357142D01*
X70115464Y-131357142D02*
X69972607Y-131333333D01*
X69972607Y-131333333D02*
X69901178Y-131285714D01*
X69901178Y-131285714D02*
X69865464Y-131238095D01*
X70615464Y-130571428D02*
X70615464Y-130809523D01*
X70615464Y-130809523D02*
X69865464Y-130809523D01*
X69865464Y-130190475D02*
X69865464Y-130285713D01*
X69865464Y-130285713D02*
X69901178Y-130333332D01*
X69901178Y-130333332D02*
X69936892Y-130357142D01*
X69936892Y-130357142D02*
X70044035Y-130404761D01*
X70044035Y-130404761D02*
X70186892Y-130428570D01*
X70186892Y-130428570D02*
X70472607Y-130428570D01*
X70472607Y-130428570D02*
X70544035Y-130404761D01*
X70544035Y-130404761D02*
X70579750Y-130380951D01*
X70579750Y-130380951D02*
X70615464Y-130333332D01*
X70615464Y-130333332D02*
X70615464Y-130238094D01*
X70615464Y-130238094D02*
X70579750Y-130190475D01*
X70579750Y-130190475D02*
X70544035Y-130166666D01*
X70544035Y-130166666D02*
X70472607Y-130142856D01*
X70472607Y-130142856D02*
X70294035Y-130142856D01*
X70294035Y-130142856D02*
X70222607Y-130166666D01*
X70222607Y-130166666D02*
X70186892Y-130190475D01*
X70186892Y-130190475D02*
X70151178Y-130238094D01*
X70151178Y-130238094D02*
X70151178Y-130333332D01*
X70151178Y-130333332D02*
X70186892Y-130380951D01*
X70186892Y-130380951D02*
X70222607Y-130404761D01*
X70222607Y-130404761D02*
X70294035Y-130428570D01*
X68004535Y-131547619D02*
X68040250Y-131571428D01*
X68040250Y-131571428D02*
X68075964Y-131642857D01*
X68075964Y-131642857D02*
X68075964Y-131690476D01*
X68075964Y-131690476D02*
X68040250Y-131761904D01*
X68040250Y-131761904D02*
X67968821Y-131809523D01*
X67968821Y-131809523D02*
X67897392Y-131833333D01*
X67897392Y-131833333D02*
X67754535Y-131857142D01*
X67754535Y-131857142D02*
X67647392Y-131857142D01*
X67647392Y-131857142D02*
X67504535Y-131833333D01*
X67504535Y-131833333D02*
X67433107Y-131809523D01*
X67433107Y-131809523D02*
X67361678Y-131761904D01*
X67361678Y-131761904D02*
X67325964Y-131690476D01*
X67325964Y-131690476D02*
X67325964Y-131642857D01*
X67325964Y-131642857D02*
X67361678Y-131571428D01*
X67361678Y-131571428D02*
X67397392Y-131547619D01*
X67325964Y-131238095D02*
X67325964Y-131142857D01*
X67325964Y-131142857D02*
X67361678Y-131095238D01*
X67361678Y-131095238D02*
X67433107Y-131047619D01*
X67433107Y-131047619D02*
X67575964Y-131023809D01*
X67575964Y-131023809D02*
X67825964Y-131023809D01*
X67825964Y-131023809D02*
X67968821Y-131047619D01*
X67968821Y-131047619D02*
X68040250Y-131095238D01*
X68040250Y-131095238D02*
X68075964Y-131142857D01*
X68075964Y-131142857D02*
X68075964Y-131238095D01*
X68075964Y-131238095D02*
X68040250Y-131285714D01*
X68040250Y-131285714D02*
X67968821Y-131333333D01*
X67968821Y-131333333D02*
X67825964Y-131357142D01*
X67825964Y-131357142D02*
X67575964Y-131357142D01*
X67575964Y-131357142D02*
X67433107Y-131333333D01*
X67433107Y-131333333D02*
X67361678Y-131285714D01*
X67361678Y-131285714D02*
X67325964Y-131238095D01*
X68075964Y-130571428D02*
X68075964Y-130809523D01*
X68075964Y-130809523D02*
X67325964Y-130809523D01*
X67325964Y-130166666D02*
X67325964Y-130404761D01*
X67325964Y-130404761D02*
X67683107Y-130428570D01*
X67683107Y-130428570D02*
X67647392Y-130404761D01*
X67647392Y-130404761D02*
X67611678Y-130357142D01*
X67611678Y-130357142D02*
X67611678Y-130238094D01*
X67611678Y-130238094D02*
X67647392Y-130190475D01*
X67647392Y-130190475D02*
X67683107Y-130166666D01*
X67683107Y-130166666D02*
X67754535Y-130142856D01*
X67754535Y-130142856D02*
X67933107Y-130142856D01*
X67933107Y-130142856D02*
X68004535Y-130166666D01*
X68004535Y-130166666D02*
X68040250Y-130190475D01*
X68040250Y-130190475D02*
X68075964Y-130238094D01*
X68075964Y-130238094D02*
X68075964Y-130357142D01*
X68075964Y-130357142D02*
X68040250Y-130404761D01*
X68040250Y-130404761D02*
X68004535Y-130428570D01*
X57781035Y-131547619D02*
X57816750Y-131571428D01*
X57816750Y-131571428D02*
X57852464Y-131642857D01*
X57852464Y-131642857D02*
X57852464Y-131690476D01*
X57852464Y-131690476D02*
X57816750Y-131761904D01*
X57816750Y-131761904D02*
X57745321Y-131809523D01*
X57745321Y-131809523D02*
X57673892Y-131833333D01*
X57673892Y-131833333D02*
X57531035Y-131857142D01*
X57531035Y-131857142D02*
X57423892Y-131857142D01*
X57423892Y-131857142D02*
X57281035Y-131833333D01*
X57281035Y-131833333D02*
X57209607Y-131809523D01*
X57209607Y-131809523D02*
X57138178Y-131761904D01*
X57138178Y-131761904D02*
X57102464Y-131690476D01*
X57102464Y-131690476D02*
X57102464Y-131642857D01*
X57102464Y-131642857D02*
X57138178Y-131571428D01*
X57138178Y-131571428D02*
X57173892Y-131547619D01*
X57102464Y-131238095D02*
X57102464Y-131142857D01*
X57102464Y-131142857D02*
X57138178Y-131095238D01*
X57138178Y-131095238D02*
X57209607Y-131047619D01*
X57209607Y-131047619D02*
X57352464Y-131023809D01*
X57352464Y-131023809D02*
X57602464Y-131023809D01*
X57602464Y-131023809D02*
X57745321Y-131047619D01*
X57745321Y-131047619D02*
X57816750Y-131095238D01*
X57816750Y-131095238D02*
X57852464Y-131142857D01*
X57852464Y-131142857D02*
X57852464Y-131238095D01*
X57852464Y-131238095D02*
X57816750Y-131285714D01*
X57816750Y-131285714D02*
X57745321Y-131333333D01*
X57745321Y-131333333D02*
X57602464Y-131357142D01*
X57602464Y-131357142D02*
X57352464Y-131357142D01*
X57352464Y-131357142D02*
X57209607Y-131333333D01*
X57209607Y-131333333D02*
X57138178Y-131285714D01*
X57138178Y-131285714D02*
X57102464Y-131238095D01*
X57852464Y-130571428D02*
X57852464Y-130809523D01*
X57852464Y-130809523D02*
X57102464Y-130809523D01*
X57852464Y-130142856D02*
X57852464Y-130428570D01*
X57852464Y-130285713D02*
X57102464Y-130285713D01*
X57102464Y-130285713D02*
X57209607Y-130333332D01*
X57209607Y-130333332D02*
X57281035Y-130380951D01*
X57281035Y-130380951D02*
X57316750Y-130428570D01*
X52121678Y-120719952D02*
X52085964Y-120767571D01*
X52085964Y-120767571D02*
X52085964Y-120839000D01*
X52085964Y-120839000D02*
X52121678Y-120910428D01*
X52121678Y-120910428D02*
X52193107Y-120958047D01*
X52193107Y-120958047D02*
X52264535Y-120981857D01*
X52264535Y-120981857D02*
X52407392Y-121005666D01*
X52407392Y-121005666D02*
X52514535Y-121005666D01*
X52514535Y-121005666D02*
X52657392Y-120981857D01*
X52657392Y-120981857D02*
X52728821Y-120958047D01*
X52728821Y-120958047D02*
X52800250Y-120910428D01*
X52800250Y-120910428D02*
X52835964Y-120839000D01*
X52835964Y-120839000D02*
X52835964Y-120791381D01*
X52835964Y-120791381D02*
X52800250Y-120719952D01*
X52800250Y-120719952D02*
X52764535Y-120696143D01*
X52764535Y-120696143D02*
X52514535Y-120696143D01*
X52514535Y-120696143D02*
X52514535Y-120791381D01*
X52835964Y-120481857D02*
X52085964Y-120481857D01*
X52085964Y-120481857D02*
X52835964Y-120196143D01*
X52835964Y-120196143D02*
X52085964Y-120196143D01*
X52835964Y-119958047D02*
X52085964Y-119958047D01*
X52085964Y-119958047D02*
X52085964Y-119838999D01*
X52085964Y-119838999D02*
X52121678Y-119767571D01*
X52121678Y-119767571D02*
X52193107Y-119719952D01*
X52193107Y-119719952D02*
X52264535Y-119696142D01*
X52264535Y-119696142D02*
X52407392Y-119672333D01*
X52407392Y-119672333D02*
X52514535Y-119672333D01*
X52514535Y-119672333D02*
X52657392Y-119696142D01*
X52657392Y-119696142D02*
X52728821Y-119719952D01*
X52728821Y-119719952D02*
X52800250Y-119767571D01*
X52800250Y-119767571D02*
X52835964Y-119838999D01*
X52835964Y-119838999D02*
X52835964Y-119958047D01*
X55276750Y-120946141D02*
X55312464Y-120874713D01*
X55312464Y-120874713D02*
X55312464Y-120755665D01*
X55312464Y-120755665D02*
X55276750Y-120708046D01*
X55276750Y-120708046D02*
X55241035Y-120684237D01*
X55241035Y-120684237D02*
X55169607Y-120660427D01*
X55169607Y-120660427D02*
X55098178Y-120660427D01*
X55098178Y-120660427D02*
X55026750Y-120684237D01*
X55026750Y-120684237D02*
X54991035Y-120708046D01*
X54991035Y-120708046D02*
X54955321Y-120755665D01*
X54955321Y-120755665D02*
X54919607Y-120850903D01*
X54919607Y-120850903D02*
X54883892Y-120898522D01*
X54883892Y-120898522D02*
X54848178Y-120922332D01*
X54848178Y-120922332D02*
X54776750Y-120946141D01*
X54776750Y-120946141D02*
X54705321Y-120946141D01*
X54705321Y-120946141D02*
X54633892Y-120922332D01*
X54633892Y-120922332D02*
X54598178Y-120898522D01*
X54598178Y-120898522D02*
X54562464Y-120850903D01*
X54562464Y-120850903D02*
X54562464Y-120731856D01*
X54562464Y-120731856D02*
X54598178Y-120660427D01*
X55312464Y-120446142D02*
X54562464Y-120446142D01*
X54562464Y-120446142D02*
X54562464Y-120327094D01*
X54562464Y-120327094D02*
X54598178Y-120255666D01*
X54598178Y-120255666D02*
X54669607Y-120208047D01*
X54669607Y-120208047D02*
X54741035Y-120184237D01*
X54741035Y-120184237D02*
X54883892Y-120160428D01*
X54883892Y-120160428D02*
X54991035Y-120160428D01*
X54991035Y-120160428D02*
X55133892Y-120184237D01*
X55133892Y-120184237D02*
X55205321Y-120208047D01*
X55205321Y-120208047D02*
X55276750Y-120255666D01*
X55276750Y-120255666D02*
X55312464Y-120327094D01*
X55312464Y-120327094D02*
X55312464Y-120446142D01*
X55098178Y-119969951D02*
X55098178Y-119731856D01*
X55312464Y-120017570D02*
X54562464Y-119850904D01*
X54562464Y-119850904D02*
X55312464Y-119684237D01*
X65480464Y-121230952D02*
X65123321Y-121397618D01*
X65480464Y-121516666D02*
X64730464Y-121516666D01*
X64730464Y-121516666D02*
X64730464Y-121326190D01*
X64730464Y-121326190D02*
X64766178Y-121278571D01*
X64766178Y-121278571D02*
X64801892Y-121254761D01*
X64801892Y-121254761D02*
X64873321Y-121230952D01*
X64873321Y-121230952D02*
X64980464Y-121230952D01*
X64980464Y-121230952D02*
X65051892Y-121254761D01*
X65051892Y-121254761D02*
X65087607Y-121278571D01*
X65087607Y-121278571D02*
X65123321Y-121326190D01*
X65123321Y-121326190D02*
X65123321Y-121516666D01*
X64730464Y-120921428D02*
X64730464Y-120826190D01*
X64730464Y-120826190D02*
X64766178Y-120778571D01*
X64766178Y-120778571D02*
X64837607Y-120730952D01*
X64837607Y-120730952D02*
X64980464Y-120707142D01*
X64980464Y-120707142D02*
X65230464Y-120707142D01*
X65230464Y-120707142D02*
X65373321Y-120730952D01*
X65373321Y-120730952D02*
X65444750Y-120778571D01*
X65444750Y-120778571D02*
X65480464Y-120826190D01*
X65480464Y-120826190D02*
X65480464Y-120921428D01*
X65480464Y-120921428D02*
X65444750Y-120969047D01*
X65444750Y-120969047D02*
X65373321Y-121016666D01*
X65373321Y-121016666D02*
X65230464Y-121040475D01*
X65230464Y-121040475D02*
X64980464Y-121040475D01*
X64980464Y-121040475D02*
X64837607Y-121016666D01*
X64837607Y-121016666D02*
X64766178Y-120969047D01*
X64766178Y-120969047D02*
X64730464Y-120921428D01*
X64730464Y-120540475D02*
X65480464Y-120421427D01*
X65480464Y-120421427D02*
X64944750Y-120326189D01*
X64944750Y-120326189D02*
X65480464Y-120230951D01*
X65480464Y-120230951D02*
X64730464Y-120111904D01*
X64801892Y-119945236D02*
X64766178Y-119921427D01*
X64766178Y-119921427D02*
X64730464Y-119873808D01*
X64730464Y-119873808D02*
X64730464Y-119754760D01*
X64730464Y-119754760D02*
X64766178Y-119707141D01*
X64766178Y-119707141D02*
X64801892Y-119683332D01*
X64801892Y-119683332D02*
X64873321Y-119659522D01*
X64873321Y-119659522D02*
X64944750Y-119659522D01*
X64944750Y-119659522D02*
X65051892Y-119683332D01*
X65051892Y-119683332D02*
X65480464Y-119969046D01*
X65480464Y-119969046D02*
X65480464Y-119659522D01*
X57816750Y-120934237D02*
X57852464Y-120862809D01*
X57852464Y-120862809D02*
X57852464Y-120743761D01*
X57852464Y-120743761D02*
X57816750Y-120696142D01*
X57816750Y-120696142D02*
X57781035Y-120672333D01*
X57781035Y-120672333D02*
X57709607Y-120648523D01*
X57709607Y-120648523D02*
X57638178Y-120648523D01*
X57638178Y-120648523D02*
X57566750Y-120672333D01*
X57566750Y-120672333D02*
X57531035Y-120696142D01*
X57531035Y-120696142D02*
X57495321Y-120743761D01*
X57495321Y-120743761D02*
X57459607Y-120838999D01*
X57459607Y-120838999D02*
X57423892Y-120886618D01*
X57423892Y-120886618D02*
X57388178Y-120910428D01*
X57388178Y-120910428D02*
X57316750Y-120934237D01*
X57316750Y-120934237D02*
X57245321Y-120934237D01*
X57245321Y-120934237D02*
X57173892Y-120910428D01*
X57173892Y-120910428D02*
X57138178Y-120886618D01*
X57138178Y-120886618D02*
X57102464Y-120838999D01*
X57102464Y-120838999D02*
X57102464Y-120719952D01*
X57102464Y-120719952D02*
X57138178Y-120648523D01*
X57781035Y-120148524D02*
X57816750Y-120172333D01*
X57816750Y-120172333D02*
X57852464Y-120243762D01*
X57852464Y-120243762D02*
X57852464Y-120291381D01*
X57852464Y-120291381D02*
X57816750Y-120362809D01*
X57816750Y-120362809D02*
X57745321Y-120410428D01*
X57745321Y-120410428D02*
X57673892Y-120434238D01*
X57673892Y-120434238D02*
X57531035Y-120458047D01*
X57531035Y-120458047D02*
X57423892Y-120458047D01*
X57423892Y-120458047D02*
X57281035Y-120434238D01*
X57281035Y-120434238D02*
X57209607Y-120410428D01*
X57209607Y-120410428D02*
X57138178Y-120362809D01*
X57138178Y-120362809D02*
X57102464Y-120291381D01*
X57102464Y-120291381D02*
X57102464Y-120243762D01*
X57102464Y-120243762D02*
X57138178Y-120172333D01*
X57138178Y-120172333D02*
X57173892Y-120148524D01*
X57852464Y-119696143D02*
X57852464Y-119934238D01*
X57852464Y-119934238D02*
X57102464Y-119934238D01*
X68075964Y-121230952D02*
X67718821Y-121397618D01*
X68075964Y-121516666D02*
X67325964Y-121516666D01*
X67325964Y-121516666D02*
X67325964Y-121326190D01*
X67325964Y-121326190D02*
X67361678Y-121278571D01*
X67361678Y-121278571D02*
X67397392Y-121254761D01*
X67397392Y-121254761D02*
X67468821Y-121230952D01*
X67468821Y-121230952D02*
X67575964Y-121230952D01*
X67575964Y-121230952D02*
X67647392Y-121254761D01*
X67647392Y-121254761D02*
X67683107Y-121278571D01*
X67683107Y-121278571D02*
X67718821Y-121326190D01*
X67718821Y-121326190D02*
X67718821Y-121516666D01*
X67325964Y-120921428D02*
X67325964Y-120826190D01*
X67325964Y-120826190D02*
X67361678Y-120778571D01*
X67361678Y-120778571D02*
X67433107Y-120730952D01*
X67433107Y-120730952D02*
X67575964Y-120707142D01*
X67575964Y-120707142D02*
X67825964Y-120707142D01*
X67825964Y-120707142D02*
X67968821Y-120730952D01*
X67968821Y-120730952D02*
X68040250Y-120778571D01*
X68040250Y-120778571D02*
X68075964Y-120826190D01*
X68075964Y-120826190D02*
X68075964Y-120921428D01*
X68075964Y-120921428D02*
X68040250Y-120969047D01*
X68040250Y-120969047D02*
X67968821Y-121016666D01*
X67968821Y-121016666D02*
X67825964Y-121040475D01*
X67825964Y-121040475D02*
X67575964Y-121040475D01*
X67575964Y-121040475D02*
X67433107Y-121016666D01*
X67433107Y-121016666D02*
X67361678Y-120969047D01*
X67361678Y-120969047D02*
X67325964Y-120921428D01*
X67325964Y-120540475D02*
X68075964Y-120421427D01*
X68075964Y-120421427D02*
X67540250Y-120326189D01*
X67540250Y-120326189D02*
X68075964Y-120230951D01*
X68075964Y-120230951D02*
X67325964Y-120111904D01*
X67325964Y-119969046D02*
X67325964Y-119659522D01*
X67325964Y-119659522D02*
X67611678Y-119826189D01*
X67611678Y-119826189D02*
X67611678Y-119754760D01*
X67611678Y-119754760D02*
X67647392Y-119707141D01*
X67647392Y-119707141D02*
X67683107Y-119683332D01*
X67683107Y-119683332D02*
X67754535Y-119659522D01*
X67754535Y-119659522D02*
X67933107Y-119659522D01*
X67933107Y-119659522D02*
X68004535Y-119683332D01*
X68004535Y-119683332D02*
X68040250Y-119707141D01*
X68040250Y-119707141D02*
X68075964Y-119754760D01*
X68075964Y-119754760D02*
X68075964Y-119897617D01*
X68075964Y-119897617D02*
X68040250Y-119945236D01*
X68040250Y-119945236D02*
X68004535Y-119969046D01*
X50295964Y-131573809D02*
X49938821Y-131740475D01*
X50295964Y-131859523D02*
X49545964Y-131859523D01*
X49545964Y-131859523D02*
X49545964Y-131669047D01*
X49545964Y-131669047D02*
X49581678Y-131621428D01*
X49581678Y-131621428D02*
X49617392Y-131597618D01*
X49617392Y-131597618D02*
X49688821Y-131573809D01*
X49688821Y-131573809D02*
X49795964Y-131573809D01*
X49795964Y-131573809D02*
X49867392Y-131597618D01*
X49867392Y-131597618D02*
X49903107Y-131621428D01*
X49903107Y-131621428D02*
X49938821Y-131669047D01*
X49938821Y-131669047D02*
X49938821Y-131859523D01*
X50260250Y-131383332D02*
X50295964Y-131311904D01*
X50295964Y-131311904D02*
X50295964Y-131192856D01*
X50295964Y-131192856D02*
X50260250Y-131145237D01*
X50260250Y-131145237D02*
X50224535Y-131121428D01*
X50224535Y-131121428D02*
X50153107Y-131097618D01*
X50153107Y-131097618D02*
X50081678Y-131097618D01*
X50081678Y-131097618D02*
X50010250Y-131121428D01*
X50010250Y-131121428D02*
X49974535Y-131145237D01*
X49974535Y-131145237D02*
X49938821Y-131192856D01*
X49938821Y-131192856D02*
X49903107Y-131288094D01*
X49903107Y-131288094D02*
X49867392Y-131335713D01*
X49867392Y-131335713D02*
X49831678Y-131359523D01*
X49831678Y-131359523D02*
X49760250Y-131383332D01*
X49760250Y-131383332D02*
X49688821Y-131383332D01*
X49688821Y-131383332D02*
X49617392Y-131359523D01*
X49617392Y-131359523D02*
X49581678Y-131335713D01*
X49581678Y-131335713D02*
X49545964Y-131288094D01*
X49545964Y-131288094D02*
X49545964Y-131169047D01*
X49545964Y-131169047D02*
X49581678Y-131097618D01*
X49545964Y-130954761D02*
X49545964Y-130669047D01*
X50295964Y-130811904D02*
X49545964Y-130811904D01*
X52022464Y-131866665D02*
X52772464Y-131699999D01*
X52772464Y-131699999D02*
X52022464Y-131533332D01*
X52701035Y-131080952D02*
X52736750Y-131104761D01*
X52736750Y-131104761D02*
X52772464Y-131176190D01*
X52772464Y-131176190D02*
X52772464Y-131223809D01*
X52772464Y-131223809D02*
X52736750Y-131295237D01*
X52736750Y-131295237D02*
X52665321Y-131342856D01*
X52665321Y-131342856D02*
X52593892Y-131366666D01*
X52593892Y-131366666D02*
X52451035Y-131390475D01*
X52451035Y-131390475D02*
X52343892Y-131390475D01*
X52343892Y-131390475D02*
X52201035Y-131366666D01*
X52201035Y-131366666D02*
X52129607Y-131342856D01*
X52129607Y-131342856D02*
X52058178Y-131295237D01*
X52058178Y-131295237D02*
X52022464Y-131223809D01*
X52022464Y-131223809D02*
X52022464Y-131176190D01*
X52022464Y-131176190D02*
X52058178Y-131104761D01*
X52058178Y-131104761D02*
X52093892Y-131080952D01*
X52701035Y-130580952D02*
X52736750Y-130604761D01*
X52736750Y-130604761D02*
X52772464Y-130676190D01*
X52772464Y-130676190D02*
X52772464Y-130723809D01*
X52772464Y-130723809D02*
X52736750Y-130795237D01*
X52736750Y-130795237D02*
X52665321Y-130842856D01*
X52665321Y-130842856D02*
X52593892Y-130866666D01*
X52593892Y-130866666D02*
X52451035Y-130890475D01*
X52451035Y-130890475D02*
X52343892Y-130890475D01*
X52343892Y-130890475D02*
X52201035Y-130866666D01*
X52201035Y-130866666D02*
X52129607Y-130842856D01*
X52129607Y-130842856D02*
X52058178Y-130795237D01*
X52058178Y-130795237D02*
X52022464Y-130723809D01*
X52022464Y-130723809D02*
X52022464Y-130676190D01*
X52022464Y-130676190D02*
X52058178Y-130604761D01*
X52058178Y-130604761D02*
X52093892Y-130580952D01*
X60430464Y-121230952D02*
X60073321Y-121397618D01*
X60430464Y-121516666D02*
X59680464Y-121516666D01*
X59680464Y-121516666D02*
X59680464Y-121326190D01*
X59680464Y-121326190D02*
X59716178Y-121278571D01*
X59716178Y-121278571D02*
X59751892Y-121254761D01*
X59751892Y-121254761D02*
X59823321Y-121230952D01*
X59823321Y-121230952D02*
X59930464Y-121230952D01*
X59930464Y-121230952D02*
X60001892Y-121254761D01*
X60001892Y-121254761D02*
X60037607Y-121278571D01*
X60037607Y-121278571D02*
X60073321Y-121326190D01*
X60073321Y-121326190D02*
X60073321Y-121516666D01*
X59680464Y-120921428D02*
X59680464Y-120826190D01*
X59680464Y-120826190D02*
X59716178Y-120778571D01*
X59716178Y-120778571D02*
X59787607Y-120730952D01*
X59787607Y-120730952D02*
X59930464Y-120707142D01*
X59930464Y-120707142D02*
X60180464Y-120707142D01*
X60180464Y-120707142D02*
X60323321Y-120730952D01*
X60323321Y-120730952D02*
X60394750Y-120778571D01*
X60394750Y-120778571D02*
X60430464Y-120826190D01*
X60430464Y-120826190D02*
X60430464Y-120921428D01*
X60430464Y-120921428D02*
X60394750Y-120969047D01*
X60394750Y-120969047D02*
X60323321Y-121016666D01*
X60323321Y-121016666D02*
X60180464Y-121040475D01*
X60180464Y-121040475D02*
X59930464Y-121040475D01*
X59930464Y-121040475D02*
X59787607Y-121016666D01*
X59787607Y-121016666D02*
X59716178Y-120969047D01*
X59716178Y-120969047D02*
X59680464Y-120921428D01*
X59680464Y-120540475D02*
X60430464Y-120421427D01*
X60430464Y-120421427D02*
X59894750Y-120326189D01*
X59894750Y-120326189D02*
X60430464Y-120230951D01*
X60430464Y-120230951D02*
X59680464Y-120111904D01*
X59680464Y-119826189D02*
X59680464Y-119778570D01*
X59680464Y-119778570D02*
X59716178Y-119730951D01*
X59716178Y-119730951D02*
X59751892Y-119707141D01*
X59751892Y-119707141D02*
X59823321Y-119683332D01*
X59823321Y-119683332D02*
X59966178Y-119659522D01*
X59966178Y-119659522D02*
X60144750Y-119659522D01*
X60144750Y-119659522D02*
X60287607Y-119683332D01*
X60287607Y-119683332D02*
X60359035Y-119707141D01*
X60359035Y-119707141D02*
X60394750Y-119730951D01*
X60394750Y-119730951D02*
X60430464Y-119778570D01*
X60430464Y-119778570D02*
X60430464Y-119826189D01*
X60430464Y-119826189D02*
X60394750Y-119873808D01*
X60394750Y-119873808D02*
X60359035Y-119897617D01*
X60359035Y-119897617D02*
X60287607Y-119921427D01*
X60287607Y-119921427D02*
X60144750Y-119945236D01*
X60144750Y-119945236D02*
X59966178Y-119945236D01*
X59966178Y-119945236D02*
X59823321Y-119921427D01*
X59823321Y-119921427D02*
X59751892Y-119897617D01*
X59751892Y-119897617D02*
X59716178Y-119873808D01*
X59716178Y-119873808D02*
X59680464Y-119826189D01*
X62932464Y-121180952D02*
X62575321Y-121347618D01*
X62932464Y-121466666D02*
X62182464Y-121466666D01*
X62182464Y-121466666D02*
X62182464Y-121276190D01*
X62182464Y-121276190D02*
X62218178Y-121228571D01*
X62218178Y-121228571D02*
X62253892Y-121204761D01*
X62253892Y-121204761D02*
X62325321Y-121180952D01*
X62325321Y-121180952D02*
X62432464Y-121180952D01*
X62432464Y-121180952D02*
X62503892Y-121204761D01*
X62503892Y-121204761D02*
X62539607Y-121228571D01*
X62539607Y-121228571D02*
X62575321Y-121276190D01*
X62575321Y-121276190D02*
X62575321Y-121466666D01*
X62182464Y-120871428D02*
X62182464Y-120776190D01*
X62182464Y-120776190D02*
X62218178Y-120728571D01*
X62218178Y-120728571D02*
X62289607Y-120680952D01*
X62289607Y-120680952D02*
X62432464Y-120657142D01*
X62432464Y-120657142D02*
X62682464Y-120657142D01*
X62682464Y-120657142D02*
X62825321Y-120680952D01*
X62825321Y-120680952D02*
X62896750Y-120728571D01*
X62896750Y-120728571D02*
X62932464Y-120776190D01*
X62932464Y-120776190D02*
X62932464Y-120871428D01*
X62932464Y-120871428D02*
X62896750Y-120919047D01*
X62896750Y-120919047D02*
X62825321Y-120966666D01*
X62825321Y-120966666D02*
X62682464Y-120990475D01*
X62682464Y-120990475D02*
X62432464Y-120990475D01*
X62432464Y-120990475D02*
X62289607Y-120966666D01*
X62289607Y-120966666D02*
X62218178Y-120919047D01*
X62218178Y-120919047D02*
X62182464Y-120871428D01*
X62182464Y-120490475D02*
X62932464Y-120371427D01*
X62932464Y-120371427D02*
X62396750Y-120276189D01*
X62396750Y-120276189D02*
X62932464Y-120180951D01*
X62932464Y-120180951D02*
X62182464Y-120061904D01*
X62932464Y-119609522D02*
X62932464Y-119895236D01*
X62932464Y-119752379D02*
X62182464Y-119752379D01*
X62182464Y-119752379D02*
X62289607Y-119799998D01*
X62289607Y-119799998D02*
X62361035Y-119847617D01*
X62361035Y-119847617D02*
X62396750Y-119895236D01*
D11*
X48666667Y-78457200D02*
X48809524Y-78504819D01*
X48809524Y-78504819D02*
X49047619Y-78504819D01*
X49047619Y-78504819D02*
X49142857Y-78457200D01*
X49142857Y-78457200D02*
X49190476Y-78409580D01*
X49190476Y-78409580D02*
X49238095Y-78314342D01*
X49238095Y-78314342D02*
X49238095Y-78219104D01*
X49238095Y-78219104D02*
X49190476Y-78123866D01*
X49190476Y-78123866D02*
X49142857Y-78076247D01*
X49142857Y-78076247D02*
X49047619Y-78028628D01*
X49047619Y-78028628D02*
X48857143Y-77981009D01*
X48857143Y-77981009D02*
X48761905Y-77933390D01*
X48761905Y-77933390D02*
X48714286Y-77885771D01*
X48714286Y-77885771D02*
X48666667Y-77790533D01*
X48666667Y-77790533D02*
X48666667Y-77695295D01*
X48666667Y-77695295D02*
X48714286Y-77600057D01*
X48714286Y-77600057D02*
X48761905Y-77552438D01*
X48761905Y-77552438D02*
X48857143Y-77504819D01*
X48857143Y-77504819D02*
X49095238Y-77504819D01*
X49095238Y-77504819D02*
X49238095Y-77552438D01*
X49571429Y-77504819D02*
X49809524Y-78504819D01*
X49809524Y-78504819D02*
X50000000Y-77790533D01*
X50000000Y-77790533D02*
X50190476Y-78504819D01*
X50190476Y-78504819D02*
X50428572Y-77504819D01*
X50761905Y-77600057D02*
X50809524Y-77552438D01*
X50809524Y-77552438D02*
X50904762Y-77504819D01*
X50904762Y-77504819D02*
X51142857Y-77504819D01*
X51142857Y-77504819D02*
X51238095Y-77552438D01*
X51238095Y-77552438D02*
X51285714Y-77600057D01*
X51285714Y-77600057D02*
X51333333Y-77695295D01*
X51333333Y-77695295D02*
X51333333Y-77790533D01*
X51333333Y-77790533D02*
X51285714Y-77933390D01*
X51285714Y-77933390D02*
X50714286Y-78504819D01*
X50714286Y-78504819D02*
X51333333Y-78504819D01*
X48666667Y-97507200D02*
X48809524Y-97554819D01*
X48809524Y-97554819D02*
X49047619Y-97554819D01*
X49047619Y-97554819D02*
X49142857Y-97507200D01*
X49142857Y-97507200D02*
X49190476Y-97459580D01*
X49190476Y-97459580D02*
X49238095Y-97364342D01*
X49238095Y-97364342D02*
X49238095Y-97269104D01*
X49238095Y-97269104D02*
X49190476Y-97173866D01*
X49190476Y-97173866D02*
X49142857Y-97126247D01*
X49142857Y-97126247D02*
X49047619Y-97078628D01*
X49047619Y-97078628D02*
X48857143Y-97031009D01*
X48857143Y-97031009D02*
X48761905Y-96983390D01*
X48761905Y-96983390D02*
X48714286Y-96935771D01*
X48714286Y-96935771D02*
X48666667Y-96840533D01*
X48666667Y-96840533D02*
X48666667Y-96745295D01*
X48666667Y-96745295D02*
X48714286Y-96650057D01*
X48714286Y-96650057D02*
X48761905Y-96602438D01*
X48761905Y-96602438D02*
X48857143Y-96554819D01*
X48857143Y-96554819D02*
X49095238Y-96554819D01*
X49095238Y-96554819D02*
X49238095Y-96602438D01*
X49571429Y-96554819D02*
X49809524Y-97554819D01*
X49809524Y-97554819D02*
X50000000Y-96840533D01*
X50000000Y-96840533D02*
X50190476Y-97554819D01*
X50190476Y-97554819D02*
X50428572Y-96554819D01*
X50714286Y-96554819D02*
X51333333Y-96554819D01*
X51333333Y-96554819D02*
X51000000Y-96935771D01*
X51000000Y-96935771D02*
X51142857Y-96935771D01*
X51142857Y-96935771D02*
X51238095Y-96983390D01*
X51238095Y-96983390D02*
X51285714Y-97031009D01*
X51285714Y-97031009D02*
X51333333Y-97126247D01*
X51333333Y-97126247D02*
X51333333Y-97364342D01*
X51333333Y-97364342D02*
X51285714Y-97459580D01*
X51285714Y-97459580D02*
X51238095Y-97507200D01*
X51238095Y-97507200D02*
X51142857Y-97554819D01*
X51142857Y-97554819D02*
X50857143Y-97554819D01*
X50857143Y-97554819D02*
X50761905Y-97507200D01*
X50761905Y-97507200D02*
X50714286Y-97459580D01*
X48666667Y-116557200D02*
X48809524Y-116604819D01*
X48809524Y-116604819D02*
X49047619Y-116604819D01*
X49047619Y-116604819D02*
X49142857Y-116557200D01*
X49142857Y-116557200D02*
X49190476Y-116509580D01*
X49190476Y-116509580D02*
X49238095Y-116414342D01*
X49238095Y-116414342D02*
X49238095Y-116319104D01*
X49238095Y-116319104D02*
X49190476Y-116223866D01*
X49190476Y-116223866D02*
X49142857Y-116176247D01*
X49142857Y-116176247D02*
X49047619Y-116128628D01*
X49047619Y-116128628D02*
X48857143Y-116081009D01*
X48857143Y-116081009D02*
X48761905Y-116033390D01*
X48761905Y-116033390D02*
X48714286Y-115985771D01*
X48714286Y-115985771D02*
X48666667Y-115890533D01*
X48666667Y-115890533D02*
X48666667Y-115795295D01*
X48666667Y-115795295D02*
X48714286Y-115700057D01*
X48714286Y-115700057D02*
X48761905Y-115652438D01*
X48761905Y-115652438D02*
X48857143Y-115604819D01*
X48857143Y-115604819D02*
X49095238Y-115604819D01*
X49095238Y-115604819D02*
X49238095Y-115652438D01*
X49571429Y-115604819D02*
X49809524Y-116604819D01*
X49809524Y-116604819D02*
X50000000Y-115890533D01*
X50000000Y-115890533D02*
X50190476Y-116604819D01*
X50190476Y-116604819D02*
X50428572Y-115604819D01*
X51238095Y-115938152D02*
X51238095Y-116604819D01*
X51000000Y-115557200D02*
X50761905Y-116271485D01*
X50761905Y-116271485D02*
X51380952Y-116271485D01*
X67716667Y-78457200D02*
X67859524Y-78504819D01*
X67859524Y-78504819D02*
X68097619Y-78504819D01*
X68097619Y-78504819D02*
X68192857Y-78457200D01*
X68192857Y-78457200D02*
X68240476Y-78409580D01*
X68240476Y-78409580D02*
X68288095Y-78314342D01*
X68288095Y-78314342D02*
X68288095Y-78219104D01*
X68288095Y-78219104D02*
X68240476Y-78123866D01*
X68240476Y-78123866D02*
X68192857Y-78076247D01*
X68192857Y-78076247D02*
X68097619Y-78028628D01*
X68097619Y-78028628D02*
X67907143Y-77981009D01*
X67907143Y-77981009D02*
X67811905Y-77933390D01*
X67811905Y-77933390D02*
X67764286Y-77885771D01*
X67764286Y-77885771D02*
X67716667Y-77790533D01*
X67716667Y-77790533D02*
X67716667Y-77695295D01*
X67716667Y-77695295D02*
X67764286Y-77600057D01*
X67764286Y-77600057D02*
X67811905Y-77552438D01*
X67811905Y-77552438D02*
X67907143Y-77504819D01*
X67907143Y-77504819D02*
X68145238Y-77504819D01*
X68145238Y-77504819D02*
X68288095Y-77552438D01*
X68621429Y-77504819D02*
X68859524Y-78504819D01*
X68859524Y-78504819D02*
X69050000Y-77790533D01*
X69050000Y-77790533D02*
X69240476Y-78504819D01*
X69240476Y-78504819D02*
X69478572Y-77504819D01*
X70335714Y-77504819D02*
X69859524Y-77504819D01*
X69859524Y-77504819D02*
X69811905Y-77981009D01*
X69811905Y-77981009D02*
X69859524Y-77933390D01*
X69859524Y-77933390D02*
X69954762Y-77885771D01*
X69954762Y-77885771D02*
X70192857Y-77885771D01*
X70192857Y-77885771D02*
X70288095Y-77933390D01*
X70288095Y-77933390D02*
X70335714Y-77981009D01*
X70335714Y-77981009D02*
X70383333Y-78076247D01*
X70383333Y-78076247D02*
X70383333Y-78314342D01*
X70383333Y-78314342D02*
X70335714Y-78409580D01*
X70335714Y-78409580D02*
X70288095Y-78457200D01*
X70288095Y-78457200D02*
X70192857Y-78504819D01*
X70192857Y-78504819D02*
X69954762Y-78504819D01*
X69954762Y-78504819D02*
X69859524Y-78457200D01*
X69859524Y-78457200D02*
X69811905Y-78409580D01*
X67716667Y-97507200D02*
X67859524Y-97554819D01*
X67859524Y-97554819D02*
X68097619Y-97554819D01*
X68097619Y-97554819D02*
X68192857Y-97507200D01*
X68192857Y-97507200D02*
X68240476Y-97459580D01*
X68240476Y-97459580D02*
X68288095Y-97364342D01*
X68288095Y-97364342D02*
X68288095Y-97269104D01*
X68288095Y-97269104D02*
X68240476Y-97173866D01*
X68240476Y-97173866D02*
X68192857Y-97126247D01*
X68192857Y-97126247D02*
X68097619Y-97078628D01*
X68097619Y-97078628D02*
X67907143Y-97031009D01*
X67907143Y-97031009D02*
X67811905Y-96983390D01*
X67811905Y-96983390D02*
X67764286Y-96935771D01*
X67764286Y-96935771D02*
X67716667Y-96840533D01*
X67716667Y-96840533D02*
X67716667Y-96745295D01*
X67716667Y-96745295D02*
X67764286Y-96650057D01*
X67764286Y-96650057D02*
X67811905Y-96602438D01*
X67811905Y-96602438D02*
X67907143Y-96554819D01*
X67907143Y-96554819D02*
X68145238Y-96554819D01*
X68145238Y-96554819D02*
X68288095Y-96602438D01*
X68621429Y-96554819D02*
X68859524Y-97554819D01*
X68859524Y-97554819D02*
X69050000Y-96840533D01*
X69050000Y-96840533D02*
X69240476Y-97554819D01*
X69240476Y-97554819D02*
X69478572Y-96554819D01*
X70288095Y-96554819D02*
X70097619Y-96554819D01*
X70097619Y-96554819D02*
X70002381Y-96602438D01*
X70002381Y-96602438D02*
X69954762Y-96650057D01*
X69954762Y-96650057D02*
X69859524Y-96792914D01*
X69859524Y-96792914D02*
X69811905Y-96983390D01*
X69811905Y-96983390D02*
X69811905Y-97364342D01*
X69811905Y-97364342D02*
X69859524Y-97459580D01*
X69859524Y-97459580D02*
X69907143Y-97507200D01*
X69907143Y-97507200D02*
X70002381Y-97554819D01*
X70002381Y-97554819D02*
X70192857Y-97554819D01*
X70192857Y-97554819D02*
X70288095Y-97507200D01*
X70288095Y-97507200D02*
X70335714Y-97459580D01*
X70335714Y-97459580D02*
X70383333Y-97364342D01*
X70383333Y-97364342D02*
X70383333Y-97126247D01*
X70383333Y-97126247D02*
X70335714Y-97031009D01*
X70335714Y-97031009D02*
X70288095Y-96983390D01*
X70288095Y-96983390D02*
X70192857Y-96935771D01*
X70192857Y-96935771D02*
X70002381Y-96935771D01*
X70002381Y-96935771D02*
X69907143Y-96983390D01*
X69907143Y-96983390D02*
X69859524Y-97031009D01*
X69859524Y-97031009D02*
X69811905Y-97126247D01*
X67716667Y-116557200D02*
X67859524Y-116604819D01*
X67859524Y-116604819D02*
X68097619Y-116604819D01*
X68097619Y-116604819D02*
X68192857Y-116557200D01*
X68192857Y-116557200D02*
X68240476Y-116509580D01*
X68240476Y-116509580D02*
X68288095Y-116414342D01*
X68288095Y-116414342D02*
X68288095Y-116319104D01*
X68288095Y-116319104D02*
X68240476Y-116223866D01*
X68240476Y-116223866D02*
X68192857Y-116176247D01*
X68192857Y-116176247D02*
X68097619Y-116128628D01*
X68097619Y-116128628D02*
X67907143Y-116081009D01*
X67907143Y-116081009D02*
X67811905Y-116033390D01*
X67811905Y-116033390D02*
X67764286Y-115985771D01*
X67764286Y-115985771D02*
X67716667Y-115890533D01*
X67716667Y-115890533D02*
X67716667Y-115795295D01*
X67716667Y-115795295D02*
X67764286Y-115700057D01*
X67764286Y-115700057D02*
X67811905Y-115652438D01*
X67811905Y-115652438D02*
X67907143Y-115604819D01*
X67907143Y-115604819D02*
X68145238Y-115604819D01*
X68145238Y-115604819D02*
X68288095Y-115652438D01*
X68621429Y-115604819D02*
X68859524Y-116604819D01*
X68859524Y-116604819D02*
X69050000Y-115890533D01*
X69050000Y-115890533D02*
X69240476Y-116604819D01*
X69240476Y-116604819D02*
X69478572Y-115604819D01*
X69764286Y-115604819D02*
X70430952Y-115604819D01*
X70430952Y-115604819D02*
X70002381Y-116604819D01*
X86767199Y-77993388D02*
X86910056Y-78041007D01*
X86910056Y-78041007D02*
X87148151Y-78041007D01*
X87148151Y-78041007D02*
X87243389Y-77993388D01*
X87243389Y-77993388D02*
X87291008Y-77945768D01*
X87291008Y-77945768D02*
X87338627Y-77850530D01*
X87338627Y-77850530D02*
X87338627Y-77755292D01*
X87338627Y-77755292D02*
X87291008Y-77660054D01*
X87291008Y-77660054D02*
X87243389Y-77612435D01*
X87243389Y-77612435D02*
X87148151Y-77564816D01*
X87148151Y-77564816D02*
X86957675Y-77517197D01*
X86957675Y-77517197D02*
X86862437Y-77469578D01*
X86862437Y-77469578D02*
X86814818Y-77421959D01*
X86814818Y-77421959D02*
X86767199Y-77326721D01*
X86767199Y-77326721D02*
X86767199Y-77231483D01*
X86767199Y-77231483D02*
X86814818Y-77136245D01*
X86814818Y-77136245D02*
X86862437Y-77088626D01*
X86862437Y-77088626D02*
X86957675Y-77041007D01*
X86957675Y-77041007D02*
X87195770Y-77041007D01*
X87195770Y-77041007D02*
X87338627Y-77088626D01*
X87671961Y-77041007D02*
X87910056Y-78041007D01*
X87910056Y-78041007D02*
X88100532Y-77326721D01*
X88100532Y-77326721D02*
X88291008Y-78041007D01*
X88291008Y-78041007D02*
X88529104Y-77041007D01*
X89052913Y-77469578D02*
X88957675Y-77421959D01*
X88957675Y-77421959D02*
X88910056Y-77374340D01*
X88910056Y-77374340D02*
X88862437Y-77279102D01*
X88862437Y-77279102D02*
X88862437Y-77231483D01*
X88862437Y-77231483D02*
X88910056Y-77136245D01*
X88910056Y-77136245D02*
X88957675Y-77088626D01*
X88957675Y-77088626D02*
X89052913Y-77041007D01*
X89052913Y-77041007D02*
X89243389Y-77041007D01*
X89243389Y-77041007D02*
X89338627Y-77088626D01*
X89338627Y-77088626D02*
X89386246Y-77136245D01*
X89386246Y-77136245D02*
X89433865Y-77231483D01*
X89433865Y-77231483D02*
X89433865Y-77279102D01*
X89433865Y-77279102D02*
X89386246Y-77374340D01*
X89386246Y-77374340D02*
X89338627Y-77421959D01*
X89338627Y-77421959D02*
X89243389Y-77469578D01*
X89243389Y-77469578D02*
X89052913Y-77469578D01*
X89052913Y-77469578D02*
X88957675Y-77517197D01*
X88957675Y-77517197D02*
X88910056Y-77564816D01*
X88910056Y-77564816D02*
X88862437Y-77660054D01*
X88862437Y-77660054D02*
X88862437Y-77850530D01*
X88862437Y-77850530D02*
X88910056Y-77945768D01*
X88910056Y-77945768D02*
X88957675Y-77993388D01*
X88957675Y-77993388D02*
X89052913Y-78041007D01*
X89052913Y-78041007D02*
X89243389Y-78041007D01*
X89243389Y-78041007D02*
X89338627Y-77993388D01*
X89338627Y-77993388D02*
X89386246Y-77945768D01*
X89386246Y-77945768D02*
X89433865Y-77850530D01*
X89433865Y-77850530D02*
X89433865Y-77660054D01*
X89433865Y-77660054D02*
X89386246Y-77564816D01*
X89386246Y-77564816D02*
X89338627Y-77517197D01*
X89338627Y-77517197D02*
X89243389Y-77469578D01*
X86766667Y-95602200D02*
X86909524Y-95649819D01*
X86909524Y-95649819D02*
X87147619Y-95649819D01*
X87147619Y-95649819D02*
X87242857Y-95602200D01*
X87242857Y-95602200D02*
X87290476Y-95554580D01*
X87290476Y-95554580D02*
X87338095Y-95459342D01*
X87338095Y-95459342D02*
X87338095Y-95364104D01*
X87338095Y-95364104D02*
X87290476Y-95268866D01*
X87290476Y-95268866D02*
X87242857Y-95221247D01*
X87242857Y-95221247D02*
X87147619Y-95173628D01*
X87147619Y-95173628D02*
X86957143Y-95126009D01*
X86957143Y-95126009D02*
X86861905Y-95078390D01*
X86861905Y-95078390D02*
X86814286Y-95030771D01*
X86814286Y-95030771D02*
X86766667Y-94935533D01*
X86766667Y-94935533D02*
X86766667Y-94840295D01*
X86766667Y-94840295D02*
X86814286Y-94745057D01*
X86814286Y-94745057D02*
X86861905Y-94697438D01*
X86861905Y-94697438D02*
X86957143Y-94649819D01*
X86957143Y-94649819D02*
X87195238Y-94649819D01*
X87195238Y-94649819D02*
X87338095Y-94697438D01*
X87671429Y-94649819D02*
X87909524Y-95649819D01*
X87909524Y-95649819D02*
X88100000Y-94935533D01*
X88100000Y-94935533D02*
X88290476Y-95649819D01*
X88290476Y-95649819D02*
X88528572Y-94649819D01*
X88957143Y-95649819D02*
X89147619Y-95649819D01*
X89147619Y-95649819D02*
X89242857Y-95602200D01*
X89242857Y-95602200D02*
X89290476Y-95554580D01*
X89290476Y-95554580D02*
X89385714Y-95411723D01*
X89385714Y-95411723D02*
X89433333Y-95221247D01*
X89433333Y-95221247D02*
X89433333Y-94840295D01*
X89433333Y-94840295D02*
X89385714Y-94745057D01*
X89385714Y-94745057D02*
X89338095Y-94697438D01*
X89338095Y-94697438D02*
X89242857Y-94649819D01*
X89242857Y-94649819D02*
X89052381Y-94649819D01*
X89052381Y-94649819D02*
X88957143Y-94697438D01*
X88957143Y-94697438D02*
X88909524Y-94745057D01*
X88909524Y-94745057D02*
X88861905Y-94840295D01*
X88861905Y-94840295D02*
X88861905Y-95078390D01*
X88861905Y-95078390D02*
X88909524Y-95173628D01*
X88909524Y-95173628D02*
X88957143Y-95221247D01*
X88957143Y-95221247D02*
X89052381Y-95268866D01*
X89052381Y-95268866D02*
X89242857Y-95268866D01*
X89242857Y-95268866D02*
X89338095Y-95221247D01*
X89338095Y-95221247D02*
X89385714Y-95173628D01*
X89385714Y-95173628D02*
X89433333Y-95078390D01*
X86290476Y-114652200D02*
X86433333Y-114699819D01*
X86433333Y-114699819D02*
X86671428Y-114699819D01*
X86671428Y-114699819D02*
X86766666Y-114652200D01*
X86766666Y-114652200D02*
X86814285Y-114604580D01*
X86814285Y-114604580D02*
X86861904Y-114509342D01*
X86861904Y-114509342D02*
X86861904Y-114414104D01*
X86861904Y-114414104D02*
X86814285Y-114318866D01*
X86814285Y-114318866D02*
X86766666Y-114271247D01*
X86766666Y-114271247D02*
X86671428Y-114223628D01*
X86671428Y-114223628D02*
X86480952Y-114176009D01*
X86480952Y-114176009D02*
X86385714Y-114128390D01*
X86385714Y-114128390D02*
X86338095Y-114080771D01*
X86338095Y-114080771D02*
X86290476Y-113985533D01*
X86290476Y-113985533D02*
X86290476Y-113890295D01*
X86290476Y-113890295D02*
X86338095Y-113795057D01*
X86338095Y-113795057D02*
X86385714Y-113747438D01*
X86385714Y-113747438D02*
X86480952Y-113699819D01*
X86480952Y-113699819D02*
X86719047Y-113699819D01*
X86719047Y-113699819D02*
X86861904Y-113747438D01*
X87195238Y-113699819D02*
X87433333Y-114699819D01*
X87433333Y-114699819D02*
X87623809Y-113985533D01*
X87623809Y-113985533D02*
X87814285Y-114699819D01*
X87814285Y-114699819D02*
X88052381Y-113699819D01*
X88957142Y-114699819D02*
X88385714Y-114699819D01*
X88671428Y-114699819D02*
X88671428Y-113699819D01*
X88671428Y-113699819D02*
X88576190Y-113842676D01*
X88576190Y-113842676D02*
X88480952Y-113937914D01*
X88480952Y-113937914D02*
X88385714Y-113985533D01*
X89576190Y-113699819D02*
X89671428Y-113699819D01*
X89671428Y-113699819D02*
X89766666Y-113747438D01*
X89766666Y-113747438D02*
X89814285Y-113795057D01*
X89814285Y-113795057D02*
X89861904Y-113890295D01*
X89861904Y-113890295D02*
X89909523Y-114080771D01*
X89909523Y-114080771D02*
X89909523Y-114318866D01*
X89909523Y-114318866D02*
X89861904Y-114509342D01*
X89861904Y-114509342D02*
X89814285Y-114604580D01*
X89814285Y-114604580D02*
X89766666Y-114652200D01*
X89766666Y-114652200D02*
X89671428Y-114699819D01*
X89671428Y-114699819D02*
X89576190Y-114699819D01*
X89576190Y-114699819D02*
X89480952Y-114652200D01*
X89480952Y-114652200D02*
X89433333Y-114604580D01*
X89433333Y-114604580D02*
X89385714Y-114509342D01*
X89385714Y-114509342D02*
X89338095Y-114318866D01*
X89338095Y-114318866D02*
X89338095Y-114080771D01*
X89338095Y-114080771D02*
X89385714Y-113890295D01*
X89385714Y-113890295D02*
X89433333Y-113795057D01*
X89433333Y-113795057D02*
X89480952Y-113747438D01*
X89480952Y-113747438D02*
X89576190Y-113699819D01*
X105340476Y-72742200D02*
X105483333Y-72789819D01*
X105483333Y-72789819D02*
X105721428Y-72789819D01*
X105721428Y-72789819D02*
X105816666Y-72742200D01*
X105816666Y-72742200D02*
X105864285Y-72694580D01*
X105864285Y-72694580D02*
X105911904Y-72599342D01*
X105911904Y-72599342D02*
X105911904Y-72504104D01*
X105911904Y-72504104D02*
X105864285Y-72408866D01*
X105864285Y-72408866D02*
X105816666Y-72361247D01*
X105816666Y-72361247D02*
X105721428Y-72313628D01*
X105721428Y-72313628D02*
X105530952Y-72266009D01*
X105530952Y-72266009D02*
X105435714Y-72218390D01*
X105435714Y-72218390D02*
X105388095Y-72170771D01*
X105388095Y-72170771D02*
X105340476Y-72075533D01*
X105340476Y-72075533D02*
X105340476Y-71980295D01*
X105340476Y-71980295D02*
X105388095Y-71885057D01*
X105388095Y-71885057D02*
X105435714Y-71837438D01*
X105435714Y-71837438D02*
X105530952Y-71789819D01*
X105530952Y-71789819D02*
X105769047Y-71789819D01*
X105769047Y-71789819D02*
X105911904Y-71837438D01*
X106245238Y-71789819D02*
X106483333Y-72789819D01*
X106483333Y-72789819D02*
X106673809Y-72075533D01*
X106673809Y-72075533D02*
X106864285Y-72789819D01*
X106864285Y-72789819D02*
X107102381Y-71789819D01*
X108007142Y-72789819D02*
X107435714Y-72789819D01*
X107721428Y-72789819D02*
X107721428Y-71789819D01*
X107721428Y-71789819D02*
X107626190Y-71932676D01*
X107626190Y-71932676D02*
X107530952Y-72027914D01*
X107530952Y-72027914D02*
X107435714Y-72075533D01*
X108959523Y-72789819D02*
X108388095Y-72789819D01*
X108673809Y-72789819D02*
X108673809Y-71789819D01*
X108673809Y-71789819D02*
X108578571Y-71932676D01*
X108578571Y-71932676D02*
X108483333Y-72027914D01*
X108483333Y-72027914D02*
X108388095Y-72075533D01*
X105340476Y-91792200D02*
X105483333Y-91839819D01*
X105483333Y-91839819D02*
X105721428Y-91839819D01*
X105721428Y-91839819D02*
X105816666Y-91792200D01*
X105816666Y-91792200D02*
X105864285Y-91744580D01*
X105864285Y-91744580D02*
X105911904Y-91649342D01*
X105911904Y-91649342D02*
X105911904Y-91554104D01*
X105911904Y-91554104D02*
X105864285Y-91458866D01*
X105864285Y-91458866D02*
X105816666Y-91411247D01*
X105816666Y-91411247D02*
X105721428Y-91363628D01*
X105721428Y-91363628D02*
X105530952Y-91316009D01*
X105530952Y-91316009D02*
X105435714Y-91268390D01*
X105435714Y-91268390D02*
X105388095Y-91220771D01*
X105388095Y-91220771D02*
X105340476Y-91125533D01*
X105340476Y-91125533D02*
X105340476Y-91030295D01*
X105340476Y-91030295D02*
X105388095Y-90935057D01*
X105388095Y-90935057D02*
X105435714Y-90887438D01*
X105435714Y-90887438D02*
X105530952Y-90839819D01*
X105530952Y-90839819D02*
X105769047Y-90839819D01*
X105769047Y-90839819D02*
X105911904Y-90887438D01*
X106245238Y-90839819D02*
X106483333Y-91839819D01*
X106483333Y-91839819D02*
X106673809Y-91125533D01*
X106673809Y-91125533D02*
X106864285Y-91839819D01*
X106864285Y-91839819D02*
X107102381Y-90839819D01*
X108007142Y-91839819D02*
X107435714Y-91839819D01*
X107721428Y-91839819D02*
X107721428Y-90839819D01*
X107721428Y-90839819D02*
X107626190Y-90982676D01*
X107626190Y-90982676D02*
X107530952Y-91077914D01*
X107530952Y-91077914D02*
X107435714Y-91125533D01*
X108388095Y-90935057D02*
X108435714Y-90887438D01*
X108435714Y-90887438D02*
X108530952Y-90839819D01*
X108530952Y-90839819D02*
X108769047Y-90839819D01*
X108769047Y-90839819D02*
X108864285Y-90887438D01*
X108864285Y-90887438D02*
X108911904Y-90935057D01*
X108911904Y-90935057D02*
X108959523Y-91030295D01*
X108959523Y-91030295D02*
X108959523Y-91125533D01*
X108959523Y-91125533D02*
X108911904Y-91268390D01*
X108911904Y-91268390D02*
X108340476Y-91839819D01*
X108340476Y-91839819D02*
X108959523Y-91839819D01*
X105340476Y-110842200D02*
X105483333Y-110889819D01*
X105483333Y-110889819D02*
X105721428Y-110889819D01*
X105721428Y-110889819D02*
X105816666Y-110842200D01*
X105816666Y-110842200D02*
X105864285Y-110794580D01*
X105864285Y-110794580D02*
X105911904Y-110699342D01*
X105911904Y-110699342D02*
X105911904Y-110604104D01*
X105911904Y-110604104D02*
X105864285Y-110508866D01*
X105864285Y-110508866D02*
X105816666Y-110461247D01*
X105816666Y-110461247D02*
X105721428Y-110413628D01*
X105721428Y-110413628D02*
X105530952Y-110366009D01*
X105530952Y-110366009D02*
X105435714Y-110318390D01*
X105435714Y-110318390D02*
X105388095Y-110270771D01*
X105388095Y-110270771D02*
X105340476Y-110175533D01*
X105340476Y-110175533D02*
X105340476Y-110080295D01*
X105340476Y-110080295D02*
X105388095Y-109985057D01*
X105388095Y-109985057D02*
X105435714Y-109937438D01*
X105435714Y-109937438D02*
X105530952Y-109889819D01*
X105530952Y-109889819D02*
X105769047Y-109889819D01*
X105769047Y-109889819D02*
X105911904Y-109937438D01*
X106245238Y-109889819D02*
X106483333Y-110889819D01*
X106483333Y-110889819D02*
X106673809Y-110175533D01*
X106673809Y-110175533D02*
X106864285Y-110889819D01*
X106864285Y-110889819D02*
X107102381Y-109889819D01*
X108007142Y-110889819D02*
X107435714Y-110889819D01*
X107721428Y-110889819D02*
X107721428Y-109889819D01*
X107721428Y-109889819D02*
X107626190Y-110032676D01*
X107626190Y-110032676D02*
X107530952Y-110127914D01*
X107530952Y-110127914D02*
X107435714Y-110175533D01*
X108340476Y-109889819D02*
X108959523Y-109889819D01*
X108959523Y-109889819D02*
X108626190Y-110270771D01*
X108626190Y-110270771D02*
X108769047Y-110270771D01*
X108769047Y-110270771D02*
X108864285Y-110318390D01*
X108864285Y-110318390D02*
X108911904Y-110366009D01*
X108911904Y-110366009D02*
X108959523Y-110461247D01*
X108959523Y-110461247D02*
X108959523Y-110699342D01*
X108959523Y-110699342D02*
X108911904Y-110794580D01*
X108911904Y-110794580D02*
X108864285Y-110842200D01*
X108864285Y-110842200D02*
X108769047Y-110889819D01*
X108769047Y-110889819D02*
X108483333Y-110889819D01*
X108483333Y-110889819D02*
X108388095Y-110842200D01*
X108388095Y-110842200D02*
X108340476Y-110794580D01*
X124390476Y-76552200D02*
X124533333Y-76599819D01*
X124533333Y-76599819D02*
X124771428Y-76599819D01*
X124771428Y-76599819D02*
X124866666Y-76552200D01*
X124866666Y-76552200D02*
X124914285Y-76504580D01*
X124914285Y-76504580D02*
X124961904Y-76409342D01*
X124961904Y-76409342D02*
X124961904Y-76314104D01*
X124961904Y-76314104D02*
X124914285Y-76218866D01*
X124914285Y-76218866D02*
X124866666Y-76171247D01*
X124866666Y-76171247D02*
X124771428Y-76123628D01*
X124771428Y-76123628D02*
X124580952Y-76076009D01*
X124580952Y-76076009D02*
X124485714Y-76028390D01*
X124485714Y-76028390D02*
X124438095Y-75980771D01*
X124438095Y-75980771D02*
X124390476Y-75885533D01*
X124390476Y-75885533D02*
X124390476Y-75790295D01*
X124390476Y-75790295D02*
X124438095Y-75695057D01*
X124438095Y-75695057D02*
X124485714Y-75647438D01*
X124485714Y-75647438D02*
X124580952Y-75599819D01*
X124580952Y-75599819D02*
X124819047Y-75599819D01*
X124819047Y-75599819D02*
X124961904Y-75647438D01*
X125295238Y-75599819D02*
X125533333Y-76599819D01*
X125533333Y-76599819D02*
X125723809Y-75885533D01*
X125723809Y-75885533D02*
X125914285Y-76599819D01*
X125914285Y-76599819D02*
X126152381Y-75599819D01*
X127057142Y-76599819D02*
X126485714Y-76599819D01*
X126771428Y-76599819D02*
X126771428Y-75599819D01*
X126771428Y-75599819D02*
X126676190Y-75742676D01*
X126676190Y-75742676D02*
X126580952Y-75837914D01*
X126580952Y-75837914D02*
X126485714Y-75885533D01*
X127961904Y-75599819D02*
X127485714Y-75599819D01*
X127485714Y-75599819D02*
X127438095Y-76076009D01*
X127438095Y-76076009D02*
X127485714Y-76028390D01*
X127485714Y-76028390D02*
X127580952Y-75980771D01*
X127580952Y-75980771D02*
X127819047Y-75980771D01*
X127819047Y-75980771D02*
X127914285Y-76028390D01*
X127914285Y-76028390D02*
X127961904Y-76076009D01*
X127961904Y-76076009D02*
X128009523Y-76171247D01*
X128009523Y-76171247D02*
X128009523Y-76409342D01*
X128009523Y-76409342D02*
X127961904Y-76504580D01*
X127961904Y-76504580D02*
X127914285Y-76552200D01*
X127914285Y-76552200D02*
X127819047Y-76599819D01*
X127819047Y-76599819D02*
X127580952Y-76599819D01*
X127580952Y-76599819D02*
X127485714Y-76552200D01*
X127485714Y-76552200D02*
X127438095Y-76504580D01*
X124390476Y-95602200D02*
X124533333Y-95649819D01*
X124533333Y-95649819D02*
X124771428Y-95649819D01*
X124771428Y-95649819D02*
X124866666Y-95602200D01*
X124866666Y-95602200D02*
X124914285Y-95554580D01*
X124914285Y-95554580D02*
X124961904Y-95459342D01*
X124961904Y-95459342D02*
X124961904Y-95364104D01*
X124961904Y-95364104D02*
X124914285Y-95268866D01*
X124914285Y-95268866D02*
X124866666Y-95221247D01*
X124866666Y-95221247D02*
X124771428Y-95173628D01*
X124771428Y-95173628D02*
X124580952Y-95126009D01*
X124580952Y-95126009D02*
X124485714Y-95078390D01*
X124485714Y-95078390D02*
X124438095Y-95030771D01*
X124438095Y-95030771D02*
X124390476Y-94935533D01*
X124390476Y-94935533D02*
X124390476Y-94840295D01*
X124390476Y-94840295D02*
X124438095Y-94745057D01*
X124438095Y-94745057D02*
X124485714Y-94697438D01*
X124485714Y-94697438D02*
X124580952Y-94649819D01*
X124580952Y-94649819D02*
X124819047Y-94649819D01*
X124819047Y-94649819D02*
X124961904Y-94697438D01*
X125295238Y-94649819D02*
X125533333Y-95649819D01*
X125533333Y-95649819D02*
X125723809Y-94935533D01*
X125723809Y-94935533D02*
X125914285Y-95649819D01*
X125914285Y-95649819D02*
X126152381Y-94649819D01*
X127057142Y-95649819D02*
X126485714Y-95649819D01*
X126771428Y-95649819D02*
X126771428Y-94649819D01*
X126771428Y-94649819D02*
X126676190Y-94792676D01*
X126676190Y-94792676D02*
X126580952Y-94887914D01*
X126580952Y-94887914D02*
X126485714Y-94935533D01*
X127914285Y-94649819D02*
X127723809Y-94649819D01*
X127723809Y-94649819D02*
X127628571Y-94697438D01*
X127628571Y-94697438D02*
X127580952Y-94745057D01*
X127580952Y-94745057D02*
X127485714Y-94887914D01*
X127485714Y-94887914D02*
X127438095Y-95078390D01*
X127438095Y-95078390D02*
X127438095Y-95459342D01*
X127438095Y-95459342D02*
X127485714Y-95554580D01*
X127485714Y-95554580D02*
X127533333Y-95602200D01*
X127533333Y-95602200D02*
X127628571Y-95649819D01*
X127628571Y-95649819D02*
X127819047Y-95649819D01*
X127819047Y-95649819D02*
X127914285Y-95602200D01*
X127914285Y-95602200D02*
X127961904Y-95554580D01*
X127961904Y-95554580D02*
X128009523Y-95459342D01*
X128009523Y-95459342D02*
X128009523Y-95221247D01*
X128009523Y-95221247D02*
X127961904Y-95126009D01*
X127961904Y-95126009D02*
X127914285Y-95078390D01*
X127914285Y-95078390D02*
X127819047Y-95030771D01*
X127819047Y-95030771D02*
X127628571Y-95030771D01*
X127628571Y-95030771D02*
X127533333Y-95078390D01*
X127533333Y-95078390D02*
X127485714Y-95126009D01*
X127485714Y-95126009D02*
X127438095Y-95221247D01*
X124390476Y-114652200D02*
X124533333Y-114699819D01*
X124533333Y-114699819D02*
X124771428Y-114699819D01*
X124771428Y-114699819D02*
X124866666Y-114652200D01*
X124866666Y-114652200D02*
X124914285Y-114604580D01*
X124914285Y-114604580D02*
X124961904Y-114509342D01*
X124961904Y-114509342D02*
X124961904Y-114414104D01*
X124961904Y-114414104D02*
X124914285Y-114318866D01*
X124914285Y-114318866D02*
X124866666Y-114271247D01*
X124866666Y-114271247D02*
X124771428Y-114223628D01*
X124771428Y-114223628D02*
X124580952Y-114176009D01*
X124580952Y-114176009D02*
X124485714Y-114128390D01*
X124485714Y-114128390D02*
X124438095Y-114080771D01*
X124438095Y-114080771D02*
X124390476Y-113985533D01*
X124390476Y-113985533D02*
X124390476Y-113890295D01*
X124390476Y-113890295D02*
X124438095Y-113795057D01*
X124438095Y-113795057D02*
X124485714Y-113747438D01*
X124485714Y-113747438D02*
X124580952Y-113699819D01*
X124580952Y-113699819D02*
X124819047Y-113699819D01*
X124819047Y-113699819D02*
X124961904Y-113747438D01*
X125295238Y-113699819D02*
X125533333Y-114699819D01*
X125533333Y-114699819D02*
X125723809Y-113985533D01*
X125723809Y-113985533D02*
X125914285Y-114699819D01*
X125914285Y-114699819D02*
X126152381Y-113699819D01*
X127057142Y-114699819D02*
X126485714Y-114699819D01*
X126771428Y-114699819D02*
X126771428Y-113699819D01*
X126771428Y-113699819D02*
X126676190Y-113842676D01*
X126676190Y-113842676D02*
X126580952Y-113937914D01*
X126580952Y-113937914D02*
X126485714Y-113985533D01*
X127390476Y-113699819D02*
X128057142Y-113699819D01*
X128057142Y-113699819D02*
X127628571Y-114699819D01*
X143440476Y-80362200D02*
X143583333Y-80409819D01*
X143583333Y-80409819D02*
X143821428Y-80409819D01*
X143821428Y-80409819D02*
X143916666Y-80362200D01*
X143916666Y-80362200D02*
X143964285Y-80314580D01*
X143964285Y-80314580D02*
X144011904Y-80219342D01*
X144011904Y-80219342D02*
X144011904Y-80124104D01*
X144011904Y-80124104D02*
X143964285Y-80028866D01*
X143964285Y-80028866D02*
X143916666Y-79981247D01*
X143916666Y-79981247D02*
X143821428Y-79933628D01*
X143821428Y-79933628D02*
X143630952Y-79886009D01*
X143630952Y-79886009D02*
X143535714Y-79838390D01*
X143535714Y-79838390D02*
X143488095Y-79790771D01*
X143488095Y-79790771D02*
X143440476Y-79695533D01*
X143440476Y-79695533D02*
X143440476Y-79600295D01*
X143440476Y-79600295D02*
X143488095Y-79505057D01*
X143488095Y-79505057D02*
X143535714Y-79457438D01*
X143535714Y-79457438D02*
X143630952Y-79409819D01*
X143630952Y-79409819D02*
X143869047Y-79409819D01*
X143869047Y-79409819D02*
X144011904Y-79457438D01*
X144345238Y-79409819D02*
X144583333Y-80409819D01*
X144583333Y-80409819D02*
X144773809Y-79695533D01*
X144773809Y-79695533D02*
X144964285Y-80409819D01*
X144964285Y-80409819D02*
X145202381Y-79409819D01*
X146107142Y-80409819D02*
X145535714Y-80409819D01*
X145821428Y-80409819D02*
X145821428Y-79409819D01*
X145821428Y-79409819D02*
X145726190Y-79552676D01*
X145726190Y-79552676D02*
X145630952Y-79647914D01*
X145630952Y-79647914D02*
X145535714Y-79695533D01*
X146583333Y-80409819D02*
X146773809Y-80409819D01*
X146773809Y-80409819D02*
X146869047Y-80362200D01*
X146869047Y-80362200D02*
X146916666Y-80314580D01*
X146916666Y-80314580D02*
X147011904Y-80171723D01*
X147011904Y-80171723D02*
X147059523Y-79981247D01*
X147059523Y-79981247D02*
X147059523Y-79600295D01*
X147059523Y-79600295D02*
X147011904Y-79505057D01*
X147011904Y-79505057D02*
X146964285Y-79457438D01*
X146964285Y-79457438D02*
X146869047Y-79409819D01*
X146869047Y-79409819D02*
X146678571Y-79409819D01*
X146678571Y-79409819D02*
X146583333Y-79457438D01*
X146583333Y-79457438D02*
X146535714Y-79505057D01*
X146535714Y-79505057D02*
X146488095Y-79600295D01*
X146488095Y-79600295D02*
X146488095Y-79838390D01*
X146488095Y-79838390D02*
X146535714Y-79933628D01*
X146535714Y-79933628D02*
X146583333Y-79981247D01*
X146583333Y-79981247D02*
X146678571Y-80028866D01*
X146678571Y-80028866D02*
X146869047Y-80028866D01*
X146869047Y-80028866D02*
X146964285Y-79981247D01*
X146964285Y-79981247D02*
X147011904Y-79933628D01*
X147011904Y-79933628D02*
X147059523Y-79838390D01*
X143440476Y-99412200D02*
X143583333Y-99459819D01*
X143583333Y-99459819D02*
X143821428Y-99459819D01*
X143821428Y-99459819D02*
X143916666Y-99412200D01*
X143916666Y-99412200D02*
X143964285Y-99364580D01*
X143964285Y-99364580D02*
X144011904Y-99269342D01*
X144011904Y-99269342D02*
X144011904Y-99174104D01*
X144011904Y-99174104D02*
X143964285Y-99078866D01*
X143964285Y-99078866D02*
X143916666Y-99031247D01*
X143916666Y-99031247D02*
X143821428Y-98983628D01*
X143821428Y-98983628D02*
X143630952Y-98936009D01*
X143630952Y-98936009D02*
X143535714Y-98888390D01*
X143535714Y-98888390D02*
X143488095Y-98840771D01*
X143488095Y-98840771D02*
X143440476Y-98745533D01*
X143440476Y-98745533D02*
X143440476Y-98650295D01*
X143440476Y-98650295D02*
X143488095Y-98555057D01*
X143488095Y-98555057D02*
X143535714Y-98507438D01*
X143535714Y-98507438D02*
X143630952Y-98459819D01*
X143630952Y-98459819D02*
X143869047Y-98459819D01*
X143869047Y-98459819D02*
X144011904Y-98507438D01*
X144345238Y-98459819D02*
X144583333Y-99459819D01*
X144583333Y-99459819D02*
X144773809Y-98745533D01*
X144773809Y-98745533D02*
X144964285Y-99459819D01*
X144964285Y-99459819D02*
X145202381Y-98459819D01*
X145535714Y-98555057D02*
X145583333Y-98507438D01*
X145583333Y-98507438D02*
X145678571Y-98459819D01*
X145678571Y-98459819D02*
X145916666Y-98459819D01*
X145916666Y-98459819D02*
X146011904Y-98507438D01*
X146011904Y-98507438D02*
X146059523Y-98555057D01*
X146059523Y-98555057D02*
X146107142Y-98650295D01*
X146107142Y-98650295D02*
X146107142Y-98745533D01*
X146107142Y-98745533D02*
X146059523Y-98888390D01*
X146059523Y-98888390D02*
X145488095Y-99459819D01*
X145488095Y-99459819D02*
X146107142Y-99459819D01*
X146726190Y-98459819D02*
X146821428Y-98459819D01*
X146821428Y-98459819D02*
X146916666Y-98507438D01*
X146916666Y-98507438D02*
X146964285Y-98555057D01*
X146964285Y-98555057D02*
X147011904Y-98650295D01*
X147011904Y-98650295D02*
X147059523Y-98840771D01*
X147059523Y-98840771D02*
X147059523Y-99078866D01*
X147059523Y-99078866D02*
X147011904Y-99269342D01*
X147011904Y-99269342D02*
X146964285Y-99364580D01*
X146964285Y-99364580D02*
X146916666Y-99412200D01*
X146916666Y-99412200D02*
X146821428Y-99459819D01*
X146821428Y-99459819D02*
X146726190Y-99459819D01*
X146726190Y-99459819D02*
X146630952Y-99412200D01*
X146630952Y-99412200D02*
X146583333Y-99364580D01*
X146583333Y-99364580D02*
X146535714Y-99269342D01*
X146535714Y-99269342D02*
X146488095Y-99078866D01*
X146488095Y-99078866D02*
X146488095Y-98840771D01*
X146488095Y-98840771D02*
X146535714Y-98650295D01*
X146535714Y-98650295D02*
X146583333Y-98555057D01*
X146583333Y-98555057D02*
X146630952Y-98507438D01*
X146630952Y-98507438D02*
X146726190Y-98459819D01*
X143440476Y-118462200D02*
X143583333Y-118509819D01*
X143583333Y-118509819D02*
X143821428Y-118509819D01*
X143821428Y-118509819D02*
X143916666Y-118462200D01*
X143916666Y-118462200D02*
X143964285Y-118414580D01*
X143964285Y-118414580D02*
X144011904Y-118319342D01*
X144011904Y-118319342D02*
X144011904Y-118224104D01*
X144011904Y-118224104D02*
X143964285Y-118128866D01*
X143964285Y-118128866D02*
X143916666Y-118081247D01*
X143916666Y-118081247D02*
X143821428Y-118033628D01*
X143821428Y-118033628D02*
X143630952Y-117986009D01*
X143630952Y-117986009D02*
X143535714Y-117938390D01*
X143535714Y-117938390D02*
X143488095Y-117890771D01*
X143488095Y-117890771D02*
X143440476Y-117795533D01*
X143440476Y-117795533D02*
X143440476Y-117700295D01*
X143440476Y-117700295D02*
X143488095Y-117605057D01*
X143488095Y-117605057D02*
X143535714Y-117557438D01*
X143535714Y-117557438D02*
X143630952Y-117509819D01*
X143630952Y-117509819D02*
X143869047Y-117509819D01*
X143869047Y-117509819D02*
X144011904Y-117557438D01*
X144345238Y-117509819D02*
X144583333Y-118509819D01*
X144583333Y-118509819D02*
X144773809Y-117795533D01*
X144773809Y-117795533D02*
X144964285Y-118509819D01*
X144964285Y-118509819D02*
X145202381Y-117509819D01*
X145535714Y-117605057D02*
X145583333Y-117557438D01*
X145583333Y-117557438D02*
X145678571Y-117509819D01*
X145678571Y-117509819D02*
X145916666Y-117509819D01*
X145916666Y-117509819D02*
X146011904Y-117557438D01*
X146011904Y-117557438D02*
X146059523Y-117605057D01*
X146059523Y-117605057D02*
X146107142Y-117700295D01*
X146107142Y-117700295D02*
X146107142Y-117795533D01*
X146107142Y-117795533D02*
X146059523Y-117938390D01*
X146059523Y-117938390D02*
X145488095Y-118509819D01*
X145488095Y-118509819D02*
X146107142Y-118509819D01*
X147059523Y-118509819D02*
X146488095Y-118509819D01*
X146773809Y-118509819D02*
X146773809Y-117509819D01*
X146773809Y-117509819D02*
X146678571Y-117652676D01*
X146678571Y-117652676D02*
X146583333Y-117747914D01*
X146583333Y-117747914D02*
X146488095Y-117795533D01*
X162490476Y-84172200D02*
X162633333Y-84219819D01*
X162633333Y-84219819D02*
X162871428Y-84219819D01*
X162871428Y-84219819D02*
X162966666Y-84172200D01*
X162966666Y-84172200D02*
X163014285Y-84124580D01*
X163014285Y-84124580D02*
X163061904Y-84029342D01*
X163061904Y-84029342D02*
X163061904Y-83934104D01*
X163061904Y-83934104D02*
X163014285Y-83838866D01*
X163014285Y-83838866D02*
X162966666Y-83791247D01*
X162966666Y-83791247D02*
X162871428Y-83743628D01*
X162871428Y-83743628D02*
X162680952Y-83696009D01*
X162680952Y-83696009D02*
X162585714Y-83648390D01*
X162585714Y-83648390D02*
X162538095Y-83600771D01*
X162538095Y-83600771D02*
X162490476Y-83505533D01*
X162490476Y-83505533D02*
X162490476Y-83410295D01*
X162490476Y-83410295D02*
X162538095Y-83315057D01*
X162538095Y-83315057D02*
X162585714Y-83267438D01*
X162585714Y-83267438D02*
X162680952Y-83219819D01*
X162680952Y-83219819D02*
X162919047Y-83219819D01*
X162919047Y-83219819D02*
X163061904Y-83267438D01*
X163395238Y-83219819D02*
X163633333Y-84219819D01*
X163633333Y-84219819D02*
X163823809Y-83505533D01*
X163823809Y-83505533D02*
X164014285Y-84219819D01*
X164014285Y-84219819D02*
X164252381Y-83219819D01*
X164585714Y-83315057D02*
X164633333Y-83267438D01*
X164633333Y-83267438D02*
X164728571Y-83219819D01*
X164728571Y-83219819D02*
X164966666Y-83219819D01*
X164966666Y-83219819D02*
X165061904Y-83267438D01*
X165061904Y-83267438D02*
X165109523Y-83315057D01*
X165109523Y-83315057D02*
X165157142Y-83410295D01*
X165157142Y-83410295D02*
X165157142Y-83505533D01*
X165157142Y-83505533D02*
X165109523Y-83648390D01*
X165109523Y-83648390D02*
X164538095Y-84219819D01*
X164538095Y-84219819D02*
X165157142Y-84219819D01*
X165490476Y-83219819D02*
X166109523Y-83219819D01*
X166109523Y-83219819D02*
X165776190Y-83600771D01*
X165776190Y-83600771D02*
X165919047Y-83600771D01*
X165919047Y-83600771D02*
X166014285Y-83648390D01*
X166014285Y-83648390D02*
X166061904Y-83696009D01*
X166061904Y-83696009D02*
X166109523Y-83791247D01*
X166109523Y-83791247D02*
X166109523Y-84029342D01*
X166109523Y-84029342D02*
X166061904Y-84124580D01*
X166061904Y-84124580D02*
X166014285Y-84172200D01*
X166014285Y-84172200D02*
X165919047Y-84219819D01*
X165919047Y-84219819D02*
X165633333Y-84219819D01*
X165633333Y-84219819D02*
X165538095Y-84172200D01*
X165538095Y-84172200D02*
X165490476Y-84124580D01*
X162490476Y-103222200D02*
X162633333Y-103269819D01*
X162633333Y-103269819D02*
X162871428Y-103269819D01*
X162871428Y-103269819D02*
X162966666Y-103222200D01*
X162966666Y-103222200D02*
X163014285Y-103174580D01*
X163014285Y-103174580D02*
X163061904Y-103079342D01*
X163061904Y-103079342D02*
X163061904Y-102984104D01*
X163061904Y-102984104D02*
X163014285Y-102888866D01*
X163014285Y-102888866D02*
X162966666Y-102841247D01*
X162966666Y-102841247D02*
X162871428Y-102793628D01*
X162871428Y-102793628D02*
X162680952Y-102746009D01*
X162680952Y-102746009D02*
X162585714Y-102698390D01*
X162585714Y-102698390D02*
X162538095Y-102650771D01*
X162538095Y-102650771D02*
X162490476Y-102555533D01*
X162490476Y-102555533D02*
X162490476Y-102460295D01*
X162490476Y-102460295D02*
X162538095Y-102365057D01*
X162538095Y-102365057D02*
X162585714Y-102317438D01*
X162585714Y-102317438D02*
X162680952Y-102269819D01*
X162680952Y-102269819D02*
X162919047Y-102269819D01*
X162919047Y-102269819D02*
X163061904Y-102317438D01*
X163395238Y-102269819D02*
X163633333Y-103269819D01*
X163633333Y-103269819D02*
X163823809Y-102555533D01*
X163823809Y-102555533D02*
X164014285Y-103269819D01*
X164014285Y-103269819D02*
X164252381Y-102269819D01*
X164585714Y-102365057D02*
X164633333Y-102317438D01*
X164633333Y-102317438D02*
X164728571Y-102269819D01*
X164728571Y-102269819D02*
X164966666Y-102269819D01*
X164966666Y-102269819D02*
X165061904Y-102317438D01*
X165061904Y-102317438D02*
X165109523Y-102365057D01*
X165109523Y-102365057D02*
X165157142Y-102460295D01*
X165157142Y-102460295D02*
X165157142Y-102555533D01*
X165157142Y-102555533D02*
X165109523Y-102698390D01*
X165109523Y-102698390D02*
X164538095Y-103269819D01*
X164538095Y-103269819D02*
X165157142Y-103269819D01*
X166014285Y-102603152D02*
X166014285Y-103269819D01*
X165776190Y-102222200D02*
X165538095Y-102936485D01*
X165538095Y-102936485D02*
X166157142Y-102936485D01*
X158820664Y-128157905D02*
X158931802Y-128259512D01*
X158931802Y-128259512D02*
X159149313Y-128356354D01*
X159149313Y-128356354D02*
X159255686Y-128351589D01*
X159255686Y-128351589D02*
X159318556Y-128327455D01*
X159318556Y-128327455D02*
X159400795Y-128259819D01*
X159400795Y-128259819D02*
X159439532Y-128172815D01*
X159439532Y-128172815D02*
X159434767Y-128066442D01*
X159434767Y-128066442D02*
X159410633Y-128003571D01*
X159410633Y-128003571D02*
X159342997Y-127921332D01*
X159342997Y-127921332D02*
X159188357Y-127800357D01*
X159188357Y-127800357D02*
X159120721Y-127718118D01*
X159120721Y-127718118D02*
X159096587Y-127655247D01*
X159096587Y-127655247D02*
X159091822Y-127548874D01*
X159091822Y-127548874D02*
X159130559Y-127461870D01*
X159130559Y-127461870D02*
X159212798Y-127394234D01*
X159212798Y-127394234D02*
X159275668Y-127370100D01*
X159275668Y-127370100D02*
X159382041Y-127365335D01*
X159382041Y-127365335D02*
X159599552Y-127462177D01*
X159599552Y-127462177D02*
X159710690Y-127563784D01*
X160034573Y-127655861D02*
X159845348Y-128666249D01*
X159845348Y-128666249D02*
X160309882Y-128091190D01*
X160309882Y-128091190D02*
X160193365Y-128821196D01*
X160193365Y-128821196D02*
X160817612Y-128004493D01*
X161083391Y-128227076D02*
X161146261Y-128202942D01*
X161146261Y-128202942D02*
X161252634Y-128198177D01*
X161252634Y-128198177D02*
X161470145Y-128295019D01*
X161470145Y-128295019D02*
X161537781Y-128377258D01*
X161537781Y-128377258D02*
X161561914Y-128440128D01*
X161561914Y-128440128D02*
X161566680Y-128546501D01*
X161566680Y-128546501D02*
X161527943Y-128633505D01*
X161527943Y-128633505D02*
X161426336Y-128744643D01*
X161426336Y-128744643D02*
X160671889Y-129034248D01*
X160671889Y-129034248D02*
X161237417Y-129286038D01*
X162470695Y-128740492D02*
X162035673Y-128546808D01*
X162035673Y-128546808D02*
X161798487Y-128962461D01*
X161798487Y-128962461D02*
X161861357Y-128938327D01*
X161861357Y-128938327D02*
X161967730Y-128933562D01*
X161967730Y-128933562D02*
X162185241Y-129030404D01*
X162185241Y-129030404D02*
X162252877Y-129112643D01*
X162252877Y-129112643D02*
X162277011Y-129175514D01*
X162277011Y-129175514D02*
X162281776Y-129281887D01*
X162281776Y-129281887D02*
X162184934Y-129499397D01*
X162184934Y-129499397D02*
X162102695Y-129567033D01*
X162102695Y-129567033D02*
X162039824Y-129591167D01*
X162039824Y-129591167D02*
X161933451Y-129595932D01*
X161933451Y-129595932D02*
X161715941Y-129499090D01*
X161715941Y-129499090D02*
X161648305Y-129416851D01*
X161648305Y-129416851D02*
X161624171Y-129353981D01*
D13*
X81442059Y-130018583D02*
X81442059Y-130599155D01*
X81442059Y-130599155D02*
X81403354Y-130715269D01*
X81403354Y-130715269D02*
X81325945Y-130792679D01*
X81325945Y-130792679D02*
X81209830Y-130831383D01*
X81209830Y-130831383D02*
X81132421Y-130831383D01*
X81829106Y-130831383D02*
X81829106Y-130018583D01*
X81829106Y-130018583D02*
X82138744Y-130018583D01*
X82138744Y-130018583D02*
X82216154Y-130057288D01*
X82216154Y-130057288D02*
X82254859Y-130095993D01*
X82254859Y-130095993D02*
X82293563Y-130173402D01*
X82293563Y-130173402D02*
X82293563Y-130289517D01*
X82293563Y-130289517D02*
X82254859Y-130366926D01*
X82254859Y-130366926D02*
X82216154Y-130405631D01*
X82216154Y-130405631D02*
X82138744Y-130444336D01*
X82138744Y-130444336D02*
X81829106Y-130444336D01*
X83067659Y-130831383D02*
X82603202Y-130831383D01*
X82835430Y-130831383D02*
X82835430Y-130018583D01*
X82835430Y-130018583D02*
X82758021Y-130134698D01*
X82758021Y-130134698D02*
X82680611Y-130212107D01*
X82680611Y-130212107D02*
X82603202Y-130250812D01*
D11*
X123884423Y-137850063D02*
X124016841Y-137921765D01*
X124016841Y-137921765D02*
X124251319Y-137963110D01*
X124251319Y-137963110D02*
X124353379Y-137932752D01*
X124353379Y-137932752D02*
X124408544Y-137894126D01*
X124408544Y-137894126D02*
X124471977Y-137808603D01*
X124471977Y-137808603D02*
X124488515Y-137714812D01*
X124488515Y-137714812D02*
X124458157Y-137612752D01*
X124458157Y-137612752D02*
X124419531Y-137557587D01*
X124419531Y-137557587D02*
X124334008Y-137494154D01*
X124334008Y-137494154D02*
X124154695Y-137414182D01*
X124154695Y-137414182D02*
X124069173Y-137350749D01*
X124069173Y-137350749D02*
X124030546Y-137295584D01*
X124030546Y-137295584D02*
X124000188Y-137193524D01*
X124000188Y-137193524D02*
X124016726Y-137099733D01*
X124016726Y-137099733D02*
X124080160Y-137014211D01*
X124080160Y-137014211D02*
X124135324Y-136975584D01*
X124135324Y-136975584D02*
X124237385Y-136945226D01*
X124237385Y-136945226D02*
X124471863Y-136986571D01*
X124471863Y-136986571D02*
X124604280Y-137058274D01*
X124940819Y-137069261D02*
X125001649Y-138095413D01*
X125001649Y-138095413D02*
X125313265Y-137425055D01*
X125313265Y-137425055D02*
X125376813Y-138161565D01*
X125376813Y-138161565D02*
X125784940Y-137218102D01*
X126502308Y-138360020D02*
X125939561Y-138260793D01*
X126220934Y-138310406D02*
X126394582Y-137325599D01*
X126394582Y-137325599D02*
X126275984Y-137449747D01*
X126275984Y-137449747D02*
X126165655Y-137527001D01*
X126165655Y-137527001D02*
X126063595Y-137557358D01*
X127164283Y-137896500D02*
X127078760Y-137833067D01*
X127078760Y-137833067D02*
X127040134Y-137777902D01*
X127040134Y-137777902D02*
X127009776Y-137675842D01*
X127009776Y-137675842D02*
X127018045Y-137628946D01*
X127018045Y-137628946D02*
X127081479Y-137543424D01*
X127081479Y-137543424D02*
X127136643Y-137504798D01*
X127136643Y-137504798D02*
X127238703Y-137474440D01*
X127238703Y-137474440D02*
X127426286Y-137507516D01*
X127426286Y-137507516D02*
X127511808Y-137570949D01*
X127511808Y-137570949D02*
X127550435Y-137626114D01*
X127550435Y-137626114D02*
X127580792Y-137728174D01*
X127580792Y-137728174D02*
X127572523Y-137775070D01*
X127572523Y-137775070D02*
X127509090Y-137860592D01*
X127509090Y-137860592D02*
X127453925Y-137899219D01*
X127453925Y-137899219D02*
X127351865Y-137929576D01*
X127351865Y-137929576D02*
X127164283Y-137896500D01*
X127164283Y-137896500D02*
X127062223Y-137926858D01*
X127062223Y-137926858D02*
X127007058Y-137965485D01*
X127007058Y-137965485D02*
X126943624Y-138051007D01*
X126943624Y-138051007D02*
X126910549Y-138238589D01*
X126910549Y-138238589D02*
X126940906Y-138340650D01*
X126940906Y-138340650D02*
X126979533Y-138395814D01*
X126979533Y-138395814D02*
X127065055Y-138459248D01*
X127065055Y-138459248D02*
X127252638Y-138492323D01*
X127252638Y-138492323D02*
X127354698Y-138461966D01*
X127354698Y-138461966D02*
X127409862Y-138423339D01*
X127409862Y-138423339D02*
X127473296Y-138337817D01*
X127473296Y-138337817D02*
X127506372Y-138150234D01*
X127506372Y-138150234D02*
X127476014Y-138048174D01*
X127476014Y-138048174D02*
X127437387Y-137993010D01*
X127437387Y-137993010D02*
X127351865Y-137929576D01*
X105340476Y-136507200D02*
X105483333Y-136554819D01*
X105483333Y-136554819D02*
X105721428Y-136554819D01*
X105721428Y-136554819D02*
X105816666Y-136507200D01*
X105816666Y-136507200D02*
X105864285Y-136459580D01*
X105864285Y-136459580D02*
X105911904Y-136364342D01*
X105911904Y-136364342D02*
X105911904Y-136269104D01*
X105911904Y-136269104D02*
X105864285Y-136173866D01*
X105864285Y-136173866D02*
X105816666Y-136126247D01*
X105816666Y-136126247D02*
X105721428Y-136078628D01*
X105721428Y-136078628D02*
X105530952Y-136031009D01*
X105530952Y-136031009D02*
X105435714Y-135983390D01*
X105435714Y-135983390D02*
X105388095Y-135935771D01*
X105388095Y-135935771D02*
X105340476Y-135840533D01*
X105340476Y-135840533D02*
X105340476Y-135745295D01*
X105340476Y-135745295D02*
X105388095Y-135650057D01*
X105388095Y-135650057D02*
X105435714Y-135602438D01*
X105435714Y-135602438D02*
X105530952Y-135554819D01*
X105530952Y-135554819D02*
X105769047Y-135554819D01*
X105769047Y-135554819D02*
X105911904Y-135602438D01*
X106245238Y-135554819D02*
X106483333Y-136554819D01*
X106483333Y-136554819D02*
X106673809Y-135840533D01*
X106673809Y-135840533D02*
X106864285Y-136554819D01*
X106864285Y-136554819D02*
X107102381Y-135554819D01*
X108007142Y-136554819D02*
X107435714Y-136554819D01*
X107721428Y-136554819D02*
X107721428Y-135554819D01*
X107721428Y-135554819D02*
X107626190Y-135697676D01*
X107626190Y-135697676D02*
X107530952Y-135792914D01*
X107530952Y-135792914D02*
X107435714Y-135840533D01*
X108864285Y-135888152D02*
X108864285Y-136554819D01*
X108626190Y-135507200D02*
X108388095Y-136221485D01*
X108388095Y-136221485D02*
X109007142Y-136221485D01*
X142082152Y-142420983D02*
X142200107Y-142514590D01*
X142200107Y-142514590D02*
X142423843Y-142596023D01*
X142423843Y-142596023D02*
X142529624Y-142583849D01*
X142529624Y-142583849D02*
X142590658Y-142555389D01*
X142590658Y-142555389D02*
X142667979Y-142482181D01*
X142667979Y-142482181D02*
X142700552Y-142392686D01*
X142700552Y-142392686D02*
X142688378Y-142286905D01*
X142688378Y-142286905D02*
X142659918Y-142225871D01*
X142659918Y-142225871D02*
X142586710Y-142148551D01*
X142586710Y-142148551D02*
X142424008Y-142038657D01*
X142424008Y-142038657D02*
X142350800Y-141961336D01*
X142350800Y-141961336D02*
X142322339Y-141900302D01*
X142322339Y-141900302D02*
X142310165Y-141794521D01*
X142310165Y-141794521D02*
X142342739Y-141705026D01*
X142342739Y-141705026D02*
X142420059Y-141631819D01*
X142420059Y-141631819D02*
X142481093Y-141603358D01*
X142481093Y-141603358D02*
X142586874Y-141591184D01*
X142586874Y-141591184D02*
X142810611Y-141672617D01*
X142810611Y-141672617D02*
X142928566Y-141766225D01*
X143258083Y-141835484D02*
X143139800Y-142856610D01*
X143139800Y-142856610D02*
X143563089Y-142250548D01*
X143563089Y-142250548D02*
X143497778Y-142986904D01*
X143497778Y-142986904D02*
X144063534Y-142128644D01*
X144344192Y-142332146D02*
X144405225Y-142303685D01*
X144405225Y-142303685D02*
X144511007Y-142291511D01*
X144511007Y-142291511D02*
X144734743Y-142372944D01*
X144734743Y-142372944D02*
X144807951Y-142450265D01*
X144807951Y-142450265D02*
X144836411Y-142511299D01*
X144836411Y-142511299D02*
X144848585Y-142617080D01*
X144848585Y-142617080D02*
X144816012Y-142706575D01*
X144816012Y-142706575D02*
X144722405Y-142824530D01*
X144722405Y-142824530D02*
X143989997Y-143166057D01*
X143989997Y-143166057D02*
X144571712Y-143377784D01*
X145239137Y-142657879D02*
X145300171Y-142629418D01*
X145300171Y-142629418D02*
X145405952Y-142617244D01*
X145405952Y-142617244D02*
X145629688Y-142698678D01*
X145629688Y-142698678D02*
X145702896Y-142775998D01*
X145702896Y-142775998D02*
X145731357Y-142837032D01*
X145731357Y-142837032D02*
X145743531Y-142942814D01*
X145743531Y-142942814D02*
X145710957Y-143032308D01*
X145710957Y-143032308D02*
X145617350Y-143150263D01*
X145617350Y-143150263D02*
X144884943Y-143491790D01*
X144884943Y-143491790D02*
X145466657Y-143703517D01*
X159129306Y-150042112D02*
X159229214Y-150154780D01*
X159229214Y-150154780D02*
X159435411Y-150273828D01*
X159435411Y-150273828D02*
X159541699Y-150280207D01*
X159541699Y-150280207D02*
X159606748Y-150262778D01*
X159606748Y-150262778D02*
X159695606Y-150204109D01*
X159695606Y-150204109D02*
X159743225Y-150121630D01*
X159743225Y-150121630D02*
X159749605Y-150015342D01*
X159749605Y-150015342D02*
X159732175Y-149950293D01*
X159732175Y-149950293D02*
X159673506Y-149861435D01*
X159673506Y-149861435D02*
X159532358Y-149724957D01*
X159532358Y-149724957D02*
X159473689Y-149636099D01*
X159473689Y-149636099D02*
X159456260Y-149571050D01*
X159456260Y-149571050D02*
X159462639Y-149464762D01*
X159462639Y-149464762D02*
X159510258Y-149382283D01*
X159510258Y-149382283D02*
X159599117Y-149323614D01*
X159599117Y-149323614D02*
X159664165Y-149306184D01*
X159664165Y-149306184D02*
X159770454Y-149312564D01*
X159770454Y-149312564D02*
X159976650Y-149431612D01*
X159976650Y-149431612D02*
X160076559Y-149544280D01*
X160389043Y-149669707D02*
X160095240Y-150654780D01*
X160095240Y-150654780D02*
X160617340Y-150131429D01*
X160617340Y-150131429D02*
X160425154Y-150845256D01*
X160425154Y-150845256D02*
X161131351Y-150098278D01*
X161372407Y-150347424D02*
X161437456Y-150329994D01*
X161437456Y-150329994D02*
X161543744Y-150336374D01*
X161543744Y-150336374D02*
X161749940Y-150455421D01*
X161749940Y-150455421D02*
X161808609Y-150544280D01*
X161808609Y-150544280D02*
X161826039Y-150609328D01*
X161826039Y-150609328D02*
X161819659Y-150715617D01*
X161819659Y-150715617D02*
X161772040Y-150798095D01*
X161772040Y-150798095D02*
X161659372Y-150898004D01*
X161659372Y-150898004D02*
X160878786Y-151107161D01*
X160878786Y-151107161D02*
X161414897Y-151416685D01*
X162657205Y-150979231D02*
X162492248Y-150883993D01*
X162492248Y-150883993D02*
X162385960Y-150877613D01*
X162385960Y-150877613D02*
X162320911Y-150895043D01*
X162320911Y-150895043D02*
X162167004Y-150971142D01*
X162167004Y-150971142D02*
X162030526Y-151112289D01*
X162030526Y-151112289D02*
X161840050Y-151442204D01*
X161840050Y-151442204D02*
X161833670Y-151548492D01*
X161833670Y-151548492D02*
X161851100Y-151613541D01*
X161851100Y-151613541D02*
X161909769Y-151702399D01*
X161909769Y-151702399D02*
X162074726Y-151797637D01*
X162074726Y-151797637D02*
X162181014Y-151804017D01*
X162181014Y-151804017D02*
X162246063Y-151786587D01*
X162246063Y-151786587D02*
X162334922Y-151727918D01*
X162334922Y-151727918D02*
X162453969Y-151521721D01*
X162453969Y-151521721D02*
X162460349Y-151415433D01*
X162460349Y-151415433D02*
X162442919Y-151350385D01*
X162442919Y-151350385D02*
X162384250Y-151261526D01*
X162384250Y-151261526D02*
X162219293Y-151166288D01*
X162219293Y-151166288D02*
X162113005Y-151159908D01*
X162113005Y-151159908D02*
X162047956Y-151177338D01*
X162047956Y-151177338D02*
X161959098Y-151236007D01*
X40730325Y-127093074D02*
X40254134Y-127426407D01*
X40730325Y-127664502D02*
X39730325Y-127664502D01*
X39730325Y-127664502D02*
X39730325Y-127283550D01*
X39730325Y-127283550D02*
X39777944Y-127188312D01*
X39777944Y-127188312D02*
X39825563Y-127140693D01*
X39825563Y-127140693D02*
X39920801Y-127093074D01*
X39920801Y-127093074D02*
X40063658Y-127093074D01*
X40063658Y-127093074D02*
X40158896Y-127140693D01*
X40158896Y-127140693D02*
X40206515Y-127188312D01*
X40206515Y-127188312D02*
X40254134Y-127283550D01*
X40254134Y-127283550D02*
X40254134Y-127664502D01*
X40206515Y-126664502D02*
X40206515Y-126331169D01*
X40730325Y-126188312D02*
X40730325Y-126664502D01*
X40730325Y-126664502D02*
X39730325Y-126664502D01*
X39730325Y-126664502D02*
X39730325Y-126188312D01*
X40206515Y-125426407D02*
X40206515Y-125759740D01*
X40730325Y-125759740D02*
X39730325Y-125759740D01*
X39730325Y-125759740D02*
X39730325Y-125283550D01*
X39730325Y-124759740D02*
X39968420Y-124759740D01*
X39873182Y-124997835D02*
X39968420Y-124759740D01*
X39968420Y-124759740D02*
X39873182Y-124521645D01*
X40158896Y-124902597D02*
X39968420Y-124759740D01*
X39968420Y-124759740D02*
X40158896Y-124616883D01*
X39730325Y-123997835D02*
X39968420Y-123997835D01*
X39873182Y-124235930D02*
X39968420Y-123997835D01*
X39968420Y-123997835D02*
X39873182Y-123759740D01*
X40158896Y-124140692D02*
X39968420Y-123997835D01*
X39968420Y-123997835D02*
X40158896Y-123854978D01*
X167078794Y-108977225D02*
X166602603Y-109310558D01*
X167078794Y-109548653D02*
X166078794Y-109548653D01*
X166078794Y-109548653D02*
X166078794Y-109167701D01*
X166078794Y-109167701D02*
X166126413Y-109072463D01*
X166126413Y-109072463D02*
X166174032Y-109024844D01*
X166174032Y-109024844D02*
X166269270Y-108977225D01*
X166269270Y-108977225D02*
X166412127Y-108977225D01*
X166412127Y-108977225D02*
X166507365Y-109024844D01*
X166507365Y-109024844D02*
X166554984Y-109072463D01*
X166554984Y-109072463D02*
X166602603Y-109167701D01*
X166602603Y-109167701D02*
X166602603Y-109548653D01*
X166554984Y-108548653D02*
X166554984Y-108215320D01*
X167078794Y-108072463D02*
X167078794Y-108548653D01*
X167078794Y-108548653D02*
X166078794Y-108548653D01*
X166078794Y-108548653D02*
X166078794Y-108072463D01*
X166554984Y-107310558D02*
X166554984Y-107643891D01*
X167078794Y-107643891D02*
X166078794Y-107643891D01*
X166078794Y-107643891D02*
X166078794Y-107167701D01*
X166078794Y-106643891D02*
X166316889Y-106643891D01*
X166221651Y-106881986D02*
X166316889Y-106643891D01*
X166316889Y-106643891D02*
X166221651Y-106405796D01*
X166507365Y-106786748D02*
X166316889Y-106643891D01*
X166316889Y-106643891D02*
X166507365Y-106501034D01*
X166078794Y-105881986D02*
X166316889Y-105881986D01*
X166221651Y-106120081D02*
X166316889Y-105881986D01*
X166316889Y-105881986D02*
X166221651Y-105643891D01*
X166507365Y-106024843D02*
X166316889Y-105881986D01*
X166316889Y-105881986D02*
X166507365Y-105739129D01*
X78549597Y-131389812D02*
X78216264Y-130913621D01*
X77978169Y-131389812D02*
X77978169Y-130389812D01*
X77978169Y-130389812D02*
X78359121Y-130389812D01*
X78359121Y-130389812D02*
X78454359Y-130437431D01*
X78454359Y-130437431D02*
X78501978Y-130485050D01*
X78501978Y-130485050D02*
X78549597Y-130580288D01*
X78549597Y-130580288D02*
X78549597Y-130723145D01*
X78549597Y-130723145D02*
X78501978Y-130818383D01*
X78501978Y-130818383D02*
X78454359Y-130866002D01*
X78454359Y-130866002D02*
X78359121Y-130913621D01*
X78359121Y-130913621D02*
X77978169Y-130913621D01*
X78978169Y-130866002D02*
X79311502Y-130866002D01*
X79454359Y-131389812D02*
X78978169Y-131389812D01*
X78978169Y-131389812D02*
X78978169Y-130389812D01*
X78978169Y-130389812D02*
X79454359Y-130389812D01*
X80216264Y-130866002D02*
X79882931Y-130866002D01*
X79882931Y-131389812D02*
X79882931Y-130389812D01*
X79882931Y-130389812D02*
X80359121Y-130389812D01*
X80882931Y-130389812D02*
X80882931Y-130627907D01*
X80644836Y-130532669D02*
X80882931Y-130627907D01*
X80882931Y-130627907D02*
X81121026Y-130532669D01*
X80740074Y-130818383D02*
X80882931Y-130627907D01*
X80882931Y-130627907D02*
X81025788Y-130818383D01*
X81644836Y-130389812D02*
X81644836Y-130627907D01*
X81406741Y-130532669D02*
X81644836Y-130627907D01*
X81644836Y-130627907D02*
X81882931Y-130532669D01*
X81501979Y-130818383D02*
X81644836Y-130627907D01*
X81644836Y-130627907D02*
X81787693Y-130818383D01*
X86311873Y-122824196D02*
X86311873Y-124825716D01*
X86311873Y-124825716D02*
X89314153Y-124825716D01*
X89314153Y-122824196D02*
X86311873Y-122824196D01*
X89314153Y-124825716D02*
X89314153Y-122824196D01*
X86311873Y-126024196D02*
X86311873Y-128025716D01*
X86311873Y-128025716D02*
X89314153Y-128025716D01*
X89314153Y-126024196D02*
X86311873Y-126024196D01*
X89314153Y-128025716D02*
X89314153Y-126024196D01*
X47500071Y-77655307D02*
X47500071Y-79155307D01*
X47500071Y-79155307D02*
X52900071Y-79155307D01*
X49700071Y-77905307D02*
X49700071Y-78905307D01*
X49800071Y-78405307D02*
X50700071Y-77905307D01*
X50700071Y-77905307D02*
X50700071Y-78905307D01*
X50700071Y-78905307D02*
X49800071Y-78405307D01*
X52900071Y-77655307D02*
X47500071Y-77655307D01*
X52900071Y-79155307D02*
X52900071Y-77655307D01*
X47417758Y-96873066D02*
X47417758Y-98373066D01*
X47417758Y-98373066D02*
X52817758Y-98373066D01*
X49617758Y-97123066D02*
X49617758Y-98123066D01*
X49717758Y-97623066D02*
X50617758Y-97123066D01*
X50617758Y-97123066D02*
X50617758Y-98123066D01*
X50617758Y-98123066D02*
X49717758Y-97623066D01*
X52817758Y-96873066D02*
X47417758Y-96873066D01*
X52817758Y-98373066D02*
X52817758Y-96873066D01*
X47259357Y-115540587D02*
X47259357Y-117040587D01*
X47259357Y-117040587D02*
X52659357Y-117040587D01*
X49459357Y-115790587D02*
X49459357Y-116790587D01*
X49559357Y-116290587D02*
X50459357Y-115790587D01*
X50459357Y-115790587D02*
X50459357Y-116790587D01*
X50459357Y-116790587D02*
X49559357Y-116290587D01*
X52659357Y-115540587D02*
X47259357Y-115540587D01*
X52659357Y-117040587D02*
X52659357Y-115540587D01*
X66342293Y-77770954D02*
X66342293Y-79270954D01*
X66342293Y-79270954D02*
X71742293Y-79270954D01*
X68542293Y-78020954D02*
X68542293Y-79020954D01*
X68642293Y-78520954D02*
X69542293Y-78020954D01*
X69542293Y-78020954D02*
X69542293Y-79020954D01*
X69542293Y-79020954D02*
X68642293Y-78520954D01*
X71742293Y-77770954D02*
X66342293Y-77770954D01*
X71742293Y-79270954D02*
X71742293Y-77770954D01*
X66291633Y-96832678D02*
X66291633Y-98332678D01*
X66291633Y-98332678D02*
X71691633Y-98332678D01*
X68491633Y-97082678D02*
X68491633Y-98082678D01*
X68591633Y-97582678D02*
X69491633Y-97082678D01*
X69491633Y-97082678D02*
X69491633Y-98082678D01*
X69491633Y-98082678D02*
X68591633Y-97582678D01*
X71691633Y-96832678D02*
X66291633Y-96832678D01*
X71691633Y-98332678D02*
X71691633Y-96832678D01*
X85400532Y-75836188D02*
X85400532Y-77336188D01*
X85400532Y-77336188D02*
X90800532Y-77336188D01*
X87600532Y-76086188D02*
X87600532Y-77086188D01*
X87700532Y-76586188D02*
X88600532Y-76086188D01*
X88600532Y-76086188D02*
X88600532Y-77086188D01*
X88600532Y-77086188D02*
X87700532Y-76586188D01*
X90800532Y-75836188D02*
X85400532Y-75836188D01*
X90800532Y-77336188D02*
X90800532Y-75836188D01*
X85438206Y-95032531D02*
X85438206Y-96532531D01*
X85438206Y-96532531D02*
X90838206Y-96532531D01*
X87638206Y-95282531D02*
X87638206Y-96282531D01*
X87738206Y-95782531D02*
X88638206Y-95282531D01*
X88638206Y-95282531D02*
X88638206Y-96282531D01*
X88638206Y-96282531D02*
X87738206Y-95782531D01*
X90838206Y-95032531D02*
X85438206Y-95032531D01*
X90838206Y-96532531D02*
X90838206Y-95032531D01*
X84807186Y-114035930D02*
X84807186Y-115535930D01*
X84807186Y-115535930D02*
X90207186Y-115535930D01*
X87007186Y-114285930D02*
X87007186Y-115285930D01*
X87107186Y-114785930D02*
X88007186Y-114285930D01*
X88007186Y-114285930D02*
X88007186Y-115285930D01*
X88007186Y-115285930D02*
X87107186Y-114785930D01*
X90207186Y-114035930D02*
X84807186Y-114035930D01*
X90207186Y-115535930D02*
X90207186Y-114035930D01*
X104435943Y-72077307D02*
X104435943Y-73577307D01*
X104435943Y-73577307D02*
X109835943Y-73577307D01*
X106635943Y-72327307D02*
X106635943Y-73327307D01*
X106735943Y-72827307D02*
X107635943Y-72327307D01*
X107635943Y-72327307D02*
X107635943Y-73327307D01*
X107635943Y-73327307D02*
X106735943Y-72827307D01*
X109835943Y-72077307D02*
X104435943Y-72077307D01*
X109835943Y-73577307D02*
X109835943Y-72077307D01*
X104560949Y-91118870D02*
X104560949Y-92618870D01*
X104560949Y-92618870D02*
X109960949Y-92618870D01*
X106760949Y-91368870D02*
X106760949Y-92368870D01*
X106860949Y-91868870D02*
X107760949Y-91368870D01*
X107760949Y-91368870D02*
X107760949Y-92368870D01*
X107760949Y-92368870D02*
X106860949Y-91868870D01*
X109960949Y-91118870D02*
X104560949Y-91118870D01*
X109960949Y-92618870D02*
X109960949Y-91118870D01*
X104943127Y-110287794D02*
X104943127Y-111787794D01*
X104943127Y-111787794D02*
X110343127Y-111787794D01*
X107143127Y-110537794D02*
X107143127Y-111537794D01*
X107243127Y-111037794D02*
X108143127Y-110537794D01*
X108143127Y-110537794D02*
X108143127Y-111537794D01*
X108143127Y-111537794D02*
X107243127Y-111037794D01*
X110343127Y-110287794D02*
X104943127Y-110287794D01*
X110343127Y-111787794D02*
X110343127Y-110287794D01*
X104417381Y-117379184D02*
X104417381Y-118879184D01*
X104417381Y-118879184D02*
X109817381Y-118879184D01*
X106617381Y-117629184D02*
X106617381Y-118629184D01*
X106717381Y-118129184D02*
X107617381Y-117629184D01*
X107617381Y-117629184D02*
X107617381Y-118629184D01*
X107617381Y-118629184D02*
X106717381Y-118129184D01*
X109817381Y-117379184D02*
X104417381Y-117379184D01*
X109817381Y-118879184D02*
X109817381Y-117379184D01*
X123433957Y-75856883D02*
X123433957Y-77356883D01*
X123433957Y-77356883D02*
X128833957Y-77356883D01*
X125633957Y-76106883D02*
X125633957Y-77106883D01*
X125733957Y-76606883D02*
X126633957Y-76106883D01*
X126633957Y-76106883D02*
X126633957Y-77106883D01*
X126633957Y-77106883D02*
X125733957Y-76606883D01*
X128833957Y-75856883D02*
X123433957Y-75856883D01*
X128833957Y-77356883D02*
X128833957Y-75856883D01*
X123508584Y-94723267D02*
X123508584Y-96223267D01*
X123508584Y-96223267D02*
X128908584Y-96223267D01*
X125708584Y-94973267D02*
X125708584Y-95973267D01*
X125808584Y-95473267D02*
X126708584Y-94973267D01*
X126708584Y-94973267D02*
X126708584Y-95973267D01*
X126708584Y-95973267D02*
X125808584Y-95473267D01*
X128908584Y-94723267D02*
X123508584Y-94723267D01*
X128908584Y-96223267D02*
X128908584Y-94723267D01*
X123684537Y-113815608D02*
X123684537Y-115315608D01*
X123684537Y-115315608D02*
X129084537Y-115315608D01*
X125884537Y-114065608D02*
X125884537Y-115065608D01*
X125984537Y-114565608D02*
X126884537Y-114065608D01*
X126884537Y-114065608D02*
X126884537Y-115065608D01*
X126884537Y-115065608D02*
X125984537Y-114565608D01*
X129084537Y-113815608D02*
X123684537Y-113815608D01*
X129084537Y-115315608D02*
X129084537Y-113815608D01*
X126710449Y-119836245D02*
X132028411Y-120773945D01*
X126970921Y-118359033D02*
X126710449Y-119836245D01*
X129094086Y-118987261D02*
X128920438Y-119972069D01*
X129105743Y-119497030D02*
X130078894Y-119160909D01*
X129905246Y-120145717D02*
X129105743Y-119497030D01*
X130078894Y-119160909D02*
X129905246Y-120145717D01*
X132028411Y-120773945D02*
X132288883Y-119296733D01*
X132288883Y-119296733D02*
X126970921Y-118359033D01*
X142322415Y-79682207D02*
X142322415Y-81182207D01*
X142322415Y-81182207D02*
X147722415Y-81182207D01*
X144522415Y-79932207D02*
X144522415Y-80932207D01*
X144622415Y-80432207D02*
X145522415Y-79932207D01*
X145522415Y-79932207D02*
X145522415Y-80932207D01*
X145522415Y-80932207D02*
X144622415Y-80432207D01*
X147722415Y-79682207D02*
X142322415Y-79682207D01*
X147722415Y-81182207D02*
X147722415Y-79682207D01*
X142547956Y-98690777D02*
X142547956Y-100190777D01*
X142547956Y-100190777D02*
X147947956Y-100190777D01*
X144747956Y-98940777D02*
X144747956Y-99940777D01*
X144847956Y-99440777D02*
X145747956Y-98940777D01*
X145747956Y-98940777D02*
X145747956Y-99940777D01*
X145747956Y-99940777D02*
X144847956Y-99440777D01*
X147947956Y-98690777D02*
X142547956Y-98690777D01*
X147947956Y-100190777D02*
X147947956Y-98690777D01*
X139241447Y-117734079D02*
X139241447Y-119234079D01*
X139241447Y-119234079D02*
X144641447Y-119234079D01*
X141441447Y-117984079D02*
X141441447Y-118984079D01*
X141541447Y-118484079D02*
X142441447Y-117984079D01*
X142441447Y-117984079D02*
X142441447Y-118984079D01*
X142441447Y-118984079D02*
X141541447Y-118484079D01*
X144641447Y-117734079D02*
X139241447Y-117734079D01*
X144641447Y-119234079D02*
X144641447Y-117734079D01*
X161450290Y-83524501D02*
X161450290Y-85024501D01*
X161450290Y-85024501D02*
X166850290Y-85024501D01*
X163650290Y-83774501D02*
X163650290Y-84774501D01*
X163750290Y-84274501D02*
X164650290Y-83774501D01*
X164650290Y-83774501D02*
X164650290Y-84774501D01*
X164650290Y-84774501D02*
X163750290Y-84274501D01*
X166850290Y-83524501D02*
X161450290Y-83524501D01*
X166850290Y-85024501D02*
X166850290Y-83524501D01*
X156567977Y-102653297D02*
X156567977Y-104153297D01*
X156567977Y-104153297D02*
X161967977Y-104153297D01*
X158767977Y-102903297D02*
X158767977Y-103903297D01*
X158867977Y-103403297D02*
X159767977Y-102903297D01*
X159767977Y-102903297D02*
X159767977Y-103903297D01*
X159767977Y-103903297D02*
X158867977Y-103403297D01*
X161967977Y-102653297D02*
X156567977Y-102653297D01*
X161967977Y-104153297D02*
X161967977Y-102653297D01*
X156566529Y-104994597D02*
X156566529Y-106494597D01*
X156566529Y-106494597D02*
X161966529Y-106494597D01*
X158766529Y-105244597D02*
X158766529Y-106244597D01*
X158866529Y-105744597D02*
X159766529Y-105244597D01*
X159766529Y-105244597D02*
X159766529Y-106244597D01*
X159766529Y-106244597D02*
X158866529Y-105744597D01*
X161966529Y-104994597D02*
X156566529Y-104994597D01*
X161966529Y-106494597D02*
X161966529Y-104994597D01*
X160529249Y-130609770D02*
X165205786Y-133309769D01*
X161279248Y-129310731D02*
X160529249Y-130609770D01*
X162896107Y-131110250D02*
X163925530Y-131127237D01*
X163059504Y-130627237D02*
X162559504Y-131493263D01*
X163425530Y-131993263D02*
X162896107Y-131110250D01*
X163925530Y-131127237D02*
X163425530Y-131993263D01*
X165205786Y-133309769D02*
X165955785Y-132010730D01*
X165955785Y-132010730D02*
X161279248Y-129310731D01*
X91913013Y-122824956D02*
X91913013Y-124824956D01*
X91913013Y-124824956D02*
X93913013Y-124824956D01*
X93913013Y-122824956D02*
X91913013Y-122824956D01*
X93913013Y-124824956D02*
X93913013Y-122824956D01*
X91913013Y-126024956D02*
X91913013Y-128024956D01*
X91913013Y-128024956D02*
X93913013Y-128024956D01*
X93913013Y-126024956D02*
X91913013Y-126024956D01*
X93913013Y-128024956D02*
X93913013Y-126024956D01*
X86982387Y-128879586D02*
X86982387Y-129129586D01*
X86982387Y-132379586D02*
X86982387Y-132129586D01*
X92982387Y-128879586D02*
X86982387Y-128879586D01*
X92982387Y-128879586D02*
X92982387Y-129129586D01*
X92982387Y-132379586D02*
X86982387Y-132379586D01*
X92982387Y-132379586D02*
X92982387Y-132129586D01*
X43542000Y-116873600D02*
X74022000Y-116873600D01*
X43542000Y-119413600D02*
X43542000Y-116873600D01*
X43542000Y-132093600D02*
X74022000Y-132093600D01*
X43542000Y-134633600D02*
X43542000Y-132093600D01*
X74022000Y-116873600D02*
X74022000Y-119413600D01*
X74022000Y-119413600D02*
X43542000Y-119413600D01*
X74022000Y-132093600D02*
X74022000Y-134633600D01*
X74022000Y-134633600D02*
X43542000Y-134633600D01*
D14*
X42400000Y-61450000D02*
X42400000Y-76650000D01*
X42400000Y-76650000D02*
X57600000Y-76650000D01*
X57600000Y-61450000D02*
X42400000Y-61450000D01*
X57600000Y-76650000D02*
X57600000Y-61450000D01*
X42400000Y-80500000D02*
X42400000Y-95700000D01*
X42400000Y-95700000D02*
X57600000Y-95700000D01*
X57600000Y-80500000D02*
X42400000Y-80500000D01*
X57600000Y-95700000D02*
X57600000Y-80500000D01*
X42400000Y-99550000D02*
X42400000Y-114750000D01*
X42400000Y-114750000D02*
X57600000Y-114750000D01*
X57600000Y-99550000D02*
X42400000Y-99550000D01*
X57600000Y-114750000D02*
X57600000Y-99550000D01*
X61450000Y-61450000D02*
X61450000Y-76650000D01*
X61450000Y-76650000D02*
X76650000Y-76650000D01*
X76650000Y-61450000D02*
X61450000Y-61450000D01*
X76650000Y-76650000D02*
X76650000Y-61450000D01*
X61450000Y-80500000D02*
X61450000Y-95700000D01*
X61450000Y-95700000D02*
X76650000Y-95700000D01*
X76650000Y-80500000D02*
X61450000Y-80500000D01*
X76650000Y-95700000D02*
X76650000Y-80500000D01*
X61450000Y-99550000D02*
X61450000Y-114750000D01*
X61450000Y-114750000D02*
X76650000Y-114750000D01*
X76650000Y-99550000D02*
X61450000Y-99550000D01*
X76650000Y-114750000D02*
X76650000Y-99550000D01*
X80500000Y-59545000D02*
X80500000Y-74745000D01*
X80500000Y-74745000D02*
X95700000Y-74745000D01*
X95700000Y-59545000D02*
X80500000Y-59545000D01*
X95700000Y-74745000D02*
X95700000Y-59545000D01*
X80500000Y-78595000D02*
X80500000Y-93795000D01*
X80500000Y-93795000D02*
X95700000Y-93795000D01*
X95700000Y-78595000D02*
X80500000Y-78595000D01*
X95700000Y-93795000D02*
X95700000Y-78595000D01*
X80500000Y-97645000D02*
X80500000Y-112845000D01*
X80500000Y-112845000D02*
X95700000Y-112845000D01*
X95700000Y-97645000D02*
X80500000Y-97645000D01*
X95700000Y-112845000D02*
X95700000Y-97645000D01*
X99550000Y-55735000D02*
X99550000Y-70935000D01*
X99550000Y-70935000D02*
X114750000Y-70935000D01*
X114750000Y-55735000D02*
X99550000Y-55735000D01*
X114750000Y-70935000D02*
X114750000Y-55735000D01*
X99550000Y-74785000D02*
X99550000Y-89985000D01*
X99550000Y-89985000D02*
X114750000Y-89985000D01*
X114750000Y-74785000D02*
X99550000Y-74785000D01*
X114750000Y-89985000D02*
X114750000Y-74785000D01*
X99550000Y-93835000D02*
X99550000Y-109035000D01*
X99550000Y-109035000D02*
X114750000Y-109035000D01*
X114750000Y-93835000D02*
X99550000Y-93835000D01*
X114750000Y-109035000D02*
X114750000Y-93835000D01*
X118600000Y-59545000D02*
X118600000Y-74745000D01*
X118600000Y-74745000D02*
X133800000Y-74745000D01*
X133800000Y-59545000D02*
X118600000Y-59545000D01*
X133800000Y-74745000D02*
X133800000Y-59545000D01*
X118600000Y-78595000D02*
X118600000Y-93795000D01*
X118600000Y-93795000D02*
X133800000Y-93795000D01*
X133800000Y-78595000D02*
X118600000Y-78595000D01*
X133800000Y-93795000D02*
X133800000Y-78595000D01*
X118600000Y-97645000D02*
X118600000Y-112845000D01*
X118600000Y-112845000D02*
X133800000Y-112845000D01*
X133800000Y-97645000D02*
X118600000Y-97645000D01*
X133800000Y-112845000D02*
X133800000Y-97645000D01*
X137650000Y-63355000D02*
X137650000Y-78555000D01*
X137650000Y-78555000D02*
X152850000Y-78555000D01*
X152850000Y-63355000D02*
X137650000Y-63355000D01*
X152850000Y-78555000D02*
X152850000Y-63355000D01*
X137650000Y-82405000D02*
X137650000Y-97605000D01*
X137650000Y-97605000D02*
X152850000Y-97605000D01*
X152850000Y-82405000D02*
X137650000Y-82405000D01*
X152850000Y-97605000D02*
X152850000Y-82405000D01*
X137650000Y-101455000D02*
X137650000Y-116655000D01*
X137650000Y-116655000D02*
X152850000Y-116655000D01*
X152850000Y-101455000D02*
X137650000Y-101455000D01*
X152850000Y-116655000D02*
X152850000Y-101455000D01*
X156700000Y-67165000D02*
X156700000Y-82365000D01*
X156700000Y-82365000D02*
X171900000Y-82365000D01*
X171900000Y-67165000D02*
X156700000Y-67165000D01*
X171900000Y-82365000D02*
X171900000Y-67165000D01*
X156700000Y-86215000D02*
X156700000Y-101415000D01*
X156700000Y-101415000D02*
X171900000Y-101415000D01*
X171900000Y-86215000D02*
X156700000Y-86215000D01*
X171900000Y-101415000D02*
X171900000Y-86215000D01*
X154265856Y-124151747D02*
X168151747Y-130334144D01*
X160448253Y-110265856D02*
X154265856Y-124151747D01*
X168151747Y-130334144D02*
X174334144Y-116448253D01*
X174334144Y-116448253D02*
X160448253Y-110265856D01*
D11*
X83330392Y-129320292D02*
X85108392Y-129320292D01*
X83330392Y-131606292D02*
X83330392Y-129320292D01*
X85108392Y-129320292D02*
X85108392Y-131606292D01*
X85108392Y-131606292D02*
X83330392Y-131606292D01*
X149677213Y-126638806D02*
X154751553Y-128485715D01*
X150190243Y-125229267D02*
X149677213Y-126638806D01*
X152095021Y-126720683D02*
X153111754Y-126558655D01*
X152172062Y-126216635D02*
X151830042Y-127156327D01*
X152769734Y-127498347D02*
X152095021Y-126720683D01*
X153111754Y-126558655D02*
X152769734Y-127498347D01*
X154751553Y-128485715D02*
X155264583Y-127076176D01*
X155264583Y-127076176D02*
X150190243Y-125229267D01*
D14*
X118495735Y-135064813D02*
X133464813Y-137704265D01*
X121135187Y-120095735D02*
X118495735Y-135064813D01*
X133464813Y-137704265D02*
X136104265Y-122735187D01*
X136104265Y-122735187D02*
X121135187Y-120095735D01*
X99550000Y-119500000D02*
X99550000Y-134700000D01*
X99550000Y-134700000D02*
X114750000Y-134700000D01*
X114750000Y-119500000D02*
X99550000Y-119500000D01*
X114750000Y-134700000D02*
X114750000Y-119500000D01*
X137258983Y-138742311D02*
X151542311Y-143941017D01*
X142457689Y-124458983D02*
X137258983Y-138742311D01*
X151542311Y-143941017D02*
X156741017Y-129657689D01*
X156741017Y-129657689D02*
X142457689Y-124458983D01*
X155018207Y-145581793D02*
X168181793Y-153181793D01*
X162618207Y-132418207D02*
X155018207Y-145581793D01*
X168181793Y-153181793D02*
X175781793Y-140018207D01*
X175781793Y-140018207D02*
X162618207Y-132418207D01*
D15*
X50558159Y-122299655D02*
X50697824Y-122401013D01*
X50772671Y-122546465D01*
X50779930Y-122716799D01*
X50716834Y-122892806D01*
X50580612Y-123055276D01*
X50481233Y-123127256D01*
X50266882Y-123214687D01*
X50073546Y-123205137D01*
X49909890Y-123102109D01*
X49799908Y-122930380D01*
X49785297Y-122740588D01*
X49865047Y-122546804D01*
X49957920Y-122434319D01*
X50087931Y-122322325D01*
X50211372Y-122272136D01*
X50356446Y-122261600D01*
X50558159Y-122299655D01*
G36*
X50558159Y-122299655D02*
G01*
X50697824Y-122401013D01*
X50772671Y-122546465D01*
X50779930Y-122716799D01*
X50716834Y-122892806D01*
X50580612Y-123055276D01*
X50481233Y-123127256D01*
X50266882Y-123214687D01*
X50073546Y-123205137D01*
X49909890Y-123102109D01*
X49799908Y-122930380D01*
X49785297Y-122740588D01*
X49865047Y-122546804D01*
X49957920Y-122434319D01*
X50087931Y-122322325D01*
X50211372Y-122272136D01*
X50356446Y-122261600D01*
X50558159Y-122299655D01*
G37*
X50096933Y-123380908D02*
X50293995Y-123387193D01*
X50420836Y-123399791D01*
X50493129Y-123420439D01*
X50526541Y-123450875D01*
X50530052Y-123458586D01*
X50529059Y-123527896D01*
X50510866Y-123677995D01*
X50478754Y-123890161D01*
X50436002Y-124145668D01*
X50385891Y-124425793D01*
X50331702Y-124711811D01*
X50276714Y-124984998D01*
X50224208Y-125226629D01*
X50208468Y-125294220D01*
X50201547Y-125357051D01*
X50233216Y-125392550D01*
X50325137Y-125410891D01*
X50478865Y-125421220D01*
X50775800Y-125436600D01*
X50764048Y-125710951D01*
X50751301Y-125883663D01*
X50720245Y-126007040D01*
X50655943Y-126089342D01*
X50543456Y-126138829D01*
X50367848Y-126163762D01*
X50114179Y-126172400D01*
X49928132Y-126173200D01*
X49651853Y-126171310D01*
X49461224Y-126164425D01*
X49340344Y-126150722D01*
X49273311Y-126128376D01*
X49244225Y-126095563D01*
X49243895Y-126094718D01*
X49245216Y-126027702D01*
X49262611Y-125880715D01*
X49292688Y-125673502D01*
X49332055Y-125425812D01*
X49377320Y-125157390D01*
X49425090Y-124887982D01*
X49471973Y-124637336D01*
X49514577Y-124425197D01*
X49549510Y-124271312D01*
X49568120Y-124207366D01*
X49541974Y-124167534D01*
X49424406Y-124141523D01*
X49294311Y-124131166D01*
X48997800Y-124115800D01*
X49004153Y-123857618D01*
X49011664Y-123677501D01*
X49033919Y-123549428D01*
X49085935Y-123464527D01*
X49182730Y-123413926D01*
X49339323Y-123388753D01*
X49570732Y-123380135D01*
X49813981Y-123379200D01*
X50096933Y-123380908D01*
G36*
X50096933Y-123380908D02*
G01*
X50293995Y-123387193D01*
X50420836Y-123399791D01*
X50493129Y-123420439D01*
X50526541Y-123450875D01*
X50530052Y-123458586D01*
X50529059Y-123527896D01*
X50510866Y-123677995D01*
X50478754Y-123890161D01*
X50436002Y-124145668D01*
X50385891Y-124425793D01*
X50331702Y-124711811D01*
X50276714Y-124984998D01*
X50224208Y-125226629D01*
X50208468Y-125294220D01*
X50201547Y-125357051D01*
X50233216Y-125392550D01*
X50325137Y-125410891D01*
X50478865Y-125421220D01*
X50775800Y-125436600D01*
X50764048Y-125710951D01*
X50751301Y-125883663D01*
X50720245Y-126007040D01*
X50655943Y-126089342D01*
X50543456Y-126138829D01*
X50367848Y-126163762D01*
X50114179Y-126172400D01*
X49928132Y-126173200D01*
X49651853Y-126171310D01*
X49461224Y-126164425D01*
X49340344Y-126150722D01*
X49273311Y-126128376D01*
X49244225Y-126095563D01*
X49243895Y-126094718D01*
X49245216Y-126027702D01*
X49262611Y-125880715D01*
X49292688Y-125673502D01*
X49332055Y-125425812D01*
X49377320Y-125157390D01*
X49425090Y-124887982D01*
X49471973Y-124637336D01*
X49514577Y-124425197D01*
X49549510Y-124271312D01*
X49568120Y-124207366D01*
X49541974Y-124167534D01*
X49424406Y-124141523D01*
X49294311Y-124131166D01*
X48997800Y-124115800D01*
X49004153Y-123857618D01*
X49011664Y-123677501D01*
X49033919Y-123549428D01*
X49085935Y-123464527D01*
X49182730Y-123413926D01*
X49339323Y-123388753D01*
X49570732Y-123380135D01*
X49813981Y-123379200D01*
X50096933Y-123380908D01*
G37*
X47308700Y-122415006D02*
X47789017Y-122430938D01*
X48177897Y-122479056D01*
X48481477Y-122563233D01*
X48705895Y-122687340D01*
X48857289Y-122855252D01*
X48941795Y-123070841D01*
X48965553Y-123337980D01*
X48959693Y-123456788D01*
X48881324Y-123827613D01*
X48716246Y-124165380D01*
X48477208Y-124457776D01*
X48176960Y-124692486D01*
X47828253Y-124857196D01*
X47443837Y-124939593D01*
X47422479Y-124941446D01*
X47240110Y-124960435D01*
X47135554Y-124986602D01*
X47085038Y-125028939D01*
X47068605Y-125075318D01*
X47047291Y-125182655D01*
X47015702Y-125348559D01*
X46989863Y-125487400D01*
X46930471Y-125775438D01*
X46873669Y-125973453D01*
X46815406Y-126092805D01*
X46755988Y-126143307D01*
X46659082Y-126161384D01*
X46508529Y-126170825D01*
X46338971Y-126171826D01*
X46185052Y-126164585D01*
X46081416Y-126149302D01*
X46059866Y-126139333D01*
X46041126Y-126107561D01*
X46031753Y-126051832D01*
X46033131Y-125962634D01*
X46046645Y-125830458D01*
X46073677Y-125645796D01*
X46115614Y-125399136D01*
X46173839Y-125080969D01*
X46249735Y-124681787D01*
X46339220Y-124220127D01*
X46352317Y-124153900D01*
X47247523Y-124153900D01*
X47286855Y-124187314D01*
X47391887Y-124186094D01*
X47533739Y-124152718D01*
X47615131Y-124122347D01*
X47836208Y-123981098D01*
X47984904Y-123784488D01*
X48042032Y-123597985D01*
X48042186Y-123435344D01*
X47981191Y-123332622D01*
X47845952Y-123277949D01*
X47669877Y-123260625D01*
X47429465Y-123252200D01*
X47339656Y-123684000D01*
X47298851Y-123883106D01*
X47267151Y-124043315D01*
X47249517Y-124139314D01*
X47247523Y-124153900D01*
X46352317Y-124153900D01*
X46436171Y-123729910D01*
X46517969Y-123332838D01*
X46586292Y-123021859D01*
X46642817Y-122789922D01*
X46689222Y-122629974D01*
X46727186Y-122534965D01*
X46747172Y-122505627D01*
X46810277Y-122460588D01*
X46904759Y-122432889D01*
X47053130Y-122418896D01*
X47277899Y-122414977D01*
X47308700Y-122415006D01*
G36*
X47308700Y-122415006D02*
G01*
X47789017Y-122430938D01*
X48177897Y-122479056D01*
X48481477Y-122563233D01*
X48705895Y-122687340D01*
X48857289Y-122855252D01*
X48941795Y-123070841D01*
X48965553Y-123337980D01*
X48959693Y-123456788D01*
X48881324Y-123827613D01*
X48716246Y-124165380D01*
X48477208Y-124457776D01*
X48176960Y-124692486D01*
X47828253Y-124857196D01*
X47443837Y-124939593D01*
X47422479Y-124941446D01*
X47240110Y-124960435D01*
X47135554Y-124986602D01*
X47085038Y-125028939D01*
X47068605Y-125075318D01*
X47047291Y-125182655D01*
X47015702Y-125348559D01*
X46989863Y-125487400D01*
X46930471Y-125775438D01*
X46873669Y-125973453D01*
X46815406Y-126092805D01*
X46755988Y-126143307D01*
X46659082Y-126161384D01*
X46508529Y-126170825D01*
X46338971Y-126171826D01*
X46185052Y-126164585D01*
X46081416Y-126149302D01*
X46059866Y-126139333D01*
X46041126Y-126107561D01*
X46031753Y-126051832D01*
X46033131Y-125962634D01*
X46046645Y-125830458D01*
X46073677Y-125645796D01*
X46115614Y-125399136D01*
X46173839Y-125080969D01*
X46249735Y-124681787D01*
X46339220Y-124220127D01*
X46352317Y-124153900D01*
X47247523Y-124153900D01*
X47286855Y-124187314D01*
X47391887Y-124186094D01*
X47533739Y-124152718D01*
X47615131Y-124122347D01*
X47836208Y-123981098D01*
X47984904Y-123784488D01*
X48042032Y-123597985D01*
X48042186Y-123435344D01*
X47981191Y-123332622D01*
X47845952Y-123277949D01*
X47669877Y-123260625D01*
X47429465Y-123252200D01*
X47339656Y-123684000D01*
X47298851Y-123883106D01*
X47267151Y-124043315D01*
X47249517Y-124139314D01*
X47247523Y-124153900D01*
X46352317Y-124153900D01*
X46436171Y-123729910D01*
X46517969Y-123332838D01*
X46586292Y-123021859D01*
X46642817Y-122789922D01*
X46689222Y-122629974D01*
X46727186Y-122534965D01*
X46747172Y-122505627D01*
X46810277Y-122460588D01*
X46904759Y-122432889D01*
X47053130Y-122418896D01*
X47277899Y-122414977D01*
X47308700Y-122415006D01*
G37*
X53417694Y-123323834D02*
X53648891Y-123434450D01*
X53727831Y-123501671D01*
X53824704Y-123613220D01*
X53889738Y-123732533D01*
X53924198Y-123876254D01*
X53929351Y-124061028D01*
X53906461Y-124303497D01*
X53856796Y-124620307D01*
X53825971Y-124791979D01*
X53751156Y-125198810D01*
X53690477Y-125516850D01*
X53638519Y-125757009D01*
X53589869Y-125930198D01*
X53539112Y-126047327D01*
X53480835Y-126119306D01*
X53409625Y-126157046D01*
X53320066Y-126171457D01*
X53206745Y-126173450D01*
X53140591Y-126173200D01*
X52986602Y-126170639D01*
X52876270Y-126154103D01*
X52805910Y-126110308D01*
X52771834Y-126025971D01*
X52770355Y-125887809D01*
X52797788Y-125682540D01*
X52850444Y-125396879D01*
X52881300Y-125239004D01*
X52951764Y-124868361D01*
X52999696Y-124585672D01*
X53026160Y-124380068D01*
X53032221Y-124240681D01*
X53018942Y-124156642D01*
X52990913Y-124119083D01*
X52924167Y-124129549D01*
X52807106Y-124190200D01*
X52665195Y-124283547D01*
X52523899Y-124392099D01*
X52408681Y-124498365D01*
X52367028Y-124547600D01*
X52321273Y-124646707D01*
X52264756Y-124824305D01*
X52203620Y-125058700D01*
X52144008Y-125328198D01*
X52139132Y-125352411D01*
X52084117Y-125607490D01*
X52028598Y-125829796D01*
X51978325Y-125998505D01*
X51939047Y-126092798D01*
X51932231Y-126101711D01*
X51833514Y-126147558D01*
X51676109Y-126171260D01*
X51497173Y-126173024D01*
X51333865Y-126153059D01*
X51223342Y-126111569D01*
X51208159Y-126097674D01*
X51191260Y-126055301D01*
X51187392Y-125975996D01*
X51198052Y-125848644D01*
X51224738Y-125662131D01*
X51268946Y-125405344D01*
X51332175Y-125067168D01*
X51380956Y-124814974D01*
X51448963Y-124471748D01*
X51513347Y-124156879D01*
X51570808Y-123885721D01*
X51618048Y-123673625D01*
X51651766Y-123535947D01*
X51664927Y-123493500D01*
X51700458Y-123433206D01*
X51759687Y-123398773D01*
X51867765Y-123383133D01*
X52049844Y-123379218D01*
X52071705Y-123379200D01*
X52276985Y-123385362D01*
X52398708Y-123406081D01*
X52454293Y-123444703D01*
X52458496Y-123453490D01*
X52493274Y-123500541D01*
X52559202Y-123481467D01*
X52596602Y-123459151D01*
X52869367Y-123335351D01*
X53150459Y-123290523D01*
X53417694Y-123323834D01*
G36*
X53417694Y-123323834D02*
G01*
X53648891Y-123434450D01*
X53727831Y-123501671D01*
X53824704Y-123613220D01*
X53889738Y-123732533D01*
X53924198Y-123876254D01*
X53929351Y-124061028D01*
X53906461Y-124303497D01*
X53856796Y-124620307D01*
X53825971Y-124791979D01*
X53751156Y-125198810D01*
X53690477Y-125516850D01*
X53638519Y-125757009D01*
X53589869Y-125930198D01*
X53539112Y-126047327D01*
X53480835Y-126119306D01*
X53409625Y-126157046D01*
X53320066Y-126171457D01*
X53206745Y-126173450D01*
X53140591Y-126173200D01*
X52986602Y-126170639D01*
X52876270Y-126154103D01*
X52805910Y-126110308D01*
X52771834Y-126025971D01*
X52770355Y-125887809D01*
X52797788Y-125682540D01*
X52850444Y-125396879D01*
X52881300Y-125239004D01*
X52951764Y-124868361D01*
X52999696Y-124585672D01*
X53026160Y-124380068D01*
X53032221Y-124240681D01*
X53018942Y-124156642D01*
X52990913Y-124119083D01*
X52924167Y-124129549D01*
X52807106Y-124190200D01*
X52665195Y-124283547D01*
X52523899Y-124392099D01*
X52408681Y-124498365D01*
X52367028Y-124547600D01*
X52321273Y-124646707D01*
X52264756Y-124824305D01*
X52203620Y-125058700D01*
X52144008Y-125328198D01*
X52139132Y-125352411D01*
X52084117Y-125607490D01*
X52028598Y-125829796D01*
X51978325Y-125998505D01*
X51939047Y-126092798D01*
X51932231Y-126101711D01*
X51833514Y-126147558D01*
X51676109Y-126171260D01*
X51497173Y-126173024D01*
X51333865Y-126153059D01*
X51223342Y-126111569D01*
X51208159Y-126097674D01*
X51191260Y-126055301D01*
X51187392Y-125975996D01*
X51198052Y-125848644D01*
X51224738Y-125662131D01*
X51268946Y-125405344D01*
X51332175Y-125067168D01*
X51380956Y-124814974D01*
X51448963Y-124471748D01*
X51513347Y-124156879D01*
X51570808Y-123885721D01*
X51618048Y-123673625D01*
X51651766Y-123535947D01*
X51664927Y-123493500D01*
X51700458Y-123433206D01*
X51759687Y-123398773D01*
X51867765Y-123383133D01*
X52049844Y-123379218D01*
X52071705Y-123379200D01*
X52276985Y-123385362D01*
X52398708Y-123406081D01*
X52454293Y-123444703D01*
X52458496Y-123453490D01*
X52493274Y-123500541D01*
X52559202Y-123481467D01*
X52596602Y-123459151D01*
X52869367Y-123335351D01*
X53150459Y-123290523D01*
X53417694Y-123323834D01*
G37*
X60995391Y-122364545D02*
X61222971Y-122402055D01*
X61358702Y-122450053D01*
X61577534Y-122608724D01*
X61716305Y-122828876D01*
X61772753Y-123106636D01*
X61774000Y-123159744D01*
X61740438Y-123471654D01*
X61631150Y-123739325D01*
X61495732Y-123927736D01*
X61354467Y-124095273D01*
X61473813Y-124222310D01*
X61565574Y-124383833D01*
X61614239Y-124608327D01*
X61618542Y-124866178D01*
X61577219Y-125127767D01*
X61519767Y-125298882D01*
X61369266Y-125551437D01*
X61149832Y-125796770D01*
X60891659Y-126005382D01*
X60669554Y-126129523D01*
X60476344Y-126188394D01*
X60222157Y-126231770D01*
X59943843Y-126256754D01*
X59678252Y-126260447D01*
X59462233Y-126239953D01*
X59411800Y-126228432D01*
X59200806Y-126166745D01*
X59070761Y-126112185D01*
X59004405Y-126045852D01*
X58984475Y-125948844D01*
X58993710Y-125802264D01*
X58996646Y-125773862D01*
X59019014Y-125597588D01*
X59044177Y-125454087D01*
X59060136Y-125393861D01*
X59145021Y-125302144D01*
X59297915Y-125277919D01*
X59510394Y-125321740D01*
X59608671Y-125357831D01*
X59930305Y-125453372D01*
X60207441Y-125463219D01*
X60435341Y-125389001D01*
X60609271Y-125232345D01*
X60724497Y-124994882D01*
X60731251Y-124971676D01*
X60718314Y-124839591D01*
X60640507Y-124721472D01*
X60557565Y-124641147D01*
X60460631Y-124594883D01*
X60315906Y-124570574D01*
X60194163Y-124561613D01*
X59947800Y-124546025D01*
X59786130Y-124526527D01*
X59692468Y-124492490D01*
X59650128Y-124433287D01*
X59642427Y-124338287D01*
X59651130Y-124215692D01*
X59684958Y-123993246D01*
X59754179Y-123850075D01*
X59876921Y-123770305D01*
X60071308Y-123738061D01*
X60200222Y-123734800D01*
X60410458Y-123726800D01*
X60552750Y-123697950D01*
X60659843Y-123640976D01*
X60675270Y-123629260D01*
X60827295Y-123482849D01*
X60883266Y-123355438D01*
X60845554Y-123240816D01*
X60830375Y-123222574D01*
X60715768Y-123149168D01*
X60546301Y-123129943D01*
X60310726Y-123164968D01*
X60082800Y-123227219D01*
X59856673Y-123289075D01*
X59709659Y-123303182D01*
X59627917Y-123262814D01*
X59597608Y-123161240D01*
X59604582Y-122994707D01*
X59630990Y-122820278D01*
X59667466Y-122674298D01*
X59687952Y-122623268D01*
X59785852Y-122534279D01*
X59961914Y-122460511D01*
X60193518Y-122404308D01*
X60458045Y-122368017D01*
X60732876Y-122353980D01*
X60995391Y-122364545D01*
G36*
X60995391Y-122364545D02*
G01*
X61222971Y-122402055D01*
X61358702Y-122450053D01*
X61577534Y-122608724D01*
X61716305Y-122828876D01*
X61772753Y-123106636D01*
X61774000Y-123159744D01*
X61740438Y-123471654D01*
X61631150Y-123739325D01*
X61495732Y-123927736D01*
X61354467Y-124095273D01*
X61473813Y-124222310D01*
X61565574Y-124383833D01*
X61614239Y-124608327D01*
X61618542Y-124866178D01*
X61577219Y-125127767D01*
X61519767Y-125298882D01*
X61369266Y-125551437D01*
X61149832Y-125796770D01*
X60891659Y-126005382D01*
X60669554Y-126129523D01*
X60476344Y-126188394D01*
X60222157Y-126231770D01*
X59943843Y-126256754D01*
X59678252Y-126260447D01*
X59462233Y-126239953D01*
X59411800Y-126228432D01*
X59200806Y-126166745D01*
X59070761Y-126112185D01*
X59004405Y-126045852D01*
X58984475Y-125948844D01*
X58993710Y-125802264D01*
X58996646Y-125773862D01*
X59019014Y-125597588D01*
X59044177Y-125454087D01*
X59060136Y-125393861D01*
X59145021Y-125302144D01*
X59297915Y-125277919D01*
X59510394Y-125321740D01*
X59608671Y-125357831D01*
X59930305Y-125453372D01*
X60207441Y-125463219D01*
X60435341Y-125389001D01*
X60609271Y-125232345D01*
X60724497Y-124994882D01*
X60731251Y-124971676D01*
X60718314Y-124839591D01*
X60640507Y-124721472D01*
X60557565Y-124641147D01*
X60460631Y-124594883D01*
X60315906Y-124570574D01*
X60194163Y-124561613D01*
X59947800Y-124546025D01*
X59786130Y-124526527D01*
X59692468Y-124492490D01*
X59650128Y-124433287D01*
X59642427Y-124338287D01*
X59651130Y-124215692D01*
X59684958Y-123993246D01*
X59754179Y-123850075D01*
X59876921Y-123770305D01*
X60071308Y-123738061D01*
X60200222Y-123734800D01*
X60410458Y-123726800D01*
X60552750Y-123697950D01*
X60659843Y-123640976D01*
X60675270Y-123629260D01*
X60827295Y-123482849D01*
X60883266Y-123355438D01*
X60845554Y-123240816D01*
X60830375Y-123222574D01*
X60715768Y-123149168D01*
X60546301Y-123129943D01*
X60310726Y-123164968D01*
X60082800Y-123227219D01*
X59856673Y-123289075D01*
X59709659Y-123303182D01*
X59627917Y-123262814D01*
X59597608Y-123161240D01*
X59604582Y-122994707D01*
X59630990Y-122820278D01*
X59667466Y-122674298D01*
X59687952Y-122623268D01*
X59785852Y-122534279D01*
X59961914Y-122460511D01*
X60193518Y-122404308D01*
X60458045Y-122368017D01*
X60732876Y-122353980D01*
X60995391Y-122364545D01*
G37*
X55197541Y-122325867D02*
X55321945Y-122364047D01*
X55364860Y-122401300D01*
X55375768Y-122499223D01*
X55357396Y-122693858D01*
X55309811Y-122984646D01*
X55267997Y-123201400D01*
X55216249Y-123464089D01*
X55172421Y-123696325D01*
X55140285Y-123877370D01*
X55123614Y-123986486D01*
X55122150Y-124003179D01*
X55145353Y-124025186D01*
X55222681Y-123990231D01*
X55360907Y-123894207D01*
X55563700Y-123735513D01*
X56008200Y-123377268D01*
X56743123Y-123390934D01*
X57478047Y-123404600D01*
X57661690Y-124014200D01*
X57733886Y-124253250D01*
X57796807Y-124460468D01*
X57843930Y-124614447D01*
X57868730Y-124693780D01*
X57869352Y-124695657D01*
X57902528Y-124680918D01*
X57978154Y-124590023D01*
X58087706Y-124434700D01*
X58222656Y-124226679D01*
X58294010Y-124111457D01*
X58437430Y-123879744D01*
X58565493Y-123678688D01*
X58667585Y-123524511D01*
X58733094Y-123433436D01*
X58748424Y-123416899D01*
X58824137Y-123398890D01*
X58968545Y-123389939D01*
X59132400Y-123391499D01*
X59310680Y-123401354D01*
X59411294Y-123419551D01*
X59458166Y-123455829D01*
X59475220Y-123519925D01*
X59476582Y-123531600D01*
X59460713Y-123606964D01*
X59401000Y-123742907D01*
X59294716Y-123944406D01*
X59139138Y-124216438D01*
X58931539Y-124563982D01*
X58739062Y-124878814D01*
X58491617Y-125280261D01*
X58290393Y-125605402D01*
X58128494Y-125864539D01*
X57999022Y-126067976D01*
X57895081Y-126226015D01*
X57809774Y-126348958D01*
X57736204Y-126447108D01*
X57667474Y-126530768D01*
X57596687Y-126610241D01*
X57537007Y-126674458D01*
X57261490Y-126913134D01*
X56958474Y-127062543D01*
X56608834Y-127130752D01*
X56440000Y-127137125D01*
X56245548Y-127131335D01*
X56086439Y-127116326D01*
X55993958Y-127095195D01*
X55988940Y-127092470D01*
X55951825Y-127016694D01*
X55943325Y-126879294D01*
X55959279Y-126714812D01*
X55995524Y-126557791D01*
X56047898Y-126442774D01*
X56070198Y-126418055D01*
X56171886Y-126378501D01*
X56347071Y-126355253D01*
X56478977Y-126351000D01*
X56658509Y-126347981D01*
X56774982Y-126327643D01*
X56866940Y-126273063D01*
X56972923Y-126167316D01*
X57023245Y-126112013D01*
X57239710Y-125873027D01*
X56956377Y-124878699D01*
X56848347Y-124508555D01*
X56761576Y-124231911D01*
X56694124Y-124043352D01*
X56644046Y-123937464D01*
X56609401Y-123908830D01*
X56608550Y-123909120D01*
X56543219Y-123949796D01*
X56423813Y-124037169D01*
X56269195Y-124156094D01*
X56098232Y-124291430D01*
X55929790Y-124428032D01*
X55782734Y-124550758D01*
X55675930Y-124644466D01*
X55628244Y-124694011D01*
X55627356Y-124696698D01*
X55655633Y-124746114D01*
X55733037Y-124861576D01*
X55848611Y-125027201D01*
X55991396Y-125227106D01*
X56032686Y-125284200D01*
X56181906Y-125495612D01*
X56306531Y-125682874D01*
X56395348Y-125828321D01*
X56437143Y-125914293D01*
X56438930Y-125924026D01*
X56403169Y-126042308D01*
X56288077Y-126121295D01*
X56087437Y-126163723D01*
X55872491Y-126173200D01*
X55490782Y-126173200D01*
X55182359Y-125738421D01*
X55039961Y-125538657D01*
X54944800Y-125421406D01*
X54882971Y-125388036D01*
X54840571Y-125439917D01*
X54803696Y-125578417D01*
X54763464Y-125779657D01*
X54713788Y-125970709D01*
X54642058Y-126088353D01*
X54525399Y-126149634D01*
X54340936Y-126171598D01*
X54235327Y-126173200D01*
X54057176Y-126164638D01*
X53954675Y-126134464D01*
X53907104Y-126084300D01*
X53905628Y-126015043D01*
X53922711Y-125860321D01*
X53955696Y-125634028D01*
X54001927Y-125350059D01*
X54058746Y-125022309D01*
X54123497Y-124664673D01*
X54193524Y-124291044D01*
X54266169Y-123915319D01*
X54338776Y-123551392D01*
X54408689Y-123213157D01*
X54473250Y-122914509D01*
X54529803Y-122669344D01*
X54575692Y-122491556D01*
X54608258Y-122395039D01*
X54614479Y-122384648D01*
X54704984Y-122336717D01*
X54855022Y-122311446D01*
X55030554Y-122308082D01*
X55197541Y-122325867D01*
G36*
X55197541Y-122325867D02*
G01*
X55321945Y-122364047D01*
X55364860Y-122401300D01*
X55375768Y-122499223D01*
X55357396Y-122693858D01*
X55309811Y-122984646D01*
X55267997Y-123201400D01*
X55216249Y-123464089D01*
X55172421Y-123696325D01*
X55140285Y-123877370D01*
X55123614Y-123986486D01*
X55122150Y-124003179D01*
X55145353Y-124025186D01*
X55222681Y-123990231D01*
X55360907Y-123894207D01*
X55563700Y-123735513D01*
X56008200Y-123377268D01*
X56743123Y-123390934D01*
X57478047Y-123404600D01*
X57661690Y-124014200D01*
X57733886Y-124253250D01*
X57796807Y-124460468D01*
X57843930Y-124614447D01*
X57868730Y-124693780D01*
X57869352Y-124695657D01*
X57902528Y-124680918D01*
X57978154Y-124590023D01*
X58087706Y-124434700D01*
X58222656Y-124226679D01*
X58294010Y-124111457D01*
X58437430Y-123879744D01*
X58565493Y-123678688D01*
X58667585Y-123524511D01*
X58733094Y-123433436D01*
X58748424Y-123416899D01*
X58824137Y-123398890D01*
X58968545Y-123389939D01*
X59132400Y-123391499D01*
X59310680Y-123401354D01*
X59411294Y-123419551D01*
X59458166Y-123455829D01*
X59475220Y-123519925D01*
X59476582Y-123531600D01*
X59460713Y-123606964D01*
X59401000Y-123742907D01*
X59294716Y-123944406D01*
X59139138Y-124216438D01*
X58931539Y-124563982D01*
X58739062Y-124878814D01*
X58491617Y-125280261D01*
X58290393Y-125605402D01*
X58128494Y-125864539D01*
X57999022Y-126067976D01*
X57895081Y-126226015D01*
X57809774Y-126348958D01*
X57736204Y-126447108D01*
X57667474Y-126530768D01*
X57596687Y-126610241D01*
X57537007Y-126674458D01*
X57261490Y-126913134D01*
X56958474Y-127062543D01*
X56608834Y-127130752D01*
X56440000Y-127137125D01*
X56245548Y-127131335D01*
X56086439Y-127116326D01*
X55993958Y-127095195D01*
X55988940Y-127092470D01*
X55951825Y-127016694D01*
X55943325Y-126879294D01*
X55959279Y-126714812D01*
X55995524Y-126557791D01*
X56047898Y-126442774D01*
X56070198Y-126418055D01*
X56171886Y-126378501D01*
X56347071Y-126355253D01*
X56478977Y-126351000D01*
X56658509Y-126347981D01*
X56774982Y-126327643D01*
X56866940Y-126273063D01*
X56972923Y-126167316D01*
X57023245Y-126112013D01*
X57239710Y-125873027D01*
X56956377Y-124878699D01*
X56848347Y-124508555D01*
X56761576Y-124231911D01*
X56694124Y-124043352D01*
X56644046Y-123937464D01*
X56609401Y-123908830D01*
X56608550Y-123909120D01*
X56543219Y-123949796D01*
X56423813Y-124037169D01*
X56269195Y-124156094D01*
X56098232Y-124291430D01*
X55929790Y-124428032D01*
X55782734Y-124550758D01*
X55675930Y-124644466D01*
X55628244Y-124694011D01*
X55627356Y-124696698D01*
X55655633Y-124746114D01*
X55733037Y-124861576D01*
X55848611Y-125027201D01*
X55991396Y-125227106D01*
X56032686Y-125284200D01*
X56181906Y-125495612D01*
X56306531Y-125682874D01*
X56395348Y-125828321D01*
X56437143Y-125914293D01*
X56438930Y-125924026D01*
X56403169Y-126042308D01*
X56288077Y-126121295D01*
X56087437Y-126163723D01*
X55872491Y-126173200D01*
X55490782Y-126173200D01*
X55182359Y-125738421D01*
X55039961Y-125538657D01*
X54944800Y-125421406D01*
X54882971Y-125388036D01*
X54840571Y-125439917D01*
X54803696Y-125578417D01*
X54763464Y-125779657D01*
X54713788Y-125970709D01*
X54642058Y-126088353D01*
X54525399Y-126149634D01*
X54340936Y-126171598D01*
X54235327Y-126173200D01*
X54057176Y-126164638D01*
X53954675Y-126134464D01*
X53907104Y-126084300D01*
X53905628Y-126015043D01*
X53922711Y-125860321D01*
X53955696Y-125634028D01*
X54001927Y-125350059D01*
X54058746Y-125022309D01*
X54123497Y-124664673D01*
X54193524Y-124291044D01*
X54266169Y-123915319D01*
X54338776Y-123551392D01*
X54408689Y-123213157D01*
X54473250Y-122914509D01*
X54529803Y-122669344D01*
X54575692Y-122491556D01*
X54608258Y-122395039D01*
X54614479Y-122384648D01*
X54704984Y-122336717D01*
X54855022Y-122311446D01*
X55030554Y-122308082D01*
X55197541Y-122325867D01*
G37*
D14*
X42965506Y-123524741D02*
X42965506Y-124474741D01*
X42965506Y-127044741D02*
X41475506Y-127044741D01*
X42965506Y-127994741D02*
X42965506Y-127044741D01*
X43415506Y-123524741D02*
X42965506Y-123524741D01*
X43415506Y-127994741D02*
X42965506Y-127994741D01*
X46935506Y-127994741D02*
X47385506Y-127994741D01*
X47385506Y-123524741D02*
X46935506Y-123524741D01*
X47385506Y-127994741D02*
X47385506Y-123524741D01*
X167743975Y-112118892D02*
X167743975Y-103168892D01*
X170823975Y-103048892D02*
X171723975Y-103048892D01*
X170823975Y-112238892D02*
X171723975Y-112238892D01*
X174423975Y-103048892D02*
X177153975Y-103048892D01*
X174423975Y-112238892D02*
X177153975Y-112238892D01*
X177153975Y-112238892D02*
X177153975Y-103048892D01*
X76432931Y-134854993D02*
X76432931Y-134064993D01*
X78482931Y-137154993D02*
X78482931Y-135864993D01*
X78682931Y-137364993D02*
X78482931Y-137154993D01*
X79582931Y-137364993D02*
X78682931Y-137364993D01*
X79582931Y-137364993D02*
X79782931Y-137154993D01*
X79782931Y-135864993D02*
X79782931Y-137154993D01*
X79982931Y-133014993D02*
X78282931Y-133014993D01*
X81482931Y-133014993D02*
X81282931Y-133014993D01*
X82732931Y-135864993D02*
X77032931Y-135864993D01*
X83332931Y-134064993D02*
X83332931Y-134854993D01*
D11*
X67411500Y-115667712D02*
X67411500Y-117167712D01*
X67411500Y-117167712D02*
X72811500Y-117167712D01*
X69611500Y-115917712D02*
X69611500Y-116917712D01*
X69711500Y-116417712D02*
X70611500Y-115917712D01*
X70611500Y-115917712D02*
X70611500Y-116917712D01*
X70611500Y-116917712D02*
X69711500Y-116417712D01*
X72811500Y-115667712D02*
X67411500Y-115667712D01*
X72811500Y-117167712D02*
X72811500Y-115667712D01*
D14*
X66550000Y-92675000D02*
X67571000Y-91654000D01*
X67571000Y-91654000D02*
X70218000Y-91654000D01*
X67571000Y-96446000D02*
X66634000Y-95509000D01*
X70218000Y-91654000D02*
X70780000Y-91549000D01*
X70318000Y-96446000D02*
X67571000Y-96446000D01*
X70721000Y-96366000D02*
X70318000Y-96446000D01*
X70780000Y-91549000D02*
X71259000Y-91250000D01*
X71063000Y-96137000D02*
X70721000Y-96366000D01*
X71259000Y-91250000D02*
X71597000Y-90797000D01*
X71596000Y-95382000D02*
X71596000Y-95604000D01*
X71596000Y-95604000D02*
X71063000Y-96137000D01*
X71597000Y-90797000D02*
X71751000Y-90239000D01*
X71683000Y-94944000D02*
X71596000Y-95382000D01*
X71751000Y-90239000D02*
X71833000Y-89941000D01*
X71833000Y-89941000D02*
X72026000Y-89683000D01*
X71927000Y-94577000D02*
X71683000Y-94944000D01*
X72026000Y-89683000D02*
X72300000Y-89513000D01*
X72294000Y-94333000D02*
X71927000Y-94577000D01*
X72300000Y-89513000D02*
X72610000Y-89454000D01*
X72610000Y-89454000D02*
X76696000Y-89454000D01*
X72732000Y-94246000D02*
X72294000Y-94333000D01*
X75532000Y-94246000D02*
X72732000Y-94246000D01*
X75859000Y-94181000D02*
X75532000Y-94246000D01*
X76142000Y-93992000D02*
X75859000Y-94181000D01*
X76331000Y-93709000D02*
X76142000Y-93992000D01*
X76416000Y-93282000D02*
X76331000Y-93709000D01*
X76696000Y-89454000D02*
X76696000Y-90396000D01*
X76696000Y-90396000D02*
X76333000Y-90396000D01*
X123700000Y-109820000D02*
X124721000Y-108799000D01*
X124721000Y-108799000D02*
X127368000Y-108799000D01*
X124721000Y-113591000D02*
X123784000Y-112654000D01*
X127368000Y-108799000D02*
X127930000Y-108694000D01*
X127468000Y-113591000D02*
X124721000Y-113591000D01*
X127871000Y-113511000D02*
X127468000Y-113591000D01*
X127930000Y-108694000D02*
X128409000Y-108395000D01*
X128213000Y-113282000D02*
X127871000Y-113511000D01*
X128409000Y-108395000D02*
X128747000Y-107942000D01*
X128746000Y-112527000D02*
X128746000Y-112749000D01*
X128746000Y-112749000D02*
X128213000Y-113282000D01*
X128747000Y-107942000D02*
X128901000Y-107384000D01*
X128833000Y-112089000D02*
X128746000Y-112527000D01*
X128901000Y-107384000D02*
X128983000Y-107086000D01*
X128983000Y-107086000D02*
X129176000Y-106828000D01*
X129077000Y-111722000D02*
X128833000Y-112089000D01*
X129176000Y-106828000D02*
X129450000Y-106658000D01*
X129444000Y-111478000D02*
X129077000Y-111722000D01*
X129450000Y-106658000D02*
X129760000Y-106599000D01*
X129760000Y-106599000D02*
X133846000Y-106599000D01*
X129882000Y-111391000D02*
X129444000Y-111478000D01*
X132682000Y-111391000D02*
X129882000Y-111391000D01*
X133009000Y-111326000D02*
X132682000Y-111391000D01*
X133292000Y-111137000D02*
X133009000Y-111326000D01*
X133481000Y-110854000D02*
X133292000Y-111137000D01*
X133566000Y-110427000D02*
X133481000Y-110854000D01*
X133846000Y-106599000D02*
X133846000Y-107541000D01*
X133846000Y-107541000D02*
X133483000Y-107541000D01*
X142750000Y-113630000D02*
X143771000Y-112609000D01*
X143771000Y-112609000D02*
X146418000Y-112609000D01*
X143771000Y-117401000D02*
X142834000Y-116464000D01*
X146418000Y-112609000D02*
X146980000Y-112504000D01*
X146518000Y-117401000D02*
X143771000Y-117401000D01*
X146921000Y-117321000D02*
X146518000Y-117401000D01*
X146980000Y-112504000D02*
X147459000Y-112205000D01*
X147263000Y-117092000D02*
X146921000Y-117321000D01*
X147459000Y-112205000D02*
X147797000Y-111752000D01*
X147796000Y-116337000D02*
X147796000Y-116559000D01*
X147796000Y-116559000D02*
X147263000Y-117092000D01*
X147797000Y-111752000D02*
X147951000Y-111194000D01*
X147883000Y-115899000D02*
X147796000Y-116337000D01*
X147951000Y-111194000D02*
X148033000Y-110896000D01*
X148033000Y-110896000D02*
X148226000Y-110638000D01*
X148127000Y-115532000D02*
X147883000Y-115899000D01*
X148226000Y-110638000D02*
X148500000Y-110468000D01*
X148494000Y-115288000D02*
X148127000Y-115532000D01*
X148500000Y-110468000D02*
X148810000Y-110409000D01*
X148810000Y-110409000D02*
X152896000Y-110409000D01*
X148932000Y-115201000D02*
X148494000Y-115288000D01*
X151732000Y-115201000D02*
X148932000Y-115201000D01*
X152059000Y-115136000D02*
X151732000Y-115201000D01*
X152342000Y-114947000D02*
X152059000Y-115136000D01*
X152531000Y-114664000D02*
X152342000Y-114947000D01*
X152616000Y-114237000D02*
X152531000Y-114664000D01*
X152896000Y-110409000D02*
X152896000Y-111351000D01*
X152896000Y-111351000D02*
X152533000Y-111351000D01*
X66550000Y-111725000D02*
X67571000Y-110704000D01*
X67571000Y-110704000D02*
X70218000Y-110704000D01*
X67571000Y-115496000D02*
X66634000Y-114559000D01*
X70218000Y-110704000D02*
X70780000Y-110599000D01*
X70318000Y-115496000D02*
X67571000Y-115496000D01*
X70721000Y-115416000D02*
X70318000Y-115496000D01*
X70780000Y-110599000D02*
X71259000Y-110300000D01*
X71063000Y-115187000D02*
X70721000Y-115416000D01*
X71259000Y-110300000D02*
X71597000Y-109847000D01*
X71596000Y-114432000D02*
X71596000Y-114654000D01*
X71596000Y-114654000D02*
X71063000Y-115187000D01*
X71597000Y-109847000D02*
X71751000Y-109289000D01*
X71683000Y-113994000D02*
X71596000Y-114432000D01*
X71751000Y-109289000D02*
X71833000Y-108991000D01*
X71833000Y-108991000D02*
X72026000Y-108733000D01*
X71927000Y-113627000D02*
X71683000Y-113994000D01*
X72026000Y-108733000D02*
X72300000Y-108563000D01*
X72294000Y-113383000D02*
X71927000Y-113627000D01*
X72300000Y-108563000D02*
X72610000Y-108504000D01*
X72610000Y-108504000D02*
X76696000Y-108504000D01*
X72732000Y-113296000D02*
X72294000Y-113383000D01*
X75532000Y-113296000D02*
X72732000Y-113296000D01*
X75859000Y-113231000D02*
X75532000Y-113296000D01*
X76142000Y-113042000D02*
X75859000Y-113231000D01*
X76331000Y-112759000D02*
X76142000Y-113042000D01*
X76416000Y-112332000D02*
X76331000Y-112759000D01*
X76696000Y-108504000D02*
X76696000Y-109446000D01*
X76696000Y-109446000D02*
X76333000Y-109446000D01*
X47500000Y-73625000D02*
X48521000Y-72604000D01*
X48521000Y-72604000D02*
X51168000Y-72604000D01*
X48521000Y-77396000D02*
X47584000Y-76459000D01*
X51168000Y-72604000D02*
X51730000Y-72499000D01*
X51268000Y-77396000D02*
X48521000Y-77396000D01*
X51671000Y-77316000D02*
X51268000Y-77396000D01*
X51730000Y-72499000D02*
X52209000Y-72200000D01*
X52013000Y-77087000D02*
X51671000Y-77316000D01*
X52209000Y-72200000D02*
X52547000Y-71747000D01*
X52546000Y-76332000D02*
X52546000Y-76554000D01*
X52546000Y-76554000D02*
X52013000Y-77087000D01*
X52547000Y-71747000D02*
X52701000Y-71189000D01*
X52633000Y-75894000D02*
X52546000Y-76332000D01*
X52701000Y-71189000D02*
X52783000Y-70891000D01*
X52783000Y-70891000D02*
X52976000Y-70633000D01*
X52877000Y-75527000D02*
X52633000Y-75894000D01*
X52976000Y-70633000D02*
X53250000Y-70463000D01*
X53244000Y-75283000D02*
X52877000Y-75527000D01*
X53250000Y-70463000D02*
X53560000Y-70404000D01*
X53560000Y-70404000D02*
X57646000Y-70404000D01*
X53682000Y-75196000D02*
X53244000Y-75283000D01*
X56482000Y-75196000D02*
X53682000Y-75196000D01*
X56809000Y-75131000D02*
X56482000Y-75196000D01*
X57092000Y-74942000D02*
X56809000Y-75131000D01*
X57281000Y-74659000D02*
X57092000Y-74942000D01*
X57366000Y-74232000D02*
X57281000Y-74659000D01*
X57646000Y-70404000D02*
X57646000Y-71346000D01*
X57646000Y-71346000D02*
X57283000Y-71346000D01*
X159554242Y-127322887D02*
X159079362Y-126085783D01*
X160155316Y-123462628D02*
X161503324Y-122945177D01*
X161503324Y-122945177D02*
X163921479Y-124021809D01*
X162063752Y-128440192D02*
X159554242Y-127322887D01*
X162464450Y-128531024D02*
X162063752Y-128440192D01*
X162870024Y-128460925D02*
X162464450Y-128531024D01*
X163573734Y-128190798D02*
X162870024Y-128460925D01*
X163664030Y-127987990D02*
X163573734Y-128190798D01*
X163921479Y-124021809D02*
X164477599Y-124154473D01*
X163921659Y-127623244D02*
X163664030Y-127987990D01*
X164293836Y-127387217D02*
X163921659Y-127623244D01*
X164477599Y-124154473D02*
X165036801Y-124076149D01*
X164728352Y-127313583D02*
X164293836Y-127387217D01*
X165036801Y-124076149D02*
X165529831Y-123799790D01*
X165163871Y-127412255D02*
X164728352Y-127313583D01*
X165529831Y-123799790D02*
X165897477Y-123352668D01*
X165897477Y-123352668D02*
X166093595Y-123113785D01*
X166093595Y-123113785D02*
X166374848Y-122956590D01*
X166374848Y-122956590D02*
X166694304Y-122912734D01*
X166694304Y-122912734D02*
X167001500Y-122984923D01*
X167001500Y-122984923D02*
X170734247Y-124646849D01*
X167721800Y-128551117D02*
X165163871Y-127412255D01*
X168046966Y-128624740D02*
X167721800Y-128551117D01*
X168382372Y-128567187D02*
X168046966Y-128624740D01*
X168670138Y-128385526D02*
X168382372Y-128567187D01*
X168921467Y-128030014D02*
X168670138Y-128385526D01*
X170351101Y-125507409D02*
X170019486Y-125359763D01*
X170734247Y-124646849D02*
X170351101Y-125507409D01*
X124043540Y-132971375D02*
X125226324Y-132143181D01*
X124394202Y-136862380D02*
X123634145Y-135776907D01*
X125226324Y-132143181D02*
X127833110Y-132602828D01*
X127099468Y-137339392D02*
X124394202Y-136862380D01*
X127510238Y-137330587D02*
X127099468Y-137339392D01*
X127833110Y-132602828D02*
X128404805Y-132597014D01*
X127886807Y-137164453D02*
X127510238Y-137330587D01*
X128404805Y-132597014D02*
X128928448Y-132385734D01*
X128504264Y-136732103D02*
X127886807Y-137164453D01*
X128542815Y-136513479D02*
X128504264Y-136732103D01*
X128704551Y-136097240D02*
X128542815Y-136513479D01*
X128928448Y-132385734D02*
X129339975Y-131998308D01*
X129008573Y-135778186D02*
X128704551Y-136097240D01*
X129339975Y-131998308D02*
X129588532Y-131475528D01*
X129412367Y-135601621D02*
X129008573Y-135778186D01*
X129588532Y-131475528D02*
X129721033Y-131196294D01*
X129721033Y-131196294D02*
X129955903Y-130975728D01*
X129858821Y-135592001D02*
X129412367Y-135601621D01*
X129955903Y-130975728D02*
X130255260Y-130855890D01*
X130255260Y-130855890D02*
X130570796Y-130851617D01*
X130570796Y-130851617D02*
X134594721Y-131561144D01*
X132616283Y-136078216D02*
X129858821Y-135592001D01*
X132949602Y-136070988D02*
X132616283Y-136078216D01*
X133261122Y-135934000D02*
X132949602Y-136070988D01*
X133496393Y-135688119D02*
X133261122Y-135934000D01*
X133654249Y-135282366D02*
X133496393Y-135688119D01*
X134431143Y-132488833D02*
X134073659Y-132425798D01*
X134594721Y-131561144D02*
X134431143Y-132488833D01*
X159946148Y-149288348D02*
X159603183Y-148008382D01*
X160947436Y-145512066D02*
X162342148Y-145138354D01*
X162325120Y-150661848D02*
X159946148Y-149288348D01*
X162342148Y-145138354D02*
X164634518Y-146461854D01*
X162714128Y-150794066D02*
X162325120Y-150661848D01*
X163124809Y-150766746D02*
X162714128Y-150794066D01*
X163852901Y-150571655D02*
X163124809Y-150766746D01*
X163963901Y-150379397D02*
X163852901Y-150571655D01*
X164258245Y-150043578D02*
X163963901Y-150379397D01*
X164634518Y-146461854D02*
X165173724Y-146651922D01*
X164653055Y-149847747D02*
X164258245Y-150043578D01*
X165092887Y-149819935D02*
X164653055Y-149847747D01*
X165173724Y-146651922D02*
X165738050Y-146632480D01*
X165515706Y-149963592D02*
X165092887Y-149819935D01*
X165738050Y-146632480D02*
X166257266Y-146409171D01*
X166257266Y-146409171D02*
X166669635Y-146002929D01*
X166669635Y-146002929D02*
X166889649Y-145785853D01*
X166889649Y-145785853D02*
X167185792Y-145658918D01*
X167185792Y-145658918D02*
X167508083Y-145648694D01*
X167508083Y-145648694D02*
X167806051Y-145752598D01*
X167806051Y-145752598D02*
X171344630Y-147795598D01*
X167940577Y-151363592D02*
X165515706Y-149963592D01*
X168256267Y-151470800D02*
X167940577Y-151363592D01*
X168595852Y-151448622D02*
X168256267Y-151470800D01*
X168901031Y-151298036D02*
X168595852Y-151448622D01*
X169188143Y-150970744D02*
X168901031Y-151298036D01*
X170873630Y-148611394D02*
X170559263Y-148429894D01*
X171344630Y-147795598D02*
X170873630Y-148611394D01*
X85600000Y-71720000D02*
X86621000Y-70699000D01*
X86621000Y-70699000D02*
X89268000Y-70699000D01*
X86621000Y-75491000D02*
X85684000Y-74554000D01*
X89268000Y-70699000D02*
X89830000Y-70594000D01*
X89368000Y-75491000D02*
X86621000Y-75491000D01*
X89771000Y-75411000D02*
X89368000Y-75491000D01*
X89830000Y-70594000D02*
X90309000Y-70295000D01*
X90113000Y-75182000D02*
X89771000Y-75411000D01*
X90309000Y-70295000D02*
X90647000Y-69842000D01*
X90646000Y-74427000D02*
X90646000Y-74649000D01*
X90646000Y-74649000D02*
X90113000Y-75182000D01*
X90647000Y-69842000D02*
X90801000Y-69284000D01*
X90733000Y-73989000D02*
X90646000Y-74427000D01*
X90801000Y-69284000D02*
X90883000Y-68986000D01*
X90883000Y-68986000D02*
X91076000Y-68728000D01*
X90977000Y-73622000D02*
X90733000Y-73989000D01*
X91076000Y-68728000D02*
X91350000Y-68558000D01*
X91344000Y-73378000D02*
X90977000Y-73622000D01*
X91350000Y-68558000D02*
X91660000Y-68499000D01*
X91660000Y-68499000D02*
X95746000Y-68499000D01*
X91782000Y-73291000D02*
X91344000Y-73378000D01*
X94582000Y-73291000D02*
X91782000Y-73291000D01*
X94909000Y-73226000D02*
X94582000Y-73291000D01*
X95192000Y-73037000D02*
X94909000Y-73226000D01*
X95381000Y-72754000D02*
X95192000Y-73037000D01*
X95466000Y-72327000D02*
X95381000Y-72754000D01*
X95746000Y-68499000D02*
X95746000Y-69441000D01*
X95746000Y-69441000D02*
X95383000Y-69441000D01*
X123700000Y-90770000D02*
X124721000Y-89749000D01*
X124721000Y-89749000D02*
X127368000Y-89749000D01*
X124721000Y-94541000D02*
X123784000Y-93604000D01*
X127368000Y-89749000D02*
X127930000Y-89644000D01*
X127468000Y-94541000D02*
X124721000Y-94541000D01*
X127871000Y-94461000D02*
X127468000Y-94541000D01*
X127930000Y-89644000D02*
X128409000Y-89345000D01*
X128213000Y-94232000D02*
X127871000Y-94461000D01*
X128409000Y-89345000D02*
X128747000Y-88892000D01*
X128746000Y-93477000D02*
X128746000Y-93699000D01*
X128746000Y-93699000D02*
X128213000Y-94232000D01*
X128747000Y-88892000D02*
X128901000Y-88334000D01*
X128833000Y-93039000D02*
X128746000Y-93477000D01*
X128901000Y-88334000D02*
X128983000Y-88036000D01*
X128983000Y-88036000D02*
X129176000Y-87778000D01*
X129077000Y-92672000D02*
X128833000Y-93039000D01*
X129176000Y-87778000D02*
X129450000Y-87608000D01*
X129444000Y-92428000D02*
X129077000Y-92672000D01*
X129450000Y-87608000D02*
X129760000Y-87549000D01*
X129760000Y-87549000D02*
X133846000Y-87549000D01*
X129882000Y-92341000D02*
X129444000Y-92428000D01*
X132682000Y-92341000D02*
X129882000Y-92341000D01*
X133009000Y-92276000D02*
X132682000Y-92341000D01*
X133292000Y-92087000D02*
X133009000Y-92276000D01*
X133481000Y-91804000D02*
X133292000Y-92087000D01*
X133566000Y-91377000D02*
X133481000Y-91804000D01*
X133846000Y-87549000D02*
X133846000Y-88491000D01*
X133846000Y-88491000D02*
X133483000Y-88491000D01*
X161800000Y-79340000D02*
X162821000Y-78319000D01*
X162821000Y-78319000D02*
X165468000Y-78319000D01*
X162821000Y-83111000D02*
X161884000Y-82174000D01*
X165468000Y-78319000D02*
X166030000Y-78214000D01*
X165568000Y-83111000D02*
X162821000Y-83111000D01*
X165971000Y-83031000D02*
X165568000Y-83111000D01*
X166030000Y-78214000D02*
X166509000Y-77915000D01*
X166313000Y-82802000D02*
X165971000Y-83031000D01*
X166509000Y-77915000D02*
X166847000Y-77462000D01*
X166846000Y-82047000D02*
X166846000Y-82269000D01*
X166846000Y-82269000D02*
X166313000Y-82802000D01*
X166847000Y-77462000D02*
X167001000Y-76904000D01*
X166933000Y-81609000D02*
X166846000Y-82047000D01*
X167001000Y-76904000D02*
X167083000Y-76606000D01*
X167083000Y-76606000D02*
X167276000Y-76348000D01*
X167177000Y-81242000D02*
X166933000Y-81609000D01*
X167276000Y-76348000D02*
X167550000Y-76178000D01*
X167544000Y-80998000D02*
X167177000Y-81242000D01*
X167550000Y-76178000D02*
X167860000Y-76119000D01*
X167860000Y-76119000D02*
X171946000Y-76119000D01*
X167982000Y-80911000D02*
X167544000Y-80998000D01*
X170782000Y-80911000D02*
X167982000Y-80911000D01*
X171109000Y-80846000D02*
X170782000Y-80911000D01*
X171392000Y-80657000D02*
X171109000Y-80846000D01*
X171581000Y-80374000D02*
X171392000Y-80657000D01*
X171666000Y-79947000D02*
X171581000Y-80374000D01*
X171946000Y-76119000D02*
X171946000Y-77061000D01*
X171946000Y-77061000D02*
X171583000Y-77061000D01*
X123700000Y-71720000D02*
X124721000Y-70699000D01*
X124721000Y-70699000D02*
X127368000Y-70699000D01*
X124721000Y-75491000D02*
X123784000Y-74554000D01*
X127368000Y-70699000D02*
X127930000Y-70594000D01*
X127468000Y-75491000D02*
X124721000Y-75491000D01*
X127871000Y-75411000D02*
X127468000Y-75491000D01*
X127930000Y-70594000D02*
X128409000Y-70295000D01*
X128213000Y-75182000D02*
X127871000Y-75411000D01*
X128409000Y-70295000D02*
X128747000Y-69842000D01*
X128746000Y-74427000D02*
X128746000Y-74649000D01*
X128746000Y-74649000D02*
X128213000Y-75182000D01*
X128747000Y-69842000D02*
X128901000Y-69284000D01*
X128833000Y-73989000D02*
X128746000Y-74427000D01*
X128901000Y-69284000D02*
X128983000Y-68986000D01*
X128983000Y-68986000D02*
X129176000Y-68728000D01*
X129077000Y-73622000D02*
X128833000Y-73989000D01*
X129176000Y-68728000D02*
X129450000Y-68558000D01*
X129444000Y-73378000D02*
X129077000Y-73622000D01*
X129450000Y-68558000D02*
X129760000Y-68499000D01*
X129760000Y-68499000D02*
X133846000Y-68499000D01*
X129882000Y-73291000D02*
X129444000Y-73378000D01*
X132682000Y-73291000D02*
X129882000Y-73291000D01*
X133009000Y-73226000D02*
X132682000Y-73291000D01*
X133292000Y-73037000D02*
X133009000Y-73226000D01*
X133481000Y-72754000D02*
X133292000Y-73037000D01*
X133566000Y-72327000D02*
X133481000Y-72754000D01*
X133846000Y-68499000D02*
X133846000Y-69441000D01*
X133846000Y-69441000D02*
X133483000Y-69441000D01*
X85600000Y-109820000D02*
X86621000Y-108799000D01*
X86621000Y-108799000D02*
X89268000Y-108799000D01*
X86621000Y-113591000D02*
X85684000Y-112654000D01*
X89268000Y-108799000D02*
X89830000Y-108694000D01*
X89368000Y-113591000D02*
X86621000Y-113591000D01*
X89771000Y-113511000D02*
X89368000Y-113591000D01*
X89830000Y-108694000D02*
X90309000Y-108395000D01*
X90113000Y-113282000D02*
X89771000Y-113511000D01*
X90309000Y-108395000D02*
X90647000Y-107942000D01*
X90646000Y-112527000D02*
X90646000Y-112749000D01*
X90646000Y-112749000D02*
X90113000Y-113282000D01*
X90647000Y-107942000D02*
X90801000Y-107384000D01*
X90733000Y-112089000D02*
X90646000Y-112527000D01*
X90801000Y-107384000D02*
X90883000Y-107086000D01*
X90883000Y-107086000D02*
X91076000Y-106828000D01*
X90977000Y-111722000D02*
X90733000Y-112089000D01*
X91076000Y-106828000D02*
X91350000Y-106658000D01*
X91344000Y-111478000D02*
X90977000Y-111722000D01*
X91350000Y-106658000D02*
X91660000Y-106599000D01*
X91660000Y-106599000D02*
X95746000Y-106599000D01*
X91782000Y-111391000D02*
X91344000Y-111478000D01*
X94582000Y-111391000D02*
X91782000Y-111391000D01*
X94909000Y-111326000D02*
X94582000Y-111391000D01*
X95192000Y-111137000D02*
X94909000Y-111326000D01*
X95381000Y-110854000D02*
X95192000Y-111137000D01*
X95466000Y-110427000D02*
X95381000Y-110854000D01*
X95746000Y-106599000D02*
X95746000Y-107541000D01*
X95746000Y-107541000D02*
X95383000Y-107541000D01*
X66550000Y-73625000D02*
X67571000Y-72604000D01*
X67571000Y-72604000D02*
X70218000Y-72604000D01*
X67571000Y-77396000D02*
X66634000Y-76459000D01*
X70218000Y-72604000D02*
X70780000Y-72499000D01*
X70318000Y-77396000D02*
X67571000Y-77396000D01*
X70721000Y-77316000D02*
X70318000Y-77396000D01*
X70780000Y-72499000D02*
X71259000Y-72200000D01*
X71063000Y-77087000D02*
X70721000Y-77316000D01*
X71259000Y-72200000D02*
X71597000Y-71747000D01*
X71596000Y-76332000D02*
X71596000Y-76554000D01*
X71596000Y-76554000D02*
X71063000Y-77087000D01*
X71597000Y-71747000D02*
X71751000Y-71189000D01*
X71683000Y-75894000D02*
X71596000Y-76332000D01*
X71751000Y-71189000D02*
X71833000Y-70891000D01*
X71833000Y-70891000D02*
X72026000Y-70633000D01*
X71927000Y-75527000D02*
X71683000Y-75894000D01*
X72026000Y-70633000D02*
X72300000Y-70463000D01*
X72294000Y-75283000D02*
X71927000Y-75527000D01*
X72300000Y-70463000D02*
X72610000Y-70404000D01*
X72610000Y-70404000D02*
X76696000Y-70404000D01*
X72732000Y-75196000D02*
X72294000Y-75283000D01*
X75532000Y-75196000D02*
X72732000Y-75196000D01*
X75859000Y-75131000D02*
X75532000Y-75196000D01*
X76142000Y-74942000D02*
X75859000Y-75131000D01*
X76331000Y-74659000D02*
X76142000Y-74942000D01*
X76416000Y-74232000D02*
X76331000Y-74659000D01*
X76696000Y-70404000D02*
X76696000Y-71346000D01*
X76696000Y-71346000D02*
X76333000Y-71346000D01*
X104650000Y-86960000D02*
X105671000Y-85939000D01*
X105671000Y-85939000D02*
X108318000Y-85939000D01*
X105671000Y-90731000D02*
X104734000Y-89794000D01*
X108318000Y-85939000D02*
X108880000Y-85834000D01*
X108418000Y-90731000D02*
X105671000Y-90731000D01*
X108821000Y-90651000D02*
X108418000Y-90731000D01*
X108880000Y-85834000D02*
X109359000Y-85535000D01*
X109163000Y-90422000D02*
X108821000Y-90651000D01*
X109359000Y-85535000D02*
X109697000Y-85082000D01*
X109696000Y-89667000D02*
X109696000Y-89889000D01*
X109696000Y-89889000D02*
X109163000Y-90422000D01*
X109697000Y-85082000D02*
X109851000Y-84524000D01*
X109783000Y-89229000D02*
X109696000Y-89667000D01*
X109851000Y-84524000D02*
X109933000Y-84226000D01*
X109933000Y-84226000D02*
X110126000Y-83968000D01*
X110027000Y-88862000D02*
X109783000Y-89229000D01*
X110126000Y-83968000D02*
X110400000Y-83798000D01*
X110394000Y-88618000D02*
X110027000Y-88862000D01*
X110400000Y-83798000D02*
X110710000Y-83739000D01*
X110710000Y-83739000D02*
X114796000Y-83739000D01*
X110832000Y-88531000D02*
X110394000Y-88618000D01*
X113632000Y-88531000D02*
X110832000Y-88531000D01*
X113959000Y-88466000D02*
X113632000Y-88531000D01*
X114242000Y-88277000D02*
X113959000Y-88466000D01*
X114431000Y-87994000D02*
X114242000Y-88277000D01*
X114516000Y-87567000D02*
X114431000Y-87994000D01*
X114796000Y-83739000D02*
X114796000Y-84681000D01*
X114796000Y-84681000D02*
X114433000Y-84681000D01*
X142750000Y-75530000D02*
X143771000Y-74509000D01*
X143771000Y-74509000D02*
X146418000Y-74509000D01*
X143771000Y-79301000D02*
X142834000Y-78364000D01*
X146418000Y-74509000D02*
X146980000Y-74404000D01*
X146518000Y-79301000D02*
X143771000Y-79301000D01*
X146921000Y-79221000D02*
X146518000Y-79301000D01*
X146980000Y-74404000D02*
X147459000Y-74105000D01*
X147263000Y-78992000D02*
X146921000Y-79221000D01*
X147459000Y-74105000D02*
X147797000Y-73652000D01*
X147796000Y-78237000D02*
X147796000Y-78459000D01*
X147796000Y-78459000D02*
X147263000Y-78992000D01*
X147797000Y-73652000D02*
X147951000Y-73094000D01*
X147883000Y-77799000D02*
X147796000Y-78237000D01*
X147951000Y-73094000D02*
X148033000Y-72796000D01*
X148033000Y-72796000D02*
X148226000Y-72538000D01*
X148127000Y-77432000D02*
X147883000Y-77799000D01*
X148226000Y-72538000D02*
X148500000Y-72368000D01*
X148494000Y-77188000D02*
X148127000Y-77432000D01*
X148500000Y-72368000D02*
X148810000Y-72309000D01*
X148810000Y-72309000D02*
X152896000Y-72309000D01*
X148932000Y-77101000D02*
X148494000Y-77188000D01*
X151732000Y-77101000D02*
X148932000Y-77101000D01*
X152059000Y-77036000D02*
X151732000Y-77101000D01*
X152342000Y-76847000D02*
X152059000Y-77036000D01*
X152531000Y-76564000D02*
X152342000Y-76847000D01*
X152616000Y-76137000D02*
X152531000Y-76564000D01*
X152896000Y-72309000D02*
X152896000Y-73251000D01*
X152896000Y-73251000D02*
X152533000Y-73251000D01*
X142755695Y-141536827D02*
X142195676Y-140335862D01*
X143086027Y-137644044D02*
X144394655Y-137033819D01*
X144394655Y-137033819D02*
X146882022Y-137939147D01*
X145337030Y-142476356D02*
X142755695Y-141536827D01*
X145743088Y-142539015D02*
X145337030Y-142476356D01*
X146142785Y-142440796D02*
X145743088Y-142539015D01*
X146825939Y-142122237D02*
X146142785Y-142440796D01*
X146882022Y-137939147D02*
X147446041Y-138032695D01*
X146901867Y-141913625D02*
X146825939Y-142122237D01*
X147133425Y-141531795D02*
X146901867Y-141913625D01*
X147446041Y-138032695D02*
X147998417Y-137915554D01*
X147488231Y-141270381D02*
X147133425Y-141531795D01*
X147916551Y-141166617D02*
X147488231Y-141270381D01*
X147998417Y-137915554D02*
X148470967Y-137605476D01*
X148357892Y-141234669D02*
X147916551Y-141166617D01*
X148470967Y-137605476D02*
X148806529Y-137133799D01*
X148806529Y-137133799D02*
X148985505Y-136881816D01*
X148985505Y-136881816D02*
X149255108Y-136705383D01*
X149255108Y-136705383D02*
X149570726Y-136639351D01*
X149570726Y-136639351D02*
X149882211Y-136689935D01*
X149882211Y-136689935D02*
X153721795Y-138087430D01*
X150989032Y-142192325D02*
X148357892Y-141234669D01*
X151318543Y-142243087D02*
X150989032Y-142192325D01*
X151649118Y-142162276D02*
X151318543Y-142243087D01*
X151923511Y-141960984D02*
X151649118Y-142162276D01*
X152149427Y-141588808D02*
X151923511Y-141960984D01*
X153399612Y-138972620D02*
X153058503Y-138848468D01*
X153721795Y-138087430D02*
X153399612Y-138972620D01*
X104650000Y-131675000D02*
X105671000Y-130654000D01*
X105671000Y-130654000D02*
X108318000Y-130654000D01*
X105671000Y-135446000D02*
X104734000Y-134509000D01*
X108318000Y-130654000D02*
X108880000Y-130549000D01*
X108418000Y-135446000D02*
X105671000Y-135446000D01*
X108821000Y-135366000D02*
X108418000Y-135446000D01*
X108880000Y-130549000D02*
X109359000Y-130250000D01*
X109163000Y-135137000D02*
X108821000Y-135366000D01*
X109359000Y-130250000D02*
X109697000Y-129797000D01*
X109696000Y-134382000D02*
X109696000Y-134604000D01*
X109696000Y-134604000D02*
X109163000Y-135137000D01*
X109697000Y-129797000D02*
X109851000Y-129239000D01*
X109783000Y-133944000D02*
X109696000Y-134382000D01*
X109851000Y-129239000D02*
X109933000Y-128941000D01*
X109933000Y-128941000D02*
X110126000Y-128683000D01*
X110027000Y-133577000D02*
X109783000Y-133944000D01*
X110126000Y-128683000D02*
X110400000Y-128513000D01*
X110394000Y-133333000D02*
X110027000Y-133577000D01*
X110400000Y-128513000D02*
X110710000Y-128454000D01*
X110710000Y-128454000D02*
X114796000Y-128454000D01*
X110832000Y-133246000D02*
X110394000Y-133333000D01*
X113632000Y-133246000D02*
X110832000Y-133246000D01*
X113959000Y-133181000D02*
X113632000Y-133246000D01*
X114242000Y-132992000D02*
X113959000Y-133181000D01*
X114431000Y-132709000D02*
X114242000Y-132992000D01*
X114516000Y-132282000D02*
X114431000Y-132709000D01*
X114796000Y-128454000D02*
X114796000Y-129396000D01*
X114796000Y-129396000D02*
X114433000Y-129396000D01*
X104650000Y-106010000D02*
X105671000Y-104989000D01*
X105671000Y-104989000D02*
X108318000Y-104989000D01*
X105671000Y-109781000D02*
X104734000Y-108844000D01*
X108318000Y-104989000D02*
X108880000Y-104884000D01*
X108418000Y-109781000D02*
X105671000Y-109781000D01*
X108821000Y-109701000D02*
X108418000Y-109781000D01*
X108880000Y-104884000D02*
X109359000Y-104585000D01*
X109163000Y-109472000D02*
X108821000Y-109701000D01*
X109359000Y-104585000D02*
X109697000Y-104132000D01*
X109696000Y-108717000D02*
X109696000Y-108939000D01*
X109696000Y-108939000D02*
X109163000Y-109472000D01*
X109697000Y-104132000D02*
X109851000Y-103574000D01*
X109783000Y-108279000D02*
X109696000Y-108717000D01*
X109851000Y-103574000D02*
X109933000Y-103276000D01*
X109933000Y-103276000D02*
X110126000Y-103018000D01*
X110027000Y-107912000D02*
X109783000Y-108279000D01*
X110126000Y-103018000D02*
X110400000Y-102848000D01*
X110394000Y-107668000D02*
X110027000Y-107912000D01*
X110400000Y-102848000D02*
X110710000Y-102789000D01*
X110710000Y-102789000D02*
X114796000Y-102789000D01*
X110832000Y-107581000D02*
X110394000Y-107668000D01*
X113632000Y-107581000D02*
X110832000Y-107581000D01*
X113959000Y-107516000D02*
X113632000Y-107581000D01*
X114242000Y-107327000D02*
X113959000Y-107516000D01*
X114431000Y-107044000D02*
X114242000Y-107327000D01*
X114516000Y-106617000D02*
X114431000Y-107044000D01*
X114796000Y-102789000D02*
X114796000Y-103731000D01*
X114796000Y-103731000D02*
X114433000Y-103731000D01*
X47500000Y-111725000D02*
X48521000Y-110704000D01*
X48521000Y-110704000D02*
X51168000Y-110704000D01*
X48521000Y-115496000D02*
X47584000Y-114559000D01*
X51168000Y-110704000D02*
X51730000Y-110599000D01*
X51268000Y-115496000D02*
X48521000Y-115496000D01*
X51671000Y-115416000D02*
X51268000Y-115496000D01*
X51730000Y-110599000D02*
X52209000Y-110300000D01*
X52013000Y-115187000D02*
X51671000Y-115416000D01*
X52209000Y-110300000D02*
X52547000Y-109847000D01*
X52546000Y-114432000D02*
X52546000Y-114654000D01*
X52546000Y-114654000D02*
X52013000Y-115187000D01*
X52547000Y-109847000D02*
X52701000Y-109289000D01*
X52633000Y-113994000D02*
X52546000Y-114432000D01*
X52701000Y-109289000D02*
X52783000Y-108991000D01*
X52783000Y-108991000D02*
X52976000Y-108733000D01*
X52877000Y-113627000D02*
X52633000Y-113994000D01*
X52976000Y-108733000D02*
X53250000Y-108563000D01*
X53244000Y-113383000D02*
X52877000Y-113627000D01*
X53250000Y-108563000D02*
X53560000Y-108504000D01*
X53560000Y-108504000D02*
X57646000Y-108504000D01*
X53682000Y-113296000D02*
X53244000Y-113383000D01*
X56482000Y-113296000D02*
X53682000Y-113296000D01*
X56809000Y-113231000D02*
X56482000Y-113296000D01*
X57092000Y-113042000D02*
X56809000Y-113231000D01*
X57281000Y-112759000D02*
X57092000Y-113042000D01*
X57366000Y-112332000D02*
X57281000Y-112759000D01*
X57646000Y-108504000D02*
X57646000Y-109446000D01*
X57646000Y-109446000D02*
X57283000Y-109446000D01*
X142750000Y-94580000D02*
X143771000Y-93559000D01*
X143771000Y-93559000D02*
X146418000Y-93559000D01*
X143771000Y-98351000D02*
X142834000Y-97414000D01*
X146418000Y-93559000D02*
X146980000Y-93454000D01*
X146518000Y-98351000D02*
X143771000Y-98351000D01*
X146921000Y-98271000D02*
X146518000Y-98351000D01*
X146980000Y-93454000D02*
X147459000Y-93155000D01*
X147263000Y-98042000D02*
X146921000Y-98271000D01*
X147459000Y-93155000D02*
X147797000Y-92702000D01*
X147796000Y-97287000D02*
X147796000Y-97509000D01*
X147796000Y-97509000D02*
X147263000Y-98042000D01*
X147797000Y-92702000D02*
X147951000Y-92144000D01*
X147883000Y-96849000D02*
X147796000Y-97287000D01*
X147951000Y-92144000D02*
X148033000Y-91846000D01*
X148033000Y-91846000D02*
X148226000Y-91588000D01*
X148127000Y-96482000D02*
X147883000Y-96849000D01*
X148226000Y-91588000D02*
X148500000Y-91418000D01*
X148494000Y-96238000D02*
X148127000Y-96482000D01*
X148500000Y-91418000D02*
X148810000Y-91359000D01*
X148810000Y-91359000D02*
X152896000Y-91359000D01*
X148932000Y-96151000D02*
X148494000Y-96238000D01*
X151732000Y-96151000D02*
X148932000Y-96151000D01*
X152059000Y-96086000D02*
X151732000Y-96151000D01*
X152342000Y-95897000D02*
X152059000Y-96086000D01*
X152531000Y-95614000D02*
X152342000Y-95897000D01*
X152616000Y-95187000D02*
X152531000Y-95614000D01*
X152896000Y-91359000D02*
X152896000Y-92301000D01*
X152896000Y-92301000D02*
X152533000Y-92301000D01*
X161800000Y-98390000D02*
X162821000Y-97369000D01*
X162821000Y-97369000D02*
X165468000Y-97369000D01*
X162821000Y-102161000D02*
X161884000Y-101224000D01*
X165468000Y-97369000D02*
X166030000Y-97264000D01*
X165568000Y-102161000D02*
X162821000Y-102161000D01*
X165971000Y-102081000D02*
X165568000Y-102161000D01*
X166030000Y-97264000D02*
X166509000Y-96965000D01*
X166313000Y-101852000D02*
X165971000Y-102081000D01*
X166509000Y-96965000D02*
X166847000Y-96512000D01*
X166846000Y-101097000D02*
X166846000Y-101319000D01*
X166846000Y-101319000D02*
X166313000Y-101852000D01*
X166847000Y-96512000D02*
X167001000Y-95954000D01*
X166933000Y-100659000D02*
X166846000Y-101097000D01*
X167001000Y-95954000D02*
X167083000Y-95656000D01*
X167083000Y-95656000D02*
X167276000Y-95398000D01*
X167177000Y-100292000D02*
X166933000Y-100659000D01*
X167276000Y-95398000D02*
X167550000Y-95228000D01*
X167544000Y-100048000D02*
X167177000Y-100292000D01*
X167550000Y-95228000D02*
X167860000Y-95169000D01*
X167860000Y-95169000D02*
X171946000Y-95169000D01*
X167982000Y-99961000D02*
X167544000Y-100048000D01*
X170782000Y-99961000D02*
X167982000Y-99961000D01*
X171109000Y-99896000D02*
X170782000Y-99961000D01*
X171392000Y-99707000D02*
X171109000Y-99896000D01*
X171581000Y-99424000D02*
X171392000Y-99707000D01*
X171666000Y-98997000D02*
X171581000Y-99424000D01*
X171946000Y-95169000D02*
X171946000Y-96111000D01*
X171946000Y-96111000D02*
X171583000Y-96111000D01*
X104650000Y-67910000D02*
X105671000Y-66889000D01*
X105671000Y-66889000D02*
X108318000Y-66889000D01*
X105671000Y-71681000D02*
X104734000Y-70744000D01*
X108318000Y-66889000D02*
X108880000Y-66784000D01*
X108418000Y-71681000D02*
X105671000Y-71681000D01*
X108821000Y-71601000D02*
X108418000Y-71681000D01*
X108880000Y-66784000D02*
X109359000Y-66485000D01*
X109163000Y-71372000D02*
X108821000Y-71601000D01*
X109359000Y-66485000D02*
X109697000Y-66032000D01*
X109696000Y-70617000D02*
X109696000Y-70839000D01*
X109696000Y-70839000D02*
X109163000Y-71372000D01*
X109697000Y-66032000D02*
X109851000Y-65474000D01*
X109783000Y-70179000D02*
X109696000Y-70617000D01*
X109851000Y-65474000D02*
X109933000Y-65176000D01*
X109933000Y-65176000D02*
X110126000Y-64918000D01*
X110027000Y-69812000D02*
X109783000Y-70179000D01*
X110126000Y-64918000D02*
X110400000Y-64748000D01*
X110394000Y-69568000D02*
X110027000Y-69812000D01*
X110400000Y-64748000D02*
X110710000Y-64689000D01*
X110710000Y-64689000D02*
X114796000Y-64689000D01*
X110832000Y-69481000D02*
X110394000Y-69568000D01*
X113632000Y-69481000D02*
X110832000Y-69481000D01*
X113959000Y-69416000D02*
X113632000Y-69481000D01*
X114242000Y-69227000D02*
X113959000Y-69416000D01*
X114431000Y-68944000D02*
X114242000Y-69227000D01*
X114516000Y-68517000D02*
X114431000Y-68944000D01*
X114796000Y-64689000D02*
X114796000Y-65631000D01*
X114796000Y-65631000D02*
X114433000Y-65631000D01*
X85600000Y-90770000D02*
X86621000Y-89749000D01*
X86621000Y-89749000D02*
X89268000Y-89749000D01*
X86621000Y-94541000D02*
X85684000Y-93604000D01*
X89268000Y-89749000D02*
X89830000Y-89644000D01*
X89368000Y-94541000D02*
X86621000Y-94541000D01*
X89771000Y-94461000D02*
X89368000Y-94541000D01*
X89830000Y-89644000D02*
X90309000Y-89345000D01*
X90113000Y-94232000D02*
X89771000Y-94461000D01*
X90309000Y-89345000D02*
X90647000Y-88892000D01*
X90646000Y-93477000D02*
X90646000Y-93699000D01*
X90646000Y-93699000D02*
X90113000Y-94232000D01*
X90647000Y-88892000D02*
X90801000Y-88334000D01*
X90733000Y-93039000D02*
X90646000Y-93477000D01*
X90801000Y-88334000D02*
X90883000Y-88036000D01*
X90883000Y-88036000D02*
X91076000Y-87778000D01*
X90977000Y-92672000D02*
X90733000Y-93039000D01*
X91076000Y-87778000D02*
X91350000Y-87608000D01*
X91344000Y-92428000D02*
X90977000Y-92672000D01*
X91350000Y-87608000D02*
X91660000Y-87549000D01*
X91660000Y-87549000D02*
X95746000Y-87549000D01*
X91782000Y-92341000D02*
X91344000Y-92428000D01*
X94582000Y-92341000D02*
X91782000Y-92341000D01*
X94909000Y-92276000D02*
X94582000Y-92341000D01*
X95192000Y-92087000D02*
X94909000Y-92276000D01*
X95381000Y-91804000D02*
X95192000Y-92087000D01*
X95466000Y-91377000D02*
X95381000Y-91804000D01*
X95746000Y-87549000D02*
X95746000Y-88491000D01*
X95746000Y-88491000D02*
X95383000Y-88491000D01*
X47500000Y-92675000D02*
X48521000Y-91654000D01*
X48521000Y-91654000D02*
X51168000Y-91654000D01*
X48521000Y-96446000D02*
X47584000Y-95509000D01*
X51168000Y-91654000D02*
X51730000Y-91549000D01*
X51268000Y-96446000D02*
X48521000Y-96446000D01*
X51671000Y-96366000D02*
X51268000Y-96446000D01*
X51730000Y-91549000D02*
X52209000Y-91250000D01*
X52013000Y-96137000D02*
X51671000Y-96366000D01*
X52209000Y-91250000D02*
X52547000Y-90797000D01*
X52546000Y-95382000D02*
X52546000Y-95604000D01*
X52546000Y-95604000D02*
X52013000Y-96137000D01*
X52547000Y-90797000D02*
X52701000Y-90239000D01*
X52633000Y-94944000D02*
X52546000Y-95382000D01*
X52701000Y-90239000D02*
X52783000Y-89941000D01*
X52783000Y-89941000D02*
X52976000Y-89683000D01*
X52877000Y-94577000D02*
X52633000Y-94944000D01*
X52976000Y-89683000D02*
X53250000Y-89513000D01*
X53244000Y-94333000D02*
X52877000Y-94577000D01*
X53250000Y-89513000D02*
X53560000Y-89454000D01*
X53560000Y-89454000D02*
X57646000Y-89454000D01*
X53682000Y-94246000D02*
X53244000Y-94333000D01*
X56482000Y-94246000D02*
X53682000Y-94246000D01*
X56809000Y-94181000D02*
X56482000Y-94246000D01*
X57092000Y-93992000D02*
X56809000Y-94181000D01*
X57281000Y-93709000D02*
X57092000Y-93992000D01*
X57366000Y-93282000D02*
X57281000Y-93709000D01*
X57646000Y-89454000D02*
X57646000Y-90396000D01*
X57646000Y-90396000D02*
X57283000Y-90396000D01*
D16*
X90353013Y-123824956D03*
X85273013Y-123824956D03*
X90353013Y-127024956D03*
X85273013Y-127024956D03*
D17*
X46390071Y-78405307D03*
D16*
X54010071Y-78405307D03*
D17*
X46307758Y-97623066D03*
D16*
X53927758Y-97623066D03*
D17*
X46149357Y-116290587D03*
D16*
X53769357Y-116290587D03*
D17*
X65232293Y-78520954D03*
D16*
X72852293Y-78520954D03*
D17*
X65181633Y-97582678D03*
D16*
X72801633Y-97582678D03*
D17*
X84290532Y-76586188D03*
D16*
X91910532Y-76586188D03*
D17*
X84328206Y-95782531D03*
D16*
X91948206Y-95782531D03*
D17*
X83697186Y-114785930D03*
D16*
X91317186Y-114785930D03*
D17*
X103325943Y-72827307D03*
D16*
X110945943Y-72827307D03*
D17*
X103450949Y-91868870D03*
D16*
X111070949Y-91868870D03*
D17*
X103833127Y-111037794D03*
D16*
X111453127Y-111037794D03*
D17*
X103307381Y-118129184D03*
D16*
X110927381Y-118129184D03*
D17*
X122323957Y-76606883D03*
D16*
X129943957Y-76606883D03*
D17*
X122398584Y-95473267D03*
D16*
X130018584Y-95473267D03*
D17*
X122574534Y-114565608D03*
D16*
X130194540Y-114565608D03*
D18*
X125747546Y-118904889D03*
D16*
X133251786Y-120228089D03*
D17*
X141212415Y-80432207D03*
D16*
X148832415Y-80432207D03*
D17*
X141437956Y-99440777D03*
D16*
X149057956Y-99440777D03*
D17*
X138131447Y-118484079D03*
D16*
X145751447Y-118484079D03*
D17*
X160340290Y-84274501D03*
D16*
X167960290Y-84274501D03*
D17*
X155457977Y-103403297D03*
D16*
X163077977Y-103403297D03*
D17*
X155456529Y-105744596D03*
D16*
X163076529Y-105744598D03*
D19*
X159942961Y-129405249D03*
D16*
X166542073Y-133215251D03*
X92913013Y-123824956D03*
X92913013Y-127024956D03*
D20*
X86682387Y-130629586D03*
X93232387Y-130629586D03*
D21*
X46082000Y-134690000D03*
X44812000Y-118143600D03*
X48622000Y-134690000D03*
X47352000Y-118143600D03*
X51162000Y-134690000D03*
X49892000Y-118143600D03*
X53702000Y-134690000D03*
X52432000Y-118143600D03*
X56242000Y-134690000D03*
X54972000Y-118143600D03*
X58782000Y-134690000D03*
X57512000Y-118143600D03*
X61322000Y-134690000D03*
X60052000Y-118143600D03*
X63862000Y-134690000D03*
X62592000Y-118143600D03*
X66402000Y-134690000D03*
X65132000Y-118143600D03*
X68942000Y-134690000D03*
X67672000Y-118143600D03*
X71482000Y-134690000D03*
X70212000Y-118143600D03*
X74022000Y-134690000D03*
X72752000Y-118143600D03*
X72752000Y-133363600D03*
X74022000Y-119450000D03*
X70212000Y-133363600D03*
X71482000Y-119450000D03*
X67672000Y-133363600D03*
X68942000Y-119450000D03*
X65132000Y-133363600D03*
X66402000Y-119450000D03*
X62592000Y-133363600D03*
X63862000Y-119450000D03*
X60052000Y-133363600D03*
X61322000Y-119450000D03*
X57512000Y-133363600D03*
X58782000Y-119450000D03*
X54972000Y-133363600D03*
X56242000Y-119450000D03*
X52432000Y-133363600D03*
X53702000Y-119450000D03*
X49892000Y-133363600D03*
X51162000Y-119450000D03*
X47352000Y-133363600D03*
X48622000Y-119450000D03*
X44812000Y-133363600D03*
X46082000Y-119450000D03*
D22*
X148890669Y-125554394D03*
D16*
X156051127Y-128160588D03*
D23*
X95500000Y-119200000D03*
X95500000Y-133700000D03*
M02*
