%TF.GenerationSoftware,KiCad,Pcbnew,8.0.1*%
%TF.CreationDate,2024-03-22T14:56:21+09:00*%
%TF.ProjectId,Pinky3,50696e6b-7933-42e6-9b69-6361645f7063,0.3*%
%TF.SameCoordinates,Original*%
%TF.FileFunction,Drillmap*%
%TF.FilePolarity,Positive*%
%FSLAX45Y45*%
G04 Gerber Fmt 4.5, Leading zero omitted, Abs format (unit mm)*
G04 Created by KiCad (PCBNEW 8.0.1) date 2024-03-22 14:56:21*
%MOMM*%
%LPD*%
G01*
G04 APERTURE LIST*
%ADD10C,0.150000*%
%ADD11C,0.200000*%
%ADD12C,0.100000*%
%ADD13C,0.130000*%
%ADD14C,0.160000*%
%ADD15C,0.305000*%
G04 APERTURE END LIST*
D10*
X17590000Y-10280000D02*
G75*
G02*
X17670000Y-10360000I0J-80000D01*
G01*
X17501395Y-10279551D02*
G75*
G02*
X17431399Y-10209551I5J70001D01*
G01*
X17670000Y-10360000D02*
X17670000Y-11610000D01*
X4100000Y-13560000D02*
X4100000Y-6050000D01*
X13460000Y-13940000D02*
X13540000Y-13960000D01*
X17433201Y-6638736D02*
X17431395Y-10209551D01*
X13540000Y-13960000D02*
X15240000Y-14580000D01*
X11610000Y-13630000D02*
X11710000Y-13630000D01*
X11620000Y-5430000D02*
X17364032Y-6567720D01*
X16890000Y-13370000D02*
X17670000Y-11610000D01*
X17501395Y-10279551D02*
X17590000Y-10280000D01*
X17790000Y-14050000D02*
X16970000Y-15490000D01*
X16920000Y-13460000D02*
G75*
G02*
X16890000Y-13370000I30000J60000D01*
G01*
X15310000Y-14610000D02*
X16870000Y-15510000D01*
X16920000Y-13460000D02*
X17760000Y-13940000D01*
X4170000Y-13630000D02*
G75*
G02*
X4100000Y-13560000I0J70000D01*
G01*
X9810000Y-5430000D02*
X11620000Y-5430000D01*
X11610000Y-13630000D02*
X4170000Y-13630000D01*
X16970000Y-15490000D02*
G75*
G02*
X16870000Y-15510000I-60000J40000D01*
G01*
X4180000Y-5970000D02*
X9810000Y-5430000D01*
X15240000Y-14580000D02*
X15310000Y-14610000D01*
X11710000Y-13630000D02*
X13460000Y-13940000D01*
X17363270Y-6568745D02*
G75*
G02*
X17433203Y-6638736I-10070J-79995D01*
G01*
X17760000Y-13940000D02*
G75*
G02*
X17790000Y-14050000I-40000J-70000D01*
G01*
X4099415Y-6053186D02*
G75*
G02*
X4180000Y-5970000I100585J-16814D01*
G01*
D11*
D12*
X4429559Y-12619041D02*
X4469559Y-12659041D01*
X4469559Y-12619041D02*
X4429559Y-12659041D01*
X4454456Y-12494154D02*
X4494456Y-12534154D01*
X4494456Y-12494154D02*
X4454456Y-12534154D01*
X4719953Y-13102439D02*
X4759953Y-13142439D01*
X4759953Y-13102439D02*
X4719953Y-13142439D01*
X4842200Y-13189360D02*
X4882200Y-13229360D01*
X4882200Y-13189360D02*
X4842200Y-13229360D01*
X4902743Y-12972795D02*
X4942743Y-13012795D01*
X4942743Y-12972795D02*
X4902743Y-13012795D01*
X4989680Y-12798226D02*
X5029680Y-12838226D01*
X5029680Y-12798226D02*
X4989680Y-12838226D01*
X5001270Y-10309672D02*
X5041270Y-10349672D01*
X5041270Y-10309672D02*
X5001270Y-10349672D01*
X5001448Y-8411394D02*
X5041448Y-8451394D01*
X5041448Y-8411394D02*
X5001448Y-8451394D01*
X5002672Y-6515633D02*
X5042672Y-6555633D01*
X5042672Y-6515633D02*
X5002672Y-6555633D01*
X5095528Y-12912162D02*
X5135528Y-12952162D01*
X5135528Y-12912162D02*
X5095528Y-12952162D01*
X5349158Y-12648081D02*
X5389158Y-12688081D01*
X5389158Y-12648081D02*
X5349158Y-12688081D01*
X5477200Y-12426000D02*
X5517200Y-12466000D01*
X5517200Y-12426000D02*
X5477200Y-12466000D01*
X5604200Y-13184800D02*
X5644200Y-13224800D01*
X5644200Y-13184800D02*
X5604200Y-13224800D01*
X5733187Y-12728081D02*
X5773187Y-12768081D01*
X5773187Y-12728081D02*
X5733187Y-12768081D01*
X5858200Y-13189200D02*
X5898200Y-13229200D01*
X5898200Y-13189200D02*
X5858200Y-13229200D01*
X5989459Y-12106787D02*
X6029459Y-12146787D01*
X6029459Y-12106787D02*
X5989459Y-12146787D01*
X6112200Y-13186800D02*
X6152200Y-13226800D01*
X6152200Y-13186800D02*
X6112200Y-13226800D01*
X6113940Y-12148465D02*
X6153940Y-12188465D01*
X6153940Y-12148465D02*
X6113940Y-12188465D01*
X6243459Y-12032820D02*
X6283459Y-12072820D01*
X6283459Y-12032820D02*
X6243459Y-12072820D01*
X6365279Y-13187663D02*
X6405279Y-13227663D01*
X6405279Y-13187663D02*
X6365279Y-13227663D01*
X6366497Y-12307597D02*
X6406497Y-12347597D01*
X6406497Y-12307597D02*
X6366497Y-12347597D01*
X6620200Y-13188800D02*
X6660200Y-13228800D01*
X6660200Y-13188800D02*
X6620200Y-13228800D01*
X6620248Y-12390311D02*
X6660248Y-12430311D01*
X6660248Y-12390311D02*
X6620248Y-12430311D01*
X6749667Y-12523081D02*
X6789667Y-12563081D01*
X6789667Y-12523081D02*
X6749667Y-12563081D01*
X6874200Y-13184800D02*
X6914200Y-13224800D01*
X6914200Y-13184800D02*
X6874200Y-13224800D01*
X6875751Y-12471901D02*
X6915751Y-12511901D01*
X6915751Y-12471901D02*
X6875751Y-12511901D01*
X6887451Y-6508725D02*
X6927451Y-6548725D01*
X6927451Y-6508725D02*
X6887451Y-6548725D01*
X6891317Y-8424465D02*
X6931317Y-8464465D01*
X6931317Y-8424465D02*
X6891317Y-8464465D01*
X6898146Y-10306923D02*
X6938146Y-10346923D01*
X6938146Y-10306923D02*
X6898146Y-10346923D01*
X7126818Y-12225816D02*
X7166818Y-12265816D01*
X7166818Y-12225816D02*
X7126818Y-12265816D01*
X7128200Y-13189200D02*
X7168200Y-13229200D01*
X7168200Y-13189200D02*
X7128200Y-13229200D01*
X7382200Y-13186800D02*
X7422200Y-13226800D01*
X7422200Y-13186800D02*
X7382200Y-13226800D01*
X7623808Y-12223589D02*
X7663808Y-12263589D01*
X7663808Y-12223589D02*
X7623808Y-12263589D01*
X7721927Y-11416541D02*
X7761927Y-11456541D01*
X7761927Y-11416541D02*
X7721927Y-11456541D01*
X7822151Y-13120230D02*
X7862151Y-13160230D01*
X7862151Y-13120230D02*
X7822151Y-13160230D01*
X8231260Y-13404202D02*
X8271260Y-13444202D01*
X8271260Y-13404202D02*
X8231260Y-13444202D01*
X8772180Y-13209152D02*
X8812180Y-13249152D01*
X8812180Y-13209152D02*
X8772180Y-13249152D01*
X8782868Y-8218122D02*
X8822868Y-8258122D01*
X8822868Y-8218122D02*
X8782868Y-8258122D01*
X8786357Y-6306144D02*
X8826357Y-6346144D01*
X8826357Y-6306144D02*
X8786357Y-6346144D01*
X8786357Y-10127776D02*
X8826357Y-10167776D01*
X8826357Y-10127776D02*
X8786357Y-10167776D01*
X9552604Y-12138259D02*
X9592604Y-12178259D01*
X9592604Y-12138259D02*
X9552604Y-12178259D01*
X9843415Y-11199285D02*
X9883415Y-11239285D01*
X9883415Y-11199285D02*
X9843415Y-11239285D01*
X9966905Y-12136751D02*
X10006905Y-12176751D01*
X10006905Y-12136751D02*
X9966905Y-12176751D01*
X9980967Y-11271698D02*
X10020967Y-11311698D01*
X10020967Y-11271698D02*
X9980967Y-11311698D01*
X10116290Y-11337002D02*
X10156290Y-11377002D01*
X10156290Y-11337002D02*
X10116290Y-11377002D01*
X10691786Y-7827116D02*
X10731786Y-7867116D01*
X10731786Y-7827116D02*
X10691786Y-7867116D01*
X10709660Y-5939219D02*
X10749660Y-5979219D01*
X10749660Y-5939219D02*
X10709660Y-5979219D01*
X10715780Y-9761430D02*
X10755780Y-9801430D01*
X10755780Y-9761430D02*
X10715780Y-9801430D01*
X10854471Y-12317745D02*
X10894471Y-12357745D01*
X10894471Y-12317745D02*
X10854471Y-12357745D01*
X11539091Y-12749889D02*
X11579091Y-12789889D01*
X11579091Y-12749889D02*
X11539091Y-12789889D01*
X11577498Y-11468861D02*
X11617498Y-11508861D01*
X11617498Y-11468861D02*
X11577498Y-11508861D01*
X11681974Y-11511657D02*
X11721974Y-11551657D01*
X11721974Y-11511657D02*
X11681974Y-11551657D01*
X11791230Y-11591406D02*
X11831230Y-11631406D01*
X11831230Y-11591406D02*
X11791230Y-11631406D01*
X12592295Y-6317476D02*
X12632295Y-6357476D01*
X12632295Y-6317476D02*
X12592295Y-6357476D01*
X12600890Y-10123650D02*
X12640890Y-10163650D01*
X12640890Y-10123650D02*
X12600890Y-10163650D01*
X12609740Y-8229489D02*
X12649740Y-8269489D01*
X12649740Y-8229489D02*
X12609740Y-8269489D01*
X12972301Y-12551509D02*
X13012301Y-12591509D01*
X13012301Y-12551509D02*
X12972301Y-12591509D01*
X13296241Y-11662709D02*
X13336241Y-11702709D01*
X13336241Y-11662709D02*
X13296241Y-11702709D01*
X13299850Y-11744015D02*
X13339850Y-11784015D01*
X13339850Y-11744015D02*
X13299850Y-11784015D01*
X13315100Y-12719789D02*
X13355100Y-12759789D01*
X13355100Y-12719789D02*
X13315100Y-12759789D01*
X13699021Y-10670207D02*
X13739021Y-10710207D01*
X13739021Y-10670207D02*
X13699021Y-10710207D01*
X13899921Y-10670207D02*
X13939921Y-10710207D01*
X13939921Y-10670207D02*
X13899921Y-10710207D01*
X14535123Y-10506439D02*
X14575123Y-10546439D01*
X14575123Y-10506439D02*
X14535123Y-10546439D01*
X14549079Y-6703668D02*
X14589079Y-6743668D01*
X14589079Y-6703668D02*
X14549079Y-6743668D01*
X14556057Y-8622624D02*
X14596057Y-8662624D01*
X14596057Y-8622624D02*
X14556057Y-8662624D01*
X14802527Y-13057179D02*
X14842527Y-13097179D01*
X14842527Y-13057179D02*
X14802527Y-13097179D01*
X16275946Y-12307517D02*
X16315946Y-12347517D01*
X16315946Y-12307517D02*
X16275946Y-12347517D01*
X16298039Y-10953773D02*
X16338039Y-10993773D01*
X16338039Y-10953773D02*
X16298039Y-10993773D01*
X16394724Y-7065732D02*
X16434724Y-7105732D01*
X16434724Y-7065732D02*
X16394724Y-7105732D01*
X16422942Y-10889629D02*
X16462942Y-10929629D01*
X16462942Y-10889629D02*
X16422942Y-10929629D01*
X16709559Y-14606195D02*
X16749559Y-14646195D01*
X16749559Y-14606195D02*
X16709559Y-14646195D01*
X16736698Y-8991018D02*
X16776698Y-9031018D01*
X16776698Y-8991018D02*
X16736698Y-9031018D01*
X16744000Y-11664000D02*
X16784000Y-11704000D01*
X16784000Y-11664000D02*
X16744000Y-11704000D01*
X16862398Y-10466889D02*
G75*
G02*
X16822398Y-10466889I-20000J0D01*
G01*
X16822398Y-10466889D02*
G75*
G02*
X16862398Y-10466889I20000J0D01*
G01*
X16862398Y-10551889D02*
G75*
G02*
X16822398Y-10551889I-20000J0D01*
G01*
X16822398Y-10551889D02*
G75*
G02*
X16862398Y-10551889I20000J0D01*
G01*
X16862398Y-10636889D02*
G75*
G02*
X16822398Y-10636889I-20000J0D01*
G01*
X16822398Y-10636889D02*
G75*
G02*
X16862398Y-10636889I20000J0D01*
G01*
X16862398Y-10721889D02*
G75*
G02*
X16822398Y-10721889I-20000J0D01*
G01*
X16822398Y-10721889D02*
G75*
G02*
X16862398Y-10721889I20000J0D01*
G01*
X16862398Y-10806889D02*
G75*
G02*
X16822398Y-10806889I-20000J0D01*
G01*
X16822398Y-10806889D02*
G75*
G02*
X16862398Y-10806889I20000J0D01*
G01*
X16862398Y-10891889D02*
G75*
G02*
X16822398Y-10891889I-20000J0D01*
G01*
X16822398Y-10891889D02*
G75*
G02*
X16862398Y-10891889I20000J0D01*
G01*
X16862398Y-10976889D02*
G75*
G02*
X16822398Y-10976889I-20000J0D01*
G01*
X16822398Y-10976889D02*
G75*
G02*
X16862398Y-10976889I20000J0D01*
G01*
X16862398Y-11061889D02*
G75*
G02*
X16822398Y-11061889I-20000J0D01*
G01*
X16822398Y-11061889D02*
G75*
G02*
X16862398Y-11061889I20000J0D01*
G01*
X16997398Y-10466889D02*
G75*
G02*
X16957398Y-10466889I-20000J0D01*
G01*
X16957398Y-10466889D02*
G75*
G02*
X16997398Y-10466889I20000J0D01*
G01*
X16997398Y-10551889D02*
G75*
G02*
X16957398Y-10551889I-20000J0D01*
G01*
X16957398Y-10551889D02*
G75*
G02*
X16997398Y-10551889I20000J0D01*
G01*
X16997398Y-10636889D02*
G75*
G02*
X16957398Y-10636889I-20000J0D01*
G01*
X16957398Y-10636889D02*
G75*
G02*
X16997398Y-10636889I20000J0D01*
G01*
X16997398Y-10721889D02*
G75*
G02*
X16957398Y-10721889I-20000J0D01*
G01*
X16957398Y-10721889D02*
G75*
G02*
X16997398Y-10721889I20000J0D01*
G01*
X16997398Y-10806889D02*
G75*
G02*
X16957398Y-10806889I-20000J0D01*
G01*
X16957398Y-10806889D02*
G75*
G02*
X16997398Y-10806889I20000J0D01*
G01*
X16997398Y-10891889D02*
G75*
G02*
X16957398Y-10891889I-20000J0D01*
G01*
X16957398Y-10891889D02*
G75*
G02*
X16997398Y-10891889I20000J0D01*
G01*
X16997398Y-10976889D02*
G75*
G02*
X16957398Y-10976889I-20000J0D01*
G01*
X16957398Y-10976889D02*
G75*
G02*
X16997398Y-10976889I20000J0D01*
G01*
X16997398Y-11061889D02*
G75*
G02*
X16957398Y-11061889I-20000J0D01*
G01*
X16957398Y-11061889D02*
G75*
G02*
X16997398Y-11061889I20000J0D01*
G01*
X16940398Y-10301889D02*
X16940398Y-10361889D01*
X16910398Y-10331889D02*
X16970398Y-10331889D01*
X16865398Y-10361889D02*
X17015398Y-10361889D01*
X17015398Y-10301889D02*
G75*
G02*
X17015398Y-10361889I0J-30000D01*
G01*
X17015398Y-10301889D02*
X16865398Y-10301889D01*
X16865398Y-10301889D02*
G75*
G03*
X16865398Y-10361889I0J-30000D01*
G01*
X16940398Y-11166889D02*
X16940398Y-11226889D01*
X16910398Y-11196889D02*
X16970398Y-11196889D01*
X16865398Y-11226889D02*
X17015398Y-11226889D01*
X17015398Y-11166889D02*
G75*
G02*
X17015398Y-11226889I0J-30000D01*
G01*
X17015398Y-11166889D02*
X16865398Y-11166889D01*
X16865398Y-11166889D02*
G75*
G03*
X16865398Y-11226889I0J-30000D01*
G01*
X17278398Y-10301889D02*
X17278398Y-10361889D01*
X17248398Y-10331889D02*
X17308398Y-10331889D01*
X17238398Y-10361889D02*
X17318398Y-10361889D01*
X17318398Y-10301889D02*
G75*
G02*
X17318398Y-10361889I0J-30000D01*
G01*
X17318398Y-10301889D02*
X17238398Y-10301889D01*
X17238398Y-10301889D02*
G75*
G03*
X17238398Y-10361889I0J-30000D01*
G01*
X17278398Y-11166889D02*
X17278398Y-11226889D01*
X17248398Y-11196889D02*
X17308398Y-11196889D01*
X17238398Y-11226889D02*
X17318398Y-11226889D01*
X17318398Y-11166889D02*
G75*
G02*
X17318398Y-11226889I0J-30000D01*
G01*
X17318398Y-11166889D02*
X17238398Y-11166889D01*
X17238398Y-11166889D02*
G75*
G03*
X17238398Y-11226889I0J-30000D01*
G01*
X4509937Y-11843097D02*
X4509937Y-11785623D01*
X4452463Y-11785623D01*
X4452463Y-11843097D01*
X4509937Y-11843097D01*
X4509937Y-13365097D02*
X4509937Y-13307623D01*
X4452463Y-13307623D01*
X4452463Y-13365097D01*
X4509937Y-13365097D01*
X4636937Y-11973737D02*
X4636937Y-11916263D01*
X4579463Y-11916263D01*
X4579463Y-11973737D01*
X4636937Y-11973737D01*
X4636937Y-13497737D02*
X4636937Y-13440263D01*
X4579463Y-13440263D01*
X4579463Y-13497737D01*
X4636937Y-13497737D01*
X4643673Y-11657796D02*
X4643673Y-11600322D01*
X4586199Y-11600322D01*
X4586199Y-11657796D01*
X4643673Y-11657796D01*
X4659513Y-9791044D02*
X4659513Y-9733570D01*
X4602039Y-9733570D01*
X4602039Y-9791044D01*
X4659513Y-9791044D01*
X4667744Y-7869268D02*
X4667744Y-7811794D01*
X4610270Y-7811794D01*
X4610270Y-7869268D01*
X4667744Y-7869268D01*
X4763937Y-11843097D02*
X4763937Y-11785623D01*
X4706463Y-11785623D01*
X4706463Y-11843097D01*
X4763937Y-11843097D01*
X4763937Y-13365097D02*
X4763937Y-13307623D01*
X4706463Y-13307623D01*
X4706463Y-13365097D01*
X4763937Y-13365097D01*
X4890937Y-11973737D02*
X4890937Y-11916263D01*
X4833463Y-11916263D01*
X4833463Y-11973737D01*
X4890937Y-11973737D01*
X4890937Y-13497737D02*
X4890937Y-13440263D01*
X4833463Y-13440263D01*
X4833463Y-13497737D01*
X4890937Y-13497737D01*
X5017937Y-11843097D02*
X5017937Y-11785623D01*
X4960463Y-11785623D01*
X4960463Y-11843097D01*
X5017937Y-11843097D01*
X5017937Y-13365097D02*
X5017937Y-13307623D01*
X4960463Y-13307623D01*
X4960463Y-13365097D01*
X5017937Y-13365097D01*
X5144937Y-11973737D02*
X5144937Y-11916263D01*
X5087463Y-11916263D01*
X5087463Y-11973737D01*
X5144937Y-11973737D01*
X5144937Y-13497737D02*
X5144937Y-13440263D01*
X5087463Y-13440263D01*
X5087463Y-13497737D01*
X5144937Y-13497737D01*
X5271937Y-11843097D02*
X5271937Y-11785623D01*
X5214463Y-11785623D01*
X5214463Y-11843097D01*
X5271937Y-11843097D01*
X5271937Y-13365097D02*
X5271937Y-13307623D01*
X5214463Y-13307623D01*
X5214463Y-13365097D01*
X5271937Y-13365097D01*
X5398937Y-11973737D02*
X5398937Y-11916263D01*
X5341463Y-11916263D01*
X5341463Y-11973737D01*
X5398937Y-11973737D01*
X5398937Y-13497737D02*
X5398937Y-13440263D01*
X5341463Y-13440263D01*
X5341463Y-13497737D01*
X5398937Y-13497737D01*
X5405673Y-11657796D02*
X5405673Y-11600322D01*
X5348199Y-11600322D01*
X5348199Y-11657796D01*
X5405673Y-11657796D01*
X5421513Y-9791044D02*
X5421513Y-9733570D01*
X5364039Y-9733570D01*
X5364039Y-9791044D01*
X5421513Y-9791044D01*
X5429744Y-7869268D02*
X5429744Y-7811794D01*
X5372270Y-7811794D01*
X5372270Y-7869268D01*
X5429744Y-7869268D01*
X5525937Y-11843097D02*
X5525937Y-11785623D01*
X5468463Y-11785623D01*
X5468463Y-11843097D01*
X5525937Y-11843097D01*
X5525937Y-13365097D02*
X5525937Y-13307623D01*
X5468463Y-13307623D01*
X5468463Y-13365097D01*
X5525937Y-13365097D01*
X5652937Y-11973737D02*
X5652937Y-11916263D01*
X5595463Y-11916263D01*
X5595463Y-11973737D01*
X5652937Y-11973737D01*
X5652937Y-13497737D02*
X5652937Y-13440263D01*
X5595463Y-13440263D01*
X5595463Y-13497737D01*
X5652937Y-13497737D01*
X5779937Y-11843097D02*
X5779937Y-11785623D01*
X5722463Y-11785623D01*
X5722463Y-11843097D01*
X5779937Y-11843097D01*
X5779937Y-13365097D02*
X5779937Y-13307623D01*
X5722463Y-13307623D01*
X5722463Y-13365097D01*
X5779937Y-13365097D01*
X5906937Y-11973737D02*
X5906937Y-11916263D01*
X5849463Y-11916263D01*
X5849463Y-11973737D01*
X5906937Y-11973737D01*
X5906937Y-13497737D02*
X5906937Y-13440263D01*
X5849463Y-13440263D01*
X5849463Y-13497737D01*
X5906937Y-13497737D01*
X6033937Y-11843097D02*
X6033937Y-11785623D01*
X5976463Y-11785623D01*
X5976463Y-11843097D01*
X6033937Y-11843097D01*
X6033937Y-13365097D02*
X6033937Y-13307623D01*
X5976463Y-13307623D01*
X5976463Y-13365097D01*
X6033937Y-13365097D01*
X6160937Y-11973737D02*
X6160937Y-11916263D01*
X6103463Y-11916263D01*
X6103463Y-11973737D01*
X6160937Y-11973737D01*
X6160937Y-13497737D02*
X6160937Y-13440263D01*
X6103463Y-13440263D01*
X6103463Y-13497737D01*
X6160937Y-13497737D01*
X6287937Y-11843097D02*
X6287937Y-11785623D01*
X6230463Y-11785623D01*
X6230463Y-11843097D01*
X6287937Y-11843097D01*
X6287937Y-13365097D02*
X6287937Y-13307623D01*
X6230463Y-13307623D01*
X6230463Y-13365097D01*
X6287937Y-13365097D01*
X6414937Y-11973737D02*
X6414937Y-11916263D01*
X6357463Y-11916263D01*
X6357463Y-11973737D01*
X6414937Y-11973737D01*
X6414937Y-13497737D02*
X6414937Y-13440263D01*
X6357463Y-13440263D01*
X6357463Y-13497737D01*
X6414937Y-13497737D01*
X6541937Y-11843097D02*
X6541937Y-11785623D01*
X6484463Y-11785623D01*
X6484463Y-11843097D01*
X6541937Y-11843097D01*
X6541937Y-13365097D02*
X6541937Y-13307623D01*
X6484463Y-13307623D01*
X6484463Y-13365097D01*
X6541937Y-13365097D01*
X6546900Y-9787005D02*
X6546900Y-9729531D01*
X6489426Y-9729531D01*
X6489426Y-9787005D01*
X6546900Y-9787005D01*
X6551966Y-7880832D02*
X6551966Y-7823358D01*
X6494492Y-7823358D01*
X6494492Y-7880832D01*
X6551966Y-7880832D01*
X6658887Y-11670508D02*
X6658887Y-11613034D01*
X6601413Y-11613034D01*
X6601413Y-11670508D01*
X6658887Y-11670508D01*
X6668937Y-11973737D02*
X6668937Y-11916263D01*
X6611463Y-11916263D01*
X6611463Y-11973737D01*
X6668937Y-11973737D01*
X6668937Y-13497737D02*
X6668937Y-13440263D01*
X6611463Y-13440263D01*
X6611463Y-13497737D01*
X6668937Y-13497737D01*
X6795937Y-11843097D02*
X6795937Y-11785623D01*
X6738463Y-11785623D01*
X6738463Y-11843097D01*
X6795937Y-11843097D01*
X6795937Y-13365097D02*
X6795937Y-13307623D01*
X6738463Y-13307623D01*
X6738463Y-13365097D01*
X6795937Y-13365097D01*
X6922937Y-11973737D02*
X6922937Y-11916263D01*
X6865463Y-11916263D01*
X6865463Y-11973737D01*
X6922937Y-11973737D01*
X6922937Y-13497737D02*
X6922937Y-13440263D01*
X6865463Y-13440263D01*
X6865463Y-13497737D01*
X6922937Y-13497737D01*
X7049937Y-11843097D02*
X7049937Y-11785623D01*
X6992463Y-11785623D01*
X6992463Y-11843097D01*
X7049937Y-11843097D01*
X7049937Y-13365097D02*
X7049937Y-13307623D01*
X6992463Y-13307623D01*
X6992463Y-13365097D01*
X7049937Y-13365097D01*
X7176937Y-11973737D02*
X7176937Y-11916263D01*
X7119463Y-11916263D01*
X7119463Y-11973737D01*
X7176937Y-11973737D01*
X7176937Y-13497737D02*
X7176937Y-13440263D01*
X7119463Y-13440263D01*
X7119463Y-13497737D01*
X7176937Y-13497737D01*
X7303937Y-11843097D02*
X7303937Y-11785623D01*
X7246463Y-11785623D01*
X7246463Y-11843097D01*
X7303937Y-11843097D01*
X7303937Y-13365097D02*
X7303937Y-13307623D01*
X7246463Y-13307623D01*
X7246463Y-13365097D01*
X7303937Y-13365097D01*
X7308900Y-9787005D02*
X7308900Y-9729531D01*
X7251426Y-9729531D01*
X7251426Y-9787005D01*
X7308900Y-9787005D01*
X7313966Y-7880832D02*
X7313966Y-7823358D01*
X7256492Y-7823358D01*
X7256492Y-7880832D01*
X7313966Y-7880832D01*
X7420887Y-11670508D02*
X7420887Y-11613034D01*
X7363413Y-11613034D01*
X7363413Y-11670508D01*
X7420887Y-11670508D01*
X7430937Y-11973737D02*
X7430937Y-11916263D01*
X7373463Y-11916263D01*
X7373463Y-11973737D01*
X7430937Y-11973737D01*
X7430937Y-13497737D02*
X7430937Y-13440263D01*
X7373463Y-13440263D01*
X7373463Y-13497737D01*
X7430937Y-13497737D01*
X8398456Y-11507330D02*
X8398456Y-11449856D01*
X8340981Y-11449856D01*
X8340981Y-11507330D01*
X8398456Y-11507330D01*
X8457790Y-7687356D02*
X8457790Y-7629882D01*
X8400316Y-7629882D01*
X8400316Y-7687356D01*
X8457790Y-7687356D01*
X8461558Y-9606990D02*
X8461558Y-9549516D01*
X8404084Y-9549516D01*
X8404084Y-9606990D01*
X8461558Y-9606990D01*
X8556038Y-12411233D02*
X8556038Y-12353758D01*
X8498564Y-12353758D01*
X8498564Y-12411233D01*
X8556038Y-12411233D01*
X8556038Y-12731233D02*
X8556038Y-12673758D01*
X8498564Y-12673758D01*
X8498564Y-12731233D01*
X8556038Y-12731233D01*
X9064038Y-12411233D02*
X9064038Y-12353758D01*
X9006564Y-12353758D01*
X9006564Y-12411233D01*
X9064038Y-12411233D01*
X9064038Y-12731233D02*
X9064038Y-12673758D01*
X9006564Y-12673758D01*
X9006564Y-12731233D01*
X9064038Y-12731233D01*
X9160456Y-11507330D02*
X9160456Y-11449856D01*
X9102982Y-11449856D01*
X9102982Y-11507330D01*
X9160456Y-11507330D01*
X9219790Y-7687356D02*
X9219790Y-7629882D01*
X9162316Y-7629882D01*
X9162316Y-7687356D01*
X9219790Y-7687356D01*
X9223558Y-9606990D02*
X9223558Y-9549516D01*
X9166084Y-9549516D01*
X9166084Y-9606990D01*
X9223558Y-9606990D01*
X9320038Y-12411233D02*
X9320038Y-12353758D01*
X9262564Y-12353758D01*
X9262564Y-12411233D01*
X9320038Y-12411233D01*
X9320038Y-12731233D02*
X9320038Y-12673758D01*
X9262564Y-12673758D01*
X9262564Y-12731233D01*
X9320038Y-12731233D01*
X10359475Y-11841655D02*
X10359475Y-11784181D01*
X10302001Y-11784181D01*
X10302001Y-11841655D01*
X10359475Y-11841655D01*
X10361331Y-7311468D02*
X10361331Y-7253994D01*
X10303857Y-7253994D01*
X10303857Y-7311468D01*
X10361331Y-7311468D01*
X10373832Y-9215624D02*
X10373832Y-9158150D01*
X10316358Y-9158150D01*
X10316358Y-9215624D01*
X10373832Y-9215624D01*
X10412050Y-11132517D02*
X10412050Y-11075042D01*
X10354576Y-11075042D01*
X10354576Y-11132517D01*
X10412050Y-11132517D01*
X11121475Y-11841655D02*
X11121475Y-11784181D01*
X11064001Y-11784181D01*
X11064001Y-11841655D01*
X11121475Y-11841655D01*
X11123331Y-7311468D02*
X11123331Y-7253994D01*
X11065857Y-7253994D01*
X11065857Y-7311468D01*
X11123331Y-7311468D01*
X11135832Y-9215624D02*
X11135832Y-9158150D01*
X11078358Y-9158150D01*
X11078358Y-9215624D01*
X11135832Y-9215624D01*
X11174050Y-11132517D02*
X11174050Y-11075042D01*
X11116576Y-11075042D01*
X11116576Y-11132517D01*
X11174050Y-11132517D01*
X12261133Y-7689425D02*
X12261133Y-7631951D01*
X12203659Y-7631951D01*
X12203659Y-7689425D01*
X12261133Y-7689425D01*
X12268595Y-9576064D02*
X12268595Y-9518590D01*
X12211121Y-9518590D01*
X12211121Y-9576064D01*
X12268595Y-9576064D01*
X12286190Y-11485298D02*
X12286190Y-11427824D01*
X12228716Y-11427824D01*
X12228716Y-11485298D01*
X12286190Y-11485298D01*
X12603492Y-11919226D02*
X12603492Y-11861752D01*
X12546017Y-11861752D01*
X12546017Y-11919226D01*
X12603492Y-11919226D01*
X13023133Y-7689425D02*
X13023133Y-7631951D01*
X12965659Y-7631951D01*
X12965659Y-7689425D01*
X13023133Y-7689425D01*
X13030595Y-9576064D02*
X13030595Y-9518590D01*
X12973121Y-9518590D01*
X12973121Y-9576064D01*
X13030595Y-9576064D01*
X13048191Y-11485298D02*
X13048191Y-11427824D01*
X12990717Y-11427824D01*
X12990717Y-11485298D01*
X13048191Y-11485298D01*
X13353916Y-12051546D02*
X13353916Y-11994072D01*
X13296441Y-11994072D01*
X13296441Y-12051546D01*
X13353916Y-12051546D01*
X13841882Y-11877145D02*
X13841882Y-11819671D01*
X13784408Y-11819671D01*
X13784408Y-11877145D01*
X13841882Y-11877145D01*
X14149979Y-8071958D02*
X14149979Y-8014484D01*
X14092504Y-8014484D01*
X14092504Y-8071958D01*
X14149979Y-8071958D01*
X14172533Y-9972815D02*
X14172533Y-9915341D01*
X14115058Y-9915341D01*
X14115058Y-9972815D01*
X14172533Y-9972815D01*
X14603882Y-11877145D02*
X14603882Y-11819671D01*
X14546408Y-11819671D01*
X14546408Y-11877145D01*
X14603882Y-11877145D01*
X14911979Y-8071958D02*
X14911979Y-8014484D01*
X14854504Y-8014484D01*
X14854504Y-8071958D01*
X14911979Y-8071958D01*
X14917804Y-12584176D02*
X14917804Y-12526702D01*
X14860330Y-12526702D01*
X14860330Y-12584176D01*
X14917804Y-12584176D01*
X14934533Y-9972815D02*
X14934533Y-9915341D01*
X14877058Y-9915341D01*
X14877058Y-9972815D01*
X14934533Y-9972815D01*
X15574390Y-10603197D02*
X15574390Y-10545723D01*
X15516916Y-10545723D01*
X15516916Y-10603197D01*
X15574390Y-10603197D01*
X15574535Y-10369067D02*
X15574535Y-10311593D01*
X15517061Y-10311593D01*
X15517061Y-10369067D01*
X15574535Y-10369067D01*
X15633850Y-12844796D02*
X15633850Y-12787322D01*
X15576376Y-12787322D01*
X15576376Y-12844796D01*
X15633850Y-12844796D01*
X16023033Y-12969262D02*
X16023033Y-12911788D01*
X15965559Y-12911788D01*
X15965559Y-12969262D01*
X16023033Y-12969262D01*
X16062766Y-8456187D02*
X16062766Y-8398713D01*
X16005292Y-8398713D01*
X16005292Y-8456187D01*
X16062766Y-8456187D01*
X16336390Y-10603197D02*
X16336390Y-10545723D01*
X16278916Y-10545723D01*
X16278916Y-10603197D01*
X16336390Y-10603197D01*
X16336535Y-10369067D02*
X16336535Y-10311593D01*
X16279061Y-10311593D01*
X16279061Y-10369067D01*
X16336535Y-10369067D01*
X16682944Y-13350262D02*
X16682944Y-13292788D01*
X16625470Y-13292788D01*
X16625470Y-13350262D01*
X16682944Y-13350262D01*
X16824766Y-8456187D02*
X16824766Y-8398713D01*
X16767292Y-8398713D01*
X16767292Y-8456187D01*
X16824766Y-8456187D01*
D13*
X8668239Y-13127959D02*
X8733239Y-13062959D01*
X8668239Y-12997959D01*
X8603239Y-13062959D01*
X8668239Y-13127959D01*
X9323239Y-13127959D02*
X9388239Y-13062959D01*
X9323239Y-12997959D01*
X9258239Y-13062959D01*
X9323239Y-13127959D01*
D14*
X4420000Y-6310000D02*
X4580000Y-6470000D01*
X4580000Y-6310000D02*
X4420000Y-6470000D01*
X4580000Y-6390000D02*
G75*
G02*
X4420000Y-6390000I-80000J0D01*
G01*
X4420000Y-6390000D02*
G75*
G02*
X4580000Y-6390000I80000J0D01*
G01*
X4420000Y-8215000D02*
X4580000Y-8375000D01*
X4580000Y-8215000D02*
X4420000Y-8375000D01*
X4580000Y-8295000D02*
G75*
G02*
X4420000Y-8295000I-80000J0D01*
G01*
X4420000Y-8295000D02*
G75*
G02*
X4580000Y-8295000I80000J0D01*
G01*
X4420000Y-10120000D02*
X4580000Y-10280000D01*
X4580000Y-10120000D02*
X4420000Y-10280000D01*
X4580000Y-10200000D02*
G75*
G02*
X4420000Y-10200000I-80000J0D01*
G01*
X4420000Y-10200000D02*
G75*
G02*
X4580000Y-10200000I80000J0D01*
G01*
X5420000Y-6310000D02*
X5580000Y-6470000D01*
X5580000Y-6310000D02*
X5420000Y-6470000D01*
X5580000Y-6390000D02*
G75*
G02*
X5420000Y-6390000I-80000J0D01*
G01*
X5420000Y-6390000D02*
G75*
G02*
X5580000Y-6390000I80000J0D01*
G01*
X5420000Y-8215000D02*
X5580000Y-8375000D01*
X5580000Y-8215000D02*
X5420000Y-8375000D01*
X5580000Y-8295000D02*
G75*
G02*
X5420000Y-8295000I-80000J0D01*
G01*
X5420000Y-8295000D02*
G75*
G02*
X5580000Y-8295000I80000J0D01*
G01*
X5420000Y-10120000D02*
X5580000Y-10280000D01*
X5580000Y-10120000D02*
X5420000Y-10280000D01*
X5580000Y-10200000D02*
G75*
G02*
X5420000Y-10200000I-80000J0D01*
G01*
X5420000Y-10200000D02*
G75*
G02*
X5580000Y-10200000I80000J0D01*
G01*
X6325000Y-6310000D02*
X6485000Y-6470000D01*
X6485000Y-6310000D02*
X6325000Y-6470000D01*
X6485000Y-6390000D02*
G75*
G02*
X6325000Y-6390000I-80000J0D01*
G01*
X6325000Y-6390000D02*
G75*
G02*
X6485000Y-6390000I80000J0D01*
G01*
X6325000Y-8215000D02*
X6485000Y-8375000D01*
X6485000Y-8215000D02*
X6325000Y-8375000D01*
X6485000Y-8295000D02*
G75*
G02*
X6325000Y-8295000I-80000J0D01*
G01*
X6325000Y-8295000D02*
G75*
G02*
X6485000Y-8295000I80000J0D01*
G01*
X6325000Y-10120000D02*
X6485000Y-10280000D01*
X6485000Y-10120000D02*
X6325000Y-10280000D01*
X6485000Y-10200000D02*
G75*
G02*
X6325000Y-10200000I-80000J0D01*
G01*
X6325000Y-10200000D02*
G75*
G02*
X6485000Y-10200000I80000J0D01*
G01*
X7325000Y-6310000D02*
X7485000Y-6470000D01*
X7485000Y-6310000D02*
X7325000Y-6470000D01*
X7485000Y-6390000D02*
G75*
G02*
X7325000Y-6390000I-80000J0D01*
G01*
X7325000Y-6390000D02*
G75*
G02*
X7485000Y-6390000I80000J0D01*
G01*
X7325000Y-8215000D02*
X7485000Y-8375000D01*
X7485000Y-8215000D02*
X7325000Y-8375000D01*
X7485000Y-8295000D02*
G75*
G02*
X7325000Y-8295000I-80000J0D01*
G01*
X7325000Y-8295000D02*
G75*
G02*
X7485000Y-8295000I80000J0D01*
G01*
X7325000Y-10120000D02*
X7485000Y-10280000D01*
X7485000Y-10120000D02*
X7325000Y-10280000D01*
X7485000Y-10200000D02*
G75*
G02*
X7325000Y-10200000I-80000J0D01*
G01*
X7325000Y-10200000D02*
G75*
G02*
X7485000Y-10200000I80000J0D01*
G01*
X8230000Y-6119500D02*
X8390000Y-6279500D01*
X8390000Y-6119500D02*
X8230000Y-6279500D01*
X8390000Y-6199500D02*
G75*
G02*
X8230000Y-6199500I-80000J0D01*
G01*
X8230000Y-6199500D02*
G75*
G02*
X8390000Y-6199500I80000J0D01*
G01*
X8230000Y-8024500D02*
X8390000Y-8184500D01*
X8390000Y-8024500D02*
X8230000Y-8184500D01*
X8390000Y-8104500D02*
G75*
G02*
X8230000Y-8104500I-80000J0D01*
G01*
X8230000Y-8104500D02*
G75*
G02*
X8390000Y-8104500I80000J0D01*
G01*
X8230000Y-9929500D02*
X8390000Y-10089500D01*
X8390000Y-9929500D02*
X8230000Y-10089500D01*
X8390000Y-10009500D02*
G75*
G02*
X8230000Y-10009500I-80000J0D01*
G01*
X8230000Y-10009500D02*
G75*
G02*
X8390000Y-10009500I80000J0D01*
G01*
X9230000Y-6119500D02*
X9390000Y-6279500D01*
X9390000Y-6119500D02*
X9230000Y-6279500D01*
X9390000Y-6199500D02*
G75*
G02*
X9230000Y-6199500I-80000J0D01*
G01*
X9230000Y-6199500D02*
G75*
G02*
X9390000Y-6199500I80000J0D01*
G01*
X9230000Y-8024500D02*
X9390000Y-8184500D01*
X9390000Y-8024500D02*
X9230000Y-8184500D01*
X9390000Y-8104500D02*
G75*
G02*
X9230000Y-8104500I-80000J0D01*
G01*
X9230000Y-8104500D02*
G75*
G02*
X9390000Y-8104500I80000J0D01*
G01*
X9230000Y-9929500D02*
X9390000Y-10089500D01*
X9390000Y-9929500D02*
X9230000Y-10089500D01*
X9390000Y-10009500D02*
G75*
G02*
X9230000Y-10009500I-80000J0D01*
G01*
X9230000Y-10009500D02*
G75*
G02*
X9390000Y-10009500I80000J0D01*
G01*
X10135000Y-5738500D02*
X10295000Y-5898500D01*
X10295000Y-5738500D02*
X10135000Y-5898500D01*
X10295000Y-5818500D02*
G75*
G02*
X10135000Y-5818500I-80000J0D01*
G01*
X10135000Y-5818500D02*
G75*
G02*
X10295000Y-5818500I80000J0D01*
G01*
X10135000Y-7643500D02*
X10295000Y-7803500D01*
X10295000Y-7643500D02*
X10135000Y-7803500D01*
X10295000Y-7723500D02*
G75*
G02*
X10135000Y-7723500I-80000J0D01*
G01*
X10135000Y-7723500D02*
G75*
G02*
X10295000Y-7723500I80000J0D01*
G01*
X10135000Y-9548500D02*
X10295000Y-9708500D01*
X10295000Y-9548500D02*
X10135000Y-9708500D01*
X10295000Y-9628500D02*
G75*
G02*
X10135000Y-9628500I-80000J0D01*
G01*
X10135000Y-9628500D02*
G75*
G02*
X10295000Y-9628500I80000J0D01*
G01*
X10135000Y-12115000D02*
X10295000Y-12275000D01*
X10295000Y-12115000D02*
X10135000Y-12275000D01*
X10295000Y-12195000D02*
G75*
G02*
X10135000Y-12195000I-80000J0D01*
G01*
X10135000Y-12195000D02*
G75*
G02*
X10295000Y-12195000I80000J0D01*
G01*
X11135000Y-5738500D02*
X11295000Y-5898500D01*
X11295000Y-5738500D02*
X11135000Y-5898500D01*
X11295000Y-5818500D02*
G75*
G02*
X11135000Y-5818500I-80000J0D01*
G01*
X11135000Y-5818500D02*
G75*
G02*
X11295000Y-5818500I80000J0D01*
G01*
X11135000Y-7643500D02*
X11295000Y-7803500D01*
X11295000Y-7643500D02*
X11135000Y-7803500D01*
X11295000Y-7723500D02*
G75*
G02*
X11135000Y-7723500I-80000J0D01*
G01*
X11135000Y-7723500D02*
G75*
G02*
X11295000Y-7723500I80000J0D01*
G01*
X11135000Y-9548500D02*
X11295000Y-9708500D01*
X11295000Y-9548500D02*
X11135000Y-9708500D01*
X11295000Y-9628500D02*
G75*
G02*
X11135000Y-9628500I-80000J0D01*
G01*
X11135000Y-9628500D02*
G75*
G02*
X11295000Y-9628500I80000J0D01*
G01*
X11135000Y-12115000D02*
X11295000Y-12275000D01*
X11295000Y-12115000D02*
X11135000Y-12275000D01*
X11295000Y-12195000D02*
G75*
G02*
X11135000Y-12195000I-80000J0D01*
G01*
X11135000Y-12195000D02*
G75*
G02*
X11295000Y-12195000I80000J0D01*
G01*
X12040000Y-6119500D02*
X12200000Y-6279500D01*
X12200000Y-6119500D02*
X12040000Y-6279500D01*
X12200000Y-6199500D02*
G75*
G02*
X12040000Y-6199500I-80000J0D01*
G01*
X12040000Y-6199500D02*
G75*
G02*
X12200000Y-6199500I80000J0D01*
G01*
X12040000Y-8024500D02*
X12200000Y-8184500D01*
X12200000Y-8024500D02*
X12040000Y-8184500D01*
X12200000Y-8104500D02*
G75*
G02*
X12040000Y-8104500I-80000J0D01*
G01*
X12040000Y-8104500D02*
G75*
G02*
X12200000Y-8104500I80000J0D01*
G01*
X12040000Y-9929500D02*
X12200000Y-10089500D01*
X12200000Y-9929500D02*
X12040000Y-10089500D01*
X12200000Y-10009500D02*
G75*
G02*
X12040000Y-10009500I-80000J0D01*
G01*
X12040000Y-10009500D02*
G75*
G02*
X12200000Y-10009500I80000J0D01*
G01*
X12247025Y-12216000D02*
X12407025Y-12376000D01*
X12407025Y-12216000D02*
X12247025Y-12376000D01*
X12407025Y-12296000D02*
G75*
G02*
X12247025Y-12296000I-80000J0D01*
G01*
X12247025Y-12296000D02*
G75*
G02*
X12407025Y-12296000I80000J0D01*
G01*
X13040000Y-6119500D02*
X13200000Y-6279500D01*
X13200000Y-6119500D02*
X13040000Y-6279500D01*
X13200000Y-6199500D02*
G75*
G02*
X13040000Y-6199500I-80000J0D01*
G01*
X13040000Y-6199500D02*
G75*
G02*
X13200000Y-6199500I80000J0D01*
G01*
X13040000Y-8024500D02*
X13200000Y-8184500D01*
X13200000Y-8024500D02*
X13040000Y-8184500D01*
X13200000Y-8104500D02*
G75*
G02*
X13040000Y-8104500I-80000J0D01*
G01*
X13040000Y-8104500D02*
G75*
G02*
X13200000Y-8104500I80000J0D01*
G01*
X13040000Y-9929500D02*
X13200000Y-10089500D01*
X13200000Y-9929500D02*
X13040000Y-10089500D01*
X13200000Y-10009500D02*
G75*
G02*
X13040000Y-10009500I-80000J0D01*
G01*
X13040000Y-10009500D02*
G75*
G02*
X13200000Y-10009500I80000J0D01*
G01*
X13231833Y-12389648D02*
X13391833Y-12549648D01*
X13391833Y-12389648D02*
X13231833Y-12549648D01*
X13391833Y-12469648D02*
G75*
G02*
X13231833Y-12469648I-80000J0D01*
G01*
X13231833Y-12469648D02*
G75*
G02*
X13391833Y-12469648I80000J0D01*
G01*
X13945000Y-6500500D02*
X14105000Y-6660500D01*
X14105000Y-6500500D02*
X13945000Y-6660500D01*
X14105000Y-6580500D02*
G75*
G02*
X13945000Y-6580500I-80000J0D01*
G01*
X13945000Y-6580500D02*
G75*
G02*
X14105000Y-6580500I80000J0D01*
G01*
X13945000Y-8405500D02*
X14105000Y-8565500D01*
X14105000Y-8405500D02*
X13945000Y-8565500D01*
X14105000Y-8485500D02*
G75*
G02*
X13945000Y-8485500I-80000J0D01*
G01*
X13945000Y-8485500D02*
G75*
G02*
X14105000Y-8485500I80000J0D01*
G01*
X13945000Y-10310500D02*
X14105000Y-10470500D01*
X14105000Y-10310500D02*
X13945000Y-10470500D01*
X14105000Y-10390500D02*
G75*
G02*
X13945000Y-10390500I-80000J0D01*
G01*
X13945000Y-10390500D02*
G75*
G02*
X14105000Y-10390500I80000J0D01*
G01*
X14326294Y-12685048D02*
X14486294Y-12845048D01*
X14486294Y-12685048D02*
X14326294Y-12845048D01*
X14486294Y-12765048D02*
G75*
G02*
X14326294Y-12765048I-80000J0D01*
G01*
X14326294Y-12765048D02*
G75*
G02*
X14486294Y-12765048I80000J0D01*
G01*
X14945000Y-6500500D02*
X15105000Y-6660500D01*
X15105000Y-6500500D02*
X14945000Y-6660500D01*
X15105000Y-6580500D02*
G75*
G02*
X14945000Y-6580500I-80000J0D01*
G01*
X14945000Y-6580500D02*
G75*
G02*
X15105000Y-6580500I80000J0D01*
G01*
X14945000Y-8405500D02*
X15105000Y-8565500D01*
X15105000Y-8405500D02*
X14945000Y-8565500D01*
X15105000Y-8485500D02*
G75*
G02*
X14945000Y-8485500I-80000J0D01*
G01*
X14945000Y-8485500D02*
G75*
G02*
X15105000Y-8485500I80000J0D01*
G01*
X14945000Y-10310500D02*
X15105000Y-10470500D01*
X15105000Y-10310500D02*
X14945000Y-10470500D01*
X15105000Y-10390500D02*
G75*
G02*
X14945000Y-10390500I-80000J0D01*
G01*
X14945000Y-10390500D02*
G75*
G02*
X15105000Y-10390500I80000J0D01*
G01*
X15265987Y-13027068D02*
X15425987Y-13187068D01*
X15425987Y-13027068D02*
X15265987Y-13187068D01*
X15425987Y-13107068D02*
G75*
G02*
X15265987Y-13107068I-80000J0D01*
G01*
X15265987Y-13107068D02*
G75*
G02*
X15425987Y-13107068I80000J0D01*
G01*
X15850000Y-6881500D02*
X16010000Y-7041500D01*
X16010000Y-6881500D02*
X15850000Y-7041500D01*
X16010000Y-6961500D02*
G75*
G02*
X15850000Y-6961500I-80000J0D01*
G01*
X15850000Y-6961500D02*
G75*
G02*
X16010000Y-6961500I80000J0D01*
G01*
X15850000Y-8786500D02*
X16010000Y-8946500D01*
X16010000Y-8786500D02*
X15850000Y-8946500D01*
X16010000Y-8866500D02*
G75*
G02*
X15850000Y-8866500I-80000J0D01*
G01*
X15850000Y-8866500D02*
G75*
G02*
X16010000Y-8866500I80000J0D01*
G01*
X16102697Y-11276156D02*
X16262697Y-11436156D01*
X16262697Y-11276156D02*
X16102697Y-11436156D01*
X16262697Y-11356156D02*
G75*
G02*
X16102697Y-11356156I-80000J0D01*
G01*
X16102697Y-11356156D02*
G75*
G02*
X16262697Y-11356156I80000J0D01*
G01*
X16284487Y-13503997D02*
X16444487Y-13663997D01*
X16444487Y-13503997D02*
X16284487Y-13663997D01*
X16444487Y-13583997D02*
G75*
G02*
X16284487Y-13583997I-80000J0D01*
G01*
X16284487Y-13583997D02*
G75*
G02*
X16444487Y-13583997I80000J0D01*
G01*
X16850000Y-6881500D02*
X17010000Y-7041500D01*
X17010000Y-6881500D02*
X16850000Y-7041500D01*
X17010000Y-6961500D02*
G75*
G02*
X16850000Y-6961500I-80000J0D01*
G01*
X16850000Y-6961500D02*
G75*
G02*
X17010000Y-6961500I80000J0D01*
G01*
X16850000Y-8786500D02*
X17010000Y-8946500D01*
X17010000Y-8786500D02*
X16850000Y-8946500D01*
X17010000Y-8866500D02*
G75*
G02*
X16850000Y-8866500I-80000J0D01*
G01*
X16850000Y-8866500D02*
G75*
G02*
X17010000Y-8866500I80000J0D01*
G01*
X17016242Y-11682892D02*
X17176242Y-11842892D01*
X17176242Y-11682892D02*
X17016242Y-11842892D01*
X17176242Y-11762892D02*
G75*
G02*
X17016242Y-11762892I-80000J0D01*
G01*
X17016242Y-11762892D02*
G75*
G02*
X17176242Y-11762892I80000J0D01*
G01*
X17150513Y-14003997D02*
X17310513Y-14163997D01*
X17310513Y-14003997D02*
X17150513Y-14163997D01*
X17310513Y-14083997D02*
G75*
G02*
X17150513Y-14083997I-80000J0D01*
G01*
X17150513Y-14083997D02*
G75*
G02*
X17310513Y-14083997I80000J0D01*
G01*
D15*
X4347500Y-7132500D02*
X4652500Y-7437500D01*
X4652500Y-7132500D02*
X4347500Y-7437500D01*
X4500000Y-7132500D02*
X4500000Y-7437500D01*
X4347500Y-7285000D02*
X4652500Y-7285000D01*
X4347500Y-9037500D02*
X4652500Y-9342500D01*
X4652500Y-9037500D02*
X4347500Y-9342500D01*
X4500000Y-9037500D02*
X4500000Y-9342500D01*
X4347500Y-9190000D02*
X4652500Y-9190000D01*
X4347500Y-10942500D02*
X4652500Y-11247500D01*
X4652500Y-10942500D02*
X4347500Y-11247500D01*
X4500000Y-10942500D02*
X4500000Y-11247500D01*
X4347500Y-11095000D02*
X4652500Y-11095000D01*
X4847500Y-7342500D02*
X5152500Y-7647500D01*
X5152500Y-7342500D02*
X4847500Y-7647500D01*
X5000000Y-7342500D02*
X5000000Y-7647500D01*
X4847500Y-7495000D02*
X5152500Y-7495000D01*
X4847500Y-7342500D02*
X5152500Y-7647500D01*
X5152500Y-7342500D02*
X4847500Y-7647500D01*
X5000000Y-7342500D02*
X5000000Y-7647500D01*
X4847500Y-7495000D02*
X5152500Y-7495000D01*
X4847500Y-9247500D02*
X5152500Y-9552500D01*
X5152500Y-9247500D02*
X4847500Y-9552500D01*
X5000000Y-9247500D02*
X5000000Y-9552500D01*
X4847500Y-9400000D02*
X5152500Y-9400000D01*
X4847500Y-9247500D02*
X5152500Y-9552500D01*
X5152500Y-9247500D02*
X4847500Y-9552500D01*
X5000000Y-9247500D02*
X5000000Y-9552500D01*
X4847500Y-9400000D02*
X5152500Y-9400000D01*
X4847500Y-11152500D02*
X5152500Y-11457500D01*
X5152500Y-11152500D02*
X4847500Y-11457500D01*
X5000000Y-11152500D02*
X5000000Y-11457500D01*
X4847500Y-11305000D02*
X5152500Y-11305000D01*
X4847500Y-11152500D02*
X5152500Y-11457500D01*
X5152500Y-11152500D02*
X4847500Y-11457500D01*
X5000000Y-11152500D02*
X5000000Y-11457500D01*
X4847500Y-11305000D02*
X5152500Y-11305000D01*
X5347500Y-7132500D02*
X5652500Y-7437500D01*
X5652500Y-7132500D02*
X5347500Y-7437500D01*
X5500000Y-7132500D02*
X5500000Y-7437500D01*
X5347500Y-7285000D02*
X5652500Y-7285000D01*
X5347500Y-9037500D02*
X5652500Y-9342500D01*
X5652500Y-9037500D02*
X5347500Y-9342500D01*
X5500000Y-9037500D02*
X5500000Y-9342500D01*
X5347500Y-9190000D02*
X5652500Y-9190000D01*
X5347500Y-10942500D02*
X5652500Y-11247500D01*
X5652500Y-10942500D02*
X5347500Y-11247500D01*
X5500000Y-10942500D02*
X5500000Y-11247500D01*
X5347500Y-11095000D02*
X5652500Y-11095000D01*
X6252500Y-7132500D02*
X6557500Y-7437500D01*
X6557500Y-7132500D02*
X6252500Y-7437500D01*
X6405000Y-7132500D02*
X6405000Y-7437500D01*
X6252500Y-7285000D02*
X6557500Y-7285000D01*
X6252500Y-9037500D02*
X6557500Y-9342500D01*
X6557500Y-9037500D02*
X6252500Y-9342500D01*
X6405000Y-9037500D02*
X6405000Y-9342500D01*
X6252500Y-9190000D02*
X6557500Y-9190000D01*
X6252500Y-10942500D02*
X6557500Y-11247500D01*
X6557500Y-10942500D02*
X6252500Y-11247500D01*
X6405000Y-10942500D02*
X6405000Y-11247500D01*
X6252500Y-11095000D02*
X6557500Y-11095000D01*
X6752500Y-7342500D02*
X7057500Y-7647500D01*
X7057500Y-7342500D02*
X6752500Y-7647500D01*
X6905000Y-7342500D02*
X6905000Y-7647500D01*
X6752500Y-7495000D02*
X7057500Y-7495000D01*
X6752500Y-7342500D02*
X7057500Y-7647500D01*
X7057500Y-7342500D02*
X6752500Y-7647500D01*
X6905000Y-7342500D02*
X6905000Y-7647500D01*
X6752500Y-7495000D02*
X7057500Y-7495000D01*
X6752500Y-9247500D02*
X7057500Y-9552500D01*
X7057500Y-9247500D02*
X6752500Y-9552500D01*
X6905000Y-9247500D02*
X6905000Y-9552500D01*
X6752500Y-9400000D02*
X7057500Y-9400000D01*
X6752500Y-9247500D02*
X7057500Y-9552500D01*
X7057500Y-9247500D02*
X6752500Y-9552500D01*
X6905000Y-9247500D02*
X6905000Y-9552500D01*
X6752500Y-9400000D02*
X7057500Y-9400000D01*
X6752500Y-11152500D02*
X7057500Y-11457500D01*
X7057500Y-11152500D02*
X6752500Y-11457500D01*
X6905000Y-11152500D02*
X6905000Y-11457500D01*
X6752500Y-11305000D02*
X7057500Y-11305000D01*
X6752500Y-11152500D02*
X7057500Y-11457500D01*
X7057500Y-11152500D02*
X6752500Y-11457500D01*
X6905000Y-11152500D02*
X6905000Y-11457500D01*
X6752500Y-11305000D02*
X7057500Y-11305000D01*
X7252500Y-7132500D02*
X7557500Y-7437500D01*
X7557500Y-7132500D02*
X7252500Y-7437500D01*
X7405000Y-7132500D02*
X7405000Y-7437500D01*
X7252500Y-7285000D02*
X7557500Y-7285000D01*
X7252500Y-9037500D02*
X7557500Y-9342500D01*
X7557500Y-9037500D02*
X7252500Y-9342500D01*
X7405000Y-9037500D02*
X7405000Y-9342500D01*
X7252500Y-9190000D02*
X7557500Y-9190000D01*
X7252500Y-10942500D02*
X7557500Y-11247500D01*
X7557500Y-10942500D02*
X7252500Y-11247500D01*
X7405000Y-10942500D02*
X7405000Y-11247500D01*
X7252500Y-11095000D02*
X7557500Y-11095000D01*
X8157500Y-6942000D02*
X8462500Y-7247000D01*
X8462500Y-6942000D02*
X8157500Y-7247000D01*
X8310000Y-6942000D02*
X8310000Y-7247000D01*
X8157500Y-7094500D02*
X8462500Y-7094500D01*
X8157500Y-8847000D02*
X8462500Y-9152000D01*
X8462500Y-8847000D02*
X8157500Y-9152000D01*
X8310000Y-8847000D02*
X8310000Y-9152000D01*
X8157500Y-8999500D02*
X8462500Y-8999500D01*
X8157500Y-10752000D02*
X8462500Y-11057000D01*
X8462500Y-10752000D02*
X8157500Y-11057000D01*
X8310000Y-10752000D02*
X8310000Y-11057000D01*
X8157500Y-10904500D02*
X8462500Y-10904500D01*
X8657500Y-7152000D02*
X8962500Y-7457000D01*
X8962500Y-7152000D02*
X8657500Y-7457000D01*
X8810000Y-7152000D02*
X8810000Y-7457000D01*
X8657500Y-7304500D02*
X8962500Y-7304500D01*
X8657500Y-7152000D02*
X8962500Y-7457000D01*
X8962500Y-7152000D02*
X8657500Y-7457000D01*
X8810000Y-7152000D02*
X8810000Y-7457000D01*
X8657500Y-7304500D02*
X8962500Y-7304500D01*
X8657500Y-9057000D02*
X8962500Y-9362000D01*
X8962500Y-9057000D02*
X8657500Y-9362000D01*
X8810000Y-9057000D02*
X8810000Y-9362000D01*
X8657500Y-9209500D02*
X8962500Y-9209500D01*
X8657500Y-9057000D02*
X8962500Y-9362000D01*
X8962500Y-9057000D02*
X8657500Y-9362000D01*
X8810000Y-9057000D02*
X8810000Y-9362000D01*
X8657500Y-9209500D02*
X8962500Y-9209500D01*
X8657500Y-10962000D02*
X8962500Y-11267000D01*
X8962500Y-10962000D02*
X8657500Y-11267000D01*
X8810000Y-10962000D02*
X8810000Y-11267000D01*
X8657500Y-11114500D02*
X8962500Y-11114500D01*
X8657500Y-10962000D02*
X8962500Y-11267000D01*
X8962500Y-10962000D02*
X8657500Y-11267000D01*
X8810000Y-10962000D02*
X8810000Y-11267000D01*
X8657500Y-11114500D02*
X8962500Y-11114500D01*
X9157500Y-6942000D02*
X9462500Y-7247000D01*
X9462500Y-6942000D02*
X9157500Y-7247000D01*
X9310000Y-6942000D02*
X9310000Y-7247000D01*
X9157500Y-7094500D02*
X9462500Y-7094500D01*
X9157500Y-8847000D02*
X9462500Y-9152000D01*
X9462500Y-8847000D02*
X9157500Y-9152000D01*
X9310000Y-8847000D02*
X9310000Y-9152000D01*
X9157500Y-8999500D02*
X9462500Y-8999500D01*
X9157500Y-10752000D02*
X9462500Y-11057000D01*
X9462500Y-10752000D02*
X9157500Y-11057000D01*
X9310000Y-10752000D02*
X9310000Y-11057000D01*
X9157500Y-10904500D02*
X9462500Y-10904500D01*
X10062500Y-6561000D02*
X10367500Y-6866000D01*
X10367500Y-6561000D02*
X10062500Y-6866000D01*
X10215000Y-6561000D02*
X10215000Y-6866000D01*
X10062500Y-6713500D02*
X10367500Y-6713500D01*
X10062500Y-8466000D02*
X10367500Y-8771000D01*
X10367500Y-8466000D02*
X10062500Y-8771000D01*
X10215000Y-8466000D02*
X10215000Y-8771000D01*
X10062500Y-8618500D02*
X10367500Y-8618500D01*
X10062500Y-10371000D02*
X10367500Y-10676000D01*
X10367500Y-10371000D02*
X10062500Y-10676000D01*
X10215000Y-10371000D02*
X10215000Y-10676000D01*
X10062500Y-10523500D02*
X10367500Y-10523500D01*
X10062500Y-12937500D02*
X10367500Y-13242500D01*
X10367500Y-12937500D02*
X10062500Y-13242500D01*
X10215000Y-12937500D02*
X10215000Y-13242500D01*
X10062500Y-13090000D02*
X10367500Y-13090000D01*
X10562500Y-6771000D02*
X10867500Y-7076000D01*
X10867500Y-6771000D02*
X10562500Y-7076000D01*
X10715000Y-6771000D02*
X10715000Y-7076000D01*
X10562500Y-6923500D02*
X10867500Y-6923500D01*
X10562500Y-6771000D02*
X10867500Y-7076000D01*
X10867500Y-6771000D02*
X10562500Y-7076000D01*
X10715000Y-6771000D02*
X10715000Y-7076000D01*
X10562500Y-6923500D02*
X10867500Y-6923500D01*
X10562500Y-8676000D02*
X10867500Y-8981000D01*
X10867500Y-8676000D02*
X10562500Y-8981000D01*
X10715000Y-8676000D02*
X10715000Y-8981000D01*
X10562500Y-8828500D02*
X10867500Y-8828500D01*
X10562500Y-8676000D02*
X10867500Y-8981000D01*
X10867500Y-8676000D02*
X10562500Y-8981000D01*
X10715000Y-8676000D02*
X10715000Y-8981000D01*
X10562500Y-8828500D02*
X10867500Y-8828500D01*
X10562500Y-10581000D02*
X10867500Y-10886000D01*
X10867500Y-10581000D02*
X10562500Y-10886000D01*
X10715000Y-10581000D02*
X10715000Y-10886000D01*
X10562500Y-10733500D02*
X10867500Y-10733500D01*
X10562500Y-10581000D02*
X10867500Y-10886000D01*
X10867500Y-10581000D02*
X10562500Y-10886000D01*
X10715000Y-10581000D02*
X10715000Y-10886000D01*
X10562500Y-10733500D02*
X10867500Y-10733500D01*
X10562500Y-13147500D02*
X10867500Y-13452500D01*
X10867500Y-13147500D02*
X10562500Y-13452500D01*
X10715000Y-13147500D02*
X10715000Y-13452500D01*
X10562500Y-13300000D02*
X10867500Y-13300000D01*
X10562500Y-13147500D02*
X10867500Y-13452500D01*
X10867500Y-13147500D02*
X10562500Y-13452500D01*
X10715000Y-13147500D02*
X10715000Y-13452500D01*
X10562500Y-13300000D02*
X10867500Y-13300000D01*
X11062500Y-6561000D02*
X11367500Y-6866000D01*
X11367500Y-6561000D02*
X11062500Y-6866000D01*
X11215000Y-6561000D02*
X11215000Y-6866000D01*
X11062500Y-6713500D02*
X11367500Y-6713500D01*
X11062500Y-8466000D02*
X11367500Y-8771000D01*
X11367500Y-8466000D02*
X11062500Y-8771000D01*
X11215000Y-8466000D02*
X11215000Y-8771000D01*
X11062500Y-8618500D02*
X11367500Y-8618500D01*
X11062500Y-10371000D02*
X11367500Y-10676000D01*
X11367500Y-10371000D02*
X11062500Y-10676000D01*
X11215000Y-10371000D02*
X11215000Y-10676000D01*
X11062500Y-10523500D02*
X11367500Y-10523500D01*
X11062500Y-12937500D02*
X11367500Y-13242500D01*
X11367500Y-12937500D02*
X11062500Y-13242500D01*
X11215000Y-12937500D02*
X11215000Y-13242500D01*
X11062500Y-13090000D02*
X11367500Y-13090000D01*
X11967500Y-6942000D02*
X12272500Y-7247000D01*
X12272500Y-6942000D02*
X11967500Y-7247000D01*
X12120000Y-6942000D02*
X12120000Y-7247000D01*
X11967500Y-7094500D02*
X12272500Y-7094500D01*
X11967500Y-8847000D02*
X12272500Y-9152000D01*
X12272500Y-8847000D02*
X11967500Y-9152000D01*
X12120000Y-8847000D02*
X12120000Y-9152000D01*
X11967500Y-8999500D02*
X12272500Y-8999500D01*
X11967500Y-10752000D02*
X12272500Y-11057000D01*
X12272500Y-10752000D02*
X11967500Y-11057000D01*
X12120000Y-10752000D02*
X12120000Y-11057000D01*
X11967500Y-10904500D02*
X12272500Y-10904500D01*
X12019110Y-13024903D02*
X12324110Y-13329903D01*
X12324110Y-13024903D02*
X12019110Y-13329903D01*
X12171610Y-13024903D02*
X12171610Y-13329903D01*
X12019110Y-13177403D02*
X12324110Y-13177403D01*
X12467500Y-7152000D02*
X12772500Y-7457000D01*
X12772500Y-7152000D02*
X12467500Y-7457000D01*
X12620000Y-7152000D02*
X12620000Y-7457000D01*
X12467500Y-7304500D02*
X12772500Y-7304500D01*
X12467500Y-7152000D02*
X12772500Y-7457000D01*
X12772500Y-7152000D02*
X12467500Y-7457000D01*
X12620000Y-7152000D02*
X12620000Y-7457000D01*
X12467500Y-7304500D02*
X12772500Y-7304500D01*
X12467500Y-9057000D02*
X12772500Y-9362000D01*
X12772500Y-9057000D02*
X12467500Y-9362000D01*
X12620000Y-9057000D02*
X12620000Y-9362000D01*
X12467500Y-9209500D02*
X12772500Y-9209500D01*
X12467500Y-9057000D02*
X12772500Y-9362000D01*
X12772500Y-9057000D02*
X12467500Y-9362000D01*
X12620000Y-9057000D02*
X12620000Y-9362000D01*
X12467500Y-9209500D02*
X12772500Y-9209500D01*
X12467500Y-10962000D02*
X12772500Y-11267000D01*
X12772500Y-10962000D02*
X12467500Y-11267000D01*
X12620000Y-10962000D02*
X12620000Y-11267000D01*
X12467500Y-11114500D02*
X12772500Y-11114500D01*
X12467500Y-10962000D02*
X12772500Y-11267000D01*
X12772500Y-10962000D02*
X12467500Y-11267000D01*
X12620000Y-10962000D02*
X12620000Y-11267000D01*
X12467500Y-11114500D02*
X12772500Y-11114500D01*
X12475047Y-13318537D02*
X12780047Y-13623537D01*
X12780047Y-13318537D02*
X12475047Y-13623537D01*
X12627547Y-13318537D02*
X12627547Y-13623537D01*
X12475047Y-13471037D02*
X12780047Y-13471037D01*
X12475048Y-13318537D02*
X12780048Y-13623537D01*
X12780048Y-13318537D02*
X12475048Y-13623537D01*
X12627548Y-13318537D02*
X12627548Y-13623537D01*
X12475048Y-13471037D02*
X12780048Y-13471037D01*
X12967500Y-6942000D02*
X13272500Y-7247000D01*
X13272500Y-6942000D02*
X12967500Y-7247000D01*
X13120000Y-6942000D02*
X13120000Y-7247000D01*
X12967500Y-7094500D02*
X13272500Y-7094500D01*
X12967500Y-8847000D02*
X13272500Y-9152000D01*
X13272500Y-8847000D02*
X12967500Y-9152000D01*
X13120000Y-8847000D02*
X13120000Y-9152000D01*
X12967500Y-8999500D02*
X13272500Y-8999500D01*
X12967500Y-10752000D02*
X13272500Y-11057000D01*
X13272500Y-10752000D02*
X12967500Y-11057000D01*
X13120000Y-10752000D02*
X13120000Y-11057000D01*
X12967500Y-10904500D02*
X13272500Y-10904500D01*
X13003918Y-13198551D02*
X13308918Y-13503551D01*
X13308918Y-13198551D02*
X13003918Y-13503551D01*
X13156418Y-13198551D02*
X13156418Y-13503551D01*
X13003918Y-13351051D02*
X13308918Y-13351051D01*
X13872500Y-7323000D02*
X14177500Y-7628000D01*
X14177500Y-7323000D02*
X13872500Y-7628000D01*
X14025000Y-7323000D02*
X14025000Y-7628000D01*
X13872500Y-7475500D02*
X14177500Y-7475500D01*
X13872500Y-9228000D02*
X14177500Y-9533000D01*
X14177500Y-9228000D02*
X13872500Y-9533000D01*
X14025000Y-9228000D02*
X14025000Y-9533000D01*
X13872500Y-9380500D02*
X14177500Y-9380500D01*
X13872500Y-11133000D02*
X14177500Y-11438000D01*
X14177500Y-11133000D02*
X13872500Y-11438000D01*
X14025000Y-11133000D02*
X14025000Y-11438000D01*
X13872500Y-11285500D02*
X14177500Y-11285500D01*
X13947686Y-13453573D02*
X14252686Y-13758573D01*
X14252686Y-13453573D02*
X13947686Y-13758573D01*
X14100186Y-13453573D02*
X14100186Y-13758573D01*
X13947686Y-13606073D02*
X14252686Y-13606073D01*
X14345708Y-13821919D02*
X14650708Y-14126919D01*
X14650708Y-13821919D02*
X14345708Y-14126919D01*
X14498208Y-13821919D02*
X14498208Y-14126919D01*
X14345708Y-13974419D02*
X14650708Y-13974419D01*
X14345708Y-13821919D02*
X14650708Y-14126919D01*
X14650708Y-13821919D02*
X14345708Y-14126919D01*
X14498208Y-13821919D02*
X14498208Y-14126919D01*
X14345708Y-13974419D02*
X14650708Y-13974419D01*
X14372500Y-7533000D02*
X14677500Y-7838000D01*
X14677500Y-7533000D02*
X14372500Y-7838000D01*
X14525000Y-7533000D02*
X14525000Y-7838000D01*
X14372500Y-7685500D02*
X14677500Y-7685500D01*
X14372500Y-7533000D02*
X14677500Y-7838000D01*
X14677500Y-7533000D02*
X14372500Y-7838000D01*
X14525000Y-7533000D02*
X14525000Y-7838000D01*
X14372500Y-7685500D02*
X14677500Y-7685500D01*
X14372500Y-9438000D02*
X14677500Y-9743000D01*
X14677500Y-9438000D02*
X14372500Y-9743000D01*
X14525000Y-9438000D02*
X14525000Y-9743000D01*
X14372500Y-9590500D02*
X14677500Y-9590500D01*
X14372500Y-9438000D02*
X14677500Y-9743000D01*
X14677500Y-9438000D02*
X14372500Y-9743000D01*
X14525000Y-9438000D02*
X14525000Y-9743000D01*
X14372500Y-9590500D02*
X14677500Y-9590500D01*
X14372500Y-11343000D02*
X14677500Y-11648000D01*
X14677500Y-11343000D02*
X14372500Y-11648000D01*
X14525000Y-11343000D02*
X14525000Y-11648000D01*
X14372500Y-11495500D02*
X14677500Y-11495500D01*
X14372500Y-11343000D02*
X14677500Y-11648000D01*
X14677500Y-11343000D02*
X14372500Y-11648000D01*
X14525000Y-11343000D02*
X14525000Y-11648000D01*
X14372500Y-11495500D02*
X14677500Y-11495500D01*
X14872500Y-7323000D02*
X15177500Y-7628000D01*
X15177500Y-7323000D02*
X14872500Y-7628000D01*
X15025000Y-7323000D02*
X15025000Y-7628000D01*
X14872500Y-7475500D02*
X15177500Y-7475500D01*
X14872500Y-9228000D02*
X15177500Y-9533000D01*
X15177500Y-9228000D02*
X14872500Y-9533000D01*
X15025000Y-9228000D02*
X15025000Y-9533000D01*
X14872500Y-9380500D02*
X15177500Y-9380500D01*
X14872500Y-11133000D02*
X15177500Y-11438000D01*
X15177500Y-11133000D02*
X14872500Y-11438000D01*
X15025000Y-11133000D02*
X15025000Y-11438000D01*
X14872500Y-11285500D02*
X15177500Y-11285500D01*
X14887379Y-13795593D02*
X15192379Y-14100593D01*
X15192379Y-13795593D02*
X14887379Y-14100593D01*
X15039879Y-13795593D02*
X15039879Y-14100593D01*
X14887379Y-13948093D02*
X15192379Y-13948093D01*
X15666167Y-12021279D02*
X15971167Y-12326279D01*
X15971167Y-12021279D02*
X15666167Y-12326279D01*
X15818667Y-12021279D02*
X15818667Y-12326279D01*
X15666167Y-12173779D02*
X15971167Y-12173779D01*
X15764487Y-14206590D02*
X16069487Y-14511590D01*
X16069487Y-14206590D02*
X15764487Y-14511590D01*
X15916987Y-14206590D02*
X15916987Y-14511590D01*
X15764487Y-14359090D02*
X16069487Y-14359090D01*
X15777500Y-7704000D02*
X16082500Y-8009000D01*
X16082500Y-7704000D02*
X15777500Y-8009000D01*
X15930000Y-7704000D02*
X15930000Y-8009000D01*
X15777500Y-7856500D02*
X16082500Y-7856500D01*
X15777500Y-9609000D02*
X16082500Y-9914000D01*
X16082500Y-9609000D02*
X15777500Y-9914000D01*
X15930000Y-9609000D02*
X15930000Y-9914000D01*
X15777500Y-9761500D02*
X16082500Y-9761500D01*
X16037525Y-12416492D02*
X16342525Y-12721492D01*
X16342525Y-12416492D02*
X16037525Y-12721492D01*
X16190025Y-12416492D02*
X16190025Y-12721492D01*
X16037525Y-12568992D02*
X16342525Y-12568992D01*
X16037525Y-12416492D02*
X16342525Y-12721492D01*
X16342525Y-12416492D02*
X16037525Y-12721492D01*
X16190025Y-12416492D02*
X16190025Y-12721492D01*
X16037525Y-12568992D02*
X16342525Y-12568992D01*
X16092500Y-14638455D02*
X16397500Y-14943455D01*
X16397500Y-14638455D02*
X16092500Y-14943455D01*
X16245000Y-14638455D02*
X16245000Y-14943455D01*
X16092500Y-14790955D02*
X16397500Y-14790955D01*
X16092500Y-14638455D02*
X16397500Y-14943455D01*
X16397500Y-14638455D02*
X16092500Y-14943455D01*
X16245000Y-14638455D02*
X16245000Y-14943455D01*
X16092500Y-14790955D02*
X16397500Y-14790955D01*
X16277500Y-7914000D02*
X16582500Y-8219000D01*
X16582500Y-7914000D02*
X16277500Y-8219000D01*
X16430000Y-7914000D02*
X16430000Y-8219000D01*
X16277500Y-8066500D02*
X16582500Y-8066500D01*
X16277500Y-7914000D02*
X16582500Y-8219000D01*
X16582500Y-7914000D02*
X16277500Y-8219000D01*
X16430000Y-7914000D02*
X16430000Y-8219000D01*
X16277500Y-8066500D02*
X16582500Y-8066500D01*
X16277500Y-9819000D02*
X16582500Y-10124000D01*
X16582500Y-9819000D02*
X16277500Y-10124000D01*
X16430000Y-9819000D02*
X16430000Y-10124000D01*
X16277500Y-9971500D02*
X16582500Y-9971500D01*
X16277500Y-9819000D02*
X16582500Y-10124000D01*
X16582500Y-9819000D02*
X16277500Y-10124000D01*
X16430000Y-9819000D02*
X16430000Y-10124000D01*
X16277500Y-9971500D02*
X16582500Y-9971500D01*
X16579713Y-12428016D02*
X16884713Y-12733016D01*
X16884713Y-12428016D02*
X16579713Y-12733016D01*
X16732213Y-12428016D02*
X16732213Y-12733016D01*
X16579713Y-12580516D02*
X16884713Y-12580516D01*
X16630513Y-14706590D02*
X16935513Y-15011590D01*
X16935513Y-14706590D02*
X16630513Y-15011590D01*
X16783013Y-14706590D02*
X16783013Y-15011590D01*
X16630513Y-14859090D02*
X16935513Y-14859090D01*
X16777500Y-7704000D02*
X17082500Y-8009000D01*
X17082500Y-7704000D02*
X16777500Y-8009000D01*
X16930000Y-7704000D02*
X16930000Y-8009000D01*
X16777500Y-7856500D02*
X17082500Y-7856500D01*
X16777500Y-9609000D02*
X17082500Y-9914000D01*
X17082500Y-9609000D02*
X16777500Y-9914000D01*
X16930000Y-9609000D02*
X16930000Y-9914000D01*
X16777500Y-9761500D02*
X17082500Y-9761500D01*
D11*
X4352692Y-15841095D02*
X4352692Y-15641095D01*
X4352692Y-15641095D02*
X4400311Y-15641095D01*
X4400311Y-15641095D02*
X4428883Y-15650619D01*
X4428883Y-15650619D02*
X4447930Y-15669666D01*
X4447930Y-15669666D02*
X4457454Y-15688714D01*
X4457454Y-15688714D02*
X4466978Y-15726809D01*
X4466978Y-15726809D02*
X4466978Y-15755380D01*
X4466978Y-15755380D02*
X4457454Y-15793476D01*
X4457454Y-15793476D02*
X4447930Y-15812523D01*
X4447930Y-15812523D02*
X4428883Y-15831571D01*
X4428883Y-15831571D02*
X4400311Y-15841095D01*
X4400311Y-15841095D02*
X4352692Y-15841095D01*
X4552692Y-15841095D02*
X4552692Y-15707761D01*
X4552692Y-15745857D02*
X4562216Y-15726809D01*
X4562216Y-15726809D02*
X4571740Y-15717285D01*
X4571740Y-15717285D02*
X4590787Y-15707761D01*
X4590787Y-15707761D02*
X4609835Y-15707761D01*
X4676502Y-15841095D02*
X4676502Y-15707761D01*
X4676502Y-15641095D02*
X4666978Y-15650619D01*
X4666978Y-15650619D02*
X4676502Y-15660142D01*
X4676502Y-15660142D02*
X4686025Y-15650619D01*
X4686025Y-15650619D02*
X4676502Y-15641095D01*
X4676502Y-15641095D02*
X4676502Y-15660142D01*
X4800311Y-15841095D02*
X4781264Y-15831571D01*
X4781264Y-15831571D02*
X4771740Y-15812523D01*
X4771740Y-15812523D02*
X4771740Y-15641095D01*
X4905073Y-15841095D02*
X4886025Y-15831571D01*
X4886025Y-15831571D02*
X4876502Y-15812523D01*
X4876502Y-15812523D02*
X4876502Y-15641095D01*
X5133645Y-15841095D02*
X5133645Y-15641095D01*
X5133645Y-15641095D02*
X5200311Y-15783952D01*
X5200311Y-15783952D02*
X5266978Y-15641095D01*
X5266978Y-15641095D02*
X5266978Y-15841095D01*
X5447930Y-15841095D02*
X5447930Y-15736333D01*
X5447930Y-15736333D02*
X5438406Y-15717285D01*
X5438406Y-15717285D02*
X5419359Y-15707761D01*
X5419359Y-15707761D02*
X5381264Y-15707761D01*
X5381264Y-15707761D02*
X5362216Y-15717285D01*
X5447930Y-15831571D02*
X5428883Y-15841095D01*
X5428883Y-15841095D02*
X5381264Y-15841095D01*
X5381264Y-15841095D02*
X5362216Y-15831571D01*
X5362216Y-15831571D02*
X5352692Y-15812523D01*
X5352692Y-15812523D02*
X5352692Y-15793476D01*
X5352692Y-15793476D02*
X5362216Y-15774428D01*
X5362216Y-15774428D02*
X5381264Y-15764904D01*
X5381264Y-15764904D02*
X5428883Y-15764904D01*
X5428883Y-15764904D02*
X5447930Y-15755380D01*
X5543168Y-15707761D02*
X5543168Y-15907761D01*
X5543168Y-15717285D02*
X5562216Y-15707761D01*
X5562216Y-15707761D02*
X5600311Y-15707761D01*
X5600311Y-15707761D02*
X5619359Y-15717285D01*
X5619359Y-15717285D02*
X5628883Y-15726809D01*
X5628883Y-15726809D02*
X5638406Y-15745857D01*
X5638406Y-15745857D02*
X5638406Y-15802999D01*
X5638406Y-15802999D02*
X5628883Y-15822047D01*
X5628883Y-15822047D02*
X5619359Y-15831571D01*
X5619359Y-15831571D02*
X5600311Y-15841095D01*
X5600311Y-15841095D02*
X5562216Y-15841095D01*
X5562216Y-15841095D02*
X5543168Y-15831571D01*
X5724121Y-15822047D02*
X5733644Y-15831571D01*
X5733644Y-15831571D02*
X5724121Y-15841095D01*
X5724121Y-15841095D02*
X5714597Y-15831571D01*
X5714597Y-15831571D02*
X5724121Y-15822047D01*
X5724121Y-15822047D02*
X5724121Y-15841095D01*
X5724121Y-15717285D02*
X5733644Y-15726809D01*
X5733644Y-15726809D02*
X5724121Y-15736333D01*
X5724121Y-15736333D02*
X5714597Y-15726809D01*
X5714597Y-15726809D02*
X5724121Y-15717285D01*
X5724121Y-15717285D02*
X5724121Y-15736333D01*
D12*
X4051915Y-16149611D02*
X4091915Y-16189611D01*
X4091915Y-16149611D02*
X4051915Y-16189611D01*
D11*
X4390787Y-16061095D02*
X4409835Y-16061095D01*
X4409835Y-16061095D02*
X4428883Y-16070619D01*
X4428883Y-16070619D02*
X4438406Y-16080142D01*
X4438406Y-16080142D02*
X4447930Y-16099190D01*
X4447930Y-16099190D02*
X4457454Y-16137285D01*
X4457454Y-16137285D02*
X4457454Y-16184904D01*
X4457454Y-16184904D02*
X4447930Y-16222999D01*
X4447930Y-16222999D02*
X4438406Y-16242047D01*
X4438406Y-16242047D02*
X4428883Y-16251571D01*
X4428883Y-16251571D02*
X4409835Y-16261095D01*
X4409835Y-16261095D02*
X4390787Y-16261095D01*
X4390787Y-16261095D02*
X4371740Y-16251571D01*
X4371740Y-16251571D02*
X4362216Y-16242047D01*
X4362216Y-16242047D02*
X4352692Y-16222999D01*
X4352692Y-16222999D02*
X4343168Y-16184904D01*
X4343168Y-16184904D02*
X4343168Y-16137285D01*
X4343168Y-16137285D02*
X4352692Y-16099190D01*
X4352692Y-16099190D02*
X4362216Y-16080142D01*
X4362216Y-16080142D02*
X4371740Y-16070619D01*
X4371740Y-16070619D02*
X4390787Y-16061095D01*
X4543168Y-16242047D02*
X4552692Y-16251571D01*
X4552692Y-16251571D02*
X4543168Y-16261095D01*
X4543168Y-16261095D02*
X4533645Y-16251571D01*
X4533645Y-16251571D02*
X4543168Y-16242047D01*
X4543168Y-16242047D02*
X4543168Y-16261095D01*
X4724121Y-16127761D02*
X4724121Y-16261095D01*
X4676502Y-16051571D02*
X4628883Y-16194428D01*
X4628883Y-16194428D02*
X4752692Y-16194428D01*
X4866978Y-16061095D02*
X4886026Y-16061095D01*
X4886026Y-16061095D02*
X4905073Y-16070619D01*
X4905073Y-16070619D02*
X4914597Y-16080142D01*
X4914597Y-16080142D02*
X4924121Y-16099190D01*
X4924121Y-16099190D02*
X4933645Y-16137285D01*
X4933645Y-16137285D02*
X4933645Y-16184904D01*
X4933645Y-16184904D02*
X4924121Y-16222999D01*
X4924121Y-16222999D02*
X4914597Y-16242047D01*
X4914597Y-16242047D02*
X4905073Y-16251571D01*
X4905073Y-16251571D02*
X4886026Y-16261095D01*
X4886026Y-16261095D02*
X4866978Y-16261095D01*
X4866978Y-16261095D02*
X4847930Y-16251571D01*
X4847930Y-16251571D02*
X4838406Y-16242047D01*
X4838406Y-16242047D02*
X4828883Y-16222999D01*
X4828883Y-16222999D02*
X4819359Y-16184904D01*
X4819359Y-16184904D02*
X4819359Y-16137285D01*
X4819359Y-16137285D02*
X4828883Y-16099190D01*
X4828883Y-16099190D02*
X4838406Y-16080142D01*
X4838406Y-16080142D02*
X4847930Y-16070619D01*
X4847930Y-16070619D02*
X4866978Y-16061095D01*
X5057454Y-16061095D02*
X5076502Y-16061095D01*
X5076502Y-16061095D02*
X5095549Y-16070619D01*
X5095549Y-16070619D02*
X5105073Y-16080142D01*
X5105073Y-16080142D02*
X5114597Y-16099190D01*
X5114597Y-16099190D02*
X5124121Y-16137285D01*
X5124121Y-16137285D02*
X5124121Y-16184904D01*
X5124121Y-16184904D02*
X5114597Y-16222999D01*
X5114597Y-16222999D02*
X5105073Y-16242047D01*
X5105073Y-16242047D02*
X5095549Y-16251571D01*
X5095549Y-16251571D02*
X5076502Y-16261095D01*
X5076502Y-16261095D02*
X5057454Y-16261095D01*
X5057454Y-16261095D02*
X5038406Y-16251571D01*
X5038406Y-16251571D02*
X5028883Y-16242047D01*
X5028883Y-16242047D02*
X5019359Y-16222999D01*
X5019359Y-16222999D02*
X5009835Y-16184904D01*
X5009835Y-16184904D02*
X5009835Y-16137285D01*
X5009835Y-16137285D02*
X5019359Y-16099190D01*
X5019359Y-16099190D02*
X5028883Y-16080142D01*
X5028883Y-16080142D02*
X5038406Y-16070619D01*
X5038406Y-16070619D02*
X5057454Y-16061095D01*
X5209835Y-16261095D02*
X5209835Y-16127761D01*
X5209835Y-16146809D02*
X5219359Y-16137285D01*
X5219359Y-16137285D02*
X5238406Y-16127761D01*
X5238406Y-16127761D02*
X5266978Y-16127761D01*
X5266978Y-16127761D02*
X5286026Y-16137285D01*
X5286026Y-16137285D02*
X5295549Y-16156333D01*
X5295549Y-16156333D02*
X5295549Y-16261095D01*
X5295549Y-16156333D02*
X5305073Y-16137285D01*
X5305073Y-16137285D02*
X5324121Y-16127761D01*
X5324121Y-16127761D02*
X5352692Y-16127761D01*
X5352692Y-16127761D02*
X5371740Y-16137285D01*
X5371740Y-16137285D02*
X5381264Y-16156333D01*
X5381264Y-16156333D02*
X5381264Y-16261095D01*
X5476502Y-16261095D02*
X5476502Y-16127761D01*
X5476502Y-16146809D02*
X5486026Y-16137285D01*
X5486026Y-16137285D02*
X5505073Y-16127761D01*
X5505073Y-16127761D02*
X5533645Y-16127761D01*
X5533645Y-16127761D02*
X5552692Y-16137285D01*
X5552692Y-16137285D02*
X5562216Y-16156333D01*
X5562216Y-16156333D02*
X5562216Y-16261095D01*
X5562216Y-16156333D02*
X5571740Y-16137285D01*
X5571740Y-16137285D02*
X5590787Y-16127761D01*
X5590787Y-16127761D02*
X5619359Y-16127761D01*
X5619359Y-16127761D02*
X5638406Y-16137285D01*
X5638406Y-16137285D02*
X5647930Y-16156333D01*
X5647930Y-16156333D02*
X5647930Y-16261095D01*
X6038406Y-16051571D02*
X5866978Y-16308714D01*
X6295549Y-16061095D02*
X6314597Y-16061095D01*
X6314597Y-16061095D02*
X6333645Y-16070619D01*
X6333645Y-16070619D02*
X6343168Y-16080142D01*
X6343168Y-16080142D02*
X6352692Y-16099190D01*
X6352692Y-16099190D02*
X6362216Y-16137285D01*
X6362216Y-16137285D02*
X6362216Y-16184904D01*
X6362216Y-16184904D02*
X6352692Y-16222999D01*
X6352692Y-16222999D02*
X6343168Y-16242047D01*
X6343168Y-16242047D02*
X6333645Y-16251571D01*
X6333645Y-16251571D02*
X6314597Y-16261095D01*
X6314597Y-16261095D02*
X6295549Y-16261095D01*
X6295549Y-16261095D02*
X6276502Y-16251571D01*
X6276502Y-16251571D02*
X6266978Y-16242047D01*
X6266978Y-16242047D02*
X6257454Y-16222999D01*
X6257454Y-16222999D02*
X6247930Y-16184904D01*
X6247930Y-16184904D02*
X6247930Y-16137285D01*
X6247930Y-16137285D02*
X6257454Y-16099190D01*
X6257454Y-16099190D02*
X6266978Y-16080142D01*
X6266978Y-16080142D02*
X6276502Y-16070619D01*
X6276502Y-16070619D02*
X6295549Y-16061095D01*
X6447930Y-16242047D02*
X6457454Y-16251571D01*
X6457454Y-16251571D02*
X6447930Y-16261095D01*
X6447930Y-16261095D02*
X6438407Y-16251571D01*
X6438407Y-16251571D02*
X6447930Y-16242047D01*
X6447930Y-16242047D02*
X6447930Y-16261095D01*
X6581264Y-16061095D02*
X6600311Y-16061095D01*
X6600311Y-16061095D02*
X6619359Y-16070619D01*
X6619359Y-16070619D02*
X6628883Y-16080142D01*
X6628883Y-16080142D02*
X6638407Y-16099190D01*
X6638407Y-16099190D02*
X6647930Y-16137285D01*
X6647930Y-16137285D02*
X6647930Y-16184904D01*
X6647930Y-16184904D02*
X6638407Y-16222999D01*
X6638407Y-16222999D02*
X6628883Y-16242047D01*
X6628883Y-16242047D02*
X6619359Y-16251571D01*
X6619359Y-16251571D02*
X6600311Y-16261095D01*
X6600311Y-16261095D02*
X6581264Y-16261095D01*
X6581264Y-16261095D02*
X6562216Y-16251571D01*
X6562216Y-16251571D02*
X6552692Y-16242047D01*
X6552692Y-16242047D02*
X6543168Y-16222999D01*
X6543168Y-16222999D02*
X6533645Y-16184904D01*
X6533645Y-16184904D02*
X6533645Y-16137285D01*
X6533645Y-16137285D02*
X6543168Y-16099190D01*
X6543168Y-16099190D02*
X6552692Y-16080142D01*
X6552692Y-16080142D02*
X6562216Y-16070619D01*
X6562216Y-16070619D02*
X6581264Y-16061095D01*
X6838407Y-16261095D02*
X6724121Y-16261095D01*
X6781264Y-16261095D02*
X6781264Y-16061095D01*
X6781264Y-16061095D02*
X6762216Y-16089666D01*
X6762216Y-16089666D02*
X6743168Y-16108714D01*
X6743168Y-16108714D02*
X6724121Y-16118238D01*
X7019359Y-16061095D02*
X6924121Y-16061095D01*
X6924121Y-16061095D02*
X6914597Y-16156333D01*
X6914597Y-16156333D02*
X6924121Y-16146809D01*
X6924121Y-16146809D02*
X6943168Y-16137285D01*
X6943168Y-16137285D02*
X6990788Y-16137285D01*
X6990788Y-16137285D02*
X7009835Y-16146809D01*
X7009835Y-16146809D02*
X7019359Y-16156333D01*
X7019359Y-16156333D02*
X7028883Y-16175380D01*
X7028883Y-16175380D02*
X7028883Y-16222999D01*
X7028883Y-16222999D02*
X7019359Y-16242047D01*
X7019359Y-16242047D02*
X7009835Y-16251571D01*
X7009835Y-16251571D02*
X6990788Y-16261095D01*
X6990788Y-16261095D02*
X6943168Y-16261095D01*
X6943168Y-16261095D02*
X6924121Y-16251571D01*
X6924121Y-16251571D02*
X6914597Y-16242047D01*
X7095549Y-16061095D02*
X7228883Y-16061095D01*
X7228883Y-16061095D02*
X7143168Y-16261095D01*
X7295549Y-16061095D02*
X7295549Y-16099190D01*
X7371740Y-16061095D02*
X7371740Y-16099190D01*
X7666978Y-16337285D02*
X7657454Y-16327761D01*
X7657454Y-16327761D02*
X7638407Y-16299190D01*
X7638407Y-16299190D02*
X7628883Y-16280142D01*
X7628883Y-16280142D02*
X7619359Y-16251571D01*
X7619359Y-16251571D02*
X7609835Y-16203952D01*
X7609835Y-16203952D02*
X7609835Y-16165857D01*
X7609835Y-16165857D02*
X7619359Y-16118238D01*
X7619359Y-16118238D02*
X7628883Y-16089666D01*
X7628883Y-16089666D02*
X7638407Y-16070619D01*
X7638407Y-16070619D02*
X7657454Y-16042047D01*
X7657454Y-16042047D02*
X7666978Y-16032523D01*
X7724121Y-16061095D02*
X7857454Y-16061095D01*
X7857454Y-16061095D02*
X7771740Y-16261095D01*
X7914597Y-16061095D02*
X8038407Y-16061095D01*
X8038407Y-16061095D02*
X7971740Y-16137285D01*
X7971740Y-16137285D02*
X8000311Y-16137285D01*
X8000311Y-16137285D02*
X8019359Y-16146809D01*
X8019359Y-16146809D02*
X8028883Y-16156333D01*
X8028883Y-16156333D02*
X8038407Y-16175380D01*
X8038407Y-16175380D02*
X8038407Y-16222999D01*
X8038407Y-16222999D02*
X8028883Y-16242047D01*
X8028883Y-16242047D02*
X8019359Y-16251571D01*
X8019359Y-16251571D02*
X8000311Y-16261095D01*
X8000311Y-16261095D02*
X7943169Y-16261095D01*
X7943169Y-16261095D02*
X7924121Y-16251571D01*
X7924121Y-16251571D02*
X7914597Y-16242047D01*
X8276502Y-16261095D02*
X8276502Y-16061095D01*
X8362216Y-16261095D02*
X8362216Y-16156333D01*
X8362216Y-16156333D02*
X8352692Y-16137285D01*
X8352692Y-16137285D02*
X8333645Y-16127761D01*
X8333645Y-16127761D02*
X8305073Y-16127761D01*
X8305073Y-16127761D02*
X8286026Y-16137285D01*
X8286026Y-16137285D02*
X8276502Y-16146809D01*
X8486026Y-16261095D02*
X8466978Y-16251571D01*
X8466978Y-16251571D02*
X8457454Y-16242047D01*
X8457454Y-16242047D02*
X8447931Y-16222999D01*
X8447931Y-16222999D02*
X8447931Y-16165857D01*
X8447931Y-16165857D02*
X8457454Y-16146809D01*
X8457454Y-16146809D02*
X8466978Y-16137285D01*
X8466978Y-16137285D02*
X8486026Y-16127761D01*
X8486026Y-16127761D02*
X8514597Y-16127761D01*
X8514597Y-16127761D02*
X8533645Y-16137285D01*
X8533645Y-16137285D02*
X8543169Y-16146809D01*
X8543169Y-16146809D02*
X8552693Y-16165857D01*
X8552693Y-16165857D02*
X8552693Y-16222999D01*
X8552693Y-16222999D02*
X8543169Y-16242047D01*
X8543169Y-16242047D02*
X8533645Y-16251571D01*
X8533645Y-16251571D02*
X8514597Y-16261095D01*
X8514597Y-16261095D02*
X8486026Y-16261095D01*
X8666978Y-16261095D02*
X8647931Y-16251571D01*
X8647931Y-16251571D02*
X8638407Y-16232523D01*
X8638407Y-16232523D02*
X8638407Y-16061095D01*
X8819359Y-16251571D02*
X8800312Y-16261095D01*
X8800312Y-16261095D02*
X8762216Y-16261095D01*
X8762216Y-16261095D02*
X8743169Y-16251571D01*
X8743169Y-16251571D02*
X8733645Y-16232523D01*
X8733645Y-16232523D02*
X8733645Y-16156333D01*
X8733645Y-16156333D02*
X8743169Y-16137285D01*
X8743169Y-16137285D02*
X8762216Y-16127761D01*
X8762216Y-16127761D02*
X8800312Y-16127761D01*
X8800312Y-16127761D02*
X8819359Y-16137285D01*
X8819359Y-16137285D02*
X8828883Y-16156333D01*
X8828883Y-16156333D02*
X8828883Y-16175380D01*
X8828883Y-16175380D02*
X8733645Y-16194428D01*
X8905074Y-16251571D02*
X8924121Y-16261095D01*
X8924121Y-16261095D02*
X8962216Y-16261095D01*
X8962216Y-16261095D02*
X8981264Y-16251571D01*
X8981264Y-16251571D02*
X8990788Y-16232523D01*
X8990788Y-16232523D02*
X8990788Y-16222999D01*
X8990788Y-16222999D02*
X8981264Y-16203952D01*
X8981264Y-16203952D02*
X8962216Y-16194428D01*
X8962216Y-16194428D02*
X8933645Y-16194428D01*
X8933645Y-16194428D02*
X8914597Y-16184904D01*
X8914597Y-16184904D02*
X8905074Y-16165857D01*
X8905074Y-16165857D02*
X8905074Y-16156333D01*
X8905074Y-16156333D02*
X8914597Y-16137285D01*
X8914597Y-16137285D02*
X8933645Y-16127761D01*
X8933645Y-16127761D02*
X8962216Y-16127761D01*
X8962216Y-16127761D02*
X8981264Y-16137285D01*
X9057455Y-16337285D02*
X9066978Y-16327761D01*
X9066978Y-16327761D02*
X9086026Y-16299190D01*
X9086026Y-16299190D02*
X9095550Y-16280142D01*
X9095550Y-16280142D02*
X9105074Y-16251571D01*
X9105074Y-16251571D02*
X9114597Y-16203952D01*
X9114597Y-16203952D02*
X9114597Y-16165857D01*
X9114597Y-16165857D02*
X9105074Y-16118238D01*
X9105074Y-16118238D02*
X9095550Y-16089666D01*
X9095550Y-16089666D02*
X9086026Y-16070619D01*
X9086026Y-16070619D02*
X9066978Y-16042047D01*
X9066978Y-16042047D02*
X9057455Y-16032523D01*
D12*
X4091915Y-16433611D02*
G75*
G02*
X4051915Y-16433611I-20000J0D01*
G01*
X4051915Y-16433611D02*
G75*
G02*
X4091915Y-16433611I20000J0D01*
G01*
D11*
X4390787Y-16325095D02*
X4409835Y-16325095D01*
X4409835Y-16325095D02*
X4428883Y-16334619D01*
X4428883Y-16334619D02*
X4438406Y-16344142D01*
X4438406Y-16344142D02*
X4447930Y-16363190D01*
X4447930Y-16363190D02*
X4457454Y-16401285D01*
X4457454Y-16401285D02*
X4457454Y-16448904D01*
X4457454Y-16448904D02*
X4447930Y-16486999D01*
X4447930Y-16486999D02*
X4438406Y-16506047D01*
X4438406Y-16506047D02*
X4428883Y-16515571D01*
X4428883Y-16515571D02*
X4409835Y-16525095D01*
X4409835Y-16525095D02*
X4390787Y-16525095D01*
X4390787Y-16525095D02*
X4371740Y-16515571D01*
X4371740Y-16515571D02*
X4362216Y-16506047D01*
X4362216Y-16506047D02*
X4352692Y-16486999D01*
X4352692Y-16486999D02*
X4343168Y-16448904D01*
X4343168Y-16448904D02*
X4343168Y-16401285D01*
X4343168Y-16401285D02*
X4352692Y-16363190D01*
X4352692Y-16363190D02*
X4362216Y-16344142D01*
X4362216Y-16344142D02*
X4371740Y-16334619D01*
X4371740Y-16334619D02*
X4390787Y-16325095D01*
X4543168Y-16506047D02*
X4552692Y-16515571D01*
X4552692Y-16515571D02*
X4543168Y-16525095D01*
X4543168Y-16525095D02*
X4533645Y-16515571D01*
X4533645Y-16515571D02*
X4543168Y-16506047D01*
X4543168Y-16506047D02*
X4543168Y-16525095D01*
X4724121Y-16391761D02*
X4724121Y-16525095D01*
X4676502Y-16315571D02*
X4628883Y-16458428D01*
X4628883Y-16458428D02*
X4752692Y-16458428D01*
X4866978Y-16325095D02*
X4886026Y-16325095D01*
X4886026Y-16325095D02*
X4905073Y-16334619D01*
X4905073Y-16334619D02*
X4914597Y-16344142D01*
X4914597Y-16344142D02*
X4924121Y-16363190D01*
X4924121Y-16363190D02*
X4933645Y-16401285D01*
X4933645Y-16401285D02*
X4933645Y-16448904D01*
X4933645Y-16448904D02*
X4924121Y-16486999D01*
X4924121Y-16486999D02*
X4914597Y-16506047D01*
X4914597Y-16506047D02*
X4905073Y-16515571D01*
X4905073Y-16515571D02*
X4886026Y-16525095D01*
X4886026Y-16525095D02*
X4866978Y-16525095D01*
X4866978Y-16525095D02*
X4847930Y-16515571D01*
X4847930Y-16515571D02*
X4838406Y-16506047D01*
X4838406Y-16506047D02*
X4828883Y-16486999D01*
X4828883Y-16486999D02*
X4819359Y-16448904D01*
X4819359Y-16448904D02*
X4819359Y-16401285D01*
X4819359Y-16401285D02*
X4828883Y-16363190D01*
X4828883Y-16363190D02*
X4838406Y-16344142D01*
X4838406Y-16344142D02*
X4847930Y-16334619D01*
X4847930Y-16334619D02*
X4866978Y-16325095D01*
X5057454Y-16325095D02*
X5076502Y-16325095D01*
X5076502Y-16325095D02*
X5095549Y-16334619D01*
X5095549Y-16334619D02*
X5105073Y-16344142D01*
X5105073Y-16344142D02*
X5114597Y-16363190D01*
X5114597Y-16363190D02*
X5124121Y-16401285D01*
X5124121Y-16401285D02*
X5124121Y-16448904D01*
X5124121Y-16448904D02*
X5114597Y-16486999D01*
X5114597Y-16486999D02*
X5105073Y-16506047D01*
X5105073Y-16506047D02*
X5095549Y-16515571D01*
X5095549Y-16515571D02*
X5076502Y-16525095D01*
X5076502Y-16525095D02*
X5057454Y-16525095D01*
X5057454Y-16525095D02*
X5038406Y-16515571D01*
X5038406Y-16515571D02*
X5028883Y-16506047D01*
X5028883Y-16506047D02*
X5019359Y-16486999D01*
X5019359Y-16486999D02*
X5009835Y-16448904D01*
X5009835Y-16448904D02*
X5009835Y-16401285D01*
X5009835Y-16401285D02*
X5019359Y-16363190D01*
X5019359Y-16363190D02*
X5028883Y-16344142D01*
X5028883Y-16344142D02*
X5038406Y-16334619D01*
X5038406Y-16334619D02*
X5057454Y-16325095D01*
X5209835Y-16525095D02*
X5209835Y-16391761D01*
X5209835Y-16410809D02*
X5219359Y-16401285D01*
X5219359Y-16401285D02*
X5238406Y-16391761D01*
X5238406Y-16391761D02*
X5266978Y-16391761D01*
X5266978Y-16391761D02*
X5286026Y-16401285D01*
X5286026Y-16401285D02*
X5295549Y-16420333D01*
X5295549Y-16420333D02*
X5295549Y-16525095D01*
X5295549Y-16420333D02*
X5305073Y-16401285D01*
X5305073Y-16401285D02*
X5324121Y-16391761D01*
X5324121Y-16391761D02*
X5352692Y-16391761D01*
X5352692Y-16391761D02*
X5371740Y-16401285D01*
X5371740Y-16401285D02*
X5381264Y-16420333D01*
X5381264Y-16420333D02*
X5381264Y-16525095D01*
X5476502Y-16525095D02*
X5476502Y-16391761D01*
X5476502Y-16410809D02*
X5486026Y-16401285D01*
X5486026Y-16401285D02*
X5505073Y-16391761D01*
X5505073Y-16391761D02*
X5533645Y-16391761D01*
X5533645Y-16391761D02*
X5552692Y-16401285D01*
X5552692Y-16401285D02*
X5562216Y-16420333D01*
X5562216Y-16420333D02*
X5562216Y-16525095D01*
X5562216Y-16420333D02*
X5571740Y-16401285D01*
X5571740Y-16401285D02*
X5590787Y-16391761D01*
X5590787Y-16391761D02*
X5619359Y-16391761D01*
X5619359Y-16391761D02*
X5638406Y-16401285D01*
X5638406Y-16401285D02*
X5647930Y-16420333D01*
X5647930Y-16420333D02*
X5647930Y-16525095D01*
X6038406Y-16315571D02*
X5866978Y-16572714D01*
X6295549Y-16325095D02*
X6314597Y-16325095D01*
X6314597Y-16325095D02*
X6333645Y-16334619D01*
X6333645Y-16334619D02*
X6343168Y-16344142D01*
X6343168Y-16344142D02*
X6352692Y-16363190D01*
X6352692Y-16363190D02*
X6362216Y-16401285D01*
X6362216Y-16401285D02*
X6362216Y-16448904D01*
X6362216Y-16448904D02*
X6352692Y-16486999D01*
X6352692Y-16486999D02*
X6343168Y-16506047D01*
X6343168Y-16506047D02*
X6333645Y-16515571D01*
X6333645Y-16515571D02*
X6314597Y-16525095D01*
X6314597Y-16525095D02*
X6295549Y-16525095D01*
X6295549Y-16525095D02*
X6276502Y-16515571D01*
X6276502Y-16515571D02*
X6266978Y-16506047D01*
X6266978Y-16506047D02*
X6257454Y-16486999D01*
X6257454Y-16486999D02*
X6247930Y-16448904D01*
X6247930Y-16448904D02*
X6247930Y-16401285D01*
X6247930Y-16401285D02*
X6257454Y-16363190D01*
X6257454Y-16363190D02*
X6266978Y-16344142D01*
X6266978Y-16344142D02*
X6276502Y-16334619D01*
X6276502Y-16334619D02*
X6295549Y-16325095D01*
X6447930Y-16506047D02*
X6457454Y-16515571D01*
X6457454Y-16515571D02*
X6447930Y-16525095D01*
X6447930Y-16525095D02*
X6438407Y-16515571D01*
X6438407Y-16515571D02*
X6447930Y-16506047D01*
X6447930Y-16506047D02*
X6447930Y-16525095D01*
X6581264Y-16325095D02*
X6600311Y-16325095D01*
X6600311Y-16325095D02*
X6619359Y-16334619D01*
X6619359Y-16334619D02*
X6628883Y-16344142D01*
X6628883Y-16344142D02*
X6638407Y-16363190D01*
X6638407Y-16363190D02*
X6647930Y-16401285D01*
X6647930Y-16401285D02*
X6647930Y-16448904D01*
X6647930Y-16448904D02*
X6638407Y-16486999D01*
X6638407Y-16486999D02*
X6628883Y-16506047D01*
X6628883Y-16506047D02*
X6619359Y-16515571D01*
X6619359Y-16515571D02*
X6600311Y-16525095D01*
X6600311Y-16525095D02*
X6581264Y-16525095D01*
X6581264Y-16525095D02*
X6562216Y-16515571D01*
X6562216Y-16515571D02*
X6552692Y-16506047D01*
X6552692Y-16506047D02*
X6543168Y-16486999D01*
X6543168Y-16486999D02*
X6533645Y-16448904D01*
X6533645Y-16448904D02*
X6533645Y-16401285D01*
X6533645Y-16401285D02*
X6543168Y-16363190D01*
X6543168Y-16363190D02*
X6552692Y-16344142D01*
X6552692Y-16344142D02*
X6562216Y-16334619D01*
X6562216Y-16334619D02*
X6581264Y-16325095D01*
X6838407Y-16525095D02*
X6724121Y-16525095D01*
X6781264Y-16525095D02*
X6781264Y-16325095D01*
X6781264Y-16325095D02*
X6762216Y-16353666D01*
X6762216Y-16353666D02*
X6743168Y-16372714D01*
X6743168Y-16372714D02*
X6724121Y-16382238D01*
X7019359Y-16325095D02*
X6924121Y-16325095D01*
X6924121Y-16325095D02*
X6914597Y-16420333D01*
X6914597Y-16420333D02*
X6924121Y-16410809D01*
X6924121Y-16410809D02*
X6943168Y-16401285D01*
X6943168Y-16401285D02*
X6990788Y-16401285D01*
X6990788Y-16401285D02*
X7009835Y-16410809D01*
X7009835Y-16410809D02*
X7019359Y-16420333D01*
X7019359Y-16420333D02*
X7028883Y-16439380D01*
X7028883Y-16439380D02*
X7028883Y-16486999D01*
X7028883Y-16486999D02*
X7019359Y-16506047D01*
X7019359Y-16506047D02*
X7009835Y-16515571D01*
X7009835Y-16515571D02*
X6990788Y-16525095D01*
X6990788Y-16525095D02*
X6943168Y-16525095D01*
X6943168Y-16525095D02*
X6924121Y-16515571D01*
X6924121Y-16515571D02*
X6914597Y-16506047D01*
X7095549Y-16325095D02*
X7228883Y-16325095D01*
X7228883Y-16325095D02*
X7143168Y-16525095D01*
X7295549Y-16325095D02*
X7295549Y-16363190D01*
X7371740Y-16325095D02*
X7371740Y-16363190D01*
X7666978Y-16601285D02*
X7657454Y-16591761D01*
X7657454Y-16591761D02*
X7638407Y-16563190D01*
X7638407Y-16563190D02*
X7628883Y-16544142D01*
X7628883Y-16544142D02*
X7619359Y-16515571D01*
X7619359Y-16515571D02*
X7609835Y-16467952D01*
X7609835Y-16467952D02*
X7609835Y-16429857D01*
X7609835Y-16429857D02*
X7619359Y-16382238D01*
X7619359Y-16382238D02*
X7628883Y-16353666D01*
X7628883Y-16353666D02*
X7638407Y-16334619D01*
X7638407Y-16334619D02*
X7657454Y-16306047D01*
X7657454Y-16306047D02*
X7666978Y-16296523D01*
X7847930Y-16525095D02*
X7733645Y-16525095D01*
X7790788Y-16525095D02*
X7790788Y-16325095D01*
X7790788Y-16325095D02*
X7771740Y-16353666D01*
X7771740Y-16353666D02*
X7752692Y-16372714D01*
X7752692Y-16372714D02*
X7733645Y-16382238D01*
X8019359Y-16325095D02*
X7981264Y-16325095D01*
X7981264Y-16325095D02*
X7962216Y-16334619D01*
X7962216Y-16334619D02*
X7952692Y-16344142D01*
X7952692Y-16344142D02*
X7933645Y-16372714D01*
X7933645Y-16372714D02*
X7924121Y-16410809D01*
X7924121Y-16410809D02*
X7924121Y-16486999D01*
X7924121Y-16486999D02*
X7933645Y-16506047D01*
X7933645Y-16506047D02*
X7943169Y-16515571D01*
X7943169Y-16515571D02*
X7962216Y-16525095D01*
X7962216Y-16525095D02*
X8000311Y-16525095D01*
X8000311Y-16525095D02*
X8019359Y-16515571D01*
X8019359Y-16515571D02*
X8028883Y-16506047D01*
X8028883Y-16506047D02*
X8038407Y-16486999D01*
X8038407Y-16486999D02*
X8038407Y-16439380D01*
X8038407Y-16439380D02*
X8028883Y-16420333D01*
X8028883Y-16420333D02*
X8019359Y-16410809D01*
X8019359Y-16410809D02*
X8000311Y-16401285D01*
X8000311Y-16401285D02*
X7962216Y-16401285D01*
X7962216Y-16401285D02*
X7943169Y-16410809D01*
X7943169Y-16410809D02*
X7933645Y-16420333D01*
X7933645Y-16420333D02*
X7924121Y-16439380D01*
X8276502Y-16525095D02*
X8276502Y-16325095D01*
X8362216Y-16525095D02*
X8362216Y-16420333D01*
X8362216Y-16420333D02*
X8352692Y-16401285D01*
X8352692Y-16401285D02*
X8333645Y-16391761D01*
X8333645Y-16391761D02*
X8305073Y-16391761D01*
X8305073Y-16391761D02*
X8286026Y-16401285D01*
X8286026Y-16401285D02*
X8276502Y-16410809D01*
X8486026Y-16525095D02*
X8466978Y-16515571D01*
X8466978Y-16515571D02*
X8457454Y-16506047D01*
X8457454Y-16506047D02*
X8447931Y-16486999D01*
X8447931Y-16486999D02*
X8447931Y-16429857D01*
X8447931Y-16429857D02*
X8457454Y-16410809D01*
X8457454Y-16410809D02*
X8466978Y-16401285D01*
X8466978Y-16401285D02*
X8486026Y-16391761D01*
X8486026Y-16391761D02*
X8514597Y-16391761D01*
X8514597Y-16391761D02*
X8533645Y-16401285D01*
X8533645Y-16401285D02*
X8543169Y-16410809D01*
X8543169Y-16410809D02*
X8552693Y-16429857D01*
X8552693Y-16429857D02*
X8552693Y-16486999D01*
X8552693Y-16486999D02*
X8543169Y-16506047D01*
X8543169Y-16506047D02*
X8533645Y-16515571D01*
X8533645Y-16515571D02*
X8514597Y-16525095D01*
X8514597Y-16525095D02*
X8486026Y-16525095D01*
X8666978Y-16525095D02*
X8647931Y-16515571D01*
X8647931Y-16515571D02*
X8638407Y-16496523D01*
X8638407Y-16496523D02*
X8638407Y-16325095D01*
X8819359Y-16515571D02*
X8800312Y-16525095D01*
X8800312Y-16525095D02*
X8762216Y-16525095D01*
X8762216Y-16525095D02*
X8743169Y-16515571D01*
X8743169Y-16515571D02*
X8733645Y-16496523D01*
X8733645Y-16496523D02*
X8733645Y-16420333D01*
X8733645Y-16420333D02*
X8743169Y-16401285D01*
X8743169Y-16401285D02*
X8762216Y-16391761D01*
X8762216Y-16391761D02*
X8800312Y-16391761D01*
X8800312Y-16391761D02*
X8819359Y-16401285D01*
X8819359Y-16401285D02*
X8828883Y-16420333D01*
X8828883Y-16420333D02*
X8828883Y-16439380D01*
X8828883Y-16439380D02*
X8733645Y-16458428D01*
X8905074Y-16515571D02*
X8924121Y-16525095D01*
X8924121Y-16525095D02*
X8962216Y-16525095D01*
X8962216Y-16525095D02*
X8981264Y-16515571D01*
X8981264Y-16515571D02*
X8990788Y-16496523D01*
X8990788Y-16496523D02*
X8990788Y-16486999D01*
X8990788Y-16486999D02*
X8981264Y-16467952D01*
X8981264Y-16467952D02*
X8962216Y-16458428D01*
X8962216Y-16458428D02*
X8933645Y-16458428D01*
X8933645Y-16458428D02*
X8914597Y-16448904D01*
X8914597Y-16448904D02*
X8905074Y-16429857D01*
X8905074Y-16429857D02*
X8905074Y-16420333D01*
X8905074Y-16420333D02*
X8914597Y-16401285D01*
X8914597Y-16401285D02*
X8933645Y-16391761D01*
X8933645Y-16391761D02*
X8962216Y-16391761D01*
X8962216Y-16391761D02*
X8981264Y-16401285D01*
X9057455Y-16601285D02*
X9066978Y-16591761D01*
X9066978Y-16591761D02*
X9086026Y-16563190D01*
X9086026Y-16563190D02*
X9095550Y-16544142D01*
X9095550Y-16544142D02*
X9105074Y-16515571D01*
X9105074Y-16515571D02*
X9114597Y-16467952D01*
X9114597Y-16467952D02*
X9114597Y-16429857D01*
X9114597Y-16429857D02*
X9105074Y-16382238D01*
X9105074Y-16382238D02*
X9095550Y-16353666D01*
X9095550Y-16353666D02*
X9086026Y-16334619D01*
X9086026Y-16334619D02*
X9066978Y-16306047D01*
X9066978Y-16306047D02*
X9057455Y-16296523D01*
D12*
X4061915Y-16667611D02*
X4061915Y-16727611D01*
X4031915Y-16697611D02*
X4091915Y-16697611D01*
D11*
X4390787Y-16589095D02*
X4409835Y-16589095D01*
X4409835Y-16589095D02*
X4428883Y-16598619D01*
X4428883Y-16598619D02*
X4438406Y-16608142D01*
X4438406Y-16608142D02*
X4447930Y-16627190D01*
X4447930Y-16627190D02*
X4457454Y-16665285D01*
X4457454Y-16665285D02*
X4457454Y-16712904D01*
X4457454Y-16712904D02*
X4447930Y-16750999D01*
X4447930Y-16750999D02*
X4438406Y-16770047D01*
X4438406Y-16770047D02*
X4428883Y-16779571D01*
X4428883Y-16779571D02*
X4409835Y-16789095D01*
X4409835Y-16789095D02*
X4390787Y-16789095D01*
X4390787Y-16789095D02*
X4371740Y-16779571D01*
X4371740Y-16779571D02*
X4362216Y-16770047D01*
X4362216Y-16770047D02*
X4352692Y-16750999D01*
X4352692Y-16750999D02*
X4343168Y-16712904D01*
X4343168Y-16712904D02*
X4343168Y-16665285D01*
X4343168Y-16665285D02*
X4352692Y-16627190D01*
X4352692Y-16627190D02*
X4362216Y-16608142D01*
X4362216Y-16608142D02*
X4371740Y-16598619D01*
X4371740Y-16598619D02*
X4390787Y-16589095D01*
X4543168Y-16770047D02*
X4552692Y-16779571D01*
X4552692Y-16779571D02*
X4543168Y-16789095D01*
X4543168Y-16789095D02*
X4533645Y-16779571D01*
X4533645Y-16779571D02*
X4543168Y-16770047D01*
X4543168Y-16770047D02*
X4543168Y-16789095D01*
X4724121Y-16589095D02*
X4686025Y-16589095D01*
X4686025Y-16589095D02*
X4666978Y-16598619D01*
X4666978Y-16598619D02*
X4657454Y-16608142D01*
X4657454Y-16608142D02*
X4638406Y-16636714D01*
X4638406Y-16636714D02*
X4628883Y-16674809D01*
X4628883Y-16674809D02*
X4628883Y-16750999D01*
X4628883Y-16750999D02*
X4638406Y-16770047D01*
X4638406Y-16770047D02*
X4647930Y-16779571D01*
X4647930Y-16779571D02*
X4666978Y-16789095D01*
X4666978Y-16789095D02*
X4705073Y-16789095D01*
X4705073Y-16789095D02*
X4724121Y-16779571D01*
X4724121Y-16779571D02*
X4733645Y-16770047D01*
X4733645Y-16770047D02*
X4743168Y-16750999D01*
X4743168Y-16750999D02*
X4743168Y-16703380D01*
X4743168Y-16703380D02*
X4733645Y-16684333D01*
X4733645Y-16684333D02*
X4724121Y-16674809D01*
X4724121Y-16674809D02*
X4705073Y-16665285D01*
X4705073Y-16665285D02*
X4666978Y-16665285D01*
X4666978Y-16665285D02*
X4647930Y-16674809D01*
X4647930Y-16674809D02*
X4638406Y-16684333D01*
X4638406Y-16684333D02*
X4628883Y-16703380D01*
X4866978Y-16589095D02*
X4886026Y-16589095D01*
X4886026Y-16589095D02*
X4905073Y-16598619D01*
X4905073Y-16598619D02*
X4914597Y-16608142D01*
X4914597Y-16608142D02*
X4924121Y-16627190D01*
X4924121Y-16627190D02*
X4933645Y-16665285D01*
X4933645Y-16665285D02*
X4933645Y-16712904D01*
X4933645Y-16712904D02*
X4924121Y-16750999D01*
X4924121Y-16750999D02*
X4914597Y-16770047D01*
X4914597Y-16770047D02*
X4905073Y-16779571D01*
X4905073Y-16779571D02*
X4886026Y-16789095D01*
X4886026Y-16789095D02*
X4866978Y-16789095D01*
X4866978Y-16789095D02*
X4847930Y-16779571D01*
X4847930Y-16779571D02*
X4838406Y-16770047D01*
X4838406Y-16770047D02*
X4828883Y-16750999D01*
X4828883Y-16750999D02*
X4819359Y-16712904D01*
X4819359Y-16712904D02*
X4819359Y-16665285D01*
X4819359Y-16665285D02*
X4828883Y-16627190D01*
X4828883Y-16627190D02*
X4838406Y-16608142D01*
X4838406Y-16608142D02*
X4847930Y-16598619D01*
X4847930Y-16598619D02*
X4866978Y-16589095D01*
X5057454Y-16589095D02*
X5076502Y-16589095D01*
X5076502Y-16589095D02*
X5095549Y-16598619D01*
X5095549Y-16598619D02*
X5105073Y-16608142D01*
X5105073Y-16608142D02*
X5114597Y-16627190D01*
X5114597Y-16627190D02*
X5124121Y-16665285D01*
X5124121Y-16665285D02*
X5124121Y-16712904D01*
X5124121Y-16712904D02*
X5114597Y-16750999D01*
X5114597Y-16750999D02*
X5105073Y-16770047D01*
X5105073Y-16770047D02*
X5095549Y-16779571D01*
X5095549Y-16779571D02*
X5076502Y-16789095D01*
X5076502Y-16789095D02*
X5057454Y-16789095D01*
X5057454Y-16789095D02*
X5038406Y-16779571D01*
X5038406Y-16779571D02*
X5028883Y-16770047D01*
X5028883Y-16770047D02*
X5019359Y-16750999D01*
X5019359Y-16750999D02*
X5009835Y-16712904D01*
X5009835Y-16712904D02*
X5009835Y-16665285D01*
X5009835Y-16665285D02*
X5019359Y-16627190D01*
X5019359Y-16627190D02*
X5028883Y-16608142D01*
X5028883Y-16608142D02*
X5038406Y-16598619D01*
X5038406Y-16598619D02*
X5057454Y-16589095D01*
X5209835Y-16789095D02*
X5209835Y-16655761D01*
X5209835Y-16674809D02*
X5219359Y-16665285D01*
X5219359Y-16665285D02*
X5238406Y-16655761D01*
X5238406Y-16655761D02*
X5266978Y-16655761D01*
X5266978Y-16655761D02*
X5286026Y-16665285D01*
X5286026Y-16665285D02*
X5295549Y-16684333D01*
X5295549Y-16684333D02*
X5295549Y-16789095D01*
X5295549Y-16684333D02*
X5305073Y-16665285D01*
X5305073Y-16665285D02*
X5324121Y-16655761D01*
X5324121Y-16655761D02*
X5352692Y-16655761D01*
X5352692Y-16655761D02*
X5371740Y-16665285D01*
X5371740Y-16665285D02*
X5381264Y-16684333D01*
X5381264Y-16684333D02*
X5381264Y-16789095D01*
X5476502Y-16789095D02*
X5476502Y-16655761D01*
X5476502Y-16674809D02*
X5486026Y-16665285D01*
X5486026Y-16665285D02*
X5505073Y-16655761D01*
X5505073Y-16655761D02*
X5533645Y-16655761D01*
X5533645Y-16655761D02*
X5552692Y-16665285D01*
X5552692Y-16665285D02*
X5562216Y-16684333D01*
X5562216Y-16684333D02*
X5562216Y-16789095D01*
X5562216Y-16684333D02*
X5571740Y-16665285D01*
X5571740Y-16665285D02*
X5590787Y-16655761D01*
X5590787Y-16655761D02*
X5619359Y-16655761D01*
X5619359Y-16655761D02*
X5638406Y-16665285D01*
X5638406Y-16665285D02*
X5647930Y-16684333D01*
X5647930Y-16684333D02*
X5647930Y-16789095D01*
X6038406Y-16579571D02*
X5866978Y-16836714D01*
X6295549Y-16589095D02*
X6314597Y-16589095D01*
X6314597Y-16589095D02*
X6333645Y-16598619D01*
X6333645Y-16598619D02*
X6343168Y-16608142D01*
X6343168Y-16608142D02*
X6352692Y-16627190D01*
X6352692Y-16627190D02*
X6362216Y-16665285D01*
X6362216Y-16665285D02*
X6362216Y-16712904D01*
X6362216Y-16712904D02*
X6352692Y-16750999D01*
X6352692Y-16750999D02*
X6343168Y-16770047D01*
X6343168Y-16770047D02*
X6333645Y-16779571D01*
X6333645Y-16779571D02*
X6314597Y-16789095D01*
X6314597Y-16789095D02*
X6295549Y-16789095D01*
X6295549Y-16789095D02*
X6276502Y-16779571D01*
X6276502Y-16779571D02*
X6266978Y-16770047D01*
X6266978Y-16770047D02*
X6257454Y-16750999D01*
X6257454Y-16750999D02*
X6247930Y-16712904D01*
X6247930Y-16712904D02*
X6247930Y-16665285D01*
X6247930Y-16665285D02*
X6257454Y-16627190D01*
X6257454Y-16627190D02*
X6266978Y-16608142D01*
X6266978Y-16608142D02*
X6276502Y-16598619D01*
X6276502Y-16598619D02*
X6295549Y-16589095D01*
X6447930Y-16770047D02*
X6457454Y-16779571D01*
X6457454Y-16779571D02*
X6447930Y-16789095D01*
X6447930Y-16789095D02*
X6438407Y-16779571D01*
X6438407Y-16779571D02*
X6447930Y-16770047D01*
X6447930Y-16770047D02*
X6447930Y-16789095D01*
X6581264Y-16589095D02*
X6600311Y-16589095D01*
X6600311Y-16589095D02*
X6619359Y-16598619D01*
X6619359Y-16598619D02*
X6628883Y-16608142D01*
X6628883Y-16608142D02*
X6638407Y-16627190D01*
X6638407Y-16627190D02*
X6647930Y-16665285D01*
X6647930Y-16665285D02*
X6647930Y-16712904D01*
X6647930Y-16712904D02*
X6638407Y-16750999D01*
X6638407Y-16750999D02*
X6628883Y-16770047D01*
X6628883Y-16770047D02*
X6619359Y-16779571D01*
X6619359Y-16779571D02*
X6600311Y-16789095D01*
X6600311Y-16789095D02*
X6581264Y-16789095D01*
X6581264Y-16789095D02*
X6562216Y-16779571D01*
X6562216Y-16779571D02*
X6552692Y-16770047D01*
X6552692Y-16770047D02*
X6543168Y-16750999D01*
X6543168Y-16750999D02*
X6533645Y-16712904D01*
X6533645Y-16712904D02*
X6533645Y-16665285D01*
X6533645Y-16665285D02*
X6543168Y-16627190D01*
X6543168Y-16627190D02*
X6552692Y-16608142D01*
X6552692Y-16608142D02*
X6562216Y-16598619D01*
X6562216Y-16598619D02*
X6581264Y-16589095D01*
X6724121Y-16608142D02*
X6733645Y-16598619D01*
X6733645Y-16598619D02*
X6752692Y-16589095D01*
X6752692Y-16589095D02*
X6800311Y-16589095D01*
X6800311Y-16589095D02*
X6819359Y-16598619D01*
X6819359Y-16598619D02*
X6828883Y-16608142D01*
X6828883Y-16608142D02*
X6838407Y-16627190D01*
X6838407Y-16627190D02*
X6838407Y-16646238D01*
X6838407Y-16646238D02*
X6828883Y-16674809D01*
X6828883Y-16674809D02*
X6714597Y-16789095D01*
X6714597Y-16789095D02*
X6838407Y-16789095D01*
X6905073Y-16589095D02*
X7028883Y-16589095D01*
X7028883Y-16589095D02*
X6962216Y-16665285D01*
X6962216Y-16665285D02*
X6990788Y-16665285D01*
X6990788Y-16665285D02*
X7009835Y-16674809D01*
X7009835Y-16674809D02*
X7019359Y-16684333D01*
X7019359Y-16684333D02*
X7028883Y-16703380D01*
X7028883Y-16703380D02*
X7028883Y-16750999D01*
X7028883Y-16750999D02*
X7019359Y-16770047D01*
X7019359Y-16770047D02*
X7009835Y-16779571D01*
X7009835Y-16779571D02*
X6990788Y-16789095D01*
X6990788Y-16789095D02*
X6933645Y-16789095D01*
X6933645Y-16789095D02*
X6914597Y-16779571D01*
X6914597Y-16779571D02*
X6905073Y-16770047D01*
X7200311Y-16589095D02*
X7162216Y-16589095D01*
X7162216Y-16589095D02*
X7143168Y-16598619D01*
X7143168Y-16598619D02*
X7133645Y-16608142D01*
X7133645Y-16608142D02*
X7114597Y-16636714D01*
X7114597Y-16636714D02*
X7105073Y-16674809D01*
X7105073Y-16674809D02*
X7105073Y-16750999D01*
X7105073Y-16750999D02*
X7114597Y-16770047D01*
X7114597Y-16770047D02*
X7124121Y-16779571D01*
X7124121Y-16779571D02*
X7143168Y-16789095D01*
X7143168Y-16789095D02*
X7181264Y-16789095D01*
X7181264Y-16789095D02*
X7200311Y-16779571D01*
X7200311Y-16779571D02*
X7209835Y-16770047D01*
X7209835Y-16770047D02*
X7219359Y-16750999D01*
X7219359Y-16750999D02*
X7219359Y-16703380D01*
X7219359Y-16703380D02*
X7209835Y-16684333D01*
X7209835Y-16684333D02*
X7200311Y-16674809D01*
X7200311Y-16674809D02*
X7181264Y-16665285D01*
X7181264Y-16665285D02*
X7143168Y-16665285D01*
X7143168Y-16665285D02*
X7124121Y-16674809D01*
X7124121Y-16674809D02*
X7114597Y-16684333D01*
X7114597Y-16684333D02*
X7105073Y-16703380D01*
X7295549Y-16589095D02*
X7295549Y-16627190D01*
X7371740Y-16589095D02*
X7371740Y-16627190D01*
X7666978Y-16865285D02*
X7657454Y-16855761D01*
X7657454Y-16855761D02*
X7638407Y-16827190D01*
X7638407Y-16827190D02*
X7628883Y-16808142D01*
X7628883Y-16808142D02*
X7619359Y-16779571D01*
X7619359Y-16779571D02*
X7609835Y-16731952D01*
X7609835Y-16731952D02*
X7609835Y-16693857D01*
X7609835Y-16693857D02*
X7619359Y-16646238D01*
X7619359Y-16646238D02*
X7628883Y-16617666D01*
X7628883Y-16617666D02*
X7638407Y-16598619D01*
X7638407Y-16598619D02*
X7657454Y-16570047D01*
X7657454Y-16570047D02*
X7666978Y-16560523D01*
X7781264Y-16589095D02*
X7800311Y-16589095D01*
X7800311Y-16589095D02*
X7819359Y-16598619D01*
X7819359Y-16598619D02*
X7828883Y-16608142D01*
X7828883Y-16608142D02*
X7838407Y-16627190D01*
X7838407Y-16627190D02*
X7847930Y-16665285D01*
X7847930Y-16665285D02*
X7847930Y-16712904D01*
X7847930Y-16712904D02*
X7838407Y-16750999D01*
X7838407Y-16750999D02*
X7828883Y-16770047D01*
X7828883Y-16770047D02*
X7819359Y-16779571D01*
X7819359Y-16779571D02*
X7800311Y-16789095D01*
X7800311Y-16789095D02*
X7781264Y-16789095D01*
X7781264Y-16789095D02*
X7762216Y-16779571D01*
X7762216Y-16779571D02*
X7752692Y-16770047D01*
X7752692Y-16770047D02*
X7743169Y-16750999D01*
X7743169Y-16750999D02*
X7733645Y-16712904D01*
X7733645Y-16712904D02*
X7733645Y-16665285D01*
X7733645Y-16665285D02*
X7743169Y-16627190D01*
X7743169Y-16627190D02*
X7752692Y-16608142D01*
X7752692Y-16608142D02*
X7762216Y-16598619D01*
X7762216Y-16598619D02*
X7781264Y-16589095D01*
X8086026Y-16789095D02*
X8086026Y-16589095D01*
X8171740Y-16789095D02*
X8171740Y-16684333D01*
X8171740Y-16684333D02*
X8162216Y-16665285D01*
X8162216Y-16665285D02*
X8143169Y-16655761D01*
X8143169Y-16655761D02*
X8114597Y-16655761D01*
X8114597Y-16655761D02*
X8095550Y-16665285D01*
X8095550Y-16665285D02*
X8086026Y-16674809D01*
X8295550Y-16789095D02*
X8276502Y-16779571D01*
X8276502Y-16779571D02*
X8266978Y-16770047D01*
X8266978Y-16770047D02*
X8257454Y-16750999D01*
X8257454Y-16750999D02*
X8257454Y-16693857D01*
X8257454Y-16693857D02*
X8266978Y-16674809D01*
X8266978Y-16674809D02*
X8276502Y-16665285D01*
X8276502Y-16665285D02*
X8295550Y-16655761D01*
X8295550Y-16655761D02*
X8324121Y-16655761D01*
X8324121Y-16655761D02*
X8343169Y-16665285D01*
X8343169Y-16665285D02*
X8352692Y-16674809D01*
X8352692Y-16674809D02*
X8362216Y-16693857D01*
X8362216Y-16693857D02*
X8362216Y-16750999D01*
X8362216Y-16750999D02*
X8352692Y-16770047D01*
X8352692Y-16770047D02*
X8343169Y-16779571D01*
X8343169Y-16779571D02*
X8324121Y-16789095D01*
X8324121Y-16789095D02*
X8295550Y-16789095D01*
X8476502Y-16789095D02*
X8457454Y-16779571D01*
X8457454Y-16779571D02*
X8447931Y-16760523D01*
X8447931Y-16760523D02*
X8447931Y-16589095D01*
X8628883Y-16779571D02*
X8609835Y-16789095D01*
X8609835Y-16789095D02*
X8571740Y-16789095D01*
X8571740Y-16789095D02*
X8552693Y-16779571D01*
X8552693Y-16779571D02*
X8543169Y-16760523D01*
X8543169Y-16760523D02*
X8543169Y-16684333D01*
X8543169Y-16684333D02*
X8552693Y-16665285D01*
X8552693Y-16665285D02*
X8571740Y-16655761D01*
X8571740Y-16655761D02*
X8609835Y-16655761D01*
X8609835Y-16655761D02*
X8628883Y-16665285D01*
X8628883Y-16665285D02*
X8638407Y-16684333D01*
X8638407Y-16684333D02*
X8638407Y-16703380D01*
X8638407Y-16703380D02*
X8543169Y-16722428D01*
X8714597Y-16779571D02*
X8733645Y-16789095D01*
X8733645Y-16789095D02*
X8771740Y-16789095D01*
X8771740Y-16789095D02*
X8790788Y-16779571D01*
X8790788Y-16779571D02*
X8800312Y-16760523D01*
X8800312Y-16760523D02*
X8800312Y-16750999D01*
X8800312Y-16750999D02*
X8790788Y-16731952D01*
X8790788Y-16731952D02*
X8771740Y-16722428D01*
X8771740Y-16722428D02*
X8743169Y-16722428D01*
X8743169Y-16722428D02*
X8724121Y-16712904D01*
X8724121Y-16712904D02*
X8714597Y-16693857D01*
X8714597Y-16693857D02*
X8714597Y-16684333D01*
X8714597Y-16684333D02*
X8724121Y-16665285D01*
X8724121Y-16665285D02*
X8743169Y-16655761D01*
X8743169Y-16655761D02*
X8771740Y-16655761D01*
X8771740Y-16655761D02*
X8790788Y-16665285D01*
X9038407Y-16712904D02*
X9190788Y-16712904D01*
X9114597Y-16789095D02*
X9114597Y-16636714D01*
X9524121Y-16655761D02*
X9524121Y-16789095D01*
X9476502Y-16579571D02*
X9428883Y-16722428D01*
X9428883Y-16722428D02*
X9552693Y-16722428D01*
X9771740Y-16779571D02*
X9790788Y-16789095D01*
X9790788Y-16789095D02*
X9828883Y-16789095D01*
X9828883Y-16789095D02*
X9847931Y-16779571D01*
X9847931Y-16779571D02*
X9857455Y-16760523D01*
X9857455Y-16760523D02*
X9857455Y-16750999D01*
X9857455Y-16750999D02*
X9847931Y-16731952D01*
X9847931Y-16731952D02*
X9828883Y-16722428D01*
X9828883Y-16722428D02*
X9800312Y-16722428D01*
X9800312Y-16722428D02*
X9781264Y-16712904D01*
X9781264Y-16712904D02*
X9771740Y-16693857D01*
X9771740Y-16693857D02*
X9771740Y-16684333D01*
X9771740Y-16684333D02*
X9781264Y-16665285D01*
X9781264Y-16665285D02*
X9800312Y-16655761D01*
X9800312Y-16655761D02*
X9828883Y-16655761D01*
X9828883Y-16655761D02*
X9847931Y-16665285D01*
X9971740Y-16789095D02*
X9952693Y-16779571D01*
X9952693Y-16779571D02*
X9943169Y-16760523D01*
X9943169Y-16760523D02*
X9943169Y-16589095D01*
X10076502Y-16789095D02*
X10057455Y-16779571D01*
X10057455Y-16779571D02*
X10047931Y-16770047D01*
X10047931Y-16770047D02*
X10038407Y-16750999D01*
X10038407Y-16750999D02*
X10038407Y-16693857D01*
X10038407Y-16693857D02*
X10047931Y-16674809D01*
X10047931Y-16674809D02*
X10057455Y-16665285D01*
X10057455Y-16665285D02*
X10076502Y-16655761D01*
X10076502Y-16655761D02*
X10105074Y-16655761D01*
X10105074Y-16655761D02*
X10124121Y-16665285D01*
X10124121Y-16665285D02*
X10133645Y-16674809D01*
X10133645Y-16674809D02*
X10143169Y-16693857D01*
X10143169Y-16693857D02*
X10143169Y-16750999D01*
X10143169Y-16750999D02*
X10133645Y-16770047D01*
X10133645Y-16770047D02*
X10124121Y-16779571D01*
X10124121Y-16779571D02*
X10105074Y-16789095D01*
X10105074Y-16789095D02*
X10076502Y-16789095D01*
X10200312Y-16655761D02*
X10276502Y-16655761D01*
X10228883Y-16589095D02*
X10228883Y-16760523D01*
X10228883Y-16760523D02*
X10238407Y-16779571D01*
X10238407Y-16779571D02*
X10257455Y-16789095D01*
X10257455Y-16789095D02*
X10276502Y-16789095D01*
X10333645Y-16779571D02*
X10352693Y-16789095D01*
X10352693Y-16789095D02*
X10390788Y-16789095D01*
X10390788Y-16789095D02*
X10409836Y-16779571D01*
X10409836Y-16779571D02*
X10419359Y-16760523D01*
X10419359Y-16760523D02*
X10419359Y-16750999D01*
X10419359Y-16750999D02*
X10409836Y-16731952D01*
X10409836Y-16731952D02*
X10390788Y-16722428D01*
X10390788Y-16722428D02*
X10362217Y-16722428D01*
X10362217Y-16722428D02*
X10343169Y-16712904D01*
X10343169Y-16712904D02*
X10333645Y-16693857D01*
X10333645Y-16693857D02*
X10333645Y-16684333D01*
X10333645Y-16684333D02*
X10343169Y-16665285D01*
X10343169Y-16665285D02*
X10362217Y-16655761D01*
X10362217Y-16655761D02*
X10390788Y-16655761D01*
X10390788Y-16655761D02*
X10409836Y-16665285D01*
X10486026Y-16865285D02*
X10495550Y-16855761D01*
X10495550Y-16855761D02*
X10514598Y-16827190D01*
X10514598Y-16827190D02*
X10524121Y-16808142D01*
X10524121Y-16808142D02*
X10533645Y-16779571D01*
X10533645Y-16779571D02*
X10543169Y-16731952D01*
X10543169Y-16731952D02*
X10543169Y-16693857D01*
X10543169Y-16693857D02*
X10533645Y-16646238D01*
X10533645Y-16646238D02*
X10524121Y-16617666D01*
X10524121Y-16617666D02*
X10514598Y-16598619D01*
X10514598Y-16598619D02*
X10495550Y-16570047D01*
X10495550Y-16570047D02*
X10486026Y-16560523D01*
D12*
X4080012Y-16990348D02*
X4080012Y-16932874D01*
X4022538Y-16932874D01*
X4022538Y-16990348D01*
X4080012Y-16990348D01*
D11*
X4390787Y-16853095D02*
X4409835Y-16853095D01*
X4409835Y-16853095D02*
X4428883Y-16862619D01*
X4428883Y-16862619D02*
X4438406Y-16872142D01*
X4438406Y-16872142D02*
X4447930Y-16891190D01*
X4447930Y-16891190D02*
X4457454Y-16929285D01*
X4457454Y-16929285D02*
X4457454Y-16976904D01*
X4457454Y-16976904D02*
X4447930Y-17015000D01*
X4447930Y-17015000D02*
X4438406Y-17034047D01*
X4438406Y-17034047D02*
X4428883Y-17043571D01*
X4428883Y-17043571D02*
X4409835Y-17053095D01*
X4409835Y-17053095D02*
X4390787Y-17053095D01*
X4390787Y-17053095D02*
X4371740Y-17043571D01*
X4371740Y-17043571D02*
X4362216Y-17034047D01*
X4362216Y-17034047D02*
X4352692Y-17015000D01*
X4352692Y-17015000D02*
X4343168Y-16976904D01*
X4343168Y-16976904D02*
X4343168Y-16929285D01*
X4343168Y-16929285D02*
X4352692Y-16891190D01*
X4352692Y-16891190D02*
X4362216Y-16872142D01*
X4362216Y-16872142D02*
X4371740Y-16862619D01*
X4371740Y-16862619D02*
X4390787Y-16853095D01*
X4543168Y-17034047D02*
X4552692Y-17043571D01*
X4552692Y-17043571D02*
X4543168Y-17053095D01*
X4543168Y-17053095D02*
X4533645Y-17043571D01*
X4533645Y-17043571D02*
X4543168Y-17034047D01*
X4543168Y-17034047D02*
X4543168Y-17053095D01*
X4666978Y-16938809D02*
X4647930Y-16929285D01*
X4647930Y-16929285D02*
X4638406Y-16919761D01*
X4638406Y-16919761D02*
X4628883Y-16900714D01*
X4628883Y-16900714D02*
X4628883Y-16891190D01*
X4628883Y-16891190D02*
X4638406Y-16872142D01*
X4638406Y-16872142D02*
X4647930Y-16862619D01*
X4647930Y-16862619D02*
X4666978Y-16853095D01*
X4666978Y-16853095D02*
X4705073Y-16853095D01*
X4705073Y-16853095D02*
X4724121Y-16862619D01*
X4724121Y-16862619D02*
X4733645Y-16872142D01*
X4733645Y-16872142D02*
X4743168Y-16891190D01*
X4743168Y-16891190D02*
X4743168Y-16900714D01*
X4743168Y-16900714D02*
X4733645Y-16919761D01*
X4733645Y-16919761D02*
X4724121Y-16929285D01*
X4724121Y-16929285D02*
X4705073Y-16938809D01*
X4705073Y-16938809D02*
X4666978Y-16938809D01*
X4666978Y-16938809D02*
X4647930Y-16948333D01*
X4647930Y-16948333D02*
X4638406Y-16957857D01*
X4638406Y-16957857D02*
X4628883Y-16976904D01*
X4628883Y-16976904D02*
X4628883Y-17015000D01*
X4628883Y-17015000D02*
X4638406Y-17034047D01*
X4638406Y-17034047D02*
X4647930Y-17043571D01*
X4647930Y-17043571D02*
X4666978Y-17053095D01*
X4666978Y-17053095D02*
X4705073Y-17053095D01*
X4705073Y-17053095D02*
X4724121Y-17043571D01*
X4724121Y-17043571D02*
X4733645Y-17034047D01*
X4733645Y-17034047D02*
X4743168Y-17015000D01*
X4743168Y-17015000D02*
X4743168Y-16976904D01*
X4743168Y-16976904D02*
X4733645Y-16957857D01*
X4733645Y-16957857D02*
X4724121Y-16948333D01*
X4724121Y-16948333D02*
X4705073Y-16938809D01*
X4933645Y-17053095D02*
X4819359Y-17053095D01*
X4876502Y-17053095D02*
X4876502Y-16853095D01*
X4876502Y-16853095D02*
X4857454Y-16881666D01*
X4857454Y-16881666D02*
X4838406Y-16900714D01*
X4838406Y-16900714D02*
X4819359Y-16910238D01*
X5000311Y-16853095D02*
X5124121Y-16853095D01*
X5124121Y-16853095D02*
X5057454Y-16929285D01*
X5057454Y-16929285D02*
X5086026Y-16929285D01*
X5086026Y-16929285D02*
X5105073Y-16938809D01*
X5105073Y-16938809D02*
X5114597Y-16948333D01*
X5114597Y-16948333D02*
X5124121Y-16967381D01*
X5124121Y-16967381D02*
X5124121Y-17015000D01*
X5124121Y-17015000D02*
X5114597Y-17034047D01*
X5114597Y-17034047D02*
X5105073Y-17043571D01*
X5105073Y-17043571D02*
X5086026Y-17053095D01*
X5086026Y-17053095D02*
X5028883Y-17053095D01*
X5028883Y-17053095D02*
X5009835Y-17043571D01*
X5009835Y-17043571D02*
X5000311Y-17034047D01*
X5209835Y-17053095D02*
X5209835Y-16919761D01*
X5209835Y-16938809D02*
X5219359Y-16929285D01*
X5219359Y-16929285D02*
X5238406Y-16919761D01*
X5238406Y-16919761D02*
X5266978Y-16919761D01*
X5266978Y-16919761D02*
X5286026Y-16929285D01*
X5286026Y-16929285D02*
X5295549Y-16948333D01*
X5295549Y-16948333D02*
X5295549Y-17053095D01*
X5295549Y-16948333D02*
X5305073Y-16929285D01*
X5305073Y-16929285D02*
X5324121Y-16919761D01*
X5324121Y-16919761D02*
X5352692Y-16919761D01*
X5352692Y-16919761D02*
X5371740Y-16929285D01*
X5371740Y-16929285D02*
X5381264Y-16948333D01*
X5381264Y-16948333D02*
X5381264Y-17053095D01*
X5476502Y-17053095D02*
X5476502Y-16919761D01*
X5476502Y-16938809D02*
X5486026Y-16929285D01*
X5486026Y-16929285D02*
X5505073Y-16919761D01*
X5505073Y-16919761D02*
X5533645Y-16919761D01*
X5533645Y-16919761D02*
X5552692Y-16929285D01*
X5552692Y-16929285D02*
X5562216Y-16948333D01*
X5562216Y-16948333D02*
X5562216Y-17053095D01*
X5562216Y-16948333D02*
X5571740Y-16929285D01*
X5571740Y-16929285D02*
X5590787Y-16919761D01*
X5590787Y-16919761D02*
X5619359Y-16919761D01*
X5619359Y-16919761D02*
X5638406Y-16929285D01*
X5638406Y-16929285D02*
X5647930Y-16948333D01*
X5647930Y-16948333D02*
X5647930Y-17053095D01*
X6038406Y-16843571D02*
X5866978Y-17100714D01*
X6295549Y-16853095D02*
X6314597Y-16853095D01*
X6314597Y-16853095D02*
X6333645Y-16862619D01*
X6333645Y-16862619D02*
X6343168Y-16872142D01*
X6343168Y-16872142D02*
X6352692Y-16891190D01*
X6352692Y-16891190D02*
X6362216Y-16929285D01*
X6362216Y-16929285D02*
X6362216Y-16976904D01*
X6362216Y-16976904D02*
X6352692Y-17015000D01*
X6352692Y-17015000D02*
X6343168Y-17034047D01*
X6343168Y-17034047D02*
X6333645Y-17043571D01*
X6333645Y-17043571D02*
X6314597Y-17053095D01*
X6314597Y-17053095D02*
X6295549Y-17053095D01*
X6295549Y-17053095D02*
X6276502Y-17043571D01*
X6276502Y-17043571D02*
X6266978Y-17034047D01*
X6266978Y-17034047D02*
X6257454Y-17015000D01*
X6257454Y-17015000D02*
X6247930Y-16976904D01*
X6247930Y-16976904D02*
X6247930Y-16929285D01*
X6247930Y-16929285D02*
X6257454Y-16891190D01*
X6257454Y-16891190D02*
X6266978Y-16872142D01*
X6266978Y-16872142D02*
X6276502Y-16862619D01*
X6276502Y-16862619D02*
X6295549Y-16853095D01*
X6447930Y-17034047D02*
X6457454Y-17043571D01*
X6457454Y-17043571D02*
X6447930Y-17053095D01*
X6447930Y-17053095D02*
X6438407Y-17043571D01*
X6438407Y-17043571D02*
X6447930Y-17034047D01*
X6447930Y-17034047D02*
X6447930Y-17053095D01*
X6581264Y-16853095D02*
X6600311Y-16853095D01*
X6600311Y-16853095D02*
X6619359Y-16862619D01*
X6619359Y-16862619D02*
X6628883Y-16872142D01*
X6628883Y-16872142D02*
X6638407Y-16891190D01*
X6638407Y-16891190D02*
X6647930Y-16929285D01*
X6647930Y-16929285D02*
X6647930Y-16976904D01*
X6647930Y-16976904D02*
X6638407Y-17015000D01*
X6638407Y-17015000D02*
X6628883Y-17034047D01*
X6628883Y-17034047D02*
X6619359Y-17043571D01*
X6619359Y-17043571D02*
X6600311Y-17053095D01*
X6600311Y-17053095D02*
X6581264Y-17053095D01*
X6581264Y-17053095D02*
X6562216Y-17043571D01*
X6562216Y-17043571D02*
X6552692Y-17034047D01*
X6552692Y-17034047D02*
X6543168Y-17015000D01*
X6543168Y-17015000D02*
X6533645Y-16976904D01*
X6533645Y-16976904D02*
X6533645Y-16929285D01*
X6533645Y-16929285D02*
X6543168Y-16891190D01*
X6543168Y-16891190D02*
X6552692Y-16872142D01*
X6552692Y-16872142D02*
X6562216Y-16862619D01*
X6562216Y-16862619D02*
X6581264Y-16853095D01*
X6714597Y-16853095D02*
X6838407Y-16853095D01*
X6838407Y-16853095D02*
X6771740Y-16929285D01*
X6771740Y-16929285D02*
X6800311Y-16929285D01*
X6800311Y-16929285D02*
X6819359Y-16938809D01*
X6819359Y-16938809D02*
X6828883Y-16948333D01*
X6828883Y-16948333D02*
X6838407Y-16967381D01*
X6838407Y-16967381D02*
X6838407Y-17015000D01*
X6838407Y-17015000D02*
X6828883Y-17034047D01*
X6828883Y-17034047D02*
X6819359Y-17043571D01*
X6819359Y-17043571D02*
X6800311Y-17053095D01*
X6800311Y-17053095D02*
X6743168Y-17053095D01*
X6743168Y-17053095D02*
X6724121Y-17043571D01*
X6724121Y-17043571D02*
X6714597Y-17034047D01*
X6914597Y-16872142D02*
X6924121Y-16862619D01*
X6924121Y-16862619D02*
X6943168Y-16853095D01*
X6943168Y-16853095D02*
X6990788Y-16853095D01*
X6990788Y-16853095D02*
X7009835Y-16862619D01*
X7009835Y-16862619D02*
X7019359Y-16872142D01*
X7019359Y-16872142D02*
X7028883Y-16891190D01*
X7028883Y-16891190D02*
X7028883Y-16910238D01*
X7028883Y-16910238D02*
X7019359Y-16938809D01*
X7019359Y-16938809D02*
X6905073Y-17053095D01*
X6905073Y-17053095D02*
X7028883Y-17053095D01*
X7152692Y-16853095D02*
X7171740Y-16853095D01*
X7171740Y-16853095D02*
X7190788Y-16862619D01*
X7190788Y-16862619D02*
X7200311Y-16872142D01*
X7200311Y-16872142D02*
X7209835Y-16891190D01*
X7209835Y-16891190D02*
X7219359Y-16929285D01*
X7219359Y-16929285D02*
X7219359Y-16976904D01*
X7219359Y-16976904D02*
X7209835Y-17015000D01*
X7209835Y-17015000D02*
X7200311Y-17034047D01*
X7200311Y-17034047D02*
X7190788Y-17043571D01*
X7190788Y-17043571D02*
X7171740Y-17053095D01*
X7171740Y-17053095D02*
X7152692Y-17053095D01*
X7152692Y-17053095D02*
X7133645Y-17043571D01*
X7133645Y-17043571D02*
X7124121Y-17034047D01*
X7124121Y-17034047D02*
X7114597Y-17015000D01*
X7114597Y-17015000D02*
X7105073Y-16976904D01*
X7105073Y-16976904D02*
X7105073Y-16929285D01*
X7105073Y-16929285D02*
X7114597Y-16891190D01*
X7114597Y-16891190D02*
X7124121Y-16872142D01*
X7124121Y-16872142D02*
X7133645Y-16862619D01*
X7133645Y-16862619D02*
X7152692Y-16853095D01*
X7295549Y-16853095D02*
X7295549Y-16891190D01*
X7371740Y-16853095D02*
X7371740Y-16891190D01*
X7666978Y-17129285D02*
X7657454Y-17119761D01*
X7657454Y-17119761D02*
X7638407Y-17091190D01*
X7638407Y-17091190D02*
X7628883Y-17072142D01*
X7628883Y-17072142D02*
X7619359Y-17043571D01*
X7619359Y-17043571D02*
X7609835Y-16995952D01*
X7609835Y-16995952D02*
X7609835Y-16957857D01*
X7609835Y-16957857D02*
X7619359Y-16910238D01*
X7619359Y-16910238D02*
X7628883Y-16881666D01*
X7628883Y-16881666D02*
X7638407Y-16862619D01*
X7638407Y-16862619D02*
X7657454Y-16834047D01*
X7657454Y-16834047D02*
X7666978Y-16824523D01*
X7847930Y-17053095D02*
X7733645Y-17053095D01*
X7790788Y-17053095D02*
X7790788Y-16853095D01*
X7790788Y-16853095D02*
X7771740Y-16881666D01*
X7771740Y-16881666D02*
X7752692Y-16900714D01*
X7752692Y-16900714D02*
X7733645Y-16910238D01*
X7971740Y-16853095D02*
X7990788Y-16853095D01*
X7990788Y-16853095D02*
X8009835Y-16862619D01*
X8009835Y-16862619D02*
X8019359Y-16872142D01*
X8019359Y-16872142D02*
X8028883Y-16891190D01*
X8028883Y-16891190D02*
X8038407Y-16929285D01*
X8038407Y-16929285D02*
X8038407Y-16976904D01*
X8038407Y-16976904D02*
X8028883Y-17015000D01*
X8028883Y-17015000D02*
X8019359Y-17034047D01*
X8019359Y-17034047D02*
X8009835Y-17043571D01*
X8009835Y-17043571D02*
X7990788Y-17053095D01*
X7990788Y-17053095D02*
X7971740Y-17053095D01*
X7971740Y-17053095D02*
X7952692Y-17043571D01*
X7952692Y-17043571D02*
X7943169Y-17034047D01*
X7943169Y-17034047D02*
X7933645Y-17015000D01*
X7933645Y-17015000D02*
X7924121Y-16976904D01*
X7924121Y-16976904D02*
X7924121Y-16929285D01*
X7924121Y-16929285D02*
X7933645Y-16891190D01*
X7933645Y-16891190D02*
X7943169Y-16872142D01*
X7943169Y-16872142D02*
X7952692Y-16862619D01*
X7952692Y-16862619D02*
X7971740Y-16853095D01*
X8209835Y-16919761D02*
X8209835Y-17053095D01*
X8162216Y-16843571D02*
X8114597Y-16986428D01*
X8114597Y-16986428D02*
X8238407Y-16986428D01*
X8466978Y-17053095D02*
X8466978Y-16853095D01*
X8552693Y-17053095D02*
X8552693Y-16948333D01*
X8552693Y-16948333D02*
X8543169Y-16929285D01*
X8543169Y-16929285D02*
X8524121Y-16919761D01*
X8524121Y-16919761D02*
X8495550Y-16919761D01*
X8495550Y-16919761D02*
X8476502Y-16929285D01*
X8476502Y-16929285D02*
X8466978Y-16938809D01*
X8676502Y-17053095D02*
X8657454Y-17043571D01*
X8657454Y-17043571D02*
X8647931Y-17034047D01*
X8647931Y-17034047D02*
X8638407Y-17015000D01*
X8638407Y-17015000D02*
X8638407Y-16957857D01*
X8638407Y-16957857D02*
X8647931Y-16938809D01*
X8647931Y-16938809D02*
X8657454Y-16929285D01*
X8657454Y-16929285D02*
X8676502Y-16919761D01*
X8676502Y-16919761D02*
X8705074Y-16919761D01*
X8705074Y-16919761D02*
X8724121Y-16929285D01*
X8724121Y-16929285D02*
X8733645Y-16938809D01*
X8733645Y-16938809D02*
X8743169Y-16957857D01*
X8743169Y-16957857D02*
X8743169Y-17015000D01*
X8743169Y-17015000D02*
X8733645Y-17034047D01*
X8733645Y-17034047D02*
X8724121Y-17043571D01*
X8724121Y-17043571D02*
X8705074Y-17053095D01*
X8705074Y-17053095D02*
X8676502Y-17053095D01*
X8857454Y-17053095D02*
X8838407Y-17043571D01*
X8838407Y-17043571D02*
X8828883Y-17024523D01*
X8828883Y-17024523D02*
X8828883Y-16853095D01*
X9009835Y-17043571D02*
X8990788Y-17053095D01*
X8990788Y-17053095D02*
X8952693Y-17053095D01*
X8952693Y-17053095D02*
X8933645Y-17043571D01*
X8933645Y-17043571D02*
X8924121Y-17024523D01*
X8924121Y-17024523D02*
X8924121Y-16948333D01*
X8924121Y-16948333D02*
X8933645Y-16929285D01*
X8933645Y-16929285D02*
X8952693Y-16919761D01*
X8952693Y-16919761D02*
X8990788Y-16919761D01*
X8990788Y-16919761D02*
X9009835Y-16929285D01*
X9009835Y-16929285D02*
X9019359Y-16948333D01*
X9019359Y-16948333D02*
X9019359Y-16967381D01*
X9019359Y-16967381D02*
X8924121Y-16986428D01*
X9095550Y-17043571D02*
X9114597Y-17053095D01*
X9114597Y-17053095D02*
X9152693Y-17053095D01*
X9152693Y-17053095D02*
X9171740Y-17043571D01*
X9171740Y-17043571D02*
X9181264Y-17024523D01*
X9181264Y-17024523D02*
X9181264Y-17015000D01*
X9181264Y-17015000D02*
X9171740Y-16995952D01*
X9171740Y-16995952D02*
X9152693Y-16986428D01*
X9152693Y-16986428D02*
X9124121Y-16986428D01*
X9124121Y-16986428D02*
X9105074Y-16976904D01*
X9105074Y-16976904D02*
X9095550Y-16957857D01*
X9095550Y-16957857D02*
X9095550Y-16948333D01*
X9095550Y-16948333D02*
X9105074Y-16929285D01*
X9105074Y-16929285D02*
X9124121Y-16919761D01*
X9124121Y-16919761D02*
X9152693Y-16919761D01*
X9152693Y-16919761D02*
X9171740Y-16929285D01*
X9247931Y-17129285D02*
X9257455Y-17119761D01*
X9257455Y-17119761D02*
X9276502Y-17091190D01*
X9276502Y-17091190D02*
X9286026Y-17072142D01*
X9286026Y-17072142D02*
X9295550Y-17043571D01*
X9295550Y-17043571D02*
X9305074Y-16995952D01*
X9305074Y-16995952D02*
X9305074Y-16957857D01*
X9305074Y-16957857D02*
X9295550Y-16910238D01*
X9295550Y-16910238D02*
X9286026Y-16881666D01*
X9286026Y-16881666D02*
X9276502Y-16862619D01*
X9276502Y-16862619D02*
X9257455Y-16834047D01*
X9257455Y-16834047D02*
X9247931Y-16824523D01*
D13*
X4026915Y-17290611D02*
X4091915Y-17225611D01*
X4026915Y-17160611D01*
X3961915Y-17225611D01*
X4026915Y-17290611D01*
D11*
X4457454Y-17317095D02*
X4343168Y-17317095D01*
X4400311Y-17317095D02*
X4400311Y-17117095D01*
X4400311Y-17117095D02*
X4381264Y-17145666D01*
X4381264Y-17145666D02*
X4362216Y-17164714D01*
X4362216Y-17164714D02*
X4343168Y-17174238D01*
X4543168Y-17298047D02*
X4552692Y-17307571D01*
X4552692Y-17307571D02*
X4543168Y-17317095D01*
X4543168Y-17317095D02*
X4533645Y-17307571D01*
X4533645Y-17307571D02*
X4543168Y-17298047D01*
X4543168Y-17298047D02*
X4543168Y-17317095D01*
X4619359Y-17117095D02*
X4743168Y-17117095D01*
X4743168Y-17117095D02*
X4676502Y-17193285D01*
X4676502Y-17193285D02*
X4705073Y-17193285D01*
X4705073Y-17193285D02*
X4724121Y-17202809D01*
X4724121Y-17202809D02*
X4733645Y-17212333D01*
X4733645Y-17212333D02*
X4743168Y-17231381D01*
X4743168Y-17231381D02*
X4743168Y-17279000D01*
X4743168Y-17279000D02*
X4733645Y-17298047D01*
X4733645Y-17298047D02*
X4724121Y-17307571D01*
X4724121Y-17307571D02*
X4705073Y-17317095D01*
X4705073Y-17317095D02*
X4647930Y-17317095D01*
X4647930Y-17317095D02*
X4628883Y-17307571D01*
X4628883Y-17307571D02*
X4619359Y-17298047D01*
X4866978Y-17117095D02*
X4886026Y-17117095D01*
X4886026Y-17117095D02*
X4905073Y-17126619D01*
X4905073Y-17126619D02*
X4914597Y-17136142D01*
X4914597Y-17136142D02*
X4924121Y-17155190D01*
X4924121Y-17155190D02*
X4933645Y-17193285D01*
X4933645Y-17193285D02*
X4933645Y-17240904D01*
X4933645Y-17240904D02*
X4924121Y-17279000D01*
X4924121Y-17279000D02*
X4914597Y-17298047D01*
X4914597Y-17298047D02*
X4905073Y-17307571D01*
X4905073Y-17307571D02*
X4886026Y-17317095D01*
X4886026Y-17317095D02*
X4866978Y-17317095D01*
X4866978Y-17317095D02*
X4847930Y-17307571D01*
X4847930Y-17307571D02*
X4838406Y-17298047D01*
X4838406Y-17298047D02*
X4828883Y-17279000D01*
X4828883Y-17279000D02*
X4819359Y-17240904D01*
X4819359Y-17240904D02*
X4819359Y-17193285D01*
X4819359Y-17193285D02*
X4828883Y-17155190D01*
X4828883Y-17155190D02*
X4838406Y-17136142D01*
X4838406Y-17136142D02*
X4847930Y-17126619D01*
X4847930Y-17126619D02*
X4866978Y-17117095D01*
X5057454Y-17117095D02*
X5076502Y-17117095D01*
X5076502Y-17117095D02*
X5095549Y-17126619D01*
X5095549Y-17126619D02*
X5105073Y-17136142D01*
X5105073Y-17136142D02*
X5114597Y-17155190D01*
X5114597Y-17155190D02*
X5124121Y-17193285D01*
X5124121Y-17193285D02*
X5124121Y-17240904D01*
X5124121Y-17240904D02*
X5114597Y-17279000D01*
X5114597Y-17279000D02*
X5105073Y-17298047D01*
X5105073Y-17298047D02*
X5095549Y-17307571D01*
X5095549Y-17307571D02*
X5076502Y-17317095D01*
X5076502Y-17317095D02*
X5057454Y-17317095D01*
X5057454Y-17317095D02*
X5038406Y-17307571D01*
X5038406Y-17307571D02*
X5028883Y-17298047D01*
X5028883Y-17298047D02*
X5019359Y-17279000D01*
X5019359Y-17279000D02*
X5009835Y-17240904D01*
X5009835Y-17240904D02*
X5009835Y-17193285D01*
X5009835Y-17193285D02*
X5019359Y-17155190D01*
X5019359Y-17155190D02*
X5028883Y-17136142D01*
X5028883Y-17136142D02*
X5038406Y-17126619D01*
X5038406Y-17126619D02*
X5057454Y-17117095D01*
X5209835Y-17317095D02*
X5209835Y-17183761D01*
X5209835Y-17202809D02*
X5219359Y-17193285D01*
X5219359Y-17193285D02*
X5238406Y-17183761D01*
X5238406Y-17183761D02*
X5266978Y-17183761D01*
X5266978Y-17183761D02*
X5286026Y-17193285D01*
X5286026Y-17193285D02*
X5295549Y-17212333D01*
X5295549Y-17212333D02*
X5295549Y-17317095D01*
X5295549Y-17212333D02*
X5305073Y-17193285D01*
X5305073Y-17193285D02*
X5324121Y-17183761D01*
X5324121Y-17183761D02*
X5352692Y-17183761D01*
X5352692Y-17183761D02*
X5371740Y-17193285D01*
X5371740Y-17193285D02*
X5381264Y-17212333D01*
X5381264Y-17212333D02*
X5381264Y-17317095D01*
X5476502Y-17317095D02*
X5476502Y-17183761D01*
X5476502Y-17202809D02*
X5486026Y-17193285D01*
X5486026Y-17193285D02*
X5505073Y-17183761D01*
X5505073Y-17183761D02*
X5533645Y-17183761D01*
X5533645Y-17183761D02*
X5552692Y-17193285D01*
X5552692Y-17193285D02*
X5562216Y-17212333D01*
X5562216Y-17212333D02*
X5562216Y-17317095D01*
X5562216Y-17212333D02*
X5571740Y-17193285D01*
X5571740Y-17193285D02*
X5590787Y-17183761D01*
X5590787Y-17183761D02*
X5619359Y-17183761D01*
X5619359Y-17183761D02*
X5638406Y-17193285D01*
X5638406Y-17193285D02*
X5647930Y-17212333D01*
X5647930Y-17212333D02*
X5647930Y-17317095D01*
X6038406Y-17107571D02*
X5866978Y-17364714D01*
X6295549Y-17117095D02*
X6314597Y-17117095D01*
X6314597Y-17117095D02*
X6333645Y-17126619D01*
X6333645Y-17126619D02*
X6343168Y-17136142D01*
X6343168Y-17136142D02*
X6352692Y-17155190D01*
X6352692Y-17155190D02*
X6362216Y-17193285D01*
X6362216Y-17193285D02*
X6362216Y-17240904D01*
X6362216Y-17240904D02*
X6352692Y-17279000D01*
X6352692Y-17279000D02*
X6343168Y-17298047D01*
X6343168Y-17298047D02*
X6333645Y-17307571D01*
X6333645Y-17307571D02*
X6314597Y-17317095D01*
X6314597Y-17317095D02*
X6295549Y-17317095D01*
X6295549Y-17317095D02*
X6276502Y-17307571D01*
X6276502Y-17307571D02*
X6266978Y-17298047D01*
X6266978Y-17298047D02*
X6257454Y-17279000D01*
X6257454Y-17279000D02*
X6247930Y-17240904D01*
X6247930Y-17240904D02*
X6247930Y-17193285D01*
X6247930Y-17193285D02*
X6257454Y-17155190D01*
X6257454Y-17155190D02*
X6266978Y-17136142D01*
X6266978Y-17136142D02*
X6276502Y-17126619D01*
X6276502Y-17126619D02*
X6295549Y-17117095D01*
X6447930Y-17298047D02*
X6457454Y-17307571D01*
X6457454Y-17307571D02*
X6447930Y-17317095D01*
X6447930Y-17317095D02*
X6438407Y-17307571D01*
X6438407Y-17307571D02*
X6447930Y-17298047D01*
X6447930Y-17298047D02*
X6447930Y-17317095D01*
X6581264Y-17117095D02*
X6600311Y-17117095D01*
X6600311Y-17117095D02*
X6619359Y-17126619D01*
X6619359Y-17126619D02*
X6628883Y-17136142D01*
X6628883Y-17136142D02*
X6638407Y-17155190D01*
X6638407Y-17155190D02*
X6647930Y-17193285D01*
X6647930Y-17193285D02*
X6647930Y-17240904D01*
X6647930Y-17240904D02*
X6638407Y-17279000D01*
X6638407Y-17279000D02*
X6628883Y-17298047D01*
X6628883Y-17298047D02*
X6619359Y-17307571D01*
X6619359Y-17307571D02*
X6600311Y-17317095D01*
X6600311Y-17317095D02*
X6581264Y-17317095D01*
X6581264Y-17317095D02*
X6562216Y-17307571D01*
X6562216Y-17307571D02*
X6552692Y-17298047D01*
X6552692Y-17298047D02*
X6543168Y-17279000D01*
X6543168Y-17279000D02*
X6533645Y-17240904D01*
X6533645Y-17240904D02*
X6533645Y-17193285D01*
X6533645Y-17193285D02*
X6543168Y-17155190D01*
X6543168Y-17155190D02*
X6552692Y-17136142D01*
X6552692Y-17136142D02*
X6562216Y-17126619D01*
X6562216Y-17126619D02*
X6581264Y-17117095D01*
X6828883Y-17117095D02*
X6733645Y-17117095D01*
X6733645Y-17117095D02*
X6724121Y-17212333D01*
X6724121Y-17212333D02*
X6733645Y-17202809D01*
X6733645Y-17202809D02*
X6752692Y-17193285D01*
X6752692Y-17193285D02*
X6800311Y-17193285D01*
X6800311Y-17193285D02*
X6819359Y-17202809D01*
X6819359Y-17202809D02*
X6828883Y-17212333D01*
X6828883Y-17212333D02*
X6838407Y-17231381D01*
X6838407Y-17231381D02*
X6838407Y-17279000D01*
X6838407Y-17279000D02*
X6828883Y-17298047D01*
X6828883Y-17298047D02*
X6819359Y-17307571D01*
X6819359Y-17307571D02*
X6800311Y-17317095D01*
X6800311Y-17317095D02*
X6752692Y-17317095D01*
X6752692Y-17317095D02*
X6733645Y-17307571D01*
X6733645Y-17307571D02*
X6724121Y-17298047D01*
X7028883Y-17317095D02*
X6914597Y-17317095D01*
X6971740Y-17317095D02*
X6971740Y-17117095D01*
X6971740Y-17117095D02*
X6952692Y-17145666D01*
X6952692Y-17145666D02*
X6933645Y-17164714D01*
X6933645Y-17164714D02*
X6914597Y-17174238D01*
X7105073Y-17136142D02*
X7114597Y-17126619D01*
X7114597Y-17126619D02*
X7133645Y-17117095D01*
X7133645Y-17117095D02*
X7181264Y-17117095D01*
X7181264Y-17117095D02*
X7200311Y-17126619D01*
X7200311Y-17126619D02*
X7209835Y-17136142D01*
X7209835Y-17136142D02*
X7219359Y-17155190D01*
X7219359Y-17155190D02*
X7219359Y-17174238D01*
X7219359Y-17174238D02*
X7209835Y-17202809D01*
X7209835Y-17202809D02*
X7095549Y-17317095D01*
X7095549Y-17317095D02*
X7219359Y-17317095D01*
X7295549Y-17117095D02*
X7295549Y-17155190D01*
X7371740Y-17117095D02*
X7371740Y-17155190D01*
X7666978Y-17393285D02*
X7657454Y-17383761D01*
X7657454Y-17383761D02*
X7638407Y-17355190D01*
X7638407Y-17355190D02*
X7628883Y-17336142D01*
X7628883Y-17336142D02*
X7619359Y-17307571D01*
X7619359Y-17307571D02*
X7609835Y-17259952D01*
X7609835Y-17259952D02*
X7609835Y-17221857D01*
X7609835Y-17221857D02*
X7619359Y-17174238D01*
X7619359Y-17174238D02*
X7628883Y-17145666D01*
X7628883Y-17145666D02*
X7638407Y-17126619D01*
X7638407Y-17126619D02*
X7657454Y-17098047D01*
X7657454Y-17098047D02*
X7666978Y-17088523D01*
X7733645Y-17136142D02*
X7743169Y-17126619D01*
X7743169Y-17126619D02*
X7762216Y-17117095D01*
X7762216Y-17117095D02*
X7809835Y-17117095D01*
X7809835Y-17117095D02*
X7828883Y-17126619D01*
X7828883Y-17126619D02*
X7838407Y-17136142D01*
X7838407Y-17136142D02*
X7847930Y-17155190D01*
X7847930Y-17155190D02*
X7847930Y-17174238D01*
X7847930Y-17174238D02*
X7838407Y-17202809D01*
X7838407Y-17202809D02*
X7724121Y-17317095D01*
X7724121Y-17317095D02*
X7847930Y-17317095D01*
X8086026Y-17317095D02*
X8086026Y-17117095D01*
X8171740Y-17317095D02*
X8171740Y-17212333D01*
X8171740Y-17212333D02*
X8162216Y-17193285D01*
X8162216Y-17193285D02*
X8143169Y-17183761D01*
X8143169Y-17183761D02*
X8114597Y-17183761D01*
X8114597Y-17183761D02*
X8095550Y-17193285D01*
X8095550Y-17193285D02*
X8086026Y-17202809D01*
X8295550Y-17317095D02*
X8276502Y-17307571D01*
X8276502Y-17307571D02*
X8266978Y-17298047D01*
X8266978Y-17298047D02*
X8257454Y-17279000D01*
X8257454Y-17279000D02*
X8257454Y-17221857D01*
X8257454Y-17221857D02*
X8266978Y-17202809D01*
X8266978Y-17202809D02*
X8276502Y-17193285D01*
X8276502Y-17193285D02*
X8295550Y-17183761D01*
X8295550Y-17183761D02*
X8324121Y-17183761D01*
X8324121Y-17183761D02*
X8343169Y-17193285D01*
X8343169Y-17193285D02*
X8352692Y-17202809D01*
X8352692Y-17202809D02*
X8362216Y-17221857D01*
X8362216Y-17221857D02*
X8362216Y-17279000D01*
X8362216Y-17279000D02*
X8352692Y-17298047D01*
X8352692Y-17298047D02*
X8343169Y-17307571D01*
X8343169Y-17307571D02*
X8324121Y-17317095D01*
X8324121Y-17317095D02*
X8295550Y-17317095D01*
X8476502Y-17317095D02*
X8457454Y-17307571D01*
X8457454Y-17307571D02*
X8447931Y-17288523D01*
X8447931Y-17288523D02*
X8447931Y-17117095D01*
X8628883Y-17307571D02*
X8609835Y-17317095D01*
X8609835Y-17317095D02*
X8571740Y-17317095D01*
X8571740Y-17317095D02*
X8552693Y-17307571D01*
X8552693Y-17307571D02*
X8543169Y-17288523D01*
X8543169Y-17288523D02*
X8543169Y-17212333D01*
X8543169Y-17212333D02*
X8552693Y-17193285D01*
X8552693Y-17193285D02*
X8571740Y-17183761D01*
X8571740Y-17183761D02*
X8609835Y-17183761D01*
X8609835Y-17183761D02*
X8628883Y-17193285D01*
X8628883Y-17193285D02*
X8638407Y-17212333D01*
X8638407Y-17212333D02*
X8638407Y-17231381D01*
X8638407Y-17231381D02*
X8543169Y-17250428D01*
X8714597Y-17307571D02*
X8733645Y-17317095D01*
X8733645Y-17317095D02*
X8771740Y-17317095D01*
X8771740Y-17317095D02*
X8790788Y-17307571D01*
X8790788Y-17307571D02*
X8800312Y-17288523D01*
X8800312Y-17288523D02*
X8800312Y-17279000D01*
X8800312Y-17279000D02*
X8790788Y-17259952D01*
X8790788Y-17259952D02*
X8771740Y-17250428D01*
X8771740Y-17250428D02*
X8743169Y-17250428D01*
X8743169Y-17250428D02*
X8724121Y-17240904D01*
X8724121Y-17240904D02*
X8714597Y-17221857D01*
X8714597Y-17221857D02*
X8714597Y-17212333D01*
X8714597Y-17212333D02*
X8724121Y-17193285D01*
X8724121Y-17193285D02*
X8743169Y-17183761D01*
X8743169Y-17183761D02*
X8771740Y-17183761D01*
X8771740Y-17183761D02*
X8790788Y-17193285D01*
X8866978Y-17393285D02*
X8876502Y-17383761D01*
X8876502Y-17383761D02*
X8895550Y-17355190D01*
X8895550Y-17355190D02*
X8905074Y-17336142D01*
X8905074Y-17336142D02*
X8914597Y-17307571D01*
X8914597Y-17307571D02*
X8924121Y-17259952D01*
X8924121Y-17259952D02*
X8924121Y-17221857D01*
X8924121Y-17221857D02*
X8914597Y-17174238D01*
X8914597Y-17174238D02*
X8905074Y-17145666D01*
X8905074Y-17145666D02*
X8895550Y-17126619D01*
X8895550Y-17126619D02*
X8876502Y-17098047D01*
X8876502Y-17098047D02*
X8866978Y-17088523D01*
D14*
X3931915Y-17409611D02*
X4091915Y-17569611D01*
X4091915Y-17409611D02*
X3931915Y-17569611D01*
X4091915Y-17489611D02*
G75*
G02*
X3931915Y-17489611I-80000J0D01*
G01*
X3931915Y-17489611D02*
G75*
G02*
X4091915Y-17489611I80000J0D01*
G01*
D11*
X4457454Y-17581095D02*
X4343168Y-17581095D01*
X4400311Y-17581095D02*
X4400311Y-17381095D01*
X4400311Y-17381095D02*
X4381264Y-17409666D01*
X4381264Y-17409666D02*
X4362216Y-17428714D01*
X4362216Y-17428714D02*
X4343168Y-17438238D01*
X4543168Y-17562047D02*
X4552692Y-17571571D01*
X4552692Y-17571571D02*
X4543168Y-17581095D01*
X4543168Y-17581095D02*
X4533645Y-17571571D01*
X4533645Y-17571571D02*
X4543168Y-17562047D01*
X4543168Y-17562047D02*
X4543168Y-17581095D01*
X4724121Y-17381095D02*
X4686025Y-17381095D01*
X4686025Y-17381095D02*
X4666978Y-17390619D01*
X4666978Y-17390619D02*
X4657454Y-17400142D01*
X4657454Y-17400142D02*
X4638406Y-17428714D01*
X4638406Y-17428714D02*
X4628883Y-17466809D01*
X4628883Y-17466809D02*
X4628883Y-17543000D01*
X4628883Y-17543000D02*
X4638406Y-17562047D01*
X4638406Y-17562047D02*
X4647930Y-17571571D01*
X4647930Y-17571571D02*
X4666978Y-17581095D01*
X4666978Y-17581095D02*
X4705073Y-17581095D01*
X4705073Y-17581095D02*
X4724121Y-17571571D01*
X4724121Y-17571571D02*
X4733645Y-17562047D01*
X4733645Y-17562047D02*
X4743168Y-17543000D01*
X4743168Y-17543000D02*
X4743168Y-17495381D01*
X4743168Y-17495381D02*
X4733645Y-17476333D01*
X4733645Y-17476333D02*
X4724121Y-17466809D01*
X4724121Y-17466809D02*
X4705073Y-17457285D01*
X4705073Y-17457285D02*
X4666978Y-17457285D01*
X4666978Y-17457285D02*
X4647930Y-17466809D01*
X4647930Y-17466809D02*
X4638406Y-17476333D01*
X4638406Y-17476333D02*
X4628883Y-17495381D01*
X4866978Y-17381095D02*
X4886026Y-17381095D01*
X4886026Y-17381095D02*
X4905073Y-17390619D01*
X4905073Y-17390619D02*
X4914597Y-17400142D01*
X4914597Y-17400142D02*
X4924121Y-17419190D01*
X4924121Y-17419190D02*
X4933645Y-17457285D01*
X4933645Y-17457285D02*
X4933645Y-17504904D01*
X4933645Y-17504904D02*
X4924121Y-17543000D01*
X4924121Y-17543000D02*
X4914597Y-17562047D01*
X4914597Y-17562047D02*
X4905073Y-17571571D01*
X4905073Y-17571571D02*
X4886026Y-17581095D01*
X4886026Y-17581095D02*
X4866978Y-17581095D01*
X4866978Y-17581095D02*
X4847930Y-17571571D01*
X4847930Y-17571571D02*
X4838406Y-17562047D01*
X4838406Y-17562047D02*
X4828883Y-17543000D01*
X4828883Y-17543000D02*
X4819359Y-17504904D01*
X4819359Y-17504904D02*
X4819359Y-17457285D01*
X4819359Y-17457285D02*
X4828883Y-17419190D01*
X4828883Y-17419190D02*
X4838406Y-17400142D01*
X4838406Y-17400142D02*
X4847930Y-17390619D01*
X4847930Y-17390619D02*
X4866978Y-17381095D01*
X5057454Y-17381095D02*
X5076502Y-17381095D01*
X5076502Y-17381095D02*
X5095549Y-17390619D01*
X5095549Y-17390619D02*
X5105073Y-17400142D01*
X5105073Y-17400142D02*
X5114597Y-17419190D01*
X5114597Y-17419190D02*
X5124121Y-17457285D01*
X5124121Y-17457285D02*
X5124121Y-17504904D01*
X5124121Y-17504904D02*
X5114597Y-17543000D01*
X5114597Y-17543000D02*
X5105073Y-17562047D01*
X5105073Y-17562047D02*
X5095549Y-17571571D01*
X5095549Y-17571571D02*
X5076502Y-17581095D01*
X5076502Y-17581095D02*
X5057454Y-17581095D01*
X5057454Y-17581095D02*
X5038406Y-17571571D01*
X5038406Y-17571571D02*
X5028883Y-17562047D01*
X5028883Y-17562047D02*
X5019359Y-17543000D01*
X5019359Y-17543000D02*
X5009835Y-17504904D01*
X5009835Y-17504904D02*
X5009835Y-17457285D01*
X5009835Y-17457285D02*
X5019359Y-17419190D01*
X5019359Y-17419190D02*
X5028883Y-17400142D01*
X5028883Y-17400142D02*
X5038406Y-17390619D01*
X5038406Y-17390619D02*
X5057454Y-17381095D01*
X5209835Y-17581095D02*
X5209835Y-17447761D01*
X5209835Y-17466809D02*
X5219359Y-17457285D01*
X5219359Y-17457285D02*
X5238406Y-17447761D01*
X5238406Y-17447761D02*
X5266978Y-17447761D01*
X5266978Y-17447761D02*
X5286026Y-17457285D01*
X5286026Y-17457285D02*
X5295549Y-17476333D01*
X5295549Y-17476333D02*
X5295549Y-17581095D01*
X5295549Y-17476333D02*
X5305073Y-17457285D01*
X5305073Y-17457285D02*
X5324121Y-17447761D01*
X5324121Y-17447761D02*
X5352692Y-17447761D01*
X5352692Y-17447761D02*
X5371740Y-17457285D01*
X5371740Y-17457285D02*
X5381264Y-17476333D01*
X5381264Y-17476333D02*
X5381264Y-17581095D01*
X5476502Y-17581095D02*
X5476502Y-17447761D01*
X5476502Y-17466809D02*
X5486026Y-17457285D01*
X5486026Y-17457285D02*
X5505073Y-17447761D01*
X5505073Y-17447761D02*
X5533645Y-17447761D01*
X5533645Y-17447761D02*
X5552692Y-17457285D01*
X5552692Y-17457285D02*
X5562216Y-17476333D01*
X5562216Y-17476333D02*
X5562216Y-17581095D01*
X5562216Y-17476333D02*
X5571740Y-17457285D01*
X5571740Y-17457285D02*
X5590787Y-17447761D01*
X5590787Y-17447761D02*
X5619359Y-17447761D01*
X5619359Y-17447761D02*
X5638406Y-17457285D01*
X5638406Y-17457285D02*
X5647930Y-17476333D01*
X5647930Y-17476333D02*
X5647930Y-17581095D01*
X6038406Y-17371571D02*
X5866978Y-17628714D01*
X6295549Y-17381095D02*
X6314597Y-17381095D01*
X6314597Y-17381095D02*
X6333645Y-17390619D01*
X6333645Y-17390619D02*
X6343168Y-17400142D01*
X6343168Y-17400142D02*
X6352692Y-17419190D01*
X6352692Y-17419190D02*
X6362216Y-17457285D01*
X6362216Y-17457285D02*
X6362216Y-17504904D01*
X6362216Y-17504904D02*
X6352692Y-17543000D01*
X6352692Y-17543000D02*
X6343168Y-17562047D01*
X6343168Y-17562047D02*
X6333645Y-17571571D01*
X6333645Y-17571571D02*
X6314597Y-17581095D01*
X6314597Y-17581095D02*
X6295549Y-17581095D01*
X6295549Y-17581095D02*
X6276502Y-17571571D01*
X6276502Y-17571571D02*
X6266978Y-17562047D01*
X6266978Y-17562047D02*
X6257454Y-17543000D01*
X6257454Y-17543000D02*
X6247930Y-17504904D01*
X6247930Y-17504904D02*
X6247930Y-17457285D01*
X6247930Y-17457285D02*
X6257454Y-17419190D01*
X6257454Y-17419190D02*
X6266978Y-17400142D01*
X6266978Y-17400142D02*
X6276502Y-17390619D01*
X6276502Y-17390619D02*
X6295549Y-17381095D01*
X6447930Y-17562047D02*
X6457454Y-17571571D01*
X6457454Y-17571571D02*
X6447930Y-17581095D01*
X6447930Y-17581095D02*
X6438407Y-17571571D01*
X6438407Y-17571571D02*
X6447930Y-17562047D01*
X6447930Y-17562047D02*
X6447930Y-17581095D01*
X6581264Y-17381095D02*
X6600311Y-17381095D01*
X6600311Y-17381095D02*
X6619359Y-17390619D01*
X6619359Y-17390619D02*
X6628883Y-17400142D01*
X6628883Y-17400142D02*
X6638407Y-17419190D01*
X6638407Y-17419190D02*
X6647930Y-17457285D01*
X6647930Y-17457285D02*
X6647930Y-17504904D01*
X6647930Y-17504904D02*
X6638407Y-17543000D01*
X6638407Y-17543000D02*
X6628883Y-17562047D01*
X6628883Y-17562047D02*
X6619359Y-17571571D01*
X6619359Y-17571571D02*
X6600311Y-17581095D01*
X6600311Y-17581095D02*
X6581264Y-17581095D01*
X6581264Y-17581095D02*
X6562216Y-17571571D01*
X6562216Y-17571571D02*
X6552692Y-17562047D01*
X6552692Y-17562047D02*
X6543168Y-17543000D01*
X6543168Y-17543000D02*
X6533645Y-17504904D01*
X6533645Y-17504904D02*
X6533645Y-17457285D01*
X6533645Y-17457285D02*
X6543168Y-17419190D01*
X6543168Y-17419190D02*
X6552692Y-17400142D01*
X6552692Y-17400142D02*
X6562216Y-17390619D01*
X6562216Y-17390619D02*
X6581264Y-17381095D01*
X6819359Y-17381095D02*
X6781264Y-17381095D01*
X6781264Y-17381095D02*
X6762216Y-17390619D01*
X6762216Y-17390619D02*
X6752692Y-17400142D01*
X6752692Y-17400142D02*
X6733645Y-17428714D01*
X6733645Y-17428714D02*
X6724121Y-17466809D01*
X6724121Y-17466809D02*
X6724121Y-17543000D01*
X6724121Y-17543000D02*
X6733645Y-17562047D01*
X6733645Y-17562047D02*
X6743168Y-17571571D01*
X6743168Y-17571571D02*
X6762216Y-17581095D01*
X6762216Y-17581095D02*
X6800311Y-17581095D01*
X6800311Y-17581095D02*
X6819359Y-17571571D01*
X6819359Y-17571571D02*
X6828883Y-17562047D01*
X6828883Y-17562047D02*
X6838407Y-17543000D01*
X6838407Y-17543000D02*
X6838407Y-17495381D01*
X6838407Y-17495381D02*
X6828883Y-17476333D01*
X6828883Y-17476333D02*
X6819359Y-17466809D01*
X6819359Y-17466809D02*
X6800311Y-17457285D01*
X6800311Y-17457285D02*
X6762216Y-17457285D01*
X6762216Y-17457285D02*
X6743168Y-17466809D01*
X6743168Y-17466809D02*
X6733645Y-17476333D01*
X6733645Y-17476333D02*
X6724121Y-17495381D01*
X6905073Y-17381095D02*
X7028883Y-17381095D01*
X7028883Y-17381095D02*
X6962216Y-17457285D01*
X6962216Y-17457285D02*
X6990788Y-17457285D01*
X6990788Y-17457285D02*
X7009835Y-17466809D01*
X7009835Y-17466809D02*
X7019359Y-17476333D01*
X7019359Y-17476333D02*
X7028883Y-17495381D01*
X7028883Y-17495381D02*
X7028883Y-17543000D01*
X7028883Y-17543000D02*
X7019359Y-17562047D01*
X7019359Y-17562047D02*
X7009835Y-17571571D01*
X7009835Y-17571571D02*
X6990788Y-17581095D01*
X6990788Y-17581095D02*
X6933645Y-17581095D01*
X6933645Y-17581095D02*
X6914597Y-17571571D01*
X6914597Y-17571571D02*
X6905073Y-17562047D01*
X7152692Y-17381095D02*
X7171740Y-17381095D01*
X7171740Y-17381095D02*
X7190788Y-17390619D01*
X7190788Y-17390619D02*
X7200311Y-17400142D01*
X7200311Y-17400142D02*
X7209835Y-17419190D01*
X7209835Y-17419190D02*
X7219359Y-17457285D01*
X7219359Y-17457285D02*
X7219359Y-17504904D01*
X7219359Y-17504904D02*
X7209835Y-17543000D01*
X7209835Y-17543000D02*
X7200311Y-17562047D01*
X7200311Y-17562047D02*
X7190788Y-17571571D01*
X7190788Y-17571571D02*
X7171740Y-17581095D01*
X7171740Y-17581095D02*
X7152692Y-17581095D01*
X7152692Y-17581095D02*
X7133645Y-17571571D01*
X7133645Y-17571571D02*
X7124121Y-17562047D01*
X7124121Y-17562047D02*
X7114597Y-17543000D01*
X7114597Y-17543000D02*
X7105073Y-17504904D01*
X7105073Y-17504904D02*
X7105073Y-17457285D01*
X7105073Y-17457285D02*
X7114597Y-17419190D01*
X7114597Y-17419190D02*
X7124121Y-17400142D01*
X7124121Y-17400142D02*
X7133645Y-17390619D01*
X7133645Y-17390619D02*
X7152692Y-17381095D01*
X7295549Y-17381095D02*
X7295549Y-17419190D01*
X7371740Y-17381095D02*
X7371740Y-17419190D01*
X7666978Y-17657285D02*
X7657454Y-17647761D01*
X7657454Y-17647761D02*
X7638407Y-17619190D01*
X7638407Y-17619190D02*
X7628883Y-17600142D01*
X7628883Y-17600142D02*
X7619359Y-17571571D01*
X7619359Y-17571571D02*
X7609835Y-17523952D01*
X7609835Y-17523952D02*
X7609835Y-17485857D01*
X7609835Y-17485857D02*
X7619359Y-17438238D01*
X7619359Y-17438238D02*
X7628883Y-17409666D01*
X7628883Y-17409666D02*
X7638407Y-17390619D01*
X7638407Y-17390619D02*
X7657454Y-17362047D01*
X7657454Y-17362047D02*
X7666978Y-17352523D01*
X7838407Y-17381095D02*
X7743169Y-17381095D01*
X7743169Y-17381095D02*
X7733645Y-17476333D01*
X7733645Y-17476333D02*
X7743169Y-17466809D01*
X7743169Y-17466809D02*
X7762216Y-17457285D01*
X7762216Y-17457285D02*
X7809835Y-17457285D01*
X7809835Y-17457285D02*
X7828883Y-17466809D01*
X7828883Y-17466809D02*
X7838407Y-17476333D01*
X7838407Y-17476333D02*
X7847930Y-17495381D01*
X7847930Y-17495381D02*
X7847930Y-17543000D01*
X7847930Y-17543000D02*
X7838407Y-17562047D01*
X7838407Y-17562047D02*
X7828883Y-17571571D01*
X7828883Y-17571571D02*
X7809835Y-17581095D01*
X7809835Y-17581095D02*
X7762216Y-17581095D01*
X7762216Y-17581095D02*
X7743169Y-17571571D01*
X7743169Y-17571571D02*
X7733645Y-17562047D01*
X7971740Y-17381095D02*
X7990788Y-17381095D01*
X7990788Y-17381095D02*
X8009835Y-17390619D01*
X8009835Y-17390619D02*
X8019359Y-17400142D01*
X8019359Y-17400142D02*
X8028883Y-17419190D01*
X8028883Y-17419190D02*
X8038407Y-17457285D01*
X8038407Y-17457285D02*
X8038407Y-17504904D01*
X8038407Y-17504904D02*
X8028883Y-17543000D01*
X8028883Y-17543000D02*
X8019359Y-17562047D01*
X8019359Y-17562047D02*
X8009835Y-17571571D01*
X8009835Y-17571571D02*
X7990788Y-17581095D01*
X7990788Y-17581095D02*
X7971740Y-17581095D01*
X7971740Y-17581095D02*
X7952692Y-17571571D01*
X7952692Y-17571571D02*
X7943169Y-17562047D01*
X7943169Y-17562047D02*
X7933645Y-17543000D01*
X7933645Y-17543000D02*
X7924121Y-17504904D01*
X7924121Y-17504904D02*
X7924121Y-17457285D01*
X7924121Y-17457285D02*
X7933645Y-17419190D01*
X7933645Y-17419190D02*
X7943169Y-17400142D01*
X7943169Y-17400142D02*
X7952692Y-17390619D01*
X7952692Y-17390619D02*
X7971740Y-17381095D01*
X8276502Y-17581095D02*
X8276502Y-17381095D01*
X8362216Y-17581095D02*
X8362216Y-17476333D01*
X8362216Y-17476333D02*
X8352692Y-17457285D01*
X8352692Y-17457285D02*
X8333645Y-17447761D01*
X8333645Y-17447761D02*
X8305073Y-17447761D01*
X8305073Y-17447761D02*
X8286026Y-17457285D01*
X8286026Y-17457285D02*
X8276502Y-17466809D01*
X8486026Y-17581095D02*
X8466978Y-17571571D01*
X8466978Y-17571571D02*
X8457454Y-17562047D01*
X8457454Y-17562047D02*
X8447931Y-17543000D01*
X8447931Y-17543000D02*
X8447931Y-17485857D01*
X8447931Y-17485857D02*
X8457454Y-17466809D01*
X8457454Y-17466809D02*
X8466978Y-17457285D01*
X8466978Y-17457285D02*
X8486026Y-17447761D01*
X8486026Y-17447761D02*
X8514597Y-17447761D01*
X8514597Y-17447761D02*
X8533645Y-17457285D01*
X8533645Y-17457285D02*
X8543169Y-17466809D01*
X8543169Y-17466809D02*
X8552693Y-17485857D01*
X8552693Y-17485857D02*
X8552693Y-17543000D01*
X8552693Y-17543000D02*
X8543169Y-17562047D01*
X8543169Y-17562047D02*
X8533645Y-17571571D01*
X8533645Y-17571571D02*
X8514597Y-17581095D01*
X8514597Y-17581095D02*
X8486026Y-17581095D01*
X8666978Y-17581095D02*
X8647931Y-17571571D01*
X8647931Y-17571571D02*
X8638407Y-17552523D01*
X8638407Y-17552523D02*
X8638407Y-17381095D01*
X8819359Y-17571571D02*
X8800312Y-17581095D01*
X8800312Y-17581095D02*
X8762216Y-17581095D01*
X8762216Y-17581095D02*
X8743169Y-17571571D01*
X8743169Y-17571571D02*
X8733645Y-17552523D01*
X8733645Y-17552523D02*
X8733645Y-17476333D01*
X8733645Y-17476333D02*
X8743169Y-17457285D01*
X8743169Y-17457285D02*
X8762216Y-17447761D01*
X8762216Y-17447761D02*
X8800312Y-17447761D01*
X8800312Y-17447761D02*
X8819359Y-17457285D01*
X8819359Y-17457285D02*
X8828883Y-17476333D01*
X8828883Y-17476333D02*
X8828883Y-17495381D01*
X8828883Y-17495381D02*
X8733645Y-17514428D01*
X8905074Y-17571571D02*
X8924121Y-17581095D01*
X8924121Y-17581095D02*
X8962216Y-17581095D01*
X8962216Y-17581095D02*
X8981264Y-17571571D01*
X8981264Y-17571571D02*
X8990788Y-17552523D01*
X8990788Y-17552523D02*
X8990788Y-17543000D01*
X8990788Y-17543000D02*
X8981264Y-17523952D01*
X8981264Y-17523952D02*
X8962216Y-17514428D01*
X8962216Y-17514428D02*
X8933645Y-17514428D01*
X8933645Y-17514428D02*
X8914597Y-17504904D01*
X8914597Y-17504904D02*
X8905074Y-17485857D01*
X8905074Y-17485857D02*
X8905074Y-17476333D01*
X8905074Y-17476333D02*
X8914597Y-17457285D01*
X8914597Y-17457285D02*
X8933645Y-17447761D01*
X8933645Y-17447761D02*
X8962216Y-17447761D01*
X8962216Y-17447761D02*
X8981264Y-17457285D01*
X9057455Y-17657285D02*
X9066978Y-17647761D01*
X9066978Y-17647761D02*
X9086026Y-17619190D01*
X9086026Y-17619190D02*
X9095550Y-17600142D01*
X9095550Y-17600142D02*
X9105074Y-17571571D01*
X9105074Y-17571571D02*
X9114597Y-17523952D01*
X9114597Y-17523952D02*
X9114597Y-17485857D01*
X9114597Y-17485857D02*
X9105074Y-17438238D01*
X9105074Y-17438238D02*
X9095550Y-17409666D01*
X9095550Y-17409666D02*
X9086026Y-17390619D01*
X9086026Y-17390619D02*
X9066978Y-17362047D01*
X9066978Y-17362047D02*
X9057455Y-17352523D01*
X3891915Y-17669611D02*
X4091915Y-17869611D01*
X4091915Y-17669611D02*
X3891915Y-17869611D01*
X3991915Y-17669611D02*
X3991915Y-17869611D01*
X3891915Y-17769611D02*
X4091915Y-17769611D01*
X4333645Y-17661095D02*
X4457454Y-17661095D01*
X4457454Y-17661095D02*
X4390787Y-17737285D01*
X4390787Y-17737285D02*
X4419359Y-17737285D01*
X4419359Y-17737285D02*
X4438406Y-17746809D01*
X4438406Y-17746809D02*
X4447930Y-17756333D01*
X4447930Y-17756333D02*
X4457454Y-17775381D01*
X4457454Y-17775381D02*
X4457454Y-17823000D01*
X4457454Y-17823000D02*
X4447930Y-17842047D01*
X4447930Y-17842047D02*
X4438406Y-17851571D01*
X4438406Y-17851571D02*
X4419359Y-17861095D01*
X4419359Y-17861095D02*
X4362216Y-17861095D01*
X4362216Y-17861095D02*
X4343168Y-17851571D01*
X4343168Y-17851571D02*
X4333645Y-17842047D01*
X4543168Y-17842047D02*
X4552692Y-17851571D01*
X4552692Y-17851571D02*
X4543168Y-17861095D01*
X4543168Y-17861095D02*
X4533645Y-17851571D01*
X4533645Y-17851571D02*
X4543168Y-17842047D01*
X4543168Y-17842047D02*
X4543168Y-17861095D01*
X4676502Y-17661095D02*
X4695549Y-17661095D01*
X4695549Y-17661095D02*
X4714597Y-17670619D01*
X4714597Y-17670619D02*
X4724121Y-17680142D01*
X4724121Y-17680142D02*
X4733645Y-17699190D01*
X4733645Y-17699190D02*
X4743168Y-17737285D01*
X4743168Y-17737285D02*
X4743168Y-17784904D01*
X4743168Y-17784904D02*
X4733645Y-17823000D01*
X4733645Y-17823000D02*
X4724121Y-17842047D01*
X4724121Y-17842047D02*
X4714597Y-17851571D01*
X4714597Y-17851571D02*
X4695549Y-17861095D01*
X4695549Y-17861095D02*
X4676502Y-17861095D01*
X4676502Y-17861095D02*
X4657454Y-17851571D01*
X4657454Y-17851571D02*
X4647930Y-17842047D01*
X4647930Y-17842047D02*
X4638406Y-17823000D01*
X4638406Y-17823000D02*
X4628883Y-17784904D01*
X4628883Y-17784904D02*
X4628883Y-17737285D01*
X4628883Y-17737285D02*
X4638406Y-17699190D01*
X4638406Y-17699190D02*
X4647930Y-17680142D01*
X4647930Y-17680142D02*
X4657454Y-17670619D01*
X4657454Y-17670619D02*
X4676502Y-17661095D01*
X4924121Y-17661095D02*
X4828883Y-17661095D01*
X4828883Y-17661095D02*
X4819359Y-17756333D01*
X4819359Y-17756333D02*
X4828883Y-17746809D01*
X4828883Y-17746809D02*
X4847930Y-17737285D01*
X4847930Y-17737285D02*
X4895549Y-17737285D01*
X4895549Y-17737285D02*
X4914597Y-17746809D01*
X4914597Y-17746809D02*
X4924121Y-17756333D01*
X4924121Y-17756333D02*
X4933645Y-17775381D01*
X4933645Y-17775381D02*
X4933645Y-17823000D01*
X4933645Y-17823000D02*
X4924121Y-17842047D01*
X4924121Y-17842047D02*
X4914597Y-17851571D01*
X4914597Y-17851571D02*
X4895549Y-17861095D01*
X4895549Y-17861095D02*
X4847930Y-17861095D01*
X4847930Y-17861095D02*
X4828883Y-17851571D01*
X4828883Y-17851571D02*
X4819359Y-17842047D01*
X5057454Y-17661095D02*
X5076502Y-17661095D01*
X5076502Y-17661095D02*
X5095549Y-17670619D01*
X5095549Y-17670619D02*
X5105073Y-17680142D01*
X5105073Y-17680142D02*
X5114597Y-17699190D01*
X5114597Y-17699190D02*
X5124121Y-17737285D01*
X5124121Y-17737285D02*
X5124121Y-17784904D01*
X5124121Y-17784904D02*
X5114597Y-17823000D01*
X5114597Y-17823000D02*
X5105073Y-17842047D01*
X5105073Y-17842047D02*
X5095549Y-17851571D01*
X5095549Y-17851571D02*
X5076502Y-17861095D01*
X5076502Y-17861095D02*
X5057454Y-17861095D01*
X5057454Y-17861095D02*
X5038406Y-17851571D01*
X5038406Y-17851571D02*
X5028883Y-17842047D01*
X5028883Y-17842047D02*
X5019359Y-17823000D01*
X5019359Y-17823000D02*
X5009835Y-17784904D01*
X5009835Y-17784904D02*
X5009835Y-17737285D01*
X5009835Y-17737285D02*
X5019359Y-17699190D01*
X5019359Y-17699190D02*
X5028883Y-17680142D01*
X5028883Y-17680142D02*
X5038406Y-17670619D01*
X5038406Y-17670619D02*
X5057454Y-17661095D01*
X5209835Y-17861095D02*
X5209835Y-17727761D01*
X5209835Y-17746809D02*
X5219359Y-17737285D01*
X5219359Y-17737285D02*
X5238406Y-17727761D01*
X5238406Y-17727761D02*
X5266978Y-17727761D01*
X5266978Y-17727761D02*
X5286026Y-17737285D01*
X5286026Y-17737285D02*
X5295549Y-17756333D01*
X5295549Y-17756333D02*
X5295549Y-17861095D01*
X5295549Y-17756333D02*
X5305073Y-17737285D01*
X5305073Y-17737285D02*
X5324121Y-17727761D01*
X5324121Y-17727761D02*
X5352692Y-17727761D01*
X5352692Y-17727761D02*
X5371740Y-17737285D01*
X5371740Y-17737285D02*
X5381264Y-17756333D01*
X5381264Y-17756333D02*
X5381264Y-17861095D01*
X5476502Y-17861095D02*
X5476502Y-17727761D01*
X5476502Y-17746809D02*
X5486026Y-17737285D01*
X5486026Y-17737285D02*
X5505073Y-17727761D01*
X5505073Y-17727761D02*
X5533645Y-17727761D01*
X5533645Y-17727761D02*
X5552692Y-17737285D01*
X5552692Y-17737285D02*
X5562216Y-17756333D01*
X5562216Y-17756333D02*
X5562216Y-17861095D01*
X5562216Y-17756333D02*
X5571740Y-17737285D01*
X5571740Y-17737285D02*
X5590787Y-17727761D01*
X5590787Y-17727761D02*
X5619359Y-17727761D01*
X5619359Y-17727761D02*
X5638406Y-17737285D01*
X5638406Y-17737285D02*
X5647930Y-17756333D01*
X5647930Y-17756333D02*
X5647930Y-17861095D01*
X6038406Y-17651571D02*
X5866978Y-17908714D01*
X6295549Y-17661095D02*
X6314597Y-17661095D01*
X6314597Y-17661095D02*
X6333645Y-17670619D01*
X6333645Y-17670619D02*
X6343168Y-17680142D01*
X6343168Y-17680142D02*
X6352692Y-17699190D01*
X6352692Y-17699190D02*
X6362216Y-17737285D01*
X6362216Y-17737285D02*
X6362216Y-17784904D01*
X6362216Y-17784904D02*
X6352692Y-17823000D01*
X6352692Y-17823000D02*
X6343168Y-17842047D01*
X6343168Y-17842047D02*
X6333645Y-17851571D01*
X6333645Y-17851571D02*
X6314597Y-17861095D01*
X6314597Y-17861095D02*
X6295549Y-17861095D01*
X6295549Y-17861095D02*
X6276502Y-17851571D01*
X6276502Y-17851571D02*
X6266978Y-17842047D01*
X6266978Y-17842047D02*
X6257454Y-17823000D01*
X6257454Y-17823000D02*
X6247930Y-17784904D01*
X6247930Y-17784904D02*
X6247930Y-17737285D01*
X6247930Y-17737285D02*
X6257454Y-17699190D01*
X6257454Y-17699190D02*
X6266978Y-17680142D01*
X6266978Y-17680142D02*
X6276502Y-17670619D01*
X6276502Y-17670619D02*
X6295549Y-17661095D01*
X6447930Y-17842047D02*
X6457454Y-17851571D01*
X6457454Y-17851571D02*
X6447930Y-17861095D01*
X6447930Y-17861095D02*
X6438407Y-17851571D01*
X6438407Y-17851571D02*
X6447930Y-17842047D01*
X6447930Y-17842047D02*
X6447930Y-17861095D01*
X6647930Y-17861095D02*
X6533645Y-17861095D01*
X6590787Y-17861095D02*
X6590787Y-17661095D01*
X6590787Y-17661095D02*
X6571740Y-17689666D01*
X6571740Y-17689666D02*
X6552692Y-17708714D01*
X6552692Y-17708714D02*
X6533645Y-17718238D01*
X6724121Y-17680142D02*
X6733645Y-17670619D01*
X6733645Y-17670619D02*
X6752692Y-17661095D01*
X6752692Y-17661095D02*
X6800311Y-17661095D01*
X6800311Y-17661095D02*
X6819359Y-17670619D01*
X6819359Y-17670619D02*
X6828883Y-17680142D01*
X6828883Y-17680142D02*
X6838407Y-17699190D01*
X6838407Y-17699190D02*
X6838407Y-17718238D01*
X6838407Y-17718238D02*
X6828883Y-17746809D01*
X6828883Y-17746809D02*
X6714597Y-17861095D01*
X6714597Y-17861095D02*
X6838407Y-17861095D01*
X6962216Y-17661095D02*
X6981264Y-17661095D01*
X6981264Y-17661095D02*
X7000311Y-17670619D01*
X7000311Y-17670619D02*
X7009835Y-17680142D01*
X7009835Y-17680142D02*
X7019359Y-17699190D01*
X7019359Y-17699190D02*
X7028883Y-17737285D01*
X7028883Y-17737285D02*
X7028883Y-17784904D01*
X7028883Y-17784904D02*
X7019359Y-17823000D01*
X7019359Y-17823000D02*
X7009835Y-17842047D01*
X7009835Y-17842047D02*
X7000311Y-17851571D01*
X7000311Y-17851571D02*
X6981264Y-17861095D01*
X6981264Y-17861095D02*
X6962216Y-17861095D01*
X6962216Y-17861095D02*
X6943168Y-17851571D01*
X6943168Y-17851571D02*
X6933645Y-17842047D01*
X6933645Y-17842047D02*
X6924121Y-17823000D01*
X6924121Y-17823000D02*
X6914597Y-17784904D01*
X6914597Y-17784904D02*
X6914597Y-17737285D01*
X6914597Y-17737285D02*
X6924121Y-17699190D01*
X6924121Y-17699190D02*
X6933645Y-17680142D01*
X6933645Y-17680142D02*
X6943168Y-17670619D01*
X6943168Y-17670619D02*
X6962216Y-17661095D01*
X7219359Y-17861095D02*
X7105073Y-17861095D01*
X7162216Y-17861095D02*
X7162216Y-17661095D01*
X7162216Y-17661095D02*
X7143168Y-17689666D01*
X7143168Y-17689666D02*
X7124121Y-17708714D01*
X7124121Y-17708714D02*
X7105073Y-17718238D01*
X7295549Y-17661095D02*
X7295549Y-17699190D01*
X7371740Y-17661095D02*
X7371740Y-17699190D01*
X7666978Y-17937285D02*
X7657454Y-17927761D01*
X7657454Y-17927761D02*
X7638407Y-17899190D01*
X7638407Y-17899190D02*
X7628883Y-17880142D01*
X7628883Y-17880142D02*
X7619359Y-17851571D01*
X7619359Y-17851571D02*
X7609835Y-17803952D01*
X7609835Y-17803952D02*
X7609835Y-17765857D01*
X7609835Y-17765857D02*
X7619359Y-17718238D01*
X7619359Y-17718238D02*
X7628883Y-17689666D01*
X7628883Y-17689666D02*
X7638407Y-17670619D01*
X7638407Y-17670619D02*
X7657454Y-17642047D01*
X7657454Y-17642047D02*
X7666978Y-17632523D01*
X7847930Y-17861095D02*
X7733645Y-17861095D01*
X7790788Y-17861095D02*
X7790788Y-17661095D01*
X7790788Y-17661095D02*
X7771740Y-17689666D01*
X7771740Y-17689666D02*
X7752692Y-17708714D01*
X7752692Y-17708714D02*
X7733645Y-17718238D01*
X7971740Y-17661095D02*
X7990788Y-17661095D01*
X7990788Y-17661095D02*
X8009835Y-17670619D01*
X8009835Y-17670619D02*
X8019359Y-17680142D01*
X8019359Y-17680142D02*
X8028883Y-17699190D01*
X8028883Y-17699190D02*
X8038407Y-17737285D01*
X8038407Y-17737285D02*
X8038407Y-17784904D01*
X8038407Y-17784904D02*
X8028883Y-17823000D01*
X8028883Y-17823000D02*
X8019359Y-17842047D01*
X8019359Y-17842047D02*
X8009835Y-17851571D01*
X8009835Y-17851571D02*
X7990788Y-17861095D01*
X7990788Y-17861095D02*
X7971740Y-17861095D01*
X7971740Y-17861095D02*
X7952692Y-17851571D01*
X7952692Y-17851571D02*
X7943169Y-17842047D01*
X7943169Y-17842047D02*
X7933645Y-17823000D01*
X7933645Y-17823000D02*
X7924121Y-17784904D01*
X7924121Y-17784904D02*
X7924121Y-17737285D01*
X7924121Y-17737285D02*
X7933645Y-17699190D01*
X7933645Y-17699190D02*
X7943169Y-17680142D01*
X7943169Y-17680142D02*
X7952692Y-17670619D01*
X7952692Y-17670619D02*
X7971740Y-17661095D01*
X8162216Y-17661095D02*
X8181264Y-17661095D01*
X8181264Y-17661095D02*
X8200311Y-17670619D01*
X8200311Y-17670619D02*
X8209835Y-17680142D01*
X8209835Y-17680142D02*
X8219359Y-17699190D01*
X8219359Y-17699190D02*
X8228883Y-17737285D01*
X8228883Y-17737285D02*
X8228883Y-17784904D01*
X8228883Y-17784904D02*
X8219359Y-17823000D01*
X8219359Y-17823000D02*
X8209835Y-17842047D01*
X8209835Y-17842047D02*
X8200311Y-17851571D01*
X8200311Y-17851571D02*
X8181264Y-17861095D01*
X8181264Y-17861095D02*
X8162216Y-17861095D01*
X8162216Y-17861095D02*
X8143169Y-17851571D01*
X8143169Y-17851571D02*
X8133645Y-17842047D01*
X8133645Y-17842047D02*
X8124121Y-17823000D01*
X8124121Y-17823000D02*
X8114597Y-17784904D01*
X8114597Y-17784904D02*
X8114597Y-17737285D01*
X8114597Y-17737285D02*
X8124121Y-17699190D01*
X8124121Y-17699190D02*
X8133645Y-17680142D01*
X8133645Y-17680142D02*
X8143169Y-17670619D01*
X8143169Y-17670619D02*
X8162216Y-17661095D01*
X8466978Y-17861095D02*
X8466978Y-17661095D01*
X8552693Y-17861095D02*
X8552693Y-17756333D01*
X8552693Y-17756333D02*
X8543169Y-17737285D01*
X8543169Y-17737285D02*
X8524121Y-17727761D01*
X8524121Y-17727761D02*
X8495550Y-17727761D01*
X8495550Y-17727761D02*
X8476502Y-17737285D01*
X8476502Y-17737285D02*
X8466978Y-17746809D01*
X8676502Y-17861095D02*
X8657454Y-17851571D01*
X8657454Y-17851571D02*
X8647931Y-17842047D01*
X8647931Y-17842047D02*
X8638407Y-17823000D01*
X8638407Y-17823000D02*
X8638407Y-17765857D01*
X8638407Y-17765857D02*
X8647931Y-17746809D01*
X8647931Y-17746809D02*
X8657454Y-17737285D01*
X8657454Y-17737285D02*
X8676502Y-17727761D01*
X8676502Y-17727761D02*
X8705074Y-17727761D01*
X8705074Y-17727761D02*
X8724121Y-17737285D01*
X8724121Y-17737285D02*
X8733645Y-17746809D01*
X8733645Y-17746809D02*
X8743169Y-17765857D01*
X8743169Y-17765857D02*
X8743169Y-17823000D01*
X8743169Y-17823000D02*
X8733645Y-17842047D01*
X8733645Y-17842047D02*
X8724121Y-17851571D01*
X8724121Y-17851571D02*
X8705074Y-17861095D01*
X8705074Y-17861095D02*
X8676502Y-17861095D01*
X8857454Y-17861095D02*
X8838407Y-17851571D01*
X8838407Y-17851571D02*
X8828883Y-17832523D01*
X8828883Y-17832523D02*
X8828883Y-17661095D01*
X9009835Y-17851571D02*
X8990788Y-17861095D01*
X8990788Y-17861095D02*
X8952693Y-17861095D01*
X8952693Y-17861095D02*
X8933645Y-17851571D01*
X8933645Y-17851571D02*
X8924121Y-17832523D01*
X8924121Y-17832523D02*
X8924121Y-17756333D01*
X8924121Y-17756333D02*
X8933645Y-17737285D01*
X8933645Y-17737285D02*
X8952693Y-17727761D01*
X8952693Y-17727761D02*
X8990788Y-17727761D01*
X8990788Y-17727761D02*
X9009835Y-17737285D01*
X9009835Y-17737285D02*
X9019359Y-17756333D01*
X9019359Y-17756333D02*
X9019359Y-17775381D01*
X9019359Y-17775381D02*
X8924121Y-17794428D01*
X9095550Y-17851571D02*
X9114597Y-17861095D01*
X9114597Y-17861095D02*
X9152693Y-17861095D01*
X9152693Y-17861095D02*
X9171740Y-17851571D01*
X9171740Y-17851571D02*
X9181264Y-17832523D01*
X9181264Y-17832523D02*
X9181264Y-17823000D01*
X9181264Y-17823000D02*
X9171740Y-17803952D01*
X9171740Y-17803952D02*
X9152693Y-17794428D01*
X9152693Y-17794428D02*
X9124121Y-17794428D01*
X9124121Y-17794428D02*
X9105074Y-17784904D01*
X9105074Y-17784904D02*
X9095550Y-17765857D01*
X9095550Y-17765857D02*
X9095550Y-17756333D01*
X9095550Y-17756333D02*
X9105074Y-17737285D01*
X9105074Y-17737285D02*
X9124121Y-17727761D01*
X9124121Y-17727761D02*
X9152693Y-17727761D01*
X9152693Y-17727761D02*
X9171740Y-17737285D01*
X9247931Y-17937285D02*
X9257455Y-17927761D01*
X9257455Y-17927761D02*
X9276502Y-17899190D01*
X9276502Y-17899190D02*
X9286026Y-17880142D01*
X9286026Y-17880142D02*
X9295550Y-17851571D01*
X9295550Y-17851571D02*
X9305074Y-17803952D01*
X9305074Y-17803952D02*
X9305074Y-17765857D01*
X9305074Y-17765857D02*
X9295550Y-17718238D01*
X9295550Y-17718238D02*
X9286026Y-17689666D01*
X9286026Y-17689666D02*
X9276502Y-17670619D01*
X9276502Y-17670619D02*
X9257455Y-17642047D01*
X9257455Y-17642047D02*
X9247931Y-17632523D01*
M02*
