%TF.GenerationSoftware,KiCad,Pcbnew,8.0.1*%
%TF.CreationDate,2024-03-22T14:56:21+09:00*%
%TF.ProjectId,Pinky3,50696e6b-7933-42e6-9b69-6361645f7063,0.3*%
%TF.SameCoordinates,Original*%
%TF.FileFunction,Drillmap*%
%TF.FilePolarity,Positive*%
%FSLAX45Y45*%
G04 Gerber Fmt 4.5, Leading zero omitted, Abs format (unit mm)*
G04 Created by KiCad (PCBNEW 8.0.1) date 2024-03-22 14:56:21*
%MOMM*%
%LPD*%
G01*
G04 APERTURE LIST*
%ADD10C,0.150000*%
%ADD11C,0.200000*%
%ADD12C,0.100000*%
%ADD13C,0.190000*%
%ADD14C,0.220000*%
%ADD15C,0.400000*%
%ADD16C,0.480000*%
%ADD17C,0.505000*%
G04 APERTURE END LIST*
D10*
X17590000Y-10280000D02*
G75*
G02*
X17670000Y-10360000I0J-80000D01*
G01*
X17501395Y-10279551D02*
G75*
G02*
X17431399Y-10209551I5J70001D01*
G01*
X17670000Y-10360000D02*
X17670000Y-11610000D01*
X4100000Y-13560000D02*
X4100000Y-6050000D01*
X13460000Y-13940000D02*
X13540000Y-13960000D01*
X17433201Y-6638736D02*
X17431395Y-10209551D01*
X13540000Y-13960000D02*
X15240000Y-14580000D01*
X11610000Y-13630000D02*
X11710000Y-13630000D01*
X11620000Y-5430000D02*
X17364032Y-6567720D01*
X16890000Y-13370000D02*
X17670000Y-11610000D01*
X17501395Y-10279551D02*
X17590000Y-10280000D01*
X17790000Y-14050000D02*
X16970000Y-15490000D01*
X16920000Y-13460000D02*
G75*
G02*
X16890000Y-13370000I30000J60000D01*
G01*
X15310000Y-14610000D02*
X16870000Y-15510000D01*
X16920000Y-13460000D02*
X17760000Y-13940000D01*
X4170000Y-13630000D02*
G75*
G02*
X4100000Y-13560000I0J70000D01*
G01*
X9810000Y-5430000D02*
X11620000Y-5430000D01*
X11610000Y-13630000D02*
X4170000Y-13630000D01*
X16970000Y-15490000D02*
G75*
G02*
X16870000Y-15510000I-60000J40000D01*
G01*
X4180000Y-5970000D02*
X9810000Y-5430000D01*
X15240000Y-14580000D02*
X15310000Y-14610000D01*
X11710000Y-13630000D02*
X13460000Y-13940000D01*
X17363270Y-6568745D02*
G75*
G02*
X17433203Y-6638736I-10070J-79995D01*
G01*
X17760000Y-13940000D02*
G75*
G02*
X17790000Y-14050000I-40000J-70000D01*
G01*
X4099415Y-6053186D02*
G75*
G02*
X4180000Y-5970000I100585J-16814D01*
G01*
D11*
D12*
X7790832Y-13401532D02*
X7880832Y-13491532D01*
X7880832Y-13401532D02*
X7790832Y-13491532D01*
X7793293Y-13401499D02*
X7883293Y-13491499D01*
X7883293Y-13401499D02*
X7793293Y-13491499D01*
X8090832Y-13401532D02*
X8180832Y-13491532D01*
X8180832Y-13401532D02*
X8090832Y-13491532D01*
X8093293Y-13401499D02*
X8183293Y-13491499D01*
X8183293Y-13401499D02*
X8093293Y-13491499D01*
D13*
X4545000Y-6905000D02*
G75*
G02*
X4355000Y-6905000I-95000J0D01*
G01*
X4355000Y-6905000D02*
G75*
G02*
X4545000Y-6905000I95000J0D01*
G01*
X4545000Y-6905000D02*
G75*
G02*
X4355000Y-6905000I-95000J0D01*
G01*
X4355000Y-6905000D02*
G75*
G02*
X4545000Y-6905000I95000J0D01*
G01*
X4545000Y-8810000D02*
G75*
G02*
X4355000Y-8810000I-95000J0D01*
G01*
X4355000Y-8810000D02*
G75*
G02*
X4545000Y-8810000I95000J0D01*
G01*
X4545000Y-8810000D02*
G75*
G02*
X4355000Y-8810000I-95000J0D01*
G01*
X4355000Y-8810000D02*
G75*
G02*
X4545000Y-8810000I95000J0D01*
G01*
X4545000Y-10715000D02*
G75*
G02*
X4355000Y-10715000I-95000J0D01*
G01*
X4355000Y-10715000D02*
G75*
G02*
X4545000Y-10715000I95000J0D01*
G01*
X4545000Y-10715000D02*
G75*
G02*
X4355000Y-10715000I-95000J0D01*
G01*
X4355000Y-10715000D02*
G75*
G02*
X4545000Y-10715000I95000J0D01*
G01*
X5645000Y-6905000D02*
G75*
G02*
X5455000Y-6905000I-95000J0D01*
G01*
X5455000Y-6905000D02*
G75*
G02*
X5645000Y-6905000I95000J0D01*
G01*
X5645000Y-6905000D02*
G75*
G02*
X5455000Y-6905000I-95000J0D01*
G01*
X5455000Y-6905000D02*
G75*
G02*
X5645000Y-6905000I95000J0D01*
G01*
X5645000Y-8810000D02*
G75*
G02*
X5455000Y-8810000I-95000J0D01*
G01*
X5455000Y-8810000D02*
G75*
G02*
X5645000Y-8810000I95000J0D01*
G01*
X5645000Y-8810000D02*
G75*
G02*
X5455000Y-8810000I-95000J0D01*
G01*
X5455000Y-8810000D02*
G75*
G02*
X5645000Y-8810000I95000J0D01*
G01*
X5645000Y-10715000D02*
G75*
G02*
X5455000Y-10715000I-95000J0D01*
G01*
X5455000Y-10715000D02*
G75*
G02*
X5645000Y-10715000I95000J0D01*
G01*
X5645000Y-10715000D02*
G75*
G02*
X5455000Y-10715000I-95000J0D01*
G01*
X5455000Y-10715000D02*
G75*
G02*
X5645000Y-10715000I95000J0D01*
G01*
X6450000Y-6905000D02*
G75*
G02*
X6260000Y-6905000I-95000J0D01*
G01*
X6260000Y-6905000D02*
G75*
G02*
X6450000Y-6905000I95000J0D01*
G01*
X6450000Y-6905000D02*
G75*
G02*
X6260000Y-6905000I-95000J0D01*
G01*
X6260000Y-6905000D02*
G75*
G02*
X6450000Y-6905000I95000J0D01*
G01*
X6450000Y-8810000D02*
G75*
G02*
X6260000Y-8810000I-95000J0D01*
G01*
X6260000Y-8810000D02*
G75*
G02*
X6450000Y-8810000I95000J0D01*
G01*
X6450000Y-8810000D02*
G75*
G02*
X6260000Y-8810000I-95000J0D01*
G01*
X6260000Y-8810000D02*
G75*
G02*
X6450000Y-8810000I95000J0D01*
G01*
X6450000Y-10715000D02*
G75*
G02*
X6260000Y-10715000I-95000J0D01*
G01*
X6260000Y-10715000D02*
G75*
G02*
X6450000Y-10715000I95000J0D01*
G01*
X6450000Y-10715000D02*
G75*
G02*
X6260000Y-10715000I-95000J0D01*
G01*
X6260000Y-10715000D02*
G75*
G02*
X6450000Y-10715000I95000J0D01*
G01*
X7550000Y-6905000D02*
G75*
G02*
X7360000Y-6905000I-95000J0D01*
G01*
X7360000Y-6905000D02*
G75*
G02*
X7550000Y-6905000I95000J0D01*
G01*
X7550000Y-6905000D02*
G75*
G02*
X7360000Y-6905000I-95000J0D01*
G01*
X7360000Y-6905000D02*
G75*
G02*
X7550000Y-6905000I95000J0D01*
G01*
X7550000Y-8810000D02*
G75*
G02*
X7360000Y-8810000I-95000J0D01*
G01*
X7360000Y-8810000D02*
G75*
G02*
X7550000Y-8810000I95000J0D01*
G01*
X7550000Y-8810000D02*
G75*
G02*
X7360000Y-8810000I-95000J0D01*
G01*
X7360000Y-8810000D02*
G75*
G02*
X7550000Y-8810000I95000J0D01*
G01*
X7550000Y-10715000D02*
G75*
G02*
X7360000Y-10715000I-95000J0D01*
G01*
X7360000Y-10715000D02*
G75*
G02*
X7550000Y-10715000I95000J0D01*
G01*
X7550000Y-10715000D02*
G75*
G02*
X7360000Y-10715000I-95000J0D01*
G01*
X7360000Y-10715000D02*
G75*
G02*
X7550000Y-10715000I95000J0D01*
G01*
X8355000Y-6714500D02*
G75*
G02*
X8165000Y-6714500I-95000J0D01*
G01*
X8165000Y-6714500D02*
G75*
G02*
X8355000Y-6714500I95000J0D01*
G01*
X8355000Y-6714500D02*
G75*
G02*
X8165000Y-6714500I-95000J0D01*
G01*
X8165000Y-6714500D02*
G75*
G02*
X8355000Y-6714500I95000J0D01*
G01*
X8355000Y-8619500D02*
G75*
G02*
X8165000Y-8619500I-95000J0D01*
G01*
X8165000Y-8619500D02*
G75*
G02*
X8355000Y-8619500I95000J0D01*
G01*
X8355000Y-8619500D02*
G75*
G02*
X8165000Y-8619500I-95000J0D01*
G01*
X8165000Y-8619500D02*
G75*
G02*
X8355000Y-8619500I95000J0D01*
G01*
X8355000Y-10524500D02*
G75*
G02*
X8165000Y-10524500I-95000J0D01*
G01*
X8165000Y-10524500D02*
G75*
G02*
X8355000Y-10524500I95000J0D01*
G01*
X8355000Y-10524500D02*
G75*
G02*
X8165000Y-10524500I-95000J0D01*
G01*
X8165000Y-10524500D02*
G75*
G02*
X8355000Y-10524500I95000J0D01*
G01*
X9455000Y-6714500D02*
G75*
G02*
X9265000Y-6714500I-95000J0D01*
G01*
X9265000Y-6714500D02*
G75*
G02*
X9455000Y-6714500I95000J0D01*
G01*
X9455000Y-6714500D02*
G75*
G02*
X9265000Y-6714500I-95000J0D01*
G01*
X9265000Y-6714500D02*
G75*
G02*
X9455000Y-6714500I95000J0D01*
G01*
X9455000Y-8619500D02*
G75*
G02*
X9265000Y-8619500I-95000J0D01*
G01*
X9265000Y-8619500D02*
G75*
G02*
X9455000Y-8619500I95000J0D01*
G01*
X9455000Y-8619500D02*
G75*
G02*
X9265000Y-8619500I-95000J0D01*
G01*
X9265000Y-8619500D02*
G75*
G02*
X9455000Y-8619500I95000J0D01*
G01*
X9455000Y-10524500D02*
G75*
G02*
X9265000Y-10524500I-95000J0D01*
G01*
X9265000Y-10524500D02*
G75*
G02*
X9455000Y-10524500I95000J0D01*
G01*
X9455000Y-10524500D02*
G75*
G02*
X9265000Y-10524500I-95000J0D01*
G01*
X9265000Y-10524500D02*
G75*
G02*
X9455000Y-10524500I95000J0D01*
G01*
X10260000Y-6333500D02*
G75*
G02*
X10070000Y-6333500I-95000J0D01*
G01*
X10070000Y-6333500D02*
G75*
G02*
X10260000Y-6333500I95000J0D01*
G01*
X10260000Y-6333500D02*
G75*
G02*
X10070000Y-6333500I-95000J0D01*
G01*
X10070000Y-6333500D02*
G75*
G02*
X10260000Y-6333500I95000J0D01*
G01*
X10260000Y-8238500D02*
G75*
G02*
X10070000Y-8238500I-95000J0D01*
G01*
X10070000Y-8238500D02*
G75*
G02*
X10260000Y-8238500I95000J0D01*
G01*
X10260000Y-8238500D02*
G75*
G02*
X10070000Y-8238500I-95000J0D01*
G01*
X10070000Y-8238500D02*
G75*
G02*
X10260000Y-8238500I95000J0D01*
G01*
X10260000Y-10143500D02*
G75*
G02*
X10070000Y-10143500I-95000J0D01*
G01*
X10070000Y-10143500D02*
G75*
G02*
X10260000Y-10143500I95000J0D01*
G01*
X10260000Y-10143500D02*
G75*
G02*
X10070000Y-10143500I-95000J0D01*
G01*
X10070000Y-10143500D02*
G75*
G02*
X10260000Y-10143500I95000J0D01*
G01*
X10260000Y-12710000D02*
G75*
G02*
X10070000Y-12710000I-95000J0D01*
G01*
X10070000Y-12710000D02*
G75*
G02*
X10260000Y-12710000I95000J0D01*
G01*
X10260000Y-12710000D02*
G75*
G02*
X10070000Y-12710000I-95000J0D01*
G01*
X10070000Y-12710000D02*
G75*
G02*
X10260000Y-12710000I95000J0D01*
G01*
X11360000Y-6333500D02*
G75*
G02*
X11170000Y-6333500I-95000J0D01*
G01*
X11170000Y-6333500D02*
G75*
G02*
X11360000Y-6333500I95000J0D01*
G01*
X11360000Y-6333500D02*
G75*
G02*
X11170000Y-6333500I-95000J0D01*
G01*
X11170000Y-6333500D02*
G75*
G02*
X11360000Y-6333500I95000J0D01*
G01*
X11360000Y-8238500D02*
G75*
G02*
X11170000Y-8238500I-95000J0D01*
G01*
X11170000Y-8238500D02*
G75*
G02*
X11360000Y-8238500I95000J0D01*
G01*
X11360000Y-8238500D02*
G75*
G02*
X11170000Y-8238500I-95000J0D01*
G01*
X11170000Y-8238500D02*
G75*
G02*
X11360000Y-8238500I95000J0D01*
G01*
X11360000Y-10143500D02*
G75*
G02*
X11170000Y-10143500I-95000J0D01*
G01*
X11170000Y-10143500D02*
G75*
G02*
X11360000Y-10143500I95000J0D01*
G01*
X11360000Y-10143500D02*
G75*
G02*
X11170000Y-10143500I-95000J0D01*
G01*
X11170000Y-10143500D02*
G75*
G02*
X11360000Y-10143500I95000J0D01*
G01*
X11360000Y-12710000D02*
G75*
G02*
X11170000Y-12710000I-95000J0D01*
G01*
X11170000Y-12710000D02*
G75*
G02*
X11360000Y-12710000I95000J0D01*
G01*
X11360000Y-12710000D02*
G75*
G02*
X11170000Y-12710000I-95000J0D01*
G01*
X11170000Y-12710000D02*
G75*
G02*
X11360000Y-12710000I95000J0D01*
G01*
X12165000Y-6714500D02*
G75*
G02*
X11975000Y-6714500I-95000J0D01*
G01*
X11975000Y-6714500D02*
G75*
G02*
X12165000Y-6714500I95000J0D01*
G01*
X12165000Y-6714500D02*
G75*
G02*
X11975000Y-6714500I-95000J0D01*
G01*
X11975000Y-6714500D02*
G75*
G02*
X12165000Y-6714500I95000J0D01*
G01*
X12165000Y-8619500D02*
G75*
G02*
X11975000Y-8619500I-95000J0D01*
G01*
X11975000Y-8619500D02*
G75*
G02*
X12165000Y-8619500I95000J0D01*
G01*
X12165000Y-8619500D02*
G75*
G02*
X11975000Y-8619500I-95000J0D01*
G01*
X11975000Y-8619500D02*
G75*
G02*
X12165000Y-8619500I95000J0D01*
G01*
X12165000Y-10524500D02*
G75*
G02*
X11975000Y-10524500I-95000J0D01*
G01*
X11975000Y-10524500D02*
G75*
G02*
X12165000Y-10524500I95000J0D01*
G01*
X12165000Y-10524500D02*
G75*
G02*
X11975000Y-10524500I-95000J0D01*
G01*
X11975000Y-10524500D02*
G75*
G02*
X12165000Y-10524500I95000J0D01*
G01*
X12283356Y-12794493D02*
G75*
G02*
X12093356Y-12794493I-95000J0D01*
G01*
X12093356Y-12794493D02*
G75*
G02*
X12283356Y-12794493I95000J0D01*
G01*
X12283356Y-12794493D02*
G75*
G02*
X12093356Y-12794493I-95000J0D01*
G01*
X12093356Y-12794493D02*
G75*
G02*
X12283356Y-12794493I95000J0D01*
G01*
X13265000Y-6714500D02*
G75*
G02*
X13075000Y-6714500I-95000J0D01*
G01*
X13075000Y-6714500D02*
G75*
G02*
X13265000Y-6714500I95000J0D01*
G01*
X13265000Y-6714500D02*
G75*
G02*
X13075000Y-6714500I-95000J0D01*
G01*
X13075000Y-6714500D02*
G75*
G02*
X13265000Y-6714500I95000J0D01*
G01*
X13265000Y-8619500D02*
G75*
G02*
X13075000Y-8619500I-95000J0D01*
G01*
X13075000Y-8619500D02*
G75*
G02*
X13265000Y-8619500I95000J0D01*
G01*
X13265000Y-8619500D02*
G75*
G02*
X13075000Y-8619500I-95000J0D01*
G01*
X13075000Y-8619500D02*
G75*
G02*
X13265000Y-8619500I95000J0D01*
G01*
X13265000Y-10524500D02*
G75*
G02*
X13075000Y-10524500I-95000J0D01*
G01*
X13075000Y-10524500D02*
G75*
G02*
X13265000Y-10524500I95000J0D01*
G01*
X13265000Y-10524500D02*
G75*
G02*
X13075000Y-10524500I-95000J0D01*
G01*
X13075000Y-10524500D02*
G75*
G02*
X13265000Y-10524500I95000J0D01*
G01*
X13366644Y-12985506D02*
G75*
G02*
X13176644Y-12985506I-95000J0D01*
G01*
X13176644Y-12985506D02*
G75*
G02*
X13366644Y-12985506I95000J0D01*
G01*
X13366644Y-12985506D02*
G75*
G02*
X13176644Y-12985506I-95000J0D01*
G01*
X13176644Y-12985506D02*
G75*
G02*
X13366644Y-12985506I95000J0D01*
G01*
X14070000Y-7095500D02*
G75*
G02*
X13880000Y-7095500I-95000J0D01*
G01*
X13880000Y-7095500D02*
G75*
G02*
X14070000Y-7095500I95000J0D01*
G01*
X14070000Y-7095500D02*
G75*
G02*
X13880000Y-7095500I-95000J0D01*
G01*
X13880000Y-7095500D02*
G75*
G02*
X14070000Y-7095500I95000J0D01*
G01*
X14070000Y-9000500D02*
G75*
G02*
X13880000Y-9000500I-95000J0D01*
G01*
X13880000Y-9000500D02*
G75*
G02*
X14070000Y-9000500I95000J0D01*
G01*
X14070000Y-9000500D02*
G75*
G02*
X13880000Y-9000500I-95000J0D01*
G01*
X13880000Y-9000500D02*
G75*
G02*
X14070000Y-9000500I95000J0D01*
G01*
X14070000Y-10905500D02*
G75*
G02*
X13880000Y-10905500I-95000J0D01*
G01*
X13880000Y-10905500D02*
G75*
G02*
X14070000Y-10905500I95000J0D01*
G01*
X14070000Y-10905500D02*
G75*
G02*
X13880000Y-10905500I-95000J0D01*
G01*
X13880000Y-10905500D02*
G75*
G02*
X14070000Y-10905500I95000J0D01*
G01*
X14278169Y-13231889D02*
G75*
G02*
X14088169Y-13231889I-95000J0D01*
G01*
X14088169Y-13231889D02*
G75*
G02*
X14278169Y-13231889I95000J0D01*
G01*
X14278169Y-13231889D02*
G75*
G02*
X14088169Y-13231889I-95000J0D01*
G01*
X14088169Y-13231889D02*
G75*
G02*
X14278169Y-13231889I95000J0D01*
G01*
X15170000Y-7095500D02*
G75*
G02*
X14980000Y-7095500I-95000J0D01*
G01*
X14980000Y-7095500D02*
G75*
G02*
X15170000Y-7095500I95000J0D01*
G01*
X15170000Y-7095500D02*
G75*
G02*
X14980000Y-7095500I-95000J0D01*
G01*
X14980000Y-7095500D02*
G75*
G02*
X15170000Y-7095500I95000J0D01*
G01*
X15170000Y-9000500D02*
G75*
G02*
X14980000Y-9000500I-95000J0D01*
G01*
X14980000Y-9000500D02*
G75*
G02*
X15170000Y-9000500I95000J0D01*
G01*
X15170000Y-9000500D02*
G75*
G02*
X14980000Y-9000500I-95000J0D01*
G01*
X14980000Y-9000500D02*
G75*
G02*
X15170000Y-9000500I95000J0D01*
G01*
X15170000Y-10905500D02*
G75*
G02*
X14980000Y-10905500I-95000J0D01*
G01*
X14980000Y-10905500D02*
G75*
G02*
X15170000Y-10905500I95000J0D01*
G01*
X15170000Y-10905500D02*
G75*
G02*
X14980000Y-10905500I-95000J0D01*
G01*
X14980000Y-10905500D02*
G75*
G02*
X15170000Y-10905500I95000J0D01*
G01*
X15311831Y-13608111D02*
G75*
G02*
X15121831Y-13608111I-95000J0D01*
G01*
X15121831Y-13608111D02*
G75*
G02*
X15311831Y-13608111I95000J0D01*
G01*
X15311831Y-13608111D02*
G75*
G02*
X15121831Y-13608111I-95000J0D01*
G01*
X15121831Y-13608111D02*
G75*
G02*
X15311831Y-13608111I95000J0D01*
G01*
X15975000Y-7476500D02*
G75*
G02*
X15785000Y-7476500I-95000J0D01*
G01*
X15785000Y-7476500D02*
G75*
G02*
X15975000Y-7476500I95000J0D01*
G01*
X15975000Y-7476500D02*
G75*
G02*
X15785000Y-7476500I-95000J0D01*
G01*
X15785000Y-7476500D02*
G75*
G02*
X15975000Y-7476500I95000J0D01*
G01*
X15975000Y-9381500D02*
G75*
G02*
X15785000Y-9381500I-95000J0D01*
G01*
X15785000Y-9381500D02*
G75*
G02*
X15975000Y-9381500I95000J0D01*
G01*
X15975000Y-9381500D02*
G75*
G02*
X15785000Y-9381500I-95000J0D01*
G01*
X15785000Y-9381500D02*
G75*
G02*
X15975000Y-9381500I95000J0D01*
G01*
X16022550Y-11806295D02*
G75*
G02*
X15832550Y-11806295I-95000J0D01*
G01*
X15832550Y-11806295D02*
G75*
G02*
X16022550Y-11806295I95000J0D01*
G01*
X16022550Y-11806295D02*
G75*
G02*
X15832550Y-11806295I-95000J0D01*
G01*
X15832550Y-11806295D02*
G75*
G02*
X16022550Y-11806295I95000J0D01*
G01*
X16158686Y-14005000D02*
G75*
G02*
X15968686Y-14005000I-95000J0D01*
G01*
X15968686Y-14005000D02*
G75*
G02*
X16158686Y-14005000I95000J0D01*
G01*
X16158686Y-14005000D02*
G75*
G02*
X15968686Y-14005000I-95000J0D01*
G01*
X15968686Y-14005000D02*
G75*
G02*
X16158686Y-14005000I95000J0D01*
G01*
X17027450Y-12253705D02*
G75*
G02*
X16837450Y-12253705I-95000J0D01*
G01*
X16837450Y-12253705D02*
G75*
G02*
X17027450Y-12253705I95000J0D01*
G01*
X17027450Y-12253705D02*
G75*
G02*
X16837450Y-12253705I-95000J0D01*
G01*
X16837450Y-12253705D02*
G75*
G02*
X17027450Y-12253705I95000J0D01*
G01*
X17075000Y-7476500D02*
G75*
G02*
X16885000Y-7476500I-95000J0D01*
G01*
X16885000Y-7476500D02*
G75*
G02*
X17075000Y-7476500I95000J0D01*
G01*
X17075000Y-7476500D02*
G75*
G02*
X16885000Y-7476500I-95000J0D01*
G01*
X16885000Y-7476500D02*
G75*
G02*
X17075000Y-7476500I95000J0D01*
G01*
X17075000Y-9381500D02*
G75*
G02*
X16885000Y-9381500I-95000J0D01*
G01*
X16885000Y-9381500D02*
G75*
G02*
X17075000Y-9381500I95000J0D01*
G01*
X17075000Y-9381500D02*
G75*
G02*
X16885000Y-9381500I-95000J0D01*
G01*
X16885000Y-9381500D02*
G75*
G02*
X17075000Y-9381500I95000J0D01*
G01*
X17111314Y-14555000D02*
G75*
G02*
X16921314Y-14555000I-95000J0D01*
G01*
X16921314Y-14555000D02*
G75*
G02*
X17111314Y-14555000I95000J0D01*
G01*
X17111314Y-14555000D02*
G75*
G02*
X16921314Y-14555000I-95000J0D01*
G01*
X16921314Y-14555000D02*
G75*
G02*
X17111314Y-14555000I95000J0D01*
G01*
D14*
X9550000Y-11810000D02*
X9550000Y-12030000D01*
X9440000Y-11920000D02*
X9660000Y-11920000D01*
X9550000Y-13260000D02*
X9550000Y-13480000D01*
X9440000Y-13370000D02*
X9660000Y-13370000D01*
D15*
X7046423Y-7046423D02*
X7046423Y-6763577D01*
X6763577Y-6763577D01*
X6763577Y-7046423D01*
X7046423Y-7046423D01*
D16*
X5950000Y-8095000D02*
X6190000Y-7855000D01*
X5950000Y-7615000D01*
X5710000Y-7855000D01*
X5950000Y-8095000D01*
X5950000Y-10000000D02*
X6190000Y-9760000D01*
X5950000Y-9520000D01*
X5710000Y-9760000D01*
X5950000Y-10000000D01*
X11707761Y-9772352D02*
X11947761Y-9532352D01*
X11707761Y-9292352D01*
X11467761Y-9532352D01*
X11707761Y-9772352D01*
X14900000Y-12270000D02*
X15140000Y-12030000D01*
X14900000Y-11790000D01*
X14660000Y-12030000D01*
X14900000Y-12270000D01*
X15494000Y-8622000D02*
X15734000Y-8382000D01*
X15494000Y-8142000D01*
X15254000Y-8382000D01*
X15494000Y-8622000D01*
D17*
X4747500Y-6652500D02*
X5252500Y-7157500D01*
X5252500Y-6652500D02*
X4747500Y-7157500D01*
X5252500Y-6905000D02*
G75*
G02*
X4747500Y-6905000I-252500J0D01*
G01*
X4747500Y-6905000D02*
G75*
G02*
X5252500Y-6905000I252500J0D01*
G01*
X4747500Y-6652500D02*
X5252500Y-7157500D01*
X5252500Y-6652500D02*
X4747500Y-7157500D01*
X5252500Y-6905000D02*
G75*
G02*
X4747500Y-6905000I-252500J0D01*
G01*
X4747500Y-6905000D02*
G75*
G02*
X5252500Y-6905000I252500J0D01*
G01*
X4747500Y-8557500D02*
X5252500Y-9062500D01*
X5252500Y-8557500D02*
X4747500Y-9062500D01*
X5252500Y-8810000D02*
G75*
G02*
X4747500Y-8810000I-252500J0D01*
G01*
X4747500Y-8810000D02*
G75*
G02*
X5252500Y-8810000I252500J0D01*
G01*
X4747500Y-8557500D02*
X5252500Y-9062500D01*
X5252500Y-8557500D02*
X4747500Y-9062500D01*
X5252500Y-8810000D02*
G75*
G02*
X4747500Y-8810000I-252500J0D01*
G01*
X4747500Y-8810000D02*
G75*
G02*
X5252500Y-8810000I252500J0D01*
G01*
X4747500Y-10462500D02*
X5252500Y-10967500D01*
X5252500Y-10462500D02*
X4747500Y-10967500D01*
X5252500Y-10715000D02*
G75*
G02*
X4747500Y-10715000I-252500J0D01*
G01*
X4747500Y-10715000D02*
G75*
G02*
X5252500Y-10715000I252500J0D01*
G01*
X4747500Y-10462500D02*
X5252500Y-10967500D01*
X5252500Y-10462500D02*
X4747500Y-10967500D01*
X5252500Y-10715000D02*
G75*
G02*
X4747500Y-10715000I-252500J0D01*
G01*
X4747500Y-10715000D02*
G75*
G02*
X5252500Y-10715000I252500J0D01*
G01*
X6652500Y-6652500D02*
X7157500Y-7157500D01*
X7157500Y-6652500D02*
X6652500Y-7157500D01*
X7157500Y-6905000D02*
G75*
G02*
X6652500Y-6905000I-252500J0D01*
G01*
X6652500Y-6905000D02*
G75*
G02*
X7157500Y-6905000I252500J0D01*
G01*
X6652500Y-6652500D02*
X7157500Y-7157500D01*
X7157500Y-6652500D02*
X6652500Y-7157500D01*
X7157500Y-6905000D02*
G75*
G02*
X6652500Y-6905000I-252500J0D01*
G01*
X6652500Y-6905000D02*
G75*
G02*
X7157500Y-6905000I252500J0D01*
G01*
X6652500Y-8557500D02*
X7157500Y-9062500D01*
X7157500Y-8557500D02*
X6652500Y-9062500D01*
X7157500Y-8810000D02*
G75*
G02*
X6652500Y-8810000I-252500J0D01*
G01*
X6652500Y-8810000D02*
G75*
G02*
X7157500Y-8810000I252500J0D01*
G01*
X6652500Y-8557500D02*
X7157500Y-9062500D01*
X7157500Y-8557500D02*
X6652500Y-9062500D01*
X7157500Y-8810000D02*
G75*
G02*
X6652500Y-8810000I-252500J0D01*
G01*
X6652500Y-8810000D02*
G75*
G02*
X7157500Y-8810000I252500J0D01*
G01*
X6652500Y-10462500D02*
X7157500Y-10967500D01*
X7157500Y-10462500D02*
X6652500Y-10967500D01*
X7157500Y-10715000D02*
G75*
G02*
X6652500Y-10715000I-252500J0D01*
G01*
X6652500Y-10715000D02*
G75*
G02*
X7157500Y-10715000I252500J0D01*
G01*
X6652500Y-10462500D02*
X7157500Y-10967500D01*
X7157500Y-10462500D02*
X6652500Y-10967500D01*
X7157500Y-10715000D02*
G75*
G02*
X6652500Y-10715000I-252500J0D01*
G01*
X6652500Y-10715000D02*
G75*
G02*
X7157500Y-10715000I252500J0D01*
G01*
X8557500Y-6462000D02*
X9062500Y-6967000D01*
X9062500Y-6462000D02*
X8557500Y-6967000D01*
X9062500Y-6714500D02*
G75*
G02*
X8557500Y-6714500I-252500J0D01*
G01*
X8557500Y-6714500D02*
G75*
G02*
X9062500Y-6714500I252500J0D01*
G01*
X8557500Y-6462000D02*
X9062500Y-6967000D01*
X9062500Y-6462000D02*
X8557500Y-6967000D01*
X9062500Y-6714500D02*
G75*
G02*
X8557500Y-6714500I-252500J0D01*
G01*
X8557500Y-6714500D02*
G75*
G02*
X9062500Y-6714500I252500J0D01*
G01*
X8557500Y-8367000D02*
X9062500Y-8872000D01*
X9062500Y-8367000D02*
X8557500Y-8872000D01*
X9062500Y-8619500D02*
G75*
G02*
X8557500Y-8619500I-252500J0D01*
G01*
X8557500Y-8619500D02*
G75*
G02*
X9062500Y-8619500I252500J0D01*
G01*
X8557500Y-8367000D02*
X9062500Y-8872000D01*
X9062500Y-8367000D02*
X8557500Y-8872000D01*
X9062500Y-8619500D02*
G75*
G02*
X8557500Y-8619500I-252500J0D01*
G01*
X8557500Y-8619500D02*
G75*
G02*
X9062500Y-8619500I252500J0D01*
G01*
X8557500Y-10272000D02*
X9062500Y-10777000D01*
X9062500Y-10272000D02*
X8557500Y-10777000D01*
X9062500Y-10524500D02*
G75*
G02*
X8557500Y-10524500I-252500J0D01*
G01*
X8557500Y-10524500D02*
G75*
G02*
X9062500Y-10524500I252500J0D01*
G01*
X8557500Y-10272000D02*
X9062500Y-10777000D01*
X9062500Y-10272000D02*
X8557500Y-10777000D01*
X9062500Y-10524500D02*
G75*
G02*
X8557500Y-10524500I-252500J0D01*
G01*
X8557500Y-10524500D02*
G75*
G02*
X9062500Y-10524500I252500J0D01*
G01*
X10462500Y-6081000D02*
X10967500Y-6586000D01*
X10967500Y-6081000D02*
X10462500Y-6586000D01*
X10967500Y-6333500D02*
G75*
G02*
X10462500Y-6333500I-252500J0D01*
G01*
X10462500Y-6333500D02*
G75*
G02*
X10967500Y-6333500I252500J0D01*
G01*
X10462500Y-6081000D02*
X10967500Y-6586000D01*
X10967500Y-6081000D02*
X10462500Y-6586000D01*
X10967500Y-6333500D02*
G75*
G02*
X10462500Y-6333500I-252500J0D01*
G01*
X10462500Y-6333500D02*
G75*
G02*
X10967500Y-6333500I252500J0D01*
G01*
X10462500Y-7986000D02*
X10967500Y-8491000D01*
X10967500Y-7986000D02*
X10462500Y-8491000D01*
X10967500Y-8238500D02*
G75*
G02*
X10462500Y-8238500I-252500J0D01*
G01*
X10462500Y-8238500D02*
G75*
G02*
X10967500Y-8238500I252500J0D01*
G01*
X10462500Y-7986000D02*
X10967500Y-8491000D01*
X10967500Y-7986000D02*
X10462500Y-8491000D01*
X10967500Y-8238500D02*
G75*
G02*
X10462500Y-8238500I-252500J0D01*
G01*
X10462500Y-8238500D02*
G75*
G02*
X10967500Y-8238500I252500J0D01*
G01*
X10462500Y-9891000D02*
X10967500Y-10396000D01*
X10967500Y-9891000D02*
X10462500Y-10396000D01*
X10967500Y-10143500D02*
G75*
G02*
X10462500Y-10143500I-252500J0D01*
G01*
X10462500Y-10143500D02*
G75*
G02*
X10967500Y-10143500I252500J0D01*
G01*
X10462500Y-9891000D02*
X10967500Y-10396000D01*
X10967500Y-9891000D02*
X10462500Y-10396000D01*
X10967500Y-10143500D02*
G75*
G02*
X10462500Y-10143500I-252500J0D01*
G01*
X10462500Y-10143500D02*
G75*
G02*
X10967500Y-10143500I252500J0D01*
G01*
X10462500Y-12457500D02*
X10967500Y-12962500D01*
X10967500Y-12457500D02*
X10462500Y-12962500D01*
X10967500Y-12710000D02*
G75*
G02*
X10462500Y-12710000I-252500J0D01*
G01*
X10462500Y-12710000D02*
G75*
G02*
X10967500Y-12710000I252500J0D01*
G01*
X10462500Y-12457500D02*
X10967500Y-12962500D01*
X10967500Y-12457500D02*
X10462500Y-12962500D01*
X10967500Y-12710000D02*
G75*
G02*
X10462500Y-12710000I-252500J0D01*
G01*
X10462500Y-12710000D02*
G75*
G02*
X10967500Y-12710000I252500J0D01*
G01*
X12367500Y-6462000D02*
X12872500Y-6967000D01*
X12872500Y-6462000D02*
X12367500Y-6967000D01*
X12872500Y-6714500D02*
G75*
G02*
X12367500Y-6714500I-252500J0D01*
G01*
X12367500Y-6714500D02*
G75*
G02*
X12872500Y-6714500I252500J0D01*
G01*
X12367500Y-6462000D02*
X12872500Y-6967000D01*
X12872500Y-6462000D02*
X12367500Y-6967000D01*
X12872500Y-6714500D02*
G75*
G02*
X12367500Y-6714500I-252500J0D01*
G01*
X12367500Y-6714500D02*
G75*
G02*
X12872500Y-6714500I252500J0D01*
G01*
X12367500Y-8367000D02*
X12872500Y-8872000D01*
X12872500Y-8367000D02*
X12367500Y-8872000D01*
X12872500Y-8619500D02*
G75*
G02*
X12367500Y-8619500I-252500J0D01*
G01*
X12367500Y-8619500D02*
G75*
G02*
X12872500Y-8619500I252500J0D01*
G01*
X12367500Y-8367000D02*
X12872500Y-8872000D01*
X12872500Y-8367000D02*
X12367500Y-8872000D01*
X12872500Y-8619500D02*
G75*
G02*
X12367500Y-8619500I-252500J0D01*
G01*
X12367500Y-8619500D02*
G75*
G02*
X12872500Y-8619500I252500J0D01*
G01*
X12367500Y-10272000D02*
X12872500Y-10777000D01*
X12872500Y-10272000D02*
X12367500Y-10777000D01*
X12872500Y-10524500D02*
G75*
G02*
X12367500Y-10524500I-252500J0D01*
G01*
X12367500Y-10524500D02*
G75*
G02*
X12872500Y-10524500I252500J0D01*
G01*
X12367500Y-10272000D02*
X12872500Y-10777000D01*
X12872500Y-10272000D02*
X12367500Y-10777000D01*
X12872500Y-10524500D02*
G75*
G02*
X12367500Y-10524500I-252500J0D01*
G01*
X12367500Y-10524500D02*
G75*
G02*
X12872500Y-10524500I252500J0D01*
G01*
X12477500Y-12637500D02*
X12982500Y-13142500D01*
X12982500Y-12637500D02*
X12477500Y-13142500D01*
X12982500Y-12890000D02*
G75*
G02*
X12477500Y-12890000I-252500J0D01*
G01*
X12477500Y-12890000D02*
G75*
G02*
X12982500Y-12890000I252500J0D01*
G01*
X12477500Y-12637500D02*
X12982500Y-13142500D01*
X12982500Y-12637500D02*
X12477500Y-13142500D01*
X12982500Y-12890000D02*
G75*
G02*
X12477500Y-12890000I-252500J0D01*
G01*
X12477500Y-12890000D02*
G75*
G02*
X12982500Y-12890000I252500J0D01*
G01*
X14272500Y-6843000D02*
X14777500Y-7348000D01*
X14777500Y-6843000D02*
X14272500Y-7348000D01*
X14777500Y-7095500D02*
G75*
G02*
X14272500Y-7095500I-252500J0D01*
G01*
X14272500Y-7095500D02*
G75*
G02*
X14777500Y-7095500I252500J0D01*
G01*
X14272500Y-6843000D02*
X14777500Y-7348000D01*
X14777500Y-6843000D02*
X14272500Y-7348000D01*
X14777500Y-7095500D02*
G75*
G02*
X14272500Y-7095500I-252500J0D01*
G01*
X14272500Y-7095500D02*
G75*
G02*
X14777500Y-7095500I252500J0D01*
G01*
X14272500Y-8748000D02*
X14777500Y-9253000D01*
X14777500Y-8748000D02*
X14272500Y-9253000D01*
X14777500Y-9000500D02*
G75*
G02*
X14272500Y-9000500I-252500J0D01*
G01*
X14272500Y-9000500D02*
G75*
G02*
X14777500Y-9000500I252500J0D01*
G01*
X14272500Y-8748000D02*
X14777500Y-9253000D01*
X14777500Y-8748000D02*
X14272500Y-9253000D01*
X14777500Y-9000500D02*
G75*
G02*
X14272500Y-9000500I-252500J0D01*
G01*
X14272500Y-9000500D02*
G75*
G02*
X14777500Y-9000500I252500J0D01*
G01*
X14272500Y-10653000D02*
X14777500Y-11158000D01*
X14777500Y-10653000D02*
X14272500Y-11158000D01*
X14777500Y-10905500D02*
G75*
G02*
X14272500Y-10905500I-252500J0D01*
G01*
X14272500Y-10905500D02*
G75*
G02*
X14777500Y-10905500I252500J0D01*
G01*
X14272500Y-10653000D02*
X14777500Y-11158000D01*
X14777500Y-10653000D02*
X14272500Y-11158000D01*
X14777500Y-10905500D02*
G75*
G02*
X14272500Y-10905500I-252500J0D01*
G01*
X14272500Y-10905500D02*
G75*
G02*
X14777500Y-10905500I252500J0D01*
G01*
X14447500Y-13167500D02*
X14952500Y-13672500D01*
X14952500Y-13167500D02*
X14447500Y-13672500D01*
X14952500Y-13420000D02*
G75*
G02*
X14447500Y-13420000I-252500J0D01*
G01*
X14447500Y-13420000D02*
G75*
G02*
X14952500Y-13420000I252500J0D01*
G01*
X14447500Y-13167500D02*
X14952500Y-13672500D01*
X14952500Y-13167500D02*
X14447500Y-13672500D01*
X14952500Y-13420000D02*
G75*
G02*
X14447500Y-13420000I-252500J0D01*
G01*
X14447500Y-13420000D02*
G75*
G02*
X14952500Y-13420000I252500J0D01*
G01*
X16177500Y-7224000D02*
X16682500Y-7729000D01*
X16682500Y-7224000D02*
X16177500Y-7729000D01*
X16682500Y-7476500D02*
G75*
G02*
X16177500Y-7476500I-252500J0D01*
G01*
X16177500Y-7476500D02*
G75*
G02*
X16682500Y-7476500I252500J0D01*
G01*
X16177500Y-7224000D02*
X16682500Y-7729000D01*
X16682500Y-7224000D02*
X16177500Y-7729000D01*
X16682500Y-7476500D02*
G75*
G02*
X16177500Y-7476500I-252500J0D01*
G01*
X16177500Y-7476500D02*
G75*
G02*
X16682500Y-7476500I252500J0D01*
G01*
X16177500Y-9129000D02*
X16682500Y-9634000D01*
X16682500Y-9129000D02*
X16177500Y-9634000D01*
X16682500Y-9381500D02*
G75*
G02*
X16177500Y-9381500I-252500J0D01*
G01*
X16177500Y-9381500D02*
G75*
G02*
X16682500Y-9381500I252500J0D01*
G01*
X16177500Y-9129000D02*
X16682500Y-9634000D01*
X16682500Y-9129000D02*
X16177500Y-9634000D01*
X16682500Y-9381500D02*
G75*
G02*
X16177500Y-9381500I-252500J0D01*
G01*
X16177500Y-9381500D02*
G75*
G02*
X16682500Y-9381500I252500J0D01*
G01*
X16177500Y-11777500D02*
X16682500Y-12282500D01*
X16682500Y-11777500D02*
X16177500Y-12282500D01*
X16682500Y-12030000D02*
G75*
G02*
X16177500Y-12030000I-252500J0D01*
G01*
X16177500Y-12030000D02*
G75*
G02*
X16682500Y-12030000I252500J0D01*
G01*
X16177500Y-11777500D02*
X16682500Y-12282500D01*
X16682500Y-11777500D02*
X16177500Y-12282500D01*
X16682500Y-12030000D02*
G75*
G02*
X16177500Y-12030000I-252500J0D01*
G01*
X16177500Y-12030000D02*
G75*
G02*
X16682500Y-12030000I252500J0D01*
G01*
X16287500Y-14027500D02*
X16792500Y-14532500D01*
X16792500Y-14027500D02*
X16287500Y-14532500D01*
X16792500Y-14280000D02*
G75*
G02*
X16287500Y-14280000I-252500J0D01*
G01*
X16287500Y-14280000D02*
G75*
G02*
X16792500Y-14280000I252500J0D01*
G01*
X16287500Y-14027500D02*
X16792500Y-14532500D01*
X16792500Y-14027500D02*
X16287500Y-14532500D01*
X16792500Y-14280000D02*
G75*
G02*
X16287500Y-14280000I-252500J0D01*
G01*
X16287500Y-14280000D02*
G75*
G02*
X16792500Y-14280000I252500J0D01*
G01*
D11*
X4352692Y-15841095D02*
X4352692Y-15641095D01*
X4352692Y-15641095D02*
X4400311Y-15641095D01*
X4400311Y-15641095D02*
X4428883Y-15650619D01*
X4428883Y-15650619D02*
X4447930Y-15669666D01*
X4447930Y-15669666D02*
X4457454Y-15688714D01*
X4457454Y-15688714D02*
X4466978Y-15726809D01*
X4466978Y-15726809D02*
X4466978Y-15755380D01*
X4466978Y-15755380D02*
X4457454Y-15793476D01*
X4457454Y-15793476D02*
X4447930Y-15812523D01*
X4447930Y-15812523D02*
X4428883Y-15831571D01*
X4428883Y-15831571D02*
X4400311Y-15841095D01*
X4400311Y-15841095D02*
X4352692Y-15841095D01*
X4552692Y-15841095D02*
X4552692Y-15707761D01*
X4552692Y-15745857D02*
X4562216Y-15726809D01*
X4562216Y-15726809D02*
X4571740Y-15717285D01*
X4571740Y-15717285D02*
X4590787Y-15707761D01*
X4590787Y-15707761D02*
X4609835Y-15707761D01*
X4676502Y-15841095D02*
X4676502Y-15707761D01*
X4676502Y-15641095D02*
X4666978Y-15650619D01*
X4666978Y-15650619D02*
X4676502Y-15660142D01*
X4676502Y-15660142D02*
X4686025Y-15650619D01*
X4686025Y-15650619D02*
X4676502Y-15641095D01*
X4676502Y-15641095D02*
X4676502Y-15660142D01*
X4800311Y-15841095D02*
X4781264Y-15831571D01*
X4781264Y-15831571D02*
X4771740Y-15812523D01*
X4771740Y-15812523D02*
X4771740Y-15641095D01*
X4905073Y-15841095D02*
X4886025Y-15831571D01*
X4886025Y-15831571D02*
X4876502Y-15812523D01*
X4876502Y-15812523D02*
X4876502Y-15641095D01*
X5133645Y-15841095D02*
X5133645Y-15641095D01*
X5133645Y-15641095D02*
X5200311Y-15783952D01*
X5200311Y-15783952D02*
X5266978Y-15641095D01*
X5266978Y-15641095D02*
X5266978Y-15841095D01*
X5447930Y-15841095D02*
X5447930Y-15736333D01*
X5447930Y-15736333D02*
X5438406Y-15717285D01*
X5438406Y-15717285D02*
X5419359Y-15707761D01*
X5419359Y-15707761D02*
X5381264Y-15707761D01*
X5381264Y-15707761D02*
X5362216Y-15717285D01*
X5447930Y-15831571D02*
X5428883Y-15841095D01*
X5428883Y-15841095D02*
X5381264Y-15841095D01*
X5381264Y-15841095D02*
X5362216Y-15831571D01*
X5362216Y-15831571D02*
X5352692Y-15812523D01*
X5352692Y-15812523D02*
X5352692Y-15793476D01*
X5352692Y-15793476D02*
X5362216Y-15774428D01*
X5362216Y-15774428D02*
X5381264Y-15764904D01*
X5381264Y-15764904D02*
X5428883Y-15764904D01*
X5428883Y-15764904D02*
X5447930Y-15755380D01*
X5543168Y-15707761D02*
X5543168Y-15907761D01*
X5543168Y-15717285D02*
X5562216Y-15707761D01*
X5562216Y-15707761D02*
X5600311Y-15707761D01*
X5600311Y-15707761D02*
X5619359Y-15717285D01*
X5619359Y-15717285D02*
X5628883Y-15726809D01*
X5628883Y-15726809D02*
X5638406Y-15745857D01*
X5638406Y-15745857D02*
X5638406Y-15802999D01*
X5638406Y-15802999D02*
X5628883Y-15822047D01*
X5628883Y-15822047D02*
X5619359Y-15831571D01*
X5619359Y-15831571D02*
X5600311Y-15841095D01*
X5600311Y-15841095D02*
X5562216Y-15841095D01*
X5562216Y-15841095D02*
X5543168Y-15831571D01*
X5724121Y-15822047D02*
X5733644Y-15831571D01*
X5733644Y-15831571D02*
X5724121Y-15841095D01*
X5724121Y-15841095D02*
X5714597Y-15831571D01*
X5714597Y-15831571D02*
X5724121Y-15822047D01*
X5724121Y-15822047D02*
X5724121Y-15841095D01*
X5724121Y-15717285D02*
X5733644Y-15726809D01*
X5733644Y-15726809D02*
X5724121Y-15736333D01*
X5724121Y-15736333D02*
X5714597Y-15726809D01*
X5714597Y-15726809D02*
X5724121Y-15717285D01*
X5724121Y-15717285D02*
X5724121Y-15736333D01*
D12*
X4001915Y-16124611D02*
X4091915Y-16214611D01*
X4091915Y-16124611D02*
X4001915Y-16214611D01*
D11*
X4390787Y-16061095D02*
X4409835Y-16061095D01*
X4409835Y-16061095D02*
X4428883Y-16070619D01*
X4428883Y-16070619D02*
X4438406Y-16080142D01*
X4438406Y-16080142D02*
X4447930Y-16099190D01*
X4447930Y-16099190D02*
X4457454Y-16137285D01*
X4457454Y-16137285D02*
X4457454Y-16184904D01*
X4457454Y-16184904D02*
X4447930Y-16222999D01*
X4447930Y-16222999D02*
X4438406Y-16242047D01*
X4438406Y-16242047D02*
X4428883Y-16251571D01*
X4428883Y-16251571D02*
X4409835Y-16261095D01*
X4409835Y-16261095D02*
X4390787Y-16261095D01*
X4390787Y-16261095D02*
X4371740Y-16251571D01*
X4371740Y-16251571D02*
X4362216Y-16242047D01*
X4362216Y-16242047D02*
X4352692Y-16222999D01*
X4352692Y-16222999D02*
X4343168Y-16184904D01*
X4343168Y-16184904D02*
X4343168Y-16137285D01*
X4343168Y-16137285D02*
X4352692Y-16099190D01*
X4352692Y-16099190D02*
X4362216Y-16080142D01*
X4362216Y-16080142D02*
X4371740Y-16070619D01*
X4371740Y-16070619D02*
X4390787Y-16061095D01*
X4543168Y-16242047D02*
X4552692Y-16251571D01*
X4552692Y-16251571D02*
X4543168Y-16261095D01*
X4543168Y-16261095D02*
X4533645Y-16251571D01*
X4533645Y-16251571D02*
X4543168Y-16242047D01*
X4543168Y-16242047D02*
X4543168Y-16261095D01*
X4647930Y-16261095D02*
X4686025Y-16261095D01*
X4686025Y-16261095D02*
X4705073Y-16251571D01*
X4705073Y-16251571D02*
X4714597Y-16242047D01*
X4714597Y-16242047D02*
X4733645Y-16213476D01*
X4733645Y-16213476D02*
X4743168Y-16175380D01*
X4743168Y-16175380D02*
X4743168Y-16099190D01*
X4743168Y-16099190D02*
X4733645Y-16080142D01*
X4733645Y-16080142D02*
X4724121Y-16070619D01*
X4724121Y-16070619D02*
X4705073Y-16061095D01*
X4705073Y-16061095D02*
X4666978Y-16061095D01*
X4666978Y-16061095D02*
X4647930Y-16070619D01*
X4647930Y-16070619D02*
X4638406Y-16080142D01*
X4638406Y-16080142D02*
X4628883Y-16099190D01*
X4628883Y-16099190D02*
X4628883Y-16146809D01*
X4628883Y-16146809D02*
X4638406Y-16165857D01*
X4638406Y-16165857D02*
X4647930Y-16175380D01*
X4647930Y-16175380D02*
X4666978Y-16184904D01*
X4666978Y-16184904D02*
X4705073Y-16184904D01*
X4705073Y-16184904D02*
X4724121Y-16175380D01*
X4724121Y-16175380D02*
X4733645Y-16165857D01*
X4733645Y-16165857D02*
X4743168Y-16146809D01*
X4866978Y-16061095D02*
X4886026Y-16061095D01*
X4886026Y-16061095D02*
X4905073Y-16070619D01*
X4905073Y-16070619D02*
X4914597Y-16080142D01*
X4914597Y-16080142D02*
X4924121Y-16099190D01*
X4924121Y-16099190D02*
X4933645Y-16137285D01*
X4933645Y-16137285D02*
X4933645Y-16184904D01*
X4933645Y-16184904D02*
X4924121Y-16222999D01*
X4924121Y-16222999D02*
X4914597Y-16242047D01*
X4914597Y-16242047D02*
X4905073Y-16251571D01*
X4905073Y-16251571D02*
X4886026Y-16261095D01*
X4886026Y-16261095D02*
X4866978Y-16261095D01*
X4866978Y-16261095D02*
X4847930Y-16251571D01*
X4847930Y-16251571D02*
X4838406Y-16242047D01*
X4838406Y-16242047D02*
X4828883Y-16222999D01*
X4828883Y-16222999D02*
X4819359Y-16184904D01*
X4819359Y-16184904D02*
X4819359Y-16137285D01*
X4819359Y-16137285D02*
X4828883Y-16099190D01*
X4828883Y-16099190D02*
X4838406Y-16080142D01*
X4838406Y-16080142D02*
X4847930Y-16070619D01*
X4847930Y-16070619D02*
X4866978Y-16061095D01*
X5057454Y-16061095D02*
X5076502Y-16061095D01*
X5076502Y-16061095D02*
X5095549Y-16070619D01*
X5095549Y-16070619D02*
X5105073Y-16080142D01*
X5105073Y-16080142D02*
X5114597Y-16099190D01*
X5114597Y-16099190D02*
X5124121Y-16137285D01*
X5124121Y-16137285D02*
X5124121Y-16184904D01*
X5124121Y-16184904D02*
X5114597Y-16222999D01*
X5114597Y-16222999D02*
X5105073Y-16242047D01*
X5105073Y-16242047D02*
X5095549Y-16251571D01*
X5095549Y-16251571D02*
X5076502Y-16261095D01*
X5076502Y-16261095D02*
X5057454Y-16261095D01*
X5057454Y-16261095D02*
X5038406Y-16251571D01*
X5038406Y-16251571D02*
X5028883Y-16242047D01*
X5028883Y-16242047D02*
X5019359Y-16222999D01*
X5019359Y-16222999D02*
X5009835Y-16184904D01*
X5009835Y-16184904D02*
X5009835Y-16137285D01*
X5009835Y-16137285D02*
X5019359Y-16099190D01*
X5019359Y-16099190D02*
X5028883Y-16080142D01*
X5028883Y-16080142D02*
X5038406Y-16070619D01*
X5038406Y-16070619D02*
X5057454Y-16061095D01*
X5209835Y-16261095D02*
X5209835Y-16127761D01*
X5209835Y-16146809D02*
X5219359Y-16137285D01*
X5219359Y-16137285D02*
X5238406Y-16127761D01*
X5238406Y-16127761D02*
X5266978Y-16127761D01*
X5266978Y-16127761D02*
X5286026Y-16137285D01*
X5286026Y-16137285D02*
X5295549Y-16156333D01*
X5295549Y-16156333D02*
X5295549Y-16261095D01*
X5295549Y-16156333D02*
X5305073Y-16137285D01*
X5305073Y-16137285D02*
X5324121Y-16127761D01*
X5324121Y-16127761D02*
X5352692Y-16127761D01*
X5352692Y-16127761D02*
X5371740Y-16137285D01*
X5371740Y-16137285D02*
X5381264Y-16156333D01*
X5381264Y-16156333D02*
X5381264Y-16261095D01*
X5476502Y-16261095D02*
X5476502Y-16127761D01*
X5476502Y-16146809D02*
X5486026Y-16137285D01*
X5486026Y-16137285D02*
X5505073Y-16127761D01*
X5505073Y-16127761D02*
X5533645Y-16127761D01*
X5533645Y-16127761D02*
X5552692Y-16137285D01*
X5552692Y-16137285D02*
X5562216Y-16156333D01*
X5562216Y-16156333D02*
X5562216Y-16261095D01*
X5562216Y-16156333D02*
X5571740Y-16137285D01*
X5571740Y-16137285D02*
X5590787Y-16127761D01*
X5590787Y-16127761D02*
X5619359Y-16127761D01*
X5619359Y-16127761D02*
X5638406Y-16137285D01*
X5638406Y-16137285D02*
X5647930Y-16156333D01*
X5647930Y-16156333D02*
X5647930Y-16261095D01*
X6038406Y-16051571D02*
X5866978Y-16308714D01*
X6295549Y-16061095D02*
X6314597Y-16061095D01*
X6314597Y-16061095D02*
X6333645Y-16070619D01*
X6333645Y-16070619D02*
X6343168Y-16080142D01*
X6343168Y-16080142D02*
X6352692Y-16099190D01*
X6352692Y-16099190D02*
X6362216Y-16137285D01*
X6362216Y-16137285D02*
X6362216Y-16184904D01*
X6362216Y-16184904D02*
X6352692Y-16222999D01*
X6352692Y-16222999D02*
X6343168Y-16242047D01*
X6343168Y-16242047D02*
X6333645Y-16251571D01*
X6333645Y-16251571D02*
X6314597Y-16261095D01*
X6314597Y-16261095D02*
X6295549Y-16261095D01*
X6295549Y-16261095D02*
X6276502Y-16251571D01*
X6276502Y-16251571D02*
X6266978Y-16242047D01*
X6266978Y-16242047D02*
X6257454Y-16222999D01*
X6257454Y-16222999D02*
X6247930Y-16184904D01*
X6247930Y-16184904D02*
X6247930Y-16137285D01*
X6247930Y-16137285D02*
X6257454Y-16099190D01*
X6257454Y-16099190D02*
X6266978Y-16080142D01*
X6266978Y-16080142D02*
X6276502Y-16070619D01*
X6276502Y-16070619D02*
X6295549Y-16061095D01*
X6447930Y-16242047D02*
X6457454Y-16251571D01*
X6457454Y-16251571D02*
X6447930Y-16261095D01*
X6447930Y-16261095D02*
X6438407Y-16251571D01*
X6438407Y-16251571D02*
X6447930Y-16242047D01*
X6447930Y-16242047D02*
X6447930Y-16261095D01*
X6581264Y-16061095D02*
X6600311Y-16061095D01*
X6600311Y-16061095D02*
X6619359Y-16070619D01*
X6619359Y-16070619D02*
X6628883Y-16080142D01*
X6628883Y-16080142D02*
X6638407Y-16099190D01*
X6638407Y-16099190D02*
X6647930Y-16137285D01*
X6647930Y-16137285D02*
X6647930Y-16184904D01*
X6647930Y-16184904D02*
X6638407Y-16222999D01*
X6638407Y-16222999D02*
X6628883Y-16242047D01*
X6628883Y-16242047D02*
X6619359Y-16251571D01*
X6619359Y-16251571D02*
X6600311Y-16261095D01*
X6600311Y-16261095D02*
X6581264Y-16261095D01*
X6581264Y-16261095D02*
X6562216Y-16251571D01*
X6562216Y-16251571D02*
X6552692Y-16242047D01*
X6552692Y-16242047D02*
X6543168Y-16222999D01*
X6543168Y-16222999D02*
X6533645Y-16184904D01*
X6533645Y-16184904D02*
X6533645Y-16137285D01*
X6533645Y-16137285D02*
X6543168Y-16099190D01*
X6543168Y-16099190D02*
X6552692Y-16080142D01*
X6552692Y-16080142D02*
X6562216Y-16070619D01*
X6562216Y-16070619D02*
X6581264Y-16061095D01*
X6714597Y-16061095D02*
X6838407Y-16061095D01*
X6838407Y-16061095D02*
X6771740Y-16137285D01*
X6771740Y-16137285D02*
X6800311Y-16137285D01*
X6800311Y-16137285D02*
X6819359Y-16146809D01*
X6819359Y-16146809D02*
X6828883Y-16156333D01*
X6828883Y-16156333D02*
X6838407Y-16175380D01*
X6838407Y-16175380D02*
X6838407Y-16222999D01*
X6838407Y-16222999D02*
X6828883Y-16242047D01*
X6828883Y-16242047D02*
X6819359Y-16251571D01*
X6819359Y-16251571D02*
X6800311Y-16261095D01*
X6800311Y-16261095D02*
X6743168Y-16261095D01*
X6743168Y-16261095D02*
X6724121Y-16251571D01*
X6724121Y-16251571D02*
X6714597Y-16242047D01*
X7019359Y-16061095D02*
X6924121Y-16061095D01*
X6924121Y-16061095D02*
X6914597Y-16156333D01*
X6914597Y-16156333D02*
X6924121Y-16146809D01*
X6924121Y-16146809D02*
X6943168Y-16137285D01*
X6943168Y-16137285D02*
X6990788Y-16137285D01*
X6990788Y-16137285D02*
X7009835Y-16146809D01*
X7009835Y-16146809D02*
X7019359Y-16156333D01*
X7019359Y-16156333D02*
X7028883Y-16175380D01*
X7028883Y-16175380D02*
X7028883Y-16222999D01*
X7028883Y-16222999D02*
X7019359Y-16242047D01*
X7019359Y-16242047D02*
X7009835Y-16251571D01*
X7009835Y-16251571D02*
X6990788Y-16261095D01*
X6990788Y-16261095D02*
X6943168Y-16261095D01*
X6943168Y-16261095D02*
X6924121Y-16251571D01*
X6924121Y-16251571D02*
X6914597Y-16242047D01*
X7200311Y-16127761D02*
X7200311Y-16261095D01*
X7152692Y-16051571D02*
X7105073Y-16194428D01*
X7105073Y-16194428D02*
X7228883Y-16194428D01*
X7295549Y-16061095D02*
X7295549Y-16099190D01*
X7371740Y-16061095D02*
X7371740Y-16099190D01*
X7666978Y-16337285D02*
X7657454Y-16327761D01*
X7657454Y-16327761D02*
X7638407Y-16299190D01*
X7638407Y-16299190D02*
X7628883Y-16280142D01*
X7628883Y-16280142D02*
X7619359Y-16251571D01*
X7619359Y-16251571D02*
X7609835Y-16203952D01*
X7609835Y-16203952D02*
X7609835Y-16165857D01*
X7609835Y-16165857D02*
X7619359Y-16118238D01*
X7619359Y-16118238D02*
X7628883Y-16089666D01*
X7628883Y-16089666D02*
X7638407Y-16070619D01*
X7638407Y-16070619D02*
X7657454Y-16042047D01*
X7657454Y-16042047D02*
X7666978Y-16032523D01*
X7828883Y-16127761D02*
X7828883Y-16261095D01*
X7781264Y-16051571D02*
X7733645Y-16194428D01*
X7733645Y-16194428D02*
X7857454Y-16194428D01*
X8086026Y-16261095D02*
X8086026Y-16061095D01*
X8171740Y-16261095D02*
X8171740Y-16156333D01*
X8171740Y-16156333D02*
X8162216Y-16137285D01*
X8162216Y-16137285D02*
X8143169Y-16127761D01*
X8143169Y-16127761D02*
X8114597Y-16127761D01*
X8114597Y-16127761D02*
X8095550Y-16137285D01*
X8095550Y-16137285D02*
X8086026Y-16146809D01*
X8295550Y-16261095D02*
X8276502Y-16251571D01*
X8276502Y-16251571D02*
X8266978Y-16242047D01*
X8266978Y-16242047D02*
X8257454Y-16222999D01*
X8257454Y-16222999D02*
X8257454Y-16165857D01*
X8257454Y-16165857D02*
X8266978Y-16146809D01*
X8266978Y-16146809D02*
X8276502Y-16137285D01*
X8276502Y-16137285D02*
X8295550Y-16127761D01*
X8295550Y-16127761D02*
X8324121Y-16127761D01*
X8324121Y-16127761D02*
X8343169Y-16137285D01*
X8343169Y-16137285D02*
X8352692Y-16146809D01*
X8352692Y-16146809D02*
X8362216Y-16165857D01*
X8362216Y-16165857D02*
X8362216Y-16222999D01*
X8362216Y-16222999D02*
X8352692Y-16242047D01*
X8352692Y-16242047D02*
X8343169Y-16251571D01*
X8343169Y-16251571D02*
X8324121Y-16261095D01*
X8324121Y-16261095D02*
X8295550Y-16261095D01*
X8476502Y-16261095D02*
X8457454Y-16251571D01*
X8457454Y-16251571D02*
X8447931Y-16232523D01*
X8447931Y-16232523D02*
X8447931Y-16061095D01*
X8628883Y-16251571D02*
X8609835Y-16261095D01*
X8609835Y-16261095D02*
X8571740Y-16261095D01*
X8571740Y-16261095D02*
X8552693Y-16251571D01*
X8552693Y-16251571D02*
X8543169Y-16232523D01*
X8543169Y-16232523D02*
X8543169Y-16156333D01*
X8543169Y-16156333D02*
X8552693Y-16137285D01*
X8552693Y-16137285D02*
X8571740Y-16127761D01*
X8571740Y-16127761D02*
X8609835Y-16127761D01*
X8609835Y-16127761D02*
X8628883Y-16137285D01*
X8628883Y-16137285D02*
X8638407Y-16156333D01*
X8638407Y-16156333D02*
X8638407Y-16175380D01*
X8638407Y-16175380D02*
X8543169Y-16194428D01*
X8714597Y-16251571D02*
X8733645Y-16261095D01*
X8733645Y-16261095D02*
X8771740Y-16261095D01*
X8771740Y-16261095D02*
X8790788Y-16251571D01*
X8790788Y-16251571D02*
X8800312Y-16232523D01*
X8800312Y-16232523D02*
X8800312Y-16222999D01*
X8800312Y-16222999D02*
X8790788Y-16203952D01*
X8790788Y-16203952D02*
X8771740Y-16194428D01*
X8771740Y-16194428D02*
X8743169Y-16194428D01*
X8743169Y-16194428D02*
X8724121Y-16184904D01*
X8724121Y-16184904D02*
X8714597Y-16165857D01*
X8714597Y-16165857D02*
X8714597Y-16156333D01*
X8714597Y-16156333D02*
X8724121Y-16137285D01*
X8724121Y-16137285D02*
X8743169Y-16127761D01*
X8743169Y-16127761D02*
X8771740Y-16127761D01*
X8771740Y-16127761D02*
X8790788Y-16137285D01*
X8866978Y-16337285D02*
X8876502Y-16327761D01*
X8876502Y-16327761D02*
X8895550Y-16299190D01*
X8895550Y-16299190D02*
X8905074Y-16280142D01*
X8905074Y-16280142D02*
X8914597Y-16251571D01*
X8914597Y-16251571D02*
X8924121Y-16203952D01*
X8924121Y-16203952D02*
X8924121Y-16165857D01*
X8924121Y-16165857D02*
X8914597Y-16118238D01*
X8914597Y-16118238D02*
X8905074Y-16089666D01*
X8905074Y-16089666D02*
X8895550Y-16070619D01*
X8895550Y-16070619D02*
X8876502Y-16042047D01*
X8876502Y-16042047D02*
X8866978Y-16032523D01*
X9228883Y-16337285D02*
X9219359Y-16327761D01*
X9219359Y-16327761D02*
X9200312Y-16299190D01*
X9200312Y-16299190D02*
X9190788Y-16280142D01*
X9190788Y-16280142D02*
X9181264Y-16251571D01*
X9181264Y-16251571D02*
X9171740Y-16203952D01*
X9171740Y-16203952D02*
X9171740Y-16165857D01*
X9171740Y-16165857D02*
X9181264Y-16118238D01*
X9181264Y-16118238D02*
X9190788Y-16089666D01*
X9190788Y-16089666D02*
X9200312Y-16070619D01*
X9200312Y-16070619D02*
X9219359Y-16042047D01*
X9219359Y-16042047D02*
X9228883Y-16032523D01*
X9305074Y-16127761D02*
X9305074Y-16261095D01*
X9305074Y-16146809D02*
X9314597Y-16137285D01*
X9314597Y-16137285D02*
X9333645Y-16127761D01*
X9333645Y-16127761D02*
X9362216Y-16127761D01*
X9362216Y-16127761D02*
X9381264Y-16137285D01*
X9381264Y-16137285D02*
X9390788Y-16156333D01*
X9390788Y-16156333D02*
X9390788Y-16261095D01*
X9514597Y-16261095D02*
X9495550Y-16251571D01*
X9495550Y-16251571D02*
X9486026Y-16242047D01*
X9486026Y-16242047D02*
X9476502Y-16222999D01*
X9476502Y-16222999D02*
X9476502Y-16165857D01*
X9476502Y-16165857D02*
X9486026Y-16146809D01*
X9486026Y-16146809D02*
X9495550Y-16137285D01*
X9495550Y-16137285D02*
X9514597Y-16127761D01*
X9514597Y-16127761D02*
X9543169Y-16127761D01*
X9543169Y-16127761D02*
X9562216Y-16137285D01*
X9562216Y-16137285D02*
X9571740Y-16146809D01*
X9571740Y-16146809D02*
X9581264Y-16165857D01*
X9581264Y-16165857D02*
X9581264Y-16222999D01*
X9581264Y-16222999D02*
X9571740Y-16242047D01*
X9571740Y-16242047D02*
X9562216Y-16251571D01*
X9562216Y-16251571D02*
X9543169Y-16261095D01*
X9543169Y-16261095D02*
X9514597Y-16261095D01*
X9638407Y-16127761D02*
X9714597Y-16127761D01*
X9666978Y-16061095D02*
X9666978Y-16232523D01*
X9666978Y-16232523D02*
X9676502Y-16251571D01*
X9676502Y-16251571D02*
X9695550Y-16261095D01*
X9695550Y-16261095D02*
X9714597Y-16261095D01*
X9933645Y-16127761D02*
X9933645Y-16327761D01*
X9933645Y-16137285D02*
X9952693Y-16127761D01*
X9952693Y-16127761D02*
X9990788Y-16127761D01*
X9990788Y-16127761D02*
X10009836Y-16137285D01*
X10009836Y-16137285D02*
X10019359Y-16146809D01*
X10019359Y-16146809D02*
X10028883Y-16165857D01*
X10028883Y-16165857D02*
X10028883Y-16222999D01*
X10028883Y-16222999D02*
X10019359Y-16242047D01*
X10019359Y-16242047D02*
X10009836Y-16251571D01*
X10009836Y-16251571D02*
X9990788Y-16261095D01*
X9990788Y-16261095D02*
X9952693Y-16261095D01*
X9952693Y-16261095D02*
X9933645Y-16251571D01*
X10143169Y-16261095D02*
X10124121Y-16251571D01*
X10124121Y-16251571D02*
X10114597Y-16232523D01*
X10114597Y-16232523D02*
X10114597Y-16061095D01*
X10305074Y-16261095D02*
X10305074Y-16156333D01*
X10305074Y-16156333D02*
X10295550Y-16137285D01*
X10295550Y-16137285D02*
X10276502Y-16127761D01*
X10276502Y-16127761D02*
X10238407Y-16127761D01*
X10238407Y-16127761D02*
X10219359Y-16137285D01*
X10305074Y-16251571D02*
X10286026Y-16261095D01*
X10286026Y-16261095D02*
X10238407Y-16261095D01*
X10238407Y-16261095D02*
X10219359Y-16251571D01*
X10219359Y-16251571D02*
X10209836Y-16232523D01*
X10209836Y-16232523D02*
X10209836Y-16213476D01*
X10209836Y-16213476D02*
X10219359Y-16194428D01*
X10219359Y-16194428D02*
X10238407Y-16184904D01*
X10238407Y-16184904D02*
X10286026Y-16184904D01*
X10286026Y-16184904D02*
X10305074Y-16175380D01*
X10371740Y-16127761D02*
X10447931Y-16127761D01*
X10400312Y-16061095D02*
X10400312Y-16232523D01*
X10400312Y-16232523D02*
X10409836Y-16251571D01*
X10409836Y-16251571D02*
X10428883Y-16261095D01*
X10428883Y-16261095D02*
X10447931Y-16261095D01*
X10590788Y-16251571D02*
X10571740Y-16261095D01*
X10571740Y-16261095D02*
X10533645Y-16261095D01*
X10533645Y-16261095D02*
X10514597Y-16251571D01*
X10514597Y-16251571D02*
X10505074Y-16232523D01*
X10505074Y-16232523D02*
X10505074Y-16156333D01*
X10505074Y-16156333D02*
X10514597Y-16137285D01*
X10514597Y-16137285D02*
X10533645Y-16127761D01*
X10533645Y-16127761D02*
X10571740Y-16127761D01*
X10571740Y-16127761D02*
X10590788Y-16137285D01*
X10590788Y-16137285D02*
X10600312Y-16156333D01*
X10600312Y-16156333D02*
X10600312Y-16175380D01*
X10600312Y-16175380D02*
X10505074Y-16194428D01*
X10771740Y-16261095D02*
X10771740Y-16061095D01*
X10771740Y-16251571D02*
X10752693Y-16261095D01*
X10752693Y-16261095D02*
X10714597Y-16261095D01*
X10714597Y-16261095D02*
X10695550Y-16251571D01*
X10695550Y-16251571D02*
X10686026Y-16242047D01*
X10686026Y-16242047D02*
X10676502Y-16222999D01*
X10676502Y-16222999D02*
X10676502Y-16165857D01*
X10676502Y-16165857D02*
X10686026Y-16146809D01*
X10686026Y-16146809D02*
X10695550Y-16137285D01*
X10695550Y-16137285D02*
X10714597Y-16127761D01*
X10714597Y-16127761D02*
X10752693Y-16127761D01*
X10752693Y-16127761D02*
X10771740Y-16137285D01*
X10847931Y-16337285D02*
X10857455Y-16327761D01*
X10857455Y-16327761D02*
X10876502Y-16299190D01*
X10876502Y-16299190D02*
X10886026Y-16280142D01*
X10886026Y-16280142D02*
X10895550Y-16251571D01*
X10895550Y-16251571D02*
X10905074Y-16203952D01*
X10905074Y-16203952D02*
X10905074Y-16165857D01*
X10905074Y-16165857D02*
X10895550Y-16118238D01*
X10895550Y-16118238D02*
X10886026Y-16089666D01*
X10886026Y-16089666D02*
X10876502Y-16070619D01*
X10876502Y-16070619D02*
X10857455Y-16042047D01*
X10857455Y-16042047D02*
X10847931Y-16032523D01*
D13*
X4091915Y-16433611D02*
G75*
G02*
X3901915Y-16433611I-95000J0D01*
G01*
X3901915Y-16433611D02*
G75*
G02*
X4091915Y-16433611I95000J0D01*
G01*
D11*
X4457454Y-16525095D02*
X4343168Y-16525095D01*
X4400311Y-16525095D02*
X4400311Y-16325095D01*
X4400311Y-16325095D02*
X4381264Y-16353666D01*
X4381264Y-16353666D02*
X4362216Y-16372714D01*
X4362216Y-16372714D02*
X4343168Y-16382238D01*
X4543168Y-16506047D02*
X4552692Y-16515571D01*
X4552692Y-16515571D02*
X4543168Y-16525095D01*
X4543168Y-16525095D02*
X4533645Y-16515571D01*
X4533645Y-16515571D02*
X4543168Y-16506047D01*
X4543168Y-16506047D02*
X4543168Y-16525095D01*
X4647930Y-16525095D02*
X4686025Y-16525095D01*
X4686025Y-16525095D02*
X4705073Y-16515571D01*
X4705073Y-16515571D02*
X4714597Y-16506047D01*
X4714597Y-16506047D02*
X4733645Y-16477476D01*
X4733645Y-16477476D02*
X4743168Y-16439380D01*
X4743168Y-16439380D02*
X4743168Y-16363190D01*
X4743168Y-16363190D02*
X4733645Y-16344142D01*
X4733645Y-16344142D02*
X4724121Y-16334619D01*
X4724121Y-16334619D02*
X4705073Y-16325095D01*
X4705073Y-16325095D02*
X4666978Y-16325095D01*
X4666978Y-16325095D02*
X4647930Y-16334619D01*
X4647930Y-16334619D02*
X4638406Y-16344142D01*
X4638406Y-16344142D02*
X4628883Y-16363190D01*
X4628883Y-16363190D02*
X4628883Y-16410809D01*
X4628883Y-16410809D02*
X4638406Y-16429857D01*
X4638406Y-16429857D02*
X4647930Y-16439380D01*
X4647930Y-16439380D02*
X4666978Y-16448904D01*
X4666978Y-16448904D02*
X4705073Y-16448904D01*
X4705073Y-16448904D02*
X4724121Y-16439380D01*
X4724121Y-16439380D02*
X4733645Y-16429857D01*
X4733645Y-16429857D02*
X4743168Y-16410809D01*
X4866978Y-16325095D02*
X4886026Y-16325095D01*
X4886026Y-16325095D02*
X4905073Y-16334619D01*
X4905073Y-16334619D02*
X4914597Y-16344142D01*
X4914597Y-16344142D02*
X4924121Y-16363190D01*
X4924121Y-16363190D02*
X4933645Y-16401285D01*
X4933645Y-16401285D02*
X4933645Y-16448904D01*
X4933645Y-16448904D02*
X4924121Y-16486999D01*
X4924121Y-16486999D02*
X4914597Y-16506047D01*
X4914597Y-16506047D02*
X4905073Y-16515571D01*
X4905073Y-16515571D02*
X4886026Y-16525095D01*
X4886026Y-16525095D02*
X4866978Y-16525095D01*
X4866978Y-16525095D02*
X4847930Y-16515571D01*
X4847930Y-16515571D02*
X4838406Y-16506047D01*
X4838406Y-16506047D02*
X4828883Y-16486999D01*
X4828883Y-16486999D02*
X4819359Y-16448904D01*
X4819359Y-16448904D02*
X4819359Y-16401285D01*
X4819359Y-16401285D02*
X4828883Y-16363190D01*
X4828883Y-16363190D02*
X4838406Y-16344142D01*
X4838406Y-16344142D02*
X4847930Y-16334619D01*
X4847930Y-16334619D02*
X4866978Y-16325095D01*
X5057454Y-16325095D02*
X5076502Y-16325095D01*
X5076502Y-16325095D02*
X5095549Y-16334619D01*
X5095549Y-16334619D02*
X5105073Y-16344142D01*
X5105073Y-16344142D02*
X5114597Y-16363190D01*
X5114597Y-16363190D02*
X5124121Y-16401285D01*
X5124121Y-16401285D02*
X5124121Y-16448904D01*
X5124121Y-16448904D02*
X5114597Y-16486999D01*
X5114597Y-16486999D02*
X5105073Y-16506047D01*
X5105073Y-16506047D02*
X5095549Y-16515571D01*
X5095549Y-16515571D02*
X5076502Y-16525095D01*
X5076502Y-16525095D02*
X5057454Y-16525095D01*
X5057454Y-16525095D02*
X5038406Y-16515571D01*
X5038406Y-16515571D02*
X5028883Y-16506047D01*
X5028883Y-16506047D02*
X5019359Y-16486999D01*
X5019359Y-16486999D02*
X5009835Y-16448904D01*
X5009835Y-16448904D02*
X5009835Y-16401285D01*
X5009835Y-16401285D02*
X5019359Y-16363190D01*
X5019359Y-16363190D02*
X5028883Y-16344142D01*
X5028883Y-16344142D02*
X5038406Y-16334619D01*
X5038406Y-16334619D02*
X5057454Y-16325095D01*
X5209835Y-16525095D02*
X5209835Y-16391761D01*
X5209835Y-16410809D02*
X5219359Y-16401285D01*
X5219359Y-16401285D02*
X5238406Y-16391761D01*
X5238406Y-16391761D02*
X5266978Y-16391761D01*
X5266978Y-16391761D02*
X5286026Y-16401285D01*
X5286026Y-16401285D02*
X5295549Y-16420333D01*
X5295549Y-16420333D02*
X5295549Y-16525095D01*
X5295549Y-16420333D02*
X5305073Y-16401285D01*
X5305073Y-16401285D02*
X5324121Y-16391761D01*
X5324121Y-16391761D02*
X5352692Y-16391761D01*
X5352692Y-16391761D02*
X5371740Y-16401285D01*
X5371740Y-16401285D02*
X5381264Y-16420333D01*
X5381264Y-16420333D02*
X5381264Y-16525095D01*
X5476502Y-16525095D02*
X5476502Y-16391761D01*
X5476502Y-16410809D02*
X5486026Y-16401285D01*
X5486026Y-16401285D02*
X5505073Y-16391761D01*
X5505073Y-16391761D02*
X5533645Y-16391761D01*
X5533645Y-16391761D02*
X5552692Y-16401285D01*
X5552692Y-16401285D02*
X5562216Y-16420333D01*
X5562216Y-16420333D02*
X5562216Y-16525095D01*
X5562216Y-16420333D02*
X5571740Y-16401285D01*
X5571740Y-16401285D02*
X5590787Y-16391761D01*
X5590787Y-16391761D02*
X5619359Y-16391761D01*
X5619359Y-16391761D02*
X5638406Y-16401285D01*
X5638406Y-16401285D02*
X5647930Y-16420333D01*
X5647930Y-16420333D02*
X5647930Y-16525095D01*
X6038406Y-16315571D02*
X5866978Y-16572714D01*
X6295549Y-16325095D02*
X6314597Y-16325095D01*
X6314597Y-16325095D02*
X6333645Y-16334619D01*
X6333645Y-16334619D02*
X6343168Y-16344142D01*
X6343168Y-16344142D02*
X6352692Y-16363190D01*
X6352692Y-16363190D02*
X6362216Y-16401285D01*
X6362216Y-16401285D02*
X6362216Y-16448904D01*
X6362216Y-16448904D02*
X6352692Y-16486999D01*
X6352692Y-16486999D02*
X6343168Y-16506047D01*
X6343168Y-16506047D02*
X6333645Y-16515571D01*
X6333645Y-16515571D02*
X6314597Y-16525095D01*
X6314597Y-16525095D02*
X6295549Y-16525095D01*
X6295549Y-16525095D02*
X6276502Y-16515571D01*
X6276502Y-16515571D02*
X6266978Y-16506047D01*
X6266978Y-16506047D02*
X6257454Y-16486999D01*
X6257454Y-16486999D02*
X6247930Y-16448904D01*
X6247930Y-16448904D02*
X6247930Y-16401285D01*
X6247930Y-16401285D02*
X6257454Y-16363190D01*
X6257454Y-16363190D02*
X6266978Y-16344142D01*
X6266978Y-16344142D02*
X6276502Y-16334619D01*
X6276502Y-16334619D02*
X6295549Y-16325095D01*
X6447930Y-16506047D02*
X6457454Y-16515571D01*
X6457454Y-16515571D02*
X6447930Y-16525095D01*
X6447930Y-16525095D02*
X6438407Y-16515571D01*
X6438407Y-16515571D02*
X6447930Y-16506047D01*
X6447930Y-16506047D02*
X6447930Y-16525095D01*
X6581264Y-16325095D02*
X6600311Y-16325095D01*
X6600311Y-16325095D02*
X6619359Y-16334619D01*
X6619359Y-16334619D02*
X6628883Y-16344142D01*
X6628883Y-16344142D02*
X6638407Y-16363190D01*
X6638407Y-16363190D02*
X6647930Y-16401285D01*
X6647930Y-16401285D02*
X6647930Y-16448904D01*
X6647930Y-16448904D02*
X6638407Y-16486999D01*
X6638407Y-16486999D02*
X6628883Y-16506047D01*
X6628883Y-16506047D02*
X6619359Y-16515571D01*
X6619359Y-16515571D02*
X6600311Y-16525095D01*
X6600311Y-16525095D02*
X6581264Y-16525095D01*
X6581264Y-16525095D02*
X6562216Y-16515571D01*
X6562216Y-16515571D02*
X6552692Y-16506047D01*
X6552692Y-16506047D02*
X6543168Y-16486999D01*
X6543168Y-16486999D02*
X6533645Y-16448904D01*
X6533645Y-16448904D02*
X6533645Y-16401285D01*
X6533645Y-16401285D02*
X6543168Y-16363190D01*
X6543168Y-16363190D02*
X6552692Y-16344142D01*
X6552692Y-16344142D02*
X6562216Y-16334619D01*
X6562216Y-16334619D02*
X6581264Y-16325095D01*
X6714597Y-16325095D02*
X6847930Y-16325095D01*
X6847930Y-16325095D02*
X6762216Y-16525095D01*
X7009835Y-16391761D02*
X7009835Y-16525095D01*
X6962216Y-16315571D02*
X6914597Y-16458428D01*
X6914597Y-16458428D02*
X7038407Y-16458428D01*
X7143168Y-16410809D02*
X7124121Y-16401285D01*
X7124121Y-16401285D02*
X7114597Y-16391761D01*
X7114597Y-16391761D02*
X7105073Y-16372714D01*
X7105073Y-16372714D02*
X7105073Y-16363190D01*
X7105073Y-16363190D02*
X7114597Y-16344142D01*
X7114597Y-16344142D02*
X7124121Y-16334619D01*
X7124121Y-16334619D02*
X7143168Y-16325095D01*
X7143168Y-16325095D02*
X7181264Y-16325095D01*
X7181264Y-16325095D02*
X7200311Y-16334619D01*
X7200311Y-16334619D02*
X7209835Y-16344142D01*
X7209835Y-16344142D02*
X7219359Y-16363190D01*
X7219359Y-16363190D02*
X7219359Y-16372714D01*
X7219359Y-16372714D02*
X7209835Y-16391761D01*
X7209835Y-16391761D02*
X7200311Y-16401285D01*
X7200311Y-16401285D02*
X7181264Y-16410809D01*
X7181264Y-16410809D02*
X7143168Y-16410809D01*
X7143168Y-16410809D02*
X7124121Y-16420333D01*
X7124121Y-16420333D02*
X7114597Y-16429857D01*
X7114597Y-16429857D02*
X7105073Y-16448904D01*
X7105073Y-16448904D02*
X7105073Y-16486999D01*
X7105073Y-16486999D02*
X7114597Y-16506047D01*
X7114597Y-16506047D02*
X7124121Y-16515571D01*
X7124121Y-16515571D02*
X7143168Y-16525095D01*
X7143168Y-16525095D02*
X7181264Y-16525095D01*
X7181264Y-16525095D02*
X7200311Y-16515571D01*
X7200311Y-16515571D02*
X7209835Y-16506047D01*
X7209835Y-16506047D02*
X7219359Y-16486999D01*
X7219359Y-16486999D02*
X7219359Y-16448904D01*
X7219359Y-16448904D02*
X7209835Y-16429857D01*
X7209835Y-16429857D02*
X7200311Y-16420333D01*
X7200311Y-16420333D02*
X7181264Y-16410809D01*
X7295549Y-16325095D02*
X7295549Y-16363190D01*
X7371740Y-16325095D02*
X7371740Y-16363190D01*
X7666978Y-16601285D02*
X7657454Y-16591761D01*
X7657454Y-16591761D02*
X7638407Y-16563190D01*
X7638407Y-16563190D02*
X7628883Y-16544142D01*
X7628883Y-16544142D02*
X7619359Y-16515571D01*
X7619359Y-16515571D02*
X7609835Y-16467952D01*
X7609835Y-16467952D02*
X7609835Y-16429857D01*
X7609835Y-16429857D02*
X7619359Y-16382238D01*
X7619359Y-16382238D02*
X7628883Y-16353666D01*
X7628883Y-16353666D02*
X7638407Y-16334619D01*
X7638407Y-16334619D02*
X7657454Y-16306047D01*
X7657454Y-16306047D02*
X7666978Y-16296523D01*
X7847930Y-16525095D02*
X7733645Y-16525095D01*
X7790788Y-16525095D02*
X7790788Y-16325095D01*
X7790788Y-16325095D02*
X7771740Y-16353666D01*
X7771740Y-16353666D02*
X7752692Y-16372714D01*
X7752692Y-16372714D02*
X7733645Y-16382238D01*
X7971740Y-16325095D02*
X7990788Y-16325095D01*
X7990788Y-16325095D02*
X8009835Y-16334619D01*
X8009835Y-16334619D02*
X8019359Y-16344142D01*
X8019359Y-16344142D02*
X8028883Y-16363190D01*
X8028883Y-16363190D02*
X8038407Y-16401285D01*
X8038407Y-16401285D02*
X8038407Y-16448904D01*
X8038407Y-16448904D02*
X8028883Y-16486999D01*
X8028883Y-16486999D02*
X8019359Y-16506047D01*
X8019359Y-16506047D02*
X8009835Y-16515571D01*
X8009835Y-16515571D02*
X7990788Y-16525095D01*
X7990788Y-16525095D02*
X7971740Y-16525095D01*
X7971740Y-16525095D02*
X7952692Y-16515571D01*
X7952692Y-16515571D02*
X7943169Y-16506047D01*
X7943169Y-16506047D02*
X7933645Y-16486999D01*
X7933645Y-16486999D02*
X7924121Y-16448904D01*
X7924121Y-16448904D02*
X7924121Y-16401285D01*
X7924121Y-16401285D02*
X7933645Y-16363190D01*
X7933645Y-16363190D02*
X7943169Y-16344142D01*
X7943169Y-16344142D02*
X7952692Y-16334619D01*
X7952692Y-16334619D02*
X7971740Y-16325095D01*
X8162216Y-16325095D02*
X8181264Y-16325095D01*
X8181264Y-16325095D02*
X8200311Y-16334619D01*
X8200311Y-16334619D02*
X8209835Y-16344142D01*
X8209835Y-16344142D02*
X8219359Y-16363190D01*
X8219359Y-16363190D02*
X8228883Y-16401285D01*
X8228883Y-16401285D02*
X8228883Y-16448904D01*
X8228883Y-16448904D02*
X8219359Y-16486999D01*
X8219359Y-16486999D02*
X8209835Y-16506047D01*
X8209835Y-16506047D02*
X8200311Y-16515571D01*
X8200311Y-16515571D02*
X8181264Y-16525095D01*
X8181264Y-16525095D02*
X8162216Y-16525095D01*
X8162216Y-16525095D02*
X8143169Y-16515571D01*
X8143169Y-16515571D02*
X8133645Y-16506047D01*
X8133645Y-16506047D02*
X8124121Y-16486999D01*
X8124121Y-16486999D02*
X8114597Y-16448904D01*
X8114597Y-16448904D02*
X8114597Y-16401285D01*
X8114597Y-16401285D02*
X8124121Y-16363190D01*
X8124121Y-16363190D02*
X8133645Y-16344142D01*
X8133645Y-16344142D02*
X8143169Y-16334619D01*
X8143169Y-16334619D02*
X8162216Y-16325095D01*
X8466978Y-16525095D02*
X8466978Y-16325095D01*
X8552693Y-16525095D02*
X8552693Y-16420333D01*
X8552693Y-16420333D02*
X8543169Y-16401285D01*
X8543169Y-16401285D02*
X8524121Y-16391761D01*
X8524121Y-16391761D02*
X8495550Y-16391761D01*
X8495550Y-16391761D02*
X8476502Y-16401285D01*
X8476502Y-16401285D02*
X8466978Y-16410809D01*
X8676502Y-16525095D02*
X8657454Y-16515571D01*
X8657454Y-16515571D02*
X8647931Y-16506047D01*
X8647931Y-16506047D02*
X8638407Y-16486999D01*
X8638407Y-16486999D02*
X8638407Y-16429857D01*
X8638407Y-16429857D02*
X8647931Y-16410809D01*
X8647931Y-16410809D02*
X8657454Y-16401285D01*
X8657454Y-16401285D02*
X8676502Y-16391761D01*
X8676502Y-16391761D02*
X8705074Y-16391761D01*
X8705074Y-16391761D02*
X8724121Y-16401285D01*
X8724121Y-16401285D02*
X8733645Y-16410809D01*
X8733645Y-16410809D02*
X8743169Y-16429857D01*
X8743169Y-16429857D02*
X8743169Y-16486999D01*
X8743169Y-16486999D02*
X8733645Y-16506047D01*
X8733645Y-16506047D02*
X8724121Y-16515571D01*
X8724121Y-16515571D02*
X8705074Y-16525095D01*
X8705074Y-16525095D02*
X8676502Y-16525095D01*
X8857454Y-16525095D02*
X8838407Y-16515571D01*
X8838407Y-16515571D02*
X8828883Y-16496523D01*
X8828883Y-16496523D02*
X8828883Y-16325095D01*
X9009835Y-16515571D02*
X8990788Y-16525095D01*
X8990788Y-16525095D02*
X8952693Y-16525095D01*
X8952693Y-16525095D02*
X8933645Y-16515571D01*
X8933645Y-16515571D02*
X8924121Y-16496523D01*
X8924121Y-16496523D02*
X8924121Y-16420333D01*
X8924121Y-16420333D02*
X8933645Y-16401285D01*
X8933645Y-16401285D02*
X8952693Y-16391761D01*
X8952693Y-16391761D02*
X8990788Y-16391761D01*
X8990788Y-16391761D02*
X9009835Y-16401285D01*
X9009835Y-16401285D02*
X9019359Y-16420333D01*
X9019359Y-16420333D02*
X9019359Y-16439380D01*
X9019359Y-16439380D02*
X8924121Y-16458428D01*
X9095550Y-16515571D02*
X9114597Y-16525095D01*
X9114597Y-16525095D02*
X9152693Y-16525095D01*
X9152693Y-16525095D02*
X9171740Y-16515571D01*
X9171740Y-16515571D02*
X9181264Y-16496523D01*
X9181264Y-16496523D02*
X9181264Y-16486999D01*
X9181264Y-16486999D02*
X9171740Y-16467952D01*
X9171740Y-16467952D02*
X9152693Y-16458428D01*
X9152693Y-16458428D02*
X9124121Y-16458428D01*
X9124121Y-16458428D02*
X9105074Y-16448904D01*
X9105074Y-16448904D02*
X9095550Y-16429857D01*
X9095550Y-16429857D02*
X9095550Y-16420333D01*
X9095550Y-16420333D02*
X9105074Y-16401285D01*
X9105074Y-16401285D02*
X9124121Y-16391761D01*
X9124121Y-16391761D02*
X9152693Y-16391761D01*
X9152693Y-16391761D02*
X9171740Y-16401285D01*
X9247931Y-16601285D02*
X9257455Y-16591761D01*
X9257455Y-16591761D02*
X9276502Y-16563190D01*
X9276502Y-16563190D02*
X9286026Y-16544142D01*
X9286026Y-16544142D02*
X9295550Y-16515571D01*
X9295550Y-16515571D02*
X9305074Y-16467952D01*
X9305074Y-16467952D02*
X9305074Y-16429857D01*
X9305074Y-16429857D02*
X9295550Y-16382238D01*
X9295550Y-16382238D02*
X9286026Y-16353666D01*
X9286026Y-16353666D02*
X9276502Y-16334619D01*
X9276502Y-16334619D02*
X9257455Y-16306047D01*
X9257455Y-16306047D02*
X9247931Y-16296523D01*
X9609836Y-16601285D02*
X9600312Y-16591761D01*
X9600312Y-16591761D02*
X9581264Y-16563190D01*
X9581264Y-16563190D02*
X9571740Y-16544142D01*
X9571740Y-16544142D02*
X9562216Y-16515571D01*
X9562216Y-16515571D02*
X9552693Y-16467952D01*
X9552693Y-16467952D02*
X9552693Y-16429857D01*
X9552693Y-16429857D02*
X9562216Y-16382238D01*
X9562216Y-16382238D02*
X9571740Y-16353666D01*
X9571740Y-16353666D02*
X9581264Y-16334619D01*
X9581264Y-16334619D02*
X9600312Y-16306047D01*
X9600312Y-16306047D02*
X9609836Y-16296523D01*
X9686026Y-16391761D02*
X9686026Y-16525095D01*
X9686026Y-16410809D02*
X9695550Y-16401285D01*
X9695550Y-16401285D02*
X9714597Y-16391761D01*
X9714597Y-16391761D02*
X9743169Y-16391761D01*
X9743169Y-16391761D02*
X9762216Y-16401285D01*
X9762216Y-16401285D02*
X9771740Y-16420333D01*
X9771740Y-16420333D02*
X9771740Y-16525095D01*
X9895550Y-16525095D02*
X9876502Y-16515571D01*
X9876502Y-16515571D02*
X9866978Y-16506047D01*
X9866978Y-16506047D02*
X9857455Y-16486999D01*
X9857455Y-16486999D02*
X9857455Y-16429857D01*
X9857455Y-16429857D02*
X9866978Y-16410809D01*
X9866978Y-16410809D02*
X9876502Y-16401285D01*
X9876502Y-16401285D02*
X9895550Y-16391761D01*
X9895550Y-16391761D02*
X9924121Y-16391761D01*
X9924121Y-16391761D02*
X9943169Y-16401285D01*
X9943169Y-16401285D02*
X9952693Y-16410809D01*
X9952693Y-16410809D02*
X9962216Y-16429857D01*
X9962216Y-16429857D02*
X9962216Y-16486999D01*
X9962216Y-16486999D02*
X9952693Y-16506047D01*
X9952693Y-16506047D02*
X9943169Y-16515571D01*
X9943169Y-16515571D02*
X9924121Y-16525095D01*
X9924121Y-16525095D02*
X9895550Y-16525095D01*
X10019359Y-16391761D02*
X10095550Y-16391761D01*
X10047931Y-16325095D02*
X10047931Y-16496523D01*
X10047931Y-16496523D02*
X10057455Y-16515571D01*
X10057455Y-16515571D02*
X10076502Y-16525095D01*
X10076502Y-16525095D02*
X10095550Y-16525095D01*
X10314597Y-16391761D02*
X10314597Y-16591761D01*
X10314597Y-16401285D02*
X10333645Y-16391761D01*
X10333645Y-16391761D02*
X10371740Y-16391761D01*
X10371740Y-16391761D02*
X10390788Y-16401285D01*
X10390788Y-16401285D02*
X10400312Y-16410809D01*
X10400312Y-16410809D02*
X10409836Y-16429857D01*
X10409836Y-16429857D02*
X10409836Y-16486999D01*
X10409836Y-16486999D02*
X10400312Y-16506047D01*
X10400312Y-16506047D02*
X10390788Y-16515571D01*
X10390788Y-16515571D02*
X10371740Y-16525095D01*
X10371740Y-16525095D02*
X10333645Y-16525095D01*
X10333645Y-16525095D02*
X10314597Y-16515571D01*
X10524121Y-16525095D02*
X10505074Y-16515571D01*
X10505074Y-16515571D02*
X10495550Y-16496523D01*
X10495550Y-16496523D02*
X10495550Y-16325095D01*
X10686026Y-16525095D02*
X10686026Y-16420333D01*
X10686026Y-16420333D02*
X10676502Y-16401285D01*
X10676502Y-16401285D02*
X10657455Y-16391761D01*
X10657455Y-16391761D02*
X10619359Y-16391761D01*
X10619359Y-16391761D02*
X10600312Y-16401285D01*
X10686026Y-16515571D02*
X10666978Y-16525095D01*
X10666978Y-16525095D02*
X10619359Y-16525095D01*
X10619359Y-16525095D02*
X10600312Y-16515571D01*
X10600312Y-16515571D02*
X10590788Y-16496523D01*
X10590788Y-16496523D02*
X10590788Y-16477476D01*
X10590788Y-16477476D02*
X10600312Y-16458428D01*
X10600312Y-16458428D02*
X10619359Y-16448904D01*
X10619359Y-16448904D02*
X10666978Y-16448904D01*
X10666978Y-16448904D02*
X10686026Y-16439380D01*
X10752693Y-16391761D02*
X10828883Y-16391761D01*
X10781264Y-16325095D02*
X10781264Y-16496523D01*
X10781264Y-16496523D02*
X10790788Y-16515571D01*
X10790788Y-16515571D02*
X10809836Y-16525095D01*
X10809836Y-16525095D02*
X10828883Y-16525095D01*
X10971740Y-16515571D02*
X10952693Y-16525095D01*
X10952693Y-16525095D02*
X10914597Y-16525095D01*
X10914597Y-16525095D02*
X10895550Y-16515571D01*
X10895550Y-16515571D02*
X10886026Y-16496523D01*
X10886026Y-16496523D02*
X10886026Y-16420333D01*
X10886026Y-16420333D02*
X10895550Y-16401285D01*
X10895550Y-16401285D02*
X10914597Y-16391761D01*
X10914597Y-16391761D02*
X10952693Y-16391761D01*
X10952693Y-16391761D02*
X10971740Y-16401285D01*
X10971740Y-16401285D02*
X10981264Y-16420333D01*
X10981264Y-16420333D02*
X10981264Y-16439380D01*
X10981264Y-16439380D02*
X10886026Y-16458428D01*
X11152693Y-16525095D02*
X11152693Y-16325095D01*
X11152693Y-16515571D02*
X11133645Y-16525095D01*
X11133645Y-16525095D02*
X11095550Y-16525095D01*
X11095550Y-16525095D02*
X11076502Y-16515571D01*
X11076502Y-16515571D02*
X11066978Y-16506047D01*
X11066978Y-16506047D02*
X11057455Y-16486999D01*
X11057455Y-16486999D02*
X11057455Y-16429857D01*
X11057455Y-16429857D02*
X11066978Y-16410809D01*
X11066978Y-16410809D02*
X11076502Y-16401285D01*
X11076502Y-16401285D02*
X11095550Y-16391761D01*
X11095550Y-16391761D02*
X11133645Y-16391761D01*
X11133645Y-16391761D02*
X11152693Y-16401285D01*
X11228883Y-16601285D02*
X11238407Y-16591761D01*
X11238407Y-16591761D02*
X11257455Y-16563190D01*
X11257455Y-16563190D02*
X11266978Y-16544142D01*
X11266978Y-16544142D02*
X11276502Y-16515571D01*
X11276502Y-16515571D02*
X11286026Y-16467952D01*
X11286026Y-16467952D02*
X11286026Y-16429857D01*
X11286026Y-16429857D02*
X11276502Y-16382238D01*
X11276502Y-16382238D02*
X11266978Y-16353666D01*
X11266978Y-16353666D02*
X11257455Y-16334619D01*
X11257455Y-16334619D02*
X11238407Y-16306047D01*
X11238407Y-16306047D02*
X11228883Y-16296523D01*
X3991915Y-16643611D02*
X3991915Y-16843611D01*
X3891915Y-16743611D02*
X4091915Y-16743611D01*
X4343168Y-16654142D02*
X4352692Y-16644619D01*
X4352692Y-16644619D02*
X4371740Y-16635095D01*
X4371740Y-16635095D02*
X4419359Y-16635095D01*
X4419359Y-16635095D02*
X4438406Y-16644619D01*
X4438406Y-16644619D02*
X4447930Y-16654142D01*
X4447930Y-16654142D02*
X4457454Y-16673190D01*
X4457454Y-16673190D02*
X4457454Y-16692238D01*
X4457454Y-16692238D02*
X4447930Y-16720809D01*
X4447930Y-16720809D02*
X4333645Y-16835095D01*
X4333645Y-16835095D02*
X4457454Y-16835095D01*
X4543168Y-16816047D02*
X4552692Y-16825571D01*
X4552692Y-16825571D02*
X4543168Y-16835095D01*
X4543168Y-16835095D02*
X4533645Y-16825571D01*
X4533645Y-16825571D02*
X4543168Y-16816047D01*
X4543168Y-16816047D02*
X4543168Y-16835095D01*
X4628883Y-16654142D02*
X4638406Y-16644619D01*
X4638406Y-16644619D02*
X4657454Y-16635095D01*
X4657454Y-16635095D02*
X4705073Y-16635095D01*
X4705073Y-16635095D02*
X4724121Y-16644619D01*
X4724121Y-16644619D02*
X4733645Y-16654142D01*
X4733645Y-16654142D02*
X4743168Y-16673190D01*
X4743168Y-16673190D02*
X4743168Y-16692238D01*
X4743168Y-16692238D02*
X4733645Y-16720809D01*
X4733645Y-16720809D02*
X4619359Y-16835095D01*
X4619359Y-16835095D02*
X4743168Y-16835095D01*
X4866978Y-16635095D02*
X4886026Y-16635095D01*
X4886026Y-16635095D02*
X4905073Y-16644619D01*
X4905073Y-16644619D02*
X4914597Y-16654142D01*
X4914597Y-16654142D02*
X4924121Y-16673190D01*
X4924121Y-16673190D02*
X4933645Y-16711285D01*
X4933645Y-16711285D02*
X4933645Y-16758904D01*
X4933645Y-16758904D02*
X4924121Y-16797000D01*
X4924121Y-16797000D02*
X4914597Y-16816047D01*
X4914597Y-16816047D02*
X4905073Y-16825571D01*
X4905073Y-16825571D02*
X4886026Y-16835095D01*
X4886026Y-16835095D02*
X4866978Y-16835095D01*
X4866978Y-16835095D02*
X4847930Y-16825571D01*
X4847930Y-16825571D02*
X4838406Y-16816047D01*
X4838406Y-16816047D02*
X4828883Y-16797000D01*
X4828883Y-16797000D02*
X4819359Y-16758904D01*
X4819359Y-16758904D02*
X4819359Y-16711285D01*
X4819359Y-16711285D02*
X4828883Y-16673190D01*
X4828883Y-16673190D02*
X4838406Y-16654142D01*
X4838406Y-16654142D02*
X4847930Y-16644619D01*
X4847930Y-16644619D02*
X4866978Y-16635095D01*
X5057454Y-16635095D02*
X5076502Y-16635095D01*
X5076502Y-16635095D02*
X5095549Y-16644619D01*
X5095549Y-16644619D02*
X5105073Y-16654142D01*
X5105073Y-16654142D02*
X5114597Y-16673190D01*
X5114597Y-16673190D02*
X5124121Y-16711285D01*
X5124121Y-16711285D02*
X5124121Y-16758904D01*
X5124121Y-16758904D02*
X5114597Y-16797000D01*
X5114597Y-16797000D02*
X5105073Y-16816047D01*
X5105073Y-16816047D02*
X5095549Y-16825571D01*
X5095549Y-16825571D02*
X5076502Y-16835095D01*
X5076502Y-16835095D02*
X5057454Y-16835095D01*
X5057454Y-16835095D02*
X5038406Y-16825571D01*
X5038406Y-16825571D02*
X5028883Y-16816047D01*
X5028883Y-16816047D02*
X5019359Y-16797000D01*
X5019359Y-16797000D02*
X5009835Y-16758904D01*
X5009835Y-16758904D02*
X5009835Y-16711285D01*
X5009835Y-16711285D02*
X5019359Y-16673190D01*
X5019359Y-16673190D02*
X5028883Y-16654142D01*
X5028883Y-16654142D02*
X5038406Y-16644619D01*
X5038406Y-16644619D02*
X5057454Y-16635095D01*
X5209835Y-16835095D02*
X5209835Y-16701761D01*
X5209835Y-16720809D02*
X5219359Y-16711285D01*
X5219359Y-16711285D02*
X5238406Y-16701761D01*
X5238406Y-16701761D02*
X5266978Y-16701761D01*
X5266978Y-16701761D02*
X5286026Y-16711285D01*
X5286026Y-16711285D02*
X5295549Y-16730333D01*
X5295549Y-16730333D02*
X5295549Y-16835095D01*
X5295549Y-16730333D02*
X5305073Y-16711285D01*
X5305073Y-16711285D02*
X5324121Y-16701761D01*
X5324121Y-16701761D02*
X5352692Y-16701761D01*
X5352692Y-16701761D02*
X5371740Y-16711285D01*
X5371740Y-16711285D02*
X5381264Y-16730333D01*
X5381264Y-16730333D02*
X5381264Y-16835095D01*
X5476502Y-16835095D02*
X5476502Y-16701761D01*
X5476502Y-16720809D02*
X5486026Y-16711285D01*
X5486026Y-16711285D02*
X5505073Y-16701761D01*
X5505073Y-16701761D02*
X5533645Y-16701761D01*
X5533645Y-16701761D02*
X5552692Y-16711285D01*
X5552692Y-16711285D02*
X5562216Y-16730333D01*
X5562216Y-16730333D02*
X5562216Y-16835095D01*
X5562216Y-16730333D02*
X5571740Y-16711285D01*
X5571740Y-16711285D02*
X5590787Y-16701761D01*
X5590787Y-16701761D02*
X5619359Y-16701761D01*
X5619359Y-16701761D02*
X5638406Y-16711285D01*
X5638406Y-16711285D02*
X5647930Y-16730333D01*
X5647930Y-16730333D02*
X5647930Y-16835095D01*
X6038406Y-16625571D02*
X5866978Y-16882714D01*
X6295549Y-16635095D02*
X6314597Y-16635095D01*
X6314597Y-16635095D02*
X6333645Y-16644619D01*
X6333645Y-16644619D02*
X6343168Y-16654142D01*
X6343168Y-16654142D02*
X6352692Y-16673190D01*
X6352692Y-16673190D02*
X6362216Y-16711285D01*
X6362216Y-16711285D02*
X6362216Y-16758904D01*
X6362216Y-16758904D02*
X6352692Y-16797000D01*
X6352692Y-16797000D02*
X6343168Y-16816047D01*
X6343168Y-16816047D02*
X6333645Y-16825571D01*
X6333645Y-16825571D02*
X6314597Y-16835095D01*
X6314597Y-16835095D02*
X6295549Y-16835095D01*
X6295549Y-16835095D02*
X6276502Y-16825571D01*
X6276502Y-16825571D02*
X6266978Y-16816047D01*
X6266978Y-16816047D02*
X6257454Y-16797000D01*
X6257454Y-16797000D02*
X6247930Y-16758904D01*
X6247930Y-16758904D02*
X6247930Y-16711285D01*
X6247930Y-16711285D02*
X6257454Y-16673190D01*
X6257454Y-16673190D02*
X6266978Y-16654142D01*
X6266978Y-16654142D02*
X6276502Y-16644619D01*
X6276502Y-16644619D02*
X6295549Y-16635095D01*
X6447930Y-16816047D02*
X6457454Y-16825571D01*
X6457454Y-16825571D02*
X6447930Y-16835095D01*
X6447930Y-16835095D02*
X6438407Y-16825571D01*
X6438407Y-16825571D02*
X6447930Y-16816047D01*
X6447930Y-16816047D02*
X6447930Y-16835095D01*
X6581264Y-16635095D02*
X6600311Y-16635095D01*
X6600311Y-16635095D02*
X6619359Y-16644619D01*
X6619359Y-16644619D02*
X6628883Y-16654142D01*
X6628883Y-16654142D02*
X6638407Y-16673190D01*
X6638407Y-16673190D02*
X6647930Y-16711285D01*
X6647930Y-16711285D02*
X6647930Y-16758904D01*
X6647930Y-16758904D02*
X6638407Y-16797000D01*
X6638407Y-16797000D02*
X6628883Y-16816047D01*
X6628883Y-16816047D02*
X6619359Y-16825571D01*
X6619359Y-16825571D02*
X6600311Y-16835095D01*
X6600311Y-16835095D02*
X6581264Y-16835095D01*
X6581264Y-16835095D02*
X6562216Y-16825571D01*
X6562216Y-16825571D02*
X6552692Y-16816047D01*
X6552692Y-16816047D02*
X6543168Y-16797000D01*
X6543168Y-16797000D02*
X6533645Y-16758904D01*
X6533645Y-16758904D02*
X6533645Y-16711285D01*
X6533645Y-16711285D02*
X6543168Y-16673190D01*
X6543168Y-16673190D02*
X6552692Y-16654142D01*
X6552692Y-16654142D02*
X6562216Y-16644619D01*
X6562216Y-16644619D02*
X6581264Y-16635095D01*
X6762216Y-16720809D02*
X6743168Y-16711285D01*
X6743168Y-16711285D02*
X6733645Y-16701761D01*
X6733645Y-16701761D02*
X6724121Y-16682714D01*
X6724121Y-16682714D02*
X6724121Y-16673190D01*
X6724121Y-16673190D02*
X6733645Y-16654142D01*
X6733645Y-16654142D02*
X6743168Y-16644619D01*
X6743168Y-16644619D02*
X6762216Y-16635095D01*
X6762216Y-16635095D02*
X6800311Y-16635095D01*
X6800311Y-16635095D02*
X6819359Y-16644619D01*
X6819359Y-16644619D02*
X6828883Y-16654142D01*
X6828883Y-16654142D02*
X6838407Y-16673190D01*
X6838407Y-16673190D02*
X6838407Y-16682714D01*
X6838407Y-16682714D02*
X6828883Y-16701761D01*
X6828883Y-16701761D02*
X6819359Y-16711285D01*
X6819359Y-16711285D02*
X6800311Y-16720809D01*
X6800311Y-16720809D02*
X6762216Y-16720809D01*
X6762216Y-16720809D02*
X6743168Y-16730333D01*
X6743168Y-16730333D02*
X6733645Y-16739857D01*
X6733645Y-16739857D02*
X6724121Y-16758904D01*
X6724121Y-16758904D02*
X6724121Y-16797000D01*
X6724121Y-16797000D02*
X6733645Y-16816047D01*
X6733645Y-16816047D02*
X6743168Y-16825571D01*
X6743168Y-16825571D02*
X6762216Y-16835095D01*
X6762216Y-16835095D02*
X6800311Y-16835095D01*
X6800311Y-16835095D02*
X6819359Y-16825571D01*
X6819359Y-16825571D02*
X6828883Y-16816047D01*
X6828883Y-16816047D02*
X6838407Y-16797000D01*
X6838407Y-16797000D02*
X6838407Y-16758904D01*
X6838407Y-16758904D02*
X6828883Y-16739857D01*
X6828883Y-16739857D02*
X6819359Y-16730333D01*
X6819359Y-16730333D02*
X6800311Y-16720809D01*
X7009835Y-16635095D02*
X6971740Y-16635095D01*
X6971740Y-16635095D02*
X6952692Y-16644619D01*
X6952692Y-16644619D02*
X6943168Y-16654142D01*
X6943168Y-16654142D02*
X6924121Y-16682714D01*
X6924121Y-16682714D02*
X6914597Y-16720809D01*
X6914597Y-16720809D02*
X6914597Y-16797000D01*
X6914597Y-16797000D02*
X6924121Y-16816047D01*
X6924121Y-16816047D02*
X6933645Y-16825571D01*
X6933645Y-16825571D02*
X6952692Y-16835095D01*
X6952692Y-16835095D02*
X6990788Y-16835095D01*
X6990788Y-16835095D02*
X7009835Y-16825571D01*
X7009835Y-16825571D02*
X7019359Y-16816047D01*
X7019359Y-16816047D02*
X7028883Y-16797000D01*
X7028883Y-16797000D02*
X7028883Y-16749380D01*
X7028883Y-16749380D02*
X7019359Y-16730333D01*
X7019359Y-16730333D02*
X7009835Y-16720809D01*
X7009835Y-16720809D02*
X6990788Y-16711285D01*
X6990788Y-16711285D02*
X6952692Y-16711285D01*
X6952692Y-16711285D02*
X6933645Y-16720809D01*
X6933645Y-16720809D02*
X6924121Y-16730333D01*
X6924121Y-16730333D02*
X6914597Y-16749380D01*
X7200311Y-16635095D02*
X7162216Y-16635095D01*
X7162216Y-16635095D02*
X7143168Y-16644619D01*
X7143168Y-16644619D02*
X7133645Y-16654142D01*
X7133645Y-16654142D02*
X7114597Y-16682714D01*
X7114597Y-16682714D02*
X7105073Y-16720809D01*
X7105073Y-16720809D02*
X7105073Y-16797000D01*
X7105073Y-16797000D02*
X7114597Y-16816047D01*
X7114597Y-16816047D02*
X7124121Y-16825571D01*
X7124121Y-16825571D02*
X7143168Y-16835095D01*
X7143168Y-16835095D02*
X7181264Y-16835095D01*
X7181264Y-16835095D02*
X7200311Y-16825571D01*
X7200311Y-16825571D02*
X7209835Y-16816047D01*
X7209835Y-16816047D02*
X7219359Y-16797000D01*
X7219359Y-16797000D02*
X7219359Y-16749380D01*
X7219359Y-16749380D02*
X7209835Y-16730333D01*
X7209835Y-16730333D02*
X7200311Y-16720809D01*
X7200311Y-16720809D02*
X7181264Y-16711285D01*
X7181264Y-16711285D02*
X7143168Y-16711285D01*
X7143168Y-16711285D02*
X7124121Y-16720809D01*
X7124121Y-16720809D02*
X7114597Y-16730333D01*
X7114597Y-16730333D02*
X7105073Y-16749380D01*
X7295549Y-16635095D02*
X7295549Y-16673190D01*
X7371740Y-16635095D02*
X7371740Y-16673190D01*
X7666978Y-16911285D02*
X7657454Y-16901761D01*
X7657454Y-16901761D02*
X7638407Y-16873190D01*
X7638407Y-16873190D02*
X7628883Y-16854142D01*
X7628883Y-16854142D02*
X7619359Y-16825571D01*
X7619359Y-16825571D02*
X7609835Y-16777952D01*
X7609835Y-16777952D02*
X7609835Y-16739857D01*
X7609835Y-16739857D02*
X7619359Y-16692238D01*
X7619359Y-16692238D02*
X7628883Y-16663666D01*
X7628883Y-16663666D02*
X7638407Y-16644619D01*
X7638407Y-16644619D02*
X7657454Y-16616047D01*
X7657454Y-16616047D02*
X7666978Y-16606523D01*
X7733645Y-16654142D02*
X7743169Y-16644619D01*
X7743169Y-16644619D02*
X7762216Y-16635095D01*
X7762216Y-16635095D02*
X7809835Y-16635095D01*
X7809835Y-16635095D02*
X7828883Y-16644619D01*
X7828883Y-16644619D02*
X7838407Y-16654142D01*
X7838407Y-16654142D02*
X7847930Y-16673190D01*
X7847930Y-16673190D02*
X7847930Y-16692238D01*
X7847930Y-16692238D02*
X7838407Y-16720809D01*
X7838407Y-16720809D02*
X7724121Y-16835095D01*
X7724121Y-16835095D02*
X7847930Y-16835095D01*
X8086026Y-16835095D02*
X8086026Y-16635095D01*
X8171740Y-16835095D02*
X8171740Y-16730333D01*
X8171740Y-16730333D02*
X8162216Y-16711285D01*
X8162216Y-16711285D02*
X8143169Y-16701761D01*
X8143169Y-16701761D02*
X8114597Y-16701761D01*
X8114597Y-16701761D02*
X8095550Y-16711285D01*
X8095550Y-16711285D02*
X8086026Y-16720809D01*
X8295550Y-16835095D02*
X8276502Y-16825571D01*
X8276502Y-16825571D02*
X8266978Y-16816047D01*
X8266978Y-16816047D02*
X8257454Y-16797000D01*
X8257454Y-16797000D02*
X8257454Y-16739857D01*
X8257454Y-16739857D02*
X8266978Y-16720809D01*
X8266978Y-16720809D02*
X8276502Y-16711285D01*
X8276502Y-16711285D02*
X8295550Y-16701761D01*
X8295550Y-16701761D02*
X8324121Y-16701761D01*
X8324121Y-16701761D02*
X8343169Y-16711285D01*
X8343169Y-16711285D02*
X8352692Y-16720809D01*
X8352692Y-16720809D02*
X8362216Y-16739857D01*
X8362216Y-16739857D02*
X8362216Y-16797000D01*
X8362216Y-16797000D02*
X8352692Y-16816047D01*
X8352692Y-16816047D02*
X8343169Y-16825571D01*
X8343169Y-16825571D02*
X8324121Y-16835095D01*
X8324121Y-16835095D02*
X8295550Y-16835095D01*
X8476502Y-16835095D02*
X8457454Y-16825571D01*
X8457454Y-16825571D02*
X8447931Y-16806523D01*
X8447931Y-16806523D02*
X8447931Y-16635095D01*
X8628883Y-16825571D02*
X8609835Y-16835095D01*
X8609835Y-16835095D02*
X8571740Y-16835095D01*
X8571740Y-16835095D02*
X8552693Y-16825571D01*
X8552693Y-16825571D02*
X8543169Y-16806523D01*
X8543169Y-16806523D02*
X8543169Y-16730333D01*
X8543169Y-16730333D02*
X8552693Y-16711285D01*
X8552693Y-16711285D02*
X8571740Y-16701761D01*
X8571740Y-16701761D02*
X8609835Y-16701761D01*
X8609835Y-16701761D02*
X8628883Y-16711285D01*
X8628883Y-16711285D02*
X8638407Y-16730333D01*
X8638407Y-16730333D02*
X8638407Y-16749380D01*
X8638407Y-16749380D02*
X8543169Y-16768428D01*
X8714597Y-16825571D02*
X8733645Y-16835095D01*
X8733645Y-16835095D02*
X8771740Y-16835095D01*
X8771740Y-16835095D02*
X8790788Y-16825571D01*
X8790788Y-16825571D02*
X8800312Y-16806523D01*
X8800312Y-16806523D02*
X8800312Y-16797000D01*
X8800312Y-16797000D02*
X8790788Y-16777952D01*
X8790788Y-16777952D02*
X8771740Y-16768428D01*
X8771740Y-16768428D02*
X8743169Y-16768428D01*
X8743169Y-16768428D02*
X8724121Y-16758904D01*
X8724121Y-16758904D02*
X8714597Y-16739857D01*
X8714597Y-16739857D02*
X8714597Y-16730333D01*
X8714597Y-16730333D02*
X8724121Y-16711285D01*
X8724121Y-16711285D02*
X8743169Y-16701761D01*
X8743169Y-16701761D02*
X8771740Y-16701761D01*
X8771740Y-16701761D02*
X8790788Y-16711285D01*
X8866978Y-16911285D02*
X8876502Y-16901761D01*
X8876502Y-16901761D02*
X8895550Y-16873190D01*
X8895550Y-16873190D02*
X8905074Y-16854142D01*
X8905074Y-16854142D02*
X8914597Y-16825571D01*
X8914597Y-16825571D02*
X8924121Y-16777952D01*
X8924121Y-16777952D02*
X8924121Y-16739857D01*
X8924121Y-16739857D02*
X8914597Y-16692238D01*
X8914597Y-16692238D02*
X8905074Y-16663666D01*
X8905074Y-16663666D02*
X8895550Y-16644619D01*
X8895550Y-16644619D02*
X8876502Y-16616047D01*
X8876502Y-16616047D02*
X8866978Y-16606523D01*
X9228883Y-16911285D02*
X9219359Y-16901761D01*
X9219359Y-16901761D02*
X9200312Y-16873190D01*
X9200312Y-16873190D02*
X9190788Y-16854142D01*
X9190788Y-16854142D02*
X9181264Y-16825571D01*
X9181264Y-16825571D02*
X9171740Y-16777952D01*
X9171740Y-16777952D02*
X9171740Y-16739857D01*
X9171740Y-16739857D02*
X9181264Y-16692238D01*
X9181264Y-16692238D02*
X9190788Y-16663666D01*
X9190788Y-16663666D02*
X9200312Y-16644619D01*
X9200312Y-16644619D02*
X9219359Y-16616047D01*
X9219359Y-16616047D02*
X9228883Y-16606523D01*
X9305074Y-16701761D02*
X9305074Y-16835095D01*
X9305074Y-16720809D02*
X9314597Y-16711285D01*
X9314597Y-16711285D02*
X9333645Y-16701761D01*
X9333645Y-16701761D02*
X9362216Y-16701761D01*
X9362216Y-16701761D02*
X9381264Y-16711285D01*
X9381264Y-16711285D02*
X9390788Y-16730333D01*
X9390788Y-16730333D02*
X9390788Y-16835095D01*
X9514597Y-16835095D02*
X9495550Y-16825571D01*
X9495550Y-16825571D02*
X9486026Y-16816047D01*
X9486026Y-16816047D02*
X9476502Y-16797000D01*
X9476502Y-16797000D02*
X9476502Y-16739857D01*
X9476502Y-16739857D02*
X9486026Y-16720809D01*
X9486026Y-16720809D02*
X9495550Y-16711285D01*
X9495550Y-16711285D02*
X9514597Y-16701761D01*
X9514597Y-16701761D02*
X9543169Y-16701761D01*
X9543169Y-16701761D02*
X9562216Y-16711285D01*
X9562216Y-16711285D02*
X9571740Y-16720809D01*
X9571740Y-16720809D02*
X9581264Y-16739857D01*
X9581264Y-16739857D02*
X9581264Y-16797000D01*
X9581264Y-16797000D02*
X9571740Y-16816047D01*
X9571740Y-16816047D02*
X9562216Y-16825571D01*
X9562216Y-16825571D02*
X9543169Y-16835095D01*
X9543169Y-16835095D02*
X9514597Y-16835095D01*
X9638407Y-16701761D02*
X9714597Y-16701761D01*
X9666978Y-16635095D02*
X9666978Y-16806523D01*
X9666978Y-16806523D02*
X9676502Y-16825571D01*
X9676502Y-16825571D02*
X9695550Y-16835095D01*
X9695550Y-16835095D02*
X9714597Y-16835095D01*
X9933645Y-16701761D02*
X9933645Y-16901761D01*
X9933645Y-16711285D02*
X9952693Y-16701761D01*
X9952693Y-16701761D02*
X9990788Y-16701761D01*
X9990788Y-16701761D02*
X10009836Y-16711285D01*
X10009836Y-16711285D02*
X10019359Y-16720809D01*
X10019359Y-16720809D02*
X10028883Y-16739857D01*
X10028883Y-16739857D02*
X10028883Y-16797000D01*
X10028883Y-16797000D02*
X10019359Y-16816047D01*
X10019359Y-16816047D02*
X10009836Y-16825571D01*
X10009836Y-16825571D02*
X9990788Y-16835095D01*
X9990788Y-16835095D02*
X9952693Y-16835095D01*
X9952693Y-16835095D02*
X9933645Y-16825571D01*
X10143169Y-16835095D02*
X10124121Y-16825571D01*
X10124121Y-16825571D02*
X10114597Y-16806523D01*
X10114597Y-16806523D02*
X10114597Y-16635095D01*
X10305074Y-16835095D02*
X10305074Y-16730333D01*
X10305074Y-16730333D02*
X10295550Y-16711285D01*
X10295550Y-16711285D02*
X10276502Y-16701761D01*
X10276502Y-16701761D02*
X10238407Y-16701761D01*
X10238407Y-16701761D02*
X10219359Y-16711285D01*
X10305074Y-16825571D02*
X10286026Y-16835095D01*
X10286026Y-16835095D02*
X10238407Y-16835095D01*
X10238407Y-16835095D02*
X10219359Y-16825571D01*
X10219359Y-16825571D02*
X10209836Y-16806523D01*
X10209836Y-16806523D02*
X10209836Y-16787476D01*
X10209836Y-16787476D02*
X10219359Y-16768428D01*
X10219359Y-16768428D02*
X10238407Y-16758904D01*
X10238407Y-16758904D02*
X10286026Y-16758904D01*
X10286026Y-16758904D02*
X10305074Y-16749380D01*
X10371740Y-16701761D02*
X10447931Y-16701761D01*
X10400312Y-16635095D02*
X10400312Y-16806523D01*
X10400312Y-16806523D02*
X10409836Y-16825571D01*
X10409836Y-16825571D02*
X10428883Y-16835095D01*
X10428883Y-16835095D02*
X10447931Y-16835095D01*
X10590788Y-16825571D02*
X10571740Y-16835095D01*
X10571740Y-16835095D02*
X10533645Y-16835095D01*
X10533645Y-16835095D02*
X10514597Y-16825571D01*
X10514597Y-16825571D02*
X10505074Y-16806523D01*
X10505074Y-16806523D02*
X10505074Y-16730333D01*
X10505074Y-16730333D02*
X10514597Y-16711285D01*
X10514597Y-16711285D02*
X10533645Y-16701761D01*
X10533645Y-16701761D02*
X10571740Y-16701761D01*
X10571740Y-16701761D02*
X10590788Y-16711285D01*
X10590788Y-16711285D02*
X10600312Y-16730333D01*
X10600312Y-16730333D02*
X10600312Y-16749380D01*
X10600312Y-16749380D02*
X10505074Y-16768428D01*
X10771740Y-16835095D02*
X10771740Y-16635095D01*
X10771740Y-16825571D02*
X10752693Y-16835095D01*
X10752693Y-16835095D02*
X10714597Y-16835095D01*
X10714597Y-16835095D02*
X10695550Y-16825571D01*
X10695550Y-16825571D02*
X10686026Y-16816047D01*
X10686026Y-16816047D02*
X10676502Y-16797000D01*
X10676502Y-16797000D02*
X10676502Y-16739857D01*
X10676502Y-16739857D02*
X10686026Y-16720809D01*
X10686026Y-16720809D02*
X10695550Y-16711285D01*
X10695550Y-16711285D02*
X10714597Y-16701761D01*
X10714597Y-16701761D02*
X10752693Y-16701761D01*
X10752693Y-16701761D02*
X10771740Y-16711285D01*
X10847931Y-16911285D02*
X10857455Y-16901761D01*
X10857455Y-16901761D02*
X10876502Y-16873190D01*
X10876502Y-16873190D02*
X10886026Y-16854142D01*
X10886026Y-16854142D02*
X10895550Y-16825571D01*
X10895550Y-16825571D02*
X10905074Y-16777952D01*
X10905074Y-16777952D02*
X10905074Y-16739857D01*
X10905074Y-16739857D02*
X10895550Y-16692238D01*
X10895550Y-16692238D02*
X10886026Y-16663666D01*
X10886026Y-16663666D02*
X10876502Y-16644619D01*
X10876502Y-16644619D02*
X10857455Y-16616047D01*
X10857455Y-16616047D02*
X10847931Y-16606523D01*
X4062627Y-17134322D02*
X4062627Y-16992900D01*
X3921204Y-16992900D01*
X3921204Y-17134322D01*
X4062627Y-17134322D01*
X4438406Y-17021761D02*
X4438406Y-17155095D01*
X4390787Y-16945571D02*
X4343168Y-17088428D01*
X4343168Y-17088428D02*
X4466978Y-17088428D01*
X4543168Y-17136047D02*
X4552692Y-17145571D01*
X4552692Y-17145571D02*
X4543168Y-17155095D01*
X4543168Y-17155095D02*
X4533645Y-17145571D01*
X4533645Y-17145571D02*
X4543168Y-17136047D01*
X4543168Y-17136047D02*
X4543168Y-17155095D01*
X4676502Y-16955095D02*
X4695549Y-16955095D01*
X4695549Y-16955095D02*
X4714597Y-16964619D01*
X4714597Y-16964619D02*
X4724121Y-16974142D01*
X4724121Y-16974142D02*
X4733645Y-16993190D01*
X4733645Y-16993190D02*
X4743168Y-17031285D01*
X4743168Y-17031285D02*
X4743168Y-17078904D01*
X4743168Y-17078904D02*
X4733645Y-17117000D01*
X4733645Y-17117000D02*
X4724121Y-17136047D01*
X4724121Y-17136047D02*
X4714597Y-17145571D01*
X4714597Y-17145571D02*
X4695549Y-17155095D01*
X4695549Y-17155095D02*
X4676502Y-17155095D01*
X4676502Y-17155095D02*
X4657454Y-17145571D01*
X4657454Y-17145571D02*
X4647930Y-17136047D01*
X4647930Y-17136047D02*
X4638406Y-17117000D01*
X4638406Y-17117000D02*
X4628883Y-17078904D01*
X4628883Y-17078904D02*
X4628883Y-17031285D01*
X4628883Y-17031285D02*
X4638406Y-16993190D01*
X4638406Y-16993190D02*
X4647930Y-16974142D01*
X4647930Y-16974142D02*
X4657454Y-16964619D01*
X4657454Y-16964619D02*
X4676502Y-16955095D01*
X4866978Y-16955095D02*
X4886026Y-16955095D01*
X4886026Y-16955095D02*
X4905073Y-16964619D01*
X4905073Y-16964619D02*
X4914597Y-16974142D01*
X4914597Y-16974142D02*
X4924121Y-16993190D01*
X4924121Y-16993190D02*
X4933645Y-17031285D01*
X4933645Y-17031285D02*
X4933645Y-17078904D01*
X4933645Y-17078904D02*
X4924121Y-17117000D01*
X4924121Y-17117000D02*
X4914597Y-17136047D01*
X4914597Y-17136047D02*
X4905073Y-17145571D01*
X4905073Y-17145571D02*
X4886026Y-17155095D01*
X4886026Y-17155095D02*
X4866978Y-17155095D01*
X4866978Y-17155095D02*
X4847930Y-17145571D01*
X4847930Y-17145571D02*
X4838406Y-17136047D01*
X4838406Y-17136047D02*
X4828883Y-17117000D01*
X4828883Y-17117000D02*
X4819359Y-17078904D01*
X4819359Y-17078904D02*
X4819359Y-17031285D01*
X4819359Y-17031285D02*
X4828883Y-16993190D01*
X4828883Y-16993190D02*
X4838406Y-16974142D01*
X4838406Y-16974142D02*
X4847930Y-16964619D01*
X4847930Y-16964619D02*
X4866978Y-16955095D01*
X5057454Y-16955095D02*
X5076502Y-16955095D01*
X5076502Y-16955095D02*
X5095549Y-16964619D01*
X5095549Y-16964619D02*
X5105073Y-16974142D01*
X5105073Y-16974142D02*
X5114597Y-16993190D01*
X5114597Y-16993190D02*
X5124121Y-17031285D01*
X5124121Y-17031285D02*
X5124121Y-17078904D01*
X5124121Y-17078904D02*
X5114597Y-17117000D01*
X5114597Y-17117000D02*
X5105073Y-17136047D01*
X5105073Y-17136047D02*
X5095549Y-17145571D01*
X5095549Y-17145571D02*
X5076502Y-17155095D01*
X5076502Y-17155095D02*
X5057454Y-17155095D01*
X5057454Y-17155095D02*
X5038406Y-17145571D01*
X5038406Y-17145571D02*
X5028883Y-17136047D01*
X5028883Y-17136047D02*
X5019359Y-17117000D01*
X5019359Y-17117000D02*
X5009835Y-17078904D01*
X5009835Y-17078904D02*
X5009835Y-17031285D01*
X5009835Y-17031285D02*
X5019359Y-16993190D01*
X5019359Y-16993190D02*
X5028883Y-16974142D01*
X5028883Y-16974142D02*
X5038406Y-16964619D01*
X5038406Y-16964619D02*
X5057454Y-16955095D01*
X5209835Y-17155095D02*
X5209835Y-17021761D01*
X5209835Y-17040809D02*
X5219359Y-17031285D01*
X5219359Y-17031285D02*
X5238406Y-17021761D01*
X5238406Y-17021761D02*
X5266978Y-17021761D01*
X5266978Y-17021761D02*
X5286026Y-17031285D01*
X5286026Y-17031285D02*
X5295549Y-17050333D01*
X5295549Y-17050333D02*
X5295549Y-17155095D01*
X5295549Y-17050333D02*
X5305073Y-17031285D01*
X5305073Y-17031285D02*
X5324121Y-17021761D01*
X5324121Y-17021761D02*
X5352692Y-17021761D01*
X5352692Y-17021761D02*
X5371740Y-17031285D01*
X5371740Y-17031285D02*
X5381264Y-17050333D01*
X5381264Y-17050333D02*
X5381264Y-17155095D01*
X5476502Y-17155095D02*
X5476502Y-17021761D01*
X5476502Y-17040809D02*
X5486026Y-17031285D01*
X5486026Y-17031285D02*
X5505073Y-17021761D01*
X5505073Y-17021761D02*
X5533645Y-17021761D01*
X5533645Y-17021761D02*
X5552692Y-17031285D01*
X5552692Y-17031285D02*
X5562216Y-17050333D01*
X5562216Y-17050333D02*
X5562216Y-17155095D01*
X5562216Y-17050333D02*
X5571740Y-17031285D01*
X5571740Y-17031285D02*
X5590787Y-17021761D01*
X5590787Y-17021761D02*
X5619359Y-17021761D01*
X5619359Y-17021761D02*
X5638406Y-17031285D01*
X5638406Y-17031285D02*
X5647930Y-17050333D01*
X5647930Y-17050333D02*
X5647930Y-17155095D01*
X6038406Y-16945571D02*
X5866978Y-17202714D01*
X6295549Y-16955095D02*
X6314597Y-16955095D01*
X6314597Y-16955095D02*
X6333645Y-16964619D01*
X6333645Y-16964619D02*
X6343168Y-16974142D01*
X6343168Y-16974142D02*
X6352692Y-16993190D01*
X6352692Y-16993190D02*
X6362216Y-17031285D01*
X6362216Y-17031285D02*
X6362216Y-17078904D01*
X6362216Y-17078904D02*
X6352692Y-17117000D01*
X6352692Y-17117000D02*
X6343168Y-17136047D01*
X6343168Y-17136047D02*
X6333645Y-17145571D01*
X6333645Y-17145571D02*
X6314597Y-17155095D01*
X6314597Y-17155095D02*
X6295549Y-17155095D01*
X6295549Y-17155095D02*
X6276502Y-17145571D01*
X6276502Y-17145571D02*
X6266978Y-17136047D01*
X6266978Y-17136047D02*
X6257454Y-17117000D01*
X6257454Y-17117000D02*
X6247930Y-17078904D01*
X6247930Y-17078904D02*
X6247930Y-17031285D01*
X6247930Y-17031285D02*
X6257454Y-16993190D01*
X6257454Y-16993190D02*
X6266978Y-16974142D01*
X6266978Y-16974142D02*
X6276502Y-16964619D01*
X6276502Y-16964619D02*
X6295549Y-16955095D01*
X6447930Y-17136047D02*
X6457454Y-17145571D01*
X6457454Y-17145571D02*
X6447930Y-17155095D01*
X6447930Y-17155095D02*
X6438407Y-17145571D01*
X6438407Y-17145571D02*
X6447930Y-17136047D01*
X6447930Y-17136047D02*
X6447930Y-17155095D01*
X6647930Y-17155095D02*
X6533645Y-17155095D01*
X6590787Y-17155095D02*
X6590787Y-16955095D01*
X6590787Y-16955095D02*
X6571740Y-16983666D01*
X6571740Y-16983666D02*
X6552692Y-17002714D01*
X6552692Y-17002714D02*
X6533645Y-17012238D01*
X6828883Y-16955095D02*
X6733645Y-16955095D01*
X6733645Y-16955095D02*
X6724121Y-17050333D01*
X6724121Y-17050333D02*
X6733645Y-17040809D01*
X6733645Y-17040809D02*
X6752692Y-17031285D01*
X6752692Y-17031285D02*
X6800311Y-17031285D01*
X6800311Y-17031285D02*
X6819359Y-17040809D01*
X6819359Y-17040809D02*
X6828883Y-17050333D01*
X6828883Y-17050333D02*
X6838407Y-17069381D01*
X6838407Y-17069381D02*
X6838407Y-17117000D01*
X6838407Y-17117000D02*
X6828883Y-17136047D01*
X6828883Y-17136047D02*
X6819359Y-17145571D01*
X6819359Y-17145571D02*
X6800311Y-17155095D01*
X6800311Y-17155095D02*
X6752692Y-17155095D01*
X6752692Y-17155095D02*
X6733645Y-17145571D01*
X6733645Y-17145571D02*
X6724121Y-17136047D01*
X6905073Y-16955095D02*
X7038407Y-16955095D01*
X7038407Y-16955095D02*
X6952692Y-17155095D01*
X7209835Y-16955095D02*
X7114597Y-16955095D01*
X7114597Y-16955095D02*
X7105073Y-17050333D01*
X7105073Y-17050333D02*
X7114597Y-17040809D01*
X7114597Y-17040809D02*
X7133645Y-17031285D01*
X7133645Y-17031285D02*
X7181264Y-17031285D01*
X7181264Y-17031285D02*
X7200311Y-17040809D01*
X7200311Y-17040809D02*
X7209835Y-17050333D01*
X7209835Y-17050333D02*
X7219359Y-17069381D01*
X7219359Y-17069381D02*
X7219359Y-17117000D01*
X7219359Y-17117000D02*
X7209835Y-17136047D01*
X7209835Y-17136047D02*
X7200311Y-17145571D01*
X7200311Y-17145571D02*
X7181264Y-17155095D01*
X7181264Y-17155095D02*
X7133645Y-17155095D01*
X7133645Y-17155095D02*
X7114597Y-17145571D01*
X7114597Y-17145571D02*
X7105073Y-17136047D01*
X7295549Y-16955095D02*
X7295549Y-16993190D01*
X7371740Y-16955095D02*
X7371740Y-16993190D01*
X7666978Y-17231285D02*
X7657454Y-17221761D01*
X7657454Y-17221761D02*
X7638407Y-17193190D01*
X7638407Y-17193190D02*
X7628883Y-17174142D01*
X7628883Y-17174142D02*
X7619359Y-17145571D01*
X7619359Y-17145571D02*
X7609835Y-17097952D01*
X7609835Y-17097952D02*
X7609835Y-17059857D01*
X7609835Y-17059857D02*
X7619359Y-17012238D01*
X7619359Y-17012238D02*
X7628883Y-16983666D01*
X7628883Y-16983666D02*
X7638407Y-16964619D01*
X7638407Y-16964619D02*
X7657454Y-16936047D01*
X7657454Y-16936047D02*
X7666978Y-16926523D01*
X7847930Y-17155095D02*
X7733645Y-17155095D01*
X7790788Y-17155095D02*
X7790788Y-16955095D01*
X7790788Y-16955095D02*
X7771740Y-16983666D01*
X7771740Y-16983666D02*
X7752692Y-17002714D01*
X7752692Y-17002714D02*
X7733645Y-17012238D01*
X8086026Y-17155095D02*
X8086026Y-16955095D01*
X8171740Y-17155095D02*
X8171740Y-17050333D01*
X8171740Y-17050333D02*
X8162216Y-17031285D01*
X8162216Y-17031285D02*
X8143169Y-17021761D01*
X8143169Y-17021761D02*
X8114597Y-17021761D01*
X8114597Y-17021761D02*
X8095550Y-17031285D01*
X8095550Y-17031285D02*
X8086026Y-17040809D01*
X8295550Y-17155095D02*
X8276502Y-17145571D01*
X8276502Y-17145571D02*
X8266978Y-17136047D01*
X8266978Y-17136047D02*
X8257454Y-17117000D01*
X8257454Y-17117000D02*
X8257454Y-17059857D01*
X8257454Y-17059857D02*
X8266978Y-17040809D01*
X8266978Y-17040809D02*
X8276502Y-17031285D01*
X8276502Y-17031285D02*
X8295550Y-17021761D01*
X8295550Y-17021761D02*
X8324121Y-17021761D01*
X8324121Y-17021761D02*
X8343169Y-17031285D01*
X8343169Y-17031285D02*
X8352692Y-17040809D01*
X8352692Y-17040809D02*
X8362216Y-17059857D01*
X8362216Y-17059857D02*
X8362216Y-17117000D01*
X8362216Y-17117000D02*
X8352692Y-17136047D01*
X8352692Y-17136047D02*
X8343169Y-17145571D01*
X8343169Y-17145571D02*
X8324121Y-17155095D01*
X8324121Y-17155095D02*
X8295550Y-17155095D01*
X8476502Y-17155095D02*
X8457454Y-17145571D01*
X8457454Y-17145571D02*
X8447931Y-17126523D01*
X8447931Y-17126523D02*
X8447931Y-16955095D01*
X8628883Y-17145571D02*
X8609835Y-17155095D01*
X8609835Y-17155095D02*
X8571740Y-17155095D01*
X8571740Y-17155095D02*
X8552693Y-17145571D01*
X8552693Y-17145571D02*
X8543169Y-17126523D01*
X8543169Y-17126523D02*
X8543169Y-17050333D01*
X8543169Y-17050333D02*
X8552693Y-17031285D01*
X8552693Y-17031285D02*
X8571740Y-17021761D01*
X8571740Y-17021761D02*
X8609835Y-17021761D01*
X8609835Y-17021761D02*
X8628883Y-17031285D01*
X8628883Y-17031285D02*
X8638407Y-17050333D01*
X8638407Y-17050333D02*
X8638407Y-17069381D01*
X8638407Y-17069381D02*
X8543169Y-17088428D01*
X8705074Y-17231285D02*
X8714597Y-17221761D01*
X8714597Y-17221761D02*
X8733645Y-17193190D01*
X8733645Y-17193190D02*
X8743169Y-17174142D01*
X8743169Y-17174142D02*
X8752693Y-17145571D01*
X8752693Y-17145571D02*
X8762216Y-17097952D01*
X8762216Y-17097952D02*
X8762216Y-17059857D01*
X8762216Y-17059857D02*
X8752693Y-17012238D01*
X8752693Y-17012238D02*
X8743169Y-16983666D01*
X8743169Y-16983666D02*
X8733645Y-16964619D01*
X8733645Y-16964619D02*
X8714597Y-16936047D01*
X8714597Y-16936047D02*
X8705074Y-16926523D01*
X9066978Y-17231285D02*
X9057454Y-17221761D01*
X9057454Y-17221761D02*
X9038407Y-17193190D01*
X9038407Y-17193190D02*
X9028883Y-17174142D01*
X9028883Y-17174142D02*
X9019359Y-17145571D01*
X9019359Y-17145571D02*
X9009835Y-17097952D01*
X9009835Y-17097952D02*
X9009835Y-17059857D01*
X9009835Y-17059857D02*
X9019359Y-17012238D01*
X9019359Y-17012238D02*
X9028883Y-16983666D01*
X9028883Y-16983666D02*
X9038407Y-16964619D01*
X9038407Y-16964619D02*
X9057454Y-16936047D01*
X9057454Y-16936047D02*
X9066978Y-16926523D01*
X9143169Y-17021761D02*
X9143169Y-17155095D01*
X9143169Y-17040809D02*
X9152693Y-17031285D01*
X9152693Y-17031285D02*
X9171740Y-17021761D01*
X9171740Y-17021761D02*
X9200312Y-17021761D01*
X9200312Y-17021761D02*
X9219359Y-17031285D01*
X9219359Y-17031285D02*
X9228883Y-17050333D01*
X9228883Y-17050333D02*
X9228883Y-17155095D01*
X9352693Y-17155095D02*
X9333645Y-17145571D01*
X9333645Y-17145571D02*
X9324121Y-17136047D01*
X9324121Y-17136047D02*
X9314597Y-17117000D01*
X9314597Y-17117000D02*
X9314597Y-17059857D01*
X9314597Y-17059857D02*
X9324121Y-17040809D01*
X9324121Y-17040809D02*
X9333645Y-17031285D01*
X9333645Y-17031285D02*
X9352693Y-17021761D01*
X9352693Y-17021761D02*
X9381264Y-17021761D01*
X9381264Y-17021761D02*
X9400312Y-17031285D01*
X9400312Y-17031285D02*
X9409835Y-17040809D01*
X9409835Y-17040809D02*
X9419359Y-17059857D01*
X9419359Y-17059857D02*
X9419359Y-17117000D01*
X9419359Y-17117000D02*
X9409835Y-17136047D01*
X9409835Y-17136047D02*
X9400312Y-17145571D01*
X9400312Y-17145571D02*
X9381264Y-17155095D01*
X9381264Y-17155095D02*
X9352693Y-17155095D01*
X9476502Y-17021761D02*
X9552693Y-17021761D01*
X9505074Y-16955095D02*
X9505074Y-17126523D01*
X9505074Y-17126523D02*
X9514597Y-17145571D01*
X9514597Y-17145571D02*
X9533645Y-17155095D01*
X9533645Y-17155095D02*
X9552693Y-17155095D01*
X9771740Y-17021761D02*
X9771740Y-17221761D01*
X9771740Y-17031285D02*
X9790788Y-17021761D01*
X9790788Y-17021761D02*
X9828883Y-17021761D01*
X9828883Y-17021761D02*
X9847931Y-17031285D01*
X9847931Y-17031285D02*
X9857455Y-17040809D01*
X9857455Y-17040809D02*
X9866978Y-17059857D01*
X9866978Y-17059857D02*
X9866978Y-17117000D01*
X9866978Y-17117000D02*
X9857455Y-17136047D01*
X9857455Y-17136047D02*
X9847931Y-17145571D01*
X9847931Y-17145571D02*
X9828883Y-17155095D01*
X9828883Y-17155095D02*
X9790788Y-17155095D01*
X9790788Y-17155095D02*
X9771740Y-17145571D01*
X9981264Y-17155095D02*
X9962216Y-17145571D01*
X9962216Y-17145571D02*
X9952693Y-17126523D01*
X9952693Y-17126523D02*
X9952693Y-16955095D01*
X10143169Y-17155095D02*
X10143169Y-17050333D01*
X10143169Y-17050333D02*
X10133645Y-17031285D01*
X10133645Y-17031285D02*
X10114597Y-17021761D01*
X10114597Y-17021761D02*
X10076502Y-17021761D01*
X10076502Y-17021761D02*
X10057455Y-17031285D01*
X10143169Y-17145571D02*
X10124121Y-17155095D01*
X10124121Y-17155095D02*
X10076502Y-17155095D01*
X10076502Y-17155095D02*
X10057455Y-17145571D01*
X10057455Y-17145571D02*
X10047931Y-17126523D01*
X10047931Y-17126523D02*
X10047931Y-17107476D01*
X10047931Y-17107476D02*
X10057455Y-17088428D01*
X10057455Y-17088428D02*
X10076502Y-17078904D01*
X10076502Y-17078904D02*
X10124121Y-17078904D01*
X10124121Y-17078904D02*
X10143169Y-17069381D01*
X10209836Y-17021761D02*
X10286026Y-17021761D01*
X10238407Y-16955095D02*
X10238407Y-17126523D01*
X10238407Y-17126523D02*
X10247931Y-17145571D01*
X10247931Y-17145571D02*
X10266978Y-17155095D01*
X10266978Y-17155095D02*
X10286026Y-17155095D01*
X10428883Y-17145571D02*
X10409836Y-17155095D01*
X10409836Y-17155095D02*
X10371740Y-17155095D01*
X10371740Y-17155095D02*
X10352693Y-17145571D01*
X10352693Y-17145571D02*
X10343169Y-17126523D01*
X10343169Y-17126523D02*
X10343169Y-17050333D01*
X10343169Y-17050333D02*
X10352693Y-17031285D01*
X10352693Y-17031285D02*
X10371740Y-17021761D01*
X10371740Y-17021761D02*
X10409836Y-17021761D01*
X10409836Y-17021761D02*
X10428883Y-17031285D01*
X10428883Y-17031285D02*
X10438407Y-17050333D01*
X10438407Y-17050333D02*
X10438407Y-17069381D01*
X10438407Y-17069381D02*
X10343169Y-17088428D01*
X10609836Y-17155095D02*
X10609836Y-16955095D01*
X10609836Y-17145571D02*
X10590788Y-17155095D01*
X10590788Y-17155095D02*
X10552693Y-17155095D01*
X10552693Y-17155095D02*
X10533645Y-17145571D01*
X10533645Y-17145571D02*
X10524121Y-17136047D01*
X10524121Y-17136047D02*
X10514597Y-17117000D01*
X10514597Y-17117000D02*
X10514597Y-17059857D01*
X10514597Y-17059857D02*
X10524121Y-17040809D01*
X10524121Y-17040809D02*
X10533645Y-17031285D01*
X10533645Y-17031285D02*
X10552693Y-17021761D01*
X10552693Y-17021761D02*
X10590788Y-17021761D01*
X10590788Y-17021761D02*
X10609836Y-17031285D01*
X10686026Y-17231285D02*
X10695550Y-17221761D01*
X10695550Y-17221761D02*
X10714597Y-17193190D01*
X10714597Y-17193190D02*
X10724121Y-17174142D01*
X10724121Y-17174142D02*
X10733645Y-17145571D01*
X10733645Y-17145571D02*
X10743169Y-17097952D01*
X10743169Y-17097952D02*
X10743169Y-17059857D01*
X10743169Y-17059857D02*
X10733645Y-17012238D01*
X10733645Y-17012238D02*
X10724121Y-16983666D01*
X10724121Y-16983666D02*
X10714597Y-16964619D01*
X10714597Y-16964619D02*
X10695550Y-16936047D01*
X10695550Y-16936047D02*
X10686026Y-16926523D01*
X3991915Y-17483611D02*
X4091915Y-17383611D01*
X3991915Y-17283611D01*
X3891915Y-17383611D01*
X3991915Y-17483611D01*
X4438406Y-17341761D02*
X4438406Y-17475095D01*
X4390787Y-17265571D02*
X4343168Y-17408428D01*
X4343168Y-17408428D02*
X4466978Y-17408428D01*
X4543168Y-17456047D02*
X4552692Y-17465571D01*
X4552692Y-17465571D02*
X4543168Y-17475095D01*
X4543168Y-17475095D02*
X4533645Y-17465571D01*
X4533645Y-17465571D02*
X4543168Y-17456047D01*
X4543168Y-17456047D02*
X4543168Y-17475095D01*
X4666978Y-17360809D02*
X4647930Y-17351285D01*
X4647930Y-17351285D02*
X4638406Y-17341761D01*
X4638406Y-17341761D02*
X4628883Y-17322714D01*
X4628883Y-17322714D02*
X4628883Y-17313190D01*
X4628883Y-17313190D02*
X4638406Y-17294142D01*
X4638406Y-17294142D02*
X4647930Y-17284619D01*
X4647930Y-17284619D02*
X4666978Y-17275095D01*
X4666978Y-17275095D02*
X4705073Y-17275095D01*
X4705073Y-17275095D02*
X4724121Y-17284619D01*
X4724121Y-17284619D02*
X4733645Y-17294142D01*
X4733645Y-17294142D02*
X4743168Y-17313190D01*
X4743168Y-17313190D02*
X4743168Y-17322714D01*
X4743168Y-17322714D02*
X4733645Y-17341761D01*
X4733645Y-17341761D02*
X4724121Y-17351285D01*
X4724121Y-17351285D02*
X4705073Y-17360809D01*
X4705073Y-17360809D02*
X4666978Y-17360809D01*
X4666978Y-17360809D02*
X4647930Y-17370333D01*
X4647930Y-17370333D02*
X4638406Y-17379857D01*
X4638406Y-17379857D02*
X4628883Y-17398904D01*
X4628883Y-17398904D02*
X4628883Y-17437000D01*
X4628883Y-17437000D02*
X4638406Y-17456047D01*
X4638406Y-17456047D02*
X4647930Y-17465571D01*
X4647930Y-17465571D02*
X4666978Y-17475095D01*
X4666978Y-17475095D02*
X4705073Y-17475095D01*
X4705073Y-17475095D02*
X4724121Y-17465571D01*
X4724121Y-17465571D02*
X4733645Y-17456047D01*
X4733645Y-17456047D02*
X4743168Y-17437000D01*
X4743168Y-17437000D02*
X4743168Y-17398904D01*
X4743168Y-17398904D02*
X4733645Y-17379857D01*
X4733645Y-17379857D02*
X4724121Y-17370333D01*
X4724121Y-17370333D02*
X4705073Y-17360809D01*
X4866978Y-17275095D02*
X4886026Y-17275095D01*
X4886026Y-17275095D02*
X4905073Y-17284619D01*
X4905073Y-17284619D02*
X4914597Y-17294142D01*
X4914597Y-17294142D02*
X4924121Y-17313190D01*
X4924121Y-17313190D02*
X4933645Y-17351285D01*
X4933645Y-17351285D02*
X4933645Y-17398904D01*
X4933645Y-17398904D02*
X4924121Y-17437000D01*
X4924121Y-17437000D02*
X4914597Y-17456047D01*
X4914597Y-17456047D02*
X4905073Y-17465571D01*
X4905073Y-17465571D02*
X4886026Y-17475095D01*
X4886026Y-17475095D02*
X4866978Y-17475095D01*
X4866978Y-17475095D02*
X4847930Y-17465571D01*
X4847930Y-17465571D02*
X4838406Y-17456047D01*
X4838406Y-17456047D02*
X4828883Y-17437000D01*
X4828883Y-17437000D02*
X4819359Y-17398904D01*
X4819359Y-17398904D02*
X4819359Y-17351285D01*
X4819359Y-17351285D02*
X4828883Y-17313190D01*
X4828883Y-17313190D02*
X4838406Y-17294142D01*
X4838406Y-17294142D02*
X4847930Y-17284619D01*
X4847930Y-17284619D02*
X4866978Y-17275095D01*
X5057454Y-17275095D02*
X5076502Y-17275095D01*
X5076502Y-17275095D02*
X5095549Y-17284619D01*
X5095549Y-17284619D02*
X5105073Y-17294142D01*
X5105073Y-17294142D02*
X5114597Y-17313190D01*
X5114597Y-17313190D02*
X5124121Y-17351285D01*
X5124121Y-17351285D02*
X5124121Y-17398904D01*
X5124121Y-17398904D02*
X5114597Y-17437000D01*
X5114597Y-17437000D02*
X5105073Y-17456047D01*
X5105073Y-17456047D02*
X5095549Y-17465571D01*
X5095549Y-17465571D02*
X5076502Y-17475095D01*
X5076502Y-17475095D02*
X5057454Y-17475095D01*
X5057454Y-17475095D02*
X5038406Y-17465571D01*
X5038406Y-17465571D02*
X5028883Y-17456047D01*
X5028883Y-17456047D02*
X5019359Y-17437000D01*
X5019359Y-17437000D02*
X5009835Y-17398904D01*
X5009835Y-17398904D02*
X5009835Y-17351285D01*
X5009835Y-17351285D02*
X5019359Y-17313190D01*
X5019359Y-17313190D02*
X5028883Y-17294142D01*
X5028883Y-17294142D02*
X5038406Y-17284619D01*
X5038406Y-17284619D02*
X5057454Y-17275095D01*
X5209835Y-17475095D02*
X5209835Y-17341761D01*
X5209835Y-17360809D02*
X5219359Y-17351285D01*
X5219359Y-17351285D02*
X5238406Y-17341761D01*
X5238406Y-17341761D02*
X5266978Y-17341761D01*
X5266978Y-17341761D02*
X5286026Y-17351285D01*
X5286026Y-17351285D02*
X5295549Y-17370333D01*
X5295549Y-17370333D02*
X5295549Y-17475095D01*
X5295549Y-17370333D02*
X5305073Y-17351285D01*
X5305073Y-17351285D02*
X5324121Y-17341761D01*
X5324121Y-17341761D02*
X5352692Y-17341761D01*
X5352692Y-17341761D02*
X5371740Y-17351285D01*
X5371740Y-17351285D02*
X5381264Y-17370333D01*
X5381264Y-17370333D02*
X5381264Y-17475095D01*
X5476502Y-17475095D02*
X5476502Y-17341761D01*
X5476502Y-17360809D02*
X5486026Y-17351285D01*
X5486026Y-17351285D02*
X5505073Y-17341761D01*
X5505073Y-17341761D02*
X5533645Y-17341761D01*
X5533645Y-17341761D02*
X5552692Y-17351285D01*
X5552692Y-17351285D02*
X5562216Y-17370333D01*
X5562216Y-17370333D02*
X5562216Y-17475095D01*
X5562216Y-17370333D02*
X5571740Y-17351285D01*
X5571740Y-17351285D02*
X5590787Y-17341761D01*
X5590787Y-17341761D02*
X5619359Y-17341761D01*
X5619359Y-17341761D02*
X5638406Y-17351285D01*
X5638406Y-17351285D02*
X5647930Y-17370333D01*
X5647930Y-17370333D02*
X5647930Y-17475095D01*
X6038406Y-17265571D02*
X5866978Y-17522714D01*
X6295549Y-17275095D02*
X6314597Y-17275095D01*
X6314597Y-17275095D02*
X6333645Y-17284619D01*
X6333645Y-17284619D02*
X6343168Y-17294142D01*
X6343168Y-17294142D02*
X6352692Y-17313190D01*
X6352692Y-17313190D02*
X6362216Y-17351285D01*
X6362216Y-17351285D02*
X6362216Y-17398904D01*
X6362216Y-17398904D02*
X6352692Y-17437000D01*
X6352692Y-17437000D02*
X6343168Y-17456047D01*
X6343168Y-17456047D02*
X6333645Y-17465571D01*
X6333645Y-17465571D02*
X6314597Y-17475095D01*
X6314597Y-17475095D02*
X6295549Y-17475095D01*
X6295549Y-17475095D02*
X6276502Y-17465571D01*
X6276502Y-17465571D02*
X6266978Y-17456047D01*
X6266978Y-17456047D02*
X6257454Y-17437000D01*
X6257454Y-17437000D02*
X6247930Y-17398904D01*
X6247930Y-17398904D02*
X6247930Y-17351285D01*
X6247930Y-17351285D02*
X6257454Y-17313190D01*
X6257454Y-17313190D02*
X6266978Y-17294142D01*
X6266978Y-17294142D02*
X6276502Y-17284619D01*
X6276502Y-17284619D02*
X6295549Y-17275095D01*
X6447930Y-17456047D02*
X6457454Y-17465571D01*
X6457454Y-17465571D02*
X6447930Y-17475095D01*
X6447930Y-17475095D02*
X6438407Y-17465571D01*
X6438407Y-17465571D02*
X6447930Y-17456047D01*
X6447930Y-17456047D02*
X6447930Y-17475095D01*
X6647930Y-17475095D02*
X6533645Y-17475095D01*
X6590787Y-17475095D02*
X6590787Y-17275095D01*
X6590787Y-17275095D02*
X6571740Y-17303666D01*
X6571740Y-17303666D02*
X6552692Y-17322714D01*
X6552692Y-17322714D02*
X6533645Y-17332238D01*
X6762216Y-17360809D02*
X6743168Y-17351285D01*
X6743168Y-17351285D02*
X6733645Y-17341761D01*
X6733645Y-17341761D02*
X6724121Y-17322714D01*
X6724121Y-17322714D02*
X6724121Y-17313190D01*
X6724121Y-17313190D02*
X6733645Y-17294142D01*
X6733645Y-17294142D02*
X6743168Y-17284619D01*
X6743168Y-17284619D02*
X6762216Y-17275095D01*
X6762216Y-17275095D02*
X6800311Y-17275095D01*
X6800311Y-17275095D02*
X6819359Y-17284619D01*
X6819359Y-17284619D02*
X6828883Y-17294142D01*
X6828883Y-17294142D02*
X6838407Y-17313190D01*
X6838407Y-17313190D02*
X6838407Y-17322714D01*
X6838407Y-17322714D02*
X6828883Y-17341761D01*
X6828883Y-17341761D02*
X6819359Y-17351285D01*
X6819359Y-17351285D02*
X6800311Y-17360809D01*
X6800311Y-17360809D02*
X6762216Y-17360809D01*
X6762216Y-17360809D02*
X6743168Y-17370333D01*
X6743168Y-17370333D02*
X6733645Y-17379857D01*
X6733645Y-17379857D02*
X6724121Y-17398904D01*
X6724121Y-17398904D02*
X6724121Y-17437000D01*
X6724121Y-17437000D02*
X6733645Y-17456047D01*
X6733645Y-17456047D02*
X6743168Y-17465571D01*
X6743168Y-17465571D02*
X6762216Y-17475095D01*
X6762216Y-17475095D02*
X6800311Y-17475095D01*
X6800311Y-17475095D02*
X6819359Y-17465571D01*
X6819359Y-17465571D02*
X6828883Y-17456047D01*
X6828883Y-17456047D02*
X6838407Y-17437000D01*
X6838407Y-17437000D02*
X6838407Y-17398904D01*
X6838407Y-17398904D02*
X6828883Y-17379857D01*
X6828883Y-17379857D02*
X6819359Y-17370333D01*
X6819359Y-17370333D02*
X6800311Y-17360809D01*
X6933645Y-17475095D02*
X6971740Y-17475095D01*
X6971740Y-17475095D02*
X6990788Y-17465571D01*
X6990788Y-17465571D02*
X7000311Y-17456047D01*
X7000311Y-17456047D02*
X7019359Y-17427476D01*
X7019359Y-17427476D02*
X7028883Y-17389381D01*
X7028883Y-17389381D02*
X7028883Y-17313190D01*
X7028883Y-17313190D02*
X7019359Y-17294142D01*
X7019359Y-17294142D02*
X7009835Y-17284619D01*
X7009835Y-17284619D02*
X6990788Y-17275095D01*
X6990788Y-17275095D02*
X6952692Y-17275095D01*
X6952692Y-17275095D02*
X6933645Y-17284619D01*
X6933645Y-17284619D02*
X6924121Y-17294142D01*
X6924121Y-17294142D02*
X6914597Y-17313190D01*
X6914597Y-17313190D02*
X6914597Y-17360809D01*
X6914597Y-17360809D02*
X6924121Y-17379857D01*
X6924121Y-17379857D02*
X6933645Y-17389381D01*
X6933645Y-17389381D02*
X6952692Y-17398904D01*
X6952692Y-17398904D02*
X6990788Y-17398904D01*
X6990788Y-17398904D02*
X7009835Y-17389381D01*
X7009835Y-17389381D02*
X7019359Y-17379857D01*
X7019359Y-17379857D02*
X7028883Y-17360809D01*
X7152692Y-17275095D02*
X7171740Y-17275095D01*
X7171740Y-17275095D02*
X7190788Y-17284619D01*
X7190788Y-17284619D02*
X7200311Y-17294142D01*
X7200311Y-17294142D02*
X7209835Y-17313190D01*
X7209835Y-17313190D02*
X7219359Y-17351285D01*
X7219359Y-17351285D02*
X7219359Y-17398904D01*
X7219359Y-17398904D02*
X7209835Y-17437000D01*
X7209835Y-17437000D02*
X7200311Y-17456047D01*
X7200311Y-17456047D02*
X7190788Y-17465571D01*
X7190788Y-17465571D02*
X7171740Y-17475095D01*
X7171740Y-17475095D02*
X7152692Y-17475095D01*
X7152692Y-17475095D02*
X7133645Y-17465571D01*
X7133645Y-17465571D02*
X7124121Y-17456047D01*
X7124121Y-17456047D02*
X7114597Y-17437000D01*
X7114597Y-17437000D02*
X7105073Y-17398904D01*
X7105073Y-17398904D02*
X7105073Y-17351285D01*
X7105073Y-17351285D02*
X7114597Y-17313190D01*
X7114597Y-17313190D02*
X7124121Y-17294142D01*
X7124121Y-17294142D02*
X7133645Y-17284619D01*
X7133645Y-17284619D02*
X7152692Y-17275095D01*
X7295549Y-17275095D02*
X7295549Y-17313190D01*
X7371740Y-17275095D02*
X7371740Y-17313190D01*
X7666978Y-17551285D02*
X7657454Y-17541761D01*
X7657454Y-17541761D02*
X7638407Y-17513190D01*
X7638407Y-17513190D02*
X7628883Y-17494142D01*
X7628883Y-17494142D02*
X7619359Y-17465571D01*
X7619359Y-17465571D02*
X7609835Y-17417952D01*
X7609835Y-17417952D02*
X7609835Y-17379857D01*
X7609835Y-17379857D02*
X7619359Y-17332238D01*
X7619359Y-17332238D02*
X7628883Y-17303666D01*
X7628883Y-17303666D02*
X7638407Y-17284619D01*
X7638407Y-17284619D02*
X7657454Y-17256047D01*
X7657454Y-17256047D02*
X7666978Y-17246523D01*
X7838407Y-17275095D02*
X7743169Y-17275095D01*
X7743169Y-17275095D02*
X7733645Y-17370333D01*
X7733645Y-17370333D02*
X7743169Y-17360809D01*
X7743169Y-17360809D02*
X7762216Y-17351285D01*
X7762216Y-17351285D02*
X7809835Y-17351285D01*
X7809835Y-17351285D02*
X7828883Y-17360809D01*
X7828883Y-17360809D02*
X7838407Y-17370333D01*
X7838407Y-17370333D02*
X7847930Y-17389381D01*
X7847930Y-17389381D02*
X7847930Y-17437000D01*
X7847930Y-17437000D02*
X7838407Y-17456047D01*
X7838407Y-17456047D02*
X7828883Y-17465571D01*
X7828883Y-17465571D02*
X7809835Y-17475095D01*
X7809835Y-17475095D02*
X7762216Y-17475095D01*
X7762216Y-17475095D02*
X7743169Y-17465571D01*
X7743169Y-17465571D02*
X7733645Y-17456047D01*
X8086026Y-17475095D02*
X8086026Y-17275095D01*
X8171740Y-17475095D02*
X8171740Y-17370333D01*
X8171740Y-17370333D02*
X8162216Y-17351285D01*
X8162216Y-17351285D02*
X8143169Y-17341761D01*
X8143169Y-17341761D02*
X8114597Y-17341761D01*
X8114597Y-17341761D02*
X8095550Y-17351285D01*
X8095550Y-17351285D02*
X8086026Y-17360809D01*
X8295550Y-17475095D02*
X8276502Y-17465571D01*
X8276502Y-17465571D02*
X8266978Y-17456047D01*
X8266978Y-17456047D02*
X8257454Y-17437000D01*
X8257454Y-17437000D02*
X8257454Y-17379857D01*
X8257454Y-17379857D02*
X8266978Y-17360809D01*
X8266978Y-17360809D02*
X8276502Y-17351285D01*
X8276502Y-17351285D02*
X8295550Y-17341761D01*
X8295550Y-17341761D02*
X8324121Y-17341761D01*
X8324121Y-17341761D02*
X8343169Y-17351285D01*
X8343169Y-17351285D02*
X8352692Y-17360809D01*
X8352692Y-17360809D02*
X8362216Y-17379857D01*
X8362216Y-17379857D02*
X8362216Y-17437000D01*
X8362216Y-17437000D02*
X8352692Y-17456047D01*
X8352692Y-17456047D02*
X8343169Y-17465571D01*
X8343169Y-17465571D02*
X8324121Y-17475095D01*
X8324121Y-17475095D02*
X8295550Y-17475095D01*
X8476502Y-17475095D02*
X8457454Y-17465571D01*
X8457454Y-17465571D02*
X8447931Y-17446523D01*
X8447931Y-17446523D02*
X8447931Y-17275095D01*
X8628883Y-17465571D02*
X8609835Y-17475095D01*
X8609835Y-17475095D02*
X8571740Y-17475095D01*
X8571740Y-17475095D02*
X8552693Y-17465571D01*
X8552693Y-17465571D02*
X8543169Y-17446523D01*
X8543169Y-17446523D02*
X8543169Y-17370333D01*
X8543169Y-17370333D02*
X8552693Y-17351285D01*
X8552693Y-17351285D02*
X8571740Y-17341761D01*
X8571740Y-17341761D02*
X8609835Y-17341761D01*
X8609835Y-17341761D02*
X8628883Y-17351285D01*
X8628883Y-17351285D02*
X8638407Y-17370333D01*
X8638407Y-17370333D02*
X8638407Y-17389381D01*
X8638407Y-17389381D02*
X8543169Y-17408428D01*
X8714597Y-17465571D02*
X8733645Y-17475095D01*
X8733645Y-17475095D02*
X8771740Y-17475095D01*
X8771740Y-17475095D02*
X8790788Y-17465571D01*
X8790788Y-17465571D02*
X8800312Y-17446523D01*
X8800312Y-17446523D02*
X8800312Y-17437000D01*
X8800312Y-17437000D02*
X8790788Y-17417952D01*
X8790788Y-17417952D02*
X8771740Y-17408428D01*
X8771740Y-17408428D02*
X8743169Y-17408428D01*
X8743169Y-17408428D02*
X8724121Y-17398904D01*
X8724121Y-17398904D02*
X8714597Y-17379857D01*
X8714597Y-17379857D02*
X8714597Y-17370333D01*
X8714597Y-17370333D02*
X8724121Y-17351285D01*
X8724121Y-17351285D02*
X8743169Y-17341761D01*
X8743169Y-17341761D02*
X8771740Y-17341761D01*
X8771740Y-17341761D02*
X8790788Y-17351285D01*
X8866978Y-17551285D02*
X8876502Y-17541761D01*
X8876502Y-17541761D02*
X8895550Y-17513190D01*
X8895550Y-17513190D02*
X8905074Y-17494142D01*
X8905074Y-17494142D02*
X8914597Y-17465571D01*
X8914597Y-17465571D02*
X8924121Y-17417952D01*
X8924121Y-17417952D02*
X8924121Y-17379857D01*
X8924121Y-17379857D02*
X8914597Y-17332238D01*
X8914597Y-17332238D02*
X8905074Y-17303666D01*
X8905074Y-17303666D02*
X8895550Y-17284619D01*
X8895550Y-17284619D02*
X8876502Y-17256047D01*
X8876502Y-17256047D02*
X8866978Y-17246523D01*
X9228883Y-17551285D02*
X9219359Y-17541761D01*
X9219359Y-17541761D02*
X9200312Y-17513190D01*
X9200312Y-17513190D02*
X9190788Y-17494142D01*
X9190788Y-17494142D02*
X9181264Y-17465571D01*
X9181264Y-17465571D02*
X9171740Y-17417952D01*
X9171740Y-17417952D02*
X9171740Y-17379857D01*
X9171740Y-17379857D02*
X9181264Y-17332238D01*
X9181264Y-17332238D02*
X9190788Y-17303666D01*
X9190788Y-17303666D02*
X9200312Y-17284619D01*
X9200312Y-17284619D02*
X9219359Y-17256047D01*
X9219359Y-17256047D02*
X9228883Y-17246523D01*
X9305074Y-17341761D02*
X9305074Y-17475095D01*
X9305074Y-17360809D02*
X9314597Y-17351285D01*
X9314597Y-17351285D02*
X9333645Y-17341761D01*
X9333645Y-17341761D02*
X9362216Y-17341761D01*
X9362216Y-17341761D02*
X9381264Y-17351285D01*
X9381264Y-17351285D02*
X9390788Y-17370333D01*
X9390788Y-17370333D02*
X9390788Y-17475095D01*
X9514597Y-17475095D02*
X9495550Y-17465571D01*
X9495550Y-17465571D02*
X9486026Y-17456047D01*
X9486026Y-17456047D02*
X9476502Y-17437000D01*
X9476502Y-17437000D02*
X9476502Y-17379857D01*
X9476502Y-17379857D02*
X9486026Y-17360809D01*
X9486026Y-17360809D02*
X9495550Y-17351285D01*
X9495550Y-17351285D02*
X9514597Y-17341761D01*
X9514597Y-17341761D02*
X9543169Y-17341761D01*
X9543169Y-17341761D02*
X9562216Y-17351285D01*
X9562216Y-17351285D02*
X9571740Y-17360809D01*
X9571740Y-17360809D02*
X9581264Y-17379857D01*
X9581264Y-17379857D02*
X9581264Y-17437000D01*
X9581264Y-17437000D02*
X9571740Y-17456047D01*
X9571740Y-17456047D02*
X9562216Y-17465571D01*
X9562216Y-17465571D02*
X9543169Y-17475095D01*
X9543169Y-17475095D02*
X9514597Y-17475095D01*
X9638407Y-17341761D02*
X9714597Y-17341761D01*
X9666978Y-17275095D02*
X9666978Y-17446523D01*
X9666978Y-17446523D02*
X9676502Y-17465571D01*
X9676502Y-17465571D02*
X9695550Y-17475095D01*
X9695550Y-17475095D02*
X9714597Y-17475095D01*
X9933645Y-17341761D02*
X9933645Y-17541761D01*
X9933645Y-17351285D02*
X9952693Y-17341761D01*
X9952693Y-17341761D02*
X9990788Y-17341761D01*
X9990788Y-17341761D02*
X10009836Y-17351285D01*
X10009836Y-17351285D02*
X10019359Y-17360809D01*
X10019359Y-17360809D02*
X10028883Y-17379857D01*
X10028883Y-17379857D02*
X10028883Y-17437000D01*
X10028883Y-17437000D02*
X10019359Y-17456047D01*
X10019359Y-17456047D02*
X10009836Y-17465571D01*
X10009836Y-17465571D02*
X9990788Y-17475095D01*
X9990788Y-17475095D02*
X9952693Y-17475095D01*
X9952693Y-17475095D02*
X9933645Y-17465571D01*
X10143169Y-17475095D02*
X10124121Y-17465571D01*
X10124121Y-17465571D02*
X10114597Y-17446523D01*
X10114597Y-17446523D02*
X10114597Y-17275095D01*
X10305074Y-17475095D02*
X10305074Y-17370333D01*
X10305074Y-17370333D02*
X10295550Y-17351285D01*
X10295550Y-17351285D02*
X10276502Y-17341761D01*
X10276502Y-17341761D02*
X10238407Y-17341761D01*
X10238407Y-17341761D02*
X10219359Y-17351285D01*
X10305074Y-17465571D02*
X10286026Y-17475095D01*
X10286026Y-17475095D02*
X10238407Y-17475095D01*
X10238407Y-17475095D02*
X10219359Y-17465571D01*
X10219359Y-17465571D02*
X10209836Y-17446523D01*
X10209836Y-17446523D02*
X10209836Y-17427476D01*
X10209836Y-17427476D02*
X10219359Y-17408428D01*
X10219359Y-17408428D02*
X10238407Y-17398904D01*
X10238407Y-17398904D02*
X10286026Y-17398904D01*
X10286026Y-17398904D02*
X10305074Y-17389381D01*
X10371740Y-17341761D02*
X10447931Y-17341761D01*
X10400312Y-17275095D02*
X10400312Y-17446523D01*
X10400312Y-17446523D02*
X10409836Y-17465571D01*
X10409836Y-17465571D02*
X10428883Y-17475095D01*
X10428883Y-17475095D02*
X10447931Y-17475095D01*
X10590788Y-17465571D02*
X10571740Y-17475095D01*
X10571740Y-17475095D02*
X10533645Y-17475095D01*
X10533645Y-17475095D02*
X10514597Y-17465571D01*
X10514597Y-17465571D02*
X10505074Y-17446523D01*
X10505074Y-17446523D02*
X10505074Y-17370333D01*
X10505074Y-17370333D02*
X10514597Y-17351285D01*
X10514597Y-17351285D02*
X10533645Y-17341761D01*
X10533645Y-17341761D02*
X10571740Y-17341761D01*
X10571740Y-17341761D02*
X10590788Y-17351285D01*
X10590788Y-17351285D02*
X10600312Y-17370333D01*
X10600312Y-17370333D02*
X10600312Y-17389381D01*
X10600312Y-17389381D02*
X10505074Y-17408428D01*
X10771740Y-17475095D02*
X10771740Y-17275095D01*
X10771740Y-17465571D02*
X10752693Y-17475095D01*
X10752693Y-17475095D02*
X10714597Y-17475095D01*
X10714597Y-17475095D02*
X10695550Y-17465571D01*
X10695550Y-17465571D02*
X10686026Y-17456047D01*
X10686026Y-17456047D02*
X10676502Y-17437000D01*
X10676502Y-17437000D02*
X10676502Y-17379857D01*
X10676502Y-17379857D02*
X10686026Y-17360809D01*
X10686026Y-17360809D02*
X10695550Y-17351285D01*
X10695550Y-17351285D02*
X10714597Y-17341761D01*
X10714597Y-17341761D02*
X10752693Y-17341761D01*
X10752693Y-17341761D02*
X10771740Y-17351285D01*
X10847931Y-17551285D02*
X10857455Y-17541761D01*
X10857455Y-17541761D02*
X10876502Y-17513190D01*
X10876502Y-17513190D02*
X10886026Y-17494142D01*
X10886026Y-17494142D02*
X10895550Y-17465571D01*
X10895550Y-17465571D02*
X10905074Y-17417952D01*
X10905074Y-17417952D02*
X10905074Y-17379857D01*
X10905074Y-17379857D02*
X10895550Y-17332238D01*
X10895550Y-17332238D02*
X10886026Y-17303666D01*
X10886026Y-17303666D02*
X10876502Y-17284619D01*
X10876502Y-17284619D02*
X10857455Y-17256047D01*
X10857455Y-17256047D02*
X10847931Y-17246523D01*
X3891915Y-17603611D02*
X4091915Y-17803611D01*
X4091915Y-17603611D02*
X3891915Y-17803611D01*
X4091915Y-17703611D02*
G75*
G02*
X3891915Y-17703611I-100000J0D01*
G01*
X3891915Y-17703611D02*
G75*
G02*
X4091915Y-17703611I100000J0D01*
G01*
X4447930Y-17595095D02*
X4352692Y-17595095D01*
X4352692Y-17595095D02*
X4343168Y-17690333D01*
X4343168Y-17690333D02*
X4352692Y-17680809D01*
X4352692Y-17680809D02*
X4371740Y-17671285D01*
X4371740Y-17671285D02*
X4419359Y-17671285D01*
X4419359Y-17671285D02*
X4438406Y-17680809D01*
X4438406Y-17680809D02*
X4447930Y-17690333D01*
X4447930Y-17690333D02*
X4457454Y-17709381D01*
X4457454Y-17709381D02*
X4457454Y-17757000D01*
X4457454Y-17757000D02*
X4447930Y-17776047D01*
X4447930Y-17776047D02*
X4438406Y-17785571D01*
X4438406Y-17785571D02*
X4419359Y-17795095D01*
X4419359Y-17795095D02*
X4371740Y-17795095D01*
X4371740Y-17795095D02*
X4352692Y-17785571D01*
X4352692Y-17785571D02*
X4343168Y-17776047D01*
X4543168Y-17776047D02*
X4552692Y-17785571D01*
X4552692Y-17785571D02*
X4543168Y-17795095D01*
X4543168Y-17795095D02*
X4533645Y-17785571D01*
X4533645Y-17785571D02*
X4543168Y-17776047D01*
X4543168Y-17776047D02*
X4543168Y-17795095D01*
X4676502Y-17595095D02*
X4695549Y-17595095D01*
X4695549Y-17595095D02*
X4714597Y-17604619D01*
X4714597Y-17604619D02*
X4724121Y-17614142D01*
X4724121Y-17614142D02*
X4733645Y-17633190D01*
X4733645Y-17633190D02*
X4743168Y-17671285D01*
X4743168Y-17671285D02*
X4743168Y-17718904D01*
X4743168Y-17718904D02*
X4733645Y-17757000D01*
X4733645Y-17757000D02*
X4724121Y-17776047D01*
X4724121Y-17776047D02*
X4714597Y-17785571D01*
X4714597Y-17785571D02*
X4695549Y-17795095D01*
X4695549Y-17795095D02*
X4676502Y-17795095D01*
X4676502Y-17795095D02*
X4657454Y-17785571D01*
X4657454Y-17785571D02*
X4647930Y-17776047D01*
X4647930Y-17776047D02*
X4638406Y-17757000D01*
X4638406Y-17757000D02*
X4628883Y-17718904D01*
X4628883Y-17718904D02*
X4628883Y-17671285D01*
X4628883Y-17671285D02*
X4638406Y-17633190D01*
X4638406Y-17633190D02*
X4647930Y-17614142D01*
X4647930Y-17614142D02*
X4657454Y-17604619D01*
X4657454Y-17604619D02*
X4676502Y-17595095D01*
X4924121Y-17595095D02*
X4828883Y-17595095D01*
X4828883Y-17595095D02*
X4819359Y-17690333D01*
X4819359Y-17690333D02*
X4828883Y-17680809D01*
X4828883Y-17680809D02*
X4847930Y-17671285D01*
X4847930Y-17671285D02*
X4895549Y-17671285D01*
X4895549Y-17671285D02*
X4914597Y-17680809D01*
X4914597Y-17680809D02*
X4924121Y-17690333D01*
X4924121Y-17690333D02*
X4933645Y-17709381D01*
X4933645Y-17709381D02*
X4933645Y-17757000D01*
X4933645Y-17757000D02*
X4924121Y-17776047D01*
X4924121Y-17776047D02*
X4914597Y-17785571D01*
X4914597Y-17785571D02*
X4895549Y-17795095D01*
X4895549Y-17795095D02*
X4847930Y-17795095D01*
X4847930Y-17795095D02*
X4828883Y-17785571D01*
X4828883Y-17785571D02*
X4819359Y-17776047D01*
X5057454Y-17595095D02*
X5076502Y-17595095D01*
X5076502Y-17595095D02*
X5095549Y-17604619D01*
X5095549Y-17604619D02*
X5105073Y-17614142D01*
X5105073Y-17614142D02*
X5114597Y-17633190D01*
X5114597Y-17633190D02*
X5124121Y-17671285D01*
X5124121Y-17671285D02*
X5124121Y-17718904D01*
X5124121Y-17718904D02*
X5114597Y-17757000D01*
X5114597Y-17757000D02*
X5105073Y-17776047D01*
X5105073Y-17776047D02*
X5095549Y-17785571D01*
X5095549Y-17785571D02*
X5076502Y-17795095D01*
X5076502Y-17795095D02*
X5057454Y-17795095D01*
X5057454Y-17795095D02*
X5038406Y-17785571D01*
X5038406Y-17785571D02*
X5028883Y-17776047D01*
X5028883Y-17776047D02*
X5019359Y-17757000D01*
X5019359Y-17757000D02*
X5009835Y-17718904D01*
X5009835Y-17718904D02*
X5009835Y-17671285D01*
X5009835Y-17671285D02*
X5019359Y-17633190D01*
X5019359Y-17633190D02*
X5028883Y-17614142D01*
X5028883Y-17614142D02*
X5038406Y-17604619D01*
X5038406Y-17604619D02*
X5057454Y-17595095D01*
X5209835Y-17795095D02*
X5209835Y-17661761D01*
X5209835Y-17680809D02*
X5219359Y-17671285D01*
X5219359Y-17671285D02*
X5238406Y-17661761D01*
X5238406Y-17661761D02*
X5266978Y-17661761D01*
X5266978Y-17661761D02*
X5286026Y-17671285D01*
X5286026Y-17671285D02*
X5295549Y-17690333D01*
X5295549Y-17690333D02*
X5295549Y-17795095D01*
X5295549Y-17690333D02*
X5305073Y-17671285D01*
X5305073Y-17671285D02*
X5324121Y-17661761D01*
X5324121Y-17661761D02*
X5352692Y-17661761D01*
X5352692Y-17661761D02*
X5371740Y-17671285D01*
X5371740Y-17671285D02*
X5381264Y-17690333D01*
X5381264Y-17690333D02*
X5381264Y-17795095D01*
X5476502Y-17795095D02*
X5476502Y-17661761D01*
X5476502Y-17680809D02*
X5486026Y-17671285D01*
X5486026Y-17671285D02*
X5505073Y-17661761D01*
X5505073Y-17661761D02*
X5533645Y-17661761D01*
X5533645Y-17661761D02*
X5552692Y-17671285D01*
X5552692Y-17671285D02*
X5562216Y-17690333D01*
X5562216Y-17690333D02*
X5562216Y-17795095D01*
X5562216Y-17690333D02*
X5571740Y-17671285D01*
X5571740Y-17671285D02*
X5590787Y-17661761D01*
X5590787Y-17661761D02*
X5619359Y-17661761D01*
X5619359Y-17661761D02*
X5638406Y-17671285D01*
X5638406Y-17671285D02*
X5647930Y-17690333D01*
X5647930Y-17690333D02*
X5647930Y-17795095D01*
X6038406Y-17585571D02*
X5866978Y-17842714D01*
X6295549Y-17595095D02*
X6314597Y-17595095D01*
X6314597Y-17595095D02*
X6333645Y-17604619D01*
X6333645Y-17604619D02*
X6343168Y-17614142D01*
X6343168Y-17614142D02*
X6352692Y-17633190D01*
X6352692Y-17633190D02*
X6362216Y-17671285D01*
X6362216Y-17671285D02*
X6362216Y-17718904D01*
X6362216Y-17718904D02*
X6352692Y-17757000D01*
X6352692Y-17757000D02*
X6343168Y-17776047D01*
X6343168Y-17776047D02*
X6333645Y-17785571D01*
X6333645Y-17785571D02*
X6314597Y-17795095D01*
X6314597Y-17795095D02*
X6295549Y-17795095D01*
X6295549Y-17795095D02*
X6276502Y-17785571D01*
X6276502Y-17785571D02*
X6266978Y-17776047D01*
X6266978Y-17776047D02*
X6257454Y-17757000D01*
X6257454Y-17757000D02*
X6247930Y-17718904D01*
X6247930Y-17718904D02*
X6247930Y-17671285D01*
X6247930Y-17671285D02*
X6257454Y-17633190D01*
X6257454Y-17633190D02*
X6266978Y-17614142D01*
X6266978Y-17614142D02*
X6276502Y-17604619D01*
X6276502Y-17604619D02*
X6295549Y-17595095D01*
X6447930Y-17776047D02*
X6457454Y-17785571D01*
X6457454Y-17785571D02*
X6447930Y-17795095D01*
X6447930Y-17795095D02*
X6438407Y-17785571D01*
X6438407Y-17785571D02*
X6447930Y-17776047D01*
X6447930Y-17776047D02*
X6447930Y-17795095D01*
X6647930Y-17795095D02*
X6533645Y-17795095D01*
X6590787Y-17795095D02*
X6590787Y-17595095D01*
X6590787Y-17595095D02*
X6571740Y-17623666D01*
X6571740Y-17623666D02*
X6552692Y-17642714D01*
X6552692Y-17642714D02*
X6533645Y-17652238D01*
X6743168Y-17795095D02*
X6781264Y-17795095D01*
X6781264Y-17795095D02*
X6800311Y-17785571D01*
X6800311Y-17785571D02*
X6809835Y-17776047D01*
X6809835Y-17776047D02*
X6828883Y-17747476D01*
X6828883Y-17747476D02*
X6838407Y-17709381D01*
X6838407Y-17709381D02*
X6838407Y-17633190D01*
X6838407Y-17633190D02*
X6828883Y-17614142D01*
X6828883Y-17614142D02*
X6819359Y-17604619D01*
X6819359Y-17604619D02*
X6800311Y-17595095D01*
X6800311Y-17595095D02*
X6762216Y-17595095D01*
X6762216Y-17595095D02*
X6743168Y-17604619D01*
X6743168Y-17604619D02*
X6733645Y-17614142D01*
X6733645Y-17614142D02*
X6724121Y-17633190D01*
X6724121Y-17633190D02*
X6724121Y-17680809D01*
X6724121Y-17680809D02*
X6733645Y-17699857D01*
X6733645Y-17699857D02*
X6743168Y-17709381D01*
X6743168Y-17709381D02*
X6762216Y-17718904D01*
X6762216Y-17718904D02*
X6800311Y-17718904D01*
X6800311Y-17718904D02*
X6819359Y-17709381D01*
X6819359Y-17709381D02*
X6828883Y-17699857D01*
X6828883Y-17699857D02*
X6838407Y-17680809D01*
X6952692Y-17680809D02*
X6933645Y-17671285D01*
X6933645Y-17671285D02*
X6924121Y-17661761D01*
X6924121Y-17661761D02*
X6914597Y-17642714D01*
X6914597Y-17642714D02*
X6914597Y-17633190D01*
X6914597Y-17633190D02*
X6924121Y-17614142D01*
X6924121Y-17614142D02*
X6933645Y-17604619D01*
X6933645Y-17604619D02*
X6952692Y-17595095D01*
X6952692Y-17595095D02*
X6990788Y-17595095D01*
X6990788Y-17595095D02*
X7009835Y-17604619D01*
X7009835Y-17604619D02*
X7019359Y-17614142D01*
X7019359Y-17614142D02*
X7028883Y-17633190D01*
X7028883Y-17633190D02*
X7028883Y-17642714D01*
X7028883Y-17642714D02*
X7019359Y-17661761D01*
X7019359Y-17661761D02*
X7009835Y-17671285D01*
X7009835Y-17671285D02*
X6990788Y-17680809D01*
X6990788Y-17680809D02*
X6952692Y-17680809D01*
X6952692Y-17680809D02*
X6933645Y-17690333D01*
X6933645Y-17690333D02*
X6924121Y-17699857D01*
X6924121Y-17699857D02*
X6914597Y-17718904D01*
X6914597Y-17718904D02*
X6914597Y-17757000D01*
X6914597Y-17757000D02*
X6924121Y-17776047D01*
X6924121Y-17776047D02*
X6933645Y-17785571D01*
X6933645Y-17785571D02*
X6952692Y-17795095D01*
X6952692Y-17795095D02*
X6990788Y-17795095D01*
X6990788Y-17795095D02*
X7009835Y-17785571D01*
X7009835Y-17785571D02*
X7019359Y-17776047D01*
X7019359Y-17776047D02*
X7028883Y-17757000D01*
X7028883Y-17757000D02*
X7028883Y-17718904D01*
X7028883Y-17718904D02*
X7019359Y-17699857D01*
X7019359Y-17699857D02*
X7009835Y-17690333D01*
X7009835Y-17690333D02*
X6990788Y-17680809D01*
X7143168Y-17680809D02*
X7124121Y-17671285D01*
X7124121Y-17671285D02*
X7114597Y-17661761D01*
X7114597Y-17661761D02*
X7105073Y-17642714D01*
X7105073Y-17642714D02*
X7105073Y-17633190D01*
X7105073Y-17633190D02*
X7114597Y-17614142D01*
X7114597Y-17614142D02*
X7124121Y-17604619D01*
X7124121Y-17604619D02*
X7143168Y-17595095D01*
X7143168Y-17595095D02*
X7181264Y-17595095D01*
X7181264Y-17595095D02*
X7200311Y-17604619D01*
X7200311Y-17604619D02*
X7209835Y-17614142D01*
X7209835Y-17614142D02*
X7219359Y-17633190D01*
X7219359Y-17633190D02*
X7219359Y-17642714D01*
X7219359Y-17642714D02*
X7209835Y-17661761D01*
X7209835Y-17661761D02*
X7200311Y-17671285D01*
X7200311Y-17671285D02*
X7181264Y-17680809D01*
X7181264Y-17680809D02*
X7143168Y-17680809D01*
X7143168Y-17680809D02*
X7124121Y-17690333D01*
X7124121Y-17690333D02*
X7114597Y-17699857D01*
X7114597Y-17699857D02*
X7105073Y-17718904D01*
X7105073Y-17718904D02*
X7105073Y-17757000D01*
X7105073Y-17757000D02*
X7114597Y-17776047D01*
X7114597Y-17776047D02*
X7124121Y-17785571D01*
X7124121Y-17785571D02*
X7143168Y-17795095D01*
X7143168Y-17795095D02*
X7181264Y-17795095D01*
X7181264Y-17795095D02*
X7200311Y-17785571D01*
X7200311Y-17785571D02*
X7209835Y-17776047D01*
X7209835Y-17776047D02*
X7219359Y-17757000D01*
X7219359Y-17757000D02*
X7219359Y-17718904D01*
X7219359Y-17718904D02*
X7209835Y-17699857D01*
X7209835Y-17699857D02*
X7200311Y-17690333D01*
X7200311Y-17690333D02*
X7181264Y-17680809D01*
X7295549Y-17595095D02*
X7295549Y-17633190D01*
X7371740Y-17595095D02*
X7371740Y-17633190D01*
X7666978Y-17871285D02*
X7657454Y-17861761D01*
X7657454Y-17861761D02*
X7638407Y-17833190D01*
X7638407Y-17833190D02*
X7628883Y-17814142D01*
X7628883Y-17814142D02*
X7619359Y-17785571D01*
X7619359Y-17785571D02*
X7609835Y-17737952D01*
X7609835Y-17737952D02*
X7609835Y-17699857D01*
X7609835Y-17699857D02*
X7619359Y-17652238D01*
X7619359Y-17652238D02*
X7628883Y-17623666D01*
X7628883Y-17623666D02*
X7638407Y-17604619D01*
X7638407Y-17604619D02*
X7657454Y-17576047D01*
X7657454Y-17576047D02*
X7666978Y-17566523D01*
X7838407Y-17595095D02*
X7743169Y-17595095D01*
X7743169Y-17595095D02*
X7733645Y-17690333D01*
X7733645Y-17690333D02*
X7743169Y-17680809D01*
X7743169Y-17680809D02*
X7762216Y-17671285D01*
X7762216Y-17671285D02*
X7809835Y-17671285D01*
X7809835Y-17671285D02*
X7828883Y-17680809D01*
X7828883Y-17680809D02*
X7838407Y-17690333D01*
X7838407Y-17690333D02*
X7847930Y-17709381D01*
X7847930Y-17709381D02*
X7847930Y-17757000D01*
X7847930Y-17757000D02*
X7838407Y-17776047D01*
X7838407Y-17776047D02*
X7828883Y-17785571D01*
X7828883Y-17785571D02*
X7809835Y-17795095D01*
X7809835Y-17795095D02*
X7762216Y-17795095D01*
X7762216Y-17795095D02*
X7743169Y-17785571D01*
X7743169Y-17785571D02*
X7733645Y-17776047D01*
X7971740Y-17595095D02*
X7990788Y-17595095D01*
X7990788Y-17595095D02*
X8009835Y-17604619D01*
X8009835Y-17604619D02*
X8019359Y-17614142D01*
X8019359Y-17614142D02*
X8028883Y-17633190D01*
X8028883Y-17633190D02*
X8038407Y-17671285D01*
X8038407Y-17671285D02*
X8038407Y-17718904D01*
X8038407Y-17718904D02*
X8028883Y-17757000D01*
X8028883Y-17757000D02*
X8019359Y-17776047D01*
X8019359Y-17776047D02*
X8009835Y-17785571D01*
X8009835Y-17785571D02*
X7990788Y-17795095D01*
X7990788Y-17795095D02*
X7971740Y-17795095D01*
X7971740Y-17795095D02*
X7952692Y-17785571D01*
X7952692Y-17785571D02*
X7943169Y-17776047D01*
X7943169Y-17776047D02*
X7933645Y-17757000D01*
X7933645Y-17757000D02*
X7924121Y-17718904D01*
X7924121Y-17718904D02*
X7924121Y-17671285D01*
X7924121Y-17671285D02*
X7933645Y-17633190D01*
X7933645Y-17633190D02*
X7943169Y-17614142D01*
X7943169Y-17614142D02*
X7952692Y-17604619D01*
X7952692Y-17604619D02*
X7971740Y-17595095D01*
X8276502Y-17795095D02*
X8276502Y-17595095D01*
X8362216Y-17795095D02*
X8362216Y-17690333D01*
X8362216Y-17690333D02*
X8352692Y-17671285D01*
X8352692Y-17671285D02*
X8333645Y-17661761D01*
X8333645Y-17661761D02*
X8305073Y-17661761D01*
X8305073Y-17661761D02*
X8286026Y-17671285D01*
X8286026Y-17671285D02*
X8276502Y-17680809D01*
X8486026Y-17795095D02*
X8466978Y-17785571D01*
X8466978Y-17785571D02*
X8457454Y-17776047D01*
X8457454Y-17776047D02*
X8447931Y-17757000D01*
X8447931Y-17757000D02*
X8447931Y-17699857D01*
X8447931Y-17699857D02*
X8457454Y-17680809D01*
X8457454Y-17680809D02*
X8466978Y-17671285D01*
X8466978Y-17671285D02*
X8486026Y-17661761D01*
X8486026Y-17661761D02*
X8514597Y-17661761D01*
X8514597Y-17661761D02*
X8533645Y-17671285D01*
X8533645Y-17671285D02*
X8543169Y-17680809D01*
X8543169Y-17680809D02*
X8552693Y-17699857D01*
X8552693Y-17699857D02*
X8552693Y-17757000D01*
X8552693Y-17757000D02*
X8543169Y-17776047D01*
X8543169Y-17776047D02*
X8533645Y-17785571D01*
X8533645Y-17785571D02*
X8514597Y-17795095D01*
X8514597Y-17795095D02*
X8486026Y-17795095D01*
X8666978Y-17795095D02*
X8647931Y-17785571D01*
X8647931Y-17785571D02*
X8638407Y-17766523D01*
X8638407Y-17766523D02*
X8638407Y-17595095D01*
X8819359Y-17785571D02*
X8800312Y-17795095D01*
X8800312Y-17795095D02*
X8762216Y-17795095D01*
X8762216Y-17795095D02*
X8743169Y-17785571D01*
X8743169Y-17785571D02*
X8733645Y-17766523D01*
X8733645Y-17766523D02*
X8733645Y-17690333D01*
X8733645Y-17690333D02*
X8743169Y-17671285D01*
X8743169Y-17671285D02*
X8762216Y-17661761D01*
X8762216Y-17661761D02*
X8800312Y-17661761D01*
X8800312Y-17661761D02*
X8819359Y-17671285D01*
X8819359Y-17671285D02*
X8828883Y-17690333D01*
X8828883Y-17690333D02*
X8828883Y-17709381D01*
X8828883Y-17709381D02*
X8733645Y-17728428D01*
X8905074Y-17785571D02*
X8924121Y-17795095D01*
X8924121Y-17795095D02*
X8962216Y-17795095D01*
X8962216Y-17795095D02*
X8981264Y-17785571D01*
X8981264Y-17785571D02*
X8990788Y-17766523D01*
X8990788Y-17766523D02*
X8990788Y-17757000D01*
X8990788Y-17757000D02*
X8981264Y-17737952D01*
X8981264Y-17737952D02*
X8962216Y-17728428D01*
X8962216Y-17728428D02*
X8933645Y-17728428D01*
X8933645Y-17728428D02*
X8914597Y-17718904D01*
X8914597Y-17718904D02*
X8905074Y-17699857D01*
X8905074Y-17699857D02*
X8905074Y-17690333D01*
X8905074Y-17690333D02*
X8914597Y-17671285D01*
X8914597Y-17671285D02*
X8933645Y-17661761D01*
X8933645Y-17661761D02*
X8962216Y-17661761D01*
X8962216Y-17661761D02*
X8981264Y-17671285D01*
X9057455Y-17871285D02*
X9066978Y-17861761D01*
X9066978Y-17861761D02*
X9086026Y-17833190D01*
X9086026Y-17833190D02*
X9095550Y-17814142D01*
X9095550Y-17814142D02*
X9105074Y-17785571D01*
X9105074Y-17785571D02*
X9114597Y-17737952D01*
X9114597Y-17737952D02*
X9114597Y-17699857D01*
X9114597Y-17699857D02*
X9105074Y-17652238D01*
X9105074Y-17652238D02*
X9095550Y-17623666D01*
X9095550Y-17623666D02*
X9086026Y-17604619D01*
X9086026Y-17604619D02*
X9066978Y-17576047D01*
X9066978Y-17576047D02*
X9057455Y-17566523D01*
X9419359Y-17871285D02*
X9409835Y-17861761D01*
X9409835Y-17861761D02*
X9390788Y-17833190D01*
X9390788Y-17833190D02*
X9381264Y-17814142D01*
X9381264Y-17814142D02*
X9371740Y-17785571D01*
X9371740Y-17785571D02*
X9362216Y-17737952D01*
X9362216Y-17737952D02*
X9362216Y-17699857D01*
X9362216Y-17699857D02*
X9371740Y-17652238D01*
X9371740Y-17652238D02*
X9381264Y-17623666D01*
X9381264Y-17623666D02*
X9390788Y-17604619D01*
X9390788Y-17604619D02*
X9409835Y-17576047D01*
X9409835Y-17576047D02*
X9419359Y-17566523D01*
X9495550Y-17661761D02*
X9495550Y-17795095D01*
X9495550Y-17680809D02*
X9505074Y-17671285D01*
X9505074Y-17671285D02*
X9524121Y-17661761D01*
X9524121Y-17661761D02*
X9552693Y-17661761D01*
X9552693Y-17661761D02*
X9571740Y-17671285D01*
X9571740Y-17671285D02*
X9581264Y-17690333D01*
X9581264Y-17690333D02*
X9581264Y-17795095D01*
X9705074Y-17795095D02*
X9686026Y-17785571D01*
X9686026Y-17785571D02*
X9676502Y-17776047D01*
X9676502Y-17776047D02*
X9666978Y-17757000D01*
X9666978Y-17757000D02*
X9666978Y-17699857D01*
X9666978Y-17699857D02*
X9676502Y-17680809D01*
X9676502Y-17680809D02*
X9686026Y-17671285D01*
X9686026Y-17671285D02*
X9705074Y-17661761D01*
X9705074Y-17661761D02*
X9733645Y-17661761D01*
X9733645Y-17661761D02*
X9752693Y-17671285D01*
X9752693Y-17671285D02*
X9762216Y-17680809D01*
X9762216Y-17680809D02*
X9771740Y-17699857D01*
X9771740Y-17699857D02*
X9771740Y-17757000D01*
X9771740Y-17757000D02*
X9762216Y-17776047D01*
X9762216Y-17776047D02*
X9752693Y-17785571D01*
X9752693Y-17785571D02*
X9733645Y-17795095D01*
X9733645Y-17795095D02*
X9705074Y-17795095D01*
X9828883Y-17661761D02*
X9905074Y-17661761D01*
X9857455Y-17595095D02*
X9857455Y-17766523D01*
X9857455Y-17766523D02*
X9866978Y-17785571D01*
X9866978Y-17785571D02*
X9886026Y-17795095D01*
X9886026Y-17795095D02*
X9905074Y-17795095D01*
X10124121Y-17661761D02*
X10124121Y-17861761D01*
X10124121Y-17671285D02*
X10143169Y-17661761D01*
X10143169Y-17661761D02*
X10181264Y-17661761D01*
X10181264Y-17661761D02*
X10200312Y-17671285D01*
X10200312Y-17671285D02*
X10209836Y-17680809D01*
X10209836Y-17680809D02*
X10219359Y-17699857D01*
X10219359Y-17699857D02*
X10219359Y-17757000D01*
X10219359Y-17757000D02*
X10209836Y-17776047D01*
X10209836Y-17776047D02*
X10200312Y-17785571D01*
X10200312Y-17785571D02*
X10181264Y-17795095D01*
X10181264Y-17795095D02*
X10143169Y-17795095D01*
X10143169Y-17795095D02*
X10124121Y-17785571D01*
X10333645Y-17795095D02*
X10314597Y-17785571D01*
X10314597Y-17785571D02*
X10305074Y-17766523D01*
X10305074Y-17766523D02*
X10305074Y-17595095D01*
X10495550Y-17795095D02*
X10495550Y-17690333D01*
X10495550Y-17690333D02*
X10486026Y-17671285D01*
X10486026Y-17671285D02*
X10466978Y-17661761D01*
X10466978Y-17661761D02*
X10428883Y-17661761D01*
X10428883Y-17661761D02*
X10409836Y-17671285D01*
X10495550Y-17785571D02*
X10476502Y-17795095D01*
X10476502Y-17795095D02*
X10428883Y-17795095D01*
X10428883Y-17795095D02*
X10409836Y-17785571D01*
X10409836Y-17785571D02*
X10400312Y-17766523D01*
X10400312Y-17766523D02*
X10400312Y-17747476D01*
X10400312Y-17747476D02*
X10409836Y-17728428D01*
X10409836Y-17728428D02*
X10428883Y-17718904D01*
X10428883Y-17718904D02*
X10476502Y-17718904D01*
X10476502Y-17718904D02*
X10495550Y-17709381D01*
X10562217Y-17661761D02*
X10638407Y-17661761D01*
X10590788Y-17595095D02*
X10590788Y-17766523D01*
X10590788Y-17766523D02*
X10600312Y-17785571D01*
X10600312Y-17785571D02*
X10619359Y-17795095D01*
X10619359Y-17795095D02*
X10638407Y-17795095D01*
X10781264Y-17785571D02*
X10762217Y-17795095D01*
X10762217Y-17795095D02*
X10724121Y-17795095D01*
X10724121Y-17795095D02*
X10705074Y-17785571D01*
X10705074Y-17785571D02*
X10695550Y-17766523D01*
X10695550Y-17766523D02*
X10695550Y-17690333D01*
X10695550Y-17690333D02*
X10705074Y-17671285D01*
X10705074Y-17671285D02*
X10724121Y-17661761D01*
X10724121Y-17661761D02*
X10762217Y-17661761D01*
X10762217Y-17661761D02*
X10781264Y-17671285D01*
X10781264Y-17671285D02*
X10790788Y-17690333D01*
X10790788Y-17690333D02*
X10790788Y-17709381D01*
X10790788Y-17709381D02*
X10695550Y-17728428D01*
X10962217Y-17795095D02*
X10962217Y-17595095D01*
X10962217Y-17785571D02*
X10943169Y-17795095D01*
X10943169Y-17795095D02*
X10905074Y-17795095D01*
X10905074Y-17795095D02*
X10886026Y-17785571D01*
X10886026Y-17785571D02*
X10876502Y-17776047D01*
X10876502Y-17776047D02*
X10866978Y-17757000D01*
X10866978Y-17757000D02*
X10866978Y-17699857D01*
X10866978Y-17699857D02*
X10876502Y-17680809D01*
X10876502Y-17680809D02*
X10886026Y-17671285D01*
X10886026Y-17671285D02*
X10905074Y-17661761D01*
X10905074Y-17661761D02*
X10943169Y-17661761D01*
X10943169Y-17661761D02*
X10962217Y-17671285D01*
X11038407Y-17871285D02*
X11047931Y-17861761D01*
X11047931Y-17861761D02*
X11066978Y-17833190D01*
X11066978Y-17833190D02*
X11076502Y-17814142D01*
X11076502Y-17814142D02*
X11086026Y-17785571D01*
X11086026Y-17785571D02*
X11095550Y-17737952D01*
X11095550Y-17737952D02*
X11095550Y-17699857D01*
X11095550Y-17699857D02*
X11086026Y-17652238D01*
X11086026Y-17652238D02*
X11076502Y-17623666D01*
X11076502Y-17623666D02*
X11066978Y-17604619D01*
X11066978Y-17604619D02*
X11047931Y-17576047D01*
X11047931Y-17576047D02*
X11038407Y-17566523D01*
M02*
