M48
; DRILL file {KiCad 8.0.1} date 2024-03-22T14:56:28+0900
; FORMAT={-:-/ absolute / metric / decimal}
; #@! TF.CreationDate,2024-03-22T14:56:28+09:00
; #@! TF.GenerationSoftware,Kicad,Pcbnew,8.0.1
; #@! TF.FileFunction,NonPlated,1,2,NPTH
FMAT,2
METRIC
; #@! TA.AperFunction,NonPlated,NPTH,ComponentDrill
T1C0.900
; #@! TA.AperFunction,NonPlated,NPTH,ComponentDrill
T2C1.900
; #@! TA.AperFunction,NonPlated,NPTH,ComponentDrill
T3C2.200
; #@! TA.AperFunction,NonPlated,NPTH,ComponentDrill
T4C4.000
; #@! TA.AperFunction,NonPlated,NPTH,ComponentDrill
T5C4.800
; #@! TA.AperFunction,NonPlated,NPTH,ComponentDrill
T6C5.050
%
G90
G05
T1
X78.358Y-134.465
X78.383Y-134.465
X81.358Y-134.465
X81.383Y-134.465
T2
X44.5Y-69.05
X44.5Y-69.05
X44.5Y-88.1
X44.5Y-88.1
X44.5Y-107.15
X44.5Y-107.15
X55.5Y-69.05
X55.5Y-69.05
X55.5Y-88.1
X55.5Y-88.1
X55.5Y-107.15
X55.5Y-107.15
X63.55Y-69.05
X63.55Y-69.05
X63.55Y-88.1
X63.55Y-88.1
X63.55Y-107.15
X63.55Y-107.15
X74.55Y-69.05
X74.55Y-69.05
X74.55Y-88.1
X74.55Y-88.1
X74.55Y-107.15
X74.55Y-107.15
X82.6Y-67.145
X82.6Y-67.145
X82.6Y-86.195
X82.6Y-86.195
X82.6Y-105.245
X82.6Y-105.245
X93.6Y-67.145
X93.6Y-67.145
X93.6Y-86.195
X93.6Y-86.195
X93.6Y-105.245
X93.6Y-105.245
X101.65Y-63.335
X101.65Y-63.335
X101.65Y-82.385
X101.65Y-82.385
X101.65Y-101.435
X101.65Y-101.435
X101.65Y-127.1
X101.65Y-127.1
X112.65Y-63.335
X112.65Y-63.335
X112.65Y-82.385
X112.65Y-82.385
X112.65Y-101.435
X112.65Y-101.435
X112.65Y-127.1
X112.65Y-127.1
X120.7Y-67.145
X120.7Y-67.145
X120.7Y-86.195
X120.7Y-86.195
X120.7Y-105.245
X120.7Y-105.245
X121.884Y-127.945
X121.884Y-127.945
X131.7Y-67.145
X131.7Y-67.145
X131.7Y-86.195
X131.7Y-86.195
X131.7Y-105.245
X131.7Y-105.245
X132.716Y-129.855
X132.716Y-129.855
X139.75Y-70.955
X139.75Y-70.955
X139.75Y-90.005
X139.75Y-90.005
X139.75Y-109.055
X139.75Y-109.055
X141.832Y-132.319
X141.832Y-132.319
X150.75Y-70.955
X150.75Y-70.955
X150.75Y-90.005
X150.75Y-90.005
X150.75Y-109.055
X150.75Y-109.055
X152.168Y-136.081
X152.168Y-136.081
X158.8Y-74.765
X158.8Y-74.765
X158.8Y-93.815
X158.8Y-93.815
X159.275Y-118.063
X159.275Y-118.063
X160.637Y-140.05
X160.637Y-140.05
X169.325Y-122.537
X169.325Y-122.537
X169.8Y-74.765
X169.8Y-74.765
X169.8Y-93.815
X169.8Y-93.815
X170.163Y-145.55
X170.163Y-145.55
T3
X95.5Y-119.2
X95.5Y-133.7
T4
X69.05Y-69.05
T5
X59.5Y-78.55
X59.5Y-97.6
X117.078Y-95.324
X149.0Y-120.3
X154.94Y-83.82
T6
X50.0Y-69.05
X50.0Y-69.05
X50.0Y-88.1
X50.0Y-88.1
X50.0Y-107.15
X50.0Y-107.15
X69.05Y-69.05
X69.05Y-69.05
X69.05Y-88.1
X69.05Y-88.1
X69.05Y-107.15
X69.05Y-107.15
X88.1Y-67.145
X88.1Y-67.145
X88.1Y-86.195
X88.1Y-86.195
X88.1Y-105.245
X88.1Y-105.245
X107.15Y-63.335
X107.15Y-63.335
X107.15Y-82.385
X107.15Y-82.385
X107.15Y-101.435
X107.15Y-101.435
X107.15Y-127.1
X107.15Y-127.1
X126.2Y-67.145
X126.2Y-67.145
X126.2Y-86.195
X126.2Y-86.195
X126.2Y-105.245
X126.2Y-105.245
X127.3Y-128.9
X127.3Y-128.9
X145.25Y-70.955
X145.25Y-70.955
X145.25Y-90.005
X145.25Y-90.005
X145.25Y-109.055
X145.25Y-109.055
X147.0Y-134.2
X147.0Y-134.2
X164.3Y-74.765
X164.3Y-74.765
X164.3Y-93.815
X164.3Y-93.815
X164.3Y-120.3
X164.3Y-120.3
X165.4Y-142.8
X165.4Y-142.8
M30
