M48
; DRILL file {KiCad 8.0.1} date 2024-03-22T14:56:28+0900
; FORMAT={-:-/ absolute / metric / decimal}
; #@! TF.CreationDate,2024-03-22T14:56:28+09:00
; #@! TF.GenerationSoftware,Kicad,Pcbnew,8.0.1
; #@! TF.FileFunction,Plated,1,2,PTH
FMAT,2
METRIC
; #@! TA.AperFunction,Plated,PTH,ViaDrill
T1C0.400
; #@! TA.AperFunction,Plated,PTH,ComponentDrill
T2C0.400
; #@! TA.AperFunction,Plated,PTH,ComponentDrill
T3C0.600
; #@! TA.AperFunction,Plated,PTH,ComponentDrill
T4C0.813
; #@! TA.AperFunction,Plated,PTH,ComponentDrill
T5C1.300
; #@! TA.AperFunction,Plated,PTH,ComponentDrill
T6C1.600
; #@! TA.AperFunction,Plated,PTH,ComponentDrill
T7C3.050
%
G90
G05
T1
X44.496Y-126.39
X44.745Y-125.142
X47.4Y-131.224
X48.622Y-132.094
X49.227Y-129.928
X50.097Y-128.182
X50.213Y-103.297
X50.214Y-84.314
X50.227Y-65.356
X51.155Y-129.322
X53.692Y-126.681
X54.972Y-124.46
X56.242Y-132.048
X57.532Y-127.481
X58.782Y-132.092
X60.095Y-121.268
X61.322Y-132.068
X61.339Y-121.685
X62.635Y-120.528
X63.853Y-132.077
X63.865Y-123.276
X66.402Y-132.088
X66.402Y-124.103
X67.697Y-125.431
X68.942Y-132.048
X68.958Y-124.919
X69.075Y-65.287
X69.113Y-84.445
X69.181Y-103.269
X71.468Y-122.458
X71.482Y-132.092
X74.022Y-132.068
X76.438Y-122.436
X77.419Y-114.365
X78.422Y-131.402
X82.513Y-134.242
X87.922Y-132.292
X88.029Y-82.381
X88.064Y-63.261
X88.064Y-101.478
X95.726Y-121.583
X98.634Y-112.193
X99.869Y-121.568
X100.01Y-112.917
X101.363Y-113.57
X107.118Y-78.471
X107.297Y-59.592
X107.358Y-97.814
X108.745Y-123.377
X115.591Y-127.699
X115.975Y-114.889
X117.02Y-115.317
X118.112Y-116.114
X126.123Y-63.375
X126.209Y-101.437
X126.297Y-82.495
X129.923Y-125.715
X133.162Y-116.827
X133.199Y-117.64
X133.351Y-127.398
X137.19Y-106.902
X139.199Y-106.902
X145.551Y-105.264
X145.691Y-67.237
X145.761Y-86.426
X148.225Y-130.772
X162.959Y-123.275
X163.18Y-109.738
X164.147Y-70.857
X164.429Y-109.096
X167.296Y-146.262
X167.567Y-90.11
X167.64Y-116.84
T2
X168.424Y-104.669
X168.424Y-105.519
X168.424Y-106.369
X168.424Y-107.219
X168.424Y-108.069
X168.424Y-108.919
X168.424Y-109.769
X168.424Y-110.619
X169.774Y-104.669
X169.774Y-105.519
X169.774Y-106.369
X169.774Y-107.219
X169.774Y-108.069
X169.774Y-108.919
X169.774Y-109.769
X169.774Y-110.619
T4
X44.812Y-118.144
X44.812Y-133.364
X46.082Y-119.45
X46.082Y-134.69
X46.149Y-116.291
X46.308Y-97.623
X46.39Y-78.405
X47.352Y-118.144
X47.352Y-133.364
X48.622Y-119.45
X48.622Y-134.69
X49.892Y-118.144
X49.892Y-133.364
X51.162Y-119.45
X51.162Y-134.69
X52.432Y-118.144
X52.432Y-133.364
X53.702Y-119.45
X53.702Y-134.69
X53.769Y-116.291
X53.928Y-97.623
X54.01Y-78.405
X54.972Y-118.144
X54.972Y-133.364
X56.242Y-119.45
X56.242Y-134.69
X57.512Y-118.144
X57.512Y-133.364
X58.782Y-119.45
X58.782Y-134.69
X60.052Y-118.144
X60.052Y-133.364
X61.322Y-119.45
X61.322Y-134.69
X62.592Y-118.144
X62.592Y-133.364
X63.862Y-119.45
X63.862Y-134.69
X65.132Y-118.144
X65.132Y-133.364
X65.182Y-97.583
X65.232Y-78.521
X66.301Y-116.418
X66.402Y-119.45
X66.402Y-134.69
X67.672Y-118.144
X67.672Y-133.364
X68.942Y-119.45
X68.942Y-134.69
X70.212Y-118.144
X70.212Y-133.364
X71.482Y-119.45
X71.482Y-134.69
X72.752Y-118.144
X72.752Y-133.364
X72.802Y-97.583
X72.852Y-78.521
X73.921Y-116.418
X74.022Y-119.45
X74.022Y-134.69
X83.697Y-114.786
X84.291Y-76.586
X84.328Y-95.783
X85.273Y-123.825
X85.273Y-127.025
X90.353Y-123.825
X90.353Y-127.025
X91.317Y-114.786
X91.911Y-76.586
X91.948Y-95.783
X92.913Y-123.825
X92.913Y-127.025
X103.307Y-118.129
X103.326Y-72.827
X103.451Y-91.869
X103.833Y-111.038
X110.927Y-118.129
X110.946Y-72.827
X111.071Y-91.869
X111.453Y-111.038
X122.324Y-76.607
X122.399Y-95.473
X122.575Y-114.566
X125.748Y-118.905
X129.944Y-76.607
X130.019Y-95.473
X130.195Y-114.566
X133.252Y-120.228
X138.131Y-118.484
X141.212Y-80.432
X141.438Y-99.441
X145.751Y-118.484
X148.832Y-80.432
X148.891Y-125.554
X149.058Y-99.441
X155.457Y-105.745
X155.458Y-103.403
X156.051Y-128.161
X159.943Y-129.405
X160.34Y-84.275
X163.077Y-105.745
X163.078Y-103.403
X166.542Y-133.215
X167.96Y-84.275
T5
X86.682Y-130.63
X93.232Y-130.63
T6
X45.0Y-63.9
X45.0Y-82.95
X45.0Y-102.0
X55.0Y-63.9
X55.0Y-82.95
X55.0Y-102.0
X64.05Y-63.9
X64.05Y-82.95
X64.05Y-102.0
X74.05Y-63.9
X74.05Y-82.95
X74.05Y-102.0
X83.1Y-61.995
X83.1Y-81.045
X83.1Y-100.095
X93.1Y-61.995
X93.1Y-81.045
X93.1Y-100.095
X102.15Y-58.185
X102.15Y-77.235
X102.15Y-96.285
X102.15Y-121.95
X112.15Y-58.185
X112.15Y-77.235
X112.15Y-96.285
X112.15Y-121.95
X121.2Y-61.995
X121.2Y-81.045
X121.2Y-100.095
X123.27Y-122.96
X131.2Y-61.995
X131.2Y-81.045
X131.2Y-100.095
X133.118Y-124.696
X140.25Y-65.805
X140.25Y-84.855
X140.25Y-103.905
X144.063Y-127.65
X150.25Y-65.805
X150.25Y-84.855
X150.25Y-103.905
X153.46Y-131.071
X159.3Y-69.615
X159.3Y-88.665
X161.827Y-113.562
X163.645Y-135.84
X169.3Y-69.615
X169.3Y-88.665
X170.962Y-117.629
X172.305Y-140.84
T7
X45.0Y-72.85
X45.0Y-91.9
X45.0Y-110.95
X50.0Y-74.95
X50.0Y-74.95
X50.0Y-94.0
X50.0Y-94.0
X50.0Y-113.05
X50.0Y-113.05
X55.0Y-72.85
X55.0Y-91.9
X55.0Y-110.95
X64.05Y-72.85
X64.05Y-91.9
X64.05Y-110.95
X69.05Y-74.95
X69.05Y-74.95
X69.05Y-94.0
X69.05Y-94.0
X69.05Y-113.05
X69.05Y-113.05
X74.05Y-72.85
X74.05Y-91.9
X74.05Y-110.95
X83.1Y-70.945
X83.1Y-89.995
X83.1Y-109.045
X88.1Y-73.045
X88.1Y-73.045
X88.1Y-92.095
X88.1Y-92.095
X88.1Y-111.145
X88.1Y-111.145
X93.1Y-70.945
X93.1Y-89.995
X93.1Y-109.045
X102.15Y-67.135
X102.15Y-86.185
X102.15Y-105.235
X102.15Y-130.9
X107.15Y-69.235
X107.15Y-69.235
X107.15Y-88.285
X107.15Y-88.285
X107.15Y-107.335
X107.15Y-107.335
X107.15Y-133.0
X107.15Y-133.0
X112.15Y-67.135
X112.15Y-86.185
X112.15Y-105.235
X112.15Y-130.9
X121.2Y-70.945
X121.2Y-89.995
X121.2Y-109.045
X121.716Y-131.774
X126.2Y-73.045
X126.2Y-73.045
X126.2Y-92.095
X126.2Y-92.095
X126.2Y-111.145
X126.2Y-111.145
X126.275Y-134.71
X126.275Y-134.71
X131.2Y-70.945
X131.2Y-89.995
X131.2Y-109.045
X131.564Y-133.511
X140.25Y-74.755
X140.25Y-93.805
X140.25Y-112.855
X141.002Y-136.061
X144.982Y-139.744
X144.982Y-139.744
X145.25Y-76.855
X145.25Y-76.855
X145.25Y-95.905
X145.25Y-95.905
X145.25Y-114.955
X145.25Y-114.955
X150.25Y-74.755
X150.25Y-93.805
X150.25Y-112.855
X150.399Y-139.481
X158.187Y-121.738
X159.17Y-143.591
X159.3Y-78.565
X159.3Y-97.615
X161.9Y-125.69
X161.9Y-125.69
X162.45Y-147.91
X162.45Y-147.91
X164.3Y-80.665
X164.3Y-80.665
X164.3Y-99.715
X164.3Y-99.715
X167.322Y-125.805
X167.83Y-148.591
X169.3Y-78.565
X169.3Y-97.615
T3
G00X168.654Y-103.319
M15
G01X170.154Y-103.319
M16
G05
G00X168.654Y-111.969
M15
G01X170.154Y-111.969
M16
G05
G00X172.384Y-103.319
M15
G01X173.184Y-103.319
M16
G05
G00X172.384Y-111.969
M15
G01X173.184Y-111.969
M16
G05
M30
